<svg width="835" height="513" viewBox="0 0 835 513" fill="none" xmlns="http://www.w3.org/2000/svg">
<g opacity="0.06" clip-path="url(#clip0_1649:9111)">
<path fill-rule="evenodd" clip-rule="evenodd" d="M128.036 498.422H340.176V476.035H128.036V498.422Z" fill="#CAE9FF"/>
<path d="M363.554 111.262H214.72C127.079 111.262 56.032 182.309 56.032 269.95C56.032 357.591 127.079 428.638 214.72 428.638H225.635V405.514H214.72C139.85 405.514 79.1561 344.82 79.1561 269.95C79.1561 195.08 139.85 134.386 214.72 134.386H363.554V111.262Z" fill="#CAE9FF"/>
<path d="M455.378 258.312C526.768 207.474 543.427 108.389 492.589 36.9999L486.258 28.1087L467.422 41.5224L473.753 50.4135C517.183 111.4 502.951 196.046 441.965 239.476C423.89 252.347 403.737 260.154 383.195 263.18L389.838 285.545C412.755 281.68 435.176 272.699 455.378 258.312Z" fill="#CAE9FF"/>
<path fill-rule="evenodd" clip-rule="evenodd" d="M811.669 336.682C811.669 258.978 748.678 195.988 670.975 195.988H536.244V219.174H670.975C735.873 219.174 788.483 271.784 788.483 336.682V347.875H811.669V336.682Z" fill="#CAE9FF"/>
<path d="M323.924 -78.9665C401.628 -78.9665 464.619 -141.957 464.619 -219.661V-230.854H441.432V-219.661C441.432 -154.763 388.822 -102.153 323.924 -102.153L312.174 -102.173H294.866C244.414 -102.173 203.514 -61.2732 203.514 -10.8206V0.494888H226.639V-10.8206C226.639 -48.5016 257.185 -79.0481 294.866 -79.0481H310.723L323.924 -78.9665Z" fill="#CAE9FF"/>
<path d="M418.447 340.352C496.151 340.352 559.142 403.342 559.142 481.046V492.239H535.955V481.046C535.955 416.148 483.345 363.538 418.447 363.538L406.697 363.558H389.389C338.937 363.558 298.037 322.658 298.037 272.206V260.89H321.162V272.206C321.162 309.887 351.708 340.433 389.389 340.433H405.246L418.447 340.352Z" fill="#CAE9FF"/>
<path d="M473.093 298.338C550.796 298.338 613.787 361.328 613.787 439.032H590.601C590.601 374.134 537.991 321.524 473.093 321.524V298.338Z" fill="#CAE9FF"/>
<path d="M389.307 -11.0816L284.051 -11.0816L284.051 -34.2067L389.307 -34.2067C418.741 -34.2067 444.923 -20.2865 461.63 1.32956L442.947 14.9782C430.455 -0.891345 411.071 -11.0816 389.307 -11.0816Z" fill="#CAE9FF"/>
<path fill-rule="evenodd" clip-rule="evenodd" d="M203.643 51.8916L203.643 75.078L373.943 75.078C401.654 75.078 424.119 97.5422 424.119 125.253C424.119 154.452 399.429 180.43 373.689 181.014L305.184 181.263L305.184 204.393L374.198 204.133C394.071 203.681 412.343 193.633 425.445 179.367C438.57 165.075 447.305 145.713 447.305 125.253C447.305 84.7367 414.46 51.8916 373.943 51.8916L203.643 51.8916Z" fill="#CAE9FF"/>
<path d="M788.076 410.058C788.076 431.142 770.977 448.234 749.893 448.234C728.809 448.234 711.717 431.142 711.717 410.058H688.124C688.124 444.172 715.779 471.827 749.893 471.827C784.007 471.827 811.661 444.172 811.661 410.058L811.669 410.058V380.705H788.076V410.058Z" fill="#CAE9FF"/>
<path fill-rule="evenodd" clip-rule="evenodd" d="M193.601 317.363C159.487 317.363 131.832 289.708 131.832 255.594C131.832 221.481 159.487 193.826 193.601 193.826C227.714 193.826 255.369 221.481 255.369 255.594C255.369 289.708 227.714 317.363 193.601 317.363ZM193.601 293.77C172.517 293.77 155.425 276.678 155.425 255.594C155.425 234.51 172.517 217.419 193.601 217.419C214.685 217.419 231.776 234.51 231.776 255.594C231.776 276.678 214.685 293.77 193.601 293.77Z" fill="#CAE9FF"/>
<path fill-rule="evenodd" clip-rule="evenodd" d="M681.952 380.705C647.838 380.705 620.183 353.051 620.183 318.937C620.183 284.823 647.838 257.168 681.952 257.168C716.066 257.168 743.72 284.823 743.72 318.937C743.72 353.051 716.066 380.705 681.952 380.705ZM681.952 357.113C660.868 357.113 643.776 340.021 643.776 318.937C643.776 297.853 660.868 280.761 681.952 280.761C703.036 280.761 720.128 297.853 720.128 318.937C720.128 340.021 703.036 357.113 681.952 357.113Z" fill="#CAE9FF"/>
<path d="M326.85 429.47V429.458H334.046C372.133 429.458 403.009 460.334 403.009 498.422H426.79C426.79 447.201 385.267 405.677 334.046 405.677L267.37 405.677V429.47L326.85 429.47Z" fill="#CAE9FF"/>
<path d="M105.44 -149.639C105.44 -183.753 77.7853 -211.408 43.6715 -211.408C9.55772 -211.408 -18.0969 -183.753 -18.0969 -149.639V-26.1024C-18.0969 8.01158 9.55772 35.6661 43.6715 35.6661C77.7853 35.6661 105.44 8.01158 105.44 -26.1024V-49.4798H81.8401V-26.1024H81.8473C81.8473 -5.01866 64.7554 12.0733 43.6715 12.0733C22.5876 12.0733 5.49566 -5.01866 5.49566 -26.1024H5.50288V-149.639H5.49566C5.49566 -170.723 22.5876 -187.815 43.6715 -187.815C64.7554 -187.815 81.8473 -170.723 81.8473 -149.639H81.8401V-126.053H105.44V-149.639Z" fill="#CAE9FF"/>
<path d="M612.733 35.3694C578.619 35.3694 550.965 63.0241 550.965 97.1378C550.965 131.252 578.619 158.906 612.733 158.906L736.27 158.906C770.384 158.906 798.039 131.252 798.039 97.1378C798.039 63.024 770.384 35.3694 736.27 35.3694L712.893 35.3694L712.893 58.9692L736.27 58.9692L736.27 58.962C757.354 58.962 774.446 76.0539 774.446 97.1378C774.446 118.222 757.354 135.314 736.27 135.314L736.27 135.306L612.733 135.306L612.733 135.314C591.65 135.314 574.558 118.222 574.558 97.1378C574.558 76.0539 591.65 58.962 612.733 58.962L612.733 58.9692L636.32 58.9692L636.32 35.3694L612.733 35.3694Z" fill="#CAE9FF"/>
</g>
<defs>
<clipPath id="clip0_1649:9111">
<rect width="835" height="513" fill="white" transform="matrix(-1 0 0 1 835 0)"/>
</clipPath>
</defs>
</svg>
