<svg width="981" height="1087" viewBox="0 0 981 1087" fill="none" xmlns="http://www.w3.org/2000/svg">
<g clip-path="url(#clip0_1712:5165)">
<path d="M666.564 653.196H643.693V841.321H666.564V653.196Z" fill="#2D50CC"/>
<path d="M881.398 547.318H771.518V747.49H881.398V547.318Z" fill="#2D50CC"/>
<path d="M753.619 472.624H748.893V539.24H753.619V472.624Z" fill="#2D50CC"/>
<path d="M696.694 472.624H691.969V539.24H696.694V472.624Z" fill="#2D50CC"/>
<path d="M483.004 599.122H415.81V943.152H483.004V599.122Z" fill="#2D50CC"/>
<path d="M696.818 472.022H692.092V538.638H696.818V472.022Z" fill="#2D50CC"/>
<path d="M753.743 472.022H749.017V538.638H753.743V472.022Z" fill="#2D50CC"/>
<path d="M773.942 438.706H769.217V505.322H773.942V438.706Z" fill="#2D50CC"/>
<path d="M474.85 576.371H469.815V642.987H474.85V576.371Z" fill="#2D50CC"/>
<path d="M799.563 484.688H693.729V958.474H799.563V484.688Z" fill="#3259E3"/>
<path d="M693.729 546.809H684.695V958.474H693.729V546.809Z" fill="#3259E3"/>
<path d="M684.695 617.209H589.764V1103.21H684.695V617.209Z" fill="#3259E3"/>
<path d="M589.764 582.935H480.826V928.756H589.764V582.935Z" fill="#3259E3"/>
<path d="M480.842 632.113H427.5V897.233H480.842V632.113Z" fill="#3259E3"/>
<path d="M718.099 452.699H711.427V546.808H718.099V452.699Z" fill="#3259E3"/>
<path d="M746.639 452.699H739.967V546.808H746.639V452.699Z" fill="#3259E3"/>
<path d="M776.661 452.699H769.989V546.808H776.661V452.699Z" fill="#3259E3"/>
<path d="M622.612 553.234H615.941V647.343H622.612V553.234Z" fill="#3259E3"/>
<path d="M644.341 585.051H637.222V679.159H644.341V585.051Z" fill="#3259E3"/>
<path d="M673.19 585.051H666.07V679.159H673.19V585.051Z" fill="#3259E3"/>
<path d="M1007.4 208.693H690.811V1445.87H1007.4V208.693Z" fill="#1D3DAE"/>
<path d="M1030.57 191.704H676.912V224.139H1030.57V191.704Z" fill="#173293"/>
<path d="M384.073 598.875L690.78 517.679V552.4L392.505 630.353L384.073 598.875Z" fill="#173293"/>
<path d="M772.151 529.957L404.072 626.027V1445.94H772.151V529.957Z" fill="#1D3DAE"/>
<path d="M673.993 769.361C673.993 744.974 664.307 721.586 647.067 704.34C629.826 687.094 606.442 677.404 582.058 677.399C557.671 677.399 534.283 687.088 517.039 704.334C499.795 721.581 490.108 744.971 490.108 769.361V889.541H673.993V769.361Z" fill="#FFBA37"/>
<path fill-rule="evenodd" clip-rule="evenodd" d="M588.76 696.644C595.483 696.648 601.929 699.321 606.681 704.077C611.433 708.833 614.103 715.281 614.103 722.005V746.285C614.104 752.496 611.827 758.492 607.702 763.135C603.578 767.778 597.893 770.746 591.725 771.476C591.718 771.538 591.718 771.6 591.725 771.662H557.75C552.345 766.395 557.75 732.647 561.734 717.881C562.712 711.95 565.763 706.559 570.346 702.669C574.928 698.78 580.742 696.644 586.753 696.644H588.76Z" fill="#151617"/>
<path fill-rule="evenodd" clip-rule="evenodd" d="M587.231 753.173C579.649 757.807 572.189 759.969 568.699 759.058C559.912 756.803 559.109 724.692 565.904 712.042C572.699 699.393 607.601 693.863 609.362 718.946C609.964 727.642 606.273 735.411 600.914 741.759L610.597 786.875H582.475L587.231 753.173Z" fill="#F4816D"/>
<path fill-rule="evenodd" clip-rule="evenodd" d="M613.084 719.086C612.281 718.283 611.539 717.541 610.705 716.8V715.888C610.705 715.888 601.887 697.817 588.312 697.817C574.738 697.817 570.475 704.119 566.831 709.479C568.746 716.028 574.552 718.669 580.977 721.665C583.92 722.952 586.783 724.416 589.548 726.052C590.349 725.407 591.294 724.964 592.301 724.759C593.309 724.555 594.352 724.594 595.341 724.875C596.33 725.156 597.238 725.67 597.988 726.373C598.738 727.077 599.309 727.95 599.653 728.92C599.996 729.889 600.103 730.927 599.963 731.946C599.823 732.965 599.442 733.936 598.85 734.777C598.258 735.618 597.474 736.305 596.562 736.781C595.65 737.257 594.638 737.508 593.609 737.512H593.316C592.019 751.413 592.528 767.322 596.405 771.106H630.38C631.353 754.116 626.967 749.312 622.489 744.37C618.273 739.736 613.964 734.979 613.964 719.966L613.068 719.086H613.084Z" fill="#151617"/>
<path fill-rule="evenodd" clip-rule="evenodd" d="M642.771 901.304H596.5C556.687 901.304 571.256 850.469 598.282 769.103H612.181C613.428 769.122 614.641 769.507 615.67 770.21C616.7 770.913 617.501 771.903 617.972 773.057C636.674 808.967 650.4 849.948 642.771 901.304Z" fill="#4B72FF"/>
<path d="M687.938 882.513H476.162V900.908H687.938V882.513Z" fill="#4B72FF"/>
<path fill-rule="evenodd" clip-rule="evenodd" d="M529.164 758.781L487.992 737.512C482.045 730.527 475.165 724.394 467.545 719.287C465.522 718.499 462.001 718.082 465.429 723.812C468.858 729.542 472.193 735.751 470.556 737.589C468.919 739.427 464.703 737.018 462.835 740.045C461.558 742.105 468.765 745.07 484.456 748.942L514.663 775.199L529.164 758.781Z" fill="#F4816D"/>
<path fill-rule="evenodd" clip-rule="evenodd" d="M608.451 770.904C583.232 766.147 540.067 763.552 494.169 738.731L485.073 761.328C521.998 796.173 560.87 824.052 598.335 819.186C604.636 818.352 598.799 799.957 608.451 770.904Z" fill="#446CFC"/>
<path fill-rule="evenodd" clip-rule="evenodd" d="M583.834 882.761L572.406 882.514C576.9 862.914 573.579 818.385 573.579 818.385C581.44 835.776 582.815 854.172 583.834 882.761Z" fill="black" fill-opacity="0.16"/>
<path fill-rule="evenodd" clip-rule="evenodd" d="M547.696 846.804L512.084 876.52C503.35 879.294 495.037 883.249 487.374 888.274C485.83 889.819 484.1 892.908 490.726 891.997C497.351 891.085 504.347 890.452 505.397 892.599C506.447 894.746 502.602 897.773 504.64 900.723C506.02 902.69 511.549 897.212 521.226 884.289L557.21 866.682L547.696 846.804Z" fill="#F4816D"/>
<path fill-rule="evenodd" clip-rule="evenodd" d="M601.069 769.439C583.093 808.577 555.526 839.437 514.802 872.258L532.052 889.449C578.506 868.83 589.409 861.323 606.181 845.754C622.952 830.185 628.311 815.883 629.238 800.7C629.238 800.7 619.06 771.045 614.057 769.439C609.053 767.832 601.069 769.439 601.069 769.439Z" fill="#5D81FF"/>
<path opacity="0.35" d="M763.487 459.342C763.487 436.697 772.482 414.98 788.492 398.968C804.502 382.956 826.217 373.96 848.859 373.96V373.96C860.076 373.95 871.186 376.151 881.552 380.437C891.919 384.723 901.339 391.011 909.275 398.94C917.211 406.87 923.506 416.286 927.801 426.65C932.096 437.014 934.307 448.123 934.307 459.342V570.935H763.487V459.342Z" fill="#4B72FF"/>
<path d="M947.141 560.462H750.592V578.286H947.141V560.462Z" fill="#496BE4"/>
<path opacity="0.35" d="M760.028 779.416C760.028 756.886 768.977 735.279 784.906 719.348C800.835 703.417 822.44 694.467 844.967 694.467C867.494 694.467 889.099 703.417 905.028 719.348C920.957 735.279 929.906 756.886 929.906 779.416V890.515H760.028V779.416Z" fill="#4B72FF"/>
<path d="M942.832 880.089H747.179V897.836H942.832V880.089Z" fill="#496BE4"/>
<path d="M235.945 702.271C237.812 694.618 233.16 684.607 217.289 678.806C201.419 673.005 190.308 670.97 180.421 666.561C170.535 662.153 160.832 655.77 159.807 653C159.179 670.143 156.103 702.133 156.042 702.409C162.776 696.822 189.558 702.761 206.944 708.378C224.329 713.995 234.063 709.924 235.945 702.271Z" fill="#527EF8"/>
<path d="M192.91 687.041C188.318 690.883 179.977 703.097 167.826 700.174L223.839 713.628C224.329 709.113 225.002 698.674 223.763 692.934C217.366 690.179 200.531 687.852 192.91 687.041Z" fill="#A0B9FF"/>
<path d="M81.4031 733.404L27.8384 743.904L50.0907 761.415C50.0907 761.415 79.5054 758.124 98.5285 756.501C117.552 754.879 125.877 754.971 130.866 753.991C133.422 753.103 136.866 749.17 132.091 745.588C126.137 741.088 90.5397 733.19 85.6577 729.455C87.2799 731.353 83.1631 733.251 81.4031 733.404Z" fill="#A0B9FF"/>
<path d="M58.9824 714.669C59.8547 719.658 103.839 726.837 105.844 729.21C105.844 729.21 127.423 741.026 133.147 745.036C138.87 749.047 130.958 754.128 130.958 754.128C140.799 758.108 164.627 766.144 185.334 768.057C211.244 770.43 246.551 756.516 253.545 737.827C259.161 722.873 238.975 711.378 229.211 708.01C217.764 704.383 183.513 698.827 160.342 699.454C137.172 700.082 96.0033 704.903 88.0604 705.699C81.0511 706.403 58.1253 709.694 58.9824 714.669Z" fill="#527EF8"/>
<path d="M88.0606 705.699C81.0513 706.403 55.6004 707.796 57.2685 718.296C58.9367 728.796 100.35 738.041 109.884 741.914C124.76 747.945 133.912 751.725 133.912 751.725C140.34 748.388 173.198 749.582 196.445 751.725C222.355 754.113 251.54 743.138 253.545 737.827C259.162 722.873 238.975 711.378 229.211 708.01C217.764 704.383 183.513 698.827 160.342 699.454C137.172 700.082 96.0035 704.903 88.0606 705.699Z" fill="#84A5FF"/>
<path d="M86.9279 769.818C89.0705 761.17 83.76 749.751 65.7163 743.154C47.6726 736.557 32.2613 729.945 21.0127 724.94C9.76409 719.935 3.79544 712.695 2.64763 709.48C1.92833 728.981 0.0765211 769.252 0 769.558C7.65211 763.206 34.2049 770.4 53.9627 776.782C73.7204 783.165 84.8006 778.466 86.9279 769.818Z" fill="#527EF8"/>
</g>
<defs>
<clipPath id="clip0_1712:5165">
<rect width="981" height="1087" fill="white"/>
</clipPath>
</defs>
</svg>
