<svg width="1531" height="810" viewBox="0 0 1531 810" fill="none" xmlns="http://www.w3.org/2000/svg">
<g clip-path="url(#clip0_1529:8564)">
<rect width="13.612" height="111.973" transform="matrix(-1 0 0 1 380.502 670.291)" fill="#2749C4"/>
<rect width="44.5942" height="199.625" transform="matrix(-1 0 0 1 239.002 582.638)" fill="#2749C4"/>
<rect width="3.80667" height="173.451" transform="matrix(-1 0 0 1 194.408 608.812)" fill="#2749C4"/>
<rect width="40.0011" height="204.769" transform="matrix(-1 0 0 1 190.602 638.471)" fill="#2749C4"/>
<rect width="687.376" height="287.083" transform="matrix(-1 0 0 1 366.891 699.698)" fill="#2749C4"/>
<rect width="45.9022" height="145.71" transform="matrix(-1 0 0 1 150.6 624.029)" fill="#2749C4"/>
<rect width="22.4744" height="111.707" transform="matrix(-1 0 0 1 104.697 644.749)" fill="#2749C4"/>
<rect width="14.7858" height="103.647" transform="matrix(-1 0 0 1 82.2227 652.809)" fill="#2749C4"/>
<rect width="32.7059" height="117.985" transform="matrix(-1 0 0 1 67.4375 638.471)" fill="#2749C4"/>
<rect width="65.412" height="119.143" transform="matrix(-1 0 0 1 304.414 607.266)" fill="#2749C4"/>
<rect width="62.4759" height="205.981" transform="matrix(-1 0 0 1 366.891 576.282)" fill="#2749C4"/>
<rect width="38.114" height="157.516" transform="matrix(-1 0 0 1 35.3223 653.293)" fill="#2749C4"/>
<rect x="201.869" y="569.162" width="2.81195" height="39.6503" fill="#2749C4"/>
<rect x="213.893" y="569.162" width="2.81195" height="39.6503" fill="#2749C4"/>
<rect x="226.547" y="569.162" width="2.81195" height="39.6503" fill="#2749C4"/>
<rect x="315.07" y="562.813" width="2.81195" height="39.6503" fill="#2749C4"/>
<rect x="348.955" y="562.813" width="2.81195" height="39.6503" fill="#2749C4"/>
<rect x="360.977" y="542.988" width="2.81195" height="39.6503" fill="#2749C4"/>
<rect x="49.6777" y="611.517" width="2.81195" height="39.6503" fill="#2749C4"/>
<rect x="42.1133" y="627.188" width="2.81195" height="39.6503" fill="#2749C4"/>
<rect x="161.629" y="611.517" width="2.81195" height="39.6503" fill="#2749C4"/>
<rect x="170.6" y="624.924" width="2.99764" height="39.6503" fill="#2749C4"/>
<rect x="182.754" y="624.924" width="2.99764" height="39.6503" fill="#2749C4"/>
<rect x="57.6523" y="628.91" width="2.81195" height="39.6503" fill="#2749C4"/>
<rect x="958.512" y="670.656" width="13.612" height="111.973" fill="#2749C4"/>
<rect x="1100.01" y="583.004" width="44.5942" height="199.625" fill="#2749C4"/>
<rect x="1144.61" y="609.177" width="3.80667" height="173.451" fill="#2749C4"/>
<rect x="1148.41" y="638.836" width="40.0011" height="204.769" fill="#2749C4"/>
<rect x="972.123" y="700.063" width="687.376" height="287.083" fill="#2749C4"/>
<rect x="1188.41" y="624.394" width="45.9022" height="145.71" fill="#2749C4"/>
<rect x="1234.32" y="645.114" width="22.4744" height="111.707" fill="#2749C4"/>
<rect x="1256.79" y="653.174" width="14.7858" height="103.647" fill="#2749C4"/>
<rect x="1271.58" y="638.836" width="32.7059" height="117.985" fill="#2749C4"/>
<rect x="1417.25" y="578.757" width="69.552" height="203.871" fill="#2749C4"/>
<rect x="1486.8" y="617.497" width="26.498" height="165.131" fill="#2749C4"/>
<rect x="1394.77" y="599.23" width="22.4744" height="120.346" fill="#2749C4"/>
<rect x="1513.3" y="581.369" width="42.6203" height="201.26" fill="#2749C4"/>
<rect x="1341.8" y="618.302" width="28.8908" height="138.52" fill="#2749C4"/>
<rect x="1370.7" y="631.708" width="24.0757" height="125.113" fill="#2749C4"/>
<rect x="1034.6" y="607.632" width="65.412" height="119.143" fill="#2749C4"/>
<rect x="972.123" y="576.648" width="62.4759" height="205.981" fill="#2749C4"/>
<rect x="1303.69" y="653.659" width="38.114" height="157.516" fill="#2749C4"/>
<rect width="2.81195" height="39.6503" transform="matrix(-1 0 0 1 1480.69 544.508)" fill="#2749C4"/>
<rect width="2.81195" height="39.6503" transform="matrix(-1 0 0 1 1137.14 569.527)" fill="#2749C4"/>
<rect width="2.81195" height="39.6503" transform="matrix(-1 0 0 1 1125.12 569.527)" fill="#2749C4"/>
<rect width="2.81195" height="39.6503" transform="matrix(-1 0 0 1 1112.47 569.527)" fill="#2749C4"/>
<rect width="2.81195" height="39.6503" transform="matrix(-1 0 0 1 1023.94 563.178)" fill="#2749C4"/>
<rect width="2.81195" height="39.6503" transform="matrix(-1 0 0 1 990.061 563.178)" fill="#2749C4"/>
<rect width="2.81195" height="39.6503" transform="matrix(-1 0 0 1 978.037 543.353)" fill="#2749C4"/>
<rect width="2.81195" height="39.6503" transform="matrix(-1 0 0 1 1365.63 605.464)" fill="#2749C4"/>
<rect width="2.81195" height="39.6503" transform="matrix(-1 0 0 1 1359.06 592.536)" fill="#2749C4"/>
<rect width="2.81195" height="39.6503" transform="matrix(-1 0 0 1 1289.34 611.883)" fill="#2749C4"/>
<rect width="2.81195" height="39.6503" transform="matrix(-1 0 0 1 1296.9 627.553)" fill="#2749C4"/>
<rect width="2.81195" height="39.6503" transform="matrix(-1 0 0 1 1177.38 611.883)" fill="#2749C4"/>
<rect width="2.99764" height="39.6503" transform="matrix(-1 0 0 1 1168.41 625.289)" fill="#2749C4"/>
<rect width="2.99764" height="39.6503" transform="matrix(-1 0 0 1 1156.26 625.289)" fill="#2749C4"/>
<rect width="2.81195" height="39.6503" transform="matrix(-1 0 0 1 1281.36 629.276)" fill="#2749C4"/>
<rect width="2.81195" height="39.6503" transform="matrix(-1 0 0 1 1436.26 569.527)" fill="#2749C4"/>
<rect width="2.81195" height="39.6503" transform="matrix(-1 0 0 1 1423.61 569.527)" fill="#2749C4"/>
<rect width="13.612" height="111.973" transform="matrix(-1 0 0 1 1052.75 670.291)" fill="#2749C4"/>
<rect width="44.5942" height="199.625" transform="matrix(-1 0 0 1 911.254 582.638)" fill="#2749C4"/>
<rect width="3.80667" height="173.451" transform="matrix(-1 0 0 1 866.66 608.812)" fill="#2749C4"/>
<rect width="40.0011" height="204.769" transform="matrix(-1 0 0 1 862.854 638.471)" fill="#2749C4"/>
<rect width="687.376" height="287.083" transform="matrix(-1 0 0 1 1039.14 699.698)" fill="#2749C4"/>
<rect width="45.9022" height="145.71" transform="matrix(-1 0 0 1 822.852 624.029)" fill="#2749C4"/>
<rect width="22.4744" height="111.707" transform="matrix(-1 0 0 1 776.949 644.749)" fill="#2749C4"/>
<rect width="14.7858" height="103.647" transform="matrix(-1 0 0 1 754.475 652.809)" fill="#2749C4"/>
<rect width="32.7059" height="117.985" transform="matrix(-1 0 0 1 739.689 638.471)" fill="#2749C4"/>
<rect width="69.552" height="203.871" transform="matrix(-1 0 0 1 594.02 578.392)" fill="#2749C4"/>
<rect width="26.498" height="165.131" transform="matrix(-1 0 0 1 524.469 617.132)" fill="#2749C4"/>
<rect width="22.4744" height="120.346" transform="matrix(-1 0 0 1 616.494 598.865)" fill="#2749C4"/>
<rect width="42.6203" height="201.26" transform="matrix(-1 0 0 1 497.971 581.003)" fill="#2749C4"/>
<rect width="40.6519" height="206.325" transform="matrix(-1 0 0 1 451.449 575.938)" fill="#2749C4"/>
<rect width="45.4192" height="146.988" transform="matrix(-1 0 0 1 410.797 635.275)" fill="#2749C4"/>
<rect width="13.612" height="111.973" transform="matrix(-1 0 0 1 365.377 670.291)" fill="#2749C4"/>
<rect width="3.90047" height="173.451" transform="matrix(-1 0 0 1 455.35 608.812)" fill="#2749C4"/>
<rect width="28.8908" height="138.52" transform="matrix(-1 0 0 1 669.461 617.936)" fill="#2749C4"/>
<rect width="24.0757" height="125.113" transform="matrix(-1 0 0 1 640.57 631.343)" fill="#2749C4"/>
<rect width="65.412" height="119.143" transform="matrix(-1 0 0 1 976.666 607.266)" fill="#2749C4"/>
<rect width="62.4759" height="205.981" transform="matrix(-1 0 0 1 1039.14 576.282)" fill="#2749C4"/>
<rect width="38.114" height="157.516" transform="matrix(-1 0 0 1 707.574 653.293)" fill="#2749C4"/>
<rect x="414.719" y="558.484" width="2.81195" height="27.5584" fill="#2749C4"/>
<rect x="423.717" y="564.613" width="2.81195" height="27.5584" fill="#2749C4"/>
<rect x="445.65" y="558.484" width="2.81195" height="27.5584" fill="#2749C4"/>
<rect x="530.576" y="544.142" width="2.81195" height="39.6503" fill="#2749C4"/>
<rect x="874.121" y="569.162" width="2.81195" height="39.6503" fill="#2749C4"/>
<rect x="886.145" y="569.162" width="2.81195" height="39.6503" fill="#2749C4"/>
<rect x="898.799" y="569.162" width="2.81195" height="39.6503" fill="#2749C4"/>
<rect x="987.322" y="562.813" width="2.81195" height="39.6503" fill="#2749C4"/>
<rect x="1021.21" y="562.813" width="2.81195" height="39.6503" fill="#2749C4"/>
<rect x="1033.23" y="542.988" width="2.81195" height="39.6503" fill="#2749C4"/>
<rect x="645.635" y="605.099" width="2.81195" height="39.6503" fill="#2749C4"/>
<rect x="652.203" y="592.171" width="2.81195" height="39.6503" fill="#2749C4"/>
<rect x="721.93" y="611.517" width="2.81195" height="39.6503" fill="#2749C4"/>
<rect x="714.365" y="627.188" width="2.81195" height="39.6503" fill="#2749C4"/>
<rect x="833.881" y="611.517" width="2.81195" height="39.6503" fill="#2749C4"/>
<rect x="842.852" y="624.924" width="2.99764" height="39.6503" fill="#2749C4"/>
<rect x="855.006" y="624.924" width="2.99764" height="39.6503" fill="#2749C4"/>
<rect x="729.904" y="628.91" width="2.81195" height="39.6503" fill="#2749C4"/>
<rect x="575.006" y="569.162" width="2.81195" height="39.6503" fill="#2749C4"/>
<rect x="587.66" y="569.162" width="2.81195" height="39.6503" fill="#2749C4"/>
<rect width="19.229" height="158.178" transform="matrix(-1 0 0 1 301.521 691.181)" fill="#3057E0"/>
<rect width="62.9959" height="282" transform="matrix(-1 0 0 1 101.633 567.359)" fill="#3057E0"/>
<rect width="5.37748" height="245.026" transform="matrix(-1 0 0 1 38.6367 604.333)" fill="#3057E0"/>
<rect width="56.5074" height="289.266" transform="matrix(-1 0 0 1 33.2578 646.23)" fill="#3057E0"/>
<rect width="971.02" height="405.547" transform="matrix(-1 0 0 1 282.293 732.723)" fill="#3057E0"/>
<rect width="92.4041" height="168.308" transform="matrix(-1 0 0 1 194.037 602.15)" fill="#3057E0"/>
<rect width="88.2564" height="290.978" transform="matrix(-1 0 0 1 282.293 558.38)" fill="#3057E0"/>
<rect x="49.1777" y="548.321" width="3.9723" height="56.0119" fill="#3057E0"/>
<rect x="66.1621" y="548.321" width="3.9723" height="56.0119" fill="#3057E0"/>
<rect x="84.0391" y="548.321" width="3.9723" height="56.0119" fill="#3057E0"/>
<rect x="209.09" y="539.353" width="3.9723" height="56.0119" fill="#3057E0"/>
<rect x="256.955" y="539.353" width="3.9723" height="56.0119" fill="#3057E0"/>
<rect x="273.939" y="511.347" width="3.9723" height="56.0119" fill="#3057E0"/>
<rect x="5.00391" y="627.094" width="4.2346" height="56.0119" fill="#3057E0"/>
<rect x="22.1738" y="627.094" width="4.2346" height="56.0119" fill="#3057E0"/>
<rect x="1118.05" y="691.697" width="19.229" height="158.178" fill="#3057E0"/>
<rect x="1317.94" y="567.875" width="62.9959" height="282" fill="#3057E0"/>
<rect x="1380.93" y="604.849" width="5.37748" height="245.026" fill="#3057E0"/>
<rect x="1386.31" y="646.746" width="56.5074" height="289.266" fill="#3057E0"/>
<rect x="1137.28" y="733.239" width="971.02" height="405.547" fill="#3057E0"/>
<rect x="1442.82" y="626.346" width="64.8436" height="205.837" fill="#3057E0"/>
<rect x="1507.66" y="655.615" width="31.7484" height="157.802" fill="#3057E0"/>
<rect x="1225.53" y="602.666" width="92.4041" height="168.308" fill="#3057E0"/>
<rect x="1137.28" y="558.896" width="88.2564" height="290.978" fill="#3057E0"/>
<rect width="3.9723" height="56.0119" transform="matrix(-1 0 0 1 1370.39 548.837)" fill="#3057E0"/>
<rect width="3.9723" height="56.0119" transform="matrix(-1 0 0 1 1353.41 548.837)" fill="#3057E0"/>
<rect width="3.9723" height="56.0119" transform="matrix(-1 0 0 1 1335.53 548.837)" fill="#3057E0"/>
<rect width="3.9723" height="56.0119" transform="matrix(-1 0 0 1 1210.48 539.869)" fill="#3057E0"/>
<rect width="3.9723" height="56.0119" transform="matrix(-1 0 0 1 1162.61 539.869)" fill="#3057E0"/>
<rect width="3.9723" height="56.0119" transform="matrix(-1 0 0 1 1145.63 511.863)" fill="#3057E0"/>
<rect width="3.9723" height="56.0119" transform="matrix(-1 0 0 1 1427.24 608.671)" fill="#3057E0"/>
<rect width="4.23472" height="56.0119" transform="matrix(-1 0 0 1 1414.56 627.609)" fill="#3057E0"/>
<rect width="4.2346" height="56.0119" transform="matrix(-1 0 0 1 1397.39 627.609)" fill="#3057E0"/>
<rect width="19.229" height="158.178" transform="matrix(-1 0 0 1 1251.18 691.181)" fill="#3057E0"/>
<rect width="62.9959" height="282" transform="matrix(-1 0 0 1 1051.29 567.359)" fill="#3057E0"/>
<rect width="5.37748" height="245.026" transform="matrix(-1 0 0 1 988.291 604.333)" fill="#3057E0"/>
<rect width="56.5074" height="289.266" transform="matrix(-1 0 0 1 982.912 646.23)" fill="#3057E0"/>
<rect width="971.02" height="405.547" transform="matrix(-1 0 0 1 1231.95 732.723)" fill="#3057E0"/>
<rect width="64.8436" height="205.837" transform="matrix(-1 0 0 1 926.406 625.829)" fill="#3057E0"/>
<rect width="31.7484" height="157.802" transform="matrix(-1 0 0 1 861.562 655.099)" fill="#3057E0"/>
<rect width="20.8871" height="146.417" transform="matrix(-1 0 0 1 829.812 666.485)" fill="#3057E0"/>
<rect width="46.2019" height="166.672" transform="matrix(-1 0 0 1 808.926 646.23)" fill="#3057E0"/>
<rect width="98.2524" height="287.998" transform="matrix(-1 0 0 1 603.146 561.361)" fill="#3057E0"/>
<rect width="37.4323" height="233.272" transform="matrix(-1 0 0 1 504.895 616.087)" fill="#3057E0"/>
<rect width="31.7484" height="170.007" transform="matrix(-1 0 0 1 634.895 590.282)" fill="#3057E0"/>
<rect width="60.2075" height="284.309" transform="matrix(-1 0 0 1 467.461 565.049)" fill="#3057E0"/>
<rect width="57.4268" height="291.465" transform="matrix(-1 0 0 1 401.744 557.894)" fill="#3057E0"/>
<rect width="64.1613" height="207.643" transform="matrix(-1 0 0 1 344.316 641.716)" fill="#3057E0"/>
<rect width="19.229" height="158.178" transform="matrix(-1 0 0 1 280.156 691.181)" fill="#3057E0"/>
<rect width="5.50999" height="245.026" transform="matrix(-1 0 0 1 407.254 604.333)" fill="#3057E0"/>
<rect width="40.8125" height="195.679" transform="matrix(-1 0 0 1 709.717 617.223)" fill="#3057E0"/>
<rect width="34.0104" height="176.741" transform="matrix(-1 0 0 1 668.904 636.161)" fill="#3057E0"/>
<rect width="92.4041" height="168.308" transform="matrix(-1 0 0 1 1143.69 602.15)" fill="#3057E0"/>
<rect width="88.2564" height="290.978" transform="matrix(-1 0 0 1 1231.95 558.38)" fill="#3057E0"/>
<rect width="53.8417" height="222.515" transform="matrix(-1 0 0 1 763.559 667.17)" fill="#3057E0"/>
<rect x="349.855" y="533.238" width="3.9723" height="38.9303" fill="#3057E0"/>
<rect x="362.568" y="541.896" width="3.9723" height="38.9303" fill="#3057E0"/>
<rect x="393.553" y="533.238" width="3.9723" height="38.9303" fill="#3057E0"/>
<rect x="513.521" y="512.978" width="3.9723" height="56.0119" fill="#3057E0"/>
<rect x="998.832" y="548.321" width="3.9723" height="56.0119" fill="#3057E0"/>
<rect x="1015.82" y="548.321" width="3.9723" height="56.0119" fill="#3057E0"/>
<rect x="1033.69" y="548.321" width="3.9723" height="56.0119" fill="#3057E0"/>
<rect x="1158.74" y="539.353" width="3.9723" height="56.0119" fill="#3057E0"/>
<rect x="1206.61" y="539.353" width="3.9723" height="56.0119" fill="#3057E0"/>
<rect x="1223.59" y="511.347" width="3.97218" height="56.0119" fill="#3057E0"/>
<rect x="676.061" y="599.088" width="3.9723" height="56.0119" fill="#3057E0"/>
<rect x="685.34" y="580.826" width="3.9723" height="56.0119" fill="#3057E0"/>
<rect x="783.84" y="608.155" width="3.9723" height="56.0119" fill="#3057E0"/>
<rect x="773.152" y="630.292" width="3.9723" height="56.0119" fill="#3057E0"/>
<rect x="941.986" y="608.155" width="3.9723" height="56.0119" fill="#3057E0"/>
<rect x="954.658" y="627.094" width="4.2346" height="56.0119" fill="#3057E0"/>
<rect x="971.828" y="627.094" width="4.2346" height="56.0119" fill="#3057E0"/>
<rect x="795.104" y="632.725" width="3.9723" height="56.0119" fill="#3057E0"/>
<rect x="576.287" y="548.321" width="3.9723" height="56.0119" fill="#3057E0"/>
<rect x="594.164" y="548.321" width="3.9723" height="56.0119" fill="#3057E0"/>
<path d="M1531.64 319.225H1320.79V1191.35H1531.64V319.225Z" fill="#1D3DAE"/>
<path d="M1544 309H1304.78V329.45H1544V309Z" fill="#173293"/>
<path d="M1134 547.257L1320.99 497.494V519.291L1139.3 567.011L1134 547.257Z" fill="#173293"/>
<path d="M1377.88 503.987L1146.56 564.301V1256H1377.88V503.987Z" fill="#1D3DAE"/>
<path d="M1193.96 654.239C1193.96 638.922 1200.05 624.232 1210.89 613.402C1221.73 602.571 1236.44 596.487 1251.77 596.487V596.487C1267.1 596.487 1281.81 602.571 1292.65 613.402C1303.49 624.232 1309.58 638.922 1309.58 654.239V729.686H1193.96V654.239Z" fill="#FFBA37"/>
<path fill-rule="evenodd" clip-rule="evenodd" d="M1247.53 581.644C1243.3 581.646 1239.25 583.324 1236.27 586.309C1233.28 589.294 1231.6 593.342 1231.6 597.563V612.808C1231.6 616.709 1233.03 620.474 1235.63 623.388C1238.22 626.302 1241.8 628.162 1245.68 628.616C1245.67 628.658 1245.67 628.7 1245.68 628.742H1267.05C1270.44 625.432 1267.08 604.249 1264.54 594.972C1263.93 591.248 1262.01 587.864 1259.13 585.423C1256.25 582.982 1252.59 581.643 1248.81 581.644H1247.53Z" fill="#151617"/>
<path fill-rule="evenodd" clip-rule="evenodd" d="M1248.52 617.125C1253.29 619.997 1257.97 621.382 1260.17 620.827C1265.69 619.413 1266.19 599.259 1261.92 591.307C1257.65 583.355 1235.72 579.904 1234.62 595.645C1234.23 601.11 1236.53 606.011 1239.92 609.965L1233.83 638.293H1251.48L1248.52 617.125Z" fill="#F4816D"/>
<path fill-rule="evenodd" clip-rule="evenodd" d="M1232.25 595.712C1232.76 595.209 1233.25 594.712 1233.73 594.276V593.706C1233.73 593.706 1239.27 582.385 1247.77 582.385C1256.27 582.385 1258.99 586.338 1261.28 589.7C1260.08 593.802 1256.47 595.468 1252.38 597.341C1250.54 598.151 1248.74 599.073 1247 600.103C1246.5 599.697 1245.91 599.418 1245.27 599.289C1244.64 599.159 1243.98 599.184 1243.36 599.36C1242.74 599.536 1242.17 599.858 1241.7 600.3C1241.22 600.742 1240.86 601.29 1240.65 601.899C1240.43 602.509 1240.37 603.16 1240.45 603.801C1240.54 604.441 1240.78 605.05 1241.16 605.579C1241.53 606.107 1242.02 606.538 1242.6 606.836C1243.17 607.134 1243.81 607.291 1244.45 607.292H1244.64C1245.45 616.029 1245.13 626.01 1242.7 628.379H1221.37C1220.76 617.739 1223.52 614.704 1226.33 611.601C1228.98 608.684 1231.68 605.678 1231.68 596.282L1232.25 595.712Z" fill="#151617"/>
<path fill-rule="evenodd" clip-rule="evenodd" d="M1209.77 729.201H1240C1265.02 729.201 1258.68 678.32 1241.7 627.239H1232.95C1232.17 627.25 1231.4 627.492 1230.76 627.934C1230.11 628.377 1229.61 629 1229.31 629.726C1217.58 652.272 1204.97 696.963 1209.77 729.201Z" fill="#4B72FF"/>
<path d="M1318.3 725.318H1185.2V736.869H1318.3V725.318Z" fill="#4B72FF"/>
<path fill-rule="evenodd" clip-rule="evenodd" d="M1284.99 647.642L1310.88 634.314C1314.62 629.933 1318.94 626.084 1323.73 622.875C1325 622.379 1327.21 622.134 1325.06 625.718C1322.91 629.302 1320.81 633.211 1321.83 634.359C1322.85 635.506 1325.54 634.003 1326.72 635.906C1327.52 637.175 1323 639.036 1313.16 641.489L1294.18 658.015L1284.99 647.642Z" fill="#F4816D"/>
<path fill-rule="evenodd" clip-rule="evenodd" d="M1235.13 655.246C1250.98 652.247 1278.12 650.625 1306.95 635.047L1312.66 649.226C1289.46 671.105 1265.03 688.601 1241.51 685.543C1237.55 685.032 1241.22 673.489 1235.13 655.246Z" fill="#446CFC"/>
<path fill-rule="evenodd" clip-rule="evenodd" d="M1250.62 725.466L1257.81 725.318C1254.99 713.012 1257.07 685.055 1257.07 685.055C1252.13 696.013 1251.27 707.519 1250.62 725.466Z" fill="black" fill-opacity="0.16"/>
<path fill-rule="evenodd" clip-rule="evenodd" d="M1273.34 702.898L1295.72 721.542C1301.22 723.29 1306.46 725.781 1311.28 728.946C1312.24 729.923 1313.34 731.856 1309.18 731.278C1305.01 730.701 1300.62 730.271 1299.96 731.663C1299.3 733.055 1301.72 734.914 1300.43 736.757C1299.57 737.992 1296.1 734.553 1290.01 726.444L1267.39 715.389L1273.34 702.898Z" fill="#F4816D"/>
<path fill-rule="evenodd" clip-rule="evenodd" d="M1239.8 654.328C1251.09 678.902 1268.42 698.271 1294.01 718.877L1283.17 729.664C1253.97 716.722 1247.12 712.013 1236.62 702.269C1226.13 692.525 1222.71 683.515 1222.13 673.978C1222.13 673.978 1228.52 655.364 1231.67 654.357C1234.82 653.35 1239.8 654.328 1239.8 654.328Z" fill="#5D81FF"/>
<path opacity="0.35" d="M1372.45 467.411C1372.45 453.194 1378.1 439.561 1388.16 429.508C1398.23 419.455 1411.87 413.807 1426.1 413.805C1440.34 413.807 1453.98 419.455 1464.05 429.508C1474.11 439.561 1479.76 453.194 1479.76 467.411V537.468H1372.45V467.411Z" fill="#4B72FF"/>
<path d="M1487.87 530.894H1364.34V542.089H1487.87V530.894Z" fill="#496BE4"/>
<path opacity="0.35" d="M1370.27 662.539C1370.27 648.386 1375.89 634.814 1385.91 624.806C1395.93 614.799 1409.51 609.177 1423.68 609.177V609.177C1430.7 609.176 1437.64 610.556 1444.12 613.237C1450.6 615.918 1456.49 619.849 1461.45 624.804C1466.41 629.76 1470.35 635.642 1473.03 642.117C1475.72 648.592 1477.1 655.531 1477.1 662.539V732.293H1370.27V662.539Z" fill="#4B72FF"/>
<path d="M1485.17 725.725H1362.2V736.869H1485.17V725.725Z" fill="#496BE4"/>
<path d="M1323.5 536.017C1322.28 531.804 1324.69 526.081 1333.45 522.49C1342.22 518.899 1348.4 517.522 1353.86 514.849C1359.31 512.176 1364.6 508.385 1365.12 506.815C1365.86 516.396 1368.25 534.211 1368.29 534.388C1364.39 531.427 1349.51 535.306 1339.89 538.831C1330.27 542.355 1324.72 540.238 1323.5 536.017Z" fill="#527EF8"/>
<path d="M1347.29 526.533C1349.96 528.591 1354.89 535.247 1361.63 533.352L1330.5 542.081C1330.12 539.571 1329.52 533.744 1330.09 530.501C1333.65 528.821 1343.04 527.199 1347.29 526.533Z" fill="#A0B9FF"/>
<path d="M1410.78 550.1L1441.05 554.824L1428.94 565.108C1428.94 565.108 1412.38 563.894 1401.68 563.405C1390.99 562.916 1386.33 563.146 1383.5 562.665C1382.02 562.22 1380.04 560.095 1382.64 557.985C1385.88 555.335 1405.64 550.152 1408.32 547.975C1407.45 549.078 1409.8 550.048 1410.78 550.1Z" fill="#A0B9FF"/>
<path d="M1422.95 539.134C1422.56 541.933 1398.07 546.901 1397.01 548.271C1397.01 548.271 1385.15 555.357 1382.04 557.726C1378.94 560.095 1383.46 562.761 1383.46 562.761C1378.04 565.204 1364.87 570.217 1353.29 571.727C1338.82 573.623 1318.76 566.589 1314.41 556.275C1310.94 548.027 1322 541.156 1327.4 539.06C1333.74 536.78 1352.82 532.967 1365.83 532.789C1378.85 532.611 1402.04 534.455 1406.47 534.729C1410.4 534.973 1423.33 536.328 1422.95 539.134Z" fill="#527EF8"/>
<path d="M1406.46 534.729C1410.4 534.973 1424.7 535.21 1423.98 541.126C1423.27 547.042 1400.27 553.099 1395.01 555.475C1386.79 559.177 1381.75 561.48 1381.75 561.48C1378.08 559.755 1359.69 561.132 1346.7 562.828C1332.23 564.716 1315.64 559.2 1314.41 556.275C1310.93 548.027 1321.99 541.156 1327.39 539.06C1333.73 536.78 1352.81 532.967 1365.83 532.789C1378.84 532.611 1402.03 534.455 1406.46 534.729Z" fill="#84A5FF"/>
<path d="M1408.47 570.602C1407.09 565.811 1409.81 559.296 1419.79 555.216C1429.77 551.137 1438.25 547.109 1444.45 544.066C1450.64 541.023 1453.82 536.824 1454.42 535.018C1455.25 545.909 1457.15 568.418 1457.2 568.588C1452.75 565.197 1438.05 569.795 1427.11 573.771C1416.17 577.747 1409.85 575.4 1408.47 570.602Z" fill="#527EF8"/>
<g opacity="0.92">
<path d="M1161.94 374.205C1161.96 374.364 1161.73 375.034 1161.22 375.193C1160.18 374.541 1160.06 373.835 1160.48 373.818C1160.91 373.8 1161.93 374.047 1161.94 374.205Z" fill="#3057E0"/>
<path d="M1135.58 389.489C1135.6 389.648 1135.34 390.37 1134.83 390.529C1133.79 389.877 1133.7 389.119 1134.12 389.101C1134.54 389.084 1135.57 389.33 1135.58 389.489Z" fill="#3057E0"/>
<path d="M1146.36 375.817C1149.86 375.168 1151.77 377.115 1155.36 376.649C1153.08 378.206 1148.8 376.175 1144.66 377.394C1140.63 378.583 1138.41 380.607 1138.02 381.575C1138.73 378.216 1143.53 376.343 1146.36 375.817Z" fill="#3057E0"/>
<path d="M1141.35 401.411L1141.85 401.109V400.679L1140.15 397.248C1138.23 395.51 1134.24 391.995 1133.61 391.838C1132.84 391.642 1132.24 392.216 1132.29 393.163C1132.33 394.606 1135.13 396.523 1137.09 397.772C1138.66 398.771 1140.58 400.614 1141.35 401.411Z" fill="#3057E0"/>
<path d="M1134.1 391.944C1132.33 391.355 1132.37 393.398 1134.1 395.049C1134.92 395.749 1136.29 396.725 1138.15 397.792C1139.63 398.645 1141.3 400.343 1141.95 401.086V395.359C1141.95 394.966 1141.91 394.573 1141.61 394.873C1140.73 395.453 1135.87 392.534 1134.1 391.944Z" fill="#3057E0"/>
<path d="M1138.89 385.612C1138.57 386.882 1137.11 388.949 1136.35 389.941C1136.17 389.809 1135.77 389.545 1135.55 389.545C1135.55 390.021 1135.08 390.405 1134.84 390.537C1135.09 390.669 1135.58 391.005 1135.55 391.291C1135.51 391.648 1134.04 393.315 1133.96 393.673C1134.25 394.054 1136.6 395.101 1137.74 395.578C1139.34 394.162 1142.92 390.973 1144.44 389.545C1146.35 387.758 1152.38 389.306 1157.14 388.949C1161.91 388.592 1162.3 385.933 1160.44 383.194C1158.95 381.003 1160.16 380.164 1160.96 380.018L1169.89 376.883L1168.18 374.16H1166.49L1163.71 374.878C1163.4 374.752 1162.6 374.456 1161.95 374.281C1161.95 374.567 1161.5 375.009 1161.31 375.168L1161.51 375.381C1159.41 375.82 1157.74 376.016 1155.57 376.558C1154.75 376.765 1154.26 377.549 1150.93 377.09C1144.09 376.149 1139.5 379.368 1138.39 381.074C1137.28 382.781 1139.29 384.024 1138.89 385.612Z" fill="#3057E0"/>
<path opacity="0.19" d="M1137.99 382.696C1139.1 387.038 1147.33 388.3 1153.24 389.057C1156.81 389.596 1163.02 388.706 1161.12 384.665C1158.85 379.858 1151.29 377.545 1147.82 376.956C1144.97 376.724 1137.19 379.552 1137.99 382.696Z" fill="#3057E0"/>
<path d="M1175.38 381.734L1176 381.436V381.061L1175.5 380.076C1172.89 377.514 1167.68 372.348 1167.68 372.176C1167.2 372.11 1166.23 372.47 1166.23 373.145C1166.11 374.854 1167.95 376.09 1170.97 377.918C1173.39 379.381 1174.92 381.071 1175.38 381.734Z" fill="#3057E0"/>
<path d="M1170.61 377.095C1169.11 376.185 1166.25 374.085 1166.65 372.824C1167.02 371.668 1168.52 372.351 1169.22 372.717C1171.1 373.673 1174.94 375.537 1175.27 375.343C1175.97 374.944 1176.08 375.233 1176.05 375.428C1176.01 376.759 1176.05 381.423 1176.05 381.423C1175.7 380.828 1172.04 377.964 1170.61 377.095Z" fill="#3057E0"/>
<path d="M1167.21 393.541C1181.04 404.297 1175.09 429.456 1163.11 437.277C1139.83 452.474 1095.86 428.547 1116.23 413.027C1130.07 402.482 1145.87 433.848 1116.23 449.241C1099.42 457.97 1059.65 458.294 1046.07 445.361" stroke="#3057E0" stroke-dasharray="4 4"/>
</g>
<path d="M337.634 441.67C337.618 441.523 337.833 440.901 338.306 440.754C339.27 441.359 339.382 442.013 338.99 442.029C338.598 442.045 337.651 441.817 337.634 441.67Z" fill="#3057E0"/>
<path d="M362.063 427.506C362.047 427.359 362.292 426.69 362.765 426.543C363.729 427.147 363.81 427.849 363.419 427.866C363.027 427.882 362.08 427.653 362.063 427.506Z" fill="#3057E0"/>
<path d="M352.074 440.176C348.83 440.778 347.064 438.973 343.736 439.405C345.851 437.962 349.812 439.844 353.646 438.715C357.388 437.613 359.439 435.737 359.803 434.84C359.149 437.953 354.699 439.689 352.074 440.176Z" fill="#3057E0"/>
<path d="M356.718 416.458L356.259 416.738V417.137L357.835 420.316C359.613 421.926 363.312 425.184 363.887 425.33C364.606 425.511 365.159 424.979 365.119 424.101C365.079 422.764 362.485 420.988 360.669 419.831C359.216 418.905 357.43 417.197 356.718 416.458Z" fill="#3057E0"/>
<path d="M363.439 425.231C365.078 425.777 365.041 423.883 363.439 422.354C362.681 421.705 361.404 420.8 359.688 419.812C358.314 419.021 356.768 417.448 356.167 416.76V422.066C356.167 422.431 356.202 422.795 356.479 422.517C357.294 421.98 361.8 424.685 363.439 425.231Z" fill="#3057E0"/>
<path d="M358.998 431.099C359.292 429.922 360.644 428.007 361.356 427.087C361.515 427.21 361.885 427.455 362.091 427.455C362.091 427.013 362.533 426.658 362.753 426.535C362.52 426.413 362.062 426.101 362.091 425.836C362.128 425.505 363.489 423.96 363.562 423.629C363.298 423.276 361.123 422.305 360.068 421.864C358.585 423.176 355.264 426.131 353.852 427.455C352.086 429.11 346.495 427.675 342.082 428.007C337.668 428.338 337.3 430.802 339.029 433.34C340.412 435.37 339.286 436.148 338.55 436.283L330.274 439.188L331.856 441.712H333.422L335.996 441.047C336.29 441.163 337.027 441.437 337.631 441.599C337.631 441.334 338.048 440.925 338.226 440.778L338.04 440.58C339.986 440.173 341.528 439.992 343.538 439.489C344.305 439.298 344.756 438.571 347.845 438.996C354.178 439.868 358.429 436.886 359.459 435.304C360.489 433.723 358.63 432.571 358.998 431.099Z" fill="#3057E0"/>
<path opacity="0.19" d="M359.831 433.802C358.802 429.778 351.175 428.608 345.701 427.906C342.395 427.407 336.64 428.232 338.402 431.977C340.498 436.431 347.508 438.575 350.721 439.121C353.362 439.336 360.576 436.715 359.831 433.802Z" fill="#3057E0"/>
<path d="M325.18 434.693L324.609 434.969V435.317L325.075 436.229C327.489 438.603 332.315 443.391 332.315 443.55C332.765 443.611 333.659 443.278 333.659 442.652C333.769 441.068 332.068 439.924 329.268 438.229C327.029 436.874 325.609 435.307 325.18 434.693Z" fill="#3057E0"/>
<path d="M329.606 438.991C330.996 439.835 333.646 441.781 333.273 442.949C332.931 444.021 331.544 443.388 330.892 443.049C329.15 442.163 325.589 440.435 325.282 440.616C324.642 440.985 324.537 440.717 324.564 440.536C324.605 439.303 324.564 434.981 324.564 434.981C324.888 435.532 328.28 438.186 329.606 438.991Z" fill="#3057E0"/>
<path d="M392.028 391.536C385.034 373.913 352.493 357.465 329.085 372.463C301.58 390.086 316.369 419.511 336.881 424.772" stroke="#2749C3" stroke-dasharray="4 4"/>
<g clip-path="url(#clip1_1529:8564)">
<path d="M-0.386719 335.218L233.829 251.377V1289.66H-0.386719V335.218Z" fill="#1D3DAE"/>
<path d="M452 573.92L233.561 524.504V549.938L446.735 597.21L452 573.92Z" fill="#173293"/>
<path d="M244.115 240L-10.0352 317.807V342.056L244.115 266.117V240Z" fill="#173293"/>
<path d="M228.391 548.486L435.16 594.133V1302H228.391V548.486Z" fill="#1D3DAE"/>
<path d="M61.9316 480.837C61.9316 472.76 63.5226 464.762 66.6137 457.3C69.7048 449.837 74.2354 443.057 79.9469 437.346C85.6584 431.635 92.4388 427.105 99.901 424.015C107.363 420.924 115.361 419.334 123.438 419.336V419.336C139.748 419.336 155.39 425.815 166.923 437.349C178.456 448.883 184.935 464.526 184.935 480.837V561.238H61.9316V480.837Z" fill="#6482EB"/>
<path fill-rule="evenodd" clip-rule="evenodd" d="M118.675 470.558C123.404 473.29 128.055 474.613 130.233 474.077C135.705 472.72 136.206 453.545 131.962 445.989C127.717 438.433 105.976 435.113 104.878 450.095C104.498 455.282 106.772 459.933 110.143 463.72L104.092 490.676H121.632L118.675 470.558Z" fill="#E5F8FF"/>
<path fill-rule="evenodd" clip-rule="evenodd" d="M108.795 467.1C106.59 457.72 100.323 451.323 101.283 447.13C101.606 445.895 102.246 444.766 103.141 443.856C104.036 442.946 105.154 442.286 106.383 441.943C106.383 441.943 108.527 433.635 120.214 434.871C131.902 436.107 139.042 440.767 135.956 450.994C133.121 450.994 129.706 450.017 124.977 451.695C122.73 452.499 121.753 456.657 121.753 456.657H119.618C119.618 456.657 116.506 451.721 113.489 453.026C110.472 454.331 112.114 459.389 112.114 459.389L111.077 467.1H108.795Z" fill="#151617"/>
<path fill-rule="evenodd" clip-rule="evenodd" d="M94.4614 497.773L56.9699 516.706C47.1151 517.75 38.8077 519.594 32.0477 522.239C30.4225 523.303 28.3737 525.62 34.7621 526.052C41.1504 526.484 47.8759 527.193 48.5934 529.294C49.3109 531.395 45.2911 533.219 46.8644 536.123C47.9076 538.06 53.832 534.377 64.6377 525.075L100.945 516.603L94.4614 497.773Z" fill="#E5F8FF"/>
<path fill-rule="evenodd" clip-rule="evenodd" d="M104.627 479.134C95.8614 489.232 81.4423 503.652 61.2832 512.228V528.905C79.3676 525.447 109.183 514.364 116.747 501.543C122.711 491.445 104.627 479.134 104.627 479.134Z" fill="#1F3B9D"/>
<path fill-rule="evenodd" clip-rule="evenodd" d="M84.0098 578.485C97.2187 575.995 136.5 588.643 143.208 575.027C156.468 548.011 131.849 510.612 129.376 480.111L105.215 478.996C101.299 478.996 91.7726 507.862 91.7553 525.888C91.738 542.313 86.266 556.293 84.0098 578.485Z" fill="#1D3DAE"/>
<path d="M194.228 553.682H52.6387V566.52H194.228V553.682Z" fill="#4B72FF"/>
<path fill-rule="evenodd" clip-rule="evenodd" d="M122.781 549.731L111.543 555.48C111.543 555.48 102.786 552.713 100.962 555.298C99.3971 556.232 107.281 557.823 105.016 560.027C102.751 562.232 93.709 565.431 93.9684 567.116C94.3401 569.597 99.7429 570.955 103.08 570.669C109.321 570.133 112.476 568.439 118.64 563.235C123.472 559.154 131.771 556.076 131.771 556.076L122.781 549.731Z" fill="#E5F8FF"/>
<path d="M145.43 525.939C141.886 539.469 113.773 538.094 113.773 538.094C113.773 538.094 122.928 568.111 129.334 571.404C201.576 562.007 176.585 499.096 128.85 479.688C128.85 479.688 129.515 485.687 131.054 492.526C132.593 499.364 134.762 506.358 134.762 506.358C141.488 512.764 146.908 520.259 145.43 525.939Z" fill="#294BC4"/>
<path d="M249.994 696.708C249.996 679.698 256.754 663.385 268.781 651.357C280.808 639.329 297.119 632.571 314.128 632.569C331.137 632.571 347.448 639.329 359.475 651.357C371.502 663.385 378.26 679.698 378.262 696.708V780.566H249.994V696.708Z" fill="#6482EB"/>
<path fill-rule="evenodd" clip-rule="evenodd" d="M326.041 707.116C355.796 734.02 370.007 770.045 379.248 819.201H343.615C342.518 777.808 336.959 741.274 320.725 709.598L322.635 706.33L326.041 707.116Z" fill="#19369B"/>
<path fill-rule="evenodd" clip-rule="evenodd" d="M319.038 695.039C323.308 699.068 327.829 701.532 330.224 701.437C336.214 701.203 341.22 680.533 338.592 671.386C335.964 662.239 314.136 653.836 309.494 669.787C307.886 675.337 309.166 680.878 311.776 685.728L299.207 713.592L317.412 717.525L319.038 695.039Z" fill="#E5F8FF"/>
<path fill-rule="evenodd" clip-rule="evenodd" d="M339.517 675.449C339.521 674.291 339.428 673.134 339.241 671.991C339.044 670.619 338.66 669.281 338.1 668.014C337.117 665.647 335.81 663.427 334.218 661.418C331.348 657.83 327.303 655.237 322.807 654.83C320.512 654.616 318.201 655.022 316.117 656.006C314.206 656.914 312.227 658.435 310.065 658.107C307.723 657.752 306.046 655.254 304.464 653.594C302.757 651.72 300.658 650.244 298.317 649.272C296.402 648.485 294.31 648.231 292.262 648.535C290.214 648.839 288.286 649.691 286.682 651.001C282.913 653.923 279.593 658.695 280.544 663.856C280.691 664.787 281.046 665.674 281.582 666.449C282.074 667.141 282.895 667.954 282.956 668.905C283.017 669.856 281.945 670.988 281.452 671.784C280.676 672.9 280.159 674.176 279.939 675.518C279.806 677.809 280.449 680.078 281.763 681.959C282.914 683.687 284.555 685.032 286.474 685.823C287.721 686.388 289.038 686.78 290.39 686.99C291.043 687.042 291.7 687.042 292.353 686.99C292.628 686.984 292.902 687.043 293.15 687.163C293.398 687.283 293.614 687.461 293.779 687.682C295.789 689.725 298.436 691.022 301.282 691.356C303.72 691.676 306.599 691.685 308.907 690.492C311.5 689.143 311.967 686.619 312.028 683.826C312.512 684.215 313.973 684.691 313.307 683.446C313.048 682.944 312.443 682.581 312.019 682.279C311.517 681.868 311.092 681.37 310.766 680.809C309.521 678.544 312.028 675.026 314.223 674.835C317.526 674.55 317.275 679.08 319.246 680.688C320.37 681.613 321.891 681.008 323.041 680.308C324.558 679.281 325.867 677.976 326.896 676.461C327.813 675.242 328.677 673.997 329.602 672.786C330.026 672.224 331.426 670.668 331.072 669.847C333.388 669.847 335.653 671.334 337.304 672.959C337.993 673.572 338.478 674.38 338.696 675.276C338.748 675.492 338.826 676.089 339.068 676.141C339.517 676.288 339.466 675.683 339.474 675.406" fill="#151617"/>
<path fill-rule="evenodd" clip-rule="evenodd" d="M287.295 791.684H348.602C342.94 766.189 333.768 739.813 326.247 707.212L301.239 699.431C286.707 721.796 290.165 754.7 287.295 791.684Z" fill="#1D3DAE"/>
<path d="M388.627 774.117H242.119V786.955H388.627V774.117Z" fill="#4B72FF"/>
<path fill-rule="evenodd" clip-rule="evenodd" d="M298.861 760.016L327.129 772.552C333.248 772.719 339.316 773.726 345.161 775.543C346.415 776.269 348.1 777.929 343.674 778.56C339.248 779.191 334.624 780.056 334.338 781.681C334.053 783.306 337.07 784.491 336.292 786.773C335.768 788.289 331.223 785.785 322.659 779.261L296.328 774.583L298.861 760.016Z" fill="#E5F8FF"/>
<path fill-rule="evenodd" clip-rule="evenodd" d="M290.745 704.393C290.745 704.393 297.487 697.641 302.19 699.647L298.732 707.575C290.408 730.052 280.665 746.867 319.393 764.226L308.76 794.536C270.637 779.226 254.861 760.665 276.369 725.712C281.962 716.661 284.607 711.102 290.745 704.393Z" fill="#2A4CC7"/>
<path opacity="0.35" d="M67.8535 698.419C67.8535 690.342 69.4445 682.344 72.5356 674.882C75.6266 667.419 80.1573 660.639 85.8687 654.928C91.5802 649.217 98.3607 644.687 105.823 641.597C113.285 638.506 121.283 636.916 129.36 636.917V636.917C145.67 636.917 161.312 643.397 172.845 654.931C184.378 666.465 190.857 682.108 190.857 698.419V778.819H67.8535V698.419Z" fill="#4B72FF"/>
<path d="M200.193 771.264H58.6035V784.102H200.193V771.264Z" fill="#496BE4"/>
</g>
</g>
<defs>
<clipPath id="clip0_1529:8564">
<rect width="1531" height="810" fill="white"/>
</clipPath>
<clipPath id="clip1_1529:8564">
<rect width="462" height="1062" fill="white" transform="translate(-10 240)"/>
</clipPath>
</defs>
</svg>
