<svg width="298" height="455" viewBox="0 0 298 455" fill="none" xmlns="http://www.w3.org/2000/svg">
<path d="M297.761 7.69873H139.169V664.323H297.761V7.69873Z" fill="#1D3DAE"/>
<path d="M307.053 0H127.123V15.397H307.053V0Z" fill="#173293"/>
<path d="M0.914062 177.756L139.32 141.917V158.329L0.914062 194.759V177.756Z" fill="#173293"/>
<path d="M182.116 146.807L8.12793 192.217V713H182.116V146.807Z" fill="#1D3DAE"/>
<path d="M43.7769 259.931C43.7769 248.399 48.358 237.34 56.5124 229.185C64.6668 221.031 75.7265 216.45 87.2586 216.45V216.45C98.7906 216.45 109.85 221.031 118.005 229.185C126.159 237.34 130.74 248.399 130.74 259.931V316.736H43.7769V259.931Z" fill="#FFBA37"/>
<path fill-rule="evenodd" clip-rule="evenodd" d="M84.0698 225.603C80.8916 225.605 77.8439 226.868 75.5965 229.115C73.3491 231.362 72.0859 234.41 72.0845 237.588V249.066C72.085 252.003 73.164 254.838 75.1165 257.032C77.069 259.226 79.7591 260.627 82.6762 260.968C82.6732 261 82.6732 261.031 82.6762 261.063H98.7477C101.301 258.571 98.7477 242.622 96.8635 235.637C96.4009 232.834 94.9576 230.286 92.791 228.448C90.6244 226.611 87.8753 225.602 85.0342 225.603H84.0698Z" fill="#151617"/>
<path fill-rule="evenodd" clip-rule="evenodd" d="M84.8104 252.316C88.3948 254.474 91.9235 255.522 93.5736 255.104C97.7211 254.033 98.1057 238.865 94.8948 232.878C91.6838 226.891 75.1886 224.293 74.3524 236.145C74.0681 240.259 75.7963 243.949 78.3439 246.926L73.7671 268.254H87.0402L84.8104 252.316Z" fill="#F4816D"/>
<path fill-rule="evenodd" clip-rule="evenodd" d="M72.5741 236.195C72.9588 235.815 73.3323 235.442 73.689 235.113V234.684C73.689 234.684 77.8644 226.144 84.2807 226.144C90.6971 226.144 92.7151 229.12 94.4376 231.651C93.5401 234.74 90.8197 235.994 87.7481 237.404C86.3579 238.014 85.0063 238.708 83.701 239.484C83.3222 239.178 82.8759 238.968 82.3992 238.871C81.9225 238.773 81.4294 238.792 80.9613 238.924C80.4932 239.057 80.0636 239.299 79.7086 239.632C79.3537 239.965 79.0837 240.378 78.9212 240.836C78.7587 241.295 78.7085 241.786 78.7749 242.268C78.8412 242.75 79.0221 243.209 79.3024 243.606C79.5827 244.004 79.9543 244.329 80.3859 244.553C80.8176 244.778 81.2967 244.895 81.7833 244.896H81.9226C82.5358 251.474 82.2906 258.989 80.4621 260.773H64.4018C63.9391 252.762 66.0128 250.477 68.1311 248.141C70.1212 245.944 72.156 243.681 72.156 236.607L72.5741 236.195Z" fill="#151617"/>
<path fill-rule="evenodd" clip-rule="evenodd" d="M57.7744 322.322H79.6878C98.5076 322.322 92.4592 298.39 79.6878 259.931H73.1042C72.5145 259.94 71.9405 260.123 71.4538 260.456C70.9671 260.789 70.5891 261.258 70.3671 261.804C61.5481 278.779 54.1621 298.05 57.7744 322.322Z" fill="#4B72FF"/>
<path d="M137.297 313.448H37.1885V322.144H137.297V313.448Z" fill="#4B72FF"/>
<path fill-rule="evenodd" clip-rule="evenodd" d="M112.244 254.964L131.716 244.93C134.53 241.631 137.782 238.734 141.382 236.317C142.336 235.944 144.003 235.76 142.386 238.458C140.769 241.156 139.186 244.1 139.955 244.964C140.725 245.828 142.743 244.696 143.629 246.129C144.235 247.084 140.836 248.485 133.433 250.332L119.157 262.774L112.244 254.964Z" fill="#F4816D"/>
<path fill-rule="evenodd" clip-rule="evenodd" d="M74.7437 260.69C86.6621 258.432 107.076 257.211 128.761 245.482L133.059 256.158C115.605 272.631 97.2316 285.803 79.5434 283.501C76.561 283.116 79.326 274.42 74.7437 260.69Z" fill="#446CFC"/>
<path fill-rule="evenodd" clip-rule="evenodd" d="M86.3945 313.559L91.8019 313.448C89.678 304.183 91.2445 283.133 91.2445 283.133C87.5318 291.384 86.8851 300.047 86.3945 313.559Z" fill="black" fill-opacity="0.16"/>
<path fill-rule="evenodd" clip-rule="evenodd" d="M103.48 296.568L120.316 310.605C124.453 311.923 128.391 313.798 132.022 316.179C132.736 316.915 133.566 318.37 130.433 317.935C127.3 317.5 123.995 317.177 123.499 318.225C123.003 319.273 124.82 320.672 123.855 322.06C123.209 322.99 120.596 320.401 116.018 314.295L99.0039 305.972L103.48 296.568Z" fill="#F4816D"/>
<path fill-rule="evenodd" clip-rule="evenodd" d="M78.2551 259.998C86.7452 278.5 99.7841 293.083 119.028 308.597L110.878 316.72C88.9137 306.975 83.7572 303.43 75.8636 296.094C67.97 288.758 65.4001 281.973 64.9653 274.793C64.9653 274.793 69.7706 260.779 72.1398 260.021C74.509 259.262 78.2551 259.998 78.2551 259.998Z" fill="#5D81FF"/>
<path opacity="0.35" d="M178.024 119.268C178.024 108.564 182.277 98.2983 189.846 90.7294C197.415 83.1604 207.68 78.9082 218.384 78.9082C229.088 78.9097 239.353 83.1623 246.922 90.731C254.49 98.2996 258.743 108.564 258.744 119.268V172.015H178.024V119.268Z" fill="#4B72FF"/>
<path d="M264.838 167.064H171.926V175.493H264.838V167.064Z" fill="#496BE4"/>
<path opacity="0.35" d="M176.386 266.175C176.388 255.52 180.621 245.303 188.155 237.77C195.69 230.236 205.908 226.004 216.562 226.004V226.004C221.838 226.004 227.062 227.042 231.936 229.061C236.811 231.079 241.24 234.038 244.971 237.768C248.701 241.498 251.661 245.927 253.68 250.801C255.699 255.675 256.738 260.899 256.738 266.175V318.699H176.386V266.175Z" fill="#4B72FF"/>
<path d="M262.808 313.754H170.32V322.144H262.808V313.754Z" fill="#496BE4"/>
<path d="M141.208 170.922C140.294 167.75 142.1 163.441 148.695 160.737C155.29 158.034 159.939 156.997 164.042 154.984C168.145 152.972 172.125 150.118 172.509 148.936C173.067 156.15 174.868 169.562 174.901 169.696C171.963 167.466 160.769 170.387 153.534 173.041C146.298 175.694 142.123 174.1 141.208 170.922Z" fill="#527EF8"/>
<path d="M159.104 163.781C161.116 165.331 164.818 170.343 169.891 168.915L146.478 175.488C146.193 173.598 145.742 169.211 146.171 166.769C148.847 165.504 155.91 164.283 159.104 163.781Z" fill="#A0B9FF"/>
<path d="M206.861 181.525L229.622 185.081L220.519 192.825C220.519 192.825 208.06 191.91 200.016 191.542C191.971 191.174 188.465 191.347 186.341 190.985C185.226 190.65 183.738 189.051 185.689 187.462C188.131 185.472 203.004 181.564 204.999 179.908C204.353 180.756 206.12 181.486 206.861 181.525Z" fill="#A0B9FF"/>
<path d="M216.01 173.269C215.72 175.382 197.301 179.117 196.499 180.148C196.499 180.148 187.579 185.483 185.244 187.267C182.908 189.051 186.308 191.057 186.308 191.057C182.233 192.897 172.327 196.671 163.614 197.808C152.733 199.235 137.642 193.939 134.376 186.174C131.761 179.964 140.084 174.791 144.142 173.213C148.914 171.496 163.263 168.625 173.052 168.491C182.841 168.358 200.284 169.746 203.617 169.952C206.577 170.136 216.294 171.156 216.01 173.269Z" fill="#527EF8"/>
<path d="M203.611 169.952C206.577 170.136 217.325 170.314 216.789 174.768C216.254 179.223 198.951 183.783 194.993 185.572C188.816 188.359 185.02 190.093 185.02 190.093C182.233 188.794 168.43 189.831 158.663 191.108C147.776 192.529 135.295 188.376 134.369 186.174C131.755 179.964 140.078 174.791 144.136 173.213C148.908 171.496 163.257 168.625 173.046 168.491C182.835 168.358 200.277 169.746 203.611 169.952Z" fill="#84A5FF"/>
<path d="M205.122 196.961C204.08 193.354 206.131 188.448 213.635 185.377C221.138 182.305 227.521 179.273 232.181 176.982C236.842 174.69 239.244 171.513 239.685 170.169C240.303 178.37 241.736 195.316 241.77 195.445C238.425 192.891 227.365 196.353 219.137 199.347C210.909 202.34 206.159 200.573 205.122 196.961Z" fill="#527EF8"/>
</svg>
