<svg width="313" height="497" viewBox="0 0 313 497" fill="none" xmlns="http://www.w3.org/2000/svg">
<path d="M-0.273682 66.387L163.024 7.91992V731.826H-0.273682V66.387Z" fill="#1D3DAE"/>
<path d="M312.218 232.578L162.849 198.36V216.093L312.218 249.455V232.578Z" fill="#173293"/>
<path d="M170.209 0L-7 54.2478V71.155L170.209 18.2092V0Z" fill="#173293"/>
<path d="M159.245 215.081L303.411 246.906V740.44H159.245V215.081Z" fill="#1D3DAE"/>
<path d="M43.1792 167.915C43.1792 162.283 44.2885 156.707 46.4438 151.504C48.5991 146.301 51.7581 141.574 55.7405 137.592C59.723 133.61 64.4507 130.452 69.6538 128.297C74.8569 126.143 80.4335 125.034 86.0651 125.035V125.035C97.4375 125.035 108.344 129.553 116.386 137.594C124.427 145.636 128.945 156.543 128.945 167.915V223.971H43.1792V167.915Z" fill="#6482EB"/>
<path fill-rule="evenodd" clip-rule="evenodd" d="M82.7375 160.748C86.0406 162.653 89.2774 163.575 90.8024 163.202C94.6178 162.255 94.9674 148.886 92.0079 143.618C89.0484 138.35 73.8831 136.036 73.1176 146.481C72.8524 150.098 74.4437 153.341 76.7884 155.981L72.5691 174.775H84.799L82.7375 160.748Z" fill="#E5F8FF"/>
<path fill-rule="evenodd" clip-rule="evenodd" d="M75.8541 158.337C74.3171 151.798 69.9472 147.337 70.6102 144.414C70.837 143.553 71.2851 142.766 71.91 142.131C72.5349 141.497 73.3149 141.037 74.1725 140.797C74.1725 140.797 75.6673 135.005 83.8165 135.867C91.9657 136.729 96.9445 139.978 94.7987 147.108C92.8216 147.108 90.4408 146.427 87.1437 147.596C85.5705 148.157 84.8954 151.056 84.8954 151.056H83.4066C83.4066 151.056 81.2367 147.614 79.1271 148.525C77.0175 149.435 78.1687 152.913 78.1687 152.913L77.4394 158.337H75.8541Z" fill="#151617"/>
<path fill-rule="evenodd" clip-rule="evenodd" d="M65.8608 179.723L39.7194 192.923C32.848 193.651 27.0555 194.937 22.342 196.781C21.2028 197.516 19.7743 199.138 24.2346 199.439C28.695 199.741 33.3784 200.235 33.8787 201.693C34.379 203.152 31.5762 204.436 32.6732 206.461C33.4126 207.811 37.5454 205.244 45.0718 198.758L70.3874 192.851L65.8608 179.723Z" fill="#E5F8FF"/>
<path fill-rule="evenodd" clip-rule="evenodd" d="M72.9608 166.728C66.8308 173.768 56.7829 183.822 42.7207 189.801V201.422C55.3363 199.011 76.1253 191.284 81.3994 182.351C85.5584 175.311 72.9608 166.728 72.9608 166.728Z" fill="#1F3B9D"/>
<path fill-rule="evenodd" clip-rule="evenodd" d="M58.5742 235.996C67.7843 234.26 95.1734 243.079 99.8447 233.585C109.097 214.749 91.9306 188.674 90.2007 167.409L73.3537 166.631C70.6172 166.631 63.9749 186.757 63.9689 199.325C63.9568 210.777 60.1474 220.523 58.5742 235.996Z" fill="#1D3DAE"/>
<path d="M135.425 218.697H36.6997V227.648H135.425V218.697Z" fill="#4B72FF"/>
<path fill-rule="evenodd" clip-rule="evenodd" d="M85.6198 215.948L77.784 219.957C77.784 219.957 71.6841 218.01 70.4123 219.818C69.3274 220.475 74.8245 221.578 73.2392 223.115C71.654 224.652 65.3612 226.888 65.536 228.058C65.8013 229.787 69.5685 230.734 71.8951 230.535C76.247 230.161 78.447 228.98 82.7446 225.351C86.114 222.506 91.9005 220.36 91.9005 220.36L85.6198 215.948Z" fill="#E5F8FF"/>
<path d="M101.392 199.361C98.927 208.794 79.3254 207.835 79.3254 207.835C79.3254 207.835 85.7086 228.763 90.175 231.059C140.541 224.507 123.115 180.645 89.8314 167.113C89.8314 167.113 90.2955 171.296 91.3684 176.064C92.4413 180.832 93.9603 185.708 93.9603 185.708C98.6497 190.175 102.429 195.4 101.392 199.361Z" fill="#294BC4"/>
<path d="M174.309 318.422C174.309 306.562 179.02 295.188 187.406 286.802C195.793 278.415 207.167 273.704 219.027 273.704C230.886 273.706 242.26 278.418 250.646 286.804C259.032 295.19 263.743 306.563 263.745 318.422V376.889H174.309V318.422Z" fill="#6482EB"/>
<path fill-rule="evenodd" clip-rule="evenodd" d="M227.325 325.68C248.078 344.438 249.754 346.481 256.197 380.753H239.622C238.862 351.893 234.932 349.495 223.606 327.41L224.944 325.131L227.325 325.68Z" fill="#19369B"/>
<path fill-rule="evenodd" clip-rule="evenodd" d="M222.442 317.26C225.42 320.068 228.572 321.786 230.236 321.72C234.419 321.557 237.909 307.145 236.076 300.768C234.244 294.391 219.031 288.532 215.812 299.653C214.691 303.523 215.583 307.387 217.403 310.774L208.639 330.195L221.333 332.937L222.442 317.26Z" fill="#E5F8FF"/>
<path fill-rule="evenodd" clip-rule="evenodd" d="M236.728 303.601C236.731 302.793 236.666 301.987 236.535 301.19C236.393 300.234 236.124 299.301 235.733 298.417C235.052 296.766 234.144 295.218 233.033 293.818C231.032 291.317 228.211 289.508 225.077 289.225C223.476 289.076 221.865 289.359 220.412 290.045C219.079 290.678 217.699 291.739 216.192 291.51C214.559 291.263 213.389 289.521 212.28 288.363C211.093 287.056 209.632 286.027 208.001 285.349C206.665 284.801 205.206 284.624 203.778 284.836C202.35 285.048 201.006 285.642 199.888 286.555C197.254 288.592 194.945 291.92 195.608 295.518C195.712 296.166 195.956 296.783 196.326 297.326C196.675 297.808 197.248 298.375 197.284 299.038C197.32 299.701 196.585 300.491 196.241 301.045C195.7 301.824 195.34 302.713 195.186 303.649C195.094 305.246 195.542 306.828 196.458 308.14C197.258 309.343 198.4 310.279 199.737 310.828C200.606 311.221 201.525 311.495 202.468 311.642C202.923 311.678 203.38 311.678 203.836 311.642C204.028 311.637 204.219 311.678 204.392 311.762C204.565 311.846 204.715 311.97 204.83 312.124C206.232 313.548 208.077 314.452 210.062 314.685C211.756 314.909 213.769 314.915 215.379 314.083C217.187 313.142 217.506 311.382 217.554 309.436C217.892 309.707 218.911 310.038 218.447 309.17C218.266 308.821 217.844 308.568 217.542 308.357C217.199 308.072 216.91 307.729 216.687 307.344C215.819 305.765 217.567 303.312 219.098 303.179C221.4 302.98 221.225 306.138 222.593 307.26C223.383 307.905 224.444 307.483 225.246 306.994C226.302 306.277 227.214 305.367 227.934 304.312C228.567 303.462 229.176 302.594 229.814 301.75C230.116 301.359 231.092 300.274 230.845 299.701C232.455 299.701 234.04 300.738 235.191 301.871C235.669 302.3 236.007 302.863 236.161 303.486C236.198 303.637 236.252 304.053 236.421 304.089C236.728 304.192 236.698 303.77 236.704 303.577" fill="#151617"/>
<path fill-rule="evenodd" clip-rule="evenodd" d="M200.316 384.641H243.063C239.109 366.866 232.72 348.476 227.476 325.746L210.038 320.321C199.9 335.915 202.317 358.855 200.316 384.641Z" fill="#1D3DAE"/>
<path d="M270.972 372.393H168.817V381.343H270.972V372.393Z" fill="#4B72FF"/>
<path fill-rule="evenodd" clip-rule="evenodd" d="M208.377 362.562L228.093 371.302C232.359 371.42 236.59 372.121 240.666 373.388C241.54 373.894 242.715 375.052 239.629 375.492C236.543 375.932 233.294 376.534 233.12 377.667C232.945 378.801 235.024 379.626 234.476 381.218C234.114 382.275 230.948 380.529 224.976 375.98L206.616 372.719L208.377 362.562Z" fill="#E5F8FF"/>
<path fill-rule="evenodd" clip-rule="evenodd" d="M202.722 323.781C202.722 323.781 207.424 319.074 210.703 320.472L208.292 325.999C202.487 341.671 195.694 353.394 222.692 365.498L215.284 386.63C188.702 375.955 177.702 363.014 192.699 338.645C196.598 332.334 198.443 328.458 202.722 323.781Z" fill="#2A4CC7"/>
<path opacity="0.35" d="M47.3325 319.616C47.3325 313.984 48.4418 308.408 50.5971 303.205C52.7524 298.002 55.9115 293.275 59.8939 289.293C63.8763 285.311 68.604 282.153 73.8071 279.998C79.0103 277.844 84.5868 276.735 90.2184 276.736V276.736C101.591 276.736 112.498 281.254 120.539 289.295C128.581 297.337 133.098 308.243 133.098 319.616V375.672H47.3325V319.616Z" fill="#4B72FF"/>
<path d="M139.577 370.404H40.8521V379.355H139.577V370.404Z" fill="#496BE4"/>
</svg>
