<svg xmlns="http://www.w3.org/2000/svg" xmlns:xlink="http://www.w3.org/1999/xlink" viewBox="0 0 491.23 380.16"><defs><style>.cls-1,.cls-10{fill:none;}.cls-2{clip-path:url(#clip-path);}.cls-3{opacity:0.08;}.cls-4{clip-path:url(#clip-path-2);}.cls-5,.cls-6{fill:#4b72ff;}.cls-6{fill-rule:evenodd;}.cls-7{fill:#cae9ff;}.cls-8{fill:#fccf5a;}.cls-9{fill:#a6450f;}.cls-10{stroke:#fff;stroke-width:6.06px;}.cls-11{fill:#46fae4;}.cls-12{fill:#0a6f7c;}.cls-13{fill:#ffba37;}.cls-14{fill:#172f63;}</style><clipPath id="clip-path"><rect id="SVGID" class="cls-1" x="-7" y="-0.34" width="515.62" height="380.5"/></clipPath><clipPath id="clip-path-2"><rect id="SVGID-2" data-name="SVGID" class="cls-1" x="-13.65" width="783.8" height="681.55"/></clipPath></defs><title>illustration</title><g id="houses"><g class="cls-2"><g class="cls-3"><g class="cls-4"><path class="cls-5" d="M351.9,276.23V395.3h14.6V276.23a50,50,0,1,1,99.94,0v7H481v-7a64.57,64.57,0,1,0-129.14,0Z"/><path class="cls-5" d="M242,217.5h80.66a86,86,0,0,0,0-172h-5.92V58.05h5.92a73.46,73.46,0,0,1,0,146.92H242Z"/><path class="cls-5" d="M192.21,137.82A86,86,0,0,0,172,257.75l3.44,4.82,10.2-7.27-3.43-4.82a73.49,73.49,0,0,1,49.08-115.3l-3.6-12.12A85.56,85.56,0,0,0,192.21,137.82Z"/><path class="cls-6" d="M-.87,95.35a76.25,76.25,0,0,0,76.25,76.24h73V159h-73A63.68,63.68,0,0,1,11.7,95.35V89.28H-.87Z"/><path class="cls-5" d="M263.45,320.59a76.25,76.25,0,0,0-76.25,76.25v6.06h12.57v-6.06a63.68,63.68,0,0,1,63.68-63.68h15.74a49.51,49.51,0,0,0,49.51-49.51v-6.13H316.17v6.13a37,37,0,0,1-37,37H270.6Z"/><path class="cls-5" d="M212.22,93.36A76.24,76.24,0,0,1,136,17.11V11.05h12.56v6.06a63.68,63.68,0,0,0,63.68,63.68H228a49.51,49.51,0,0,1,49.51,49.51v6.13H264.94v-6.13a37,37,0,0,0-37-37h-8.59Z"/><path class="cls-5" d="M182.61,116.13a76.24,76.24,0,0,1-76.24-76.25h12.56a63.68,63.68,0,0,0,63.68,63.68Z"/><path class="cls-5" d="M228,283.8h57v12.54H228a49.45,49.45,0,0,1-39.2-19.26l10.13-7.4A36.9,36.9,0,0,0,228,283.8Z"/><path class="cls-6" d="M328.63,249.68V237.11H236.34a27.19,27.19,0,0,1-27.19-27.19c0-15.82,13.38-29.9,27.33-30.22l37.12-.13V167l-37.4.15c-10.77.24-20.67,5.69-27.77,13.42a43.94,43.94,0,0,0-11.84,29.32,39.75,39.75,0,0,0,39.75,39.76Z"/><path class="cls-5" d="M11.92,55.58a20.69,20.69,0,0,1,41.38,0H66.08a33.48,33.48,0,0,0-66.95,0h0V71.49H11.92Z"/><path class="cls-6" d="M334.07,105.82a33.47,33.47,0,1,1-33.47,33.47A33.47,33.47,0,0,1,334.07,105.82Zm0,12.78a20.69,20.69,0,1,1-20.69,20.69A20.69,20.69,0,0,1,334.07,118.6Z"/><path class="cls-6" d="M69.43,71.49A33.48,33.48,0,1,1,36,105,33.48,33.48,0,0,1,69.43,71.49Zm0,12.78A20.69,20.69,0,1,1,48.74,105,20.69,20.69,0,0,1,69.43,84.27Z"/><path class="cls-5" d="M261.86,45.06H258A37.37,37.37,0,0,1,220.59,7.7H207.7A50.26,50.26,0,0,0,258,58H294.1V45.06Z"/><path class="cls-5" d="M79.35,322.58A33.62,33.62,0,1,1,45.73,289v12.84a20.78,20.78,0,1,0,20.78,20.78V224H79.35v98.53Z"/><path class="cls-6" d="M134.58,423.14a33.47,33.47,0,0,1-33.48-33.47V322.72a33.48,33.48,0,0,1,67,0v66.95A33.47,33.47,0,0,1,134.58,423.14Zm20.69-33.47a20.69,20.69,0,1,1-41.38,0h0V322.72h0a20.69,20.69,0,1,1,41.38,0h0v66.95Z"/><path class="cls-5" d="M381.85,358.89a33.47,33.47,0,0,0,66.94,0V291.94a33.47,33.47,0,0,0-66.94,0v12.67h12.79V291.94h0a20.69,20.69,0,0,1,41.38,0h0v66.95h0a20.69,20.69,0,1,1-41.38,0h0V346.11H381.85Z"/><path class="cls-5" d="M106.94,258.63a33.47,33.47,0,1,0,0-66.94H40a33.47,33.47,0,1,0,0,66.94H52.66V245.84H40a20.69,20.69,0,0,1,0-41.38h66.95a20.69,20.69,0,0,1,0,41.38H94.15v12.79Z"/></g></g></g><path class="cls-7" d="M91.87,106.3c0,34.2,44,63.51,44,63.51s44-29.31,44-63.51a44,44,0,1,0-87.95,0Z"/><path class="cls-8" d="M136,69.89h-.4a36.35,36.35,0,0,0-36.35,36.36h0a36.35,36.35,0,0,0,36.35,36.35h.4a36.36,36.36,0,0,0,36.36-36.35h0A36.36,36.36,0,0,0,136,69.89Z"/><path class="cls-9" d="M122.42,115v-3.4h2.71V108h-2.71V97.22H117.8l-10.66,11.69v2.71h11.29V115Zm-9.72-7v-.29l5.44-5.92h.29V108Zm23.16,7.25c5.71,0,8.9-3.61,8.9-9.16S141.57,97,135.86,97s-8.9,3.63-8.9,9.16S130.12,115.28,135.86,115.28Zm0-3.88c-3.4,0-4.62-1.46-4.62-5.28s1.22-5.29,4.62-5.29,4.62,1.46,4.62,5.29S139.23,111.4,135.86,111.4Zm26,3.62v-3.4h2.7V108h-2.7V97.22h-4.63l-10.65,11.69v2.71h11.29V115Zm-9.73-7v-.29l5.45-5.92h.29V108Z"/><path class="cls-7" d="M202.85,238.29c0,28.47,36.61,52.87,36.61,52.87s36.6-24.4,36.6-52.87a36.61,36.61,0,1,0-73.21,0Z"/><path class="cls-5" d="M239.63,208h-.34A30.26,30.26,0,0,0,209,238.25h0a30.26,30.26,0,0,0,30.26,30.26h.34a30.26,30.26,0,0,0,30.26-30.26h0A30.26,30.26,0,0,0,239.63,208Z"/><path class="cls-10" d="M226.34,225.13l13.12,13.12m13.11,13.11-13.11-13.11m0,0,13.11-13.12-26.23,26.23"/><path class="cls-11" d="M240.88,110.24c0,5.53,7.1,10.26,7.1,10.26s7.11-4.73,7.11-10.26a7.11,7.11,0,0,0-14.21,0Z"/><circle class="cls-12" cx="247.98" cy="109.92" r="3.64"/><path class="cls-13" d="M321,27.14c0,5.53,7.1,10.26,7.1,10.26s7.11-4.73,7.11-10.26a7.11,7.11,0,0,0-14.21,0Z"/><circle class="cls-9" cx="328.29" cy="27.31" r="3.64"/><path class="cls-5" d="M69.43,266.93c0,5.52,7.1,10.26,7.1,10.26s7.1-4.74,7.1-10.26a7.1,7.1,0,0,0-14.2,0Z"/><circle class="cls-14" cx="76.53" cy="266.61" r="3.64"/><path class="cls-7" d="M353.34,244.84c0,5.53,7.1,10.26,7.1,10.26s7.11-4.73,7.11-10.26a7.11,7.11,0,0,0-14.21,0Z"/><circle class="cls-14" cx="360.44" cy="244.52" r="3.64"/></g></svg>