<svg xmlns="http://www.w3.org/2000/svg" xmlns:xlink="http://www.w3.org/1999/xlink" viewBox="0 0 628 851"><defs><style>.cls-1,.cls-11{fill:none;}.cls-2{clip-path:url(#clip-path);}.cls-3{opacity:0.08;}.cls-4{clip-path:url(#clip-path-2);}.cls-5{clip-path:url(#clip-path-3);}.cls-6,.cls-7{fill:#4b72ff;}.cls-6{fill-rule:evenodd;}.cls-8{fill:#cae9ff;}.cls-9{fill:#fccf5a;}.cls-10{fill:#a6450f;}.cls-11{stroke:#fff;stroke-width:10px;}.cls-12{fill:#46fae4;}.cls-13{fill:#0a6f7c;}.cls-14{fill:#ffba37;}.cls-15{fill:#172f63;}</style><clipPath id="clip-path"><rect id="SVGID" class="cls-1" x="-659.86" y="1.61" width="515.62" height="380.5"/></clipPath><clipPath id="clip-path-2"><rect id="SVGID-2" data-name="SVGID" class="cls-1" width="628" height="851"/></clipPath><clipPath id="clip-path-3"><rect id="SVGID-3" data-name="SVGID" class="cls-1" x="0.56" y="-431.65" width="1124.86" height="1293.63"/></clipPath></defs><title>illustration</title><g id="houses"><g class="cls-4"><g class="cls-3"><g class="cls-5"><path class="cls-6" d="M307.22,120.2H176v20H307.22Z"/><path class="cls-7" d="M456.45,258.66H653v-24.1H456.45a82.47,82.47,0,1,1,0-164.94h11.64V45.52H456.45a106.57,106.57,0,1,0,0,213.14Z"/><path class="cls-7" d="M359.54,440.09V307a141.94,141.94,0,0,0-283.87,0v9.76H96.36V307a121.25,121.25,0,1,1,242.5,0V440.09Z"/><path class="cls-7" d="M228,522.22A141.93,141.93,0,0,0,426,555.5l8-5.66-12-16.85-8,5.66a121.29,121.29,0,0,1-190.3-81l-20,5.94A141.37,141.37,0,0,0,228,522.22Z"/><path class="cls-6" d="M157.92,840.89A125.84,125.84,0,0,0,283.76,715.05V594.55H263v120.5a105.1,105.1,0,0,1-105.1,105.1h-10v20.74Z"/><path class="cls-6" d="M159.85,64A125.84,125.84,0,0,0,285.69-61.8V-182.31H265V-61.8A105.1,105.1,0,0,1,159.85,43.3H137V64Z"/><path class="cls-7" d="M529.68,404.65A125.84,125.84,0,0,0,655.52,530.48h10V509.75h-10a105.1,105.1,0,0,1-105.1-105.1l0-10.51V378.66A81.71,81.71,0,0,0,468.73,297H458.61v20.68h10.12a61,61,0,0,1,61,61v14.18Z"/><path class="cls-7" d="M154.64,489.19A125.84,125.84,0,0,1,28.8,615h-10V594.29h10a105.1,105.1,0,0,0,105.1-105.1l0-10.51V463.2a81.71,81.71,0,0,1,81.71-81.71h10.12v20.68H215.59a61,61,0,0,0-61,61v14.18Z"/><path class="cls-7" d="M192.22,538.06A125.84,125.84,0,0,1,66.38,663.9V643.16a105.1,105.1,0,0,0,105.1-105.1Z"/><path class="cls-7" d="M469,463.12V369h20.69v94.14a81.55,81.55,0,0,1-31.79,64.69l-12.2-16.71A60.92,60.92,0,0,0,469,463.12Z"/><path class="cls-7" d="M412.64-22.57A116.26,116.26,0,0,0,296.38,93.69h20A96.24,96.24,0,0,1,412.64-2.55h2.21v-20Z"/><path class="cls-6" d="M412.64,297.07H391.9V449.38A44.88,44.88,0,0,1,347,494.26c-26.11,0-49.35-22.08-49.87-45.1l-.22-61.28H276.24l.23,61.73c.41,17.78,9.39,34.12,22.16,45.84S328.72,515,347,515a65.62,65.62,0,0,0,65.62-65.62Z"/><path class="cls-7" d="M92.29,819.79a34.15,34.15,0,0,1,0-68.3v-21.1a55.25,55.25,0,0,0,0,110.49h26.26v-21.1Z"/><path class="cls-7" d="M55.31-130.47V-24.13c0,28.31,20.55,53.24,49,54.61l1.1.19c9.48,0,16.3,7.33,16.3,16.81A17.17,17.17,0,0,1,104.5,64.65h-3.94v.21a38.08,38.08,0,0,0,3.94,76h38.08V119.9H104.5a17.17,17.17,0,1,1,0-34.34,38.08,38.08,0,0,0,38.08-38.08c0-20.93-16-37.92-37.78-38.08C87.94,7.57,76.24-6.78,76.24-24.13V-130.47Z"/><path class="cls-6" d="M175.2,288.08a55.25,55.25,0,1,1,55.25,55.25A55.24,55.24,0,0,1,175.2,288.08Zm21.1,0a34.15,34.15,0,1,1,34.15,34.15A34.15,34.15,0,0,1,196.3,288.08Z"/><path class="cls-6" d="M118.55,724.87a55.25,55.25,0,1,1,55.24,55.24A55.25,55.25,0,0,1,118.55,724.87Zm21.1,0A34.15,34.15,0,1,1,173.79,759,34.15,34.15,0,0,1,139.65,724.87Z"/><path class="cls-7" d="M74.93,407.26h0v6.44a61.68,61.68,0,0,1-61.68,61.68v21.27A83,83,0,0,0,96.21,413.7V354.06H74.93Z"/><path class="cls-7" d="M533,708.48A55.49,55.49,0,1,1,477.46,764h21.2A34.29,34.29,0,1,0,533,729.67H370.33V708.48H533Z"/><path class="cls-6" d="M698.93,617.34a55.24,55.24,0,0,1-55.24,55.24H533.19a55.25,55.25,0,0,1,0-110.49h110.5A55.25,55.25,0,0,1,698.93,617.34Zm-55.24-34.15a34.15,34.15,0,0,1,0,68.29H533.19a34.15,34.15,0,0,1,0-68.29h110.5Z"/><path class="cls-7" d="M592.89,209.23a55.25,55.25,0,1,0,0-110.49H482.4a55.25,55.25,0,1,0,0,110.49h20.91V188.12H482.4a34.15,34.15,0,1,1,0-68.29H592.89a34.15,34.15,0,0,1,0,68.29h-21.1v21.11Z"/><path class="cls-7" d="M427.42,663a55.25,55.25,0,1,0-110.49,0V773.45a55.25,55.25,0,1,0,110.49,0V752.54H406.31v20.91h0a34.15,34.15,0,0,1-68.29,0h0V663h0a34.15,34.15,0,1,1,68.29,0h0v21.09h21.11Z"/></g></g></g><path class="cls-8" d="M77.8,410.3c0,52.1,67,96.75,67,96.75s67-44.65,67-96.75a67,67,0,1,0-133.95,0Z"/><rect class="cls-9" x="89.1" y="354.86" width="111.35" height="110.74" rx="55.37"/><path class="cls-10" d="M124.32,423.56v-5.18h4.13v-5.46h-4.13V396.45h-7l-16.23,17.8v4.13h17.2v5.18Zm-14.8-10.64v-.45l8.29-9h.45v9.47Zm35.28,11c8.69,0,13.55-5.5,13.55-14s-4.86-13.95-13.55-13.95-13.56,5.54-13.56,13.95S136.06,424,144.8,424Zm0-5.91c-5.18,0-7-2.22-7-8.05s1.86-8.05,7-8.05,7,2.23,7,8.05S149.93,418.05,144.8,418.05Zm39.59,5.51v-5.18h4.13v-5.46h-4.13V396.45h-7l-16.22,17.8v4.13h17.19v5.18Zm-14.8-10.64v-.45l8.29-9h.44v9.47Z"/><path class="cls-8" d="M271.42,659.16c0,47,60.41,87.27,60.41,87.27s60.42-40.28,60.42-87.27a60.42,60.42,0,1,0-120.83,0Z"/><rect class="cls-7" x="281.61" y="609.14" width="100.44" height="99.89" rx="49.95"/><path class="cls-11" d="M310.19,637.44l21.64,21.65m21.65,21.64-21.65-21.64m0,0,21.65-21.65-43.29,43.29"/><path class="cls-12" d="M338.16,378.89c0,9.11,11.72,16.93,11.72,16.93s11.73-7.82,11.73-16.93a11.73,11.73,0,1,0-23.45,0Z"/><circle class="cls-13" cx="349.88" cy="378.36" r="6"/><path class="cls-14" d="M470.43,241.73c0,9.12,11.72,16.93,11.72,16.93s11.73-7.81,11.73-16.93a11.73,11.73,0,1,0-23.45,0Z"/><circle class="cls-10" cx="482.43" cy="242" r="6"/><path class="cls-7" d="M67.53,729.49c0,9.12,11.72,16.94,11.72,16.94S91,738.61,91,729.49a11.72,11.72,0,1,0-23.44,0Z"/><circle class="cls-15" cx="79.25" cy="728.97" r="6"/><path class="cls-8" d="M482.43,574.57c0,9.12,11.72,16.94,11.72,16.94s11.73-7.82,11.73-16.94a11.73,11.73,0,1,0-23.45,0Z"/><circle class="cls-15" cx="494.15" cy="574.05" r="6"/></g></svg>