<svg xmlns="http://www.w3.org/2000/svg" xmlns:xlink="http://www.w3.org/1999/xlink" viewBox="0 0 334 200"><defs><style>.cls-1{fill:none;}.cls-2{clip-path:url(#clip-path);}.cls-3{clip-path:url(#clip-path-2);}.cls-4{fill:#b0cbff;}.cls-5{fill:#455a64;}.cls-6{fill:#263238;}.cls-7{fill:#37474f;}.cls-8{fill:#ebebeb;}.cls-9{fill:#172f63;}.cls-10{fill:#ff725e;}.cls-11,.cls-12,.cls-16{opacity:0.3;}.cls-12,.cls-14,.cls-16,.cls-18{isolation:isolate;}.cls-13{opacity:0.08;}.cls-14,.cls-16,.cls-18{fill:#fff;}.cls-14{opacity:0.77;}.cls-15{fill:#ddd;}.cls-17,.cls-18{opacity:0.2;}.cls-19{fill:#e0e4ef;fill-opacity:0.38;}.cls-20{fill:#18edf1;}.cls-21{fill:#0a6f7c;}</style><clipPath id="clip-path"><rect id="SVGID" class="cls-1" x="-370.54" y="-1271.97" width="1587" height="773"/></clipPath><clipPath id="clip-path-2"><rect id="SVGID-2" data-name="SVGID" class="cls-1" width="334" height="200" rx="8"/></clipPath></defs><title>illustration</title><g id="houses"><g class="cls-3"><rect class="cls-4" width="334" height="200" rx="8"/><path class="cls-5" d="M72.12,53.89,82.41,32.31l-2.77-1.23s-14.9,7.14-19,17.05Z"/><path class="cls-5" d="M19,113.39S47.45,81.58,48.44,79.58s2.8-16.92,2.84-20.66,2.41-14.33,2.41-14.33L83,59.25l8.79-22.69,4,1.73s9.1,20.19,4.54,30.68S80.88,82.86,77.08,84.7s-17,5.24-34.67,26.72L31.6,124.06Z"/><path class="cls-5" d="M-15.16,162.75a10.26,10.26,0,0,1-2.55-3.26,10.38,10.38,0,0,1-1.06-4,10.41,10.41,0,0,1,.61-4.1A10.35,10.35,0,0,1-16,147.86l41.7-42,13,9.89-39.48,46a10.31,10.31,0,0,1-7,3.44,10.31,10.31,0,0,1-7.4-2.47Z"/><path class="cls-6" d="M76,70.45,63.46,64.72l.87-7.64,12.45,6.3Z"/><path class="cls-6" d="M67.28,56.94c.33,0,.3,2.59,0,5.69s-.92,5.65-1.25,5.61-.3-2.58.05-5.69S67,56.9,67.28,56.94Z"/><path class="cls-6" d="M71.26,58.89c.33,0,.32,2.59-.05,5.74S70.3,70.28,70,70.24s-.3-2.59.06-5.75S71,58.85,71.26,58.89Z"/><path class="cls-6" d="M75.13,60.27c.32,0,.3,2.58,0,5.69s-.91,5.64-1.24,5.6-.3-2.59,0-5.68S74.8,60.23,75.13,60.27Z"/><path class="cls-7" d="M-25.82,31.39l7.91-2.45a8.19,8.19,0,0,1,6.23.58,8.16,8.16,0,0,1,4,4.81L10.93,94.44l-23.43,7.25-18.61-60.1a8.17,8.17,0,0,1,.55-6.19,8.18,8.18,0,0,1,4.74-4Z"/><path class="cls-7" d="M6.22,91.83-9.51,96.71l1.93,6.23L8.15,98.06Z"/><path class="cls-8" d="M2.54,99.79l-5,1.55,20.88,67.38,5-1.55Z"/><path class="cls-8" d="M27.76,172.35s.31,11.31-.18,11.42l-1.69.54-1.68.5c-.33,0-6.6-9.31-6.6-9.31l.77-6.56,5-1.54Z"/><path class="cls-6" d="M-9.37,36l-4.1,1.27L2.8,89.74l4.09-1.26Z"/><path class="cls-7" d="M24.79,12.37,33,13.66A8.16,8.16,0,0,1,39.76,23L30,85.16,5.73,81.34l9.81-62.16a8.15,8.15,0,0,1,9.25-6.81Z"/><path class="cls-7" d="M26.87,80.74,10.6,78.18l-1,6.45,16.27,2.55Z"/><path class="cls-8" d="M20.07,86.26l-5.17-.82-11,69.69,5.17.81Z"/><path class="cls-8" d="M10.69,162.51S6,172.79,5.49,172.68l-1.75-.27L2,172.12C1.7,172,.19,160.85.19,160.85l3.59-5.55,5.13.81Z"/><path class="cls-6" d="M21.79,21.27l-4.23-.67L9,74.9l4.23.67Z"/><path class="cls-6" d="M29.65,22.49l-4.23-.66-8.57,54.3,4.23.67Z"/><path class="cls-6" d="M37.53,23.72l-4.23-.67L24.73,77.36,29,78Z"/><path class="cls-9" d="M135.88,169.06V166H122.19v-6.15H135.4v-3.07H122.19v-6h13.69v-3.1H118.73v21.44Zm10.53.32c3.59,0,5.89-1.89,6.56-4.8h.1v9.92h3.46V153.16h-3.17v4.41h-.29c-.64-2.94-2.88-4.73-6.62-4.73-4.93,0-7.72,3.36-7.72,8.28S141.49,169.38,146.41,169.38Zm-4.19-8.26c0-3.84,2-5.12,5.31-5.12,3.56,0,5.54,1.67,5.54,5.09v.29c0,3.26-2.08,4.86-5.47,4.86S142.22,164.93,142.22,161.12Zm25.08,8.26a6.37,6.37,0,0,0,6.72-5.25h.2v4.93h3.16v-15.9H174V161c0,3.45-1.63,5.25-5.15,5.25-3.36,0-4.74-1.51-4.74-4.48v-8.64h-3.42v9.56C160.65,166.4,162.82,169.38,167.3,169.38Zm17.64-18.08v-3.68h-3.46v3.68Zm0,17.76v-15.9h-3.46v15.9Zm7.62,5.44v-9.92h.12c.64,2.91,2.95,4.8,6.53,4.8,5,0,7.68-3.33,7.68-8.26s-2.78-8.28-7.71-8.28c-3.74,0-6,1.79-6.62,4.73h-.29v-4.41H189.1V174.5Zm0-13.12v-.29c0-3.42,2-5.09,5.53-5.09,3.33,0,5.35,1.28,5.35,5.12s-2,5.12-5.41,5.12S192.56,164.64,192.56,161.38Zm21.14,7.68v-7.87c0-3.52,1.19-5.25,4.61-5.25,3.07,0,4.29,1.34,4.29,4.48v8.64H226v-7.87c0-3.52,1.22-5.25,4.61-5.25,3.07,0,4.32,1.34,4.32,4.48v8.64h3.43v-9.57c0-3.84-2.08-6.65-6.21-6.65a5.81,5.81,0,0,0-6.24,5.24h-.19a5.67,5.67,0,0,0-6-5.24c-4,0-5.7,2.46-6.11,5.12h-.19v-4.8h-3.17v15.9Zm36.73.32c4.73,0,8.06-2.34,8.06-5.73v-.29H255v.26c0,1.89-1.38,3-4.71,3-3.68,0-5.18-1.64-5.31-4.71h13.5a7,7,0,0,0,.13-1.5c0-4.83-3.36-7.55-8.29-7.55-5.18,0-8.57,3.32-8.57,8.28C241.79,166.44,245.21,169.38,250.43,169.38Zm-.13-13.82c3.39,0,5.09,1.4,5.09,4.35V160H245.05C245.24,157.12,246.78,155.56,250.3,155.56Zm15.36,13.5v-7.87c0-3.46,1.56-5.25,5-5.25,3.3,0,4.64,1.5,4.64,4.48v8.64h3.46v-9.57c0-3.68-2.18-6.65-6.59-6.65a6.29,6.29,0,0,0-6.63,5.24h-.22v-4.92H262.2v15.9Zm27.62,0V166H290.4c-2,0-2.88-.52-2.88-2.47V156h5.76v-2.88h-5.76v-3.49H284.1v3.49h-2.69V156h2.69v7.64c0,3.88,2.11,5.38,5.53,5.38Z"/><path class="cls-10" d="M68,95.44C67.48,95-65.49,65.5-65.49,65.5L-68,76.61,56.41,104.5Z"/><g class="cls-11"><path class="cls-12" d="M68,95.44C67.48,95-65.49,65.5-65.49,65.5L-68,76.61,56.41,104.5Z"/></g><path class="cls-10" d="M76.07,92.53l23,47.68L77,238.81,15,224.9l22.6-100.79Z"/><path class="cls-10" d="M-134.51,191.39l22.69-101.18,36.25-31.68,13.69,3.07-39.18,32.55-2.83,12.6L23.5,135.31l3.57-15.91,39.48-29,9.53,2.13L37.55,124.11,15,224.89Z"/><g class="cls-13"><path class="cls-14" d="M76.07,92.53l23,47.68L77,238.81,15,224.9l22.6-100.79Z"/></g><path class="cls-6" d="M293.74-8.1,264.8,32.7l43.76,31,29-40.72Zm9.57,15.51L328,24.92,307.25,54.13l-24.67-17.5Z"/><path class="cls-15" d="M165.8-59.93l.09,0-1.17,3.28.13.1,0,0,2.91-1.66-1.12,3.28.13.1,3-1.66-1.16,3.28.15.12,2.93-1.68-1.12,3.28.13.1,3-1.66-1.16,3.28.15.12,2.93-1.63L174.42-48l.13.1,2.93-1.64-1.12,3.24.1.12,3-1.66-1.12,3.28.1.12,3-1.66-1.15,3.26.13.1,0,0,2.9-1.66-1.12,3.28.13.1,2.93-1.64-1.14,3.26.15.12,3-1.66L186-37.68l.13.14,2.93-1.68L188-36l.13.14L191-37.47l-1.14,3.25.15.12L193-35.73l-1.14,3.26.13.09L194.91-34l-1.14,3.25.13.15,2.95-1.66L195.71-29l.13.14,2.93-1.68-1.15,3.26.13.14,3-1.66-1.12,3.24.13.14,2.93-1.64-1.15,3.26.13.1,3-1.66-1.13,3.28.11.12,3-1.66-1.15,3.26.13.14,3-1.65-1.14,3.25.13.15,3-1.66-1.14,3.26.13.09,3-1.65-1.16,3.28.15.12,2.93-1.69-1.12,3.29.13.09L216.2-15,215-11.72l.16.12,2.93-1.68L217-10l.16.12,2.95-1.66-1.17,3.28.14.1,3-1.66-1.15,3.3.13.1,3-1.66-1.15,3.26.11.12,3-1.68-1.15,3.3.11.12,3-1.68-1.17,3.28.13.1,3-1.66L228.63.41l.11.07,2.95-1.66-1.14,3.31.13.09L233.63.57l-1.12,3.28.11.12,3-1.68-1.17,3.28.13.09L237.51,4l-1.14,3.3.13.1,2.95-1.66L238.28,9l.16.12,2.95-1.66-1.14,3.26.1.12,3-1.66-1.13,3.28.11.12,3-1.66-1.15,3.26.11.12,3-1.68-1.13,3.28.13.14,3-1.65L248,17.67l.15.12,3-1.65-1.15,3.25.13.15,3-1.71-1.15,3.31.11.12,2.95-1.66-1.15,3.3.16.08,2.93-1.68-1.14,3.3.13.1,3-1.66-1.12,3.28.11.12,2.95-1.7-1.12,3.32.11.08,2.95-1.66-1.15,3.3.11.12,3-1.68L263.5,31.5l1.37,1.27L293.8-8,180.64-80.43Z"/><g class="cls-11"><path class="cls-16" d="M256.94-31.61l-6.57,48.12L250,19.13l0,.34.06.07,3-1.71-1.15,3.31.11.12,2.95-1.66-1.15,3.3.16.08,2.93-1.68-1.14,3.3.13.1,2-1.14,6.85-50.15Z"/><path class="cls-16" d="M271.15-22.52l-6.95,51L264,30.12l-.21,1.62,1.11,1,3.7-5.21L275.05-20Z"/><path class="cls-16" d="M277.76-18.27l-5.58,40.71,2.64-3.71L279.73-17Z"/></g><path class="cls-8" d="M235.14,96.9l-8.7,12,18.71,13.59,8.7-12Z"/><path class="cls-8" d="M237.66,99.26l5.86-8.07c.9-1.26-1.22-10,1.55-13.82l3-4.18c2.63-3.6,17.31-16.11,26.71-9.28L280.38,68s-6.45-1.51-9.85,1.23a7.87,7.87,0,0,0-1.3,11,76.45,76.45,0,0,0,7.37,7.58l-10.78,14.69a67.39,67.39,0,0,0-11.73-4c-3.32-.4-7.78,7-7.78,7Z"/><path class="cls-8" d="M274.56,90.52l-6.68,9.21,33.27,24.16,6.68-9.21Z"/><path class="cls-6" d="M297.08,103l-10,13.75,74.27,54,10-13.75Z"/><path class="cls-6" d="M115.06-40.85l-14.27,15,92.86,88.46,14.27-15Z"/><path class="cls-8" d="M199.94,36.52,182.15,55.19,200.82,73,218.61,54.3Z"/><path class="cls-8" d="M199.94,72.12s-7.68,29.05-16.51,38.32L151.25,79.77l31.81-23.7Z"/><g class="cls-17"><path class="cls-18" d="M168.57,96.25l-1.76-28.06,0,0,8-6,2.6,42.61Z"/><path class="cls-18" d="M184.66,109l-3.15-51.75L183,56l2.73,2.6,2.75,44.27a37.79,37.79,0,0,1-3.82,6.1Z"/><path class="cls-18" d="M191.13,97.57l-2.21-36,2.34,2.23,1.8,29.48C192.36,94.69,191.74,96.2,191.13,97.57Z"/></g><rect class="cls-19" x="-56.56" y="-74.47" width="434.9" height="313.12"/><rect class="cls-20" x="192.91" y="17.52" width="197.25" height="37.28" rx="4"/><path class="cls-21" d="M212.86,40.83c3,0,5.13-1.6,5.13-4.17v-.21h-1.9v.21c0,1.65-1,2.51-3.22,2.51-2.51,0-3.73-1.18-3.73-3.86s1.22-3.87,3.73-3.87c2.18,0,3.22.88,3.22,2.51v.23H218V34c0-2.56-2.11-4.16-5.13-4.16a5.21,5.21,0,0,0-5.54,5.52A5.2,5.2,0,0,0,212.86,40.83Zm10.95,0c2.66,0,4.43-1.68,4.43-4.12s-1.77-4.15-4.43-4.15-4.42,1.67-4.42,4.15S221.17,40.83,223.81,40.83Zm0-1.53c-1.92,0-2.72-.91-2.72-2.59s.8-2.63,2.72-2.63,2.74.93,2.74,2.63S225.75,39.3,223.81,39.3Zm7.89,1.37V36.74c0-1.76.6-2.63,2.31-2.63,1.53,0,2.14.68,2.14,2.24v4.32h1.71V36.74c0-1.76.61-2.63,2.31-2.63,1.53,0,2.16.68,2.16,2.24v4.32H244V35.89c0-1.92-1-3.33-3.1-3.33a2.91,2.91,0,0,0-3.12,2.63h-.1a3.07,3.07,0,0,0-6.06-.07h-.1v-2.4H230v8Zm16.09-8.88V30h-1.73v1.84Zm0,8.88v-8h-1.73v8Zm3.81,0V36.74c0-1.73.78-2.63,2.53-2.63s2.32.76,2.32,2.24v4.32h1.73V35.89a3.09,3.09,0,0,0-3.3-3.33,3.14,3.14,0,0,0-3.31,2.63h-.11V32.72h-1.59v8Zm12-.72c1.81,0,2.88-.86,3.17-2.06h.11v2c0,1.78-.65,2.27-2.46,2.27s-2.37-.43-2.37-1.58h-1.71c0,1.92,1.63,3,4,3,2.61,0,4.27-1.13,4.27-3.8v-7h-1.58v2H267c-.28-1.4-1.53-2.15-3.2-2.15a3.55,3.55,0,0,0-3.88,3.7A3.47,3.47,0,0,0,263.65,40Zm-2-3.69c0-1.63,1-2.19,2.64-2.19s2.67.68,2.67,2v.22c0,1.41-1,2.15-2.72,2.15S261.62,37.89,261.62,36.26Zm16.81,4.57c3.17,0,4.5-1.5,4.5-3.13s-1.06-2.55-3.2-2.93l-2.61-.45c-1.26-.27-1.81-.57-1.81-1.5s.77-1.44,2.72-1.44c2.23,0,3,.65,3,2v.2h1.71v-.09c0-2.1-1.42-3.67-4.56-3.67-3.32,0-4.6,1.57-4.6,3.12,0,1.76,1.28,2.6,3.08,2.92l2.63.43c1.36.25,1.9.61,1.9,1.53s-.72,1.46-2.77,1.46c-2.35,0-3.1-.64-3.1-1.92v-.26H273.6v.1C273.6,39.43,275.23,40.83,278.43,40.83Zm10.27,0c2.66,0,4.43-1.68,4.43-4.12s-1.77-4.15-4.43-4.15-4.42,1.67-4.42,4.15S286.06,40.83,288.7,40.83Zm0-1.53c-1.92,0-2.72-.91-2.72-2.59s.8-2.63,2.72-2.63,2.74.93,2.74,2.63S290.64,39.3,288.7,39.3Zm10.23,1.53c2.66,0,4.43-1.68,4.43-4.12s-1.77-4.15-4.43-4.15-4.42,1.67-4.42,4.15S296.29,40.83,298.93,40.83Zm0-1.53c-1.92,0-2.72-.91-2.72-2.59s.8-2.63,2.72-2.63,2.74.93,2.74,2.63S300.87,39.3,298.93,39.3Zm7.89,1.37V36.74c0-1.73.79-2.63,2.53-2.63s2.32.76,2.32,2.24v4.32h1.73V35.89a3.09,3.09,0,0,0-3.3-3.33,3.15,3.15,0,0,0-3.31,2.63h-.11V32.72H305.1v8Z"/></g></g></svg>