<svg width="335" height="197" viewBox="0 0 335 197" fill="none" xmlns="http://www.w3.org/2000/svg">
<g clip-path="url(#clip0_1659:5407)">
<g clip-path="url(#clip1_1659:5407)">
<path d="M336.51 -3.56982H2.50977V196.43H336.51V-3.56982Z" fill="#B0CBFF"/>
<path d="M74.6306 50.3198L84.9206 28.7398L82.1406 27.5098C82.1406 27.5098 67.2406 34.6498 63.1406 44.5098L74.6306 50.3198Z" fill="#455A64"/>
<path d="M21.4609 109.82C21.4609 109.82 50.0009 78 51.0009 76C52.0009 74 53.8009 59.08 53.8409 55.34C53.8809 51.6 56.2009 41 56.2009 41L85.4509 55.66L94.2409 33L98.2409 34.73C98.2409 34.73 107.341 54.91 102.781 65.41C98.2209 75.91 83.3509 79.3 79.5609 81.14C75.7709 82.98 62.5609 86.38 44.8909 107.86L34.1009 120.49L21.4609 109.82Z" fill="#455A64"/>
<path d="M-12.6591 159.18C-13.7216 158.276 -14.589 157.165 -15.2084 155.915C-15.8279 154.665 -16.1864 153.302 -16.2622 151.909C-16.3379 150.516 -16.1294 149.122 -15.6492 147.812C-15.169 146.502 -14.4273 145.304 -13.4691 144.29L28.2209 102.29L41.2209 112.18L1.73093 158.18C-0.0569063 160.208 -2.57172 161.45 -5.26883 161.637C-7.96595 161.825 -10.6282 160.942 -12.6791 159.18H-12.6591Z" fill="#455A64"/>
<path d="M78.49 66.8798L66 61.1498L66.88 53.5098L79.33 59.8098L78.49 66.8798Z" fill="#263238"/>
<path d="M69.7892 53.3701C70.1192 53.3701 70.0892 55.9601 69.7892 59.0601C69.4892 62.1601 68.8792 64.7001 68.5492 64.6701C68.2192 64.6401 68.2492 62.0901 68.5992 58.9801C68.9492 55.8701 69.4592 53.3301 69.7892 53.3701Z" fill="#263238"/>
<path d="M73.7691 55.3198C74.0991 55.3198 74.0791 57.9098 73.7191 61.0598C73.3591 64.2098 72.7991 66.7098 72.4691 66.6698C72.1391 66.6298 72.1691 64.0798 72.5391 60.9198C72.9091 57.7598 73.4491 55.2798 73.7691 55.3198Z" fill="#263238"/>
<path d="M77.6302 56.7002C77.9602 56.7002 77.9302 59.2802 77.6302 62.3902C77.3302 65.5002 76.7102 68.0302 76.3802 67.9902C76.0502 67.9502 76.0802 65.4002 76.4402 62.3002C76.8002 59.2002 77.3002 56.6602 77.6302 56.7002Z" fill="#263238"/>
<path d="M-23.3101 27.82L-15.4001 25.37C-14.3751 25.0528 -13.2977 24.9407 -12.2294 25.0399C-11.1611 25.1391 -10.1228 25.4478 -9.17379 25.9483C-8.22477 26.4488 -7.38363 27.1314 -6.69839 27.957C-6.01315 28.7825 -5.49724 29.735 -5.18011 30.76L13.4399 90.87L-10.0001 98.12L-28.6101 38C-29.2429 35.9444 -29.0418 33.7225 -28.0501 31.814C-27.0585 29.9055 -25.3559 28.4637 -23.3101 27.8V27.82Z" fill="#37474F"/>
<path d="M8.72 88.2598L-7 93.1398L-5.06 99.3698L10.67 94.4898L8.72 88.2598Z" fill="#37474F"/>
<path d="M5.05078 96.2202L0.0507812 97.7702L20.9308 165.14L25.9308 163.6L5.05078 96.2202Z" fill="#EBEBEB"/>
<path d="M30.2691 168.78C30.2691 168.78 30.5691 180.09 30.0891 180.2L28.3991 180.74L26.7092 181.24C26.3892 181.24 20.1191 171.93 20.1191 171.93L20.8891 165.37L25.8891 163.83L30.2691 168.78Z" fill="#EBEBEB"/>
<path d="M-6.87 32.3901L-11 33.6601L5.25999 86.1701L9.36 84.9001L-6.87 32.3901Z" fill="#263238"/>
<path d="M27.3005 8.78983L35.4705 10.0798C36.5316 10.2478 37.5492 10.6232 38.4653 11.1845C39.3813 11.7459 40.1778 12.4821 40.8092 13.3513C41.4407 14.2205 41.8948 15.2055 42.1455 16.2502C42.3962 17.2949 42.4387 18.3787 42.2705 19.4398L32.4605 81.5898L8.23047 77.7598L18.0005 15.6098C18.3383 13.4844 19.4992 11.5774 21.2321 10.3011C22.9649 9.02487 25.1305 8.48197 27.2605 8.78983H27.3005Z" fill="#37474F"/>
<path d="M29.3794 77.1699L13.1094 74.6099L12.1094 81.0599L28.3794 83.6099L29.3794 77.1699Z" fill="#37474F"/>
<path d="M22.5802 82.6901L17.4102 81.8701L6.41016 151.56L11.5802 152.37L22.5802 82.6901Z" fill="#EBEBEB"/>
<path d="M13.1992 158.94C13.1992 158.94 8.47922 169.22 7.99922 169.11L6.24922 168.84L4.50922 168.55C4.20922 168.41 2.69922 157.28 2.69922 157.28L6.27922 151.73L11.4192 152.54L13.1992 158.94Z" fill="#EBEBEB"/>
<path d="M24.2902 17.6998L20.0602 17.0298L11.4902 71.3298L15.7202 71.9998L24.2902 17.6998Z" fill="#263238"/>
<path d="M32.1594 18.92L27.9294 18.25L19.3594 72.56L23.5894 73.23L32.1594 18.92Z" fill="#263238"/>
<path d="M39.9992 20.15L35.7692 19.48L27.1992 73.79L31.4292 74.45L39.9992 20.15Z" fill="#263238"/>
<path d="M138.39 165.49V162.39H124.69V156.24H137.91V153.17H124.69V147.17H138.39V144.07H121.24V165.51L138.39 165.49ZM148.92 165.81C152.5 165.81 154.81 163.92 155.48 161.01H155.57V170.93H159V149.58H155.83V154H155.54C154.9 151.06 152.66 149.27 148.92 149.27C143.99 149.27 141.21 152.63 141.21 157.55C141.21 162.47 144 165.81 148.92 165.81V165.81ZM144.73 157.55C144.73 153.71 146.73 152.43 150.04 152.43C153.59 152.43 155.57 154.1 155.57 157.52V157.81C155.57 161.07 153.49 162.67 150.1 162.67C146.71 162.67 144.73 161.36 144.73 157.55V157.55ZM169.81 165.81C171.381 165.92 172.937 165.445 174.178 164.475C175.419 163.506 176.257 162.111 176.53 160.56H176.72V165.49H179.89V149.58H176.47V157.46C176.47 160.91 174.83 162.71 171.32 162.71C167.81 162.71 166.58 161.2 166.58 158.22V149.58H163.15V159.15C163.15 162.83 165.33 165.81 169.81 165.81V165.81ZM187.45 147.73V144.05H184V147.73H187.45ZM187.45 165.49V149.58H184V165.49H187.45ZM195.06 170.93V161H195.19C195.83 163.91 198.13 165.8 201.72 165.8C206.72 165.8 209.4 162.47 209.4 157.54C209.4 152.61 206.61 149.26 201.69 149.26C197.94 149.26 195.69 151.05 195.06 153.99H194.77V149.57H191.61V170.92L195.06 170.93ZM195.06 157.81V157.52C195.06 154.1 197.06 152.43 200.6 152.43C203.93 152.43 205.94 153.71 205.94 157.55C205.94 161.39 203.94 162.67 200.54 162.67C197.14 162.67 195.06 161.07 195.06 157.81V157.81ZM216.21 165.49V157.62C216.21 154.1 217.39 152.37 220.82 152.37C223.89 152.37 225.11 153.71 225.11 156.85V165.49H228.53V157.62C228.53 154.1 229.75 152.37 233.14 152.37C236.21 152.37 237.46 153.71 237.46 156.85V165.49H240.88V155.92C240.88 152.08 238.8 149.27 234.67 149.27C233.151 149.153 231.647 149.636 230.48 150.616C229.314 151.595 228.578 152.993 228.43 154.51H228.24C228.027 153.062 227.304 151.739 226.202 150.777C225.099 149.816 223.689 149.279 222.227 149.265C220.764 149.25 219.344 149.759 218.222 150.698C217.101 151.638 216.352 152.947 216.11 154.39H215.92V149.58H212.75V165.49H216.21ZM252.93 165.81C257.67 165.81 261 163.47 261 160.08V159.79H257.54V160.05C257.54 161.94 256.16 163.05 252.84 163.05C249.16 163.05 247.65 161.41 247.52 158.34H261C261.097 157.846 261.141 157.343 261.13 156.84C261.13 152.01 257.77 149.29 252.84 149.29C247.65 149.29 244.26 152.61 244.26 157.57C244.29 162.86 247.72 165.81 252.93 165.81V165.81ZM252.8 152C256.2 152 257.89 153.4 257.89 156.35V156.41H247.56C247.75 153.55 249.29 152 252.8 152ZM268.16 165.5V157.63C268.16 154.17 269.73 152.38 273.22 152.38C276.51 152.38 277.86 153.88 277.86 156.86V165.5H281.31V155.93C281.31 152.25 279.14 149.28 274.72 149.28C273.163 149.177 271.624 149.656 270.4 150.624C269.177 151.592 268.357 152.981 268.1 154.52H267.87V149.59H264.71V165.5H268.16ZM295.79 165.5V162.4H292.9C290.9 162.4 290.02 161.88 290.02 159.93V152.48H295.79V149.59H290V146.1H286.6V149.58H283.91V152.47H286.6V160.11C286.6 163.99 288.71 165.49 292.14 165.49L295.79 165.5Z" fill="#172F63"/>
<path d="M70.5295 91.8702C69.9995 91.3902 -63.0005 61.9302 -63.0005 61.9302L-65.4805 73.0002L58.9095 100.89L70.5295 91.8702Z" fill="#FF725E"/>
<g opacity="0.3">
<path opacity="0.3" d="M70.5295 91.8702C69.9995 91.3902 -63.0005 61.9302 -63.0005 61.9302L-65.4805 73.0002L58.9095 100.89L70.5295 91.8702Z" fill="black"/>
</g>
<path d="M78.5805 89L101.58 136.68L79.4805 235.28L17.4805 221.36L40.0705 120.58L78.5805 89Z" fill="#FF725E"/>
<path d="M-132 187.81L-109.32 86.64L-73.07 55L-59.37 58L-98.56 90.58L-101.38 103.18L26 131.74L29.57 115.83L69.05 86.83L78.57 88.96L40.04 120.54L17.46 221.32L-132 187.81Z" fill="#FF725E"/>
<g opacity="0.08">
<path opacity="0.77" d="M78.5805 89L101.58 136.68L79.4805 235.28L17.4805 221.36L40.0705 120.58L78.5805 89Z" fill="white"/>
</g>
<path d="M296.241 -11.6699L267.311 29.1201L311.071 60.1201L340.071 19.4001L296.241 -11.6699ZM305.811 3.84007L330.481 21.3501L309.751 50.5601L285.091 33.0601L305.811 3.84007Z" fill="#263238"/>
<path d="M168.301 -63.5H168.391L167.221 -60.22L167.361 -60.12L170.271 -61.78L169.141 -58.5L169.281 -58.4L172.231 -60.06L171.061 -56.78L171.221 -56.66L174.151 -58.34L173.001 -55.08L173.141 -54.98L176.091 -56.64L175.001 -53.36L175.151 -53.24L178.001 -54.87L176.881 -51.59L177.011 -51.49L180.001 -53.13L178.881 -49.89L178.991 -49.77L181.991 -51.43L180.861 -48.15L180.971 -48.03L183.921 -49.69L182.781 -46.43L182.911 -46.33L185.781 -48L184.661 -44.72L184.791 -44.62L187.721 -46.26L186.571 -43L186.731 -42.88L189.681 -44.54L188.541 -41.28L188.671 -41.14L191.601 -42.82L190.461 -39.56L190.581 -39.42L193.581 -41.08L192.431 -37.82L192.591 -37.7L195.521 -39.33L194.331 -36L194.461 -35.91L197.461 -37.57L196.311 -34.31L196.441 -34.17L199.441 -35.82L198.291 -32.56L198.421 -32.42L201.351 -34.1L200.211 -30.85L200.341 -30.7L203.291 -32.36L202.171 -29.12L202.301 -28.98L205.231 -30.62L204.001 -27.4L204.131 -27.3L207.091 -29L206.001 -25.68L206.111 -25.56L209.001 -27.22L207.891 -24L208.021 -23.86L211.021 -25.52L209.881 -22.26L210.011 -22.12L213.011 -23.77L211.861 -20.51L212.001 -20.42L215.001 -22.08L213.831 -18.8L213.981 -18.68L216.921 -20.36L215.651 -17L215.781 -16.91L218.711 -18.54L217.541 -15.26L217.691 -15.14L220.621 -16.82L219.501 -13.54L219.651 -13.42L222.651 -15.08L221.481 -11.8L221.611 -11.7L224.611 -13.36L223.461 -10.06L223.591 -9.96L226.541 -11.62L225.401 -8.36L225.511 -8.24L228.511 -9.92L227.371 -6.62L227.481 -6.5L230.481 -8.18L229.321 -4.9L229.451 -4.8L232.401 -6.46L231.281 -3.13L231.391 -3.06L234.341 -4.72L233.191 -1.41L233.321 -1.32L236.321 -2.97L235.001 0.279999L235.101 0.400002L238.101 -1.28L236.931 2L237.071 2.09L240.001 0.440002L238.851 3.74L238.981 3.84L241.981 2.18L240.811 5.46L240.961 5.58L243.961 3.92L242.811 7.18L242.921 7.3L245.871 5.64L244.751 8.92L244.861 9.04L247.811 7.38L246.671 10.64L246.781 10.76L249.781 9.08L248.661 12.36L248.791 12.5L251.741 10.85L250.551 14.1L250.711 14.22L253.661 12.57L252.521 15.82L252.651 15.97L255.601 14.26L254.461 17.57L254.561 17.68L257.561 16.03L256.411 19.33L256.571 19.41L259.501 17.72L258.221 21L258.351 21.09L261.351 19.44L260.221 22.72L260.331 22.84L263.331 21.13L262.201 24.46L262.311 24.54L265.311 22.88L264.161 26.18L264.271 26.3L267.271 24.62L266.001 27.93L267.371 29.2L296.311 -11.6L183.151 -84L168.301 -63.5Z" fill="#DDDDDD"/>
<g opacity="0.3">
<path opacity="0.3" d="M259.449 -35.1899L252.879 12.9401L252.529 15.5601V15.8901L252.599 15.9701L255.549 14.2601L254.409 17.5701L254.509 17.6801L257.509 16.0301L256.359 19.3301L256.519 19.4101L259.449 17.7201L258.219 21.0001L258.349 21.0901L260.349 19.9601L267.199 -30.1899L259.449 -35.1899Z" fill="white"/>
<path opacity="0.3" d="M273.659 -26.0898L266.659 24.9102L266.419 26.5602L266.209 28.1802L267.319 29.1802L271.029 23.9702L277.509 -23.5898L273.659 -26.0898Z" fill="white"/>
<path opacity="0.3" d="M280.269 -21.8398L274.689 18.8702L277.329 15.1602L282.229 -20.5998L280.269 -21.8398Z" fill="white"/>
</g>
<path d="M237.649 93.3301L228.939 105.33L247.649 118.93L256.349 106.93L237.649 93.3301Z" fill="#EBEBEB"/>
<path d="M240.16 95.69L246.02 87.6199C246.93 86.3599 244.81 77.62 247.57 73.8L250.57 69.6199C253.2 66.0199 267.88 53.5099 277.27 60.3399L282.87 64.41C282.87 64.41 276.42 62.9 273.02 65.64C271.398 66.9322 270.351 68.8117 270.106 70.8709C269.861 72.9301 270.437 75.0029 271.71 76.64C273.992 79.3313 276.454 81.8638 279.08 84.22L268.31 98.91C264.531 97.2206 260.604 95.8817 256.58 94.91C253.26 94.51 248.79 101.91 248.79 101.91L240.16 95.69Z" fill="#EBEBEB"/>
<path d="M277.071 87L270.381 96.21L303.651 120.37L310.341 111.16L277.071 87Z" fill="#EBEBEB"/>
<path d="M299.59 99.4302L289.59 113.18L363.85 167.18L373.85 153.43L299.59 99.4302Z" fill="#263238"/>
<path d="M117.559 -44.4199L103.289 -29.4199L196.149 59.0001L210.419 44.0001L117.559 -44.4199Z" fill="#263238"/>
<path d="M202.44 33L184.66 51.67L203.33 69.45L221.11 50.78L202.44 33Z" fill="#EBEBEB"/>
<path d="M202.45 68.55C202.45 68.55 194.77 97.55 185.93 106.87L153.75 76.2L185.56 52.5L202.45 68.55Z" fill="#EBEBEB"/>
<g opacity="0.2">
<path opacity="0.2" d="M171.081 92.6801L169.311 64.6201L177.311 58.6201L180.001 101.2L171.081 92.6801Z" fill="white"/>
<path opacity="0.2" d="M187.17 105.4L184 53.6502L185.48 52.4302L188.21 55.0302L191 99.3002C189.92 101.448 188.641 103.491 187.18 105.4H187.17Z" fill="white"/>
<path opacity="0.2" d="M193.63 94L191.43 58L193.76 60.23L195.57 89.71C194.87 91.12 194.24 92.63 193.63 94Z" fill="white"/>
</g>
</g>
</g>
<defs>
<clipPath id="clip0_1659:5407">
<rect width="335" height="197" fill="white"/>
</clipPath>
<clipPath id="clip1_1659:5407">
<rect width="505.85" height="319.24" fill="white" transform="translate(-132 -84)"/>
</clipPath>
</defs>
</svg>
