<svg xmlns="http://www.w3.org/2000/svg" xmlns:xlink="http://www.w3.org/1999/xlink" viewBox="0 0 334 200"><defs><style>.cls-1{fill:none;}.cls-2{clip-path:url(#clip-path);}.cls-3{fill:#3057e0;}.cls-4{clip-path:url(#clip-path-2);}.cls-5{fill:#1d3dae;}.cls-6{clip-path:url(#clip-path-3);}.cls-7{fill:#e1b052;}.cls-8{clip-path:url(#clip-path-4);}.cls-9{fill:#14bad0;}.cls-10{clip-path:url(#clip-path-5);}.cls-11{fill:#ffbe3a;}.cls-12{fill:#ffce45;}.cls-13{fill:#d21200;}.cls-14,.cls-24{fill:#fff;}.cls-15{clip-path:url(#clip-path-6);}.cls-16{fill:#680e05;}.cls-17{fill:#ff971d;}.cls-18{fill:#8c510b;}.cls-18,.cls-24{opacity:0.2;}.cls-18,.cls-24,.cls-31,.cls-33{isolation:isolate;}.cls-19{fill:#f9c432;}.cls-20{fill:#6fba20;}.cls-21{fill:#5d9e1b;}.cls-22{fill:#ff981f;}.cls-23{fill:#ffb521;}.cls-25{fill:#ce7341;}.cls-26{fill:#8d461e;}.cls-27{fill:#e98a57;}.cls-28{fill:#5b2a0f;}.cls-29{opacity:0.38;}.cls-30{opacity:0.11;}.cls-31,.cls-33{fill:#650000;}.cls-31{opacity:0.15;}.cls-32,.cls-33{opacity:0.3;}.cls-34{fill:#e0e4ef;fill-opacity:0.38;}.cls-35{fill:#18edf1;}.cls-36{fill:#0a6f7c;}</style><clipPath id="clip-path"><rect id="SVGID" class="cls-1" x="-839.98" y="-988.12" width="1587" height="773"/></clipPath><clipPath id="clip-path-2"><rect id="SVGID-2" data-name="SVGID" class="cls-1" x="306.02" y="-919.12" width="571" height="1145"/></clipPath><clipPath id="clip-path-3"><rect id="SVGID-3" data-name="SVGID" class="cls-1" x="-469.43" width="334" height="200" rx="8"/></clipPath><clipPath id="clip-path-4"><rect id="SVGID-4" data-name="SVGID" class="cls-1" width="334" height="200" rx="8"/></clipPath><clipPath id="clip-path-5"><rect id="SVGID-5" data-name="SVGID" class="cls-1" x="-68.54" y="45.81" width="183.18" height="94.15" transform="translate(-72.43 86.43) rotate(-72.2)"/></clipPath><clipPath id="clip-path-6"><rect id="SVGID-6" data-name="SVGID" class="cls-1" x="-3.96" y="83.72" width="148.84" height="161.57" transform="translate(-108.34 172.05) rotate(-69.23)"/></clipPath></defs><title>illustration</title><g id="buildings"><g class="cls-2"><rect class="cls-3" x="328.63" y="-371.88" width="971.02" height="405.55"/><rect class="cls-3" x="-547.72" y="-372.4" width="971.02" height="405.55"/><g class="cls-4"><path class="cls-5" d="M635.57-655.47,323.46-574V360.2H635.57Z"/></g></g></g><g id="houses"><g class="cls-6"><path class="cls-7" d="M-71,188.5l99-117.58L-84-18.5-174.65,89.17Z"/></g><g class="cls-8"><rect class="cls-9" width="334" height="200" rx="8"/><g class="cls-10"><path class="cls-11" d="M42.37,97.41C50.24,77.94,58.15,58.81,66,39.33c6.23,2.17,12.75,4.42,19,6.58C75.67,64,66.33,82,57,99.89,52.61,98.63,46.65,98.63,42.37,97.41Z"/><path class="cls-11" d="M23.12,85.65c6.89-23,18.56-57.8,25.45-80.77,6.1,2.6,12,5.77,18.1,8.36-7.2,22.4-20.32,57.24-27.51,79.64C33.32,91,29,87.53,23.12,85.65Z"/><path class="cls-11" d="M5,74.89c4.32.59,8.59.84,12.91,1.44,7-18.8,14.2-37.69,21.2-56.48-5.4-1.25-10.9-3.18-16.29-4.43C17.31,34.53,10.34,55.73,5,74.89Z"/><path class="cls-11" d="M-8.14,78.17C-6.79,60.43-6,42.84-4.62,25.1c4.46.63,9.37,1.89,13.89,2.39C6.6,44.8,4.09,62.17,1.42,79.48Z"/><path class="cls-12" d="M9.66,89.46C16.2,69.08,23.37,48.27,29.91,27.9,36,30,42.46,35,48.59,36.93,40.24,56.4,32.09,75.78,23.74,95.26,20.08,93.6,13.27,91.26,9.66,89.46Z"/><path class="cls-12" d="M-9,91C-5.86,71.08-2.9,51.32.16,31.26,5.9,32.94,13.14,34,19,35.72,14.77,54,11.54,75.08,7.43,93.37,2.3,93.31-3.89,91-9,91Z"/><path class="cls-12" d="M30.9,101.54c5.87-16.76,11.24-34,17.26-50.73l14.16,4.55C56.58,71.21,51,87.26,45.21,103.11,40.89,102,35.23,102.61,30.9,101.54Z"/><path class="cls-13" d="M75.69,82.93,51,137.32,28.1,188S-3.6,159.32-40.43,168.7l8.89-36.2,18.9-77.94S32.37,88.94,75.69,82.93Z"/></g><path class="cls-14" d="M217.2,169.06v-8.61h13.12v-3.07H217.2v-6.66h13.6v-3.1H213.75v21.44Zm25.26.32c5.31,0,8.86-3.36,8.86-8.26s-3.55-8.28-8.86-8.28-8.83,3.32-8.83,8.28S237.18,169.38,242.46,169.38Zm0-3.07c-3.84,0-5.44-1.83-5.44-5.19s1.6-5.24,5.44-5.24,5.47,1.85,5.47,5.24S246.33,166.31,242.46,166.31Zm20.46,3.07c5.31,0,8.87-3.36,8.87-8.26s-3.56-8.28-8.87-8.28-8.83,3.32-8.83,8.28S257.64,169.38,262.92,169.38Zm0-3.07c-3.84,0-5.44-1.83-5.44-5.19s1.6-5.24,5.44-5.24,5.47,1.85,5.47,5.24S266.79,166.31,262.92,166.31Zm19.34,3.07c3.59,0,5.92-1.73,6.59-4.9h.23v4.58h3.16V147.62h-3.45v9.86h-.19c-.64-2.69-2.79-4.64-6.56-4.64-4.84,0-7.59,3.32-7.59,8.28S277.24,169.38,282.26,169.38Zm-4.32-8.26c0-3.84,2-5.15,5.31-5.15,3.55,0,5.54,1.67,5.54,5.06v.25c0,3.33-2.08,4.93-5.47,4.93S277.94,164.93,277.94,161.12Z"/><g class="cls-15"><path class="cls-16" d="M129.49,188.38c-1,6.68-3.21,26.65-3.72,33.34C88.21,234.08,10,200.83-9.24,179.44c2.7-7.12,8.05-17.93,12.84-23.94C40.15,170.15,87.93,186.55,129.49,188.38Z"/><path class="cls-17" d="M128.55,241.71c-19.08,6.54-40.14,6.37-59.93,2s-38.28-13-56-22.81c-14.94-8.48-27.12-17.64-36.86-32,2.17-5.74,5.48-10.75,7.61-16.36,40.55,34.63,97,60.09,152.91,41.72C133.64,222.51,131.2,233.48,128.55,241.71Z"/><path class="cls-18" d="M72.29,234.45c-19.79-4.37-38.29-12.95-56-22.8-14.85-8.29-26.89-17.4-36.52-31.23-1.36,2.77-2.91,5.63-4,8.5,9.74,14.34,21.92,23.5,37.05,31.9,17.65,10,36.21,18.43,56,22.8s40.72,4.49,59.93-2c.9-2.79,1.71-5.76,2.58-8.88C112.35,239,91.61,238.81,72.29,234.45Z"/><path class="cls-19" d="M124,193.67C93.74,207.54,60,211.81,27.11,207A208.45,208.45,0,0,1,4.65,158.09C42.55,175,83.67,184.15,124,193.67Z"/><path class="cls-20" d="M142.24,200.58c-1.81,3.54-5.76,6.11-9.52,5.31-4.5-.93-6.86-6.68-8.54-10.91-.84,3.44-1.83,7.29-5,8.73-2.88,1.41-6.52-.13-8.6-2.48s-4.12-8.14-5-11.27c-.85,5.94-7.29,10.54-13.18,9.56-6-1.17-10.35-8.62-8.9-14.49-1,5.23-6.85,9-12.09,7.93-6.25-1.27-10.5-9.46-12.62-15.43-2.27,2.27-4.59,4.68-7.47,6.09s-6.47,1.77-9.27.09c-4.2-2.54-5.26-8.42-7.92-12.56-3.19,2.24-6.74,4.18-10.65,4.57s-8.17-.75-10.59-3.86-5.23-8.09-2.12-10.51a28.62,28.62,0,0,1-16.27.41c-1.83-.54-4.06-1.7-4.12-3.6a5.94,5.94,0,0,1,1-2.6A57.4,57.4,0,0,1,20.23,132.7c.33,0,.57-.26.89-.29,8.78,2.86,23.62,5.83,32.4,8.69,25.92,8.42,54.26,18.7,81.47,20.41l.14.05a66.77,66.77,0,0,1,8.73,27.74C144.12,193.15,144,197.18,142.24,200.58Z"/><path class="cls-21" d="M132.89,186.86c-3.49,2.59-11.6,1.7-12.54-2.42-.22,3.05-4,4.75-6.92,3.8s-5.9-4.27-6.33-7.25a11.7,11.7,0,0,1-11.24,5.28c-4.28-.68-9-4.35-10.07-8.52a5.49,5.49,0,0,1-6.46,3.82c-2.75-.58-5.14-4.61-4.61-7.23a8.32,8.32,0,0,1-8.84,3.07A9.31,9.31,0,0,1,59.47,170a11.35,11.35,0,0,1-10.37,2.17c-3.52-1-6.12-3.26-7-6.86-5.66,2.55-15.13-1.35-16.6-7.39a4.21,4.21,0,0,1-5.55,1c-1.82-1-3.42-3.79-2.83-5.76a10.12,10.12,0,0,1-4.61.6c-2.94-.49-4.88-4.05-4.25-6.94A8.12,8.12,0,0,1,14.56,141a57.45,57.45,0,0,1,5.35-8.31c.32,0,.56-.25.89-.29,8.77,2.86,23.61,5.83,32.39,8.69,25.92,8.42,54.26,18.7,81.47,20.42a38.88,38.88,0,0,1,2.59,13.81C137.54,179.54,136.38,184.27,132.89,186.86Z"/><path class="cls-22" d="M146.44,177.13c-50,.73-102.12-15.1-144.08-43.54C7.33,111.84,27,92.86,51.52,89s52.28,5,70.61,22.24C140.38,128.34,150.67,155.25,146.44,177.13Z"/><path class="cls-23" d="M67.57,98.69c-1.22-3-5.06-4.43-8.14-3.72a5.47,5.47,0,0,0-3.28,2,5.55,5.55,0,0,0-.79,4.55,5.13,5.13,0,0,0,6.91,3.25l.14.05c.32,0,.59.07.78,0C66.53,104.71,68.79,101.65,67.57,98.69Z"/><path class="cls-23" d="M63.43,104.63h0C64.36,104.67,64,104.7,63.43,104.63Z"/><path class="cls-23" d="M77.37,110.39a2.5,2.5,0,0,0,.09-1.06,2.8,2.8,0,0,0-.38-1.87c0-.33-.09-.19.08.19a3.15,3.15,0,0,0-5.06-1.92c.43-.31.43-.31.19-.09a6.16,6.16,0,0,0-1.53,1.14c-.24.23-.4.64-.64.86a4.36,4.36,0,0,0-.44,4.06,4,4,0,0,0,2.18,2.08,4,4,0,0,0,3-.11A4.45,4.45,0,0,0,77.37,110.39Z"/><path class="cls-23" d="M100,117.7a3.07,3.07,0,0,0-.14-1.3l-.08-.19a3.13,3.13,0,0,0-.27-1.35c0-.14-.09-.19,0-.33l-.09-.19a3.2,3.2,0,0,0-2.89-1.88,3.68,3.68,0,0,0-3,.9,5.64,5.64,0,0,0-1.87,4.93,4.25,4.25,0,0,0,3.71,3.44A4.37,4.37,0,0,0,100,117.7Z"/><path class="cls-23" d="M114.62,117c-.26-2.6-3.36-3.93-5.57-4.3s-4.41,2.55-3.29,4.54a8.17,8.17,0,0,0,1.37,1.77c.22.24.58.54.8.78a4.09,4.09,0,0,0,3.88,1.31A3.85,3.85,0,0,0,114.62,117Z"/><path class="cls-24" d="M65.12,198.4c-4.93-1.87-11.18-.64-16.37-.57-4.87,0-9.82-.13-14.65.23-1.25,0-1.79,1.83-1,2.74,3.53,4.31,8.77,4.11,14,4.23,5.6.09,13,1.18,18.16-1.25C67.45,202.57,67.45,199.29,65.12,198.4Z"/><path class="cls-24" d="M80.64,198.34a3.37,3.37,0,0,0-4.24-1.61.77.77,0,0,1-.52.12l-.13,0c-.33,0-.84.15-1.17.18a5.77,5.77,0,0,0-3.12,1.64,2.54,2.54,0,0,0-.34,2.53c1.74,2.85,5.2,2,7.88,1.11C80.63,202.09,81.32,199.85,80.64,198.34Z"/></g><path class="cls-25" d="M302.39-74.54,334.6-46.09a16.74,16.74,0,0,1,2.27,22.64L261.1,76.81l-72.44-64L279.75-74.1A16.74,16.74,0,0,1,302.39-74.54Z"/><path class="cls-26" d="M183.71,8.44l82.35,72.74a1.66,1.66,0,0,1,0,2.5l-10.34,8.75a6.25,6.25,0,0,1-8.15-.08L174.91,28.19a6.23,6.23,0,0,1-1.09-8.07l7.42-11.34A1.65,1.65,0,0,1,183.71,8.44Z"/><path class="cls-27" d="M220.5-17.57l67.13,59.3L316,4.24,254.53-50Z"/><path class="cls-28" d="M183.77,54.18l36.88,32.58a16.49,16.49,0,0,0,21.18.54l-61.2-54.06A16.46,16.46,0,0,0,183.77,54.18Z"/><path class="cls-14" d="M283.64-1.13a1.78,1.78,0,0,1-1.44-.75c-1.8-2.41-4.66-4.18-12.34,1a12.14,12.14,0,0,1-12.2.86c1.41,4.7,8.32,7.18,15.62,5.56C278.11,4.51,281.92,1.9,283.64-1.13Z"/><path class="cls-11" d="M345.89,82l21.18,22.23a10.8,10.8,0,0,1,2.94,8.59q-1.65,15.24-10.79,25.79h0a49.84,49.84,0,0,1-11.51,9.67,10.82,10.82,0,0,1-9,1.09L309.42,140Z"/><g class="cls-29"><path d="M342.19,110.42c-9.23,14.06-23,31.08-33.24,29.4l34.81-60.19L351.5,88A65.69,65.69,0,0,1,342.19,110.42Z"/></g><path class="cls-22" d="M337.8,69.21c14.86,9.32,7,26-5,45-5.83,9.26-11.57,17.4-17.62,22.24h0c-6.42,5.13-13.2,6.57-20.84,1.78a30.44,30.44,0,0,1-13.23-18.91c-2.58-10.44-.67-22.78,6.17-33.66A45.86,45.86,0,0,1,307.9,67.76c.55-.23,1.1-.45,1.65-.65s1.33-.48,2-.7a35,35,0,0,1,11.78-1.61h0A29.33,29.33,0,0,1,337.8,69.21Z"/><g class="cls-30"><path d="M337.8,69.21c14.86,9.32,7,26-5,45s-23.61,33.35-38.46,24a30.41,30.41,0,0,1-13.24-18.91c9.23,12.24,15.46,6.75,20.24-7.23,2.15-5.45,8.86-8.35,15.62-11.32a12.34,12.34,0,0,0,7.08-14.31A26.54,26.54,0,0,0,322,81.06c-1.22-7,6.64-12.25,1.4-16.25h0A29.22,29.22,0,0,1,337.8,69.21Z"/></g><path class="cls-31" d="M342.5,144.41a.75.75,0,0,1-1,.43l-18.74-6.35a.79.79,0,0,1-.49-1,.78.78,0,0,1,1-.49L342,143.38a.76.76,0,0,1,.49,1S342.51,144.4,342.5,144.41Z"/><path class="cls-31" d="M349.06,138.36a.77.77,0,0,1-1,.43l-17.53-7.16a.78.78,0,0,1,.59-1.44l17.53,7.16A.78.78,0,0,1,349.06,138.36Z"/><g class="cls-32"><path class="cls-33" d="M301.71,132.44c-1.35-.84-2.87-.84-3.41,0s.12,2.23,1.47,3.07,2.87.84,3.4,0S303.05,133.28,301.71,132.44Z"/></g><g class="cls-32"><path class="cls-33" d="M321.17,113.7a3,3,0,1,0-3.64,2.14A3,3,0,0,0,321.17,113.7Z"/></g><g class="cls-32"><path class="cls-33" d="M323.68,105.55a1.28,1.28,0,1,0,.21,1.61A1.17,1.17,0,0,0,323.68,105.55Z"/></g><g class="cls-32"><path class="cls-33" d="M317.57,106a.67.67,0,1,1-.93.21A.69.69,0,0,1,317.57,106Z"/></g><g class="cls-32"><path class="cls-33" d="M317.06,89.73a2.66,2.66,0,1,0-3.47,1.44A2.65,2.65,0,0,0,317.06,89.73Z"/></g><g class="cls-32"><path class="cls-33" d="M311.82,82.34a1.19,1.19,0,0,0-1.42-.89,1.18,1.18,0,1,0,1.42.89Z"/></g><g class="cls-32"><path class="cls-33" d="M291.24,110.4a1.53,1.53,0,1,0-1.15,1.83A1.54,1.54,0,0,0,291.24,110.4Z"/></g><rect class="cls-34" x="-56.91" y="-74.47" width="434.9" height="313.12"/><rect class="cls-35" x="192.56" y="17.52" width="197.25" height="37.28" rx="4"/><path class="cls-36" d="M212.5,40.83c3,0,5.14-1.6,5.14-4.17v-.21h-1.91v.21c0,1.65-1,2.51-3.21,2.51-2.51,0-3.73-1.18-3.73-3.86s1.22-3.87,3.73-3.87c2.17,0,3.21.88,3.21,2.51v.23h1.91V34c0-2.56-2.12-4.16-5.14-4.16A5.21,5.21,0,0,0,207,35.31,5.2,5.2,0,0,0,212.5,40.83Zm10.95,0c2.66,0,4.44-1.68,4.44-4.12s-1.78-4.15-4.44-4.15A4.06,4.06,0,0,0,219,36.71C219,39.15,220.81,40.83,223.45,40.83Zm0-1.53c-1.92,0-2.72-.91-2.72-2.59s.8-2.63,2.72-2.63,2.74.93,2.74,2.63S225.39,39.3,223.45,39.3Zm7.9,1.37V36.74c0-1.76.59-2.63,2.3-2.63,1.54,0,2.15.68,2.15,2.24v4.32h1.71V36.74c0-1.76.61-2.63,2.3-2.63,1.54,0,2.16.68,2.16,2.24v4.32h1.71V35.89c0-1.92-1-3.33-3.1-3.33a2.91,2.91,0,0,0-3.12,2.63h-.1a3.07,3.07,0,0,0-6.06-.07h-.1v-2.4h-1.58v8Zm16.09-8.88V30h-1.73v1.84Zm0,8.88v-8h-1.73v8Zm3.81,0V36.74c0-1.73.78-2.63,2.52-2.63s2.32.76,2.32,2.24v4.32h1.73V35.89a3.09,3.09,0,0,0-3.29-3.33,3.15,3.15,0,0,0-3.32,2.63h-.11V32.72h-1.58v8ZM263.3,40c1.81,0,2.88-.86,3.16-2.06h.12v2c0,1.78-.66,2.27-2.47,2.27s-2.37-.43-2.37-1.58H260c0,1.92,1.64,3,4,3,2.61,0,4.27-1.13,4.27-3.8v-7H266.7v2h-.09c-.29-1.4-1.54-2.15-3.2-2.15a3.55,3.55,0,0,0-3.89,3.7A3.48,3.48,0,0,0,263.3,40Zm-2-3.69c0-1.63,1-2.19,2.63-2.19s2.68.68,2.68,2v.22c0,1.41-1,2.15-2.72,2.15S261.27,37.89,261.27,36.26Zm16.81,4.57c3.17,0,4.5-1.5,4.5-3.13s-1.06-2.55-3.2-2.93l-2.61-.45c-1.27-.27-1.81-.57-1.81-1.5s.77-1.44,2.72-1.44c2.22,0,3,.65,3,2v.2h1.71v-.09c0-2.1-1.42-3.67-4.56-3.67-3.33,0-4.61,1.57-4.61,3.12,0,1.76,1.28,2.6,3.09,2.92l2.62.43c1.36.25,1.91.61,1.91,1.53s-.72,1.46-2.77,1.46c-2.35,0-3.1-.64-3.1-1.92v-.26h-1.73v.1C273.25,39.43,274.88,40.83,278.08,40.83Zm10.27,0c2.65,0,4.43-1.68,4.43-4.12s-1.78-4.15-4.43-4.15-4.42,1.67-4.42,4.15S285.7,40.83,288.35,40.83Zm0-1.53c-1.93,0-2.72-.91-2.72-2.59s.79-2.63,2.72-2.63,2.73.93,2.73,2.63S290.28,39.3,288.35,39.3Zm10.23,1.53c2.65,0,4.43-1.68,4.43-4.12s-1.78-4.15-4.43-4.15-4.42,1.67-4.42,4.15S295.93,40.83,298.58,40.83Zm0-1.53c-1.93,0-2.72-.91-2.72-2.59s.79-2.63,2.72-2.63,2.73.93,2.73,2.63S300.51,39.3,298.58,39.3Zm7.89,1.37V36.74c0-1.73.78-2.63,2.53-2.63s2.32.76,2.32,2.24v4.32h1.73V35.89a3.09,3.09,0,0,0-3.3-3.33,3.14,3.14,0,0,0-3.31,2.63h-.11V32.72h-1.59v8Z"/></g></g></svg>