<svg width="335" height="197" viewBox="0 0 335 197" fill="none" xmlns="http://www.w3.org/2000/svg">
<g clip-path="url(#clip0_1659:5288)">
<g clip-path="url(#clip1_1659:5288)">
<path d="M335.43 -1.27002H1.42969V198.73H335.43V-1.27002Z" fill="#14BAD0"/>
<path d="M43.8096 96.1503C51.6696 76.6703 59.5896 57.5403 67.4496 38.0703L86.4496 44.6403C77.1096 62.6403 67.7696 80.7303 58.4496 98.6403C54.0496 97.3603 48.0896 97.3603 43.8096 96.1503Z" fill="#FFBE3A"/>
<path d="M24.5498 84.3804C31.4498 61.3804 43.1198 26.5904 50.0098 3.61035C56.0998 6.21035 62.0098 9.38035 68.0998 11.9704C60.9098 34.3704 47.7898 69.2104 40.5898 91.6104C34.7498 89.7304 30.3898 86.2604 24.5498 84.3804Z" fill="#FFBE3A"/>
<path d="M6.42969 73.6204C10.7497 74.2104 15.0197 74.4704 19.3397 75.0604C26.3397 56.2604 33.5297 37.3704 40.5297 18.5804C35.1397 17.3304 29.6597 15.4004 24.2397 14.1504C18.7497 33.2604 11.7797 54.4604 6.42969 73.6204Z" fill="#FFBE3A"/>
<path d="M-6.7002 76.9006C-5.3502 59.1606 -4.54019 41.5706 -3.19019 23.8306C1.27981 24.4706 6.18981 25.7206 10.6998 26.2206C8.03981 43.5306 5.51981 60.9006 2.85981 78.2206L-6.7002 76.9006Z" fill="#FFBE3A"/>
<path d="M11.0898 88.1904C17.6598 67.8204 24.7998 47.0004 31.3398 26.6304C37.4298 28.7404 43.8898 33.6904 50.0298 35.6304C41.6598 55.1304 33.5198 74.5104 25.1698 94.0004C21.5198 92.3404 14.6598 90.0004 11.0898 88.1904Z" fill="#FFCE45"/>
<path d="M-7.58984 89.6802C-4.42984 69.8202 -1.45985 50.0502 1.60015 29.9902C7.34015 31.6702 14.6002 32.7202 20.4602 34.4502C16.2102 52.6902 12.9702 73.8102 8.87016 92.1002C3.73016 92.0002 -2.44984 89.7402 -7.58984 89.6802Z" fill="#FFCE45"/>
<path d="M32.3398 100.27C38.1998 83.5103 43.5798 66.2703 49.5898 49.5503L63.7498 54.0903C58.0198 70.0003 52.3798 86.0003 46.6598 101.84C42.3198 100.77 36.6598 101.34 32.3398 100.27Z" fill="#FFCE45"/>
<path d="M77.13 81.6603L52.41 136.05L29.53 186.73C29.53 186.73 -2.17 158.05 -39 167.43L-30.11 131.23L-11.2 53.3003C-11.2 53.3003 33.8 87.6703 77.13 81.6603Z" fill="#D21200"/>
<path d="M218.66 167.79V159.18H231.76V156.11H218.66V149.46H232.26V146.35H215.18V167.79H218.66ZM243.92 168.11C249.23 168.11 252.78 164.75 252.78 159.86C252.78 154.97 249.23 151.57 243.92 151.57C238.61 151.57 235.08 154.9 235.08 159.86C235.08 164.82 238.66 168.11 243.9 168.11H243.92ZM243.92 165.04C240.08 165.04 238.48 163.22 238.48 159.86C238.48 156.5 240.08 154.61 243.92 154.61C247.76 154.61 249.39 156.46 249.39 159.86C249.39 163.26 247.77 165 243.9 165L243.92 165.04ZM264.38 168.11C269.69 168.11 273.24 164.75 273.24 159.86C273.24 154.97 269.69 151.57 264.38 151.57C259.07 151.57 255.54 154.9 255.54 159.86C255.54 164.82 259.08 168.11 264.36 168.11H264.38ZM264.38 165.04C260.54 165.04 258.94 163.22 258.94 159.86C258.94 156.5 260.54 154.61 264.38 154.61C268.22 154.61 269.85 156.46 269.85 159.86C269.85 163.26 268.23 165 264.36 165L264.38 165.04ZM283.66 168.11C287.24 168.11 289.58 166.38 290.25 163.22H290.47V167.79H293.66V146.35H290.2V156.21H290.01C289.37 153.52 287.23 151.57 283.45 151.57C278.62 151.57 275.87 154.9 275.87 159.86C275.87 164.82 278.66 168.11 283.66 168.11ZM279.34 159.86C279.34 156.02 281.34 154.7 284.65 154.7C288.2 154.7 290.18 156.37 290.18 159.76V160C290.18 163.32 288.1 164.92 284.71 164.92C281.32 164.92 279.38 163.66 279.38 159.86H279.34Z" fill="white"/>
<path d="M130.93 187.12C129.93 193.79 127.71 213.76 127.21 220.45C89.65 232.82 11.48 199.57 -7.79004 178.17C-5.09004 171.05 0.259963 160.25 5.03996 154.23C41.58 168.88 89.36 185.28 130.93 187.12Z" fill="#680E05"/>
<path d="M129.98 240.44C110.91 246.98 89.8402 246.81 70.0602 242.44C50.2802 238.07 31.7702 229.44 14.0602 219.64C-0.879804 211.15 -13.0598 201.99 -22.7998 187.64C-20.6198 181.9 -17.3098 176.89 -15.1798 171.28C25.3702 205.91 81.7602 231.37 137.72 213C135.07 221.24 132.66 232.21 129.98 240.44Z" fill="#FF971D"/>
<path opacity="0.2" d="M73.7202 233.19C53.9402 228.81 35.4402 220.19 17.7202 210.38C2.86019 202.09 -9.1798 192.98 -18.7998 179.16C-20.1698 181.93 -21.7198 184.78 -22.7998 187.65C-13.0598 201.99 -0.879806 211.15 14.2502 219.55C31.9102 229.55 50.4602 237.98 70.2502 242.35C90.0402 246.72 110.96 246.84 130.17 240.35C131.07 237.56 131.89 234.59 132.76 231.47C113.79 237.74 93.0502 237.54 73.7202 233.19Z" fill="#8C510B"/>
<path d="M125.48 192.41C95.1799 206.27 61.4798 210.54 28.5498 205.73C18.9766 190.468 11.4268 174.028 6.08984 156.82C43.9798 173.7 85.1099 182.88 125.48 192.41Z" fill="#F9C432"/>
<path d="M143.66 199.31C141.85 202.85 137.9 205.42 134.13 204.62C129.63 203.69 127.27 197.95 125.59 193.71C124.76 197.15 123.77 201 120.59 202.44C117.7 203.85 114.06 202.31 111.98 199.96C109.9 197.61 107.87 191.83 106.98 188.69C106.14 194.63 99.7 199.23 93.81 198.25C87.81 197.08 83.46 189.63 84.9 183.76C83.9 188.99 78.05 192.76 72.81 191.69C66.57 190.42 62.32 182.23 60.2 176.26C57.93 178.53 55.61 180.94 52.72 182.35C49.83 183.76 46.26 184.13 43.46 182.44C39.25 179.9 38.19 174.02 35.54 169.89C32.34 172.12 28.79 174.06 24.88 174.45C20.97 174.84 16.72 173.7 14.3 170.59C11.88 167.48 9.07004 162.51 12.18 160.09C6.90544 161.79 1.25177 161.929 -4.09996 160.49C-5.92996 159.95 -8.14996 158.79 -8.20996 156.89C-8.08163 155.958 -7.73937 155.068 -7.20996 154.29C-0.355072 143.709 9.78944 135.677 21.66 131.43C21.98 131.43 22.22 131.17 22.55 131.14C31.33 134 46.16 136.97 54.94 139.83C80.86 148.25 109.2 158.53 136.42 160.24L136.55 160.3C141.466 168.778 144.454 178.236 145.3 188C145.56 191.88 145.44 195.91 143.66 199.31Z" fill="#6FBA20"/>
<path d="M134.33 185.59C130.84 188.18 122.72 187.29 121.78 183.18C121.56 186.18 117.78 187.92 114.86 186.97C111.94 186.02 108.97 182.7 108.53 179.72C107.346 181.569 105.664 183.046 103.677 183.98C101.69 184.914 99.4794 185.268 97.3002 185C93.0202 184.32 88.3002 180.65 87.2202 176.49C86.8295 177.825 85.9456 178.962 84.7478 179.669C83.5501 180.377 82.1281 180.602 80.7702 180.3C78.0102 179.72 75.6302 175.69 76.1502 173.07C75.157 174.41 73.7835 175.419 72.2085 175.967C70.6335 176.514 68.9301 176.575 67.3202 176.14C65.6645 175.621 64.187 174.649 63.0544 173.334C61.9218 172.019 61.1791 170.414 60.9102 168.7C59.486 169.873 57.7984 170.684 55.9923 171.062C54.1862 171.44 52.3153 171.374 50.5402 170.87C47.0102 169.87 44.4202 167.61 43.5902 164.01C37.9302 166.55 28.4502 162.65 26.9802 156.61C26.3399 157.43 25.42 157.985 24.3961 158.17C23.3723 158.354 22.3163 158.155 21.4302 157.61C19.6202 156.61 18.0202 153.81 18.6102 151.84C17.142 152.4 15.5626 152.605 14.0002 152.44C11.0002 151.95 9.12017 148.44 9.74017 145.5C10.1489 144.055 10.9504 142.752 12.0555 141.735C13.1606 140.718 14.5261 140.027 16.0002 139.74C17.5344 136.82 19.3212 134.039 21.3402 131.43C21.6702 131.43 21.9102 131.18 22.2302 131.14C31.0102 134 45.8502 137 54.6602 139.86C80.5702 148.28 108.92 158.56 136.13 160.28C137.805 164.692 138.662 169.371 138.66 174.09C138.98 178.27 137.81 183 134.33 185.59Z" fill="#5D9E1B"/>
<path d="M147.88 175.86C97.8198 176.59 45.7598 160.76 3.7998 132.32C8.7998 110.57 28.4798 91.6001 52.9498 87.7301C77.4198 83.8601 105.23 92.7302 123.56 109.97C141.81 127.07 152.11 154 147.88 175.86Z" fill="#FF981F"/>
<path d="M68.9997 97.4203C67.7797 94.4203 63.9997 93.0003 60.8597 93.7003C60.1394 93.8288 59.4543 94.1081 58.8495 94.52C58.2447 94.9319 57.7339 95.4671 57.3505 96.0903C56.9671 96.7136 56.7198 97.4108 56.6249 98.1364C56.53 98.862 56.5896 99.5994 56.7997 100.3C57.0057 100.99 57.3548 101.628 57.8242 102.174C58.2936 102.719 58.8727 103.16 59.5238 103.467C60.1749 103.773 60.8833 103.939 61.6028 103.954C62.3224 103.968 63.0369 103.831 63.6997 103.55H63.8397C64.1697 103.55 64.4397 103.62 64.6297 103.55C67.9697 103.44 70.2197 100.39 68.9997 97.4203Z" fill="#FFB521"/>
<path d="M64.8701 103.36C65.7901 103.4 65.4701 103.43 64.8701 103.36V103.36Z" fill="#FFB521"/>
<path d="M78.8099 109.12C78.9064 108.775 78.9369 108.416 78.8999 108.06C78.9931 107.41 78.855 106.748 78.5099 106.19C78.5099 105.86 78.4299 106 78.5999 106.38C78.5033 105.843 78.2691 105.339 77.9202 104.919C77.5712 104.499 77.1194 104.177 76.6088 103.984C76.0982 103.79 75.5461 103.732 75.0065 103.816C74.467 103.899 73.9582 104.121 73.5299 104.46C73.9599 104.15 73.9599 104.15 73.7199 104.37C73.1537 104.668 72.6376 105.053 72.1899 105.51C71.9499 105.74 71.7999 106.15 71.5599 106.37C71.1598 106.959 70.9097 107.637 70.8313 108.344C70.7529 109.052 70.8485 109.768 71.1099 110.43C71.3146 110.907 71.6129 111.338 71.987 111.698C72.3611 112.059 72.8035 112.34 73.2881 112.526C73.7727 112.713 74.2898 112.8 74.8088 112.784C75.3277 112.767 75.8381 112.647 76.3099 112.43C76.9635 112.122 77.5326 111.66 77.9681 111.083C78.4036 110.507 78.6925 109.833 78.8099 109.12Z" fill="#FFB521"/>
<path d="M101.39 116.43C101.445 115.993 101.401 115.548 101.26 115.13L101.17 114.94C101.18 114.476 101.088 114.015 100.9 113.59C100.96 113.45 100.82 113.4 100.9 113.26L100.82 113.07C100.568 112.514 100.162 112.042 99.6497 111.71C99.1373 111.379 98.5402 111.202 97.9298 111.2C97.3951 111.118 96.8487 111.154 96.3299 111.308C95.8112 111.462 95.333 111.729 94.9298 112.09C94.2366 112.695 93.7032 113.461 93.377 114.321C93.0508 115.181 92.9419 116.108 93.0598 117.02C93.2274 117.914 93.6772 118.73 94.3432 119.35C95.0092 119.969 95.8562 120.358 96.7598 120.46C97.9076 120.537 99.0392 120.156 99.9069 119.401C100.775 118.646 101.308 117.578 101.39 116.43V116.43Z" fill="#FFB521"/>
<path d="M116.06 115.73C115.79 113.13 112.7 111.8 110.49 111.43C108.28 111.06 106.08 113.98 107.2 115.98C107.573 116.625 108.03 117.217 108.56 117.74C108.78 117.99 109.14 118.28 109.36 118.52C109.837 119.06 110.447 119.465 111.13 119.695C111.813 119.925 112.544 119.972 113.25 119.83C114.125 119.585 114.887 119.04 115.4 118.291C115.914 117.541 116.148 116.635 116.06 115.73Z" fill="#FFB521"/>
<path opacity="0.2" d="M66.5502 197.13C61.6302 195.27 55.3702 196.49 50.1802 196.56C45.3202 196.56 40.3702 196.44 35.5402 196.79C34.2802 196.79 33.7502 198.62 34.5402 199.53C38.0702 203.84 43.3102 203.64 48.5402 203.76C54.1502 203.85 61.5402 204.94 66.7102 202.51C67.2051 202.248 67.6167 201.852 67.8983 201.368C68.18 200.884 68.3204 200.33 68.3038 199.771C68.2871 199.211 68.114 198.667 67.8041 198.2C67.4942 197.733 67.0599 197.363 66.5502 197.13V197.13Z" fill="white"/>
<path opacity="0.2" d="M82.0699 197.07C81.6903 196.322 81.0454 195.743 80.2613 195.445C79.4772 195.147 78.6103 195.153 77.8299 195.46C77.6795 195.559 77.4988 195.602 77.3199 195.58L77.1799 195.53C76.8599 195.53 76.3399 195.68 76.0199 195.71C74.8323 195.92 73.7389 196.493 72.8899 197.35C72.6138 197.704 72.4375 198.125 72.3795 198.57C72.3214 199.015 72.3838 199.467 72.5599 199.88C74.2899 202.73 77.7599 201.88 80.4299 200.99C82.0599 200.82 82.7499 198.58 82.0699 197.07Z" fill="white"/>
<path d="M303.83 -75.8098L336.03 -47.3498C339.193 -44.5578 341.185 -40.6735 341.606 -36.4751C342.027 -32.2767 340.846 -28.0743 338.3 -24.7098L262.54 75.5402L190.09 11.5402L281.18 -75.3598C284.213 -78.2574 288.223 -79.9114 292.417 -79.9947C296.611 -80.0781 300.684 -78.5847 303.83 -75.8098V-75.8098Z" fill="#CE7341"/>
<path d="M185.15 7.17039L267.49 79.9204C267.669 80.0743 267.814 80.2653 267.912 80.4802C268.011 80.6951 268.062 80.9289 268.062 81.1654C268.062 81.4019 268.011 81.6356 267.912 81.8505C267.814 82.0654 267.669 82.2564 267.49 82.4104L257.15 91.1604C256.007 92.1262 254.556 92.6495 253.06 92.6348C251.564 92.6201 250.123 92.0685 249 91.0804L176.37 26.9304C175.248 25.9393 174.52 24.5772 174.32 23.0935C174.119 21.6097 174.46 20.1034 175.28 18.8504L182.66 7.52039C182.789 7.31971 182.96 7.14923 183.161 7.02059C183.362 6.89195 183.588 6.80817 183.825 6.77495C184.061 6.74173 184.302 6.75986 184.53 6.8281C184.759 6.89634 184.97 7.01309 185.15 7.17039V7.17039Z" fill="#8D461E"/>
<path d="M221.93 -18.8298L289.06 40.4602L317.39 3.00019L255.96 -51.2998L221.93 -18.8298Z" fill="#E98A57"/>
<path d="M185.2 52.91L222.09 85.49C224.991 88.0565 228.704 89.5177 232.577 89.6165C236.449 89.7153 240.232 88.4453 243.26 86.03L182.07 32C180.053 35.2981 179.261 39.2007 179.834 43.024C180.406 46.8472 182.306 50.3471 185.2 52.91V52.91Z" fill="#5B2A0F"/>
<path d="M285.08 -2.38994C284.796 -2.39688 284.518 -2.46904 284.266 -2.60083C284.015 -2.73262 283.797 -2.9205 283.63 -3.14994C281.83 -5.55994 278.98 -7.32994 271.29 -2.14994C269.514 -0.939754 267.449 -0.222484 265.306 -0.0713921C263.163 0.0796997 261.018 -0.3408 259.09 -1.28994C260.5 3.41006 267.42 5.90005 274.71 4.27005C279.54 3.24005 283.35 0.630058 285.08 -2.38994Z" fill="white"/>
<path d="M347.32 80.7402L368.5 103C369.595 104.128 370.43 105.48 370.948 106.964C371.467 108.448 371.655 110.026 371.5 111.59C370.4 121.75 366.8 130.347 360.7 137.38C357.358 141.156 353.46 144.4 349.14 147C347.808 147.823 346.313 148.346 344.759 148.534C343.206 148.722 341.629 148.571 340.14 148.09L310.89 138.7L347.32 80.7402Z" fill="#FFBE3A"/>
<g opacity="0.38">
<path opacity="0.38" d="M343.66 109.15C334.44 123.21 320.66 140.23 310.43 138.55L345.24 78.3604L352.97 86.7104C351.289 94.7042 348.131 102.314 343.66 109.15Z" fill="black"/>
</g>
<path d="M339.23 68.0003C354.09 77.3103 346.23 94.0003 334.23 113C328.41 122.27 322.67 130.4 316.61 135.24C310.2 140.37 303.42 141.81 295.78 137.02C289.056 132.699 284.301 125.907 282.54 118.11C279.97 107.67 281.87 95.3403 288.72 84.4503C293.607 76.5167 300.797 70.2619 309.33 66.5204C309.87 66.2904 310.42 66.0703 310.97 65.8703C311.52 65.6703 312.31 65.3903 312.97 65.1803C316.778 63.967 320.767 63.419 324.76 63.5603V63.5603C329.89 63.7465 334.88 65.2777 339.23 68.0003V68.0003Z" fill="#FF981F"/>
<g opacity="0.11">
<path opacity="0.11" d="M339.23 68.0003C354.09 77.3103 346.23 94.0003 334.23 113C322.23 132 310.63 146.35 295.77 137C289.046 132.679 284.291 125.887 282.53 118.09C291.77 130.33 297.99 124.84 302.77 110.86C304.93 105.41 311.64 102.51 318.4 99.5403C321.081 98.3792 323.264 96.3054 324.56 93.6872C325.856 91.0691 326.182 88.0762 325.48 85.2403C324.978 83.357 324.267 81.5357 323.36 79.8103C322.14 72.8103 330.01 67.5503 324.76 63.5503C329.891 63.7343 334.883 65.2694 339.23 68.0003V68.0003Z" fill="black"/>
</g>
<path opacity="0.15" d="M343.94 143.14C343.865 143.33 343.717 143.482 343.53 143.565C343.343 143.647 343.132 143.652 342.94 143.58L324.21 137.22C324.114 137.188 324.025 137.137 323.948 137.071C323.871 137.004 323.808 136.923 323.762 136.832C323.717 136.741 323.69 136.642 323.683 136.54C323.675 136.439 323.688 136.337 323.72 136.24C323.753 136.144 323.803 136.054 323.87 135.978C323.937 135.901 324.018 135.838 324.109 135.792C324.2 135.747 324.299 135.72 324.401 135.712C324.502 135.705 324.604 135.718 324.7 135.75L343.44 142.11C343.54 142.142 343.631 142.193 343.71 142.261C343.789 142.329 343.853 142.412 343.899 142.505C343.945 142.599 343.971 142.701 343.977 142.805C343.982 142.909 343.966 143.013 343.93 143.11L343.94 143.14Z" fill="#650000"/>
<path opacity="0.15" d="M350.5 137.1C350.42 137.286 350.271 137.434 350.084 137.512C349.898 137.591 349.688 137.593 349.5 137.52L331.97 130.36C331.798 130.27 331.666 130.12 331.599 129.938C331.532 129.757 331.535 129.557 331.607 129.377C331.68 129.198 331.816 129.051 331.99 128.967C332.164 128.882 332.364 128.866 332.55 128.92L350.08 136.09C350.174 136.128 350.259 136.185 350.332 136.257C350.404 136.328 350.461 136.414 350.5 136.507C350.539 136.601 350.559 136.702 350.559 136.804C350.559 136.905 350.539 137.006 350.5 137.1V137.1Z" fill="#650000"/>
<g opacity="0.3">
<path opacity="0.3" d="M303.14 131.17C301.8 130.33 300.27 130.33 299.74 131.17C299.21 132.01 299.86 133.39 301.2 134.23C302.54 135.07 304.07 135.07 304.61 134.23C305.15 133.39 304.49 132 303.14 131.17Z" fill="#650000"/>
</g>
<g opacity="0.3">
<path opacity="0.3" d="M322.66 112.43C322.812 111.855 322.79 111.248 322.596 110.686C322.403 110.124 322.047 109.632 321.573 109.273C321.099 108.913 320.529 108.703 319.936 108.668C319.342 108.633 318.752 108.775 318.239 109.076C317.727 109.378 317.315 109.825 317.057 110.36C316.799 110.896 316.706 111.496 316.79 112.085C316.873 112.673 317.13 113.224 317.527 113.666C317.924 114.109 318.444 114.423 319.02 114.57C319.786 114.765 320.599 114.65 321.28 114.249C321.962 113.848 322.458 113.194 322.66 112.43V112.43Z" fill="#650000"/>
</g>
<g opacity="0.3">
<path opacity="0.3" d="M325.11 104.28C324.838 104.15 324.525 104.13 324.238 104.225C323.95 104.32 323.711 104.523 323.57 104.79C323.385 105.032 323.303 105.337 323.343 105.638C323.382 105.94 323.539 106.214 323.78 106.4C324.053 106.531 324.366 106.55 324.653 106.455C324.94 106.36 325.179 106.158 325.32 105.89C325.505 105.649 325.587 105.343 325.548 105.042C325.509 104.74 325.351 104.466 325.11 104.28Z" fill="#650000"/>
</g>
<g opacity="0.3">
<path opacity="0.3" d="M319 104.7C319.076 104.745 319.141 104.805 319.194 104.876C319.246 104.947 319.283 105.028 319.304 105.114C319.324 105.2 319.328 105.289 319.313 105.376C319.299 105.463 319.267 105.546 319.22 105.62C319.172 105.695 319.111 105.76 319.039 105.811C318.966 105.862 318.885 105.898 318.798 105.918C318.712 105.937 318.623 105.94 318.535 105.925C318.448 105.91 318.365 105.878 318.29 105.83C318.215 105.783 318.15 105.721 318.099 105.649C318.048 105.577 318.012 105.495 317.992 105.409C317.973 105.322 317.97 105.233 317.985 105.146C318 105.059 318.032 104.975 318.08 104.9C318.127 104.826 318.188 104.762 318.259 104.712C318.331 104.661 318.412 104.626 318.498 104.607C318.583 104.589 318.672 104.587 318.758 104.603C318.844 104.619 318.926 104.652 319 104.7V104.7Z" fill="#650000"/>
</g>
<g opacity="0.3">
<path opacity="0.3" d="M318.5 88.46C318.702 87.9717 318.754 87.4344 318.651 86.9163C318.547 86.3981 318.292 85.9223 317.918 85.5491C317.544 85.1759 317.067 84.9222 316.549 84.82C316.03 84.7177 315.493 84.7717 315.005 84.9749C314.518 85.1782 314.101 85.5216 313.809 85.9617C313.516 86.4018 313.361 86.9188 313.362 87.4472C313.364 87.9757 313.522 88.4918 313.817 88.9302C314.112 89.3686 314.531 89.7096 315.02 89.91C315.343 90.0441 315.69 90.1129 316.04 90.1126C316.391 90.1122 316.737 90.0427 317.061 89.908C317.384 89.7733 317.678 89.576 317.925 89.3275C318.172 89.079 318.367 88.7842 318.5 88.46V88.46Z" fill="#650000"/>
</g>
<g opacity="0.3">
<path opacity="0.3" d="M313.25 81.07C313.176 80.7657 312.987 80.5023 312.721 80.3361C312.456 80.1698 312.136 80.1138 311.83 80.18C311.678 80.2142 311.534 80.2782 311.407 80.3682C311.28 80.4582 311.172 80.5725 311.089 80.7046C311.007 80.8366 310.951 80.9837 310.925 81.1374C310.9 81.2911 310.905 81.4483 310.94 81.6C311.014 81.9043 311.204 82.1677 311.469 82.3339C311.734 82.5002 312.054 82.5562 312.36 82.49C312.512 82.4558 312.656 82.3918 312.783 82.3018C312.91 82.2118 313.018 82.0974 313.101 81.9654C313.184 81.8334 313.24 81.6863 313.265 81.5326C313.291 81.3789 313.286 81.2217 313.25 81.07V81.07Z" fill="#650000"/>
</g>
<g opacity="0.3">
<path opacity="0.3" d="M292.66 109.13C292.567 108.734 292.322 108.391 291.977 108.176C291.632 107.961 291.216 107.89 290.82 107.98C290.623 108.022 290.437 108.104 290.272 108.219C290.107 108.335 289.967 108.482 289.859 108.653C289.752 108.823 289.68 109.014 289.648 109.212C289.615 109.411 289.623 109.614 289.67 109.81C289.76 110.208 290.005 110.554 290.35 110.771C290.695 110.989 291.112 111.06 291.51 110.97C291.908 110.88 292.253 110.635 292.471 110.29C292.689 109.945 292.76 109.528 292.67 109.13H292.66Z" fill="#650000"/>
</g>
</g>
</g>
<defs>
<clipPath id="clip0_1659:5288">
<rect width="335" height="197" fill="white"/>
</clipPath>
<clipPath id="clip1_1659:5288">
<rect width="410.5" height="325.56" fill="white" transform="translate(-42 -80)"/>
</clipPath>
</defs>
</svg>
