<svg width="335" height="197" viewBox="0 0 335 197" fill="none" xmlns="http://www.w3.org/2000/svg">
<g clip-path="url(#clip0_1659:5289)">
<path d="M334.277 -1.04395H0.277344V198.956H334.277V-1.04395Z" fill="#ABDCFF"/>
<path d="M61.8772 142.656C46.8772 153.856 24.2772 136.356 4.17722 109.156C-15.9228 81.9561 -27.2228 56.1561 -11.3228 44.2561C4.37722 32.5561 26.2772 50.5561 46.3772 77.7561C66.6772 104.976 77.4772 131.056 61.8772 142.656Z" fill="#F8B639"/>
<path d="M4.03711 71.2561C12.0371 67.5561 20.6371 60.356 26.6371 54.856C24.5371 52.856 22.4371 51.0561 20.4371 49.4561C16.5771 59.7561 4.03711 71.2561 4.03711 71.2561Z" fill="#F1D368"/>
<path d="M41.577 71.256C39.577 68.656 37.377 66.256 35.377 63.856C29.877 75.256 13.877 87.756 13.877 87.756C23.377 84.356 34.037 76.976 41.577 71.256Z" fill="#F1D368"/>
<path d="M25.4775 105.056C35.4775 102.056 46.7775 95.4561 54.8775 90.1561C53.0775 87.4561 51.2775 84.6561 49.3775 81.9561C42.7775 93.3561 25.4775 105.056 25.4775 105.056Z" fill="#F1D368"/>
<path d="M65.3772 109.656C64.5772 107.456 63.4772 105.056 62.3772 102.756C53.9772 111.356 40.5771 118.556 40.5771 118.556C48.5771 117.256 57.8772 113.456 65.3772 109.656Z" fill="#F1D368"/>
<path d="M23.4778 151.156C8.47781 162.356 -14.1222 144.856 -34.2222 117.656C-54.3222 90.4561 -65.6222 64.6561 -49.7222 52.7561C-34.0222 41.0561 -12.1222 59.0561 7.97781 86.2561C28.2778 113.456 39.0378 139.556 23.4778 151.156Z" fill="#EA7E1B"/>
<path d="M3.17754 79.756C1.17754 77.156 -1.02246 74.756 -3.02246 72.356C-8.52246 83.756 -24.5225 96.256 -24.5225 96.256C-14.9625 92.856 -4.22246 85.456 3.17754 79.756Z" fill="#F1D368"/>
<path d="M-12.9629 113.556C-2.96289 110.556 8.33711 103.956 16.4371 98.6561C14.6371 95.9561 12.8371 93.1561 10.9371 90.4561C4.47711 101.856 -12.9629 113.556 -12.9629 113.556Z" fill="#F1D368"/>
<path d="M27.0373 118.156C26.2373 115.956 25.1373 113.556 24.0373 111.256C15.6373 119.856 2.2373 127.056 2.2373 127.056C10.1773 125.756 19.4773 121.976 27.0373 118.156Z" fill="#F1D368"/>
<path d="M96.2771 98.4558C97.1771 94.4558 96.4771 88.0558 93.8771 82.1558C92.1805 78.2221 91.626 73.89 92.2771 69.6558L93.1771 69.8558L93.8771 67.0558L93.0371 66.9758L93.4371 65.3758L94.3371 65.5758L95.0371 62.7758C95.2371 61.8758 91.4371 59.9758 86.4371 58.6758C81.4371 57.3758 77.2371 56.8758 76.8371 57.6758L76.1371 60.4758L77.0371 60.6758L76.6371 62.2758L75.7371 62.0758L75.0371 64.8758L75.9371 65.0758C74.3142 69.0132 71.61 72.4108 68.1371 74.8758C62.7371 78.5758 58.9371 83.6758 57.6371 87.5758C57.6371 87.6758 57.6371 87.6758 57.5371 87.8758L40.8371 147.876C40.1371 150.676 48.0371 155.376 58.8371 158.376C69.6371 161.376 78.9371 161.476 79.7371 158.676L96.2771 98.4558Z" fill="#74A3FF"/>
<path d="M92.5774 97.9759C93.1186 94.5535 92.8095 91.0506 91.6774 87.7759C83.8884 83.9977 75.4923 81.6279 66.8774 80.7759C63.7774 83.6759 61.6774 86.7759 60.9774 89.0759V89.1759L45.0374 146.456C44.7374 147.656 49.6374 151.456 59.8374 154.256C70.0374 157.056 76.3374 156.356 76.6374 155.256C76.5374 155.456 92.4374 98.0559 92.5374 97.9559L92.5774 97.9759Z" fill="#EDEDED"/>
<path d="M76.7773 61.3557C76.7773 61.3557 76.9773 60.4557 85.1773 62.6557C93.3773 64.8557 93.0773 65.8557 93.0773 65.8557L93.2773 64.9557C93.2773 64.9557 93.5773 63.9557 85.2773 61.5557C77.3773 59.3557 76.9773 60.3557 76.9773 60.3557L76.7773 61.3557Z" fill="#4B72FF"/>
<path d="M75.377 65.8561C75.377 65.8561 75.7769 65.0561 84.077 67.2561C92.377 69.4561 92.277 70.5561 92.277 70.5561L92.377 69.6561C92.377 69.6561 92.677 68.6561 84.177 66.2561C76.177 63.9561 75.777 64.9561 75.777 64.9561L75.377 65.8561Z" fill="#4B72FF"/>
<path d="M-92.6226 82.1558L-98.9626 158.456C-99.5626 167.356 -92.8626 176.456 -84.4626 178.656L38.5374 211.056C47.1374 213.356 57.3374 208.656 61.1374 200.556L93.1374 131.056L-92.6226 82.1558Z" fill="#F17B6B"/>
<path d="M85.777 129.156L56.877 191.656C53.077 199.756 42.777 204.356 34.277 202.156L-88.723 169.756C-92.3857 168.686 -95.654 166.565 -98.123 163.656C-97.2918 167.188 -95.5399 170.436 -93.0457 173.071C-90.5515 175.706 -87.4038 177.633 -83.923 178.656L39.077 211.056C47.677 213.356 57.877 208.656 61.677 200.556L93.677 131.056L85.777 128.956V129.156Z" fill="#F17B6B"/>
<path d="M-94.4229 99.3558L86.6772 147.056L93.4772 131.156L-92.6229 82.1558L-94.4229 99.3558Z" fill="#F17B6B"/>
<path d="M99.0377 124.856L-94.1223 73.9761L-98.8223 91.7761L94.3777 142.676L99.0377 124.856Z" fill="#D35F50"/>
<g opacity="0.22">
<path opacity="0.22" d="M54.2773 148.256L64.1773 150.856L67.2773 143.856L56.1773 140.956L54.2773 148.256Z" fill="white"/>
<path opacity="0.22" d="M34.8777 135.256L23.0777 132.156L21.1777 139.456L32.9777 142.556L34.8777 135.256Z" fill="white"/>
<path opacity="0.22" d="M1.47735 126.556L-10.3227 123.456L-12.2227 130.756L-0.422653 133.856L1.47735 126.556Z" fill="white"/>
<path opacity="0.22" d="M43.377 171.356L53.477 174.056L56.377 167.056L45.277 164.156L43.377 171.356Z" fill="white"/>
<path opacity="0.22" d="M26.277 158.976L14.277 155.776L12.377 163.076L24.377 166.276L26.277 158.976Z" fill="white"/>
<path opacity="0.22" d="M32.7773 193.556L42.6773 196.156L45.7773 189.156L34.6773 186.256L32.7773 193.556Z" fill="white"/>
<path opacity="0.22" d="M14.3771 180.856L4.97715 178.356L3.07715 185.656L12.4771 188.156L14.3771 180.856Z" fill="white"/>
</g>
<g opacity="0.25">
<path opacity="0.25" d="M97.3774 130.756L98.8774 124.856L-1.52261 114.256L-5.92261 110.756C-5.92261 110.756 -6.32261 116.256 3.67739 118.956C13.4774 121.556 15.9774 122.156 15.9774 122.156L97.3774 130.756Z" fill="black"/>
</g>
<path d="M105.978 108.656L35.6775 102.456L11.4775 100.356L2.87753 99.656C-1.42247 99.356 -5.12246 102.056 -5.52246 105.856L-5.82246 109.556C-6.22246 113.356 -2.82246 116.756 1.37754 117.056L9.97754 117.756L34.1775 119.856L104.478 126.056L105.978 108.656Z" fill="#F17B6B"/>
<path d="M6.17777 109.256C5.94999 110.095 5.4784 110.849 4.82262 111.42C4.16684 111.992 3.35629 112.356 2.49343 112.468C1.63056 112.579 0.754105 112.432 -0.0251591 112.045C-0.804423 111.658 -1.45152 111.049 -1.88466 110.294C-2.31781 109.54 -2.51755 108.674 -2.45865 107.806C-2.39976 106.938 -2.08486 106.107 -1.55377 105.418C-1.02268 104.729 -0.29922 104.212 0.525157 103.934C1.34953 103.656 2.23783 103.629 3.07777 103.856C4.18817 104.187 5.12898 104.932 5.70587 105.937C6.28277 106.942 6.4517 108.13 6.17777 109.256Z" fill="#F17B6B"/>
<path d="M141.477 168.356C145.677 168.356 148.377 166.556 149.277 163.356H149.477V167.976H152.577V157.076H141.177V159.676H149.037V159.976C149.037 163.576 147.037 164.976 141.937 164.976C136.837 164.976 134.437 162.576 134.437 157.276C134.437 151.976 136.937 149.576 142.037 149.576C146.437 149.576 148.637 151.276 148.637 154.276V154.576H152.437V154.276C152.437 149.276 148.237 146.276 142.137 146.276C135.337 146.276 130.737 150.676 130.737 157.276C130.737 163.876 135.177 168.356 141.477 168.356ZM159.977 167.956V159.056C159.977 156.256 161.077 154.656 163.777 154.656C166.177 154.656 167.077 155.756 167.077 157.956V159.356H170.477V157.256C170.477 154.256 168.877 151.656 165.277 151.656C163.946 151.575 162.635 152.007 161.613 152.862C160.59 153.718 159.933 154.932 159.777 156.256H159.577V151.976H156.377V167.976L159.977 167.956ZM181.877 168.356C187.177 168.356 190.777 164.956 190.777 160.056C190.777 155.156 187.177 151.756 181.877 151.756C176.577 151.756 173.077 155.056 173.077 160.056C173.077 165.056 176.577 168.356 181.877 168.356ZM181.877 165.256C178.077 165.256 176.477 163.456 176.477 160.056C176.477 156.656 178.077 154.856 181.877 154.856C185.677 154.856 187.377 156.756 187.377 160.056C187.377 163.356 185.677 165.256 181.877 165.256ZM202.177 168.356C206.977 168.356 210.477 165.656 210.477 161.656V161.256H207.037V161.456C207.037 163.956 205.237 165.156 202.137 165.156C198.537 165.156 196.937 163.456 196.937 159.956C196.937 156.456 198.537 154.756 202.137 154.756C205.237 154.756 207.037 155.956 207.037 158.456V158.656H210.437V158.356C210.437 154.356 206.937 151.656 202.137 151.656C196.937 151.656 193.437 154.956 193.437 159.956C193.437 164.956 196.977 168.356 202.177 168.356ZM221.977 168.356C226.677 168.356 230.077 166.056 230.077 162.656V162.356H226.577V162.656C226.577 164.556 225.177 165.656 221.877 165.656C218.177 165.656 216.677 164.056 216.577 160.956H230.037C230.124 160.461 230.157 159.958 230.137 159.456C230.137 154.656 226.737 151.856 221.837 151.856C216.637 151.856 213.237 155.156 213.237 160.156C213.377 165.356 216.777 168.356 221.977 168.356ZM221.877 154.456C225.277 154.456 226.977 155.856 226.977 158.856V158.956H216.677C216.777 156.056 218.377 154.456 221.877 154.456ZM237.177 167.956V159.056C237.177 156.256 238.277 154.656 240.977 154.656C243.377 154.656 244.277 155.756 244.277 157.956V159.356H247.677V157.256C247.677 154.256 246.077 151.656 242.477 151.656C241.147 151.575 239.835 152.007 238.813 152.862C237.79 153.718 237.133 154.932 236.977 156.256H236.777V151.976H233.577V167.976L237.177 167.956ZM254.377 150.256V146.556H250.877V150.256H254.377ZM254.377 167.956V152.056H250.877V167.976L254.377 167.956ZM266.577 168.356C271.277 168.356 274.677 166.056 274.677 162.656V162.356H271.177V162.656C271.177 164.556 269.777 165.656 266.477 165.656C262.777 165.656 261.277 164.056 261.177 160.956H274.677C274.764 160.461 274.797 159.958 274.777 159.456C274.777 154.656 271.377 151.856 266.477 151.856C261.277 151.856 257.877 155.156 257.877 160.156C257.877 165.356 261.377 168.356 266.577 168.356V168.356ZM266.477 154.456C269.877 154.456 271.577 155.856 271.577 158.856V158.956H261.277C261.377 156.056 262.877 154.456 266.477 154.456V154.456ZM285.877 168.356C290.377 168.356 293.277 166.556 293.277 163.656C293.277 161.056 291.577 159.756 287.777 159.256L284.077 158.756C281.677 158.456 281.077 157.956 281.077 156.756C281.077 155.256 282.077 154.656 284.977 154.656C288.477 154.656 289.477 155.656 289.477 157.556V157.756H292.877V157.656C292.877 153.856 289.977 151.956 285.077 151.956C280.177 151.956 277.677 153.956 277.677 156.756C277.677 159.556 279.477 160.656 282.477 161.056L286.877 161.656C289.177 161.956 289.877 162.356 289.877 163.656C289.877 164.956 288.977 165.656 285.877 165.656C282.577 165.656 281.277 164.956 281.277 162.856V162.556H277.777V162.656C277.777 166.356 280.777 168.356 285.877 168.356V168.356Z" fill="#172F63"/>
<path d="M360.878 194.256L453.178 75.1561L353.178 -9.02393L262.478 98.7761L360.878 194.256Z" fill="#D4C9AF"/>
<path d="M318.378 33.6558C334.378 41.0558 342.978 38.9557 351.278 26.9557C358.978 15.7557 356.078 4.95575 345.078 -5.04425C335.778 -13.6442 325.078 -9.44425 316.378 3.15575C308.038 15.4558 305.478 27.6558 318.378 33.6558Z" fill="#DA3A2A"/>
<path opacity="0.34" d="M322.477 -0.243936C320.477 1.21568 318.779 3.04958 317.477 5.15606C314.777 9.25606 313.877 11.7561 314.877 12.2561C315.877 12.7561 319.277 9.35606 321.177 5.65606C323.077 1.95606 324.477 -0.343936 322.477 -0.243936Z" fill="#801112"/>
<path d="M305.478 6.35566C305.952 5.48611 306.487 4.65074 307.078 3.85566C306.278 3.95566 305.678 4.15566 305.778 3.95566C305.878 3.75566 303.978 -0.144335 308.878 0.555665C313.678 1.05567 319.678 5.35566 319.678 5.35566C319.678 5.35566 321.078 6.25566 320.978 6.45566C320.67 7.12112 320.301 7.75709 319.878 8.35566C317.623 6.41438 314.955 5.01225 312.078 4.25567C310.93 3.99095 309.756 3.85676 308.578 3.85566C307.446 4.56018 306.624 5.6682 306.278 6.95566C305.378 9.45566 305.578 10.1557 305.678 11.0557C305.978 11.8557 304.878 11.4557 304.778 11.2557C304.378 11.0557 304.478 8.35566 305.478 6.35566Z" fill="#222222"/>
<path d="M304.978 9.45581C305.078 9.05581 305.278 8.45581 305.378 8.05581C305.684 7.002 306.051 5.96692 306.478 4.95581C306.578 4.85581 306.778 3.95581 306.978 3.85581C306.178 3.95581 305.578 4.15581 305.678 3.95581C305.623 3.82964 305.594 3.69347 305.594 3.55581C305.594 3.41815 305.623 3.28198 305.678 3.15581C308.195 2.3647 310.905 2.43507 313.378 3.35581C315.378 4.05581 317.278 5.55581 319.478 5.75581C319.579 5.75064 319.678 5.72057 319.765 5.66826C319.852 5.61594 319.925 5.54298 319.978 5.45581C320.229 5.70574 320.496 5.93954 320.778 6.15581C320.469 6.82127 320.101 7.45724 319.678 8.05581C317.423 6.11453 314.755 4.71239 311.878 3.95581C310.73 3.69109 309.556 3.55691 308.378 3.55581C307.273 4.28958 306.46 5.38605 306.078 6.65581C305.178 9.15581 305.378 9.85581 305.478 10.7558C305.678 11.1558 305.378 11.1558 305.078 11.1558C304.919 10.6035 304.885 10.0229 304.978 9.45581V9.45581Z" fill="#222222"/>
<path d="M305.277 8.25582C305.277 8.25582 311.277 13.3558 307.277 21.8558C303.277 30.3558 300.377 31.1558 300.377 31.1558C300.377 31.1558 295.378 28.4558 296.178 20.7558C296.978 13.0558 299.777 7.15582 305.277 8.25582Z" fill="#A89B2E"/>
<path d="M302.178 25.8557C302.678 23.5557 303.778 21.1557 303.978 18.5557C304.144 17.4587 304.11 16.3405 303.878 15.2557C304.452 12.9015 304.621 10.4666 304.378 8.05566C304.678 8.05566 304.778 8.15566 305.078 8.15566C305.078 8.15566 311.078 13.2557 307.078 21.7557C303.678 28.9557 301.178 30.7557 300.478 31.0557C301.369 29.4461 301.946 27.6813 302.178 25.8557Z" fill="#918628"/>
<path opacity="0.34" d="M346.877 27.1559C351.477 21.6559 354.877 11.9559 355.077 15.3559C355.177 16.4559 355.377 16.6559 354.777 19.9559C354.005 22.5163 352.786 24.9199 351.177 27.0559C342.777 38.9559 334.177 41.2559 318.277 33.7559C313.577 31.5559 311.077 28.6559 309.877 25.1559C313.4 26.9664 317.042 28.5367 320.777 29.8559C326.777 31.6559 341.577 33.2559 346.877 27.1559Z" fill="#801112"/>
<path d="M263.977 29.3559C281.177 35.4559 320.077 47.5559 344.077 51.5559C348.077 52.1559 353.177 36.7559 347.777 35.4559C324.477 29.7559 289.377 26.2559 266.277 25.7559C263.377 25.8559 261.277 28.5559 263.977 29.3559Z" fill="#EE9B38"/>
<path d="M264.037 28.4558C281.737 34.7558 322.437 44.5558 346.837 48.5558C347.26 48.6007 347.685 48.4944 348.037 48.2558C346.937 50.3558 345.437 51.8558 344.237 51.6558C320.237 47.6558 281.137 35.7558 264.137 29.4558C262.677 28.9758 262.037 27.4558 264.037 28.4558Z" fill="#EE9B38"/>
<path d="M305.277 28.4559C305.297 29.9844 305.06 31.5056 304.577 32.9559C304.377 33.7559 303.377 33.4559 303.777 32.7559C304.212 31.2943 304.448 29.7806 304.477 28.2559C304.721 28.3935 304.997 28.4627 305.277 28.4559V28.4559Z" fill="#DA7136"/>
<path d="M311.277 30.9758C311.434 30.3866 311.534 29.7839 311.577 29.1758C311.877 29.1758 312.277 29.2758 312.477 29.1758C312.434 29.7839 312.334 30.3866 312.177 30.9758C312.177 31.9758 311.037 31.8558 311.277 30.9758Z" fill="#DA7136"/>
<path d="M318.577 30.3558C318.377 32.2558 317.877 34.0558 317.577 35.8558C317.377 36.6558 316.577 36.5558 316.777 35.6558C317.312 33.8648 317.647 32.0203 317.777 30.1558C317.913 30.0914 318.067 30.0762 318.213 30.1127C318.359 30.1491 318.487 30.2351 318.577 30.3558V30.3558Z" fill="#DA7136"/>
<path d="M323.777 41.7557C323.977 42.6557 323.377 43.6557 322.877 44.5557C322.377 45.1557 321.777 44.4557 322.277 43.8557C322.477 43.5557 322.977 42.9557 322.877 42.3557C322.877 41.4557 323.777 40.9757 323.777 41.7557Z" fill="#DA7136"/>
<path d="M322.677 33.7561C322.532 35.2175 322.23 36.659 321.777 38.0561C321.377 38.7561 320.577 38.3561 320.977 37.6561C321.417 36.4955 321.719 35.2872 321.877 34.0561C321.777 33.0561 322.577 32.9761 322.677 33.7561Z" fill="#DA7136"/>
<path d="M313.277 34.3557C313.243 36.4055 312.58 38.3954 311.377 40.0557C310.877 40.6557 310.277 39.9557 310.777 39.3557C311.834 37.9901 312.334 36.2751 312.177 34.5557C312.277 33.8557 313.177 33.5557 313.277 34.3557Z" fill="#DA7136"/>
<path d="M284.877 26.7559C284.779 27.9975 284.475 29.2142 283.977 30.3559C283.577 31.0559 282.777 30.6559 283.177 29.9559C283.657 28.9582 283.896 27.8625 283.877 26.7559C284.203 26.6556 284.552 26.6556 284.877 26.7559V26.7559Z" fill="#DA7136"/>
<path d="M297.277 27.7557C297.247 29.019 297.011 30.2689 296.577 31.4557C296.177 32.1557 295.377 31.7557 295.777 31.0557C296.264 30.0277 296.471 28.8893 296.377 27.7557C296.877 27.6557 297.037 27.6557 297.277 27.7557Z" fill="#DA7136"/>
<path d="M275.377 26.0557C275.237 27.0967 274.933 28.1091 274.477 29.0557C274.077 29.7557 273.277 29.3557 273.677 28.6557C274.127 27.8985 274.368 27.0361 274.377 26.1557C274.877 26.1557 275.177 26.0557 275.377 26.0557Z" fill="#DA7136"/>
<path d="M300.877 33.3556C300.625 35.3622 299.98 37.2992 298.977 39.0556C298.577 39.7556 297.777 39.3556 298.177 38.6556C299.04 37.0689 299.615 35.3424 299.877 33.5556C300.037 32.9756 300.977 32.6556 300.877 33.3556Z" fill="#DA7136"/>
<path d="M292.977 34.7557C293.077 34.0557 293.977 33.8557 293.877 34.5557C293.747 35.975 293.375 37.3616 292.777 38.6557C292.377 38.5557 292.277 38.4557 291.777 38.3557C292.443 37.261 292.853 36.0306 292.977 34.7557Z" fill="#DA7136"/>
<path d="M306.877 38.8557C307.077 38.0557 308.077 38.3557 307.677 39.0557C307.377 40.3139 306.906 41.5251 306.277 42.6557C305.877 42.5557 305.777 42.4557 305.377 42.3557C305.955 41.224 306.456 40.0547 306.877 38.8557V38.8557Z" fill="#DA7136"/>
<path d="M287.977 30.8556C287.977 30.0556 288.977 29.9556 288.877 30.6556C288.893 32.9451 288.193 35.1824 286.877 37.0556C286.477 36.9556 286.377 36.8556 285.877 36.7556C287.255 35.1007 288 33.0092 287.977 30.8556Z" fill="#DA7136"/>
<path d="M328.678 31.7559C328.67 34.0396 328.158 36.2933 327.178 38.3559C326.778 39.0559 325.978 38.6559 326.378 37.9559C327.195 35.9845 327.669 33.8874 327.778 31.7559C328.075 31.7044 328.38 31.7044 328.678 31.7559V31.7559Z" fill="#DA7136"/>
<path d="M278.977 29.8559C279.177 29.0559 279.977 29.1559 279.777 30.0559C279.5 31.5913 278.847 33.0342 277.877 34.2559C277.477 34.1559 277.377 34.0559 276.877 33.9559C277.996 32.8483 278.732 31.4117 278.977 29.8559V29.8559Z" fill="#DA7136"/>
<path d="M269.977 28.856C270.377 28.156 271.177 28.556 270.777 29.256C270.392 30.0114 270.122 30.8205 269.977 31.656C269.577 31.556 269.477 31.456 269.077 31.356C269.284 30.4919 269.586 29.6535 269.977 28.856V28.856Z" fill="#DA7136"/>
<path d="M334.877 43.4557C334.84 44.7335 334.383 45.9635 333.577 46.9557C333.077 47.5557 332.477 46.8557 332.977 46.2557C333.524 45.5328 333.837 44.661 333.877 43.7557C333.977 42.7557 335.037 42.6557 334.877 43.4557Z" fill="#DA7136"/>
<path d="M337.178 33.356C337.052 34.7568 336.644 36.1176 335.978 37.356C335.578 38.056 334.878 37.256 335.378 36.656C335.977 35.5825 336.32 34.3844 336.378 33.156C336.514 33.0971 336.667 33.0848 336.811 33.1209C336.956 33.157 337.085 33.2396 337.178 33.356V33.356Z" fill="#DA7136"/>
<path d="M316.778 41.856C317.178 41.156 317.978 41.556 317.578 42.256C317.172 43.3157 316.704 44.3508 316.178 45.356C315.778 45.256 315.678 45.156 315.178 45.056C315.81 44.0418 316.346 42.9704 316.778 41.856V41.856Z" fill="#DA7136"/>
<path d="M328.878 42.2558C329.078 41.4558 329.878 41.5558 329.678 42.4558C329.245 44.5382 328.394 46.5113 327.178 48.2558C326.829 48.2165 326.49 48.1149 326.178 47.9558C327.453 46.2576 328.372 44.3186 328.878 42.2558V42.2558Z" fill="#DA7136"/>
<path d="M236.678 69.5557L236.878 73.5557C236.878 73.5557 240.578 78.8557 244.278 79.8557C248.078 80.4557 253.378 82.9557 262.878 78.2557C282.678 68.1557 302.378 39.5557 302.178 37.8557C301.778 36.0557 294.378 43.6557 290.378 47.6557C286.178 51.7557 278.378 60.7557 267.978 63.1557C257.578 65.5557 250.078 65.0557 245.378 66.3557C240.278 67.5557 237.478 68.8557 236.678 69.5557Z" fill="#F8BB47"/>
<path d="M305.378 25.7557C305.378 25.7557 309.378 36.4557 310.078 39.2557C310.778 42.0557 309.878 59.0557 296.778 70.7557C283.678 82.4557 281.978 83.2557 278.678 84.3557C274.678 85.7557 270.478 87.2557 270.078 87.9557C269.678 88.6557 267.878 93.4557 271.078 95.6557C274.278 97.8557 287.778 101.156 301.378 91.5557C313.778 82.7557 326.678 70.3557 327.078 55.5557C327.478 40.7557 322.178 36.5557 319.178 35.0557C316.178 33.5557 312.878 30.7557 312.278 29.2557C311.678 27.7557 311.078 22.6557 309.878 22.1557C308.278 21.4557 302.478 22.0557 305.378 25.7557Z" fill="#FADE4E"/>
<path d="M280.477 91.4561C280.386 91.3771 280.285 91.3099 280.177 91.2561C280.09 91.2037 280.017 91.1307 279.965 91.0435C279.912 90.9563 279.882 90.8576 279.877 90.7561L279.977 90.6561L280.077 90.5561L280.277 90.2561C280.677 90.0561 280.877 89.7561 281.477 89.4561C282.077 89.1561 282.477 88.7561 282.977 88.4561C286.977 87.0561 292.377 84.4561 298.977 78.8561C309.877 69.8561 315.277 61.4561 316.677 50.0561C317.577 41.2561 314.577 36.6561 314.077 36.2561C313.577 36.0561 310.377 33.8561 310.377 33.8561C311.329 33.5851 312.238 33.1811 313.077 32.6561C313.477 32.4561 313.677 31.9561 314.077 31.4561C315.677 32.7915 317.383 33.9955 319.177 35.0561C319.402 35.1741 319.636 35.2744 319.877 35.3561C320.277 37.9561 320.777 41.9561 321.177 48.0561C322.177 67.3561 298.077 84.6561 286.977 89.7561C285.035 90.742 282.938 91.3848 280.777 91.6561C280.677 91.8561 280.677 91.6561 280.477 91.4561Z" fill="#FADE4E"/>
<path d="M297.037 86.976C309.437 78.176 322.337 65.776 322.737 50.976C322.937 43.576 321.737 38.776 320.137 35.876C323.337 37.776 327.737 42.476 327.037 55.876C326.537 70.676 313.837 83.176 301.337 91.876C287.937 101.276 274.337 97.976 271.037 95.976C270.429 95.5675 269.929 95.0173 269.581 94.3728C269.232 93.7282 269.046 93.0086 269.037 92.276C273.812 93.4471 278.782 93.5799 283.612 92.6656C288.443 91.7513 293.021 89.8111 297.037 86.976V86.976Z" fill="#F8BB47"/>
<path d="M269.978 93.7561C273.178 95.9561 286.678 99.2561 300.278 89.6561C312.678 80.8561 325.578 68.4561 325.978 53.6561C326.178 46.2561 324.978 41.4561 323.178 38.4561C325.478 41.4561 327.378 46.5561 327.178 55.6561C326.678 70.4561 313.978 82.9561 301.478 91.6561C288.078 101.056 274.478 97.7561 271.178 95.7561C270.361 95.2551 269.756 94.4725 269.478 93.5561C269.539 93.6267 269.616 93.6816 269.703 93.7164C269.79 93.7512 269.884 93.7648 269.978 93.7561V93.7561Z" fill="#E69D46"/>
<path d="M269.278 92.3558C270.378 93.2558 272.078 92.7558 273.578 92.4558C277.878 91.2558 287.478 84.4558 300.178 72.8558C304.078 69.3558 314.878 55.3558 313.678 47.3558C313.178 43.3558 313.678 38.2558 309.278 34.0558C307.978 32.9558 307.378 36.2558 308.278 37.5558C309.579 39.5035 310.465 41.6992 310.878 44.0051C311.291 46.311 311.223 48.6774 310.678 50.9558C309.778 53.7558 307.878 56.2558 306.478 58.5558C304.861 61.2225 303.091 63.7935 301.178 66.2558C299.53 68.1712 297.724 69.9442 295.778 71.5558C293.778 73.3558 291.778 75.2558 289.678 77.0558C287.378 79.1558 285.078 81.0558 282.878 82.9558C280.678 84.8558 278.278 86.6558 275.778 88.3558C274.765 89.0475 273.695 89.6497 272.578 90.1558C272.184 90.2797 271.783 90.3799 271.378 90.4558L271.278 90.3558L271.178 90.2558C269.578 89.3558 267.978 91.2558 269.278 92.3558Z" fill="#F8BB47"/>
<path d="M300.977 27.3558C300.977 27.3558 302.377 33.0558 301.177 34.8558C298.73 38.229 296.524 41.7712 294.577 45.4558C290.977 52.0558 279.377 66.3558 268.277 72.1558C257.077 78.1558 253.677 79.5558 252.377 80.7558C250.86 82.2573 249.488 83.8978 248.277 85.6558L248.577 88.6558C249.556 89.7453 250.627 90.749 251.777 91.6558C253.477 92.5558 262.677 95.5558 275.177 88.6558C288.077 81.5558 304.477 68.8558 310.977 52.0558C316.177 38.4558 308.477 33.9558 308.477 33.9558L307.277 25.6558C307.277 25.6558 308.277 22.1558 306.677 21.8558C305.077 21.5558 302.477 20.8558 301.877 22.1558C301.277 23.4558 300.377 26.8558 300.977 27.3558Z" fill="#FADE4E"/>
<path d="M249.037 85.756C249.037 85.756 252.537 81.656 254.037 80.856C255.537 80.056 275.537 73.256 285.137 60.756C290.216 54.1877 294.828 47.2707 298.937 40.056C300.346 37.874 301.917 35.8015 303.637 33.856L304.937 33.956C303.349 35.2862 301.996 36.8753 300.937 38.656C299.137 41.656 292.137 56.756 284.637 64.056C273.037 75.256 260.637 79.456 254.637 81.756C252.277 82.656 249.037 85.756 249.037 85.756Z" fill="#FADE4E"/>
<path d="M248.677 85.1558C248.677 85.1558 249.077 85.2558 249.377 86.2558C249.677 87.2558 249.577 88.9558 248.477 88.7558C247.677 88.6558 247.377 85.3558 248.677 85.1558Z" fill="#E69D46"/>
<path d="M305.578 21.8557C305.578 21.8557 304.278 24.2557 304.678 25.4557C304.813 25.7775 304.826 26.1374 304.716 26.4685C304.606 26.7996 304.379 27.0793 304.078 27.2557C303.878 27.5557 304.678 30.7557 304.978 31.5557C305.278 32.3557 303.478 33.0557 303.078 32.9557C302.524 32.9911 301.982 33.1267 301.478 33.3557C301.413 33.7638 301.313 34.1653 301.178 34.5557C301.078 34.6557 303.678 33.6557 304.878 33.8557C306.036 34.0312 307.211 34.0648 308.378 33.9557L307.178 25.6557C307.278 25.8557 308.878 21.3557 305.578 21.8557Z" fill="#F8BB47"/>
<path d="M398.677 187.456L497.677 69.856L385.677 -19.5439L295.037 88.1561L398.677 187.456Z" fill="#E1B052"/>
<path d="M398.677 187.456L381.037 180.976L360.737 194.276L262.237 98.7757L284.937 86.5757L294.937 88.1757L398.137 186.876L398.677 187.456Z" fill="#CE9D3E"/>
<path d="M24.3779 19.856C16.8779 31.456 24.4779 42.856 37.3779 51.356C50.2779 59.856 63.4779 63.056 71.7779 50.556C77.7779 41.656 71.6779 27.556 58.7779 19.056C45.6779 10.356 30.1779 10.756 24.3779 19.856Z" fill="#F3673A"/>
<path d="M39.0374 12.856C36.6405 13.9786 34.5739 15.7008 33.0374 17.856C25.5374 29.456 33.1374 40.856 46.0374 49.356C52.5374 53.656 59.1374 56.556 65.1374 56.756C57.2374 60.956 47.4374 57.556 37.5374 51.056C24.5374 42.556 16.8374 30.956 24.5374 19.556C27.3774 15.156 32.6774 12.856 39.0374 12.856Z" fill="#F3673A"/>
<path d="M50.1773 30.1559C50.2773 26.9559 51.0773 23.5559 53.2773 22.6559C50.6773 23.0559 43.5773 24.4559 45.0773 22.8559C46.6773 21.0559 48.4773 19.3559 49.6773 18.9559C47.1773 18.3559 39.2773 15.9559 41.9773 15.3559C45.2773 14.5559 47.3773 15.9559 49.1773 15.3559C50.4773 15.0559 43.2773 13.6559 40.2773 12.7559C44.4317 12.8188 48.5241 13.7737 52.2773 15.5559C52.7311 15.8188 53.1369 16.157 53.4773 16.5559C54.0773 17.4559 55.3773 17.3559 56.6773 17.5559C57.5773 18.0559 58.3773 18.5559 59.2773 19.0559C59.9537 19.3722 60.5644 19.8132 61.0773 20.3559C61.5773 20.9559 61.2773 21.0559 61.8773 21.9559C62.6773 22.9559 65.8773 24.5559 67.5773 26.5559C69.0096 28.3498 70.3448 30.2192 71.5773 32.1559C72.8676 34.4265 73.7795 36.8921 74.2773 39.4559C73.7773 39.7559 73.3773 39.4559 72.5773 38.4559C70.3773 34.7559 69.2773 31.1559 68.8773 32.2559C68.4773 33.3559 70.2773 35.7559 67.1773 40.8559C67.1773 40.8559 69.5773 33.7559 64.4773 29.4559C59.3773 25.1559 61.9773 29.3559 61.9773 29.3559C61.9773 29.3559 62.3773 31.7559 61.2773 33.0559C58.9773 36.0559 57.5773 36.4559 58.5773 35.3559C59.5773 34.2559 57.9773 29.8559 58.2773 27.8559C58.5773 25.8559 60.4773 24.4559 56.8773 26.7559C52.4773 28.5559 49.9773 32.5559 50.1773 30.1559Z" fill="#F3673A"/>
<path d="M68.2776 40.256C68.2776 40.256 70.6776 33.156 65.5776 28.856C60.4776 24.556 63.0776 28.756 63.0776 28.756C63.0776 28.756 63.4776 31.156 62.3776 32.456C60.0776 35.456 58.6776 35.856 59.6776 34.756C60.6776 33.656 59.0776 29.256 59.3776 27.256C59.6776 25.256 61.5776 23.856 57.9776 26.156C54.3776 28.456 51.7776 32.456 51.9776 30.056C52.1776 26.656 53.0776 23.056 55.4776 22.456C58.0776 22.056 44.7776 25.056 46.7776 22.656C48.8776 20.556 50.9776 18.256 52.0776 18.856C53.1776 19.456 40.2776 15.856 43.4776 15.256C46.7776 14.456 48.8776 15.856 50.6776 15.256C52.6776 14.756 36.9776 12.056 40.9776 11.556C47.0776 10.956 53.4776 14.356 54.8776 15.956C56.2776 17.556 58.7776 16.256 60.9776 18.356C63.1776 20.456 62.2776 20.156 63.0776 21.156C63.8776 22.156 67.0776 23.756 68.7776 25.756C70.4776 27.756 71.5776 29.856 74.2776 33.256C76.9776 37.056 75.7776 40.656 73.8776 37.456C71.6776 33.756 70.5776 30.156 70.1776 31.256C69.3776 32.756 71.3776 35.256 68.2776 40.256Z" fill="#19A616"/>
<path d="M63.9775 54.2558C63.9775 54.2558 71.0775 50.9558 71.4775 44.6558C71.8775 39.9558 68.7775 40.8558 67.9775 41.7558C67.2775 42.4558 66.3775 50.6558 63.9775 54.2558Z" fill="#F3673A"/>
<path opacity="0.24" d="M52.3775 22.1557C53.0706 22.0299 53.7731 21.963 54.4775 21.9557C54.7995 21.8413 55.1363 21.7739 55.4775 21.7557C55.5775 21.5557 55.7775 21.6557 55.9775 21.4557C55.9903 21.4291 56.0083 21.4053 56.0304 21.3858C56.0525 21.3663 56.0783 21.3514 56.1063 21.3421C56.1343 21.3328 56.1639 21.3292 56.1933 21.3315C56.2227 21.3339 56.2514 21.3421 56.2775 21.3557C56.3775 21.1557 56.5775 21.2557 56.8775 21.3557L57.2775 21.5557C57.4775 21.6557 57.6775 21.7557 57.5775 22.0557C57.6141 22.1725 57.6242 22.2959 57.6069 22.417C57.5896 22.5382 57.5454 22.6539 57.4775 22.7557C54.5775 23.8557 52.6775 27.6557 52.4775 30.5557C51.9775 30.8557 51.7775 30.7557 51.9775 29.9557C52.0775 26.7557 52.8775 23.3557 55.0775 22.4557C54.0775 22.6557 52.4775 22.8557 50.9775 23.0557C51.3797 22.6655 51.8556 22.3596 52.3775 22.1557V22.1557Z" fill="#222222"/>
<path opacity="0.24" d="M58.6775 17.8561C58.3796 17.906 58.0754 17.906 57.7775 17.8561C57.5775 17.7561 57.1775 17.8561 56.9775 17.6561C56.9514 17.6424 56.9227 17.6342 56.8933 17.6319C56.8639 17.6295 56.8343 17.6331 56.8063 17.6425C56.7783 17.6518 56.7525 17.6667 56.7304 17.6862C56.7082 17.7057 56.6903 17.7295 56.6775 17.7561C56.3775 17.8561 55.8775 17.5561 55.6775 17.4561C54.8775 17.2561 54.3775 16.7561 54.4775 15.9561L54.6775 16.0561C55.7775 17.2561 57.5775 16.5561 59.3775 17.3561C59.1775 17.8561 58.8775 17.9561 58.6775 17.8561V17.8561Z" fill="#222222"/>
<path opacity="0.24" d="M44.1777 13.3557C46.7376 13.1617 49.2846 13.8693 51.3777 15.3557C51.7777 15.5557 51.5777 16.5557 50.8777 16.1557C49.6777 15.7557 48.6777 15.9557 47.4777 15.5557C47.0777 15.3557 46.6777 15.3557 46.2777 15.1557C47.9777 15.2557 49.1777 15.6557 50.1777 15.4557C51.5777 15.1557 47.4777 14.1557 44.1777 13.3557Z" fill="#222222"/>
<path opacity="0.24" d="M47.7777 17.6558C48.9777 18.0558 50.3777 18.0558 51.5777 18.4558C51.8777 18.3558 52.3777 18.6558 52.7777 18.8558C53.1777 19.0558 52.9777 20.0558 52.2777 19.6558C52.034 19.5181 51.7576 19.449 51.4777 19.4558C50.5777 19.4558 49.5777 20.2558 48.7777 20.6558C47.7658 21.4351 46.7976 22.2697 45.8777 23.1558L46.0777 22.7558C47.6777 20.9558 49.4777 19.2558 50.6777 18.8558C48.8189 18.4545 46.9829 17.9538 45.1777 17.3558C46.0542 17.3325 46.9296 17.4335 47.7777 17.6558V17.6558Z" fill="#222222"/>
<path opacity="0.24" d="M61.4775 23.5558C61.6105 24.1615 61.5403 24.7941 61.2775 25.3558C60.6775 26.9558 60.1775 27.7558 60.5775 29.5558C60.8415 31.5053 60.4172 33.4857 59.3775 35.1558C59.0775 35.2558 59.0775 35.2558 59.3775 34.6558C60.2775 33.5558 58.7775 29.1558 59.0775 27.1558C59.1775 25.5558 60.3775 24.3558 59.4775 24.9558C59.8395 24.223 60.3922 23.6012 61.0775 23.1558C60.8775 22.9758 61.3775 23.2558 61.4775 23.5558Z" fill="#222222"/>
<path opacity="0.24" d="M73.6776 37.9759C72.9776 36.7759 72.4776 35.5759 71.9776 34.8759C71.8777 34.3724 71.6733 33.8955 71.3776 33.4759C70.7776 32.0759 70.4776 31.5759 70.1776 31.9759C69.8776 32.3759 70.3776 33.1759 70.2776 34.2759C70.1279 33.4273 69.8228 32.6137 69.3776 31.8759C68.5776 30.2759 67.1776 29.2759 66.1776 27.8759L65.9776 27.7759C65.7776 27.6759 65.5776 27.5759 65.6776 27.2759C65.1776 26.6759 66.0776 26.0759 66.3776 26.5759C67.3776 27.3759 68.1776 28.4759 69.1776 29.2759C70.1181 30.2181 70.9561 31.2572 71.6776 32.3759C72.2344 33.0874 72.6425 33.9036 72.8776 34.7759C73.3671 36.3214 74.1106 37.7747 75.0776 39.0759L75.1776 39.3759C74.7776 39.3559 74.1776 39.0559 73.6776 37.9759Z" fill="#222222"/>
<path opacity="0.24" d="M62.4775 26.8561C62.8775 26.2561 63.2775 25.9561 64.1775 26.4561C65.7515 27.7381 66.9875 29.3861 67.7775 31.2561C68.6945 33.2593 69.1065 35.4567 68.9775 37.6561C68.9775 38.1561 69.0775 38.5561 69.0775 39.0561C68.8775 39.4561 68.5775 39.8561 68.3775 40.2561C68.3775 40.2561 70.7775 33.1561 65.6775 28.8561C63.8775 27.3561 62.9775 26.8561 62.4775 26.8561Z" fill="#222222"/>
<path opacity="0.59" d="M63.9775 7.97598C68.0775 1.97598 78.1775 -11.324 85.9775 -16.624" stroke="#B0CBFF" stroke-width="4" stroke-linecap="round" stroke-linejoin="round"/>
<path opacity="0.59" d="M75.2773 15.6557C79.3773 9.65566 89.4773 -3.64434 97.2773 -8.94434" stroke="#B0CBFF" stroke-width="4" stroke-linecap="round" stroke-linejoin="round"/>
</g>
<defs>
<clipPath id="clip0_1659:5289">
<rect width="335" height="197" fill="white"/>
</clipPath>
</defs>
</svg>
