<svg xmlns="http://www.w3.org/2000/svg" xmlns:xlink="http://www.w3.org/1999/xlink" viewBox="0 0 334 200"><defs><style>.cls-1,.cls-36{fill:none;}.cls-2{clip-path:url(#clip-path);}.cls-3{fill:#3057e0;}.cls-4{clip-path:url(#clip-path-2);}.cls-5{fill:#1d3dae;}.cls-6{clip-path:url(#clip-path-3);}.cls-7{fill:#abdcff;}.cls-8{fill:#f8b639;}.cls-9{fill:#f1d368;}.cls-10{fill:#ea7e1b;}.cls-11{fill:#74a3ff;}.cls-12{fill:#ededed;}.cls-13{fill:#4b72ff;}.cls-14{fill:#f17b6b;}.cls-15{fill:#d35f50;}.cls-16{opacity:0.22;}.cls-17{fill:#fff;}.cls-18{opacity:0.25;}.cls-19{fill:#172f63;}.cls-20{fill:#d4c9af;}.cls-21{fill:#da3a2a;}.cls-22{fill:#801112;opacity:0.34;}.cls-22,.cls-35,.cls-36{isolation:isolate;}.cls-23,.cls-35{fill:#222;}.cls-24{fill:#a89b2e;}.cls-25{fill:#918628;}.cls-26{fill:#ee9b38;}.cls-27{fill:#da7136;}.cls-28{fill:#f8bb47;}.cls-29{fill:#fade4e;}.cls-30{fill:#e69d46;}.cls-31{fill:#e1b052;}.cls-32{fill:#ce9d3e;}.cls-33{fill:#f3673a;}.cls-34{fill:#19a616;}.cls-35{opacity:0.24;}.cls-36{stroke:#b0cbff;stroke-linecap:round;stroke-linejoin:round;stroke-width:4px;opacity:0.59;}.cls-37{fill:#e0e4ef;fill-opacity:0.38;}.cls-38{fill:#18edf1;}.cls-39{fill:#0a6f7c;}</style><clipPath id="clip-path"><rect id="SVGID" class="cls-1" x="-370.54" y="-988.12" width="1587" height="773"/></clipPath><clipPath id="clip-path-2"><rect id="SVGID-2" data-name="SVGID" class="cls-1" x="-419.11" y="-988.12" width="540" height="1145"/></clipPath><clipPath id="clip-path-3"><rect id="SVGID-3" data-name="SVGID" class="cls-1" width="334" height="200" rx="8"/></clipPath></defs><title>illustration</title><g id="buildings"><g class="cls-2"><rect class="cls-3" x="-78.28" y="-372.4" width="971.02" height="405.55"/><g class="cls-4"><path class="cls-5" d="M-137.39-631l239.18,52.8v818.8H-137.39Z"/></g></g></g><g id="houses"><g class="cls-6"><rect class="cls-7" width="334" height="200" rx="8"/><path class="cls-8" d="M61.56,143.7c-15,11.22-37.6-6.3-57.67-33.48s-31.41-53-15.45-64.91C4.18,33.66,26,51.61,46.11,78.79S77.11,132.15,61.56,143.7Z"/><path class="cls-9" d="M3.7,72.32c8-3.68,16.65-10.95,22.62-16.41-2.14-2-4.17-3.76-6.24-5.4C16.28,60.77,3.7,72.32,3.7,72.32Z"/><path class="cls-9" d="M41.23,72.34c-2-2.55-4.15-5-6.18-7.41-5.5,11.38-21.46,23.91-21.46,23.91C23.1,85.4,33.79,78.05,41.23,72.34Z"/><path class="cls-9" d="M25.15,106.12c10-3,21.29-9.57,29.43-14.94C52.77,88.52,51,85.71,49.06,83,42.47,94.41,25.15,106.12,25.15,106.12Z"/><path class="cls-9" d="M65.09,110.68c-.82-2.24-1.93-4.57-3-6.89-8.36,8.59-21.84,15.83-21.84,15.83C48.22,118.29,57.52,114.48,65.09,110.68Z"/><path class="cls-10" d="M23.2,152.19c-15,11.23-37.61-6.29-57.67-33.47s-31.41-53-15.45-64.91c15.74-11.66,37.6,6.29,57.66,33.47S38.75,140.64,23.2,152.19Z"/><path class="cls-9" d="M2.87,80.84c-2-2.56-4.16-5-6.18-7.42C-8.81,84.8-24.78,97.34-24.78,97.34-15.27,93.9-4.57,86.54,2.87,80.84Z"/><path class="cls-9" d="M-13.21,114.61c10-3,21.28-9.57,29.42-14.93C14.41,97,12.65,94.2,10.7,91.5,4.1,102.9-13.21,114.61-13.21,114.61Z"/><path class="cls-9" d="M26.72,119.18c-.81-2.25-1.92-4.57-3-6.9-8.36,8.59-21.84,15.84-21.84,15.84C9.86,126.79,19.15,123,26.72,119.18Z"/><path class="cls-11" d="M96,99.49c.9-4,.24-10.42-2.44-16.29A22.59,22.59,0,0,1,92,70.75l.88.23.73-2.78L92.71,68l.43-1.61.88.23.73-2.78c.23-.88-3.64-2.83-8.61-4.14s-9.22-1.8-9.6-1l-.73,2.77.87.24-.42,1.6-.88-.23-.73,2.78.88.23A22.84,22.84,0,0,1,67.78,76c-5.37,3.75-9.21,8.84-10.54,12.71l-.08.29L40.42,149c-.73,2.78,7.25,7.54,18,10.53s20.14,3.11,20.87.34Z"/><path class="cls-12" d="M92.22,99a22.13,22.13,0,0,0-.9-10.24,71.92,71.92,0,0,0-12.09-4.59,77.43,77.43,0,0,0-12.66-2.4A22.3,22.3,0,0,0,60.63,90l0,.15-15.86,57.3c-.3,1.17,4.64,5,14.84,7.81s16.48,2.15,16.79,1L92.22,99Z"/><path class="cls-13" d="M76.49,62.45s.23-.88,8.43,1.27c8.15,2.31,7.92,3.18,7.92,3.18l.23-.87s.27-1-8-3.37c-7.86-2.22-8.28-1.24-8.28-1.24Z"/><path class="cls-13" d="M75,66.9s.37-.83,8.71,1.36,8.22,3.26,8.22,3.26L92,70.6s.27-1-8.18-3.4c-8-2.27-8.42-1.28-8.42-1.28Z"/><path class="cls-14" d="M-92.91,83.26l-6.3,76.24c-.62,8.91,6,18,14.54,20.25l123,32.37C47,214.39,57.13,209.71,61,201.65l32-69.46Z"/><path class="cls-14" d="M85.41,130.19,56.46,192.64c-3.84,8.06-14.14,12.71-22.62,10.47l-123-32.37a19.17,19.17,0,0,1-9.36-6.06,20.44,20.44,0,0,0,14.2,15l123,32.37c8.63,2.27,18.78-2.41,22.62-10.47l32-69.46L85.44,130Z"/><path class="cls-14" d="M-94.77,100.45,86.32,148.1l6.84-15.87-186.07-49Z"/><path class="cls-15" d="M98.74,125.88-94.5,75l-4.69,17.85L94,143.72Z"/><g class="cls-16"><path class="cls-17" d="M54,149.28l9.94,2.62,3.1-7L55.87,142Z"/><path class="cls-17" d="M34.51,136.35l-11.84-3.12-1.93,7.31,11.85,3.12Z"/><path class="cls-17" d="M1.16,127.57l-11.85-3.12-1.92,7.32,11.85,3.11Z"/><path class="cls-17" d="M43,172.37,53.12,175,56.06,168,45,165.06Z"/><path class="cls-17" d="M25.93,160.05l-12-3.15L12,164.21l12,3.16Z"/><path class="cls-17" d="M32.47,194.62l10,2.62,3.1-7L34.4,187.31Z"/><path class="cls-17" d="M14.07,182,4.7,179.49l-1.92,7.32,9.36,2.46Z"/></g><g class="cls-18"><path d="M97,131.84,98.56,126-1.88,115.35l-4.39-3.5s-.37,5.54,9.58,8.15l12.29,3.24Z"/></g><path class="cls-14" d="M105.65,109.71l-70.33-6.15-24.15-2.14-8.57-.69c-4.29-.34-8,2.43-8.37,6.25l-.34,3.66c-.38,3.81,3,7.19,7.24,7.54l8.58.69L33.86,121l70.33,6.16Z"/><path class="cls-14" d="M5.85,110.35A4.38,4.38,0,1,1,2.73,105,4.38,4.38,0,0,1,5.85,110.35Z"/><path class="cls-19" d="M141.18,169.38c4.19,0,6.91-1.82,7.81-5h.22v4.64h3.14V158.12H141v2.62h7.93V161c0,3.61-2,5-7.13,5s-7.46-2.37-7.46-7.71,2.46-7.74,7.62-7.74c4.45,0,6.59,1.66,6.59,4.73v.26h3.81v-.26c0-5-4.23-8-10.31-8-6.84,0-11.36,4.35-11.36,11S134.88,169.38,141.18,169.38Zm18.5-.32v-8.93c0-2.85,1.12-4.35,3.84-4.35,2.36,0,3.32,1.06,3.32,3.33v1.41h3.43v-2.08c0-3-1.57-5.6-5.19-5.6a5.24,5.24,0,0,0-5.47,4.6h-.22v-4.28h-3.17v15.9Zm21.85.32c5.31,0,8.86-3.36,8.86-8.26s-3.55-8.28-8.86-8.28-8.83,3.32-8.83,8.28S176.25,169.38,181.53,169.38Zm0-3.07c-3.84,0-5.44-1.83-5.44-5.19s1.6-5.24,5.44-5.24,5.47,1.85,5.47,5.24S185.4,166.31,181.53,166.31Zm20.36,3.07c4.77,0,8.26-2.69,8.26-6.66v-.35h-3.43v.23c0,2.46-1.79,3.68-4.89,3.68-3.59,0-5.19-1.73-5.19-5.16s1.6-5.18,5.19-5.18c3.1,0,4.89,1.22,4.89,3.68v.19h3.43v-.32c0-4-3.49-6.65-8.26-6.65-5.25,0-8.67,3.32-8.67,8.28S196.64,169.38,201.89,169.38Zm19.77,0c4.74,0,8.07-2.34,8.07-5.73v-.29h-3.46v.26c0,1.89-1.37,3-4.7,3-3.68,0-5.19-1.64-5.31-4.71h13.5a7.76,7.76,0,0,0,.13-1.5c0-4.83-3.36-7.55-8.29-7.55-5.19,0-8.58,3.32-8.58,8.28C213,166.44,216.45,169.38,221.66,169.38Zm-.12-13.82c3.39,0,5.08,1.4,5.08,4.35V160H216.29C216.48,157.12,218,155.56,221.54,155.56Zm15.35,13.5v-8.93c0-2.85,1.12-4.35,3.84-4.35,2.37,0,3.33,1.06,3.33,3.33v1.41h3.42v-2.08c0-3-1.57-5.6-5.18-5.6a5.24,5.24,0,0,0-5.47,4.6h-.23v-4.28h-3.17v15.9Zm17.18-17.76v-3.68h-3.46v3.68Zm0,17.76v-15.9h-3.46v15.9Zm12.16.32c4.74,0,8.06-2.34,8.06-5.73v-.29h-3.45v.26c0,1.89-1.38,3-4.71,3-3.68,0-5.18-1.64-5.31-4.71h13.51a7.8,7.8,0,0,0,.12-1.5c0-4.83-3.36-7.55-8.28-7.55-5.19,0-8.58,3.32-8.58,8.28C257.59,166.44,261,169.38,266.23,169.38Zm-.13-13.82c3.39,0,5.09,1.4,5.09,4.35V160H260.85C261.05,157.12,262.58,155.56,266.1,155.56Zm19.42,13.82c4.48,0,7.43-1.76,7.43-4.74,0-2.62-1.73-3.9-5.51-4.38l-3.68-.51c-2.4-.32-3-.77-3-2,0-1.5,1-2.14,3.94-2.14,3.52,0,4.48,1,4.48,2.88v.19h3.42v-.1c0-3.77-2.94-5.72-7.8-5.72s-7.43,2-7.43,4.76,1.82,3.94,4.83,4.32l4.36.58c2.27.32,3,.74,3,2.05s-.92,2-4,2c-3.32,0-4.57-.68-4.57-2.76v-.25h-3.46v.09C277.49,167.36,280.4,169.38,285.52,169.38Z"/><path class="cls-20" d="M360.55,195.31,452.88,76.19,352.83-8,262.09,99.82Z"/><path class="cls-21" d="M318.06,34.74c16,7.43,24.57,5.26,32.92-6.66,7.73-11.18,4.83-22-6.17-32-9.3-8.59-20-4.44-28.7,8.18C307.77,16.48,305.17,28.69,318.06,34.74Z"/><path class="cls-22" d="M322.17.8a18.11,18.11,0,0,0-5,5.39c-2.69,4.05-3.61,6.56-2.64,7.12s4.36-2.9,6.27-6.6S324.16.71,322.17.8Z"/><path class="cls-23" d="M305.1,7.41A15.69,15.69,0,0,1,306.69,5c-.8.09-1.45.3-1.33.15S303.52,1,308.49,1.67s10.82,4.81,10.82,4.81,1.39.91,1.26,1.06a17.51,17.51,0,0,1-1.09,1.86,19.89,19.89,0,0,0-7.84-4.07,20.86,20.86,0,0,0-3.49-.41A5.75,5.75,0,0,0,305.8,8c-.91,2.51-.74,3.16-.55,4.08.31.77-.78.35-.92.24S304.15,9.39,305.1,7.41Z"/><path class="cls-23" d="M304.62,10.54c.11-.41.34-1,.45-1.39a20.71,20.71,0,0,1,1.15-3.07c.13-.15.34-1,.47-1.13-.8.09-1.45.3-1.33.15a1.4,1.4,0,0,1,0-.79,11.57,11.57,0,0,1,7.74.19c2,.71,3.86,2.25,6.14,2.39a.75.75,0,0,0,.51-.32l.84.71a17.93,17.93,0,0,1-1.08,1.86,19.83,19.83,0,0,0-7.84-4.07,20.07,20.07,0,0,0-3.49-.41,5.67,5.67,0,0,0-2.35,3.07c-.92,2.52-.75,3.17-.56,4.08.16.39-.11.42-.37.45A2.32,2.32,0,0,1,304.62,10.54Z"/><path class="cls-24" d="M305,9.3s6,5.08,2,13.57-6.91,9.34-6.91,9.34-5-2.65-4.22-10.37S299.42,8.18,305,9.3Z"/><path class="cls-25" d="M301.87,26.92c.52-2.34,1.58-4.73,1.83-7.3a9.41,9.41,0,0,0-.07-3.34,21.08,21.08,0,0,0,.51-7.16c.26,0,.4.09.67.06,0,0,6,5.08,2,13.57-3.44,7.21-5.87,9-6.65,9.31A14.49,14.49,0,0,0,301.87,26.92Z"/><path class="cls-22" d="M346.59,28.18c4.61-5.48,8-15.23,8.23-11.78a11.56,11.56,0,0,1-.26,4.59A24.79,24.79,0,0,1,351,28.08c-8.35,11.92-17,14.24-32.92,6.66-4.66-2.16-7.23-5.08-8.38-8.57a83.43,83.43,0,0,0,10.95,4.66C326.47,32.72,341.22,34.27,346.59,28.18Z"/><path class="cls-26" d="M263.69,30.42c17.16,6.1,56.13,18.18,80.09,22.17,4,.62,9.11-14.81,3.71-16.08-23.27-5.68-58.4-9.22-81.48-9.7C263.08,26.87,261,29.65,263.69,30.42Z"/><path class="cls-26" d="M263.77,29.47c17.7,6.31,58.4,16.05,82.77,20.13a1.88,1.88,0,0,0,1.18-.26c-1.07,2.13-2.58,3.64-3.8,3.37-24-4-63.06-15.93-80.09-22.18C262.33,30,261.71,28.5,263.77,29.47Z"/><path class="cls-27" d="M305,29.52a16.47,16.47,0,0,1-.66,4.49c-.22.83-1.17.53-.81-.18a16.47,16.47,0,0,0,.66-4.49A1.36,1.36,0,0,0,305,29.52Z"/><path class="cls-27" d="M311,32.05a6.82,6.82,0,0,0,.29-1.77c.27,0,.67.06.94,0a6.42,6.42,0,0,1-.3,1.77C311.83,33,310.75,32.88,311,32.05Z"/><path class="cls-27" d="M318.26,31.37c-.15,1.89-.71,3.69-1,5.47-.21.82-1,.65-.81-.18a24.77,24.77,0,0,0,1-5.47A.93.93,0,0,1,318.26,31.37Z"/><path class="cls-27" d="M323.47,42.83a4.46,4.46,0,0,1-.9,2.78c-.49.59-1.07-.15-.57-.74a1.86,1.86,0,0,0,.57-1.54C322.52,42.53,323.43,42,323.47,42.83Z"/><path class="cls-27" d="M322.33,34.79a15.56,15.56,0,0,1-.95,4.26c-.36.71-1.18.27-.82-.44a18.55,18.55,0,0,0,.85-3.58C321.49,34.08,322.28,34,322.33,34.79Z"/><path class="cls-27" d="M312.9,35.45A10,10,0,0,1,311,41.16c-.5.59-1.08-.15-.58-.74a7.57,7.57,0,0,0,1.45-4.85C311.94,34.89,312.86,34.65,312.9,35.45Z"/><path class="cls-27" d="M284.59,27.79a11,11,0,0,1-.85,3.58c-.36.71-1.19.27-.83-.44a8.51,8.51,0,0,0,.75-3.17A3,3,0,0,1,284.59,27.79Z"/><path class="cls-27" d="M296.91,28.82a11.3,11.3,0,0,1-.71,3.69c-.36.71-1.18.27-.82-.44a7.51,7.51,0,0,0,.6-3.28C296.51,28.73,296.77,28.7,296.91,28.82Z"/><path class="cls-27" d="M275.09,27.12a10.4,10.4,0,0,1-.89,3.05c-.35.71-1.18.26-.82-.44a4.52,4.52,0,0,0,.65-2.49Z"/><path class="cls-27" d="M300.58,34.43a14.79,14.79,0,0,1-1.93,5.7c-.35.71-1.18.27-.82-.44a13.06,13.06,0,0,0,1.69-5.14C299.76,34,300.67,33.75,300.58,34.43Z"/><path class="cls-27" d="M292.67,35.85c.09-.68,1-.91.92-.23a12.43,12.43,0,0,1-1.09,4.14c-.4-.09-.54-.21-.95-.3A9.77,9.77,0,0,0,292.67,35.85Z"/><path class="cls-27" d="M306.51,39.92c.21-.83,1.16-.53.81.18a14.56,14.56,0,0,1-1.39,3.63c-.4-.09-.54-.2-.95-.29A14.15,14.15,0,0,0,306.51,39.92Z"/><path class="cls-27" d="M287.63,31.87c-.05-.8,1-.92.92-.24a10.3,10.3,0,0,1-2,6.39c-.4-.09-.54-.21-.95-.3A8.72,8.72,0,0,0,287.63,31.87Z"/><path class="cls-27" d="M328.34,32.78a16.83,16.83,0,0,1-1.47,6.59c-.36.71-1.19.27-.83-.44a16.14,16.14,0,0,0,1.36-6.18A7.38,7.38,0,0,1,328.34,32.78Z"/><path class="cls-27" d="M278.64,30.87c.22-.82,1-.65.81.18a9.49,9.49,0,0,1-1.88,4.23c-.4-.09-.54-.21-.95-.3A7.59,7.59,0,0,0,278.64,30.87Z"/><path class="cls-27" d="M269.65,29.88c.36-.71,1.19-.27.83.44a12.34,12.34,0,0,0-.79,2.36c-.41-.08-.55-.2-.95-.29A23.33,23.33,0,0,1,269.65,29.88Z"/><path class="cls-27" d="M334.5,44.53A5.72,5.72,0,0,1,333.25,48c-.5.59-1.08-.15-.58-.74a4.15,4.15,0,0,0,.91-2.51C333.66,43.82,334.72,43.71,334.5,44.53Z"/><path class="cls-27" d="M316.42,43c.35-.71,1.18-.26.82.45a21.86,21.86,0,0,1-1.41,3.1c-.41-.09-.55-.2-.95-.29A25.7,25.7,0,0,0,316.42,43Z"/><path class="cls-27" d="M328.57,43.33c.22-.83,1-.65.81.17a17.6,17.6,0,0,1-2.46,5.77c-.4-.09-.67-.06-.95-.29A17.3,17.3,0,0,0,328.57,43.33Z"/><path class="cls-28" d="M236.36,70.58l.24,4s3.65,5.35,7.43,6.26c3.77.64,9.12,3.12,18.57-1.56,19.79-10.12,39.54-38.73,39.31-40.44-.38-1.83-7.78,5.83-11.81,9.77s-12,13.13-22.4,15.51S249.81,66,245.09,67.32C240,68.57,237.12,70,236.36,70.58Z"/><path class="cls-29" d="M305.06,26.83s4,10.66,4.67,13.53-.15,19.83-13.32,31.49-14.85,12.52-18.12,13.56c-4.05,1.39-8.22,2.93-8.58,3.64s-2.2,5.47,1,7.65,16.72,5.49,30.28-4.08c12.41-8.76,25.26-21.18,25.72-36s-4.87-19-7.89-20.54-6.25-4.25-6.88-5.78-1.19-6.56-2.42-7.09C308,22.48,302.17,23.14,305.06,26.83Z"/><path class="cls-29" d="M280.19,92.56h0l-.29-.24a.7.7,0,0,1-.29-.5l.12-.15.13-.15.25-.29c.39-.18.63-.48,1.15-.8l1.54-1c4.05-1.39,9.36-4,16-9.56,10.92-9,16.29-17.37,17.74-28.78.94-8.81-2.13-13.41-2.55-13.77S310.21,35,310.21,35a11.34,11.34,0,0,0,2.72-1.24c.39-.18.62-.74,1-1.19a35.3,35.3,0,0,0,5.14,3.57c.14.12.55.21.69.33.42,2.63.92,6.59,1.29,12.71,1,19.3-23.14,36.61-34.17,41.74a20.54,20.54,0,0,1-6.15,1.89C280.34,92.94,280.33,92.67,280.19,92.56Z"/><path class="cls-28" d="M296.71,88c12.4-8.76,25.26-21.19,25.71-36,.23-7.39-1-12.2-2.63-15.1,3.18,1.92,7.59,6.64,6.92,20-.45,14.77-13.16,27.32-25.71,36C287.56,102.3,274,99,270.72,97a4.49,4.49,0,0,1-2-3.66C274.19,94.84,285.44,95.71,296.71,88Z"/><path class="cls-30" d="M269.66,94.81c3.19,2.19,16.72,5.48,30.28-4.08,12.4-8.76,25.26-21.18,25.71-36,.23-7.39-1-12.21-2.77-15.22,2.31,3,4.21,8.09,4,17.23-.46,14.78-13.17,27.32-25.72,36-13.43,9.42-27,6.12-30.28,4.08a4.24,4.24,0,0,1-1.73-2.21A.68.68,0,0,0,269.66,94.81Z"/><path class="cls-28" d="M268.91,93.42c1.12,1,2.82.36,4.27.06,4.33-1.16,13.92-8,26.55-19.59,3.92-3.52,14.69-17.46,13.54-25.49-.5-4,0-9.11-4.39-13.3-1.26-1.06-1.86,2.22-1,3.46,2.36,3.75,3.72,8.68,2.4,13.39-.9,2.77-2.75,5.26-4.22,7.57a80.32,80.32,0,0,1-5.27,7.69,49.79,49.79,0,0,1-5.41,5.29L289.32,78c-2.28,2.13-4.56,4-6.85,5.85a74,74,0,0,1-7.15,5.36,19.49,19.49,0,0,1-3.22,1.84,4.37,4.37,0,0,1-1.18.26l-.15-.11-.13-.12C269.26,90.44,267.64,92.36,268.91,93.42Z"/><path class="cls-29" d="M300.62,28.4s1.41,5.73.18,7.48a88,88,0,0,0-6.56,10.64c-3.61,6.57-15.16,20.86-26.27,26.66s-14.62,7.4-15.88,8.62A34.72,34.72,0,0,0,248,86.68l.31,3a22.3,22.3,0,0,0,3.25,3c1.65.89,10.89,3.86,23.41-3,12.91-7.08,29.34-19.78,35.81-36.57C316,39.53,308.21,35,308.21,35l-1.16-8.3s1-3.46-.62-3.81-4.2-1-4.79.27S300.06,27.93,300.62,28.4Z"/><path class="cls-29" d="M248.79,86.85s3.49-4.14,5-4.85,21.54-7.65,31.06-20.1a173.6,173.6,0,0,0,13.83-20.7,45,45,0,0,1,4.7-6.15l1.34.11a19.19,19.19,0,0,0-4,4.74C299,42.91,292,58,284.43,65.3c-11.6,11.21-24,15.42-30,17.71C251.93,83.69,248.79,86.85,248.79,86.85Z"/><path class="cls-30" d="M248.35,86.23s.41.09.74,1.13.16,2.66-.92,2.51C247.36,89.69,247,86.38,248.35,86.23Z"/><path class="cls-28" d="M305.23,22.93s-1.33,2.42-.86,3.57a1.4,1.4,0,0,1-.55,1.81c-.25.29.61,3.54.92,4.31s-1.51,1.51-1.92,1.42a4.44,4.44,0,0,0-1.57.45,6.25,6.25,0,0,1-.33,1.24c-.12.15,2.48-.95,3.7-.68a17.78,17.78,0,0,0,3.47.14l-1.16-8.3S308.53,22.42,305.23,22.93Z"/><path class="cls-31" d="M398.39,188.5l99-117.58-112-89.42L294.78,89.17Z"/><path class="cls-32" d="M398.39,188.5,380.82,182l-20.27,13.27-98.46-95.5,22.73-12.19,10,1.55L398,187.88Z"/><path class="cls-33" d="M24.08,20.86c-7.49,11.56.07,23,13,31.53s26.14,11.69,34.43-.77c6-8.89-.07-23-13-31.52C45.32,11.44,29.82,11.85,24.08,20.86Z"/><path class="cls-33" d="M38.7,13.94a15.69,15.69,0,0,0-6,5c-7.49,11.56.08,23,13.05,31.52,6.48,4.27,13.13,7.25,19.09,7.39-7.89,4.23-17.72.78-27.56-5.68-13-8.53-20.75-20.09-13-31.52C27,16.26,32.4,13.88,38.7,13.94Z"/><path class="cls-33" d="M49.82,31.24c.11-3.22.89-6.59,3.14-7.49-2.56.44-9.69,1.82-8.2.22,1.62-1.81,3.44-3.49,4.57-3.94-2.53-.63-10.41-3-7.73-3.61,3.35-.81,5.4.63,7.19,0,1.34-.32-5.91-1.75-8.87-2.62a29.48,29.48,0,0,1,12,2.75,11.17,11.17,0,0,1,1.19.95c.63.91,1.85.79,3.17,1L58.84,20a7.39,7.39,0,0,1,1.83,1.33c.54.58.2.66.83,1.57.85,1,4,2.56,5.7,4.63,1.38,1.61,2.43,3.3,4,5.57a24.35,24.35,0,0,1,2.73,7.31c-.45.28-.89,0-1.74-1-2.19-3.71-3.28-7.34-3.65-6.19S70,36.78,66.81,41.8c0,0,2.35-7.13-2.7-11.39s-2.54-.09-2.54-.09.36,2.4-.68,3.71c-2.32,3-3.66,3.37-2.74,2.26s-.57-5.52-.28-7.54,2.22-3.38-1.4-1.08C52.2,29.6,49.62,33.59,49.82,31.24Z"/><path class="cls-34" d="M67.93,41.35S70.28,34.22,65.24,30s-2.54-.09-2.54-.09.35,2.4-.69,3.71c-2.32,3-3.66,3.37-2.73,2.26S58.7,30.32,59,28.3s2.22-3.38-1.4-1.08-6.19,6.29-6,3.94c.23-3.42,1.13-7,3.47-7.57,2.56-.45-10.71,2.61-8.74.18,2.06-2.1,4.25-4.4,5.33-3.78S39.81,17,43,16.42c3.35-.81,5.4.64,7.19,0,2-.49-13.72-3.22-9.72-3.66,6.11-.6,12.51,2.8,13.89,4.41s3.87.3,6.11,2.41,1.27,1.81,2.12,2.85,4,2.56,5.69,4.63,2.85,4.09,5.49,7.51c2.74,3.76,1.51,7.43-.37,4.17-2.19-3.72-3.28-7.35-3.65-6.2C69.08,33.81,71.1,36.33,67.93,41.35Z"/><path class="cls-33" d="M63.68,55.3s7.08-3.31,7.53-9.62c.38-4.69-2.75-3.76-3.55-2.85C67,43.53,66,51.73,63.68,55.3Z"/><path class="cls-35" d="M52.09,23.25a10.92,10.92,0,0,1,2.11-.16l1-.24c.12-.21.34-.08.45-.29a.24.24,0,0,1,.34-.08c.12-.21.33-.08.55,0l.43.25c.22.12.44.25.32.45a.85.85,0,0,1-.14.75c-2.91,1.06-4.82,4.89-5,7.77-.45.29-.67.16-.53-.58.11-3.21.9-6.59,3.14-7.49-1,.24-2.56.45-4.12.65A2.52,2.52,0,0,1,52.09,23.25Z"/><path class="cls-35" d="M58.33,18.9c-.34.08-.56,0-.89,0-.22-.13-.55,0-.77-.17a.23.23,0,0,0-.33.08,1.55,1.55,0,0,1-1-.29,1.31,1.31,0,0,1-1.16-1.49l.21.13c1.07,1.16,2.86.54,4.71,1.33-.23.41-.57.49-.78.37Z"/><path class="cls-35" d="M43.88,14.45a11.1,11.1,0,0,1,7.23,2c.44.25.18,1.19-.47.82-1.2-.42-2.2-.17-3.41-.59-.43-.25-.76-.16-1.2-.41,1.66.13,2.86.54,3.86.3C51.23,16.2,47.17,15.24,43.88,14.45Z"/><path class="cls-35" d="M47.49,18.7c1.21.42,2.64.42,3.85.84.33-.08.76.17,1.2.41s.18,1.2-.47.83a1,1,0,0,0-.77-.17,8.54,8.54,0,0,0-2.7,1.19,20.18,20.18,0,0,0-2.85,2.46l.23-.41c1.62-1.81,3.45-3.49,4.57-3.94-1.32-.21-3.51-.92-5.48-1.5A9.28,9.28,0,0,1,47.49,18.7Z"/><path class="cls-35" d="M61.11,24.59c.2.66,0,1.08-.17,1.82-.61,1.56-1.08,2.38-.71,4.24A8.42,8.42,0,0,1,59,36.25c-.33.08-.33.08,0-.53.92-1.11-.58-5.53-.29-7.55.06-1.6,1.32-2.79.41-2.22a4.13,4.13,0,0,1,1.62-1.81C60.58,24,61,24.26,61.11,24.59Z"/><path class="cls-35" d="M73.32,39c-.73-1.24-1.24-2.35-1.65-3.14a4.26,4.26,0,0,0-.62-1.44c-.61-1.44-.93-1.9-1.16-1.49s.18,1.2.14,2.27a6.48,6.48,0,0,0-.91-2.43c-.83-1.57-2.23-2.65-3.18-4l-.21-.12c-.22-.13-.44-.25-.32-.46-.53-.58.37-1.15.69-.7,1,.83,1.81,1.86,2.78,2.69a23.79,23.79,0,0,1,2.55,3.1,6,6,0,0,1,1.24,2.35,14.35,14.35,0,0,0,2.17,4.25l.1.33C74.49,40.46,73.84,40.09,73.32,39Z"/><path class="cls-35" d="M62.1,27.89c.36-.61.81-.9,1.68-.4a12.57,12.57,0,0,1,3.59,4.79,13.71,13.71,0,0,1,1.21,6.43c0,.54.08.87.06,1.4l-.71,1.24S70.28,34.22,65.24,30C63.52,28.43,62.65,27.94,62.1,27.89Z"/><path class="cls-36" d="M63.68,9c4.07-6,14.18-19.3,22-24.61"/><path class="cls-36" d="M75,16.67C79,10.67,89.13-2.64,97-7.95"/><rect class="cls-37" x="-56.91" y="-74.47" width="434.9" height="313.12"/><rect class="cls-38" x="192.56" y="17.52" width="197.25" height="37.28" rx="4"/><path class="cls-39" d="M212.5,40.83c3,0,5.14-1.6,5.14-4.17v-.21h-1.91v.21c0,1.65-1,2.51-3.21,2.51-2.51,0-3.73-1.18-3.73-3.86s1.22-3.87,3.73-3.87c2.17,0,3.21.88,3.21,2.51v.23h1.91V34c0-2.56-2.12-4.16-5.14-4.16A5.21,5.21,0,0,0,207,35.31,5.2,5.2,0,0,0,212.5,40.83Zm10.95,0c2.66,0,4.44-1.68,4.44-4.12s-1.78-4.15-4.44-4.15A4.06,4.06,0,0,0,219,36.71C219,39.15,220.81,40.83,223.45,40.83Zm0-1.53c-1.92,0-2.72-.91-2.72-2.59s.8-2.63,2.72-2.63,2.74.93,2.74,2.63S225.39,39.3,223.45,39.3Zm7.9,1.37V36.74c0-1.76.59-2.63,2.3-2.63,1.54,0,2.15.68,2.15,2.24v4.32h1.71V36.74c0-1.76.61-2.63,2.3-2.63,1.54,0,2.16.68,2.16,2.24v4.32h1.71V35.89c0-1.92-1-3.33-3.1-3.33a2.91,2.91,0,0,0-3.12,2.63h-.1a3.07,3.07,0,0,0-6.06-.07h-.1v-2.4h-1.58v8Zm16.09-8.88V30h-1.73v1.84Zm0,8.88v-8h-1.73v8Zm3.81,0V36.74c0-1.73.78-2.63,2.52-2.63s2.32.76,2.32,2.24v4.32h1.73V35.89a3.09,3.09,0,0,0-3.29-3.33,3.15,3.15,0,0,0-3.32,2.63h-.11V32.72h-1.58v8ZM263.3,40c1.81,0,2.88-.86,3.16-2.06h.12v2c0,1.78-.66,2.27-2.47,2.27s-2.37-.43-2.37-1.58H260c0,1.92,1.64,3,4,3,2.61,0,4.27-1.13,4.27-3.8v-7H266.7v2h-.09c-.29-1.4-1.54-2.15-3.2-2.15a3.55,3.55,0,0,0-3.89,3.7A3.48,3.48,0,0,0,263.3,40Zm-2-3.69c0-1.63,1-2.19,2.63-2.19s2.68.68,2.68,2v.22c0,1.41-1,2.15-2.72,2.15S261.27,37.89,261.27,36.26Zm16.81,4.57c3.17,0,4.5-1.5,4.5-3.13s-1.06-2.55-3.2-2.93l-2.61-.45c-1.27-.27-1.81-.57-1.81-1.5s.77-1.44,2.72-1.44c2.22,0,3,.65,3,2v.2h1.71v-.09c0-2.1-1.42-3.67-4.56-3.67-3.33,0-4.61,1.57-4.61,3.12,0,1.76,1.28,2.6,3.09,2.92l2.62.43c1.36.25,1.91.61,1.91,1.53s-.72,1.46-2.77,1.46c-2.35,0-3.1-.64-3.1-1.92v-.26h-1.73v.1C273.25,39.43,274.88,40.83,278.08,40.83Zm10.27,0c2.65,0,4.43-1.68,4.43-4.12s-1.78-4.15-4.43-4.15-4.42,1.67-4.42,4.15S285.7,40.83,288.35,40.83Zm0-1.53c-1.93,0-2.72-.91-2.72-2.59s.79-2.63,2.72-2.63,2.73.93,2.73,2.63S290.28,39.3,288.35,39.3Zm10.23,1.53c2.65,0,4.43-1.68,4.43-4.12s-1.78-4.15-4.43-4.15-4.42,1.67-4.42,4.15S295.93,40.83,298.58,40.83Zm0-1.53c-1.93,0-2.72-.91-2.72-2.59s.79-2.63,2.72-2.63,2.73.93,2.73,2.63S300.51,39.3,298.58,39.3Zm7.89,1.37V36.74c0-1.73.78-2.63,2.53-2.63s2.32.76,2.32,2.24v4.32h1.73V35.89a3.09,3.09,0,0,0-3.3-3.33,3.14,3.14,0,0,0-3.31,2.63h-.11V32.72h-1.59v8Z"/></g></g></svg>