<svg width="335" height="197" viewBox="0 0 335 197" fill="none" xmlns="http://www.w3.org/2000/svg">
<g clip-path="url(#clip0_1659:5348)">
<path d="M333.882 -4.36279H-0.118164V195.637H333.882V-4.36279Z" fill="#1D3DAE"/>
<path fill-rule="evenodd" clip-rule="evenodd" d="M250.441 81.2371C250.561 77.7971 252.331 73.9371 254.011 70.9971C258.911 62.4971 264.461 54.4171 269.841 46.7771C271.591 44.2971 273.581 41.7771 275.371 38.9171C278.931 33.3971 281.751 28.2671 285.991 22.8171C288.251 19.9371 290.991 16.7471 294.191 15.9271C300.241 14.2271 307.251 17.8271 311.271 20.3071C316.031 23.3071 320.461 26.3071 324.781 29.1671C333.971 35.1671 342.291 40.7471 351.571 46.9871C360.851 53.2271 369.851 58.8771 378.861 64.3971C385.591 68.5471 392.371 73.2671 399.061 77.7471C402.851 80.2071 406.561 82.3171 407.731 86.7471C408.005 88.1203 408.005 89.5339 407.731 90.9071C407.041 94.2971 404.651 97.3971 402.981 100.227C401.311 103.057 399.281 105.957 397.391 108.647C390.151 119.017 382.871 131.677 375.141 142.017C371.401 147.017 366.891 152.937 361.141 155.127C354.551 157.567 346.141 152.567 341.301 149.537C336.461 146.507 332.441 143.677 328.591 140.757C324.301 137.547 319.991 134.577 316.021 131.637C307.961 125.867 298.931 119.417 290.021 114.357C285.541 111.827 280.661 108.797 276.561 106.077C270.401 101.987 263.561 97.3771 257.641 92.5071C255.627 91.0049 253.83 89.2314 252.301 87.2371C250.947 85.5432 250.282 83.4001 250.441 81.2371V81.2371Z" fill="#B0CBFF"/>
<path opacity="0.49" fill-rule="evenodd" clip-rule="evenodd" d="M274.772 49.7572L269.982 46.5972L272.472 43.1772L277.112 46.2372L274.772 49.7572ZM294.062 62.3772L284.412 56.0672L286.712 52.5472L296.362 58.8572L294.062 62.3772ZM313.352 75.0172L303.712 68.6972L306.012 65.1872L315.662 71.4972L313.352 75.0172ZM332.652 87.6372L322.982 81.3172L325.282 77.7972L334.932 84.1072L332.652 87.6372ZM347.122 97.1072L342.302 93.9472L344.602 90.4272L349.422 93.5872L347.122 97.1072Z" fill="white"/>
<path fill-rule="evenodd" clip-rule="evenodd" d="M319.061 54.8772C319.069 52.9967 319.536 51.1465 320.421 49.4872C321.551 47.9851 323.124 46.8745 324.917 46.3113C326.711 45.7481 328.635 45.7607 330.421 46.3472C333.981 47.6272 338.151 54.2772 334.851 59.4772C333.524 61.3345 331.54 62.6178 329.301 63.0672C324.151 63.8072 320.011 60.2772 319.071 57.0672C318.981 56.3772 319.091 55.6872 319.061 54.8772Z" fill="white"/>
<path opacity="0.38" fill-rule="evenodd" clip-rule="evenodd" d="M320.232 54.7672C322.802 53.2972 326.782 52.6672 330.492 52.4672C331.542 52.3372 333.082 51.9172 333.902 52.9272C334.112 54.3272 332.472 54.5072 331.402 54.8572C330.332 55.2072 329.052 55.3172 327.992 55.5572C325.652 55.8972 322.242 56.4672 320.682 55.9672C320.452 55.9672 320.242 55.8072 320.262 55.5772C320.185 55.3139 320.174 55.0355 320.232 54.7672V54.7672Z" fill="#334F70"/>
<path fill-rule="evenodd" clip-rule="evenodd" d="M290.192 36.0174C290.191 34.137 290.655 32.2855 291.542 30.6274C292.672 29.1252 294.244 28.0146 296.038 27.4514C297.831 26.8883 299.756 26.9009 301.542 27.4874C305.102 28.7674 309.272 35.4174 305.982 40.6174C304.654 42.4747 302.67 43.758 300.432 44.2074C295.282 44.9574 291.142 41.4174 290.202 38.2074C290.056 37.485 290.053 36.7411 290.192 36.0174Z" fill="white"/>
<path opacity="0.38" fill-rule="evenodd" clip-rule="evenodd" d="M291.342 36.017C293.912 34.557 297.892 33.917 301.602 33.717C302.652 33.597 304.202 33.177 305.022 34.177C305.222 35.587 303.592 35.767 302.512 36.117C301.432 36.467 300.162 36.567 299.102 36.807C296.762 37.147 293.362 37.727 291.792 37.217C291.572 37.217 291.352 37.057 291.372 36.837C291.307 36.5684 291.297 36.2896 291.342 36.017Z" fill="#334F70"/>
<path fill-rule="evenodd" clip-rule="evenodd" d="M319.913 111.347C319.857 109.457 320.324 107.588 321.263 105.947C322.394 104.447 323.967 103.338 325.76 102.777C327.554 102.215 329.478 102.229 331.263 102.817C334.823 104.097 338.993 110.747 335.703 115.947C334.367 117.796 332.387 119.076 330.153 119.537C325.003 120.277 320.863 116.747 319.923 113.537C319.873 112.837 319.983 112.157 319.913 111.347Z" fill="white"/>
<path opacity="0.38" fill-rule="evenodd" clip-rule="evenodd" d="M321.072 111.237C323.642 109.767 327.632 109.127 331.342 108.927C332.392 108.807 333.932 108.387 334.752 109.387C334.952 110.797 333.322 110.977 332.252 111.327C331.182 111.677 329.892 111.777 328.832 112.017C326.492 112.357 323.092 112.937 321.532 112.427C321.302 112.427 321.082 112.267 321.112 112.047C321.039 111.784 321.026 111.507 321.072 111.237V111.237Z" fill="#334F70"/>
<path fill-rule="evenodd" clip-rule="evenodd" d="M293.222 93.6473C293.175 91.7602 293.645 89.8963 294.582 88.2573C295.712 86.7551 297.284 85.6445 299.077 85.0813C300.871 84.5182 302.796 84.5307 304.582 85.1173C308.142 86.3973 312.312 93.0472 309.012 98.2472C307.684 100.105 305.7 101.388 303.462 101.837C298.312 102.587 294.172 99.0473 293.232 95.8373C293.103 95.1132 293.1 94.3725 293.222 93.6473V93.6473Z" fill="white"/>
<path opacity="0.38" fill-rule="evenodd" clip-rule="evenodd" d="M294.382 93.6574C296.952 92.1874 300.932 91.5474 304.642 91.3474C305.642 91.2274 307.232 90.8074 308.052 91.8074C308.262 93.2174 306.622 93.3974 305.552 93.7474C304.482 94.0974 303.202 94.1974 302.142 94.4374C299.802 94.7774 296.392 95.3574 294.832 94.8574C294.602 94.8574 294.392 94.6874 294.412 94.4674C294.349 94.202 294.338 93.9267 294.382 93.6574Z" fill="#334F70"/>
<path fill-rule="evenodd" clip-rule="evenodd" d="M264.222 74.917C264.228 73.0331 264.695 71.1793 265.582 69.517C266.712 68.0148 268.284 66.9042 270.077 66.3411C271.871 65.7779 273.796 65.7905 275.582 66.377C279.142 67.667 283.312 74.317 280.012 79.517C278.682 81.3705 276.698 82.6501 274.462 83.097C269.312 83.847 265.172 80.317 264.232 77.097C264.192 76.407 264.262 75.727 264.222 74.917Z" fill="white"/>
<path opacity="0.38" fill-rule="evenodd" clip-rule="evenodd" d="M265.392 74.7973C267.962 73.3373 271.942 72.6973 275.652 72.4973C276.702 72.3773 278.242 71.9573 279.062 72.9573C279.272 74.3673 277.642 74.5473 276.562 74.8973C275.482 75.2473 274.212 75.3473 273.152 75.5873C270.812 75.9273 267.412 76.5073 265.842 75.9973C265.612 75.9973 265.402 75.8373 265.422 75.6173C265.345 75.3506 265.335 75.0689 265.392 74.7973Z" fill="#334F70"/>
<path d="M81.7012 33.9472L97.2412 46.0172C98.1763 46.6326 99.3088 46.8739 100.414 46.693C101.518 46.5121 102.515 45.9224 103.205 45.0409C103.895 44.1594 104.228 43.0506 104.139 41.9347C104.049 40.8187 103.543 39.7773 102.721 39.0172L87.1812 26.9072C86.7933 28.386 86.1071 29.7699 85.1647 30.9737C84.2223 32.1775 83.0437 33.1758 81.7012 33.9072V33.9472Z" fill="#CCCCCC"/>
<path opacity="0.9" d="M-28.8279 -57.8228C-32.0878 -53.6458 -33.8599 -48.5001 -33.8633 -43.2016C-33.8667 -37.9031 -32.1012 -32.7551 -28.8467 -28.5739C-25.5922 -24.3927 -21.0351 -21.4176 -15.8978 -20.1203C-10.7606 -18.8231 -5.33731 -19.278 -0.487934 -21.4128L69.3021 33.0172C71.0447 34.37 73.1441 35.1852 75.343 35.3628C77.5419 35.5404 79.7449 35.0728 81.6821 34.0172C83.0355 33.2704 84.2175 32.2485 85.1521 31.0172C86.0903 29.808 86.7709 28.4195 87.1521 26.9372C87.7162 24.7933 87.6377 22.5309 86.9266 20.4312C86.2154 18.3315 84.9029 16.4871 83.1521 15.1272L13.3321 -39.2428C14.2155 -44.4662 13.3302 -49.8349 10.8166 -54.4981C8.30294 -59.1613 4.30476 -62.8522 -0.544193 -64.9856C-5.39315 -67.119 -10.8155 -67.5729 -15.9516 -66.2754C-21.0878 -64.9779 -25.644 -62.0032 -28.8979 -57.8228H-28.8279Z" fill="#DCEEF5"/>
<path d="M39.2617 1.53705L73.2017 28.0171C73.7128 28.505 74.3186 28.8828 74.9817 29.1271C75.6484 29.3781 76.3609 29.4838 77.0717 29.437C77.7721 29.3958 78.4548 29.2012 79.0717 28.8671C79.7015 28.5373 80.2538 28.0771 80.6917 27.5171C81.1227 26.9569 81.4326 26.3133 81.6017 25.6271C81.7613 24.9436 81.7752 24.2342 81.6425 23.5451C81.5099 22.8559 81.2336 22.2024 80.8317 21.6271C80.4279 21.0446 79.9024 20.5567 79.2917 20.1971L45.2917 -6.27295L39.2617 1.53705Z" fill="#C1272D"/>
<path d="M74.9824 23.577C75.0799 23.6448 75.1646 23.7294 75.2324 23.827C75.2915 23.9326 75.3321 24.0476 75.3524 24.167C75.3773 24.2823 75.3773 24.4016 75.3524 24.517C75.3236 24.6342 75.2689 24.7436 75.1924 24.837L70.6624 30.647C70.5929 30.7373 70.5055 30.8123 70.4057 30.8673C70.3059 30.9224 70.1959 30.9563 70.0824 30.967C69.9698 30.9823 69.8552 30.9752 69.7454 30.946C69.6355 30.9168 69.5326 30.8662 69.4424 30.797C69.3535 30.7247 69.2789 30.6366 69.2224 30.537C69.1622 30.4399 69.1246 30.3305 69.1124 30.217C69.0875 30.1016 69.0875 29.9823 69.1124 29.867C69.142 29.758 69.193 29.656 69.2624 29.567L73.7824 23.767C73.921 23.5888 74.1203 23.4677 74.3424 23.427C74.5638 23.3951 74.7891 23.4487 74.9724 23.577H74.9824Z" fill="#333333"/>
<path d="M69.7016 24.707C69.7932 24.7764 69.8683 24.8652 69.9216 24.967C69.9818 25.064 70.0194 25.1734 70.0316 25.287C70.0566 25.3989 70.0566 25.515 70.0316 25.627C70.0027 25.7412 69.9479 25.8472 69.8716 25.937L67.8716 28.487C67.799 28.5782 67.711 28.656 67.6116 28.717C67.5106 28.7684 67.4029 28.8055 67.2916 28.827C67.1791 28.8464 67.0641 28.8464 66.9516 28.827C66.8395 28.7976 66.7342 28.7467 66.6416 28.677V28.677C66.4626 28.5334 66.3476 28.3249 66.3216 28.097C66.2901 27.8664 66.3512 27.6326 66.4916 27.447L68.4916 24.887C68.5638 24.7972 68.6532 24.7227 68.7545 24.6678C68.8558 24.6128 68.967 24.5786 69.0816 24.567C69.1942 24.5516 69.3088 24.5587 69.4186 24.5879C69.5285 24.6171 69.6314 24.6677 69.7216 24.737L69.7016 24.707Z" fill="#333333"/>
<path d="M66.9816 22.5571C67.1606 22.7007 67.2756 22.9092 67.3016 23.1372C67.318 23.2505 67.3104 23.366 67.2794 23.4762C67.2484 23.5864 67.1947 23.689 67.1216 23.7772L65.1216 26.3371C64.9758 26.5151 64.7691 26.6327 64.5416 26.6672C64.311 26.6987 64.0773 26.6376 63.8916 26.4972C63.8 26.4277 63.7249 26.339 63.6716 26.2372C63.6114 26.1401 63.5738 26.0307 63.5616 25.9172C63.5367 25.8018 63.5367 25.6825 63.5616 25.5672C63.5947 25.4576 63.6491 25.3557 63.7216 25.2671L65.7216 22.7072C65.7938 22.6183 65.882 22.5437 65.9816 22.4872C66.0787 22.4269 66.1881 22.3893 66.3016 22.3771C66.4136 22.3521 66.5297 22.3521 66.6416 22.3771C66.7537 22.4065 66.859 22.4574 66.9516 22.5272L66.9816 22.5571Z" fill="#333333"/>
<path d="M64.162 20.3874C64.2589 20.4527 64.3407 20.5379 64.402 20.6374C64.4683 20.7406 64.5126 20.8563 64.532 20.9774C64.5569 21.0927 64.5569 21.212 64.532 21.3274C64.4983 21.4428 64.4441 21.5512 64.372 21.6474L62.372 24.2074C62.3067 24.3043 62.2215 24.3861 62.122 24.4474C62.0169 24.5077 61.9017 24.5483 61.782 24.5674C61.6666 24.592 61.5474 24.592 61.432 24.5674C61.3173 24.5368 61.2089 24.486 61.112 24.4174C61.0172 24.3457 60.9359 24.2576 60.872 24.1574C60.8128 24.0553 60.7722 23.9436 60.752 23.8274C60.7272 23.7087 60.7272 23.5861 60.752 23.4674C60.7813 23.3553 60.8323 23.25 60.902 23.1574L62.902 20.5874C62.9709 20.49 63.0594 20.4083 63.162 20.3474C63.2634 20.2868 63.3754 20.2461 63.492 20.2274C63.6073 20.2022 63.7267 20.2022 63.842 20.2274C63.9593 20.2562 64.0686 20.3109 64.162 20.3874V20.3874Z" fill="#333333"/>
<path d="M63.9816 15.017C64.0734 15.0849 64.1515 15.1698 64.2116 15.267C64.2689 15.369 64.3062 15.481 64.3216 15.597C64.341 15.7095 64.341 15.8245 64.3216 15.937C64.292 16.0459 64.241 16.1479 64.1716 16.237L59.5916 22.017C59.529 22.1161 59.4432 22.1985 59.3416 22.257C59.2421 22.3233 59.1296 22.3676 59.0116 22.387C58.8928 22.4118 58.7703 22.4118 58.6516 22.387C58.5367 22.352 58.4285 22.2979 58.3316 22.227C58.2421 22.1566 58.1677 22.069 58.1127 21.9694C58.0578 21.8698 58.0234 21.7601 58.0116 21.647C57.9811 21.4164 58.0421 21.1831 58.1816 20.997L62.7116 15.187C62.7804 15.0896 62.869 15.0078 62.9716 14.947C63.073 14.8864 63.1849 14.8456 63.3016 14.827C63.4173 14.8064 63.5358 14.8064 63.6516 14.827C63.7736 14.8666 63.886 14.9313 63.9816 15.017Z" fill="#333333"/>
<path d="M58.6917 16.1174C58.8717 16.2609 58.9874 16.4698 59.0137 16.6985C59.0399 16.9272 58.9745 17.1569 58.8317 17.3374L56.8317 19.9074C56.6881 20.0864 56.4797 20.2014 56.2517 20.2274C56.1391 20.2428 56.0245 20.2357 55.9147 20.2065C55.8048 20.1773 55.7018 20.1266 55.6117 20.0574V20.0574C55.5201 19.988 55.445 19.8992 55.3917 19.7974C55.3314 19.7004 55.2938 19.591 55.2817 19.4774C55.2564 19.3655 55.2564 19.2493 55.2817 19.1374C55.3148 19.0248 55.3691 18.9196 55.4417 18.8274L57.4417 16.2674C57.5139 16.1785 57.6021 16.1039 57.7017 16.0474C57.8008 15.9917 57.9092 15.9544 58.0217 15.9374C58.1342 15.918 58.2492 15.918 58.3617 15.9374C58.4738 15.9667 58.5791 16.0177 58.6717 16.0874L58.6917 16.1174Z" fill="#333333"/>
<path d="M55.982 13.9572C56.0733 14.0298 56.1511 14.1178 56.212 14.2172C56.2647 14.3168 56.2986 14.4253 56.312 14.5372C56.3374 14.6491 56.3374 14.7653 56.312 14.8772C56.2827 14.9893 56.2317 15.0946 56.162 15.1872L54.162 17.7472C54.0929 17.8443 54.0044 17.9261 53.902 17.9872C53.8007 18.0478 53.6887 18.0885 53.572 18.1072C53.4567 18.1324 53.3374 18.1324 53.222 18.1072C53.1069 18.0778 52.9983 18.027 52.902 17.9572V17.9572C52.7219 17.8089 52.6041 17.5983 52.572 17.3672C52.546 17.1385 52.6107 16.9088 52.752 16.7272L54.752 14.1672C54.8199 14.0697 54.9045 13.985 55.002 13.9172C55.1077 13.858 55.2227 13.8175 55.342 13.7972C55.4578 13.7766 55.5763 13.7766 55.6921 13.7972C55.8046 13.8302 55.9099 13.8846 56.002 13.9572H55.982Z" fill="#333333"/>
<path d="M53.1718 11.827C53.2739 11.8893 53.3596 11.975 53.4218 12.077C53.4852 12.1771 53.5261 12.2897 53.5418 12.407C53.5669 12.5257 53.5669 12.6484 53.5418 12.767C53.5027 12.8802 53.4489 12.9878 53.3818 13.087L51.3818 15.637C51.3169 15.737 51.2318 15.8222 51.1318 15.887C51.0262 15.9462 50.9112 15.9867 50.7918 16.007C50.6765 16.0322 50.5571 16.0322 50.4418 16.007C50.3237 15.9807 50.2138 15.9257 50.1218 15.847V15.847C50.0227 15.7845 49.9403 15.6987 49.8818 15.597C49.8128 15.4961 49.7714 15.3789 49.7618 15.257C49.7369 15.1417 49.7369 15.0224 49.7618 14.907C49.7968 14.7922 49.8509 14.684 49.9218 14.587L51.9218 12.037C51.9926 11.9386 52.0807 11.8539 52.1818 11.787C52.2839 11.7279 52.3956 11.6873 52.5118 11.667C52.6305 11.6422 52.7531 11.6422 52.8718 11.667C52.9825 11.6974 53.085 11.752 53.1718 11.827V11.827Z" fill="#333333"/>
<path d="M50.432 9.67731C50.5223 9.74684 50.5973 9.83421 50.6523 9.934C50.7074 10.0338 50.7413 10.1438 50.752 10.2573C50.7673 10.3699 50.7602 10.4845 50.731 10.5943C50.7019 10.7042 50.6512 10.8072 50.582 10.8973L48.582 13.4673C48.5131 13.5647 48.4245 13.6464 48.322 13.7073C48.2206 13.7679 48.1086 13.8086 47.992 13.8273C47.8762 13.8479 47.7577 13.8479 47.642 13.8273C47.5266 13.7936 47.4181 13.7394 47.322 13.6673C47.2224 13.601 47.1401 13.5119 47.082 13.4073C47.0129 13.3102 46.9714 13.1961 46.962 13.0773C46.9372 12.9586 46.9372 12.836 46.962 12.7173C46.9909 12.6031 47.0456 12.497 47.122 12.4073L49.122 9.84731C49.1916 9.74436 49.284 9.65882 49.392 9.59731C49.4958 9.52664 49.6166 9.48519 49.742 9.4773C49.8601 9.44767 49.9838 9.44767 50.102 9.4773C50.2196 9.51519 50.3285 9.57641 50.422 9.6573L50.432 9.67731Z" fill="#333333"/>
<path d="M50.2019 4.28725C50.2935 4.35665 50.3686 4.44544 50.4219 4.54725C50.4822 4.6443 50.5198 4.75367 50.5319 4.86725C50.5573 4.97917 50.5573 5.09534 50.5319 5.20726C50.4988 5.31985 50.4445 5.42507 50.3719 5.51725L45.8519 11.3173C45.7811 11.4157 45.693 11.5004 45.5919 11.5673C45.4905 11.6278 45.3785 11.6686 45.2619 11.6873C45.1466 11.7124 45.0272 11.7124 44.9119 11.6873C44.7938 11.6609 44.6839 11.606 44.5919 11.5273V11.5273C44.5007 11.4547 44.4228 11.3667 44.3619 11.2673C44.3093 11.1676 44.2754 11.0591 44.2619 10.9473C44.2369 10.8353 44.2369 10.7192 44.2619 10.6073C44.2915 10.4983 44.3425 10.3963 44.4119 10.3073L48.9819 4.46725C49.0472 4.37035 49.1324 4.28853 49.2319 4.22725C49.334 4.1681 49.4457 4.12747 49.5619 4.10725C49.6811 4.0873 49.8027 4.0873 49.9219 4.10725C50.0345 4.14032 50.1397 4.19464 50.2319 4.26725L50.2019 4.28725Z" fill="#333333"/>
<path d="M44.922 5.38744C45.0189 5.45272 45.1007 5.53796 45.162 5.63744C45.2299 5.73976 45.2744 5.85588 45.292 5.97744C45.3126 6.09319 45.3126 6.21167 45.292 6.32743C45.2583 6.44285 45.2041 6.55125 45.132 6.64743L43.132 9.19744C43.0671 9.29737 42.9819 9.38255 42.882 9.44744C42.7783 9.51074 42.6625 9.55162 42.542 9.56744C42.4273 9.59752 42.3067 9.59752 42.192 9.56744C42.0747 9.53862 41.9654 9.48395 41.872 9.40744V9.40744C41.7728 9.34489 41.6904 9.25907 41.632 9.15744C41.5657 9.05794 41.5214 8.94543 41.502 8.82743C41.4772 8.70872 41.4772 8.58615 41.502 8.46743C41.537 8.35254 41.5911 8.24436 41.662 8.14743L43.662 5.59744C43.7269 5.4975 43.8121 5.41233 43.912 5.34744C44.0141 5.28829 44.1258 5.24766 44.242 5.22744C44.3616 5.20966 44.4836 5.21646 44.6005 5.24741C44.7174 5.27836 44.8268 5.3328 44.922 5.40744V5.38744Z" fill="#333333"/>
<path d="M42.1622 3.24715C42.2535 3.31975 42.3313 3.40773 42.3922 3.50715C42.4449 3.60679 42.4788 3.71525 42.4922 3.82715C42.5172 3.9391 42.5172 4.0552 42.4922 4.16715C42.4551 4.27497 42.4011 4.37622 42.3323 4.46715L40.3323 7.02715C40.1897 7.20903 39.9814 7.32756 39.7522 7.35714C39.6396 7.37251 39.5251 7.3654 39.4152 7.33622C39.3054 7.30704 39.2024 7.25637 39.1122 7.18715C39.0138 7.11635 38.9291 7.02826 38.8622 6.92715C38.8017 6.82577 38.7609 6.71377 38.7422 6.59715C38.7174 6.47843 38.7174 6.35587 38.7422 6.23715C38.7712 6.12294 38.8259 6.01688 38.9022 5.92715L40.9022 3.35714C40.9755 3.26275 41.0674 3.18446 41.1722 3.12715C41.2749 3.07309 41.3869 3.03915 41.5022 3.02715C41.618 3.00657 41.7365 3.00657 41.8522 3.02715C41.9639 3.06515 42.0662 3.12652 42.1522 3.20715L42.1622 3.24715Z" fill="#333333"/>
<path d="M39.4124 1.09735C39.504 1.16675 39.5791 1.25553 39.6324 1.35735C39.6926 1.45439 39.7302 1.56378 39.7424 1.67735C39.7674 1.78931 39.7674 1.9054 39.7424 2.01735C39.7076 2.12926 39.6535 2.23419 39.5824 2.32735L37.5824 4.87735C37.5116 4.97575 37.4235 5.06047 37.3224 5.12735C37.221 5.18794 37.109 5.22867 36.9924 5.24735C36.8771 5.27254 36.7577 5.27254 36.6424 5.24735C36.5242 5.221 36.4144 5.16605 36.3224 5.08735C36.2274 5.02162 36.1484 4.93535 36.0913 4.83495C36.0342 4.73455 36.0004 4.62259 35.9924 4.50735C35.9674 4.39539 35.9674 4.27931 35.9924 4.16735C36.0214 4.05615 36.0762 3.95336 36.1524 3.86735L38.1524 1.30735C38.2211 1.20715 38.3096 1.12207 38.4124 1.05735C38.5138 0.996759 38.6258 0.956031 38.7424 0.937348C38.8577 0.91216 38.9771 0.91216 39.0924 0.937348C39.2105 0.963706 39.3204 1.01865 39.4124 1.09735V1.09735Z" fill="#333333"/>
<path d="M36.6616 -1.0527C36.8435 -0.910193 36.962 -0.701863 36.9916 -0.472703C37.0145 -0.244303 36.9502 -0.0156995 36.8116 0.167297L34.8116 2.7373C34.7394 2.82617 34.6512 2.90079 34.5516 2.9573C34.4525 3.01302 34.3441 3.05029 34.2316 3.0673C34.1191 3.08671 34.0041 3.08671 33.8916 3.0673C33.7827 3.03772 33.6807 2.98673 33.5916 2.9173C33.5 2.84789 33.4249 2.75911 33.3716 2.65729C33.3114 2.56025 33.2738 2.45087 33.2616 2.33729C33.2422 2.22479 33.2422 2.1098 33.2616 1.9973C33.2912 1.88833 33.3422 1.78634 33.4116 1.6973L35.4116 -0.872704C35.5584 -1.0505 35.7678 -1.16518 35.9967 -1.19309C36.2256 -1.221 36.4564 -1.16001 36.6416 -1.02271L36.6616 -1.0527Z" fill="#333333"/>
<path d="M36.4421 -6.44285C36.5337 -6.37345 36.6088 -6.28467 36.6621 -6.18285C36.7178 -6.08372 36.7551 -5.97529 36.7721 -5.86285C36.7915 -5.75035 36.7915 -5.63535 36.7721 -5.52285C36.739 -5.4133 36.6847 -5.31136 36.6121 -5.22285L32.0921 0.587149C31.9496 0.769028 31.7413 0.887562 31.5121 0.91715C31.3995 0.932513 31.285 0.925395 31.1751 0.896215C31.0653 0.867036 30.9623 0.816375 30.8721 0.747152V0.747152C30.7809 0.674557 30.7031 0.586563 30.6421 0.48715C30.5907 0.386162 30.5536 0.278443 30.5321 0.16715C30.5127 0.054648 30.5127 -0.060351 30.5321 -0.172853C30.5615 -0.284967 30.6124 -0.390269 30.6821 -0.482851L35.2221 -6.29285C35.2879 -6.38399 35.3734 -6.45918 35.4721 -6.51285C35.5722 -6.57454 35.6851 -6.61219 35.8021 -6.62285C35.9141 -6.64785 36.0302 -6.64785 36.1421 -6.62285C36.2517 -6.58977 36.3536 -6.5354 36.4421 -6.46285V-6.44285Z" fill="#333333"/>
<path d="M73.2221 106.587L53.8721 100.117C51.8663 99.4162 50.2168 97.9542 49.28 96.0471C48.3431 94.14 48.1942 91.9409 48.8653 89.9249C49.5365 87.9089 50.9738 86.2378 52.8667 85.2727C54.7597 84.3077 56.9564 84.1261 58.9821 84.7672L78.3321 91.2372C80.3614 91.9257 82.0362 93.3885 82.9915 95.3066C83.9468 97.2248 84.1052 99.4428 83.4321 101.477V101.477C82.7501 103.511 81.2888 105.192 79.369 106.15C77.4492 107.108 75.2277 107.265 73.1921 106.587H73.2221Z" fill="#3B3E42"/>
<path d="M61.982 240.447C61.2769 242.553 60.1632 244.499 58.7046 246.174C57.246 247.849 55.4712 249.22 53.482 250.207C51.4941 251.201 49.3292 251.793 47.1119 251.947C44.8946 252.102 42.6686 251.816 40.562 251.107L-145.438 188.867C-147.546 188.167 -149.495 187.057 -151.173 185.602C-152.851 184.147 -154.226 182.375 -155.218 180.387C-156.211 178.399 -156.802 176.235 -156.958 174.018C-157.114 171.801 -156.832 169.575 -156.128 167.467L-116.708 49.5772C-115.998 47.472 -114.884 45.5256 -113.428 43.8472C-111.229 41.3255 -108.334 39.5108 -105.106 38.6317C-101.878 37.7526 -98.4617 37.8485 -95.288 38.9072L90.712 101.147C92.819 101.85 94.7666 102.962 96.4431 104.419C98.1196 105.875 99.4921 107.649 100.482 109.637C101.481 111.623 102.073 113.789 102.222 116.007C102.378 118.224 102.096 120.45 101.392 122.557L61.982 240.447Z" fill="#F54141"/>
<path d="M31.6423 46.0171L-14.8677 30.4171C-16.9746 29.7048 -19.2015 29.4158 -21.4205 29.5668C-23.6394 29.7178 -25.8067 30.3059 -27.7977 31.2971C-29.7887 32.2862 -31.5653 33.6583 -33.0255 35.3347C-34.4857 37.0112 -35.6011 38.9592 -36.3077 41.0671L-41.5977 56.8771L-24.7877 62.4971L-19.7877 47.4971L25.2123 62.5571L20.2123 77.5571L37.0223 83.1871L42.3123 67.3871C43.0166 65.2793 43.2987 63.0534 43.1425 60.8366C42.9864 58.6198 42.3951 56.4554 41.4023 54.4671C39.3902 50.4576 35.8749 47.4059 31.6223 45.9771L31.6423 46.0171Z" fill="#3B3E42"/>
<path d="M-47.1376 204.117C-35.4454 208.019 -22.8587 208.367 -10.9687 205.117C0.921219 201.867 11.5805 195.164 19.6615 185.856C27.7425 176.549 32.8823 165.054 34.4312 152.825C35.9801 140.597 33.8684 128.184 28.3633 117.155C22.8581 106.127 14.2065 96.9779 3.50246 90.8657C-7.20164 84.7536 -19.4776 81.9525 -31.7735 82.8164C-44.0695 83.6804 -55.8331 88.1707 -65.5773 95.7196C-75.3216 103.268 -82.6087 113.537 -86.5176 125.227C-91.7563 140.911 -90.5504 158.033 -83.1653 172.827C-75.7803 187.622 -62.8208 198.877 -47.1376 204.117V204.117Z" fill="white"/>
<path d="M18.4925 144.527L-8.23754 135.587L0.702461 108.877L-26.6675 99.7271L-35.5975 126.437L-62.3275 117.497L-71.4775 144.837L-44.7475 153.777L-53.6875 180.487L-26.3175 189.647L-17.3875 162.937L9.34246 171.877L18.4925 144.527Z" fill="#F54141"/>
<path d="M134.982 164.697V151.547L134.852 148.437H135.112L136.422 151.547L142.342 163.417H146.502L152.422 151.547L153.732 148.437H153.982L153.852 151.547V164.697H157.302V143.257H152.602L146.492 155.667L144.602 160.117H144.342L142.392 155.667L136.222 143.257H131.512V164.697H134.982ZM169.482 165.017C174.222 165.017 177.552 162.677 177.552 159.287V159.017H174.092V159.277C174.092 161.167 172.712 162.277 169.392 162.277C165.712 162.277 164.202 160.647 164.072 157.577H177.582C177.674 157.083 177.717 156.58 177.712 156.077C177.712 151.237 174.352 148.517 169.422 148.517C164.232 148.517 160.842 151.847 160.842 156.807C160.862 162.067 164.292 165.017 169.502 165.017H169.482ZM169.352 151.187C172.752 151.187 174.442 152.597 174.442 155.547V155.607H164.132C164.322 152.757 165.852 151.187 169.372 151.187H169.352ZM188.282 165.017C191.872 165.017 194.202 163.287 194.882 160.117H195.102V164.697H198.272V143.257H194.812V153.107H194.622C193.982 150.427 191.842 148.467 188.062 148.467C183.232 148.467 180.482 151.797 180.482 156.757C180.482 161.717 183.262 165.017 188.282 165.017ZM183.982 156.757C183.982 152.917 185.982 151.607 189.302 151.607C192.852 151.607 194.832 153.267 194.832 156.667V156.917C194.832 160.247 192.752 161.847 189.362 161.847C185.972 161.847 183.982 160.567 183.982 156.757ZM205.902 146.937V143.257H202.442V146.937H205.902ZM205.902 164.697V148.787H202.442V164.697H205.902ZM218.092 165.017C222.862 165.017 226.352 162.327 226.352 158.357V158.017H222.922V158.237C222.922 160.707 221.132 161.917 218.032 161.917C214.442 161.917 212.842 160.197 212.842 156.767C212.842 153.337 214.442 151.587 218.032 151.587C221.132 151.587 222.922 152.797 222.922 155.267V155.457H226.352V155.137C226.352 151.137 222.862 148.477 218.092 148.477C212.842 148.477 209.422 151.807 209.422 156.767C209.422 161.727 212.822 165.017 218.072 165.017H218.092ZM233.322 146.937V143.257H229.862V146.937H233.322ZM233.322 164.697V148.787H229.862V164.697H233.322ZM240.932 164.697V156.827C240.932 153.367 242.502 151.577 245.992 151.577C249.292 151.577 250.632 153.077 250.632 156.057V164.697H254.092V155.127C254.092 151.447 251.912 148.467 247.492 148.467C245.933 148.364 244.393 148.845 243.169 149.815C241.945 150.786 241.127 152.177 240.872 153.717H240.652V148.787H237.482V164.697H240.932ZM266.132 165.017C270.862 165.017 274.192 162.677 274.192 159.287V159.017H270.732V159.277C270.732 161.167 269.362 162.277 266.032 162.277C262.352 162.277 260.852 160.647 260.722 157.577H274.222C274.319 157.083 274.362 156.581 274.352 156.077C274.352 151.237 270.992 148.517 266.062 148.517C260.882 148.517 257.492 151.847 257.492 156.807C257.472 162.067 260.892 165.017 266.112 165.017H266.132ZM265.982 151.187C269.372 151.187 271.072 152.597 271.072 155.547V155.607H260.732C260.922 152.757 262.462 151.187 265.982 151.187ZM285.402 165.017C289.882 165.017 292.822 163.257 292.822 160.277C292.822 157.657 291.092 156.377 287.322 155.897L283.642 155.387C281.242 155.067 280.642 154.617 280.642 153.387C280.642 151.887 281.642 151.247 284.572 151.247C288.092 151.247 289.052 152.247 289.052 154.127V154.317H292.482V154.217C292.482 150.447 289.532 148.487 284.672 148.487C279.812 148.487 277.252 150.487 277.252 153.257C277.252 156.027 279.072 157.197 282.082 157.577L286.432 158.157C288.702 158.477 289.432 158.887 289.432 160.157C289.432 161.427 288.502 162.157 285.432 162.157C282.102 162.157 280.852 161.487 280.852 159.407V159.157H277.402V159.247C277.372 163.017 280.282 165.017 285.402 165.017Z" fill="white"/>
<path d="M213.832 49.9072L268.102 -6.98279C270.762 -9.76279 262.722 -21.7428 250.102 -33.7328C237.482 -45.7228 225.212 -53.2028 222.552 -50.4128L168.252 6.58721L213.832 49.9072Z" fill="#FFBA37"/>
<path d="M209.441 31.5472L250.071 -11.0728C252.071 -13.1628 246.071 -22.1328 236.631 -31.0728C227.191 -40.0128 217.981 -45.6428 215.981 -43.5528L175.371 -0.932777L209.441 31.5472Z" fill="#F6F2E6"/>
<path d="M161.633 5.47723L215.153 56.4772L217.843 53.6572L164.323 2.65723L161.633 5.47723Z" fill="#FFBA37"/>
<path d="M158.982 8.29705L212.502 59.2971L215.182 56.4771L161.662 5.47705L158.982 8.29705Z" fill="#DFE6E8"/>
<path d="M189.281 68.127L193.041 71.717L208.481 55.517L204.721 51.937L189.281 68.127Z" fill="#F2F2F2"/>
<path d="M185.521 64.5474L189.281 68.1274L204.721 51.9374L200.981 48.3574L185.521 64.5474Z" fill="#DFE6E8"/>
<path d="M181.771 61.0173L185.531 64.6073L200.981 48.3573L197.221 44.7773L181.771 61.0173Z" fill="#F2F2F2"/>
<path d="M177.982 57.3873L181.742 60.9673L197.182 44.7773L193.422 41.1973L177.982 57.3873Z" fill="#DFE6E8"/>
<path d="M174.262 53.8072L178.022 57.3972L193.462 41.1972L189.702 37.6172L174.262 53.8072Z" fill="#F2F2F2"/>
<path d="M170.502 50.2271L174.262 53.8071L189.702 37.6171L185.982 34.0171L170.502 50.2271Z" fill="#DFE6E8"/>
<path d="M166.752 46.647L170.502 50.227L185.982 34.017L182.232 30.437L166.752 46.647Z" fill="#F2F2F2"/>
<path d="M162.982 43.0672L166.742 46.6472L182.182 30.4572L178.422 26.8672L162.982 43.0672Z" fill="#DFE6E8"/>
<path d="M159.232 39.4871L162.992 43.0671L178.432 26.8771L174.672 23.2871L159.232 39.4871Z" fill="#F2F2F2"/>
<path d="M155.482 35.907L159.232 39.487L174.672 23.287L170.922 19.707L155.482 35.907Z" fill="#DFE6E8"/>
<path d="M151.723 32.327L155.483 35.907L170.923 19.7169L167.163 16.127L151.723 32.327Z" fill="#F2F2F2"/>
<path d="M147.982 28.7374L151.742 32.3274L167.182 16.1274L163.422 12.5474L147.982 28.7374Z" fill="#DFE6E8"/>
<path d="M185.092 -4.98301L200.652 9.84699L215.472 -5.70301L199.922 -20.583L185.092 -4.98301Z" fill="#787E88"/>
</g>
<defs>
<clipPath id="clip0_1659:5348">
<rect width="335" height="197" fill="white"/>
</clipPath>
</defs>
</svg>
