<svg xmlns="http://www.w3.org/2000/svg" xmlns:xlink="http://www.w3.org/1999/xlink" viewBox="0 0 334 200"><defs><style>.cls-1{fill:none;}.cls-2{clip-path:url(#clip-path);}.cls-3{fill:#3057e0;}.cls-4{clip-path:url(#clip-path-2);}.cls-5{fill:#1d3dae;}.cls-6{clip-path:url(#clip-path-3);}.cls-7{fill:#abe1ff;}.cls-8{clip-path:url(#clip-path-4);}.cls-9{fill:#b0cbff;}.cls-10,.cls-11,.cls-12,.cls-9{fill-rule:evenodd;}.cls-10,.cls-11,.cls-19{fill:#fff;}.cls-10{opacity:0.49;}.cls-10,.cls-12,.cls-14{isolation:isolate;}.cls-12{fill:#334f70;opacity:0.38;}.cls-13{fill:#ccc;}.cls-14{fill:#dceef5;opacity:0.9;}.cls-15{fill:#c1272d;}.cls-16{fill:#333;}.cls-17{fill:#3b3e42;}.cls-18{fill:#f54141;}.cls-20{fill:#ffba37;}.cls-21{fill:#f6f2e6;}.cls-22{fill:#dfe6e8;}.cls-23{fill:#f2f2f2;}.cls-24{fill:#787e88;}</style><clipPath id="clip-path"><rect id="SVGID" class="cls-1" x="71.29" y="-988.12" width="1587" height="773"/></clipPath><clipPath id="clip-path-2"><rect id="SVGID-2" data-name="SVGID" class="cls-1" x="22.72" y="-988.12" width="540" height="1145"/></clipPath><clipPath id="clip-path-3"><rect id="SVGID-3" data-name="SVGID" class="cls-1" y="283.85" width="334" height="200" rx="8"/></clipPath><clipPath id="clip-path-4"><rect id="SVGID-4" data-name="SVGID" class="cls-1" width="334" height="200" rx="8"/></clipPath></defs><title>illustration</title><g id="buildings"><g class="cls-2"><rect class="cls-3" x="-586.11" y="-372.4" width="971.02" height="405.55"/><g class="cls-4"><path class="cls-5" d="M39.79-877.67l270.92-97v1201H39.79Z"/><path class="cls-5" d="M304.44-631l239.18,52.8v818.8H304.44Z"/></g></g></g><g id="houses"><g class="cls-6"><path class="cls-7" d="M136.73,368.6l-116.22-88a10.23,10.23,0,0,1-1.92-14.32L67.88,201.1a10.23,10.23,0,0,1,14.32-1.92l116.14,87.95a10.24,10.24,0,0,1,1.92,14.33L151,366.6A10.14,10.14,0,0,1,136.73,368.6Z"/></g><g class="cls-8"><rect class="cls-5" width="334" height="200" rx="8"/><path class="cls-9" d="M250.56,85.61c.12-3.45,1.89-7.31,3.58-10.25C259,66.86,264.58,58.78,270,51.14c1.75-2.47,3.74-5,5.52-7.86,3.56-5.52,6.39-10.65,10.63-16.1,2.25-2.88,5-6.06,8.19-6.89,6.05-1.69,13.07,1.9,17.08,4.38,4.77,3,9.19,6,13.51,8.87,9.2,6,17.51,11.57,26.79,17.82S370,63.24,379,68.77c6.73,4.14,13.51,8.86,20.21,13.34,3.78,2.46,7.49,4.57,8.66,9a10.46,10.46,0,0,1,0,4.16c-.69,3.39-3.08,6.49-4.75,9.32s-3.69,5.73-5.58,8.42c-7.29,10.45-14.56,23.09-22.29,33.37-3.74,5-8.26,10.92-14,13.11-6.59,2.44-15-2.56-19.85-5.59s-8.86-5.86-12.71-8.78c-4.29-3.2-8.6-6.18-12.57-9.12-8.06-5.77-17.09-12.22-26-17.28-4.47-2.53-9.35-5.56-13.46-8.28-6.16-4.09-12.95-8.69-18.91-13.57a27.58,27.58,0,0,1-5.35-5.26A8.64,8.64,0,0,1,250.56,85.61Z"/><path class="cls-10" d="M274.89,54.12,270.07,51l2.48-3.41,4.64,3.05Zm19.29,12.62-9.64-6.31,2.3-3.52,9.64,6.32Zm19.3,12.63-9.65-6.31,2.3-3.52,9.65,6.31ZM332.77,92l-9.64-6.31,2.3-3.52,9.65,6.31Zm14.47,9.47-4.82-3.16,2.3-3.51,4.83,3.15Z"/><path class="cls-11" d="M319.18,59.24a11.56,11.56,0,0,1,1.36-5.39,9,9,0,0,1,10-3.14c3.56,1.28,7.73,7.93,4.44,13.13a9,9,0,0,1-5.56,3.59,9.44,9.44,0,0,1-10.23-6C319.15,60.74,319.22,60.05,319.18,59.24Z"/><path class="cls-12" d="M320.35,59.13c2.57-1.47,6.55-2.1,10.26-2.3,1.05-.13,2.59-.55,3.42.46.2,1.4-1.43,1.58-2.51,1.94s-2.35.45-3.41.69c-2.34.34-5.74.92-7.31.41-.22,0-.44-.16-.42-.39A1.78,1.78,0,0,1,320.35,59.13Z"/><path class="cls-11" d="M290.31,40.41a11.56,11.56,0,0,1,1.36-5.4,9,9,0,0,1,10-3.14c3.56,1.29,7.73,7.93,4.43,13.13a9,9,0,0,1-5.55,3.59c-5.15.75-9.29-2.78-10.23-6A6.1,6.1,0,0,1,290.31,40.41Z"/><path class="cls-12" d="M291.46,40.41C294,38.94,298,38.3,301.73,38.1c1-.12,2.59-.54,3.41.47.2,1.4-1.43,1.58-2.5,1.93s-2.35.46-3.42.69c-2.34.34-5.74.92-7.3.42-.23,0-.45-.16-.42-.39A2,2,0,0,1,291.46,40.41Z"/><path class="cls-11" d="M320,115.71a10.29,10.29,0,0,1,1.36-5.4,9,9,0,0,1,10-3.13c3.56,1.28,7.73,7.93,4.43,13.13a9,9,0,0,1-5.55,3.59c-5.15.74-9.29-2.79-10.23-6C320,117.21,320.07,116.52,320,115.71Z"/><path class="cls-12" d="M321.2,115.6c2.57-1.47,6.55-2.1,10.26-2.31,1.05-.12,2.59-.54,3.41.47.21,1.4-1.43,1.58-2.5,1.93s-2.35.46-3.41.69c-2.34.34-5.75.92-7.31.42-.23,0-.44-.16-.42-.39A1.85,1.85,0,0,1,321.2,115.6Z"/><path class="cls-11" d="M293.35,98a10.26,10.26,0,0,1,1.35-5.4,9,9,0,0,1,10-3.14c3.56,1.29,7.73,7.93,4.44,13.13a9,9,0,0,1-5.55,3.59c-5.15.75-9.29-2.78-10.23-6A6.39,6.39,0,0,1,293.35,98Z"/><path class="cls-12" d="M294.5,98c2.57-1.47,6.55-2.1,10.27-2.31,1.05-.12,2.59-.54,3.41.47.2,1.4-1.43,1.58-2.51,1.93s-2.35.46-3.41.69c-2.34.34-5.74.92-7.31.42-.22,0-.44-.16-.42-.39A2.29,2.29,0,0,1,294.5,98Z"/><path class="cls-11" d="M264.35,79.28a11.46,11.46,0,0,1,1.35-5.4,9,9,0,0,1,10-3.13c3.56,1.28,7.73,7.93,4.44,13.13a9,9,0,0,1-5.55,3.59c-5.15.74-9.29-2.79-10.23-6C264.31,80.78,264.38,80.09,264.35,79.28Z"/><path class="cls-12" d="M265.51,79.17c2.57-1.47,6.56-2.11,10.27-2.31,1.05-.12,2.59-.54,3.41.47.2,1.4-1.43,1.58-2.5,1.93s-2.36.46-3.42.69c-2.34.34-5.74.92-7.3.42-.23,0-.45-.16-.42-.39A1.64,1.64,0,0,1,265.51,79.17Z"/><path class="cls-13" d="M81.82,38.31,97.37,50.43a4.46,4.46,0,0,0,3.24.81,4.5,4.5,0,0,0,2.91-1.67,4.48,4.48,0,0,0-.67-6.18L87.3,31.28a11.22,11.22,0,0,1-5.48,7Z"/><path class="cls-14" d="M-28.71-53.46a23.83,23.83,0,0,0-5,14.62,23.84,23.84,0,0,0,5,14.63,23.73,23.73,0,0,0,13,8.45A23.8,23.8,0,0,0-.37-17l69.79,54.4a11.33,11.33,0,0,0,15.86-2,11.31,11.31,0,0,0,1.77-10.59,11.36,11.36,0,0,0-3.78-5.3L13.45-34.87a23.81,23.81,0,0,0-2.52-15.25A23.8,23.8,0,0,0-.43-60.6a23.78,23.78,0,0,0-15.4-1.3,23.86,23.86,0,0,0-12.95,8.44Z"/><path class="cls-15" d="M39.39,5.9,73.32,32.34a5,5,0,0,0,5.88.9,5.13,5.13,0,0,0,1.61-1.36A4.81,4.81,0,0,0,81.72,30a5,5,0,0,0,.06-2.11A5.19,5.19,0,0,0,81,25.94a5.13,5.13,0,0,0-1.54-1.43L45.45-2Z"/><path class="cls-16" d="M75.13,27.94a1,1,0,0,1,.24.26.93.93,0,0,1,.12.33.82.82,0,0,1,0,.35.86.86,0,0,1-.15.32L70.79,35a.93.93,0,0,1-.58.33.91.91,0,0,1-.64-.18h0a1,1,0,0,1-.23-.26.92.92,0,0,1-.1-.32.77.77,0,0,1,0-.34.89.89,0,0,1,.15-.31l4.53-5.8a.82.82,0,0,1,.56-.33.84.84,0,0,1,.63.14Z"/><path class="cls-16" d="M69.82,29.07a.82.82,0,0,1,.23.26.94.94,0,0,1,.11.32,1,1,0,0,1,0,.34.89.89,0,0,1-.15.31l-2,2.55a.78.78,0,0,1-.25.23.92.92,0,0,1-.33.11,1,1,0,0,1-.34,0,.85.85,0,0,1-.3-.15h0a.88.88,0,0,1-.33-.58.89.89,0,0,1,.17-.65l2-2.55a.84.84,0,0,1,.58-.33.86.86,0,0,1,.64.17Z"/><path class="cls-16" d="M67.07,26.92a.88.88,0,0,1,.33.58.91.91,0,0,1-.18.64l-2,2.56a.84.84,0,0,1-.58.33.89.89,0,0,1-.65-.17h0a.92.92,0,0,1-.22-.26.94.94,0,0,1-.11-.32,1,1,0,0,1,0-.34.89.89,0,0,1,.15-.31l2-2.55a.78.78,0,0,1,.25-.23.92.92,0,0,1,.33-.11,1,1,0,0,1,.34,0,.85.85,0,0,1,.3.15Z"/><path class="cls-16" d="M64.28,24.75a.89.89,0,0,1,.25.26.93.93,0,0,1,.12.33.82.82,0,0,1,0,.35.74.74,0,0,1-.16.32l-2,2.56a1,1,0,0,1-.26.24.93.93,0,0,1-.33.12.82.82,0,0,1-.35,0,.86.86,0,0,1-.32-.15h0A1,1,0,0,1,61,28.5a.93.93,0,0,1-.12-.33.82.82,0,0,1,0-.35A.74.74,0,0,1,61,27.5l2-2.57a.86.86,0,0,1,.26-.24.93.93,0,0,1,.33-.12.84.84,0,0,1,.35,0,.92.92,0,0,1,.31.16Z"/><path class="cls-16" d="M64.09,19.38a.78.78,0,0,1,.22.26.76.76,0,0,1,.11.32,1,1,0,0,1,0,.34,1,1,0,0,1-.16.31l-4.52,5.8a1,1,0,0,1-.26.25.93.93,0,0,1-.33.12.88.88,0,0,1-.36,0,.92.92,0,0,1-.31-.16h0a.88.88,0,0,1-.33-.58.89.89,0,0,1,.17-.65l4.53-5.81a1.2,1.2,0,0,1,.26-.24.87.87,0,0,1,.68-.1.88.88,0,0,1,.32.16Z"/><path class="cls-16" d="M58.81,20.48a.88.88,0,0,1,.33.58.91.91,0,0,1-.18.64l-2,2.57a.83.83,0,0,1-.58.32.85.85,0,0,1-.63-.17h0a.82.82,0,0,1-.23-.26.94.94,0,0,1-.11-.32,1,1,0,0,1,0-.34.89.89,0,0,1,.15-.31l2-2.55a.92.92,0,0,1,.25-.23,1.17,1.17,0,0,1,.33-.11,1,1,0,0,1,.34,0,.85.85,0,0,1,.3.15Z"/><path class="cls-16" d="M56.07,18.32a.92.92,0,0,1,.22.26.94.94,0,0,1,.11.32,1,1,0,0,1,0,.35.85.85,0,0,1-.15.3l-2,2.56a.82.82,0,0,1-.25.24,1,1,0,0,1-.33.12.88.88,0,0,1-.36,0A1,1,0,0,1,53,22.3h0a.9.9,0,0,1-.15-1.23l2-2.56a.85.85,0,0,1,.26-.24.66.66,0,0,1,.33-.12.82.82,0,0,1,.35,0,.94.94,0,0,1,.32.15Z"/><path class="cls-16" d="M53.3,16.19a.82.82,0,0,1,.24.25.85.85,0,0,1,.11.69,1,1,0,0,1-.16.32l-2,2.55a.75.75,0,0,1-.25.25.82.82,0,0,1-.33.12.73.73,0,0,1-.36,0,1,1,0,0,1-.32-.15h0a1,1,0,0,1-.24-.26,1,1,0,0,1-.12-.33.88.88,0,0,1,0-.36.89.89,0,0,1,.15-.31l2-2.56a.75.75,0,0,1,.26-.24.79.79,0,0,1,.33-.13A1,1,0,0,1,53,16,.81.81,0,0,1,53.3,16.19Z"/><path class="cls-16" d="M50.55,14a.91.91,0,0,1,.33.58.86.86,0,0,1-.18.64l-2,2.57a.85.85,0,0,1-.26.24.7.7,0,0,1-.33.12.87.87,0,0,1-.36,0,.77.77,0,0,1-.31-.16h0a.75.75,0,0,1-.25-.25,1.06,1.06,0,0,1-.12-.34.82.82,0,0,1,0-.35.88.88,0,0,1,.16-.32l2-2.56a.88.88,0,0,1,.26-.25.77.77,0,0,1,.35-.12.87.87,0,0,1,.36,0,.92.92,0,0,1,.32.18Z"/><path class="cls-16" d="M50.32,8.65a1,1,0,0,1,.23.26.94.94,0,0,1,.11.32,1,1,0,0,1,0,.34.89.89,0,0,1-.15.31L46,15.68a.85.85,0,0,1-.25.25,1,1,0,0,1-.34.12A.83.83,0,0,1,45,16a.81.81,0,0,1-.32-.16h0a.88.88,0,0,1-.22-.25.76.76,0,0,1-.11-.33,1,1,0,0,1,0-.34,1.08,1.08,0,0,1,.16-.3l4.53-5.81a1,1,0,0,1,.26-.25.93.93,0,0,1,.33-.12,1,1,0,0,1,.35,0,1.14,1.14,0,0,1,.31.16Z"/><path class="cls-16" d="M45,9.75a1,1,0,0,1,.25.25,1.06,1.06,0,0,1,.12.34.82.82,0,0,1,0,.35.88.88,0,0,1-.16.32l-2,2.56a1,1,0,0,1-.26.24.79.79,0,0,1-.33.13,1.09,1.09,0,0,1-.36,0,.92.92,0,0,1-.31-.16h0a.88.88,0,0,1-.25-.26.77.77,0,0,1-.12-.33.73.73,0,0,1,0-.36.89.89,0,0,1,.15-.31l2-2.56A.85.85,0,0,1,44,9.7a.79.79,0,0,1,.33-.13,1,1,0,0,1,.35,0,.88.88,0,0,1,.32.16Z"/><path class="cls-16" d="M42.29,7.61a.92.92,0,0,1,.22.26.94.94,0,0,1,.11.32,1,1,0,0,1,0,.34.73.73,0,0,1-.16.3l-2,2.57a1,1,0,0,1-.59.32.88.88,0,0,1-.64-.17.85.85,0,0,1-.24-.26.66.66,0,0,1-.12-.33.82.82,0,0,1,0-.35.88.88,0,0,1,.16-.32l2-2.57a.82.82,0,0,1,.27-.22,1,1,0,0,1,.34-.11.8.8,0,0,1,.34.05.73.73,0,0,1,.31.17Z"/><path class="cls-16" d="M39.53,5.46a1,1,0,0,1,.23.26.94.94,0,0,1,.11.32,1,1,0,0,1,0,.34.89.89,0,0,1-.15.31l-2,2.55a.75.75,0,0,1-.25.25.82.82,0,0,1-.34.12.7.7,0,0,1-.35,0,.81.81,0,0,1-.32-.16h0a.88.88,0,0,1-.22-.25.76.76,0,0,1-.11-.33.79.79,0,0,1,0-.34.85.85,0,0,1,.15-.3l2-2.56a.85.85,0,0,1,.26-.24.79.79,0,0,1,.33-.13.88.88,0,0,1,.36,0,.92.92,0,0,1,.31.16Z"/><path class="cls-16" d="M36.78,3.31a.88.88,0,0,1,.33.58.86.86,0,0,1-.18.65l-2,2.56a.75.75,0,0,1-.25.22.76.76,0,0,1-.33.11.93.93,0,0,1-.33,0,.89.89,0,0,1-.31-.15h0A.92.92,0,0,1,33.49,7a.94.94,0,0,1-.11-.32,1,1,0,0,1,0-.34.87.87,0,0,1,.16-.3l2-2.57a.92.92,0,0,1,.59-.32.86.86,0,0,1,.64.17Z"/><path class="cls-16" d="M36.57-2.08a.92.92,0,0,1,.22.26.92.92,0,0,1,.1.32,1,1,0,0,1,0,.34.89.89,0,0,1-.15.31L32.19,5a.92.92,0,0,1-.58.32A.89.89,0,0,1,31,5.11h0a.78.78,0,0,1-.22-.26.76.76,0,0,1-.11-.32.78.78,0,0,1,0-.34,1,1,0,0,1,.16-.31l4.53-5.81a.92.92,0,0,1,.26-.22.94.94,0,0,1,.32-.11,1,1,0,0,1,.34,0,1,1,0,0,1,.31.15Z"/><path class="cls-16" d="M31.28-1a1,1,0,0,1,.24.26.77.77,0,0,1,.12.33.87.87,0,0,1,0,.36,1.14,1.14,0,0,1-.16.31l-2,2.56a.78.78,0,0,1-.26.22.76.76,0,0,1-.32.11.78.78,0,0,1-.34,0,.87.87,0,0,1-.3-.16h0A.75.75,0,0,1,28,2.74a.82.82,0,0,1-.12-.33.87.87,0,0,1,0-.36,1.37,1.37,0,0,1,.16-.32l2-2.55A1,1,0,0,1,30.31-1a1.21,1.21,0,0,1,.32-.11,1,1,0,0,1,.34,0,1,1,0,0,1,.31.15Z"/><path class="cls-16" d="M28.52-3.13a.93.93,0,0,1,.33.59.9.9,0,0,1-.18.65l-2,2.55a.92.92,0,0,1-.25.23.91.91,0,0,1-.33.1.78.78,0,0,1-.34,0,.85.85,0,0,1-.3-.15h0a.9.9,0,0,1-.22-.26.92.92,0,0,1-.11-.33,1,1,0,0,1,0-.34.87.87,0,0,1,.16-.3L27.3-3a.88.88,0,0,1,.58-.33A.86.86,0,0,1,28.52-3.13Z"/><path class="cls-17" d="M73.35,111,54,104.48a8.08,8.08,0,0,1-1-14.91,8.07,8.07,0,0,1,6.17-.44L78.48,95.6a8.12,8.12,0,0,1,5.11,10.25h0A8.12,8.12,0,0,1,73.35,111Z"/><path class="cls-18" d="M62.09,244.81a16.9,16.9,0,0,1-21.41,10.66l-186-62.23a17,17,0,0,1-5.73-3.28,16.7,16.7,0,0,1-4-5.21,16.67,16.67,0,0,1-1.74-6.37,16.76,16.76,0,0,1,.83-6.55L-116.58,54a17,17,0,0,1,3.27-5.74,17.13,17.13,0,0,1,5.22-4,16.89,16.89,0,0,1,6.37-1.73,16.9,16.9,0,0,1,6.55.83l186,62.24a16.89,16.89,0,0,1,10.68,21.41Z"/><path class="cls-17" d="M31.77,50.35-14.75,34.78a16.93,16.93,0,0,0-6.55-.85,17.07,17.07,0,0,0-6.38,1.73,16.9,16.9,0,0,0-5.23,4,17,17,0,0,0-3.28,5.74l-5.29,15.8,16.81,5.62,5-15,45,15.06-5,15,16.81,5.63,5.29-15.8a16.91,16.91,0,0,0-10.68-21.4Z"/><path class="cls-19" d="M-47,208.48A62.34,62.34,0,0,0,31.9,169.17,62.35,62.35,0,0,0-7.47,90.27a62.35,62.35,0,0,0-78.92,39.32A62.34,62.34,0,0,0-47,208.48Z"/><path class="cls-18" d="M18.61,148.9l-26.73-9L.82,113.24l-27.36-9.15-8.94,26.71-26.72-8.94-9.15,27.34,26.72,8.94-8.93,26.71L-26.2,194l8.94-26.71,26.72,8.94Z"/><path class="cls-19" d="M135.12,169.06V155.91L135,152.8h.26l1.31,3.11,5.92,11.87h4.16l5.92-11.87,1.31-3.11h.26l-.13,3.11v13.15h3.46V147.62h-4.7L146.64,160l-1.88,4.44h-.26L142.55,160l-6.18-12.42h-4.7v21.44Zm34.51.32c4.73,0,8.06-2.34,8.06-5.73v-.29h-3.45v.26c0,1.89-1.38,3-4.71,3-3.68,0-5.18-1.64-5.31-4.71h13.5a7,7,0,0,0,.13-1.5c0-4.83-3.36-7.55-8.29-7.55-5.18,0-8.57,3.32-8.57,8.28C161,166.44,164.41,169.38,169.63,169.38Zm-.13-13.82c3.39,0,5.09,1.4,5.09,4.35V160H164.25C164.44,157.12,166,155.56,169.5,155.56Zm18.91,13.82c3.58,0,5.92-1.73,6.59-4.9h.22v4.58h3.17V147.62h-3.46v9.86h-.19c-.64-2.69-2.78-4.64-6.56-4.64-4.83,0-7.58,3.32-7.58,8.28S183.38,169.38,188.41,169.38Zm-4.32-8.26c0-3.84,2-5.15,5.31-5.15,3.55,0,5.53,1.67,5.53,5.06v.25c0,3.33-2.08,4.93-5.47,4.93S184.09,164.93,184.09,161.12ZM206,151.3v-3.68h-3.45v3.68Zm0,17.76v-15.9h-3.45v15.9Zm12.2.32c4.76,0,8.25-2.69,8.25-6.66v-.35H223v.23c0,2.46-1.8,3.68-4.9,3.68-3.58,0-5.18-1.73-5.18-5.16s1.6-5.18,5.18-5.18c3.1,0,4.9,1.22,4.9,3.68v.19h3.42v-.32c0-4-3.49-6.65-8.25-6.65-5.25,0-8.68,3.32-8.68,8.28S213,169.38,218.2,169.38Zm15.22-18.08v-3.68H230v3.68Zm0,17.76v-15.9H230v15.9Zm7.62,0v-7.87c0-3.46,1.57-5.25,5.06-5.25,3.29,0,4.63,1.5,4.63,4.48v8.64h3.46v-9.57c0-3.68-2.17-6.65-6.59-6.65a6.28,6.28,0,0,0-6.62,5.24h-.23v-4.92h-3.17v15.9Zm25.19.32c4.74,0,8.06-2.34,8.06-5.73v-.29h-3.45v.26c0,1.89-1.38,3-4.71,3-3.68,0-5.18-1.64-5.31-4.71h13.51a7.8,7.8,0,0,0,.12-1.5c0-4.83-3.36-7.55-8.28-7.55-5.19,0-8.58,3.32-8.58,8.28C257.59,166.44,261,169.38,266.23,169.38Zm-.13-13.82c3.39,0,5.09,1.4,5.09,4.35V160H260.85C261.05,157.12,262.58,155.56,266.1,155.56Zm19.42,13.82c4.48,0,7.43-1.76,7.43-4.74,0-2.62-1.73-3.9-5.51-4.38l-3.68-.51c-2.4-.32-3-.77-3-2,0-1.5,1-2.14,3.94-2.14,3.52,0,4.48,1,4.48,2.88v.19h3.42v-.1c0-3.77-2.94-5.72-7.8-5.72s-7.43,2-7.43,4.76,1.82,3.94,4.83,4.32l4.36.58c2.27.32,3,.74,3,2.05s-.92,2-4,2c-3.32,0-4.57-.68-4.57-2.76v-.25h-3.46v.09C277.49,167.36,280.4,169.38,285.52,169.38Z"/><path class="cls-20" d="M214,54.27,268.23-2.65c2.66-2.79-5.39-14.77-18-26.76s-24.9-19.47-27.56-16.68l-54.29,57Z"/><path class="cls-21" d="M209.56,35.91,250.2-6.71c2-2.09-4-11.06-13.45-20s-18.63-14.53-20.62-12.44L175.5,3.43Z"/><path class="cls-20" d="M161.76,9.84l53.52,51L218,58.05,164.44,7Z"/><path class="cls-22" d="M159.07,12.66l53.52,51,2.69-2.82-53.52-51Z"/><path class="cls-23" d="M189.4,72.5l3.76,3.58L208.6,59.89l-3.76-3.59Z"/><path class="cls-22" d="M185.65,68.91l3.75,3.59,15.44-16.2-3.75-3.58Z"/><path class="cls-23" d="M181.89,65.34l3.76,3.58,15.44-16.2-3.76-3.58Z"/><path class="cls-22" d="M178.13,61.75l3.76,3.59,15.44-16.2-3.76-3.58Z"/><path class="cls-23" d="M174.38,58.17l3.76,3.59,15.44-16.2L189.82,42Z"/><path class="cls-22" d="M170.62,54.59l3.76,3.58L189.82,42l-3.76-3.58Z"/><path class="cls-23" d="M166.87,51l3.76,3.59,15.44-16.2-3.76-3.58Z"/><path class="cls-22" d="M163.11,47.43,166.87,51l15.44-16.19-3.76-3.59Z"/><path class="cls-23" d="M159.36,43.85l3.76,3.58,15.44-16.19-3.76-3.58Z"/><path class="cls-22" d="M155.6,40.27l3.76,3.58L174.8,27.66,171,24.07Z"/><path class="cls-23" d="M151.85,36.69l3.75,3.58,15.45-16.19-3.76-3.59Z"/><path class="cls-22" d="M148.09,33.11l3.76,3.58,15.44-16.2-3.76-3.58Z"/><path class="cls-24" d="M204.3-22.08,230.59,3l1.51-1.57L205.8-23.66Z"/><path class="cls-24" d="M185.22-.67l15.55,14.83L215.6-1.39,200-16.22Z"/></g></g></svg>