<svg xmlns="http://www.w3.org/2000/svg" xmlns:xlink="http://www.w3.org/1999/xlink" viewBox="0 0 334 200"><defs><style>.cls-1{fill:none;}.cls-2{clip-path:url(#clip-path);}.cls-3{clip-path:url(#clip-path-2);}.cls-4{fill:#74a3ff;}.cls-11,.cls-21,.cls-22,.cls-32,.cls-5{fill:#fff;}.cls-6,.cls-8{fill:#abe1ff;}.cls-7{fill:#d9f1ff;}.cls-8{opacity:0.65;}.cls-10,.cls-11,.cls-21,.cls-22,.cls-25,.cls-26,.cls-29,.cls-31,.cls-32,.cls-8{isolation:isolate;}.cls-9{fill:#9ddcff;}.cls-10{fill:#86cbf1;}.cls-10,.cls-29,.cls-31,.cls-32{opacity:0.5;}.cls-11{opacity:0.71;}.cls-12{fill:#7fd5fa;}.cls-12,.cls-15,.cls-33{fill-rule:evenodd;}.cls-13{fill:#49380f;}.cls-14{fill:#ffcb27;}.cls-15{fill:#b8bfd1;}.cls-16{fill:#ffe576;}.cls-17{opacity:0.31;}.cls-18{fill:#6174e2;}.cls-19{fill:#ff4d9e;}.cls-20{fill:#9b2c5e;}.cls-21{opacity:0.45;}.cls-22{opacity:0.15;}.cls-23{fill:#d63e91;}.cls-24{fill:#dfe6e8;}.cls-25,.cls-26{fill:#53585f;}.cls-25{opacity:0.11;}.cls-26{opacity:0.24;}.cls-27{fill:#0f2d29;}.cls-28{fill:#1b39bc;}.cls-29{fill:url(#linear-gradient);}.cls-30{fill:url(#linear-gradient-2);}.cls-31{fill:url(#linear-gradient-3);}.cls-33{fill:#3b42ee;}.cls-34{opacity:0.84;}.cls-35{fill:#18edf1;}.cls-36{opacity:0.74;}.cls-37{fill:#e0e4ef;fill-opacity:0.38;}.cls-38{fill:#0a6f7c;}.cls-39{clip-path:url(#clip-path-3);}.cls-40{fill:#ff725e;}</style><clipPath id="clip-path"><rect id="SVGID" class="cls-1" x="71.29" y="-1271.97" width="1587" height="773"/></clipPath><clipPath id="clip-path-2"><rect id="SVGID-2" data-name="SVGID" class="cls-1" width="334" height="200" rx="8"/></clipPath><linearGradient id="linear-gradient" x1="304.45" y1="-7913.46" x2="311.42" y2="-7905" gradientTransform="matrix(1, 0, 0, -1, 0, -7787.52)" gradientUnits="userSpaceOnUse"><stop offset="0" stop-color="#fff"/><stop offset="0.06" stop-color="#efebf4"/><stop offset="0.21" stop-color="#cec1dc"/><stop offset="0.36" stop-color="#b39ec9"/><stop offset="0.51" stop-color="#9d83b9"/><stop offset="0.66" stop-color="#8e70af"/><stop offset="0.82" stop-color="#8565a8"/><stop offset="0.98" stop-color="#8261a6"/></linearGradient><linearGradient id="linear-gradient-2" x1="303.13" y1="-7913.98" x2="310.1" y2="-7905.53" gradientTransform="matrix(1, 0, 0, -1, 0, -7787.52)" gradientUnits="userSpaceOnUse"><stop offset="0.01" stop-color="#b7c5c5"/><stop offset="0.41" stop-color="#a8bbbb"/><stop offset="0.99" stop-color="#95afae"/></linearGradient><linearGradient id="linear-gradient-3" x1="302.95" y1="-7913.84" x2="308.6" y2="-7906.99" gradientTransform="matrix(1, 0, 0, -1, 0, -7787.52)" gradientUnits="userSpaceOnUse"><stop offset="0" stop-color="#fff"/><stop offset="1"/></linearGradient><clipPath id="clip-path-3"><rect id="SVGID-3" data-name="SVGID" class="cls-1" x="441.83" width="334" height="200" rx="8"/></clipPath></defs><title>illustration</title><g id="houses"><g class="cls-3"><rect class="cls-4" width="334" height="200" rx="8"/><path class="cls-5" d="M133,169.38c6.34,0,9-3,9-6.27s-2.11-5.09-6.4-5.86l-5.21-.89c-2.53-.55-3.62-1.16-3.62-3s1.54-2.88,5.44-2.88c4.45,0,6,1.31,6,3.93v.42h3.42v-.19c0-4.19-2.85-7.33-9.12-7.33-6.66,0-9.22,3.14-9.22,6.24,0,3.52,2.56,5.18,6.18,5.82l5.25.87c2.72.51,3.81,1.21,3.81,3.07,0,2-1.44,2.91-5.54,2.91-4.7,0-6.21-1.28-6.21-3.84v-.51h-3.45v.19C123.29,166.56,126.55,169.38,133,169.38Zm22.84-.32V166h-2.88c-2,0-2.88-.52-2.88-2.47V156h5.76v-2.88H150v-3.49H146.6v3.49h-2.68V156h2.68v7.64c0,3.88,2.12,5.38,5.54,5.38Zm7.79.32c3.62,0,6.14-1.6,7-4.29h.22v4H174V159.4c0-3.81-2.27-6.56-7.33-6.56s-8.06,2.72-8.06,6.33v.13H162v-.13c0-2.33,1.44-3.29,4.38-3.29s4.2.92,4.2,3.55v.93l-7.24.76c-3.13.36-5.12,1.64-5.12,4.1C158.2,167.84,160.28,169.38,163.58,169.38ZM161.66,165c0-1.25.86-1.67,2.66-1.89l6.24-.71c0,3.14-2.44,4.48-6.05,4.48C162.52,166.88,161.66,166.28,161.66,165Zm26.77,4.06V166h-2.88c-2,0-2.88-.52-2.88-2.47V156h5.76v-2.88h-5.76v-3.49h-3.43v3.49h-2.69V156h2.69v7.64c0,3.88,2.11,5.38,5.54,5.38ZM195,151.3v-3.68h-3.45v3.68Zm0,17.76v-15.9h-3.45v15.9Zm12.29.32c5.31,0,8.87-3.36,8.87-8.26s-3.56-8.28-8.87-8.28-8.83,3.32-8.83,8.28S202,169.38,207.29,169.38Zm0-3.07c-3.84,0-5.44-1.83-5.44-5.19s1.6-5.24,5.44-5.24,5.47,1.85,5.47,5.24S211.16,166.31,207.29,166.31Zm15.79,2.75v-7.87c0-3.46,1.57-5.25,5.06-5.25,3.29,0,4.64,1.5,4.64,4.48v8.64h3.45v-9.57c0-3.68-2.17-6.65-6.59-6.65a6.29,6.29,0,0,0-6.62,5.24h-.23v-4.92h-3.17v15.9Zm21.86.32c3.62,0,6.15-1.6,7-4.29h.22v4h3.17V159.4c0-3.81-2.27-6.56-7.33-6.56s-8.06,2.72-8.06,6.33v.13h3.42v-.13c0-2.33,1.44-3.29,4.39-3.29s4.19.92,4.19,3.55v.93l-7.23.76c-3.14.36-5.12,1.64-5.12,4.1C239.57,167.84,241.65,169.38,244.94,169.38ZM243,165c0-1.25.87-1.67,2.66-1.89l6.24-.71c0,3.14-2.43,4.48-6,4.48C243.89,166.88,243,166.28,243,165Zm19.79,4.06v-8.93c0-2.85,1.12-4.35,3.84-4.35,2.37,0,3.33,1.06,3.33,3.33v1.41h3.42v-2.08c0-3-1.56-5.6-5.18-5.6a5.24,5.24,0,0,0-5.47,4.6h-.23v-4.28h-3.16v15.9Zm16.29,5.44c3.26,0,5-.86,6.36-3.71l8.29-17.63h-3.81l-3.74,8.41-1.5,3.84h-.26l-1.57-3.81-4.06-8.44h-3.87l7.84,15.9-.39.83a2.2,2.2,0,0,1-2.46,1.47h-3.11v3.14Z"/><path class="cls-6" d="M136.73,84.75,20.51-3.28a10.24,10.24,0,0,1-1.92-14.33L67.88-82.75A10.22,10.22,0,0,1,82.2-84.67l116.14,88a10.24,10.24,0,0,1,1.92,14.33L151,82.75A10.14,10.14,0,0,1,136.73,84.75Z"/><path class="cls-7" d="M136.35,81.55,24.08-3.59A9.83,9.83,0,0,1,22-17.36L69-79.45A9.85,9.85,0,0,1,82.89-81.2L195.16,3.94a9.84,9.84,0,0,1,2.13,13.77L150.21,79.8A9.85,9.85,0,0,1,136.35,81.55Z"/><path class="cls-8" d="M151,82.77l49.18-65A10.29,10.29,0,0,0,198.2,3.43L154.86-29.41a13.91,13.91,0,0,0-1.18,1.6L195.25,3.71a9.69,9.69,0,0,1,1.91,13.69L149.89,79.86a9.68,9.68,0,0,1-13.69,1.88L94.3,49.93c-.36.56-.81,1-1.17,1.61L136.8,84.68A10,10,0,0,0,151,82.77Z"/><path class="cls-9" d="M115.47,47.56,156.78-7.13a6.33,6.33,0,0,1,8.91-1.23l13.11,10a6.32,6.32,0,0,1,1.23,8.9L138.71,65a6.33,6.33,0,0,1-8.91,1.23l-13.11-10A6.13,6.13,0,0,1,115.47,47.56Z"/><path class="cls-10" d="M136.76,82,94.89,50.9c14.87-19.37,50.89-67.27,59.06-78L195.82,4.12a9.48,9.48,0,0,1,1.5,13.38l-47.2,62.29C146.73,84.15,140.77,85.06,136.76,82Z"/><path class="cls-11" d="M120.58,46.88l37-48.9a5.17,5.17,0,0,1,7.2-1L174,3.91a5.18,5.18,0,0,1,1,7.2L138,60a5.18,5.18,0,0,1-7.2,1l-9.17-6.93A5,5,0,0,1,120.58,46.88Z"/><path class="cls-6" d="M94.19,52.51l61.65-81.4-1.67-1.26L92.52,51.25Z"/><path class="cls-12" d="M95.71,27.6a2.56,2.56,0,0,1,3.48-.54l1.29,1a2.56,2.56,0,0,1,.54,3.48l-6.65,8.69a2.56,2.56,0,0,1-3.48.53l-1.29-1a2.57,2.57,0,0,1-.54-3.49ZM139.24-30a2.56,2.56,0,0,1,3.48-.54l1.29,1a2.54,2.54,0,0,1,.53,3.48l-6.64,8.69a2.56,2.56,0,0,1-3.48.53l-1.29-1a2.57,2.57,0,0,1-.54-3.49ZM128.48-11.62a2.56,2.56,0,0,0-3.48.53L118.36-2.4a2.55,2.55,0,0,0,.53,3.48l1.29,1a2.56,2.56,0,0,0,3.48-.54l6.65-8.69a2.56,2.56,0,0,0-.54-3.48ZM110.61,7.81a2.56,2.56,0,0,1,3.48-.53l1.37,1.11a2.56,2.56,0,0,1,.54,3.48l-6.65,8.69a2.56,2.56,0,0,1-3.48.54l-1.29-1a2.56,2.56,0,0,1-.53-3.48ZM125.69-43a3.21,3.21,0,0,0-4.49.65l-5.39,7.16a3.2,3.2,0,0,0,.66,4.49l6.76,5.16a3.2,3.2,0,0,0,4.48-.65l5.39-7.16a3.2,3.2,0,0,0-.66-4.49ZM105.6-54.19a3.19,3.19,0,0,1,4.48-.66l6.76,5.17a3.2,3.2,0,0,1,.66,4.49L112.11-38a3.2,3.2,0,0,1-4.49.66l-6.75-5.17a3.2,3.2,0,0,1-.66-4.49ZM93.67-67.4a3.2,3.2,0,0,0-4.49.66L83.8-59.59a3.21,3.21,0,0,0,.65,4.49l6.76,5.17a3.2,3.2,0,0,0,4.49-.66l5.39-7.15a3.21,3.21,0,0,0-.66-4.49ZM77.15,15.76a3.2,3.2,0,0,1,4.49-.66l6.75,5.17a3.2,3.2,0,0,1,.66,4.49l-5.39,7.16a3.21,3.21,0,0,1-4.49.65L72.42,27.4a3.19,3.19,0,0,1-.66-4.48ZM66,3.3A3.21,3.21,0,0,0,61.54,4l-5.38,7.16a3.2,3.2,0,0,0,.66,4.49l6.75,5.17a3.2,3.2,0,0,0,4.49-.66L73.45,13a3.2,3.2,0,0,0-.66-4.49ZM36.84-18.76l17.21,13A4.68,4.68,0,0,1,55,.73l-3.7,4.82a4.66,4.66,0,0,1-6.5.9l-17.21-13A4.68,4.68,0,0,1,26.65-13l3.69-4.82A4.66,4.66,0,0,1,36.84-18.76Zm74.6-5.54a3.21,3.21,0,0,0-4.49.65l-5.38,7.16a3.21,3.21,0,0,0,.65,4.49L109-6.83a3.21,3.21,0,0,0,4.49-.66l5.39-7.16a3.2,3.2,0,0,0-.66-4.49ZM91.35-35.45a3.2,3.2,0,0,1,4.49-.66l6.76,5.17a3.21,3.21,0,0,1,.65,4.49l-5.38,7.16a3.21,3.21,0,0,1-4.49.65l-6.76-5.17A3.21,3.21,0,0,1,86-28.3Zm-12-13.13a3.19,3.19,0,0,0-4.48.66l-5.39,7.16a3.19,3.19,0,0,0,.66,4.48l6.75,5.17a3.21,3.21,0,0,0,4.49-.65l5.39-7.16a3.2,3.2,0,0,0-.66-4.49Zm13.22,44a3.21,3.21,0,0,1,4.49-.65l6.76,5.16a3.21,3.21,0,0,1,.65,4.49l-5.38,7.16a3.21,3.21,0,0,1-4.49.65L87.84,7.06a3.2,3.2,0,0,1-.66-4.49ZM81.45-17a3.19,3.19,0,0,0-4.48.66L71.58-9.24a3.2,3.2,0,0,0,.66,4.49L79,.42a3.2,3.2,0,0,0,4.49-.66l5.39-7.15a3.2,3.2,0,0,0-.66-4.49Zm-21-11.81A3.2,3.2,0,0,1,65-29.52l6.76,5.17a3.21,3.21,0,0,1,.65,4.49L67-12.71a3.2,3.2,0,0,1-4.49.66l-6.76-5.17a3.22,3.22,0,0,1-.66-4.49ZM77.83-79.27a3.21,3.21,0,0,0-4.49.65L68-71.46A3.2,3.2,0,0,0,68.62-67l6.75,5.17a3.2,3.2,0,0,0,4.49-.66l5.39-7.16a3.19,3.19,0,0,0-.66-4.48ZM59.18-59.8a3.2,3.2,0,0,1,4.49-.66l6.76,5.17a3.21,3.21,0,0,1,.65,4.49L65.7-43.64a3.21,3.21,0,0,1-4.49.65l-6.76-5.17a3.2,3.2,0,0,1-.65-4.48Zm-10,18.33a3.2,3.2,0,0,0-4.48.65l-5.39,7.16A3.2,3.2,0,0,0,40-29.17L46.74-24a3.2,3.2,0,0,0,4.49-.66l5.39-7.16A3.19,3.19,0,0,0,56-36.3Z"/><path class="cls-13" d="M58.1,128.48c-.08,0-.13-.16-.13-.36l.07-.37h.41a.59.59,0,0,1,.41.19l.38.69-.82-.19C58.26,128.56,58.14,128.6,58.1,128.48Zm.2-.21-.16.13a.17.17,0,0,0,.25.11Z"/><path class="cls-14" d="M125.13,111.11l-95-64.62A7.32,7.32,0,0,0,20,48.44L-62,168.9a7.32,7.32,0,0,0,1.95,10.19l95,64.62a7.34,7.34,0,0,0,10.19-2l82-120.46A7.32,7.32,0,0,0,125.13,111.11ZM-55.94,170.35a2.14,2.14,0,0,1-.56-2.89,2.12,2.12,0,0,1,2.88-.55,2.13,2.13,0,0,1,.56,2.88A2,2,0,0,1-55.94,170.35Zm5.16-7.54a2.14,2.14,0,0,1-.55-2.89,2.12,2.12,0,0,1,2.88-.55,2.11,2.11,0,0,1,.55,2.88A2.07,2.07,0,0,1-50.78,162.81Zm5.17-7.54a2.14,2.14,0,0,1-.56-2.89,2.12,2.12,0,0,1,2.88-.55,2.12,2.12,0,0,1,.56,2.88A2.13,2.13,0,0,1-45.61,155.27Zm5.08-7.58a2.12,2.12,0,0,1-.55-2.88,2.12,2.12,0,0,1,2.88-.56,2.11,2.11,0,0,1,.55,2.88A2.07,2.07,0,0,1-40.53,147.69Zm5.17-7.54a2.13,2.13,0,0,1-.56-2.88,2.12,2.12,0,0,1,2.88-.56,2.12,2.12,0,0,1,.56,2.88A2.08,2.08,0,0,1-35.36,140.15Zm5.16-7.54a2.12,2.12,0,0,1-.55-2.88,2.12,2.12,0,0,1,2.88-.56,2.13,2.13,0,0,1,.56,2.88A2.14,2.14,0,0,1-30.2,132.61Zm5.09-7.58a2.13,2.13,0,0,1-.56-2.88,2.13,2.13,0,0,1,2.88-.56,2.12,2.12,0,0,1,.56,2.88A2.08,2.08,0,0,1-25.11,125Zm5.16-7.54a2.12,2.12,0,0,1-.55-2.88,2.12,2.12,0,0,1,2.88-.56,2.13,2.13,0,0,1,.56,2.88A2.14,2.14,0,0,1-19.95,117.49Zm5.17-7.54a2.13,2.13,0,0,1-.56-2.88,2.13,2.13,0,0,1,2.89-.56,2.12,2.12,0,0,1,.55,2.88A2.13,2.13,0,0,1-14.78,110Zm5.08-7.58a2.12,2.12,0,0,1-.55-2.88,2.13,2.13,0,0,1,2.88-.56,2.13,2.13,0,0,1,.56,2.88A2.14,2.14,0,0,1-9.7,102.37Zm5.21-7.62A2.14,2.14,0,0,1-5,91.86a2.13,2.13,0,0,1,2.89-.55,2.12,2.12,0,0,1,.55,2.88A2.06,2.06,0,0,1-4.49,94.75ZM.68,87.21a2.13,2.13,0,0,1-.56-2.89A2.12,2.12,0,0,1,3,83.77a2.13,2.13,0,0,1,.56,2.88A2.06,2.06,0,0,1,.68,87.21Zm5.08-7.58a2.07,2.07,0,0,1,2.32-3.44,2.12,2.12,0,0,1,.56,2.88A2,2,0,0,1,5.76,79.63Zm5.17-7.54a2.07,2.07,0,0,1,2.32-3.44,2.13,2.13,0,0,1,.56,2.88A2.05,2.05,0,0,1,10.93,72.09Zm5.16-7.54A2.08,2.08,0,1,1,19,64,2.05,2.05,0,0,1,16.09,64.55ZM21.17,57a2.08,2.08,0,1,1,2.89-.56A2,2,0,0,1,21.17,57Z"/><path class="cls-15" d="M21.76,55.73a1,1,0,0,0,1.42-.23,1.12,1.12,0,0,0-.24-1.43l-8.53-5.83a1,1,0,0,0-1.42.23,1,1,0,0,0,.23,1.43Zm-5.17,7.54A1,1,0,0,0,18,63a1,1,0,0,0-.23-1.43L9.24,55.78A1,1,0,0,0,7.82,56a1,1,0,0,0,.24,1.43Zm-3.78,7.39a1,1,0,0,1-1.42.23L2.85,65.06a1,1,0,0,1-.23-1.42A1,1,0,0,1,4,63.4l8.53,5.84A.94.94,0,0,1,12.81,70.66ZM6.3,78.47a1,1,0,0,0,1.42-.23,1.2,1.2,0,0,0-.23-1.42L-1,71a1,1,0,0,0-1.42.24,1,1,0,0,0,.24,1.42ZM2.56,85.78A1,1,0,0,1,1.14,86l-4-2.7,0,0-3.77-2.57,0,0-.82-.56a1,1,0,0,1-.23-1.42,1,1,0,0,1,1.42-.24l.78.53h0l3.77,2.56h0l4,2.74A1,1,0,0,1,2.56,85.78ZM-4,93.55a1,1,0,0,0,1.42-.23,1,1,0,0,0-.23-1.42l-8.54-5.84a1,1,0,0,0-1.42.24,1,1,0,0,0,.24,1.42l.91.62-.06.09L-7.94,91l.05-.08Zm-3.74,7.31a1,1,0,0,1-1.43.23l-8.53-5.83A1,1,0,0,1-18,93.84a1,1,0,0,1,1.43-.24L-8,99.44A1,1,0,0,1-7.77,100.86Zm-6.55,7.9a1,1,0,0,0,1.42-.24,1,1,0,0,0-.23-1.42l-4-2.72,0,0-3.76-2.56,0,0-.8-.54a1,1,0,0,0-1.42.24,1,1,0,0,0,.24,1.42l.83.57v0l3.77,2.56h0Zm-3.74,7.3a1,1,0,0,1-1.42.24L-28,110.46a1,1,0,0,1-.23-1.42,1,1,0,0,1,1.42-.24l8.53,5.84A1,1,0,0,1-18.06,116.06Zm-6.59,7.78a1,1,0,0,0,1.42-.24,1,1,0,0,0-.24-1.42L-32,116.34a1,1,0,0,0-1.42.24,1,1,0,0,0,.24,1.42Zm-3.66,7.34a1,1,0,0,1-1.42.23l-3.91-2.67,0,.06-3.77-2.56.05-.07-.87-.59a1,1,0,0,1-.23-1.42,1,1,0,0,1,1.42-.24l8.53,5.84A1.12,1.12,0,0,1-28.31,131.18ZM-34.94,139a1,1,0,0,0,1.42-.24.94.94,0,0,0-.23-1.42l-8.54-5.84a1,1,0,0,0-1.42.24,1,1,0,0,0,.24,1.42Zm-3.74,7.3a1,1,0,0,1-1.42.24l-8.54-5.84a1,1,0,0,1-.24-1.42,1,1,0,0,1,1.43-.24l8.53,5.84A1,1,0,0,1-38.68,146.34Zm-6.51,7.82a1,1,0,0,0,1.42-.24A1.1,1.1,0,0,0-44,152.5l-8.54-5.84a1,1,0,0,0-1.42.24,1,1,0,0,0,.24,1.42Zm-3.74,7.3a1,1,0,0,1-1.42.24l-8.58-5.76a1,1,0,0,1-.23-1.42,1,1,0,0,1,1.42-.24l8.53,5.84A.9.9,0,0,1-48.93,161.46Zm-6.59,7.78A1,1,0,0,0-54.1,169a1,1,0,0,0-.24-1.42l-8.53-5.84a1,1,0,0,0-1.42.24A1,1,0,0,0-64,163.4Z"/><path class="cls-16" d="M33.28,211.7l-58.9-40.06a8.33,8.33,0,0,1-2.22-11.53L-16,142.63a8.33,8.33,0,0,1,11.53-2.22l58.82,40A8.32,8.32,0,0,1,56.6,192L44.73,209.43A8.25,8.25,0,0,1,33.28,211.7Z"/><g class="cls-17"><path class="cls-18" d="M-11.69,146.54l-.41.6,62,42.14.41-.61Z"/></g><g class="cls-17"><path class="cls-18" d="M-17.73,155.43l-.41.6L43.8,198.17l.41-.61Z"/></g><g class="cls-17"><path class="cls-18" d="M-24.25,165l-.41.6,61.94,42.13.41-.6Z"/></g><path class="cls-19" d="M288.91,18.76l-.16.1-.17.11-.17.11-.17.11c-.16.11-.19.25-.36.36s-.08.06-.11.19a3.26,3.26,0,0,0-.36,3.11l60,145.85a3.18,3.18,0,0,0,4.12,1.73l22-9a2.83,2.83,0,0,0,1.62-1.54.59.59,0,0,0,.14-.33c0-.14.11-.2.14-.34l.06-.27c0-.14,0-.22,0-.36s0-.22,0-.36,0-.23,0-.36,0-.23-.08-.31,0-.22-.08-.31L315.3,11.4a3.19,3.19,0,0,0-4.12-1.73l-22,9A.4.4,0,0,0,288.91,18.76Zm14.32,3a3.82,3.82,0,0,1,4.92,2,3.73,3.73,0,0,1,0,2.61,3.24,3.24,0,0,1-2.12,2.23,3.76,3.76,0,0,1-5.16-4A4.41,4.41,0,0,1,303.23,21.81Z"/><path class="cls-20" d="M306.11,28.77a3.91,3.91,0,0,0,2.13-2.23,3.75,3.75,0,0,1-7.16.75,3.31,3.31,0,0,1-.07-2.47,3.86,3.86,0,0,0,.24,2A3.71,3.71,0,0,0,306.11,28.77Z"/><path class="cls-21" d="M289.08,18.65l4.26-1.72,62.47,151.79-4.26,1.71a3.11,3.11,0,0,1-4.12-1.73l-60-145.85A3.16,3.16,0,0,1,289.08,18.65Z"/><path class="cls-22" d="M291.38,17.67l62.43,151.76,1.3-.54L292.67,17.13Z"/><path class="cls-23" d="M329.25,124.5l.42,1,7.49-3.08-.41-1Z"/><path class="cls-23" d="M323.45,110.35l.42,1,7.49-3.08-.42-1Z"/><path class="cls-23" d="M317.63,96.19l.42,1,7.49-3.08-.42-1Z"/><path class="cls-23" d="M311.81,82l.41,1,7.5-3.09-.42-1Z"/><path class="cls-23" d="M305.94,68l.42,1L313.85,66l-.42-1Z"/><path class="cls-23" d="M300.13,53.87l.42,1L308,51.81l-.42-1Z"/><path class="cls-23" d="M294.32,39.7l.42,1,7.49-3.08-.42-1Z"/><path class="cls-23" d="M288.51,25.55l.41,1,7.5-3.08-.42-1Z"/><path class="cls-23" d="M332.2,131.69l.42,1,4.62-1.9-.42-1Z"/><path class="cls-23" d="M326.39,117.54l.42,1,4.62-1.9-.41-1Z"/><path class="cls-23" d="M320.58,103.36l.42,1,4.63-1.9-.42-1Z"/><path class="cls-23" d="M314.72,89.34l.41,1,4.63-1.9-.42-1Z"/><path class="cls-23" d="M308.9,75.18l.42,1L314,74.3l-.42-1Z"/><path class="cls-23" d="M303.09,61l.42,1,4.62-1.91-.42-1Z"/><path class="cls-23" d="M297.28,46.87l.41,1,4.63-1.9-.42-1Z"/><path class="cls-23" d="M291.47,32.72l.42,1,4.62-1.9-.42-1Z"/><path class="cls-24" d="M317.39,113.35s12.77,10.8,24.24,20.36c3.63,3,7,5.87,9.87,8.33s5.22,4.37,6.46,5.4c6.38,5.32,11.13,12.82,3.85,17.64-3.81,2.59-18.76-5.17-32.23-13.19-4.25-2.49-8.36-5.12-11.89-7.35-6.78-4.32-11.62-7.65-11.62-7.65L314.66,119Z"/><path class="cls-25" d="M307.08,135.24l3.46-7.46-4.33,9.11s43.62,29.68,54.27,28.58C345.44,161.75,307.08,135.24,307.08,135.24Z"/><path class="cls-26" d="M317.39,113.35s35.34,27.24,41,33.51,10.8,13.33,3.52,18.15c12.8-9.65-39.72-41.12-47.15-46.06Z"/><path class="cls-27" d="M309.35,123.64a5.46,5.46,0,0,1-3.49,1.66,5.07,5.07,0,0,1-3.92-1.23,5.66,5.66,0,0,1-2-3.69,5,5,0,0,1,1.22-3.92,5.7,5.7,0,0,1,3.69-2,5.09,5.09,0,0,1,3.93,1.23,5.68,5.68,0,0,1,2,3.69,5.09,5.09,0,0,1-1.23,3.93A.77.77,0,0,1,309.35,123.64Zm-7.42-7-.21.22a4.72,4.72,0,0,0,.7,6.7,5.15,5.15,0,0,0,3.5,1.1,5,5,0,0,0,3.27-1.73,5.19,5.19,0,0,0,1.1-3.49,5,5,0,0,0-1.73-3.28,5.21,5.21,0,0,0-3.5-1.1A5.16,5.16,0,0,0,301.93,116.64Z"/><path class="cls-28" d="M258.73,77.33c-12.7-5.77-31.19-2.18-33.92,15.31-2.15,13.5,14.84,23.18,29.93,21.46,12.62-1.44,21.81,3.37,30.57,10s9.9,2,10.24,1.68l-6.82-22.22S271.42,83.11,258.73,77.33ZM267,99.86c-1.86,6.21-11,9-20.4,6.2S231,96,232.79,89.85s11-9,20.4-6.2S268.91,93.65,267,99.86Z"/><path class="cls-29" d="M311.43,117.49a5.46,5.46,0,1,1-7.69.73A5.48,5.48,0,0,1,311.43,117.49Z"/><path class="cls-30" d="M310.1,118a5.48,5.48,0,0,1,.73,7.69,5.8,5.8,0,0,1-1.8,1.46,5.47,5.47,0,0,1-6.68-8.36,5.94,5.94,0,0,1,3-1.93A5.22,5.22,0,0,1,310.1,118Z"/><path class="cls-31" d="M305.4,116.89c.07,2.27.57,7.27,3.63,10.29a5.47,5.47,0,0,1-6.68-8.36A5,5,0,0,1,305.4,116.89Z"/><path class="cls-32" d="M306.08,123.17c.33,1.55-.26,3-1.32,3.15s-2.15-.92-2.41-2.54.26-3,1.32-3.16S305.75,121.62,306.08,123.17Z"/><path class="cls-33" d="M267.7,22.45c1.27,7.11,11.2,8.08,11.2,8.08,28.5,9,30.31,36.23,25.7,50.17-3.17,10.07,1.18,18,7.74,24.6s13.78,18.33,7.5,26-12.2,8.57-23.61.56a17.13,17.13,0,0,1-4.23-4.26c-6.49-8.72-8.41-23.3-8.9-27.74a9.72,9.72,0,0,0-.11-1.35v-.28a2.74,2.74,0,0,0-.1-1.06h0c-2-11.11-16-18.9-16-18.9-2.82-1.31-3.17.12-3.54,1.66,0,0,0,0,0,.07a39.5,39.5,0,0,0-4.75-2.69,28.77,28.77,0,0,0-8.85-2.42,21.32,21.32,0,0,1-6.19-5.83c-11-14.73-2.23-24.42,4.33-31.63,1.36-1.5,2.62-2.88,3.59-4.19,2.95-4,2.89-7,2.84-9.81-.05-2.58-.1-5,2.14-7.88C261.16,9.56,266.35,15.27,267.7,22.45Zm25.13,64.47c7.3-4.25,7-21.57,5.06-27-5.54-15.12-16.41-26.18-31.5-24.31-14.59,1.78-24.21,15.93-17.55,25.64,4.87,7.11,8,7.5,13,8.1,1.21.15,2.53.31,4,.58,8.11,1.46,15,8,18,13.62C283.75,83.59,286.5,90.58,292.83,86.92ZM262.39,22.4c-.18-3.75-1.83-6.67-3.73-6.54s-3.23,3.14-3.12,6.81,1.82,6.67,3.73,6.54S262.57,26.14,262.39,22.4Z"/><g class="cls-34"><path class="cls-35" d="M222.94,19.73l-.07-.07c-5.2-5.67.33-11,.4-11.07l22.21-20.9c.4-.4,4.2-4.68,8.45-4.79a6.84,6.84,0,0,1,5,2.22,6.68,6.68,0,0,1,1.89,5.11c-.35,4.31-4.88,7.87-5.35,8.2L237.69,14.64a5,5,0,0,1-3.45,1.44,6.19,6.19,0,0,1-4.57-2.35c-2.3-2.47-2.16-4.72-1.62-6.18a5.66,5.66,0,0,1,1.47-2.11L243.79-7.74a.81.81,0,0,1,1.06,0,.79.79,0,0,1,0,1.06L230.58,6.51a4.15,4.15,0,0,0-1.07,1.58c-.61,1.52-.15,3.05,1.23,4.58a5,5,0,0,0,3.51,1.82,3.8,3.8,0,0,0,2.32-1l.07-.06,17.8-16.28.07-.07C254.58-3,259-6.26,259.33-10A4.65,4.65,0,0,0,257.82-14,4.83,4.83,0,0,0,254-15.71c-3.72.11-7.39,4.27-7.39,4.27l-.07.06-22.2,20.9c-.2.2-4.41,4.35-.25,9q2.56,2.81,5.15,2.82a6.23,6.23,0,0,0,4.12-1.84l.07-.06L255.76-1.37a.81.81,0,0,1,1.06,0,.81.81,0,0,1,0,1.06l-22.28,20.7a8,8,0,0,1-5.25,2.29C227,22.87,224.85,21.79,222.94,19.73Z"/></g><g class="cls-36"><path class="cls-5" d="M198.11,121.27a.09.09,0,0,0-.09.09c-7,2.63-9.79-4.17-9.79-4.26L177.37,89.75c-.27-.54-2.72-5.43-1.27-9.33a6.06,6.06,0,0,1,3.8-3.62,6.29,6.29,0,0,1,5.26.09c3.71,1.9,5.25,7.16,5.43,7.7l8.24,21.74a5.37,5.37,0,0,1,.09,3.62,5.89,5.89,0,0,1-3.71,3.26c-3,1.18-5,.27-6.07-.73a4.61,4.61,0,0,1-1.36-2.08L181,92.92a.77.77,0,0,1,1.45-.54l6.79,17.48a3.78,3.78,0,0,0,1,1.54,3.88,3.88,0,0,0,4.53.45,5,5,0,0,0,2.89-2.45,3,3,0,0,0-.09-2.44v-.09l-8.24-21.74V85c0-.09-1.45-5.16-4.71-6.79a4.91,4.91,0,0,0-4.07-.09,4.47,4.47,0,0,0-2.9,2.81c-1.27,3.35,1.18,8.15,1.27,8.15v.09l10.86,27.44c.09.18,2.36,5.52,7.88,3.44a6.87,6.87,0,0,0,4.35-3.62,5.72,5.72,0,0,0-.18-4.35V112L191,84.41a.77.77,0,1,1,1.45-.54l10.69,27.44a7.16,7.16,0,0,1,.18,5.52A8.61,8.61,0,0,1,198.11,121.27Z"/></g><rect class="cls-37" x="-56.56" y="-74.47" width="434.9" height="313.12"/><rect class="cls-35" x="193.91" y="20.52" width="197.25" height="37.28" rx="4"/><path class="cls-38" d="M212.86,43.83c3,0,5.13-1.6,5.13-4.17v-.21h-1.9v.21c0,1.65-1,2.51-3.22,2.51-2.51,0-3.73-1.18-3.73-3.86s1.22-3.87,3.73-3.87c2.18,0,3.22.88,3.22,2.51v.23H218V37c0-2.56-2.11-4.16-5.13-4.16a5.21,5.21,0,0,0-5.54,5.52A5.2,5.2,0,0,0,212.86,43.83Zm10.95,0c2.66,0,4.43-1.68,4.43-4.12s-1.77-4.15-4.43-4.15-4.42,1.67-4.42,4.15S221.17,43.83,223.81,43.83Zm0-1.53c-1.92,0-2.72-.91-2.72-2.59s.8-2.63,2.72-2.63,2.74.93,2.74,2.63S225.75,42.3,223.81,42.3Zm7.89,1.37V39.74c0-1.76.6-2.63,2.31-2.63,1.53,0,2.14.68,2.14,2.24v4.32h1.71V39.74c0-1.76.61-2.63,2.31-2.63,1.53,0,2.16.68,2.16,2.24v4.32H244V38.89c0-1.92-1-3.33-3.1-3.33a2.91,2.91,0,0,0-3.12,2.63h-.1a3.07,3.07,0,0,0-6.06-.07h-.1v-2.4H230v8Zm16.09-8.88V33h-1.73v1.84Zm0,8.88v-8h-1.73v8Zm3.81,0V39.74c0-1.73.78-2.63,2.53-2.63s2.32.76,2.32,2.24v4.32h1.73V38.89a3.09,3.09,0,0,0-3.3-3.33,3.14,3.14,0,0,0-3.31,2.63h-.11V35.72h-1.59v8Zm12-.72c1.81,0,2.88-.86,3.17-2.06h.11v2c0,1.78-.65,2.27-2.46,2.27s-2.37-.43-2.37-1.58h-1.71c0,1.92,1.63,3,4,3,2.61,0,4.27-1.13,4.27-3.8v-7h-1.58v2H267c-.28-1.4-1.53-2.15-3.2-2.15a3.55,3.55,0,0,0-3.88,3.7A3.47,3.47,0,0,0,263.65,43Zm-2-3.69c0-1.63,1-2.19,2.64-2.19s2.67.68,2.67,2v.22c0,1.41-1,2.15-2.72,2.15S261.62,40.89,261.62,39.26Zm16.81,4.57c3.17,0,4.5-1.5,4.5-3.13s-1.06-2.55-3.2-2.93l-2.61-.45c-1.26-.27-1.81-.57-1.81-1.5s.77-1.44,2.72-1.44c2.23,0,3,.65,3,2v.2h1.71v-.09c0-2.1-1.42-3.67-4.56-3.67-3.32,0-4.6,1.57-4.6,3.12,0,1.76,1.28,2.6,3.08,2.92l2.63.43c1.36.25,1.9.61,1.9,1.53s-.72,1.46-2.77,1.46c-2.35,0-3.1-.64-3.1-1.92v-.26H273.6v.1C273.6,42.43,275.23,43.83,278.43,43.83Zm10.27,0c2.66,0,4.43-1.68,4.43-4.12s-1.77-4.15-4.43-4.15-4.42,1.67-4.42,4.15S286.06,43.83,288.7,43.83Zm0-1.53c-1.92,0-2.72-.91-2.72-2.59s.8-2.63,2.72-2.63,2.74.93,2.74,2.63S290.64,42.3,288.7,42.3Zm10.23,1.53c2.66,0,4.43-1.68,4.43-4.12s-1.77-4.15-4.43-4.15-4.42,1.67-4.42,4.15S296.29,43.83,298.93,43.83Zm0-1.53c-1.92,0-2.72-.91-2.72-2.59s.8-2.63,2.72-2.63,2.74.93,2.74,2.63S300.87,42.3,298.93,42.3Zm7.89,1.37V39.74c0-1.73.79-2.63,2.53-2.63s2.32.76,2.32,2.24v4.32h1.73V38.89a3.09,3.09,0,0,0-3.3-3.33,3.15,3.15,0,0,0-3.31,2.63h-.11V35.72H305.1v8Z"/></g><g class="cls-39"><path class="cls-40" d="M307.32,191.39,330,90.21l36.25-31.68L380,61.6,340.76,94.15l-2.82,12.6,127.39,28.56,3.57-15.91,39.48-29,9.52,2.13-38.52,31.58-22.6,100.78Z"/></g></g></svg>