<svg width="335" height="197" viewBox="0 0 335 197" fill="none" xmlns="http://www.w3.org/2000/svg">
<g clip-path="url(#clip0_1659:5466)">
<path d="M333.379 -0.195312H-0.621094V199.805H333.379V-0.195312Z" fill="#74A3FF"/>
<path d="M132.278 169.105C138.578 169.105 141.278 166.105 141.278 162.805C141.278 159.705 139.178 157.705 134.878 156.905L129.678 156.005C127.178 155.505 126.078 154.805 126.078 153.005C126.078 151.205 127.578 150.105 131.478 150.105C135.878 150.105 137.478 151.405 137.478 154.005V154.405H140.878V154.205C140.878 150.005 138.078 146.905 131.778 146.905C125.078 146.905 122.578 150.005 122.578 153.105C122.578 156.605 125.178 158.305 128.778 158.905L133.978 159.805C136.678 160.305 137.778 161.005 137.778 162.905C137.778 164.805 136.378 165.805 132.278 165.805C127.578 165.805 126.078 164.505 126.078 162.005V161.505H122.578V161.705C122.678 166.305 125.878 169.105 132.278 169.105ZM155.178 168.805V165.705H152.278C150.278 165.705 149.378 165.205 149.378 163.205V155.705H155.178V152.805H149.378V149.305H146.008V152.805H143.308V155.705H146.008V163.305C146.008 167.205 148.108 168.705 151.508 168.705H155.208L155.178 168.805ZM162.978 169.105C166.578 169.105 169.078 167.505 169.978 164.805H170.178V168.805H173.378V159.105C173.378 155.305 171.078 152.505 166.078 152.505C161.078 152.505 157.978 155.205 157.978 158.805V158.905H161.378V158.805C161.378 156.505 162.778 155.505 165.778 155.505C168.778 155.505 169.978 156.405 169.978 159.105V160.005L162.778 160.805C159.678 161.205 157.678 162.405 157.678 164.905C157.578 167.605 159.678 169.105 163.008 169.105H162.978ZM160.978 164.805C160.978 163.605 161.878 163.105 163.678 162.905L169.878 162.205C169.878 165.305 167.478 166.705 163.878 166.705C161.878 166.605 161.008 166.005 161.008 164.805H160.978ZM187.778 168.805V165.705H184.878C182.878 165.705 181.978 165.205 181.978 163.205V155.705H187.778V152.805H182.008V149.305H178.608V152.805H175.908V155.705H178.608V163.305C178.608 167.205 180.708 168.705 184.108 168.705H187.808L187.778 168.805ZM194.378 151.105V147.405H190.878V151.105H194.378ZM194.378 168.805V152.905H190.878V168.805H194.378ZM206.678 169.105C211.978 169.105 215.578 165.705 215.578 160.805C215.578 155.905 211.978 152.505 206.678 152.505C201.378 152.505 197.878 155.805 197.878 160.805C197.878 165.805 201.378 169.105 206.678 169.105V169.105ZM206.678 166.105C202.878 166.105 201.278 164.305 201.278 160.905C201.278 157.505 202.878 155.705 206.678 155.705C210.478 155.705 212.178 157.605 212.178 160.905C212.178 164.205 210.478 166.105 206.678 166.105V166.105ZM222.478 168.805V160.905C222.478 157.405 224.078 155.705 227.578 155.705C230.878 155.705 232.178 157.205 232.178 160.205V168.805H235.678V159.205C235.678 155.505 233.478 152.505 229.078 152.505C227.533 152.417 226.009 152.897 224.793 153.854C223.577 154.812 222.754 156.182 222.478 157.705H222.278V152.805H219.078V168.705H222.478V168.805ZM244.278 169.105C247.878 169.105 250.378 167.505 251.278 164.805H251.478V168.805H254.678V159.105C254.678 155.305 252.378 152.505 247.378 152.505C242.378 152.505 239.278 155.205 239.278 158.805V158.905H242.678V158.805C242.678 156.505 244.078 155.505 247.078 155.505C250.078 155.505 251.278 156.405 251.278 159.105V160.005L244.078 160.805C240.978 161.205 238.978 162.405 238.978 164.905C238.878 167.605 241.008 169.105 244.278 169.105V169.105ZM242.378 164.805C242.378 163.605 243.278 163.105 245.078 162.905L251.278 162.205C251.278 165.305 248.878 166.705 245.278 166.705C243.278 166.605 242.378 166.005 242.378 164.805V164.805ZM262.178 168.805V159.905C262.178 157.105 263.278 155.505 265.978 155.505C268.378 155.505 269.278 156.605 269.278 158.805V160.205H272.678V158.105C272.678 155.105 271.078 152.505 267.478 152.505C266.147 152.424 264.836 152.856 263.813 153.711C262.791 154.566 262.134 155.781 261.978 157.105H261.878V152.805H258.678V168.705H262.178V168.805ZM278.478 174.305C281.778 174.305 283.578 173.405 284.878 170.605L293.178 153.005H289.378L285.678 161.405L284.178 165.205H283.878L282.278 161.405L278.178 153.005H274.278L282.078 168.905L281.678 169.705C281.504 170.209 281.158 170.635 280.701 170.909C280.244 171.183 279.705 171.288 279.178 171.205H276.078V174.305H278.478Z" fill="white"/>
<path d="M136.078 84.5047L19.8784 -3.49529C18.8158 -4.31082 17.9245 -5.32785 17.2553 -6.48819C16.5861 -7.64853 16.1523 -8.92942 15.9786 -10.2576C15.8049 -11.5857 15.8948 -12.9351 16.2431 -14.2285C16.5914 -15.5219 17.1913 -16.7339 18.0084 -17.7953L67.2784 -82.9953C68.0917 -84.0601 69.1071 -84.9541 70.2664 -85.6261C71.4257 -86.298 72.7061 -86.7347 74.0343 -86.9112C75.3626 -87.0877 76.7126 -87.0005 78.0071 -86.6546C79.3017 -86.3086 80.5152 -85.7108 81.5784 -84.8953L197.678 3.10471C198.743 3.91805 199.637 4.93342 200.309 6.09269C200.981 7.25196 201.418 8.53238 201.594 9.86064C201.771 11.1889 201.684 12.5389 201.338 13.8334C200.992 15.128 200.394 16.3415 199.578 17.4047L150.278 82.5047C149.482 83.575 148.482 84.4766 147.335 85.1574C146.188 85.8381 144.917 86.2845 143.596 86.4705C142.275 86.6565 140.931 86.5786 139.64 86.2411C138.35 85.9037 137.139 85.3135 136.078 84.5047V84.5047Z" fill="#ABE1FF"/>
<path d="M135.678 81.3049L23.478 -3.79513C22.4296 -4.55994 21.5431 -5.52477 20.8695 -6.63396C20.1958 -7.74314 19.7485 -8.97473 19.5533 -10.2577C19.3581 -11.5406 19.4188 -12.8495 19.732 -14.1089C20.0452 -15.3682 20.6046 -16.5531 21.378 -17.5951L68.478 -79.6951C69.274 -80.7263 70.2668 -81.5892 71.3989 -82.2337C72.531 -82.8782 73.7797 -83.2915 75.0728 -83.4497C76.3658 -83.6078 77.6774 -83.5076 78.9314 -83.155C80.1855 -82.8023 81.357 -82.2041 82.378 -81.3951L194.678 3.70487C195.726 4.46969 196.613 5.43452 197.287 6.5437C197.96 7.65289 198.408 8.88447 198.603 10.1674C198.798 11.4504 198.737 12.7593 198.424 14.0186C198.111 15.278 197.551 16.4628 196.778 17.5049L149.678 79.6049C148.029 81.6605 145.641 82.9892 143.024 83.3069C140.408 83.6246 137.771 82.906 135.678 81.3049V81.3049Z" fill="#D9F1FF"/>
<path opacity="0.65" d="M150.279 82.5048L199.479 17.5048C201.097 15.3471 201.805 12.6406 201.45 9.96662C201.095 7.29269 199.705 4.86483 197.579 3.20478L154.279 -29.5952C153.879 -29.1952 153.579 -28.5952 153.079 -27.9952L194.679 3.50478C195.707 4.27625 196.573 5.24377 197.226 6.35152C197.879 7.45928 198.306 8.68534 198.482 9.95898C198.659 11.2326 198.582 12.5286 198.255 13.7723C197.928 15.0159 197.358 16.1825 196.579 17.2048L149.279 79.7048C148.507 80.7335 147.54 81.5992 146.432 82.2521C145.324 82.905 144.098 83.3321 142.824 83.5087C141.551 83.6853 140.255 83.608 139.011 83.2813C137.767 82.9545 136.601 82.3847 135.579 81.6048L93.6785 49.8048C93.2785 50.4048 92.8785 50.8048 92.4785 51.4048L136.179 84.5048C137.232 85.3083 138.435 85.8944 139.717 86.229C140.999 86.5636 142.335 86.6401 143.647 86.454C144.959 86.268 146.221 85.823 147.359 85.145C148.498 84.4671 149.49 83.5696 150.279 82.5048V82.5048Z" fill="#ABE1FF"/>
<path d="M114.779 47.3049L156.079 -7.3951C156.578 -8.06718 157.206 -8.63259 157.927 -9.05798C158.648 -9.48338 159.446 -9.76016 160.276 -9.87199C161.105 -9.98383 161.949 -9.92847 162.757 -9.70917C163.564 -9.48987 164.32 -9.11106 164.979 -8.59509L178.079 1.40491C178.751 1.90374 179.316 2.53208 179.742 3.25288C180.167 3.97369 180.444 4.77237 180.556 5.60184C180.668 6.4313 180.612 7.27477 180.393 8.0825C180.174 8.89024 179.795 9.64589 179.279 10.3049L138.009 64.8049C137.51 65.477 136.882 66.0424 136.161 66.4678C135.44 66.8932 134.641 67.17 133.812 67.2818C132.983 67.3936 132.139 67.3383 131.331 67.119C130.524 66.8997 129.768 66.5209 129.109 66.0049L116.009 56.0049C115.353 55.5172 114.801 54.9043 114.384 54.2017C113.967 53.4991 113.693 52.7207 113.578 51.9116C113.464 51.1025 113.511 50.2787 113.717 49.488C113.923 48.6973 114.284 47.9553 114.779 47.3049V47.3049Z" fill="#9DDCFF"/>
<path opacity="0.5" d="M136.078 81.8046L94.1777 50.7046C109.078 31.3046 145.078 -16.5954 153.278 -27.2954L195.178 3.90459C196.16 4.6832 196.978 5.64846 197.586 6.74477C198.193 7.84108 198.578 9.04675 198.717 10.2923C198.857 11.5379 198.748 12.7988 198.398 14.0023C198.048 15.2058 197.463 16.3281 196.678 17.3046L149.478 79.6046C146.078 83.9046 140.078 84.8046 136.078 81.8046Z" fill="#86CBF1"/>
<path opacity="0.71" d="M120.009 46.6046L157.009 -2.2954C157.416 -2.83382 157.925 -3.28679 158.508 -3.62844C159.09 -3.97008 159.733 -4.19372 160.402 -4.28658C161.071 -4.37944 161.751 -4.3397 162.404 -4.16963C163.057 -3.99957 163.671 -3.7025 164.209 -3.2954L173.409 3.6046C173.948 4.0117 174.401 4.52086 174.742 5.10302C175.084 5.68517 175.307 6.32891 175.4 6.99749C175.493 7.66608 175.453 8.34641 175.283 8.99963C175.113 9.65286 174.816 10.2662 174.409 10.8046L137.409 59.7046C137.002 60.243 136.493 60.696 135.911 61.0376C135.329 61.3793 134.685 61.6029 134.016 61.6958C133.348 61.7886 132.667 61.7489 132.014 61.5788C131.361 61.4088 130.748 61.1117 130.209 60.7046L121.009 53.8046C120.455 53.4098 119.987 52.9059 119.634 52.324C119.282 51.742 119.051 51.0941 118.958 50.4201C118.864 49.746 118.909 49.06 119.09 48.4039C119.271 47.7478 119.583 47.1356 120.009 46.6046V46.6046Z" fill="white"/>
<path d="M93.5789 52.3045L155.279 -29.0955L153.579 -30.3955L91.8789 51.0045L93.5789 52.3045Z" fill="#ABE1FF"/>
<path fill-rule="evenodd" clip-rule="evenodd" d="M95.0776 27.4047C95.4946 26.9014 96.084 26.5713 96.7311 26.4789C97.3781 26.3864 98.0364 26.5382 98.5776 26.9047L99.8776 27.9047C100.381 28.3217 100.711 28.9111 100.803 29.5582C100.896 30.2052 100.744 30.8635 100.378 31.4047L93.7776 40.1047C93.3607 40.6081 92.7712 40.9381 92.1242 41.0306C91.4771 41.123 90.8188 40.9712 90.2776 40.6047L88.9776 39.6047C88.4743 39.1878 88.1442 38.5983 88.0518 37.9513C87.9593 37.3042 88.1111 36.6459 88.4776 36.1047L95.0776 27.4047ZM138.578 -30.1953C138.995 -30.6986 139.584 -31.0287 140.231 -31.1211C140.878 -31.2136 141.536 -31.0618 142.078 -30.6953L143.378 -29.6953C143.881 -29.2783 144.211 -28.6889 144.303 -28.0418C144.396 -27.3948 144.244 -26.7365 143.878 -26.1953L137.278 -17.4953C136.861 -16.9919 136.271 -16.6619 135.624 -16.5694C134.977 -16.477 134.319 -16.6288 133.778 -16.9953L132.478 -17.9953C131.974 -18.4122 131.644 -19.0017 131.552 -19.6487C131.459 -20.2958 131.611 -20.9541 131.978 -21.4953L138.578 -30.1953ZM127.878 -11.8953C127.336 -12.2595 126.678 -12.41 126.032 -12.3177C125.385 -12.2254 124.796 -11.8967 124.378 -11.3953L117.778 -2.69528C117.413 -2.15334 117.263 -1.49564 117.355 -0.849228C117.448 -0.202811 117.776 0.386451 118.278 0.804718L119.578 1.80472C120.12 2.16898 120.777 2.31946 121.424 2.22712C122.07 2.13477 122.659 1.80615 123.078 1.30472L129.678 -7.39529C130.042 -7.93722 130.192 -8.59492 130.1 -9.24134C130.008 -9.88776 129.679 -10.477 129.178 -10.8953L127.878 -11.8953ZM110.008 7.60471C110.425 7.10135 111.014 6.77129 111.661 6.67886C112.308 6.58642 112.966 6.73824 113.508 7.10471L114.908 8.20471C115.411 8.62166 115.741 9.21111 115.833 9.85816C115.926 10.5052 115.774 11.1635 115.408 11.7047L108.808 20.4047C108.391 20.9081 107.801 21.2381 107.154 21.3306C106.507 21.423 105.849 21.2712 105.308 20.9047L104.008 19.9047C103.504 19.4878 103.174 18.8983 103.082 18.2513C102.989 17.6042 103.141 16.9459 103.508 16.4047L110.008 7.60471ZM125.108 -43.2953C124.767 -43.5461 124.379 -43.727 123.968 -43.8276C123.557 -43.9282 123.13 -43.9465 122.712 -43.8815C122.294 -43.8164 121.892 -43.6693 121.531 -43.4486C121.17 -43.2278 120.856 -42.9378 120.608 -42.5953L115.208 -35.3953C114.957 -35.0543 114.776 -34.6672 114.675 -34.256C114.575 -33.8449 114.556 -33.4179 114.621 -32.9997C114.686 -32.5814 114.834 -32.1802 115.054 -31.819C115.275 -31.4579 115.565 -31.1439 115.908 -30.8953L122.708 -25.6953C123.049 -25.4445 123.436 -25.2635 123.847 -25.1629C124.258 -25.0623 124.685 -25.044 125.103 -25.1091C125.521 -25.1741 125.923 -25.3213 126.284 -25.542C126.645 -25.7628 126.959 -26.0527 127.208 -26.3953L132.608 -33.5953C132.858 -33.9362 133.039 -34.3234 133.14 -34.7346C133.241 -35.1457 133.259 -35.5727 133.194 -35.9909C133.129 -36.4092 132.982 -36.8104 132.761 -37.1716C132.54 -37.5327 132.25 -37.8466 131.908 -38.0953L125.108 -43.2953ZM105.008 -54.3953C105.521 -55.0719 106.277 -55.523 107.116 -55.6536C107.956 -55.7841 108.813 -55.584 109.508 -55.0953L116.308 -49.8953C116.984 -49.3818 117.435 -48.6259 117.566 -47.7866C117.696 -46.9473 117.496 -46.09 117.008 -45.3953L111.608 -38.1953C111.094 -37.5186 110.338 -37.0676 109.499 -36.937C108.66 -36.8065 107.802 -37.0066 107.108 -37.4953L100.308 -42.6953C99.631 -43.2087 99.1799 -43.9647 99.0493 -44.804C98.9188 -45.6433 99.1189 -46.5005 99.6076 -47.1953L105.008 -54.3953ZM93.0076 -67.5953C92.6667 -67.8461 92.2795 -68.027 91.8683 -68.1276C91.4572 -68.2282 91.0302 -68.2465 90.612 -68.1815C90.1937 -68.1164 89.7925 -67.9693 89.4313 -67.7486C89.0702 -67.5278 88.7563 -67.2378 88.5076 -66.8953L83.1076 -59.6953C82.8568 -59.3543 82.6759 -58.9672 82.5753 -58.556C82.4746 -58.1449 82.4564 -57.7179 82.5214 -57.2997C82.5865 -56.8814 82.7336 -56.4802 82.9543 -56.119C83.1751 -55.7579 83.4651 -55.4439 83.8076 -55.1953L90.6076 -49.9953C90.9486 -49.7445 91.3357 -49.5635 91.7469 -49.4629C92.158 -49.3623 92.585 -49.344 93.0032 -49.4091C93.4215 -49.4741 93.8227 -49.6213 94.1839 -49.842C94.545 -50.0628 94.859 -50.3527 95.1076 -50.6953L100.508 -57.8953C100.758 -58.2362 100.939 -58.6234 101.04 -59.0346C101.141 -59.4457 101.159 -59.8727 101.094 -60.2909C101.029 -60.7092 100.882 -61.1104 100.661 -61.4716C100.44 -61.8327 100.15 -62.1466 99.8076 -62.3953L93.0076 -67.5953ZM76.5076 15.5047C77.0211 14.8281 77.777 14.377 78.6163 14.2464C79.4556 14.1159 80.3129 14.316 81.0076 14.8047L87.8076 20.0047C88.4843 20.5182 88.9353 21.2741 89.0659 22.1134C89.1964 22.9527 88.9963 23.81 88.5076 24.5047L83.1076 31.7047C82.5942 32.3814 81.8382 32.8324 80.9989 32.963C80.1596 33.0935 79.3024 32.8934 78.6076 32.4047L71.8076 27.2047C71.131 26.6912 70.6799 25.9353 70.5493 25.096C70.4188 24.2567 70.6189 23.3995 71.1076 22.7047L76.5076 15.5047ZM65.4076 3.10471C65.0667 2.85389 64.6795 2.67296 64.2683 2.57236C63.8572 2.47175 63.4302 2.45346 63.012 2.51852C62.5937 2.58358 62.1925 2.73071 61.8313 2.95145C61.4702 3.17219 61.1563 3.46218 60.9076 3.80472L55.5076 11.0047C55.2568 11.3457 55.0759 11.7328 54.9753 12.144C54.8746 12.5551 54.8564 12.9821 54.9214 13.4003C54.9865 13.8186 55.1336 14.2198 55.3543 14.581C55.5751 14.9421 55.8651 15.2561 56.2076 15.5047L63.0076 20.7047C63.3486 20.9555 63.7357 21.1365 64.1469 21.2371C64.558 21.3377 64.985 21.356 65.4032 21.2909C65.8215 21.2259 66.2227 21.0787 66.5839 20.858C66.945 20.6372 67.259 20.3473 67.5076 20.0047L72.9076 12.8047C73.1584 12.4638 73.3394 12.0766 73.44 11.6654C73.5406 11.2543 73.5589 10.8273 73.4938 10.4091C73.4287 9.99084 73.2816 9.5896 73.0609 9.22845C72.8401 8.86729 72.5501 8.55336 72.2076 8.30472L65.4076 3.10471ZM36.1776 -18.9953L53.3776 -5.99529C54.3371 -5.23716 54.9665 -4.13752 55.1342 -2.9262C55.302 -1.71488 54.995 -0.485605 54.2776 0.504715L50.5776 5.30472C49.8195 6.26424 48.7198 6.89362 47.5085 7.06134C46.2972 7.22906 45.0679 6.92214 44.0776 6.20471L26.8776 -6.79529C25.9181 -7.55342 25.2887 -8.65304 25.121 -9.86436C24.9533 -11.0757 25.2602 -12.305 25.9776 -13.2953L29.6776 -18.0953C30.0453 -18.5812 30.5051 -18.9899 31.0308 -19.2981C31.5564 -19.6063 32.1376 -19.8079 32.7412 -19.8915C33.3448 -19.9751 33.9589 -19.9389 34.5485 -19.7852C35.1382 -19.6314 35.6917 -19.363 36.1776 -18.9953V-18.9953ZM110.778 -24.4953C110.437 -24.7461 110.049 -24.927 109.638 -25.0276C109.227 -25.1282 108.8 -25.1465 108.382 -25.0815C107.964 -25.0164 107.562 -24.8693 107.201 -24.6486C106.84 -24.4278 106.526 -24.1378 106.278 -23.7953L100.878 -16.5953C100.627 -16.2543 100.446 -15.8672 100.345 -15.456C100.245 -15.0449 100.226 -14.6179 100.291 -14.1997C100.356 -13.7814 100.504 -13.3802 100.724 -13.019C100.945 -12.6579 101.235 -12.3439 101.578 -12.0953L108.378 -6.89529C108.719 -6.64446 109.106 -6.46353 109.517 -6.36293C109.928 -6.26233 110.355 -6.24403 110.773 -6.30909C111.191 -6.37415 111.593 -6.52128 111.954 -6.74202C112.315 -6.96276 112.629 -7.25274 112.878 -7.59528L118.278 -14.7953C118.528 -15.1362 118.709 -15.5234 118.81 -15.9346C118.911 -16.3457 118.929 -16.7727 118.864 -17.1909C118.799 -17.6092 118.652 -18.0104 118.431 -18.3716C118.21 -18.7327 117.92 -19.0466 117.578 -19.2953L110.778 -24.4953ZM90.6776 -35.6953C91.1911 -36.3719 91.947 -36.823 92.7863 -36.9536C93.6256 -37.0841 94.4829 -36.884 95.1776 -36.3953L101.978 -31.1953C102.654 -30.6818 103.105 -29.9259 103.236 -29.0866C103.366 -28.2473 103.166 -27.39 102.678 -26.6953L97.2776 -19.4953C96.7641 -18.8186 96.0082 -18.3676 95.1689 -18.237C94.3296 -18.1065 93.4724 -18.3066 92.7776 -18.7953L86.0076 -23.9953C85.331 -24.5087 84.8799 -25.2647 84.7493 -26.104C84.6188 -26.9433 84.8189 -27.8005 85.3076 -28.4953L90.6776 -35.6953ZM78.6776 -48.7953C78.3367 -49.0461 77.9495 -49.227 77.5383 -49.3276C77.1272 -49.4282 76.7002 -49.4465 76.282 -49.3815C75.8637 -49.3164 75.4625 -49.1693 75.1013 -48.9486C74.7402 -48.7278 74.4263 -48.4378 74.1776 -48.0953L68.8776 -40.9953C68.6268 -40.6543 68.4459 -40.2672 68.3453 -39.856C68.2447 -39.4449 68.2263 -39.0179 68.2914 -38.5997C68.3565 -38.1814 68.5036 -37.7802 68.7243 -37.419C68.9451 -37.0579 69.2351 -36.7439 69.5776 -36.4953L76.3776 -31.2953C76.7186 -31.0445 77.1057 -30.8635 77.5169 -30.7629C77.928 -30.6623 78.355 -30.644 78.7732 -30.7091C79.1915 -30.7741 79.5927 -30.9213 79.9539 -31.142C80.315 -31.3628 80.629 -31.6527 80.8776 -31.9953L86.2776 -39.1953C86.5284 -39.5362 86.7094 -39.9234 86.81 -40.3346C86.9106 -40.7457 86.9289 -41.1727 86.8638 -41.5909C86.7988 -42.0092 86.6516 -42.4104 86.4309 -42.7716C86.2101 -43.1327 85.9202 -43.4466 85.5776 -43.6953L78.6776 -48.7953ZM91.8776 -4.79529C92.3911 -5.47193 93.147 -5.923 93.9863 -6.05356C94.8256 -6.18412 95.6829 -5.98399 96.3776 -5.49529L103.178 -0.295288C103.854 0.218176 104.305 0.974118 104.436 1.81343C104.566 2.65274 104.366 3.50997 103.878 4.20471L98.4776 11.4047C97.9641 12.0814 97.2082 12.5324 96.3689 12.663C95.5296 12.7935 94.6723 12.5934 93.9776 12.1047L87.1776 6.90472C86.501 6.39125 86.0499 5.63532 85.9193 4.79601C85.7888 3.95669 85.9889 3.09946 86.4776 2.40472L91.8776 -4.79529ZM80.7776 -17.2953C80.4367 -17.5461 80.0495 -17.727 79.6383 -17.8276C79.2272 -17.9282 78.8002 -17.9465 78.382 -17.8815C77.9637 -17.8164 77.5625 -17.6693 77.2013 -17.4485C76.8402 -17.2278 76.5263 -16.9378 76.2776 -16.5953L70.8776 -9.39529C70.6268 -9.05434 70.4459 -8.66715 70.3453 -8.25601C70.2447 -7.84487 70.2263 -7.4179 70.2914 -6.99966C70.3565 -6.58142 70.5036 -6.18017 70.7243 -5.81902C70.9451 -5.45786 71.2351 -5.14393 71.5776 -4.89529L78.3776 0.304718C78.7186 0.555546 79.1057 0.736463 79.5169 0.837067C79.928 0.937671 80.355 0.955975 80.7732 0.890915C81.1915 0.825855 81.5927 0.678716 81.9539 0.457977C82.315 0.237238 82.629 -0.0527447 82.8776 -0.395287L88.2776 -7.59528C88.5284 -7.93623 88.7094 -8.32342 88.81 -8.73456C88.9106 -9.1457 88.9289 -9.57267 88.8638 -9.99091C88.7988 -10.4092 88.6516 -10.8104 88.4309 -11.1716C88.2101 -11.5327 87.9202 -11.8466 87.5776 -12.0953L80.7776 -17.2953ZM59.8776 -29.0953C60.3911 -29.7719 61.147 -30.223 61.9863 -30.3536C62.8256 -30.4841 63.6829 -30.284 64.3776 -29.7953L71.1776 -24.5953C71.8543 -24.0818 72.3053 -23.3259 72.4359 -22.4866C72.5664 -21.6473 72.3663 -20.79 71.8776 -20.0953L66.4776 -12.8953C65.9641 -12.2186 65.2082 -11.7676 64.3689 -11.637C63.5296 -11.5065 62.6724 -11.7066 61.9776 -12.1953L55.1776 -17.3953C54.501 -17.9088 54.0499 -18.6647 53.9193 -19.504C53.7888 -20.3433 53.9889 -21.2005 54.4776 -21.8953L59.8776 -29.0953ZM77.1776 -79.4953C76.8367 -79.7461 76.4495 -79.927 76.0383 -80.0276C75.6272 -80.1282 75.2002 -80.1465 74.782 -80.0815C74.3637 -80.0164 73.9625 -79.8693 73.6013 -79.6486C73.2402 -79.4278 72.9263 -79.1378 72.6776 -78.7953L67.2776 -71.5953C67.0268 -71.2543 66.8459 -70.8672 66.7453 -70.456C66.6446 -70.0449 66.6264 -69.6179 66.6914 -69.1997C66.7565 -68.7814 66.9036 -68.3802 67.1243 -68.019C67.3451 -67.6579 67.6351 -67.3439 67.9776 -67.0953L74.7776 -61.8953C75.1186 -61.6445 75.5057 -61.4635 75.9169 -61.3629C76.328 -61.2623 76.755 -61.244 77.1732 -61.3091C77.5915 -61.3741 77.9927 -61.5213 78.3539 -61.742C78.715 -61.9628 79.029 -62.2527 79.2776 -62.5953L84.6776 -69.7953C84.9284 -70.1362 85.1094 -70.5234 85.21 -70.9346C85.3106 -71.3457 85.3289 -71.7727 85.2638 -72.1909C85.1987 -72.6092 85.0516 -73.0104 84.8309 -73.3716C84.6101 -73.7327 84.3202 -74.0466 83.9776 -74.2953L77.1776 -79.4953ZM58.5776 -59.9953C59.0911 -60.6719 59.847 -61.123 60.6863 -61.2536C61.5256 -61.3841 62.3829 -61.184 63.0776 -60.6953L69.8776 -55.4953C70.5542 -54.9818 71.0053 -54.2259 71.1359 -53.3866C71.2664 -52.5473 71.0663 -51.69 70.5776 -50.9953L65.1776 -43.7953C64.6641 -43.1186 63.9082 -42.6676 63.0689 -42.537C62.2296 -42.4065 61.3723 -42.6066 60.6776 -43.0953L53.8776 -48.2953C53.201 -48.8087 52.7499 -49.5647 52.6193 -50.404C52.4888 -51.2433 52.6889 -52.1005 53.1776 -52.7953L58.5776 -59.9953ZM48.5776 -41.6953C48.2367 -41.9461 47.8495 -42.127 47.4383 -42.2276C47.0272 -42.3282 46.6002 -42.3465 46.182 -42.2815C45.7637 -42.2164 45.3625 -42.0693 45.0013 -41.8486C44.6402 -41.6278 44.3263 -41.3378 44.0776 -40.9953L38.6776 -33.7953C38.4268 -33.4543 38.2459 -33.0672 38.1453 -32.656C38.0446 -32.2449 38.0264 -31.8179 38.0914 -31.3997C38.1565 -30.9814 38.3036 -30.5802 38.5243 -30.219C38.7451 -29.8579 39.0351 -29.5439 39.3776 -29.2953L46.1776 -24.0953C46.5186 -23.8445 46.9057 -23.6635 47.3169 -23.5629C47.728 -23.4623 48.155 -23.444 48.5732 -23.5091C48.9915 -23.5741 49.3927 -23.7213 49.7539 -23.942C50.115 -24.1628 50.429 -24.4527 50.6776 -24.7953L56.0776 -31.9953C56.3284 -32.3362 56.5094 -32.7234 56.61 -33.1346C56.7106 -33.5457 56.7289 -33.9727 56.6638 -34.3909C56.5987 -34.8092 56.4516 -35.2104 56.2309 -35.5716C56.0101 -35.9327 55.7202 -36.2466 55.3776 -36.4953L48.5776 -41.6953Z" fill="#7FD5FA"/>
<path d="M57.4789 128.205C57.3789 128.205 57.3789 128.005 57.3789 127.805L57.4789 127.405H57.8789C57.9575 127.398 58.0364 127.413 58.1069 127.449C58.1775 127.484 58.237 127.538 58.2789 127.605L58.6789 128.305L57.8789 128.105C57.5789 128.305 57.4789 128.405 57.4789 128.205ZM57.6789 128.005L57.4789 128.105C57.4789 128.205 57.5789 128.305 57.6789 128.205V128.005Z" fill="#49380F"/>
<path d="M124.477 110.905L29.4775 46.3048C27.871 45.2104 25.8968 44.7959 23.9857 45.1518C22.0747 45.5078 20.3822 46.6053 19.2775 48.2048L-62.7225 168.705C-63.817 170.311 -64.2315 172.286 -63.8755 174.197C-63.5195 176.108 -62.422 177.8 -60.8225 178.905L34.1775 243.505C35.784 244.599 37.7582 245.014 39.6692 244.658C41.5802 244.302 43.2728 243.204 44.3775 241.605L126.377 121.105C126.931 120.313 127.322 119.419 127.526 118.475C127.73 117.531 127.744 116.556 127.567 115.606C127.391 114.657 127.026 113.752 126.496 112.944C125.965 112.137 125.279 111.444 124.477 110.905V110.905ZM-56.6225 170.105C-57.0655 169.783 -57.3726 169.307 -57.4835 168.771C-57.5945 168.235 -57.5014 167.676 -57.2225 167.205C-56.9005 166.762 -56.4249 166.455 -55.8886 166.344C-55.3523 166.233 -54.7939 166.326 -54.3225 166.605C-53.8795 166.927 -53.5725 167.402 -53.4615 167.939C-53.3506 168.475 -53.4436 169.033 -53.7225 169.505C-53.8643 169.745 -54.0547 169.953 -54.2815 170.115C-54.5083 170.277 -54.7666 170.39 -55.0397 170.447C-55.3128 170.503 -55.5947 170.502 -55.8673 170.443C-56.1399 170.384 -56.3971 170.269 -56.6225 170.105V170.105ZM-51.4225 162.605C-51.8866 162.3 -52.2106 161.823 -52.3231 161.279C-52.4356 160.735 -52.3275 160.169 -52.0225 159.705C-51.7175 159.241 -51.2406 158.917 -50.6968 158.804C-50.1529 158.692 -49.5866 158.8 -49.1225 159.105C-48.8927 159.256 -48.6949 159.451 -48.5404 159.678C-48.3858 159.906 -48.2776 160.161 -48.2219 160.431C-48.1662 160.7 -48.1641 160.977 -48.2156 161.248C-48.2672 161.518 -48.3715 161.775 -48.5225 162.005C-48.6735 162.235 -48.8683 162.432 -49.0958 162.587C-49.3233 162.742 -49.579 162.85 -49.8483 162.905C-50.1175 162.961 -50.3952 162.963 -50.6653 162.912C-50.9354 162.86 -51.1927 162.756 -51.4225 162.605V162.605ZM-46.2225 155.005C-46.6866 154.7 -47.0106 154.223 -47.1231 153.679C-47.2356 153.135 -47.1275 152.569 -46.8225 152.105C-46.5175 151.641 -46.0406 151.317 -45.4968 151.204C-44.9529 151.092 -44.3866 151.2 -43.9225 151.505C-43.4795 151.827 -43.1725 152.302 -43.0615 152.839C-42.9506 153.375 -43.0436 153.933 -43.3225 154.405C-43.4643 154.645 -43.6547 154.853 -43.8815 155.015C-44.1083 155.177 -44.3666 155.29 -44.6397 155.347C-44.9128 155.403 -45.1947 155.402 -45.4673 155.343C-45.7399 155.284 -45.9971 155.169 -46.2225 155.005V155.005ZM-41.2225 147.405C-41.6866 147.1 -42.0106 146.623 -42.1231 146.079C-42.2356 145.535 -42.1275 144.969 -41.8225 144.505C-41.5175 144.041 -41.0406 143.717 -40.4968 143.604C-39.9529 143.492 -39.3866 143.6 -38.9225 143.905C-38.4795 144.227 -38.1725 144.702 -38.0615 145.239C-37.9506 145.775 -38.0436 146.333 -38.3225 146.805C-38.4723 147.036 -38.6665 147.235 -38.8938 147.391C-39.1212 147.547 -39.3773 147.655 -39.6471 147.711C-39.9169 147.767 -40.1951 147.769 -40.4655 147.716C-40.736 147.663 -40.9933 147.558 -41.2225 147.405V147.405ZM-36.0225 139.905C-36.3672 139.677 -36.6368 139.353 -36.7973 138.972C-36.9577 138.592 -37.0017 138.172 -36.9239 137.766C-36.846 137.361 -36.6497 136.987 -36.3598 136.693C-36.0699 136.399 -35.6993 136.197 -35.2948 136.114C-34.8904 136.03 -34.4702 136.068 -34.0873 136.223C-33.7045 136.378 -33.3761 136.643 -33.1437 136.984C-32.9113 137.326 -32.7852 137.728 -32.7814 138.141C-32.7777 138.554 -32.8964 138.959 -33.1225 139.305C-33.2645 139.541 -33.4536 139.745 -33.678 139.904C-33.9024 140.063 -34.1572 140.175 -34.4266 140.231C-34.696 140.287 -34.9742 140.287 -35.2436 140.231C-35.513 140.175 -35.768 140.064 -35.9925 139.905H-36.0225ZM-30.8225 132.405C-31.1672 132.177 -31.4368 131.853 -31.5973 131.472C-31.7577 131.092 -31.8017 130.672 -31.7239 130.266C-31.646 129.861 -31.4497 129.487 -31.1598 129.193C-30.8699 128.899 -30.4993 128.697 -30.0948 128.614C-29.6904 128.53 -29.2702 128.568 -28.8873 128.723C-28.5045 128.878 -28.1761 129.143 -27.9437 129.484C-27.7113 129.826 -27.5852 130.228 -27.5814 130.641C-27.5777 131.054 -27.6964 131.459 -27.9225 131.805C-28.2445 132.248 -28.7201 132.555 -29.2565 132.666C-29.7928 132.777 -30.3512 132.684 -30.8225 132.405V132.405ZM-25.7225 124.805C-26.0672 124.577 -26.3368 124.253 -26.4973 123.872C-26.6577 123.492 -26.7017 123.072 -26.6239 122.666C-26.546 122.261 -26.3497 121.887 -26.0598 121.593C-25.7699 121.299 -25.3993 121.097 -24.9948 121.014C-24.5904 120.93 -24.1702 120.968 -23.7873 121.123C-23.4045 121.278 -23.0761 121.543 -22.8437 121.884C-22.6113 122.226 -22.4852 122.628 -22.4814 123.041C-22.4777 123.454 -22.5964 123.859 -22.8225 124.205C-23.1286 124.668 -23.6054 124.991 -24.1488 125.103C-24.6921 125.215 -25.2579 125.108 -25.7225 124.805V124.805ZM-20.6225 117.205C-20.9672 116.977 -21.2368 116.653 -21.3973 116.272C-21.5577 115.892 -21.6017 115.472 -21.5239 115.066C-21.446 114.661 -21.2497 114.287 -20.9598 113.993C-20.6699 113.699 -20.2993 113.497 -19.8948 113.414C-19.4904 113.33 -19.0702 113.368 -18.6873 113.523C-18.3045 113.678 -17.9761 113.943 -17.7437 114.284C-17.5113 114.626 -17.3852 115.028 -17.3814 115.441C-17.3777 115.854 -17.4964 116.259 -17.7225 116.605C-17.8643 116.845 -18.0547 117.053 -18.2815 117.215C-18.5083 117.377 -18.7666 117.49 -19.0397 117.547C-19.3128 117.603 -19.5947 117.602 -19.8673 117.543C-20.1399 117.484 -20.3971 117.369 -20.6225 117.205V117.205ZM-15.4225 109.705C-15.7672 109.477 -16.0368 109.153 -16.1973 108.772C-16.3577 108.392 -16.4017 107.972 -16.3239 107.566C-16.246 107.161 -16.0497 106.787 -15.7598 106.493C-15.4698 106.199 -15.0993 105.997 -14.6948 105.914C-14.2904 105.83 -13.8702 105.868 -13.4873 106.023C-13.1045 106.178 -12.7761 106.443 -12.5437 106.784C-12.3113 107.126 -12.1852 107.528 -12.1814 107.941C-12.1777 108.354 -12.2964 108.759 -12.5225 109.105C-12.832 109.564 -13.3085 109.883 -13.8504 109.995C-14.3922 110.107 -14.9564 110.003 -15.4225 109.705V109.705ZM-10.3225 102.105C-10.6672 101.877 -10.9368 101.553 -11.0973 101.172C-11.2577 100.792 -11.3017 100.372 -11.2239 99.9664C-11.146 99.5608 -10.9497 99.1874 -10.6598 98.8932C-10.3699 98.5991 -9.99926 98.3975 -9.59481 98.3138C-9.19035 98.2301 -8.77018 98.2681 -8.38732 98.4231C-8.00447 98.578 -7.6761 98.8429 -7.44368 99.1843C-7.21126 99.5257 -7.08521 99.9284 -7.08145 100.341C-7.07768 100.754 -7.19637 101.159 -7.42252 101.505C-7.72857 101.968 -8.20537 102.291 -8.74875 102.403C-9.29214 102.515 -9.85793 102.408 -10.3225 102.105V102.105ZM-5.12252 94.5048C-5.46724 94.2773 -5.73683 93.9528 -5.89726 93.5722C-6.05768 93.1916 -6.10175 92.772 -6.02389 92.3664C-5.94603 91.9608 -5.74974 91.5874 -5.45979 91.2932C-5.16985 90.9991 -4.79926 90.7974 -4.39481 90.7138C-3.99035 90.6301 -3.57018 90.6681 -3.18732 90.8231C-2.80447 90.978 -2.4761 91.2429 -2.24368 91.5843C-2.01126 91.9257 -1.88521 92.3284 -1.88145 92.7414C-1.87768 93.1544 -1.99637 93.5592 -2.22252 93.9048C-2.532 94.3635 -3.00854 94.683 -3.55039 94.7951C-4.09224 94.9072 -4.65644 94.8031 -5.12252 94.5048V94.5048ZM0.0774841 87.0048C-0.267238 86.7773 -0.536837 86.4528 -0.697262 86.0722C-0.857687 85.6916 -0.901746 85.272 -0.823887 84.8664C-0.746027 84.4608 -0.549735 84.0874 -0.259792 83.7932C0.0301501 83.4991 0.400746 83.2974 0.805199 83.2138C1.20965 83.1301 1.62983 83.1681 2.01269 83.3231C2.39554 83.478 2.7239 83.7429 2.95632 84.0843C3.18874 84.4257 3.31479 84.8284 3.31856 85.2414C3.32232 85.6544 3.20364 86.0592 2.97749 86.4048C2.66801 86.8635 2.19146 87.183 1.64961 87.2951C1.10777 87.4072 0.543563 87.3031 0.0774841 87.0048ZM5.07748 79.4048C4.73276 79.1773 4.46317 78.8528 4.30274 78.4722C4.14232 78.0916 4.09826 77.6721 4.17612 77.2664C4.25398 76.8608 4.45027 76.4874 4.74021 76.1932C5.03015 75.8991 5.40075 75.6975 5.8052 75.6138C6.20965 75.5301 6.62983 75.5681 7.01269 75.7231C7.39554 75.878 7.7239 76.1429 7.95632 76.4843C8.18874 76.8257 8.31479 77.2284 8.31856 77.6414C8.32232 78.0544 8.20364 78.4592 7.97749 78.8048C7.83574 79.045 7.64533 79.2529 7.4185 79.4151C7.19166 79.5773 6.9334 79.6903 6.66031 79.7468C6.38722 79.8033 6.10533 79.8021 5.83274 79.7432C5.56015 79.6843 5.30289 79.569 5.07748 79.4048V79.4048ZM10.2775 71.8048C9.93276 71.5773 9.66317 71.2528 9.50275 70.8722C9.34232 70.4916 9.29825 70.072 9.37611 69.6664C9.45397 69.2608 9.65027 68.8874 9.94021 68.5932C10.2302 68.2991 10.6007 68.0975 11.0052 68.0138C11.4096 67.9301 11.8298 67.9681 12.2127 68.1231C12.5955 68.278 12.9239 68.5429 13.1563 68.8843C13.3887 69.2257 13.5148 69.6284 13.5186 70.0414C13.5223 70.4544 13.4036 70.8592 13.1775 71.2048C13.0357 71.445 12.8453 71.6529 12.6185 71.8151C12.3917 71.9773 12.1334 72.0903 11.8603 72.1468C11.5872 72.2033 11.3053 72.2021 11.0327 72.1432C10.7602 72.0843 10.5029 71.969 10.2775 71.8048V71.8048ZM15.4775 64.3048C15.1328 64.0773 14.8632 63.7528 14.7027 63.3722C14.5423 62.9916 14.4983 62.572 14.5761 62.1664C14.654 61.7608 14.8503 61.3874 15.1402 61.0932C15.4302 60.7991 15.8007 60.5975 16.2052 60.5138C16.6097 60.4301 17.0298 60.4681 17.4127 60.6231C17.7955 60.778 18.1239 61.0429 18.3563 61.3843C18.5887 61.7257 18.7148 62.1284 18.7186 62.5414C18.7223 62.9544 18.6036 63.3592 18.3775 63.7048C18.068 64.1635 17.5915 64.483 17.0496 64.5951C16.5078 64.7072 15.9436 64.6031 15.4775 64.3048V64.3048ZM20.5775 56.7048C20.2328 56.4773 19.9632 56.1528 19.8027 55.7722C19.6423 55.3916 19.5983 54.972 19.6761 54.5664C19.754 54.1608 19.9503 53.7874 20.2402 53.4932C20.5302 53.1991 20.9007 52.9975 21.3052 52.9138C21.7097 52.8301 22.1298 52.8681 22.5127 53.0231C22.8955 53.178 23.2239 53.4429 23.4563 53.7843C23.6887 54.1257 23.8148 54.5284 23.8186 54.9414C23.8223 55.3544 23.7036 55.7592 23.4775 56.1048C23.3357 56.345 23.1453 56.5529 22.9185 56.7151C22.6917 56.8773 22.4334 56.9903 22.1603 57.0468C21.8872 57.1033 21.6053 57.1021 21.3327 57.0432C21.0602 56.9843 20.8029 56.869 20.5775 56.7048V56.7048Z" fill="#FFCB27"/>
<path fill-rule="evenodd" clip-rule="evenodd" d="M21.0783 55.5048C21.2953 55.6496 21.5582 55.7093 21.8165 55.6724C22.0748 55.6355 22.3104 55.5046 22.4783 55.3048C22.6006 55.0811 22.6473 54.8239 22.6112 54.5715C22.5752 54.3191 22.4583 54.0852 22.2783 53.9048L13.7783 48.1048C13.6732 48.026 13.5537 47.9687 13.4264 47.9361C13.2992 47.9035 13.1668 47.8963 13.0368 47.9148C12.9068 47.9334 12.7818 47.9774 12.6688 48.0443C12.5558 48.1112 12.4571 48.1997 12.3783 48.3048C12.2995 48.4098 12.2421 48.5294 12.2095 48.6566C12.1769 48.7838 12.1697 48.9162 12.1883 49.0462C12.2069 49.1762 12.2509 49.3013 12.3178 49.4143C12.3847 49.5273 12.4732 49.626 12.5783 49.7048L21.0783 55.5048ZM16.0083 63.0048C16.2253 63.1496 16.4882 63.2093 16.7465 63.1724C17.0048 63.1355 17.2404 63.0046 17.4083 62.8048C17.5488 62.5864 17.606 62.3246 17.5693 62.0675C17.5325 61.8104 17.4044 61.5751 17.2083 61.4048L8.70825 55.6048C8.49608 55.4457 8.22939 55.3773 7.96684 55.4148C7.70428 55.4523 7.46739 55.5926 7.30826 55.8048C7.14913 56.017 7.0808 56.2837 7.11831 56.5462C7.15582 56.8088 7.29608 57.0457 7.50826 57.2048L16.0083 63.0048ZM12.2083 70.4048C12.1387 70.5211 12.044 70.6204 11.9312 70.6955C11.8183 70.7705 11.6901 70.8194 11.5559 70.8386C11.4218 70.8578 11.285 70.8467 11.1556 70.8063C11.0263 70.7658 10.9076 70.697 10.8083 70.6048L2.30826 64.8048C2.09608 64.6457 1.95581 64.4088 1.9183 64.1462C1.8808 63.8837 1.94912 63.617 2.10825 63.4048C2.26738 63.1926 2.50428 63.0523 2.76683 63.0148C3.02938 62.9773 3.29608 63.0457 3.50826 63.2048L11.9083 69.0048C12.0188 69.0782 12.1136 69.173 12.1871 69.2834C12.2606 69.3939 12.3115 69.5179 12.3366 69.6482C12.3617 69.7785 12.3607 69.9125 12.3335 70.0424C12.3063 70.1723 12.2535 70.2955 12.1783 70.4048H12.2083ZM5.70825 78.2048C5.92531 78.3496 6.18816 78.4093 6.44648 78.3724C6.7048 78.3355 6.94043 78.2046 7.10825 78.0048C7.20539 77.7753 7.23811 77.5237 7.20287 77.277C7.16762 77.0303 7.06577 76.7979 6.90826 76.6048L-1.59174 70.8048C-1.80392 70.6457 -2.07062 70.5773 -2.33317 70.6148C-2.59572 70.6523 -2.83262 70.7926 -2.99174 71.0048C-3.15087 71.217 -3.2192 71.4837 -3.18169 71.7462C-3.14419 72.0088 -3.00392 72.2456 -2.79174 72.4048L5.70825 78.2048ZM1.90826 85.5048C1.8387 85.6211 1.74403 85.7204 1.63117 85.7955C1.51832 85.8705 1.39012 85.9194 1.25594 85.9386C1.12177 85.9578 0.98501 85.9467 0.855652 85.9063C0.726294 85.8658 0.607604 85.797 0.508255 85.7048L-3.49174 83.0048L-7.29174 80.4048L-8.09174 79.8048C-8.30392 79.6457 -8.44419 79.4088 -8.48169 79.1462C-8.5192 78.8837 -8.45087 78.617 -8.29174 78.4048C-8.13261 78.1926 -7.89572 78.0523 -7.63317 78.0148C-7.37062 77.9773 -7.10392 78.0457 -6.89175 78.2048L-6.09174 78.7048L-2.29174 81.3048L1.70825 84.0048C1.92052 84.1873 2.05598 84.4433 2.08751 84.7214C2.11903 84.9996 2.04429 85.2794 1.87826 85.5048H1.90826ZM-4.69175 93.3048C-4.58669 93.3836 -4.46714 93.4409 -4.33993 93.4735C-4.21271 93.5061 -4.08033 93.5133 -3.95033 93.4947C-3.82032 93.4762 -3.69525 93.4322 -3.58225 93.3653C-3.46925 93.2983 -3.37054 93.2098 -3.29174 93.1048C-3.21295 92.9997 -3.15562 92.8802 -3.12303 92.753C-3.09044 92.6258 -3.08322 92.4934 -3.1018 92.3634C-3.12037 92.2334 -3.16436 92.1083 -3.23127 91.9953C-3.29818 91.8823 -3.38669 91.7836 -3.49174 91.7048L-11.9917 85.9048C-12.2039 85.7456 -12.4706 85.6773 -12.7332 85.7148C-12.9957 85.7523 -13.2326 85.8926 -13.3917 86.1048C-13.5509 86.317 -13.6192 86.5836 -13.5817 86.8462C-13.5442 87.1087 -13.4039 87.3457 -13.1917 87.5048L-12.2917 88.1048L-12.3917 88.2048L-8.59174 90.8048L-8.49174 90.7048L-4.69175 93.3048ZM-8.39175 100.605C-8.46131 100.721 -8.55597 100.82 -8.66883 100.895C-8.78169 100.971 -8.90988 101.019 -9.04406 101.039C-9.17823 101.058 -9.31499 101.047 -9.44435 101.006C-9.57371 100.966 -9.69239 100.897 -9.79174 100.805L-18.2917 95.0048C-18.5039 94.8457 -18.6442 94.6087 -18.6817 94.3462C-18.7192 94.0836 -18.6509 93.817 -18.4917 93.6048C-18.3326 93.3926 -18.0957 93.2523 -17.8332 93.2148C-17.5706 93.1773 -17.3039 93.2456 -17.0917 93.4048L-8.59174 99.2048C-8.40034 99.379 -8.27789 99.6162 -8.24669 99.8732C-8.21548 100.13 -8.27761 100.39 -8.42175 100.605H-8.39175ZM-14.8917 108.505C-14.7867 108.584 -14.6671 108.641 -14.5399 108.674C-14.4127 108.706 -14.2803 108.713 -14.1503 108.695C-14.0203 108.676 -13.8953 108.632 -13.7823 108.565C-13.6693 108.498 -13.5705 108.41 -13.4917 108.305C-13.413 108.2 -13.3556 108.08 -13.323 107.953C-13.2904 107.826 -13.2832 107.693 -13.3018 107.563C-13.3204 107.433 -13.3644 107.308 -13.4313 107.195C-13.4982 107.082 -13.5867 106.984 -13.6917 106.905L-17.6917 104.205L-21.4917 101.605L-22.2917 101.105C-22.5039 100.946 -22.7706 100.877 -23.0332 100.915C-23.2957 100.952 -23.5326 101.093 -23.6917 101.305C-23.8509 101.517 -23.9192 101.784 -23.8817 102.046C-23.8442 102.309 -23.7039 102.546 -23.4917 102.705L-22.6917 103.305L-18.8917 105.905L-14.8917 108.505ZM-18.6917 115.805C-18.7613 115.921 -18.856 116.02 -18.9688 116.095C-19.0817 116.171 -19.2099 116.219 -19.3441 116.239C-19.4782 116.258 -19.615 116.247 -19.7444 116.206C-19.8737 116.166 -19.9924 116.097 -20.0917 116.005L-28.5917 110.205C-28.8039 110.046 -28.9442 109.809 -28.9817 109.546C-29.0192 109.284 -28.9509 109.017 -28.7917 108.805C-28.6326 108.593 -28.3957 108.452 -28.1332 108.415C-27.8706 108.377 -27.6039 108.446 -27.3917 108.605L-18.8917 114.405C-18.7003 114.579 -18.5779 114.816 -18.5467 115.073C-18.5155 115.33 -18.5776 115.59 -18.7217 115.805H-18.6917ZM-25.2917 123.605C-25.1867 123.684 -25.0671 123.741 -24.9399 123.773C-24.8127 123.806 -24.6803 123.813 -24.5503 123.795C-24.4203 123.776 -24.2953 123.732 -24.1823 123.665C-24.0693 123.598 -23.9705 123.51 -23.8917 123.405C-23.813 123.3 -23.7556 123.18 -23.723 123.053C-23.6904 122.926 -23.6832 122.793 -23.7018 122.663C-23.7204 122.533 -23.7644 122.408 -23.8313 122.295C-23.8982 122.182 -23.9867 122.084 -24.0917 122.005L-32.5917 116.205C-32.8039 116.046 -33.0706 115.977 -33.3332 116.015C-33.5957 116.052 -33.8326 116.193 -33.9917 116.405C-34.1509 116.617 -34.2192 116.884 -34.1817 117.146C-34.1442 117.409 -34.0039 117.646 -33.7917 117.805L-25.2917 123.605ZM-28.8917 130.905C-28.9613 131.021 -29.056 131.12 -29.1688 131.195C-29.2817 131.271 -29.4099 131.319 -29.5441 131.339C-29.6782 131.358 -29.815 131.347 -29.9443 131.306C-30.0737 131.266 -30.1924 131.197 -30.2917 131.105L-34.1917 128.405V128.505L-38.0917 126.005V125.905L-38.9917 125.305C-39.2039 125.146 -39.3442 124.909 -39.3817 124.646C-39.4192 124.384 -39.3509 124.117 -39.1917 123.905C-39.0326 123.693 -38.7957 123.552 -38.5332 123.515C-38.2706 123.477 -38.0039 123.546 -37.7917 123.705L-29.2917 129.505C-29.1731 129.57 -29.0689 129.659 -28.9856 129.765C-28.9022 129.872 -28.8414 129.995 -28.8068 130.126C-28.7722 130.256 -28.7646 130.393 -28.7843 130.527C-28.8041 130.661 -28.8508 130.789 -28.9217 130.905H-28.8917ZM-35.5917 138.805C-35.3747 138.95 -35.1118 139.009 -34.8535 138.972C-34.5952 138.935 -34.3596 138.805 -34.1917 138.605C-34.0959 138.507 -34.0238 138.389 -33.9812 138.259C-33.9385 138.129 -33.9264 137.991 -33.9457 137.855C-33.9651 137.72 -34.0154 137.591 -34.0927 137.478C-34.1701 137.365 -34.2724 137.272 -34.3917 137.205L-42.8917 131.405C-43.1039 131.246 -43.3706 131.177 -43.6332 131.215C-43.8957 131.252 -44.1326 131.393 -44.2917 131.605C-44.4509 131.817 -44.5192 132.084 -44.4817 132.346C-44.4442 132.609 -44.3039 132.846 -44.0917 133.005L-35.5917 138.805ZM-39.2917 146.105C-39.3613 146.221 -39.456 146.32 -39.5688 146.395C-39.6817 146.471 -39.8099 146.519 -39.9441 146.539C-40.0782 146.558 -40.215 146.547 -40.3443 146.506C-40.4737 146.466 -40.5924 146.397 -40.6917 146.305L-49.1917 140.505C-49.4039 140.346 -49.5442 140.109 -49.5817 139.846C-49.6192 139.584 -49.5509 139.317 -49.3917 139.105C-49.2326 138.893 -48.9957 138.752 -48.7332 138.715C-48.4706 138.677 -48.2039 138.746 -47.9917 138.905L-39.4917 144.705C-39.2966 144.877 -39.1715 145.114 -39.1401 145.372C-39.1088 145.631 -39.1734 145.891 -39.3217 146.105H-39.2917ZM-45.7917 153.905C-45.5747 154.05 -45.3118 154.109 -45.0535 154.072C-44.7952 154.035 -44.5596 153.905 -44.3917 153.705C-44.2694 153.481 -44.2227 153.224 -44.2588 152.972C-44.2948 152.719 -44.4116 152.485 -44.5917 152.305L-53.0917 146.505C-53.1968 146.426 -53.3164 146.369 -53.4436 146.336C-53.5708 146.303 -53.7032 146.296 -53.8332 146.315C-53.9632 146.333 -54.0882 146.377 -54.2012 146.444C-54.3142 146.511 -54.413 146.6 -54.4917 146.705C-54.5705 146.81 -54.6279 146.929 -54.6605 147.057C-54.693 147.184 -54.7003 147.316 -54.6817 147.446C-54.6631 147.576 -54.6191 147.701 -54.5522 147.814C-54.4853 147.927 -54.3968 148.026 -54.2917 148.105L-45.7917 153.905ZM-49.5917 161.205C-49.6613 161.321 -49.756 161.42 -49.8688 161.495C-49.9817 161.571 -50.1099 161.619 -50.2441 161.639C-50.3782 161.658 -50.515 161.647 -50.6443 161.606C-50.7737 161.566 -50.8924 161.497 -50.9917 161.405L-59.5917 155.605C-59.7081 155.535 -59.8074 155.441 -59.8824 155.328C-59.9575 155.215 -60.0064 155.087 -60.0256 154.952C-60.0447 154.818 -60.0337 154.682 -59.9932 154.552C-59.9528 154.423 -59.8839 154.304 -59.7917 154.205C-59.7222 154.088 -59.6275 153.989 -59.5147 153.914C-59.4018 153.839 -59.2736 153.79 -59.1394 153.771C-59.0053 153.752 -58.8685 153.763 -58.7391 153.803C-58.6098 153.844 -58.4911 153.913 -58.3917 154.005L-49.8917 159.805C-49.764 159.862 -49.6518 159.949 -49.5649 160.058C-49.4779 160.168 -49.4186 160.297 -49.3921 160.434C-49.3656 160.572 -49.3727 160.714 -49.4126 160.848C-49.4526 160.982 -49.5243 161.104 -49.6217 161.205H-49.5917ZM-56.1217 169.005C-55.9096 169.164 -55.6429 169.232 -55.3803 169.195C-55.1178 169.157 -54.8809 169.017 -54.7217 168.805C-54.5626 168.593 -54.4943 168.326 -54.5318 168.063C-54.5693 167.801 -54.7096 167.564 -54.9217 167.405L-63.4217 161.605C-63.6388 161.46 -63.9017 161.4 -64.16 161.437C-64.4183 161.474 -64.6539 161.605 -64.8217 161.805C-64.9666 162.022 -65.0262 162.285 -64.9893 162.543C-64.9524 162.801 -64.8216 163.037 -64.6217 163.205L-56.1217 169.005Z" fill="#B8BFD1"/>
<path d="M32.6776 211.505L-26.2224 171.405C-28.0282 170.163 -29.2718 168.259 -29.6836 166.106C-30.0954 163.954 -29.6423 161.726 -28.4224 159.905L-16.5224 142.405C-15.28 140.59 -13.3706 139.341 -11.2107 138.929C-9.05076 138.517 -6.8155 138.975 -4.99236 140.205L53.8076 180.205C55.6135 181.447 56.8571 183.35 57.2689 185.503C57.6807 187.656 57.2276 189.884 56.0076 191.705L44.1076 209.205C42.8839 211.009 41.0005 212.262 38.8629 212.692C36.7253 213.122 34.5042 212.696 32.6776 211.505V211.505Z" fill="#FFE576"/>
<g opacity="0.31">
<path opacity="0.31" d="M-12.3227 146.305L-12.7227 146.905L49.1773 189.005L49.5773 188.405L-12.3227 146.305Z" fill="#6174E2"/>
</g>
<g opacity="0.31">
<path opacity="0.31" d="M-18.4223 155.205L-18.8223 155.805L43.0777 197.905L43.4777 197.305L-18.4223 155.205Z" fill="#6174E2"/>
</g>
<g opacity="0.31">
<path opacity="0.31" d="M-24.9223 164.705L-25.3223 165.305L36.5777 207.405L36.9777 206.805L-24.9223 164.705Z" fill="#6174E2"/>
</g>
<path d="M288.279 18.5048C288.179 18.6048 288.179 18.6048 288.079 18.6048C287.979 18.6048 287.979 18.7048 287.879 18.7048C287.779 18.7048 287.779 18.8049 287.679 18.8049C287.625 18.8592 287.555 18.8943 287.479 18.9048C287.279 19.0048 287.279 19.1049 287.079 19.3049C286.879 19.5049 286.979 19.4048 286.979 19.5048C286.671 19.9529 286.475 20.4677 286.405 21.0066C286.336 21.5456 286.395 22.0934 286.579 22.6048L346.579 168.505C346.734 168.887 346.964 169.235 347.255 169.528C347.546 169.821 347.892 170.053 348.274 170.211C348.655 170.369 349.064 170.45 349.477 170.449C349.89 170.448 350.298 170.365 350.679 170.205L372.679 161.205C373.382 160.925 373.954 160.389 374.279 159.705C374.317 159.665 374.345 159.618 374.362 159.566C374.38 159.514 374.385 159.459 374.379 159.405C374.379 159.305 374.479 159.205 374.479 159.105C374.496 159 374.53 158.899 374.579 158.805V157.605C374.479 157.505 374.579 157.405 374.479 157.305C374.379 157.205 374.479 157.105 374.379 157.005L314.379 11.1048C314.223 10.7224 313.993 10.3747 313.702 10.0818C313.411 9.78893 313.065 9.55669 312.684 9.39857C312.302 9.24045 311.894 9.15958 311.481 9.16066C311.068 9.16173 310.659 9.24474 310.279 9.40485L288.279 18.4048C288.479 18.4048 288.379 18.5048 288.279 18.5048ZM302.579 21.6048C303.031 21.41 303.518 21.3072 304.011 21.3025C304.503 21.2978 304.992 21.3913 305.448 21.5774C305.904 21.7636 306.319 22.0388 306.667 22.3869C307.016 22.735 307.292 23.149 307.479 23.6048C307.779 24.4456 307.779 25.3641 307.479 26.2048C307.347 26.7211 307.085 27.1947 306.717 27.5801C306.349 27.9654 305.888 28.2495 305.379 28.4049C304.926 28.5997 304.44 28.7025 303.947 28.7072C303.454 28.7119 302.966 28.6184 302.509 28.4323C302.053 28.2461 301.639 27.9709 301.29 27.6228C300.942 27.2747 300.666 26.8607 300.479 26.4049C300.216 25.7727 300.146 25.0766 300.279 24.4048C300.418 23.7916 300.699 23.2193 301.098 22.7333C301.497 22.2473 302.004 21.8609 302.579 21.6048V21.6048Z" fill="#FF4D9E"/>
<path d="M305.478 28.5045C305.961 28.3032 306.397 28.0037 306.759 27.625C307.12 27.2463 307.399 26.7966 307.578 26.3045C307.462 26.9133 307.202 27.4853 306.819 27.9726C306.436 28.4598 305.942 28.848 305.378 29.1045C304.925 29.2993 304.438 29.4021 303.946 29.4068C303.453 29.4115 302.964 29.3181 302.508 29.1319C302.052 28.9457 301.638 28.6706 301.289 28.3225C300.94 27.9744 300.664 27.5603 300.478 27.1045C300.147 26.3097 300.112 25.4231 300.378 24.6045C300.245 25.2763 300.314 25.9723 300.578 26.6045C300.773 27.0524 301.055 27.4572 301.407 27.7955C301.76 28.1338 302.176 28.399 302.632 28.5756C303.087 28.7523 303.573 28.8369 304.062 28.8247C304.55 28.8125 305.031 28.7037 305.478 28.5045V28.5045Z" fill="#9B2C5E"/>
<path opacity="0.45" d="M288.478 18.4046L292.778 16.7046L355.278 168.505L350.978 170.205C350.598 170.369 350.189 170.455 349.775 170.458C349.361 170.461 348.951 170.381 348.568 170.223C348.186 170.064 347.839 169.83 347.549 169.535C347.258 169.24 347.03 168.89 346.878 168.505L286.878 22.6046C286.693 22.226 286.588 21.8135 286.57 21.3927C286.551 20.9718 286.618 20.5516 286.768 20.158C286.918 19.7643 287.147 19.4056 287.441 19.104C287.735 18.8024 288.088 18.5644 288.478 18.4046V18.4046Z" fill="white"/>
<path opacity="0.15" d="M290.777 17.4048L353.177 169.205L354.477 168.705L292.077 16.9048L290.777 17.4048Z" fill="white"/>
<path d="M328.578 124.305L328.978 125.305L336.478 122.205L336.078 121.205L328.578 124.305Z" fill="#D63E91"/>
<path d="M322.777 110.105L323.177 111.105L330.677 108.005L330.277 107.005L322.777 110.105Z" fill="#D63E91"/>
<path d="M317.008 96.0048L317.408 97.0048L324.908 93.9048L324.508 92.9048L317.008 96.0048Z" fill="#D63E91"/>
<path d="M311.178 81.8046L311.578 82.8046L319.078 79.7046L318.678 78.7046L311.178 81.8046Z" fill="#D63E91"/>
<path d="M305.277 67.8046L305.677 68.8046L313.177 65.7046L312.777 64.7046L305.277 67.8046Z" fill="#D63E91"/>
<path d="M299.479 53.6049L299.879 54.6049L307.379 51.5049L306.979 50.5049L299.479 53.6049Z" fill="#D63E91"/>
<path d="M293.678 39.5048L294.078 40.5048L301.578 37.4048L301.178 36.4048L293.678 39.5048Z" fill="#D63E91"/>
<path d="M287.879 25.3046L288.279 26.3046L295.779 23.2046L295.379 22.2046L287.879 25.3046Z" fill="#D63E91"/>
<path d="M331.578 131.504L331.978 132.504L336.578 130.604L336.178 129.604L331.578 131.504Z" fill="#D63E91"/>
<path d="M325.777 117.305L326.177 118.305L330.777 116.405L330.377 115.405L325.777 117.305Z" fill="#D63E91"/>
<path d="M320.008 103.105L320.408 104.105L325.008 102.205L324.608 101.205L320.008 103.105Z" fill="#D63E91"/>
<path d="M314.078 89.1046L314.478 90.1046L319.078 88.2046L318.678 87.2046L314.078 89.1046Z" fill="#D63E91"/>
<path d="M308.277 74.9049L308.677 75.9049L313.277 74.0049L312.877 73.0049L308.277 74.9049Z" fill="#D63E91"/>
<path d="M302.479 60.8048L302.879 61.8048L307.479 59.9048L307.079 58.9048L302.479 60.8048Z" fill="#D63E91"/>
<path d="M296.678 46.6046L297.078 47.6046L301.678 45.7046L301.278 44.7046L296.678 46.6046Z" fill="#D63E91"/>
<path d="M290.777 32.5045L291.177 33.5045L295.777 31.6045L295.377 30.6045L290.777 32.5045Z" fill="#D63E91"/>
<path d="M316.777 113.104L341.007 133.504C344.607 136.504 348.007 139.404 350.907 141.804C353.807 144.204 356.107 146.204 357.407 147.204C363.807 152.504 368.507 160.004 361.307 164.804C357.507 167.404 342.507 159.604 329.107 151.604C324.907 149.104 320.707 146.504 317.207 144.204C310.407 139.904 305.607 136.604 305.607 136.604L314.207 118.704L316.777 113.104Z" fill="#DFE6E8"/>
<path opacity="0.11" d="M306.478 135.005L309.978 127.505L305.678 136.605C305.678 136.605 349.278 166.305 359.978 165.205C344.778 161.505 306.478 135.005 306.478 135.005Z" fill="#53585F"/>
<path opacity="0.24" d="M316.778 113.104C316.778 113.104 352.078 140.304 357.778 146.604C363.278 152.904 368.578 159.904 361.278 164.704C374.078 155.104 321.578 123.604 314.178 118.604L316.778 113.104Z" fill="#53585F"/>
<path d="M308.677 123.405C307.754 124.375 306.511 124.979 305.177 125.105C304.48 125.176 303.775 125.107 303.105 124.901C302.435 124.695 301.814 124.356 301.277 123.905C300.164 122.971 299.449 121.648 299.277 120.205C299.206 119.507 299.275 118.803 299.481 118.133C299.687 117.463 300.026 116.841 300.477 116.305C301.411 115.191 302.734 114.476 304.177 114.305C304.875 114.233 305.579 114.302 306.249 114.509C306.919 114.715 307.541 115.053 308.077 115.505C309.19 116.439 309.906 117.762 310.077 119.205C310.149 119.902 310.079 120.607 309.873 121.277C309.667 121.946 309.328 122.568 308.877 123.105C308.877 123.305 308.777 123.305 308.677 123.405ZM301.277 116.405L301.077 116.605C300.283 117.587 299.911 118.843 300.042 120.099C300.174 121.355 300.798 122.508 301.777 123.305C302.781 124.067 304.018 124.456 305.277 124.405C306.553 124.277 307.732 123.669 308.577 122.705C309.34 121.701 309.729 120.464 309.677 119.205C309.549 117.929 308.942 116.75 307.977 115.905C306.974 115.142 305.736 114.753 304.477 114.805C303.254 114.941 302.12 115.508 301.277 116.405V116.405Z" fill="#0F2D29"/>
<path d="M258.078 77.1047C245.378 71.3047 226.878 74.9047 224.178 92.4047C222.078 105.905 238.978 115.605 254.078 113.905C266.678 112.505 275.878 117.305 284.678 123.905C293.478 130.505 294.578 125.905 294.878 125.605L288.078 103.405C288.078 103.305 270.778 82.9047 258.078 77.1047ZM266.378 99.6047C264.478 105.805 255.378 108.605 245.978 105.805C236.578 103.005 230.278 95.7047 232.078 89.6047C233.878 83.5047 243.078 80.6047 252.478 83.4047C262.078 86.2047 268.278 93.4047 266.378 99.6047Z" fill="#1B39BC"/>
<path opacity="0.5" d="M310.778 117.305C311.61 117.997 312.218 118.921 312.524 119.958C312.831 120.996 312.823 122.101 312.501 123.135C312.18 124.168 311.559 125.082 310.717 125.763C309.876 126.443 308.851 126.858 307.774 126.956C306.696 127.054 305.614 126.83 304.663 126.313C303.713 125.796 302.937 125.008 302.435 124.05C301.932 123.091 301.725 122.006 301.839 120.93C301.954 119.854 302.385 118.836 303.078 118.005C303.534 117.448 304.096 116.987 304.732 116.65C305.368 116.313 306.065 116.105 306.781 116.04C307.498 115.975 308.221 116.053 308.907 116.271C309.593 116.488 310.229 116.839 310.778 117.305V117.305Z" fill="url(#paint0_linear_1659:5466)"/>
<path d="M309.478 117.804C310.582 118.739 311.274 120.07 311.405 121.511C311.536 122.952 311.095 124.386 310.178 125.504C309.677 126.113 309.067 126.622 308.378 127.004C307.424 127.507 306.34 127.709 305.269 127.584C304.198 127.459 303.19 127.013 302.378 126.304C301.274 125.37 300.581 124.038 300.45 122.598C300.319 121.157 300.76 119.723 301.678 118.604C302.472 117.645 303.562 116.977 304.778 116.704C305.591 116.489 306.445 116.477 307.265 116.668C308.084 116.86 308.844 117.25 309.478 117.804V117.804Z" fill="url(#paint1_linear_1659:5466)"/>
<path opacity="0.5" d="M304.778 116.705C304.878 119.005 305.378 124.005 308.378 127.005C307.424 127.507 306.34 127.709 305.269 127.585C304.198 127.46 303.19 127.013 302.378 126.305C301.274 125.37 300.581 124.039 300.45 122.598C300.319 121.157 300.76 119.723 301.678 118.605C302.036 118.091 302.496 117.658 303.029 117.331C303.563 117.004 304.158 116.791 304.778 116.705V116.705Z" fill="url(#paint2_linear_1659:5466)"/>
<path opacity="0.5" d="M305.478 122.905C305.778 124.405 305.178 126.005 304.178 126.105C303.178 126.205 301.978 125.205 301.778 123.605C301.578 122.005 302.078 120.505 303.078 120.405C304.078 120.305 305.078 121.405 305.478 122.905Z" fill="white"/>
<path fill-rule="evenodd" clip-rule="evenodd" d="M267.078 22.2047C268.378 29.3047 278.278 30.3047 278.278 30.3047C306.778 39.3047 308.578 66.5047 303.978 80.5047C300.778 90.6047 305.178 98.5047 311.678 105.105C318.178 111.705 325.478 123.405 319.178 131.105C312.878 138.805 306.978 139.705 295.578 131.705C293.936 130.529 292.515 129.073 291.378 127.405C284.878 118.705 282.978 104.105 282.478 99.7047C282.483 99.2693 282.45 98.8342 282.378 98.4047V98.1047C282.444 97.7358 282.41 97.3557 282.278 97.0047V97.0047C280.278 85.9047 266.278 78.1047 266.278 78.1047C263.478 76.8047 263.078 78.2047 262.778 79.8047V79.9047C261.288 78.8774 259.716 77.9743 258.078 77.2047C255.304 75.9072 252.327 75.0954 249.278 74.8047C246.829 73.3257 244.717 71.3499 243.078 69.0047C232.078 54.3047 240.878 44.6047 247.378 37.4047C248.778 35.9047 249.978 34.5047 250.978 33.2047C253.978 29.2047 253.878 26.2047 253.778 23.4047C253.778 20.8047 253.678 18.4047 255.878 15.5047C260.478 9.30474 265.678 15.0047 267.078 22.2047ZM292.178 86.7047C299.478 82.4047 299.178 65.1047 297.278 59.7047C291.778 44.6047 280.878 33.5047 265.778 35.4047C251.178 37.2047 241.578 51.3047 248.178 61.0047C253.078 68.1047 256.178 68.5047 261.078 69.1047C262.422 69.2285 263.757 69.4288 265.078 69.7047C273.178 71.2047 280.078 77.7047 283.078 83.3047C283.078 83.3047 285.878 90.3047 292.178 86.7047ZM261.778 22.2047C261.578 18.5047 259.978 15.5047 258.078 15.7047C256.178 15.9047 254.878 18.8047 254.978 22.5047C255.078 26.2047 256.778 29.2047 258.678 29.0047C260.578 28.8047 261.878 25.9047 261.778 22.2047V22.2047Z" fill="#3B42EE"/>
<g opacity="0.84">
<path opacity="0.84" d="M222.278 19.5045C216.978 13.8045 222.578 8.4045 222.578 8.4045L244.878 -12.5955C245.278 -12.9955 249.078 -17.2955 253.378 -17.3955C255.27 -17.3518 257.068 -16.5608 258.378 -15.1955C259.029 -14.5217 259.533 -13.7211 259.86 -12.8436C260.187 -11.966 260.329 -11.0305 260.278 -10.0955C259.878 -5.7955 255.378 -2.19551 254.878 -1.89551L237.178 14.3045C236.722 14.7653 236.176 15.1274 235.574 15.3682C234.972 15.6091 234.326 15.7235 233.678 15.7045C232.792 15.6719 231.922 15.4498 231.129 15.0531C230.335 14.6563 229.636 14.0942 229.078 13.4045C226.778 10.9045 226.878 8.70449 227.478 7.20449C227.79 6.38768 228.307 5.66463 228.978 5.10449L243.178 -7.99551C243.248 -8.07687 243.334 -8.14291 243.431 -8.18948C243.528 -8.23606 243.633 -8.26217 243.74 -8.26619C243.848 -8.2702 243.955 -8.25204 244.054 -8.21282C244.154 -8.17361 244.245 -8.11419 244.321 -8.03828C244.397 -7.96238 244.456 -7.87162 244.496 -7.7717C244.535 -7.67177 244.553 -7.56483 244.549 -7.45757C244.545 -7.3503 244.519 -7.24501 244.472 -7.14829C244.426 -7.05158 244.36 -6.96552 244.278 -6.89551L230.008 6.3045C229.521 6.74434 229.145 7.29239 228.908 7.9045C228.308 9.4045 228.808 10.9045 230.108 12.5045C230.54 13.0257 231.072 13.454 231.674 13.7634C232.275 14.0727 232.933 14.2568 233.608 14.3045C234.464 14.2328 235.272 13.8813 235.908 13.3045L236.008 13.2045L253.808 -3.0955L253.908 -3.1955C254.008 -3.2955 258.408 -6.59551 258.708 -10.2955C258.743 -11.7396 258.206 -13.1389 257.213 -14.1881C256.22 -15.2372 254.852 -15.851 253.408 -15.8955C249.708 -15.7955 246.008 -11.5955 246.008 -11.5955L245.908 -11.4955L223.708 9.4045C223.508 9.6045 219.308 13.8045 223.408 18.4045C225.108 20.3045 226.808 21.2045 228.608 21.2045C230.151 21.1343 231.612 20.4927 232.708 19.4045L232.808 19.3045L255.108 -1.49551C255.257 -1.62386 255.45 -1.69109 255.646 -1.68373C255.843 -1.67637 256.029 -1.59496 256.169 -1.45582C256.308 -1.31668 256.389 -1.13009 256.396 -0.933449C256.404 -0.736811 256.337 -0.544661 256.208 -0.395508L233.908 20.2045C232.476 21.5834 230.594 22.3999 228.608 22.5045C227.394 22.5248 226.19 22.2648 225.093 21.7444C223.995 21.2241 223.032 20.4576 222.278 19.5045V19.5045Z" fill="#18EDF1"/>
</g>
<g opacity="0.74">
<path opacity="0.74" d="M197.478 121.005C190.378 123.705 187.578 116.905 187.578 116.805L176.678 89.4048C176.378 88.9048 173.978 84.0048 175.378 80.1048C175.694 79.254 176.201 78.4869 176.86 77.8628C177.519 77.2387 178.312 76.7741 179.178 76.5048C180.019 76.1488 180.926 75.9737 181.839 75.9909C182.752 76.0081 183.651 76.2173 184.478 76.6048C188.178 78.5048 189.778 83.8048 189.878 84.3048L198.078 106.005C198.52 107.159 198.555 108.428 198.178 109.605C197.825 110.382 197.313 111.076 196.676 111.644C196.039 112.212 195.29 112.642 194.478 112.905C191.478 114.105 189.478 113.205 188.378 112.205C187.746 111.631 187.265 110.91 186.978 110.105L180.178 92.6048C179.978 92.2048 180.178 91.8048 180.678 91.6048C181.178 91.4048 181.478 91.6048 181.678 92.1048L188.478 109.605C188.667 110.188 189.013 110.707 189.478 111.105C190.08 111.653 190.839 111.996 191.647 112.086C192.456 112.176 193.272 112.008 193.978 111.605C195.215 111.202 196.252 110.344 196.878 109.205C197.053 108.825 197.135 108.41 197.117 107.993C197.1 107.576 196.984 107.168 196.778 106.805V106.705L188.578 85.0048V84.9048C188.578 84.8048 187.178 79.7048 183.878 78.1048C183.237 77.8144 182.543 77.6559 181.839 77.6387C181.134 77.6216 180.434 77.746 179.778 78.0048C179.11 78.2132 178.5 78.5749 177.997 79.061C177.493 79.5472 177.11 80.1443 176.878 80.8048C175.578 84.2048 178.078 89.0048 178.178 89.0048V89.1048L189.078 116.505C189.178 116.705 191.478 122.005 196.978 119.905C197.914 119.653 198.783 119.2 199.525 118.579C200.268 117.957 200.866 117.181 201.278 116.305C201.533 115.611 201.647 114.873 201.612 114.135C201.578 113.396 201.397 112.672 201.078 112.005V111.905L190.178 84.3048C189.978 83.9048 190.178 83.5048 190.678 83.3048C191.178 83.1048 191.478 83.3048 191.678 83.8048L202.378 111.205C202.786 112.059 203.013 112.988 203.048 113.934C203.082 114.88 202.923 115.823 202.578 116.705C202.056 117.724 201.336 118.629 200.461 119.367C199.585 120.106 198.571 120.662 197.478 121.005V121.005Z" fill="white"/>
</g>
</g>
<defs>
<linearGradient id="paint0_linear_1659:5466" x1="303.808" y1="125.725" x2="310.778" y2="117.255" gradientUnits="userSpaceOnUse">
<stop stop-color="white"/>
<stop offset="0.06" stop-color="#EFEBF4"/>
<stop offset="0.21" stop-color="#CEC1DC"/>
<stop offset="0.36" stop-color="#B39EC9"/>
<stop offset="0.51" stop-color="#9D83B9"/>
<stop offset="0.66" stop-color="#8E70AF"/>
<stop offset="0.82" stop-color="#8565A8"/>
<stop offset="0.98" stop-color="#8261A6"/>
</linearGradient>
<linearGradient id="paint1_linear_1659:5466" x1="302.488" y1="126.234" x2="309.468" y2="117.774" gradientUnits="userSpaceOnUse">
<stop offset="0.01" stop-color="#B7C5C5"/>
<stop offset="0.41" stop-color="#A8BBBB"/>
<stop offset="0.99" stop-color="#95AFAE"/>
</linearGradient>
<linearGradient id="paint2_linear_1659:5466" x1="302.318" y1="126.095" x2="307.968" y2="119.245" gradientUnits="userSpaceOnUse">
<stop stop-color="white"/>
<stop offset="1"/>
</linearGradient>
<clipPath id="clip0_1659:5466">
<rect width="335" height="197" fill="white"/>
</clipPath>
</defs>
</svg>
