<svg width="586" height="328" viewBox="0 0 586 328" fill="none"
    xmlns="http://www.w3.org/2000/svg">
    <g opacity="0.12">
        <path fill-rule="evenodd" clip-rule="evenodd" d="M561.587 13.3096L561.587 121.699L585.043 121.699L585.043 13.3096L561.587 13.3096Z" fill="#4B72FF"/>
        <path fill-rule="evenodd" clip-rule="evenodd" d="M504.468 136.193C504.468 198.456 453.994 248.93 391.731 248.93L391.731 272.386C466.948 272.386 527.924 211.41 527.924 136.193C527.924 60.9756 466.948 -0.000152865 391.731 -0.000153762C316.513 -0.000154659 255.537 60.9756 255.537 136.193L278.994 136.193C278.994 73.9302 329.468 23.4562 391.731 23.4562C453.994 23.4562 504.468 73.9302 504.468 136.193Z" fill="#4B72FF"/>
        <path fill-rule="evenodd" clip-rule="evenodd" d="M327.011 136.193C327.011 100.45 355.987 71.4742 391.73 71.4742C427.473 71.4742 456.449 100.45 456.449 136.193C456.449 171.937 427.473 200.913 391.73 200.913C355.987 200.913 327.011 171.937 327.011 136.193ZM351.731 136.193C351.731 114.102 369.639 96.1939 391.73 96.1939C413.821 96.1939 431.73 114.102 431.73 136.193C431.73 158.284 413.821 176.193 391.73 176.193C369.639 176.193 351.731 158.284 351.731 136.193Z" fill="#4B72FF"/>
        <path d="M64.9987 178.943C47.2035 178.944 31.0788 186.096 19.3412 197.682C7.40016 209.469 -0.00048729 225.844 -0.000487506 243.948C-0.000487721 261.994 7.35298 278.322 19.2269 290.1C30.9753 301.754 47.1492 308.953 65.0044 308.953C83.0838 308.953 99.4394 301.572 111.222 289.659C122.837 277.916 125.5 251.322 125.5 233.5L103 233.5C103 244.405 100.836 264.742 93.7836 271.981C86.4858 279.472 76.2884 284.124 65.0044 284.124C54.0136 284.124 44.0536 279.71 36.7999 272.559C29.4095 265.273 24.8283 255.146 24.8283 243.948C24.8283 232.721 29.4331 222.57 36.857 215.28C44.1058 208.162 54.0424 203.768 65.0044 203.768L275.612 203.768L275.612 178.943L65.0044 178.943L64.9987 178.943Z" fill="#4B72FF"/>
        <path fill-rule="evenodd" clip-rule="evenodd" d="M295.345 303.144L165.906 303.144L165.906 327.423L295.345 327.423L295.345 303.144Z" fill="#4B72FF"/>
        <path fill-rule="evenodd" clip-rule="evenodd" d="M585.043 180.007C577.388 262.537 511.58 327.423 412.635 327.423L291.574 327.423L291.574 303.129L412.635 303.129C490.404 303.129 546.001 251.819 560.749 180.007L585.043 180.007Z" fill="#4B72FF"/>
        <path fill-rule="evenodd" clip-rule="evenodd" d="M346.51 272.386H53.3393V248.93H346.51V272.386Z" fill="#4B72FF"/>
    </g>
</svg>
