<svg width="373" height="543" viewBox="0 0 373 543" fill="none" xmlns="http://www.w3.org/2000/svg">
<g clip-path="url(#clip0_1862_5596)">
<g style="mix-blend-mode:luminosity" opacity="0.1" clip-path="url(#clip1_1862_5596)">
<path fill-rule="evenodd" clip-rule="evenodd" d="M830.04 -278.21C830.04 -328.762 789.06 -369.742 738.508 -369.742L731.226 -369.742L731.226 -354.658L738.508 -354.658C780.729 -354.658 814.956 -320.431 814.956 -278.21L814.956 -198.881L830.04 -198.881L830.04 -278.21ZM779.514 345.486L779.514 412.786L794.078 412.786L794.078 345.486L779.514 345.486ZM716.661 -269.614L716.661 -131.601L731.226 -131.601L731.226 -269.614L716.661 -269.614ZM319.582 -82.5344L399.952 -82.5344L399.952 -67.9701L319.582 -67.9701L319.582 -82.5344ZM113.998 19.4274L209.466 19.4274L209.466 33.9917L113.998 33.9917L113.998 19.4274ZM461.677 -373.412L323.664 -373.412L323.664 -387.976L461.677 -387.976L461.677 -373.412ZM461.677 566.27L323.665 566.27L323.665 551.705L461.677 551.705L461.677 566.27ZM536.793 -153.613L536.793 -290.933C536.793 -327.77 506.931 -357.633 470.094 -357.633C433.257 -357.633 403.394 -327.77 403.394 -290.933L403.394 -283.651L418.479 -283.651L418.479 -290.933C418.479 -319.44 441.588 -342.548 470.094 -342.548C498.6 -342.548 521.708 -319.44 521.708 -290.933L521.708 -153.613L536.793 -153.613ZM318.015 120.146L460.965 120.146L460.965 102.615L318.015 102.615C284.885 102.615 258.028 75.7581 258.028 42.6282C258.028 9.49827 284.885 -17.3588 318.015 -17.3588L326.478 -17.3588L326.478 -34.8901L318.015 -34.8901C275.203 -34.8901 240.497 -0.183955 240.497 42.6282C240.497 85.4404 275.203 120.146 318.015 120.146ZM247.521 155.285L247.521 252.112L232.477 252.112L232.477 155.285C232.477 106.576 192.991 67.0906 144.283 67.0906C95.5747 67.0906 56.0888 106.576 56.0888 155.285L56.0888 162.386L41.045 162.386L41.045 155.285C41.045 98.268 87.2662 52.0467 144.283 52.0467C201.3 52.0467 247.521 98.268 247.521 155.285ZM151.854 311.851C184.928 358.295 249.39 369.133 295.834 336.059L301.618 331.94L292.892 319.686L287.108 323.805C247.431 352.059 192.363 342.8 164.109 303.124C155.735 291.365 150.656 278.254 148.688 264.89L134.137 269.212C136.652 284.121 142.495 298.707 151.854 311.851ZM713.015 222.262C713.015 272.814 672.034 313.794 621.483 313.794L614.201 313.794L614.201 298.71L621.483 298.71C663.703 298.71 697.93 264.483 697.93 222.262L697.93 142.933L713.015 142.933L713.015 222.262ZM-79.5373 -369.742C-28.9857 -369.742 11.9946 -328.762 11.9946 -278.21L11.9946 -198.881L-3.08991 -198.881L-3.08991 -278.21C-3.08991 -320.431 -37.3165 -354.658 -79.5373 -354.658L-86.8195 -354.658L-86.8195 -369.742L-79.5373 -369.742ZM100.869 543.644C151.421 543.644 192.401 502.664 192.401 452.112L192.401 364.46L177.317 364.46L177.317 452.112C177.317 494.333 143.09 528.559 100.869 528.559L93.5873 528.559L93.5873 543.644L100.869 543.644ZM193.807 -112.956C193.807 -62.404 152.827 -21.4238 102.275 -21.4238L86.961 -21.4238C82.4814 -12.1584 72.9927 -5.76737 62.0112 -5.76737C55.1145 -5.76737 49.5223 -0.173588 49.5223 6.72461C49.5223 13.622 55.1138 19.2135 62.0112 19.2135L89.7079 19.2135L89.7079 34.4213L62.0112 34.4213C46.7148 34.4213 34.3145 22.0211 34.3145 6.72461C34.3145 -7.6041 45.1953 -19.3915 59.1451 -20.8256L59.1448 -20.9752L62.0112 -20.9752C68.9087 -20.9752 74.5001 -26.5667 74.5001 -33.4641C74.5001 -40.3615 69.5386 -45.6884 62.6412 -45.6884L61.8409 -45.8279C41.1803 -46.8239 26.2309 -64.9611 26.2309 -85.5505L26.2309 -162.901L41.4589 -162.901L41.4589 -85.5504C41.4589 -72.9351 49.9657 -62.4923 62.229 -61.16C76.9813 -61.0552 88.1136 -50.3047 89.5506 -36.5083L102.275 -36.5083C144.496 -36.5083 178.723 -70.735 178.723 -112.956L178.723 -200.608L193.807 -200.608L193.807 -112.956ZM371.279 226.33C371.279 276.882 412.259 317.862 462.811 317.862L470.093 317.862L470.093 302.778L462.811 302.778C420.59 302.778 386.363 268.551 386.363 226.33L386.376 218.686L386.376 207.426C386.376 174.603 359.768 147.994 326.945 147.994L319.583 147.994L319.583 163.039L326.945 163.039C351.459 163.039 371.332 182.912 371.332 207.426L371.332 217.742L371.279 226.33ZM6.94961 379.356C57.5012 379.356 98.4815 338.376 98.4815 287.824L98.4283 279.236L98.4283 268.92C98.4283 244.406 118.301 224.533 142.815 224.533L150.177 224.533L150.177 209.489L142.815 209.489C109.992 209.489 83.3838 236.097 83.3838 268.92L83.3838 280.18L83.397 287.824C83.397 330.045 49.1703 364.272 6.94961 364.272L-0.332552 364.272L-0.332553 379.356L6.94961 379.356ZM125.815 323.375C125.815 373.927 84.8348 414.907 34.2832 414.907L34.2832 399.823C76.5039 399.823 110.731 365.596 110.731 323.375L125.815 323.375ZM549.385 -6.62938C516.562 -6.62938 489.953 19.979 489.953 52.8022L489.953 121.279L504.998 121.279L504.998 52.8022C504.998 28.2879 524.87 8.41515 549.385 8.41515L556.746 8.41515L556.746 -6.62938L549.385 -6.62938ZM230.102 -152.895C230.102 -185.718 256.71 -212.326 289.534 -212.326L335.829 -212.326L335.829 -197.282L289.534 -197.282C265.019 -197.282 245.147 -177.409 245.147 -152.895L245.147 -109.385L230.102 -109.385L230.102 -152.895ZM417.361 -187.742C450.185 -187.742 476.793 -214.35 476.793 -247.173L476.793 -307.328L461.748 -307.328L461.748 -247.173C461.748 -222.659 441.876 -202.786 417.361 -202.786L402.198 -202.786L402.198 -187.742L417.361 -187.742ZM327.115 268.866L327.115 180.39L342.16 180.39L342.16 268.866C342.16 288.015 333.104 305.049 319.041 315.918L310.161 303.763C320.486 295.636 327.115 283.025 327.115 268.866ZM674.046 491.786C712.706 491.786 744.046 460.446 744.046 421.786C744.046 383.127 712.706 351.787 674.046 351.787C635.387 351.787 604.047 383.127 604.047 421.786L589.482 421.786C589.482 375.083 627.343 337.222 674.046 337.222C720.75 337.222 758.61 375.083 758.61 421.786C758.61 468.49 720.75 506.35 674.046 506.35L674.046 491.786ZM86.0232 -338.126C119.503 -357.456 162.315 -345.985 181.644 -312.504L194.258 -319.786C170.906 -360.233 119.187 -374.091 78.741 -350.739C38.2947 -327.387 24.4368 -275.669 47.7885 -235.223C71.1402 -194.776 122.859 -180.918 163.305 -204.27L156.023 -216.883C122.542 -197.553 79.7314 -209.024 60.4015 -242.505C41.0717 -275.985 52.5428 -318.796 86.0232 -338.126ZM201.582 0.14606C201.582 -46.5573 239.443 -84.4179 286.146 -84.4179L287.756 -84.4179L287.756 -69.8536L286.146 -69.8536C247.486 -69.8536 216.146 -38.5137 216.146 0.146061L201.582 0.14606ZM795.912 -56.4368L795.912 -41.3524L708.26 -41.3524C690.235 -41.3492 675.623 -26.7358 675.623 -8.70969C675.623 9.31835 690.238 23.933 708.266 23.933C726.294 23.933 740.909 9.31836 740.909 -8.70969L740.909 -15.9918L755.993 -15.9918L755.993 -8.70969C755.993 17.6493 734.625 39.0174 708.266 39.0174C681.907 39.0174 660.539 17.6493 660.539 -8.70969C660.539 -35.0686 681.907 -56.4368 708.266 -56.4368L795.912 -56.4368ZM783.667 99.8266L783.667 114.911L633.863 114.911C607.504 114.911 586.136 93.5428 586.136 67.1839C586.136 53.8731 591.818 41.2769 600.357 31.9791C608.881 22.6976 620.768 16.1606 633.697 15.8668L641.145 15.6975L641.145 30.7457L634.028 30.9073C617.283 31.2876 601.22 48.1879 601.22 67.1839C601.22 85.2119 615.835 99.8266 633.863 99.8266L783.667 99.8266ZM286.146 148.079L271.062 148.079L271.062 258.871C271.062 276.899 256.447 291.514 238.419 291.514C219.423 291.514 202.522 275.451 202.142 258.706L201.981 214.138L186.932 214.138L187.102 259.037C187.396 271.966 193.933 283.853 203.214 292.377C212.512 300.916 225.108 306.598 238.419 306.598C264.778 306.598 286.146 285.23 286.146 258.871L286.146 148.079ZM674.047 381.601C651.854 381.601 633.863 399.593 633.863 421.786C633.863 443.98 651.854 461.971 674.047 461.971C696.241 461.971 714.232 443.98 714.232 421.786C714.232 399.593 696.241 381.601 674.047 381.601ZM674.047 396.95C660.331 396.95 649.211 408.07 649.211 421.786C649.211 435.503 660.331 446.623 674.047 446.623C687.764 446.623 698.884 435.503 698.884 421.786C698.884 408.07 687.764 396.95 674.047 396.95ZM227.428 -327.006C227.428 -349.2 245.42 -367.191 267.613 -367.191L267.613 -351.843C253.897 -351.843 242.777 -340.723 242.777 -327.006C242.777 -313.29 253.897 -302.17 267.613 -302.17L267.613 -286.822C245.42 -286.822 227.428 -304.813 227.428 -327.006ZM104.215 -155.8C82.0214 -155.8 64.03 -137.808 64.03 -115.615C64.03 -93.4211 82.0214 -75.4298 104.215 -75.4297C126.408 -75.4297 144.4 -93.4211 144.4 -115.615C144.4 -137.808 126.408 -155.8 104.215 -155.8ZM104.215 -140.451C90.4983 -140.451 79.3788 -129.331 79.3788 -115.615C79.3788 -101.898 90.4983 -90.7785 104.215 -90.7785C117.932 -90.7785 129.051 -101.898 129.051 -115.615C129.051 -129.331 117.932 -140.451 104.215 -140.451ZM633.862 -209.3C633.862 -231.494 615.871 -249.485 593.677 -249.485C579.961 -249.485 568.841 -260.61 568.841 -274.326C568.841 -288.043 579.961 -299.162 593.677 -299.162L593.677 -314.511C571.484 -314.511 553.492 -296.52 553.492 -274.326C553.492 -252.133 571.484 -234.141 593.677 -234.141L593.677 -234.136C607.394 -234.136 618.513 -223.017 618.513 -209.3C618.513 -195.584 607.394 -184.464 593.677 -184.464L593.677 -169.115C615.871 -169.115 633.862 -187.107 633.862 -209.3ZM28.2962 503.454C28.2962 517.171 39.4157 528.295 53.1323 528.295L72.2285 528.295L72.2285 543.644L53.1323 543.644L53.1323 543.639C30.9388 543.639 12.9474 525.647 12.9474 503.454C12.9474 481.26 30.9388 463.269 53.1323 463.269L53.1323 478.618C39.4157 478.618 28.2962 489.737 28.2962 503.454ZM393.262 -163.755L470.613 -163.755L470.613 -148.527L393.262 -148.527C380.647 -148.527 370.204 -140.021 368.872 -127.757C368.76 -111.936 356.403 -100.278 341.176 -100.278C325.88 -100.278 313.479 -112.679 313.479 -127.975C313.479 -134.872 307.886 -140.464 300.987 -140.464C294.09 -140.464 288.498 -134.873 288.498 -127.975L288.498 -100.278L273.291 -100.278L273.291 -127.975C273.291 -143.272 285.691 -155.672 300.987 -155.672C315.316 -155.672 327.103 -144.791 328.538 -130.841L328.687 -130.841L328.687 -127.975C328.687 -121.078 334.279 -115.486 341.176 -115.486C348.073 -115.486 353.4 -120.448 353.4 -127.345L353.54 -128.145C354.536 -148.806 372.673 -163.755 393.262 -163.755ZM113.437 141.545C113.437 119.352 131.429 101.36 153.622 101.36C175.816 101.36 193.807 119.352 193.807 141.545C193.807 163.739 175.816 181.73 153.622 181.73C131.429 181.73 113.437 163.739 113.437 141.545ZM128.786 141.545C128.786 127.829 139.906 116.709 153.622 116.709C167.339 116.709 178.458 127.829 178.458 141.545C178.458 155.262 167.339 166.381 153.622 166.381C139.906 166.381 128.786 155.262 128.786 141.545ZM112.414 419.068C90.2202 419.068 72.2288 437.06 72.2288 459.253C72.2288 481.447 90.2202 499.438 112.414 499.438C134.607 499.438 152.599 481.447 152.599 459.253C152.599 437.06 134.607 419.068 112.414 419.068ZM112.414 434.417C98.6971 434.417 87.5775 445.537 87.5775 459.253C87.5775 472.97 98.6971 484.089 112.414 484.089C126.13 484.089 137.25 472.97 137.25 459.253C137.25 445.537 126.13 434.417 112.414 434.417ZM598.331 226.916C613.555 226.916 625.897 214.574 625.897 199.349C625.897 184.125 613.555 171.783 598.331 171.783C583.106 171.783 570.764 184.125 570.764 199.349C570.764 214.574 583.106 226.916 598.331 226.916ZM598.331 184C589.853 184 582.981 190.872 582.981 199.349C582.981 207.827 589.853 214.699 598.331 214.699C606.808 214.699 613.68 207.827 613.68 199.349C613.68 190.872 606.808 184 598.331 184ZM786.358 298.796C786.358 314.021 774.016 326.363 758.792 326.363C743.567 326.363 731.225 314.021 731.225 298.796C731.225 283.572 743.567 271.23 758.792 271.23C774.016 271.23 786.358 283.572 786.358 298.796ZM743.442 298.796C743.442 290.319 750.314 283.447 758.792 283.447C767.269 283.447 774.141 290.319 774.141 298.796C774.141 307.274 767.269 314.146 758.792 314.146C750.314 314.146 743.442 307.274 743.442 298.796ZM537.345 199.843C537.409 215.022 543.111 230.169 554.454 241.891L555.188 242.633C566.224 253.791 581.531 260.697 598.458 260.697C615.354 260.697 630.635 253.818 641.667 242.696C652.581 231.693 659.316 216.557 659.316 199.839C659.316 182.912 652.411 167.606 641.254 156.57C631.177 146.603 617.649 140.135 602.62 139.121L602.62 155.686C613 156.653 622.347 161.2 629.402 168.073C637.665 176.123 642.805 187.385 642.805 199.839C642.805 211.969 637.929 222.969 630.04 230.971C622.002 239.124 610.818 244.185 598.458 244.185C587.58 244.185 577.611 240.264 569.898 233.765L569.781 233.881L566.839 230.937C558.266 222.361 553.938 211.138 553.858 199.903L553.857 199.889L553.858 75.0963L537.396 75.0963L537.345 199.843ZM723.944 -325.963C757.267 -325.963 784.281 -298.949 784.281 -265.626L784.281 -135.589C784.281 -102.266 757.267 -75.252 723.944 -75.252C690.621 -75.2521 663.607 -102.266 663.607 -135.589L663.607 -265.626C663.607 -298.949 690.621 -325.963 723.944 -325.963ZM679.078 -260.945L679.086 -260.945L679.086 -140.27L679.078 -140.27L679.078 -135.589C679.078 -110.811 699.165 -90.7234 723.944 -90.7234C748.723 -90.7234 768.81 -110.811 768.81 -135.589L768.81 -140.27L768.802 -140.27L768.802 -260.945L768.81 -260.945L768.81 -265.626C768.81 -290.404 748.723 -310.492 723.944 -310.492C699.165 -310.492 679.078 -290.404 679.078 -265.626L679.078 -260.945ZM40.5036 228.233L40.5112 228.233L40.5112 232.915C40.5112 257.693 20.424 277.781 -4.35464 277.781L-4.35464 293.252C28.9686 293.252 55.9824 266.238 55.9824 232.915L55.9824 189.537L40.5036 189.537L40.5036 228.233ZM528.393 310.432C535.681 303.238 545.693 298.797 556.742 298.796L556.746 298.796L597.008 298.796L597.008 314.211L556.746 314.211L556.746 314.213C549.94 314.213 543.77 316.939 539.269 321.359C534.659 325.885 531.8 332.188 531.8 339.159C531.8 346.111 534.645 352.4 539.234 356.924C543.738 361.364 549.922 364.104 556.746 364.104C563.752 364.104 570.084 361.216 574.615 356.565C578.994 352.07 581.692 345.929 581.692 339.159L597.108 339.159C597.108 350.224 592.655 360.25 585.443 367.541C578.127 374.938 567.972 379.521 556.746 379.521C545.66 379.521 535.617 375.051 528.322 367.815C520.95 360.502 516.384 350.364 516.384 339.159C516.384 327.918 520.979 317.75 528.393 310.432ZM471.177 448.33C460.128 448.331 450.116 452.772 442.827 459.965C435.413 467.284 430.818 477.451 430.818 488.692C430.818 499.897 435.384 510.036 442.757 517.349C450.051 524.585 460.094 529.055 471.18 529.055C482.406 529.055 492.561 524.472 499.878 517.075C507.089 509.784 511.543 499.758 511.543 488.692L496.126 488.692C496.126 495.463 493.429 501.604 489.05 506.099C484.518 510.75 478.187 513.638 471.18 513.638C464.356 513.638 458.172 510.898 453.668 506.458C449.079 501.934 446.234 495.645 446.234 488.692C446.234 481.722 449.094 475.419 453.703 470.892C458.204 466.473 464.374 463.745 471.18 463.745L601.949 463.745L601.949 448.33L471.18 448.33L471.177 448.33ZM442.827 -42.3643C450.115 -35.1705 460.128 -30.7298 471.177 -30.7289L471.18 -30.7289L601.949 -30.7289L601.949 -46.1433L471.18 -46.1433C464.374 -46.1433 458.204 -48.8713 453.703 -53.291C449.094 -57.8174 446.234 -64.1204 446.234 -71.0911C446.234 -78.044 449.079 -84.3325 453.668 -88.8564C458.172 -93.2966 464.356 -96.0369 471.18 -96.0369C478.187 -96.0369 484.518 -93.1485 489.05 -88.4975C493.429 -84.0028 496.126 -77.862 496.126 -71.0911L511.543 -71.0911C511.543 -82.1569 507.089 -92.1825 499.878 -99.4739C492.561 -106.871 482.406 -111.453 471.18 -111.453C460.094 -111.453 450.051 -106.984 442.757 -99.7478C435.384 -92.4347 430.818 -82.2961 430.818 -71.0911C430.818 -59.8503 435.413 -49.6827 442.827 -42.3643ZM116.748 -235.347C105.699 -235.348 95.687 -239.789 88.3989 -246.982C80.9846 -254.301 76.3895 -264.468 76.3895 -275.709C76.3895 -286.914 80.9553 -297.053 88.328 -304.366C95.6227 -311.602 105.665 -316.072 116.752 -316.072C127.977 -316.072 138.133 -311.489 145.449 -304.092C152.661 -296.801 157.114 -286.775 157.114 -275.709L141.698 -275.709C141.698 -282.48 139 -288.621 134.621 -293.116C130.09 -297.767 123.758 -300.655 116.752 -300.655C109.927 -300.655 103.743 -297.915 99.2393 -293.475C94.6505 -288.951 91.806 -282.662 91.806 -275.709C91.806 -268.739 94.6652 -262.436 99.2747 -257.909C103.776 -253.489 109.945 -250.761 116.752 -250.761L335.947 -250.761L335.947 -235.347L116.752 -235.347L116.748 -235.347ZM365.436 -338.541C372.629 -331.253 377.07 -321.241 377.071 -310.192L377.071 -310.188L377.071 -179.419L361.657 -179.419L361.657 -310.188C361.657 -316.995 358.929 -323.164 354.509 -327.665C349.983 -332.275 343.68 -335.134 336.709 -335.134C329.756 -335.134 323.467 -332.289 318.944 -327.701C314.503 -323.197 311.763 -317.012 311.763 -310.188C311.763 -303.182 314.652 -296.85 319.303 -292.319C323.797 -287.94 329.938 -285.242 336.709 -285.242L336.709 -269.826C325.643 -269.826 315.617 -274.279 308.326 -281.491C300.929 -288.807 296.347 -298.962 296.347 -310.188C296.347 -321.275 300.816 -331.317 308.052 -338.612C315.365 -345.985 325.504 -350.55 336.709 -350.55C347.95 -350.55 358.117 -345.955 365.436 -338.541ZM373.661 447.335C384.711 447.336 394.722 451.777 402.011 458.971C409.425 466.289 414.02 476.457 414.02 487.698C414.02 498.903 409.454 509.041 402.082 516.354C394.787 523.59 384.744 528.06 373.658 528.06C362.432 528.06 352.277 523.477 344.96 516.08C337.749 508.789 333.295 498.763 333.295 487.698L348.712 487.698C348.712 494.469 351.409 500.609 355.788 505.104C360.32 509.755 366.651 512.643 373.658 512.643C380.482 512.643 386.666 509.903 391.17 505.463C395.759 500.939 398.604 494.651 398.604 487.698C398.604 480.727 395.744 474.424 391.135 469.898C386.634 465.478 380.464 462.75 373.658 462.75L255.373 462.75L255.373 447.335L373.658 447.335L373.661 447.335ZM454.207 421.223C476.4 421.223 494.392 403.232 494.392 381.039C494.392 358.845 476.4 340.854 454.207 340.854L373.837 340.854C351.643 340.854 333.652 358.845 333.652 381.039C333.652 403.232 351.643 421.223 373.837 421.223L454.207 421.223ZM479.043 381.039C479.043 367.322 467.923 356.202 454.207 356.202L454.207 356.207L373.837 356.207L373.837 356.202C360.12 356.202 349.001 367.322 349.001 381.039C349.001 394.755 360.12 405.875 373.837 405.875L373.837 405.87L454.207 405.87L454.207 405.875C467.923 405.875 479.043 394.755 479.043 381.039ZM417.255 84.1902C439.448 84.1902 457.439 66.1988 457.439 44.0054C457.439 21.8118 439.448 3.82045 417.255 3.82045L336.885 3.82044C314.691 3.82044 296.7 21.8118 296.7 44.0053C296.7 66.1988 314.691 84.1902 336.885 84.1902L352.093 84.1902L352.093 68.8368L336.885 68.8368L336.885 68.8415C323.168 68.8415 312.049 57.722 312.049 44.0053C312.049 30.2887 323.168 19.1692 336.885 19.1692L336.885 19.1739L417.255 19.1739L417.255 19.1692C430.971 19.1692 442.091 30.2887 442.091 44.0054C442.091 57.722 430.971 68.8415 417.255 68.8415L417.255 68.8368L401.91 68.8368L401.91 84.1902L417.255 84.1902ZM593.677 -151.46C571.484 -151.46 553.492 -133.469 553.492 -111.276L553.492 -71.0995L568.846 -71.0995L568.846 -111.276L568.841 -111.276C568.841 -124.992 579.96 -136.112 593.677 -136.112C607.394 -136.112 618.513 -124.992 618.513 -111.276L618.509 -111.276L618.509 -30.9058L618.513 -30.9058C618.513 -17.1893 607.394 -6.06977 593.677 -6.06977L593.677 9.27907C615.871 9.27907 633.862 -8.71217 633.862 -30.9058L633.862 -111.276C633.862 -133.469 615.871 -151.46 593.677 -151.46ZM296.895 414.222C296.895 392.028 278.904 374.037 256.71 374.037C234.517 374.037 216.525 392.028 216.525 414.222L216.525 494.591C216.525 516.785 234.517 534.776 256.71 534.776C278.904 534.776 296.895 516.785 296.895 494.591L296.895 479.383L281.542 479.383L281.542 494.591L281.546 494.591C281.546 508.308 270.427 519.427 256.71 519.427C242.993 519.427 231.874 508.308 231.874 494.591L231.879 494.591L231.879 414.222L231.874 414.222C231.874 400.505 242.993 389.386 256.71 389.386C270.427 389.386 281.546 400.505 281.546 414.222L281.542 414.222L281.542 429.566L296.895 429.566L296.895 414.222ZM452.578 179.542L452.578 192.023L437.471 192.023L437.471 179.815C437.471 164.547 449.848 152.17 465.116 152.17C480.384 152.17 492.761 164.547 492.761 179.815L492.761 229.486C492.761 244.754 480.384 257.131 465.116 257.131C449.848 257.131 437.471 244.754 437.471 229.486L437.471 217.194L452.578 217.194L452.578 229.759C452.723 236.559 458.281 242.027 465.116 242.027C471.951 242.027 477.509 236.559 477.654 229.759L477.654 179.542C477.509 172.742 471.951 167.274 465.116 167.274C458.281 167.274 452.723 172.742 452.578 179.542ZM771.408 181.919L771.408 169.438C771.263 162.637 765.705 157.169 758.87 157.169C752.035 157.169 746.477 162.637 746.332 169.438L746.332 219.655C746.477 226.455 752.035 231.923 758.87 231.923C765.705 231.923 771.263 226.455 771.408 219.655L771.408 207.089L786.515 207.089L786.515 219.382C786.515 234.65 774.138 247.027 758.87 247.027C743.602 247.027 731.226 234.65 731.226 219.382L731.226 169.71C731.226 154.442 743.602 142.066 758.87 142.066C774.138 142.066 786.515 154.442 786.515 169.71L786.515 181.919L771.408 181.919ZM794.078 448.991C789.325 500.235 748.464 540.523 687.028 540.523L614.2 540.523L533.831 540.523L533.831 525.448L611.86 525.448L611.86 525.438L687.028 525.438C735.316 525.438 769.836 493.58 778.994 448.991L794.078 448.991ZM617.631 -380.409C628.68 -380.408 638.692 -375.968 645.98 -368.774C653.394 -361.456 657.989 -351.288 657.989 -340.047C657.989 -328.842 653.424 -318.704 646.051 -311.391C638.756 -304.155 628.714 -299.685 617.627 -299.685L617.627 -315.101C624.451 -315.101 630.636 -317.842 635.14 -322.282C639.728 -326.806 642.573 -333.094 642.573 -340.047C642.573 -347.018 639.714 -353.321 635.104 -357.847C630.603 -362.267 624.434 -364.995 617.627 -364.995L536.793 -364.995L536.793 -380.409L617.627 -380.409L617.631 -380.409ZM748.776 72.1394C748.776 49.9459 766.767 31.9545 788.961 31.9545C811.154 31.9545 829.145 49.9459 829.145 72.1394L813.797 72.1394C813.797 58.4228 802.677 47.3033 788.961 47.3033C775.244 47.3033 764.124 58.4228 764.124 72.1394L748.776 72.1394Z" fill="url(#paint0_linear_1862_5596)"/>
</g>
<g filter="url(#filter0_d_1862_5596)">
<path d="M139.269 310.048C140.144 296.775 152.87 282.899 181.551 281.673C210.231 280.446 229.28 282.854 247.565 280.83C265.851 278.806 284.839 273.443 287.909 269.487C280.117 297.567 268.643 350.938 268.608 351.413C260.56 338.899 214.125 334.74 183.085 334.89C152.046 335.04 138.394 323.321 139.269 310.048Z" fill="#2346BF"/>
<g filter="url(#filter1_d_1862_5596)">
<path d="M216.833 307.43C222.338 316.04 229.514 340.082 250.702 341.609L153.071 334.573C154.59 327.026 158.868 309.767 163.836 301.105C175.612 299.949 204.074 304.84 216.833 307.43Z" fill="#5F81F8"/>
</g>
<path d="M373.572 439.902L454.959 484.473L409.88 501.363C409.88 501.363 363.916 480.891 333.934 468.496C303.951 456.101 290.426 451.993 282.87 447.773C279.183 445.022 275.641 436.891 285.207 433.533C297.165 429.335 358.874 434.847 368.702 431.3C365.119 433.55 370.806 438.736 373.572 439.902Z" fill="#6184FF"/>
<path d="M419.505 421.101C415.533 428.715 340.624 417.714 336.145 420.527C336.145 420.527 295.106 428.558 283.783 432.109C272.461 435.659 282.642 447.944 282.642 447.944C264.678 449.329 221.978 450.111 187.422 442.529C144.226 433.051 94.2855 392.374 92.5079 358.485C91.0858 331.374 129.707 323.145 147.241 322.712C167.666 322.727 225.951 331.451 263.234 344.311C300.516 357.172 364.71 386.274 377.054 391.604C388.035 396.345 423.477 413.488 419.505 421.101Z" fill="#2346BF"/>
<g filter="url(#filter2_i_1862_5596)">
<path d="M377.054 391.604C388.035 396.345 428.532 411.718 420.424 427.855C412.315 443.993 340.499 437.656 323.056 439.017C295.856 441.139 279.098 442.543 279.098 442.543C270.41 433.844 216.582 418.873 177.833 410.371C134.637 400.894 93.0125 368.101 92.5079 358.485C91.0853 331.374 129.707 323.144 147.241 322.712C167.666 322.727 225.951 331.451 263.234 344.311C300.516 357.172 364.71 386.274 377.054 391.604Z" fill="#547AFF"/>
</g>
<path d="M345.875 496.022C346.87 480.928 361.342 465.149 393.957 463.755C426.573 462.36 454.929 459.579 475.723 457.277C496.518 454.976 509.956 446.194 513.447 441.696C504.586 473.628 486.868 539.8 486.829 540.34C477.676 526.109 431 524.102 395.703 524.272C360.405 524.443 344.88 511.116 345.875 496.022Z" fill="#2F54D4"/>
</g>
<g filter="url(#filter3_ii_1862_5596)">
<path d="M41.9998 222.916C41.9998 228.755 49.5072 233.76 49.5072 233.76C49.5072 233.76 57.0146 228.755 57.0146 222.916C57.0146 220.924 56.2237 219.015 54.8158 217.607C53.4079 216.199 51.4983 215.408 49.5072 215.408C47.5161 215.408 45.6066 216.199 44.1987 217.607C42.7908 219.015 41.9998 220.924 41.9998 222.916Z" fill="#46FAE4"/>
<circle cx="49.5075" cy="222.58" r="3.84194" fill="#0A6F7C"/>
</g>
<g filter="url(#filter4_ii_1862_5596)">
<path d="M211 81.5074C211 87.3465 218.507 92.3515 218.507 92.3515C218.507 92.3515 226.015 87.3465 226.015 81.5074C226.015 79.5163 225.224 77.6068 223.816 76.1989C222.408 74.791 220.498 74 218.507 74C216.516 74 214.607 74.791 213.199 76.1989C211.791 77.6068 211 79.5163 211 81.5074Z" fill="#FFBA37"/>
<circle cx="218.683" cy="81.6839" r="3.84194" fill="#A6450F"/>
</g>
<g filter="url(#filter5_ii_1862_5596)">
<path d="M34.9998 463.507C34.9998 469.347 42.5072 474.351 42.5072 474.351C42.5072 474.351 50.0146 469.347 50.0146 463.507C50.0146 461.516 49.2237 459.607 47.8158 458.199C46.4079 456.791 44.4983 456 42.5072 456C40.5161 456 38.6066 456.791 37.1987 458.199C35.7908 459.607 34.9998 461.516 34.9998 463.507Z" fill="#4B72FF"/>
<circle cx="42.5065" cy="463.172" r="3.84194" fill="#172F63"/>
</g>
<g filter="url(#filter6_ii_1862_5596)">
<path d="M334 67.5074C334 73.3465 341.507 78.3515 341.507 78.3515C341.507 78.3515 349.015 73.3465 349.015 67.5074C349.015 65.5163 348.224 63.6068 346.816 62.1989C345.408 60.791 343.498 60 341.507 60C339.516 60 337.607 60.791 336.199 62.1989C334.791 63.6068 334 65.5163 334 67.5074Z" fill="#CAE9FF"/>
<circle cx="341.508" cy="67.1718" r="3.84194" fill="#172F63"/>
</g>
<g filter="url(#filter7_ii_1862_5596)">
<path d="M243 519.507C243 525.347 250.507 530.351 250.507 530.351C250.507 530.351 258.015 525.347 258.015 519.507C258.015 517.516 257.224 515.607 255.816 514.199C254.408 512.791 252.498 512 250.507 512C248.516 512 246.607 512.791 245.199 514.199C243.791 515.607 243 517.516 243 519.507Z" fill="#CAE9FF"/>
<circle cx="250.508" cy="519.172" r="3.84194" fill="#172F63"/>
</g>
<g filter="url(#filter8_dii_1862_5596)">
<path d="M168 197.214C168 218.38 195.214 236.522 195.214 236.522C195.214 236.522 222.427 218.38 222.427 197.214C222.427 189.996 219.56 183.074 214.457 177.971C209.353 172.867 202.431 170 195.214 170C187.996 170 181.074 172.867 175.971 177.971C170.867 183.074 168 189.996 168 197.214Z" fill="#CAE9FF"/>
<g filter="url(#filter9_di_1862_5596)">
<g clip-path="url(#clip2_1862_5596)">
<rect width="45.2433" height="44.9947" rx="22.4974" transform="matrix(-1 0 0 1 217.835 174.685)" fill="#4B72FF"/>
<path fill-rule="evenodd" clip-rule="evenodd" d="M204.73 213.419L172.592 216.65L169.851 189.384L201.989 186.153L204.73 213.419Z" fill="#FFC24E"/>
<g style="mix-blend-mode:multiply" opacity="0.42">
<path d="M169.851 189.384L177.384 188.626L180.125 215.892L172.592 216.649L169.851 189.384Z" fill="#EA7E1B"/>
</g>
<g style="mix-blend-mode:overlay">
<path fill-rule="evenodd" clip-rule="evenodd" d="M191.69 187.188L188.204 187.538L188.73 192.776L189.263 192.843L189.86 192.339L190.794 192.77L191.423 192.182L192.228 192.545L191.69 187.188Z" fill="#A6450F"/>
</g>
<g style="mix-blend-mode:overlay">
<path fill-rule="evenodd" clip-rule="evenodd" d="M174.5 188.916L172.736 189.093L173.263 194.331L173.555 194.422L173.832 193.95L174.325 194.426L174.633 193.87L175.038 194.273L174.5 188.916Z" fill="#A6450F"/>
</g>
<path fill-rule="evenodd" clip-rule="evenodd" d="M209.622 229.44L180.174 219.696L188.404 194.662L217.9 204.422L209.622 229.44Z" fill="#FEB934"/>
<g style="mix-blend-mode:multiply" opacity="0.5">
<path d="M188.451 194.678L195.369 196.967L187.107 221.937L180.189 219.648L188.451 194.678Z" fill="#EB9C54"/>
</g>
<g style="mix-blend-mode:overlay">
<path fill-rule="evenodd" clip-rule="evenodd" d="M208.436 201.291L205.265 200.242L203.68 205.034L204.128 205.289L204.832 205.096L205.49 205.846L206.273 205.573L206.803 206.227L208.436 201.291Z" fill="#A6450F"/>
</g>
<g style="mix-blend-mode:overlay">
<path fill-rule="evenodd" clip-rule="evenodd" d="M192.679 196.077L191.094 195.552L189.508 200.345L189.717 200.52L190.132 200.232L190.405 200.855L190.852 200.471L191.046 201.013L192.679 196.077Z" fill="#A6450F"/>
</g>
</g>
</g>
</g>
<g filter="url(#filter10_dii_1862_5596)">
<path d="M308 157.457C308 178.035 334.457 195.673 334.457 195.673C334.457 195.673 360.914 178.035 360.914 157.457C360.914 150.44 358.127 143.711 353.165 138.749C348.203 133.787 341.474 131 334.457 131C327.44 131 320.711 133.787 315.749 138.749C310.788 143.711 308 150.44 308 157.457Z" fill="white"/>
<g filter="url(#filter11_i_1862_5596)">
<g clip-path="url(#clip3_1862_5596)">
<rect width="43.9852" height="43.7436" rx="21.8718" transform="matrix(-1 0 0 1 356.449 135.542)" fill="#FCCF5A"/>
<path d="M360.473 157.488L324.851 157.488L324.851 175.298L360.473 175.298L360.473 157.488Z" fill="#B0CBFF"/>
<path d="M360.473 175.298L324.851 175.298L324.851 179.048L360.473 179.048L360.473 175.298Z" fill="#74A3FF"/>
<path d="M339.85 162.175L328.601 162.175L328.601 179.048L339.85 179.048L339.85 162.175Z" fill="#4B72FF"/>
<path d="M356.724 162.175L343.6 162.175L343.6 172.486L356.724 172.486L356.724 162.175Z" fill="#E5F8FF"/>
<path d="M355.786 163.112L344.537 163.112L344.537 171.549L355.786 171.549L355.786 163.112Z" fill="#B0CBFF"/>
<path d="M330.945 171.08C331.226 171.08 331.414 171.268 331.414 171.549L331.414 173.424C331.414 173.705 331.226 173.892 330.945 173.892C330.664 173.892 330.476 173.705 330.476 173.424L330.476 171.549C330.476 171.268 330.664 171.08 330.945 171.08Z" fill="#90A4AE"/>
<path d="M342.663 160.3C341.11 160.3 339.851 159.04 339.851 157.487C339.851 155.934 341.11 154.675 342.663 154.675C344.216 154.675 345.475 155.934 345.475 157.487C345.475 159.04 344.216 160.3 342.663 160.3Z" fill="#4B72FF"/>
<path d="M331.414 160.3C329.861 160.3 328.602 159.04 328.602 157.487C328.602 155.934 329.861 154.675 331.414 154.675C332.967 154.675 334.226 155.934 334.226 157.487C334.226 159.04 332.967 160.3 331.414 160.3Z" fill="#4B72FF"/>
<path d="M353.911 160.299C352.358 160.299 351.099 159.04 351.099 157.487C351.099 155.934 352.358 154.675 353.911 154.675C355.465 154.675 356.724 155.934 356.724 157.487C356.724 159.04 355.465 160.299 353.911 160.299Z" fill="#4B72FF"/>
<path d="M327.663 145.301L357.66 145.301C358.691 145.301 359.535 146.145 359.535 147.176L359.535 149.988L325.789 149.988L325.789 147.176C325.789 146.145 326.632 145.301 327.663 145.301Z" fill="#4B72FF"/>
<path d="M345.475 149.988L339.851 149.988L339.851 157.487L345.475 157.487L345.475 149.988Z" fill="#74A3FF"/>
<path d="M330.476 149.988L335.163 149.988L334.226 157.487L328.601 157.487L330.476 149.988Z" fill="#74A3FF"/>
<path d="M354.849 149.988L350.162 149.988L351.099 157.487L356.724 157.487L354.849 149.988Z" fill="#74A3FF"/>
<path d="M337.037 160.3C335.484 160.3 334.225 159.04 334.225 157.487C334.225 155.934 335.484 154.675 337.037 154.675C338.591 154.675 339.85 155.934 339.85 157.487C339.85 159.04 338.591 160.3 337.037 160.3Z" fill="#1D3DAE"/>
<path d="M322.977 157.487C322.977 159.081 324.196 160.3 325.789 160.3C327.383 160.3 328.602 159.081 328.602 157.487C328.602 155.894 327.383 154.675 325.789 154.675L322.977 157.487Z" fill="#1D3DAE"/>
<path d="M348.287 160.3C346.734 160.3 345.475 159.04 345.475 157.487C345.475 155.934 346.734 154.675 348.287 154.675C349.84 154.675 351.099 155.934 351.099 157.487C351.099 159.04 349.84 160.3 348.287 160.3Z" fill="#1D3DAE"/>
<path d="M335.163 149.988L339.85 149.988L339.85 157.488L334.225 157.488L335.163 149.988Z" fill="#4B72FF"/>
<path d="M325.789 149.988L330.476 149.988L328.601 157.488L322.977 157.488L325.789 149.988Z" fill="#4B72FF"/>
<path d="M350.162 149.988L345.475 149.988L345.475 157.488L351.099 157.488L350.162 149.988Z" fill="#4B72FF"/>
<path d="M359.536 149.989L354.849 149.989L356.724 157.488L362.348 157.488L359.536 149.989Z" fill="#4B72FF"/>
</g>
</g>
</g>
<g filter="url(#filter12_dii_1862_5596)">
<path d="M76.9139 105.457C76.9139 126.035 50.457 143.673 50.457 143.673C50.457 143.673 24 126.035 24 105.457C24 98.4401 26.7874 91.7107 31.7491 86.7491C36.7107 81.7874 43.4401 79 50.457 79C57.4738 79 64.2032 81.7874 69.1649 86.7491C74.1265 91.7107 76.9139 98.4401 76.9139 105.457Z" fill="#FFF2C4"/>
<g filter="url(#filter13_i_1862_5596)">
<rect x="27.7734" y="82.8657" width="45.2464" height="45.8928" rx="22.6232" fill="#FFBA37"/>
</g>
<mask id="mask0_1862_5596" style="mask-type:alpha" maskUnits="userSpaceOnUse" x="27" y="82" width="47" height="47">
<rect x="27.6719" y="82.9777" width="45.5554" height="45.7808" rx="22.7777" fill="white"/>
</mask>
<g mask="url(#mask0_1862_5596)">
<path fill-rule="evenodd" clip-rule="evenodd" d="M37.385 125.706L31.2147 135.303C30.6974 137.833 29.9907 139.965 29.0946 141.697C28.7596 142.114 28.0611 142.636 28.0854 140.992C28.1098 139.348 28.0614 137.618 27.4893 137.427C26.9172 137.236 26.3113 138.267 25.53 137.857C25.0091 137.584 26.1787 136.069 29.0386 133.311L32.2437 123.988L37.385 125.706Z" fill="#F4816D"/>
<path fill-rule="evenodd" clip-rule="evenodd" d="M54.651 110.324C45.6415 115.9 38.9458 123.571 32.1693 134.51L27.4498 130.82C31.0717 118.851 32.5732 115.959 35.8658 111.407C39.1585 106.856 42.4883 105.096 46.1666 104.41C46.1666 104.41 53.7154 105.992 54.2582 107.167C54.801 108.342 54.651 110.324 54.651 110.324Z" fill="#375DE4"/>
<path fill-rule="evenodd" clip-rule="evenodd" d="M46.1696 87.6154C42.7242 87.6154 39.9312 90.4085 39.9312 93.8539V99.8272C39.9312 103.026 42.3383 105.662 45.4398 106.023C45.4407 106.04 45.4416 106.056 45.4426 106.072H53.8028C55.1306 104.775 53.8169 96.4717 52.8214 92.8364C52.3356 89.8749 49.7644 87.6154 46.6655 87.6154H46.1696Z" fill="#151617"/>
<path fill-rule="evenodd" clip-rule="evenodd" d="M46.5429 101.523C48.4099 102.649 50.2443 103.193 51.1054 102.971C53.2644 102.414 53.4629 94.5156 51.7924 91.4018C50.1218 88.288 41.5337 86.9308 41.1008 93.1003C40.9419 95.3659 41.9577 97.3736 43.4138 98.9798L42.2854 109.581L47.7147 109.814L46.5429 101.523Z" fill="#F4816D"/>
<path fill-rule="evenodd" clip-rule="evenodd" d="M40.1855 93.1366C40.3864 92.938 40.5807 92.7459 40.7735 92.5739L40.7642 92.3496C40.7642 92.3496 42.9357 87.904 46.274 87.904C49.6094 87.904 50.6642 89.4546 51.5609 90.7727L51.5633 90.7762C51.0943 92.3855 49.6808 93.0366 48.0822 93.7729C47.3941 94.0899 46.6716 94.4226 45.9755 94.8544C45.7028 94.6328 45.355 94.4999 44.9762 94.4999C44.1005 94.4999 43.3906 95.2098 43.3906 96.0855C43.3906 96.9612 44.1005 97.6711 44.9762 97.6711C45.0004 97.6711 45.0246 97.6705 45.0485 97.6695C45.3673 101.094 45.2397 105.004 44.2896 105.933H35.9293C35.6893 101.763 36.768 100.573 37.8702 99.3579C38.9073 98.2142 39.9653 97.0475 39.9653 93.3535C40.0397 93.2808 40.1131 93.2083 40.1855 93.1366Z" fill="#151617"/>
<path fill-rule="evenodd" clip-rule="evenodd" d="M33.9635 145.447C33.9635 145.447 40.3166 145.447 45.7994 145.447C55.5957 145.447 53.1159 125.505 46.4681 105.489C46.4681 105.489 44.1753 105.489 43.0289 105.489C42.1517 105.489 41.7794 106.125 41.6044 106.463C37.0242 115.298 32.0837 132.814 33.9635 145.447Z" fill="#4B72FF"/>
</g>
<path fill-rule="evenodd" clip-rule="evenodd" d="M63.412 102.902L73.549 97.667C75.2606 95.7322 76.937 94.238 78.5782 93.1844C79.0766 92.9904 79.9423 92.8868 79.1006 94.2992C78.2589 95.7115 77.437 97.235 77.8373 97.6862C78.2376 98.1374 79.2776 97.546 79.7501 98.291C80.0651 98.7877 78.2952 99.5169 74.4404 100.479L67.0094 106.957L63.412 102.902Z" fill="#F4816D"/>
<path fill-rule="evenodd" clip-rule="evenodd" d="M44.9343 105.463C50.284 105.463 60.7164 104.073 72.01 97.9663L74.2461 103.523C65.1623 112.098 55.5995 118.954 46.3817 117.757C44.8394 117.557 47.3211 112.612 44.9343 105.463Z" fill="#4E73F9"/>
</g>
</g>
<defs>
<filter id="filter0_d_1862_5596" x="90.5046" y="269.487" width="451.11" height="321.292" filterUnits="userSpaceOnUse" color-interpolation-filters="sRGB">
<feFlood flood-opacity="0" result="BackgroundImageFix"/>
<feColorMatrix in="SourceAlpha" type="matrix" values="0 0 0 0 0 0 0 0 0 0 0 0 0 0 0 0 0 0 127 0" result="hardAlpha"/>
<feOffset dx="13.1011" dy="35.373"/>
<feGaussianBlur stdDeviation="7.53314"/>
<feComposite in2="hardAlpha" operator="out"/>
<feColorMatrix type="matrix" values="0 0 0 0 0 0 0 0 0 0 0 0 0 0 0 0 0 0 0.01 0"/>
<feBlend mode="normal" in2="BackgroundImageFix" result="effect1_dropShadow_1862_5596"/>
<feBlend mode="normal" in="SourceGraphic" in2="effect1_dropShadow_1862_5596" result="shape"/>
</filter>
<filter id="filter1_d_1862_5596" x="148.486" y="298.966" width="106.802" height="49.8491" filterUnits="userSpaceOnUse" color-interpolation-filters="sRGB">
<feFlood flood-opacity="0" result="BackgroundImageFix"/>
<feColorMatrix in="SourceAlpha" type="matrix" values="0 0 0 0 0 0 0 0 0 0 0 0 0 0 0 0 0 0 127 0" result="hardAlpha"/>
<feOffset dy="2.62022"/>
<feGaussianBlur stdDeviation="2.2927"/>
<feComposite in2="hardAlpha" operator="out"/>
<feColorMatrix type="matrix" values="0 0 0 0 0 0 0 0 0 0 0 0 0 0 0 0 0 0 0.25 0"/>
<feBlend mode="normal" in2="BackgroundImageFix" result="effect1_dropShadow_1862_5596"/>
<feBlend mode="normal" in="SourceGraphic" in2="effect1_dropShadow_1862_5596" result="shape"/>
</filter>
<filter id="filter2_i_1862_5596" x="92.4697" y="322.712" width="329.019" height="119.831" filterUnits="userSpaceOnUse" color-interpolation-filters="sRGB">
<feFlood flood-opacity="0" result="BackgroundImageFix"/>
<feBlend mode="normal" in="SourceGraphic" in2="BackgroundImageFix" result="shape"/>
<feColorMatrix in="SourceAlpha" type="matrix" values="0 0 0 0 0 0 0 0 0 0 0 0 0 0 0 0 0 0 127 0" result="hardAlpha"/>
<feOffset/>
<feGaussianBlur stdDeviation="6.55056"/>
<feComposite in2="hardAlpha" operator="arithmetic" k2="-1" k3="1"/>
<feColorMatrix type="matrix" values="0 0 0 0 0.0242535 0 0 0 0 0.0702276 0 0 0 0 0.229167 0 0 0 0.15 0"/>
<feBlend mode="normal" in2="shape" result="effect1_innerShadow_1862_5596"/>
</filter>
<filter id="filter3_ii_1862_5596" x="40.1349" y="213.653" width="19.0739" height="22.301" filterUnits="userSpaceOnUse" color-interpolation-filters="sRGB">
<feFlood flood-opacity="0" result="BackgroundImageFix"/>
<feBlend mode="normal" in="SourceGraphic" in2="BackgroundImageFix" result="shape"/>
<feColorMatrix in="SourceAlpha" type="matrix" values="0 0 0 0 0 0 0 0 0 0 0 0 0 0 0 0 0 0 127 0" result="hardAlpha"/>
<feOffset dx="2.1942" dy="-1.75536"/>
<feGaussianBlur stdDeviation="1.39917"/>
<feComposite in2="hardAlpha" operator="arithmetic" k2="-1" k3="1"/>
<feColorMatrix type="matrix" values="0 0 0 0 0 0 0 0 0 0 0 0 0 0 0 0 0 0 0.08 0"/>
<feBlend mode="normal" in2="shape" result="effect1_innerShadow_1862_5596"/>
<feColorMatrix in="SourceAlpha" type="matrix" values="0 0 0 0 0 0 0 0 0 0 0 0 0 0 0 0 0 0 127 0" result="hardAlpha"/>
<feOffset dx="-1.86507" dy="2.1942"/>
<feGaussianBlur stdDeviation="1.93218"/>
<feComposite in2="hardAlpha" operator="arithmetic" k2="-1" k3="1"/>
<feColorMatrix type="matrix" values="0 0 0 0 0.954167 0 0 0 0 0.954167 0 0 0 0 0.954167 0 0 0 0.19 0"/>
<feBlend mode="normal" in2="effect1_innerShadow_1862_5596" result="effect2_innerShadow_1862_5596"/>
</filter>
<filter id="filter4_ii_1862_5596" x="209.135" y="72.2446" width="19.0739" height="22.301" filterUnits="userSpaceOnUse" color-interpolation-filters="sRGB">
<feFlood flood-opacity="0" result="BackgroundImageFix"/>
<feBlend mode="normal" in="SourceGraphic" in2="BackgroundImageFix" result="shape"/>
<feColorMatrix in="SourceAlpha" type="matrix" values="0 0 0 0 0 0 0 0 0 0 0 0 0 0 0 0 0 0 127 0" result="hardAlpha"/>
<feOffset dx="2.1942" dy="-1.75536"/>
<feGaussianBlur stdDeviation="1.39917"/>
<feComposite in2="hardAlpha" operator="arithmetic" k2="-1" k3="1"/>
<feColorMatrix type="matrix" values="0 0 0 0 0 0 0 0 0 0 0 0 0 0 0 0 0 0 0.08 0"/>
<feBlend mode="normal" in2="shape" result="effect1_innerShadow_1862_5596"/>
<feColorMatrix in="SourceAlpha" type="matrix" values="0 0 0 0 0 0 0 0 0 0 0 0 0 0 0 0 0 0 127 0" result="hardAlpha"/>
<feOffset dx="-1.86507" dy="2.1942"/>
<feGaussianBlur stdDeviation="1.93218"/>
<feComposite in2="hardAlpha" operator="arithmetic" k2="-1" k3="1"/>
<feColorMatrix type="matrix" values="0 0 0 0 0.954167 0 0 0 0 0.954167 0 0 0 0 0.954167 0 0 0 0.19 0"/>
<feBlend mode="normal" in2="effect1_innerShadow_1862_5596" result="effect2_innerShadow_1862_5596"/>
</filter>
<filter id="filter5_ii_1862_5596" x="33.1349" y="454.245" width="19.0739" height="22.301" filterUnits="userSpaceOnUse" color-interpolation-filters="sRGB">
<feFlood flood-opacity="0" result="BackgroundImageFix"/>
<feBlend mode="normal" in="SourceGraphic" in2="BackgroundImageFix" result="shape"/>
<feColorMatrix in="SourceAlpha" type="matrix" values="0 0 0 0 0 0 0 0 0 0 0 0 0 0 0 0 0 0 127 0" result="hardAlpha"/>
<feOffset dx="2.1942" dy="-1.75536"/>
<feGaussianBlur stdDeviation="1.39917"/>
<feComposite in2="hardAlpha" operator="arithmetic" k2="-1" k3="1"/>
<feColorMatrix type="matrix" values="0 0 0 0 0 0 0 0 0 0 0 0 0 0 0 0 0 0 0.08 0"/>
<feBlend mode="normal" in2="shape" result="effect1_innerShadow_1862_5596"/>
<feColorMatrix in="SourceAlpha" type="matrix" values="0 0 0 0 0 0 0 0 0 0 0 0 0 0 0 0 0 0 127 0" result="hardAlpha"/>
<feOffset dx="-1.86507" dy="2.1942"/>
<feGaussianBlur stdDeviation="1.93218"/>
<feComposite in2="hardAlpha" operator="arithmetic" k2="-1" k3="1"/>
<feColorMatrix type="matrix" values="0 0 0 0 0.954167 0 0 0 0 0.954167 0 0 0 0 0.954167 0 0 0 0.19 0"/>
<feBlend mode="normal" in2="effect1_innerShadow_1862_5596" result="effect2_innerShadow_1862_5596"/>
</filter>
<filter id="filter6_ii_1862_5596" x="332.135" y="58.2446" width="19.0739" height="22.301" filterUnits="userSpaceOnUse" color-interpolation-filters="sRGB">
<feFlood flood-opacity="0" result="BackgroundImageFix"/>
<feBlend mode="normal" in="SourceGraphic" in2="BackgroundImageFix" result="shape"/>
<feColorMatrix in="SourceAlpha" type="matrix" values="0 0 0 0 0 0 0 0 0 0 0 0 0 0 0 0 0 0 127 0" result="hardAlpha"/>
<feOffset dx="2.1942" dy="-1.75536"/>
<feGaussianBlur stdDeviation="1.39917"/>
<feComposite in2="hardAlpha" operator="arithmetic" k2="-1" k3="1"/>
<feColorMatrix type="matrix" values="0 0 0 0 0 0 0 0 0 0 0 0 0 0 0 0 0 0 0.08 0"/>
<feBlend mode="normal" in2="shape" result="effect1_innerShadow_1862_5596"/>
<feColorMatrix in="SourceAlpha" type="matrix" values="0 0 0 0 0 0 0 0 0 0 0 0 0 0 0 0 0 0 127 0" result="hardAlpha"/>
<feOffset dx="-1.86507" dy="2.1942"/>
<feGaussianBlur stdDeviation="1.93218"/>
<feComposite in2="hardAlpha" operator="arithmetic" k2="-1" k3="1"/>
<feColorMatrix type="matrix" values="0 0 0 0 0.954167 0 0 0 0 0.954167 0 0 0 0 0.954167 0 0 0 0.19 0"/>
<feBlend mode="normal" in2="effect1_innerShadow_1862_5596" result="effect2_innerShadow_1862_5596"/>
</filter>
<filter id="filter7_ii_1862_5596" x="241.135" y="510.245" width="19.0739" height="22.301" filterUnits="userSpaceOnUse" color-interpolation-filters="sRGB">
<feFlood flood-opacity="0" result="BackgroundImageFix"/>
<feBlend mode="normal" in="SourceGraphic" in2="BackgroundImageFix" result="shape"/>
<feColorMatrix in="SourceAlpha" type="matrix" values="0 0 0 0 0 0 0 0 0 0 0 0 0 0 0 0 0 0 127 0" result="hardAlpha"/>
<feOffset dx="2.1942" dy="-1.75536"/>
<feGaussianBlur stdDeviation="1.39917"/>
<feComposite in2="hardAlpha" operator="arithmetic" k2="-1" k3="1"/>
<feColorMatrix type="matrix" values="0 0 0 0 0 0 0 0 0 0 0 0 0 0 0 0 0 0 0.08 0"/>
<feBlend mode="normal" in2="shape" result="effect1_innerShadow_1862_5596"/>
<feColorMatrix in="SourceAlpha" type="matrix" values="0 0 0 0 0 0 0 0 0 0 0 0 0 0 0 0 0 0 127 0" result="hardAlpha"/>
<feOffset dx="-1.86507" dy="2.1942"/>
<feGaussianBlur stdDeviation="1.93218"/>
<feComposite in2="hardAlpha" operator="arithmetic" k2="-1" k3="1"/>
<feColorMatrix type="matrix" values="0 0 0 0 0.954167 0 0 0 0 0.954167 0 0 0 0 0.954167 0 0 0 0.19 0"/>
<feBlend mode="normal" in2="effect1_innerShadow_1862_5596" result="effect2_innerShadow_1862_5596"/>
</filter>
<filter id="filter8_dii_1862_5596" x="154.834" y="144.608" width="83.5812" height="99.8683" filterUnits="userSpaceOnUse" color-interpolation-filters="sRGB">
<feFlood flood-opacity="0" result="BackgroundImageFix"/>
<feColorMatrix in="SourceAlpha" type="matrix" values="0 0 0 0 0 0 0 0 0 0 0 0 0 0 0 0 0 0 127 0" result="hardAlpha"/>
<feOffset dx="1.41068" dy="-10.8152"/>
<feGaussianBlur stdDeviation="7.28849"/>
<feComposite in2="hardAlpha" operator="out"/>
<feColorMatrix type="matrix" values="0 0 0 0 0.0110833 0 0 0 0 0.0707114 0 0 0 0 0.233333 0 0 0 0.26 0"/>
<feBlend mode="normal" in2="BackgroundImageFix" result="effect1_dropShadow_1862_5596"/>
<feBlend mode="normal" in="SourceGraphic" in2="effect1_dropShadow_1862_5596" result="shape"/>
<feColorMatrix in="SourceAlpha" type="matrix" values="0 0 0 0 0 0 0 0 0 0 0 0 0 0 0 0 0 0 127 0" result="hardAlpha"/>
<feOffset dx="7.95376" dy="-6.363"/>
<feGaussianBlur stdDeviation="5.07185"/>
<feComposite in2="hardAlpha" operator="arithmetic" k2="-1" k3="1"/>
<feColorMatrix type="matrix" values="0 0 0 0 0 0 0 0 0 0 0 0 0 0 0 0 0 0 0.08 0"/>
<feBlend mode="normal" in2="shape" result="effect2_innerShadow_1862_5596"/>
<feColorMatrix in="SourceAlpha" type="matrix" values="0 0 0 0 0 0 0 0 0 0 0 0 0 0 0 0 0 0 127 0" result="hardAlpha"/>
<feOffset dx="-6.76069" dy="7.95376"/>
<feGaussianBlur stdDeviation="7.00398"/>
<feComposite in2="hardAlpha" operator="arithmetic" k2="-1" k3="1"/>
<feColorMatrix type="matrix" values="0 0 0 0 0.954167 0 0 0 0 0.954167 0 0 0 0 0.954167 0 0 0 0.19 0"/>
<feBlend mode="normal" in2="effect2_innerShadow_1862_5596" result="effect3_innerShadow_1862_5596"/>
</filter>
<filter id="filter9_di_1862_5596" x="164.862" y="169.129" width="60.7045" height="60.4561" filterUnits="userSpaceOnUse" color-interpolation-filters="sRGB">
<feFlood flood-opacity="0" result="BackgroundImageFix"/>
<feColorMatrix in="SourceAlpha" type="matrix" values="0 0 0 0 0 0 0 0 0 0 0 0 0 0 0 0 0 0 127 0" result="hardAlpha"/>
<feOffset dy="2.17425"/>
<feGaussianBlur stdDeviation="3.86533"/>
<feComposite in2="hardAlpha" operator="out"/>
<feColorMatrix type="matrix" values="0 0 0 0 0 0 0 0 0 0 0 0 0 0 0 0 0 0 0.05 0"/>
<feBlend mode="normal" in2="BackgroundImageFix" result="effect1_dropShadow_1862_5596"/>
<feBlend mode="normal" in="SourceGraphic" in2="effect1_dropShadow_1862_5596" result="shape"/>
<feColorMatrix in="SourceAlpha" type="matrix" values="0 0 0 0 0 0 0 0 0 0 0 0 0 0 0 0 0 0 127 0" result="hardAlpha"/>
<feOffset/>
<feGaussianBlur stdDeviation="2.11601"/>
<feComposite in2="hardAlpha" operator="arithmetic" k2="-1" k3="1"/>
<feColorMatrix type="matrix" values="0 0 0 0 0 0 0 0 0 0 0 0 0 0 0 0 0 0 0.17 0"/>
<feBlend mode="normal" in2="shape" result="effect2_innerShadow_1862_5596"/>
</filter>
<filter id="filter10_dii_1862_5596" x="295.209" y="106.331" width="81.2377" height="97.0741" filterUnits="userSpaceOnUse" color-interpolation-filters="sRGB">
<feFlood flood-opacity="0" result="BackgroundImageFix"/>
<feColorMatrix in="SourceAlpha" type="matrix" values="0 0 0 0 0 0 0 0 0 0 0 0 0 0 0 0 0 0 127 0" result="hardAlpha"/>
<feOffset dx="1.3705" dy="-10.5071"/>
<feGaussianBlur stdDeviation="7.0809"/>
<feComposite in2="hardAlpha" operator="out"/>
<feColorMatrix type="matrix" values="0 0 0 0 0.0110833 0 0 0 0 0.0707114 0 0 0 0 0.233333 0 0 0 0.26 0"/>
<feBlend mode="normal" in2="BackgroundImageFix" result="effect1_dropShadow_1862_5596"/>
<feBlend mode="normal" in="SourceGraphic" in2="effect1_dropShadow_1862_5596" result="shape"/>
<feColorMatrix in="SourceAlpha" type="matrix" values="0 0 0 0 0 0 0 0 0 0 0 0 0 0 0 0 0 0 127 0" result="hardAlpha"/>
<feOffset dx="7.73258" dy="-6.18606"/>
<feGaussianBlur stdDeviation="4.93081"/>
<feComposite in2="hardAlpha" operator="arithmetic" k2="-1" k3="1"/>
<feColorMatrix type="matrix" values="0 0 0 0 0 0 0 0 0 0 0 0 0 0 0 0 0 0 0.08 0"/>
<feBlend mode="normal" in2="shape" result="effect2_innerShadow_1862_5596"/>
<feColorMatrix in="SourceAlpha" type="matrix" values="0 0 0 0 0 0 0 0 0 0 0 0 0 0 0 0 0 0 127 0" result="hardAlpha"/>
<feOffset dx="-6.57269" dy="7.73258"/>
<feGaussianBlur stdDeviation="6.80922"/>
<feComposite in2="hardAlpha" operator="arithmetic" k2="-1" k3="1"/>
<feColorMatrix type="matrix" values="0 0 0 0 0.954167 0 0 0 0 0.954167 0 0 0 0 0.954167 0 0 0 0.19 0"/>
<feBlend mode="normal" in2="effect2_innerShadow_1862_5596" result="effect3_innerShadow_1862_5596"/>
</filter>
<filter id="filter11_i_1862_5596" x="312.464" y="135.542" width="43.9854" height="43.7436" filterUnits="userSpaceOnUse" color-interpolation-filters="sRGB">
<feFlood flood-opacity="0" result="BackgroundImageFix"/>
<feBlend mode="normal" in="SourceGraphic" in2="BackgroundImageFix" result="shape"/>
<feColorMatrix in="SourceAlpha" type="matrix" values="0 0 0 0 0 0 0 0 0 0 0 0 0 0 0 0 0 0 127 0" result="hardAlpha"/>
<feOffset/>
<feGaussianBlur stdDeviation="1.3705"/>
<feComposite in2="hardAlpha" operator="arithmetic" k2="-1" k3="1"/>
<feColorMatrix type="matrix" values="0 0 0 0 0 0 0 0 0 0 0 0 0 0 0 0 0 0 0.19 0"/>
<feBlend mode="normal" in2="shape" result="effect1_innerShadow_1862_5596"/>
</filter>
<filter id="filter12_dii_1862_5596" x="13.153" y="58.0807" width="81.8861" height="91.9794" filterUnits="userSpaceOnUse" color-interpolation-filters="sRGB">
<feFlood flood-opacity="0" result="BackgroundImageFix"/>
<feColorMatrix in="SourceAlpha" type="matrix" values="0 0 0 0 0 0 0 0 0 0 0 0 0 0 0 0 0 0 127 0" result="hardAlpha"/>
<feOffset dx="1.16218" dy="-8.91006"/>
<feGaussianBlur stdDeviation="6.00461"/>
<feComposite in2="hardAlpha" operator="out"/>
<feColorMatrix type="matrix" values="0 0 0 0 0.0110833 0 0 0 0 0.0707114 0 0 0 0 0.233333 0 0 0 0.26 0"/>
<feBlend mode="normal" in2="BackgroundImageFix" result="effect1_dropShadow_1862_5596"/>
<feBlend mode="normal" in="SourceGraphic" in2="effect1_dropShadow_1862_5596" result="shape"/>
<feColorMatrix in="SourceAlpha" type="matrix" values="0 0 0 0 0 0 0 0 0 0 0 0 0 0 0 0 0 0 127 0" result="hardAlpha"/>
<feOffset dx="6.38753" dy="-5.11002"/>
<feGaussianBlur stdDeviation="3.49124"/>
<feComposite in2="hardAlpha" operator="arithmetic" k2="-1" k3="1"/>
<feColorMatrix type="matrix" values="0 0 0 0 0 0 0 0 0 0 0 0 0 0 0 0 0 0 0.08 0"/>
<feBlend mode="normal" in2="shape" result="effect2_innerShadow_1862_5596"/>
<feColorMatrix in="SourceAlpha" type="matrix" values="0 0 0 0 0 0 0 0 0 0 0 0 0 0 0 0 0 0 127 0" result="hardAlpha"/>
<feOffset dx="-5.4294" dy="6.38753"/>
<feGaussianBlur stdDeviation="4.26708"/>
<feComposite in2="hardAlpha" operator="arithmetic" k2="-1" k3="1"/>
<feColorMatrix type="matrix" values="0 0 0 0 0.954167 0 0 0 0 0.954167 0 0 0 0 0.954167 0 0 0 0.19 0"/>
<feBlend mode="normal" in2="effect2_innerShadow_1862_5596" result="effect3_innerShadow_1862_5596"/>
</filter>
<filter id="filter13_i_1862_5596" x="27.7734" y="82.8657" width="45.2466" height="45.8928" filterUnits="userSpaceOnUse" color-interpolation-filters="sRGB">
<feFlood flood-opacity="0" result="BackgroundImageFix"/>
<feBlend mode="normal" in="SourceGraphic" in2="BackgroundImageFix" result="shape"/>
<feColorMatrix in="SourceAlpha" type="matrix" values="0 0 0 0 0 0 0 0 0 0 0 0 0 0 0 0 0 0 127 0" result="hardAlpha"/>
<feOffset/>
<feGaussianBlur stdDeviation="0.775832"/>
<feComposite in2="hardAlpha" operator="arithmetic" k2="-1" k3="1"/>
<feColorMatrix type="matrix" values="0 0 0 0 0 0 0 0 0 0 0 0 0 0 0 0 0 0 0.31 0"/>
<feBlend mode="normal" in2="shape" result="effect1_innerShadow_1862_5596"/>
</filter>
<linearGradient id="paint0_linear_1862_5596" x1="169" y1="227" x2="178" y2="-151" gradientUnits="userSpaceOnUse">
<stop offset="0.143472" stop-color="#4B72FF"/>
<stop offset="1" stop-color="#4B72FF" stop-opacity="0"/>
</linearGradient>
<clipPath id="clip0_1862_5596">
<rect width="397" height="543" fill="white" transform="matrix(1 0 0 -1 0 543)"/>
</clipPath>
<clipPath id="clip1_1862_5596">
<rect width="619" height="456.794" fill="white" transform="translate(442.794 -68) rotate(90)"/>
</clipPath>
<clipPath id="clip2_1862_5596">
<rect width="45.2433" height="44.9947" rx="22.4974" transform="matrix(-1 0 0 1 217.835 174.685)" fill="white"/>
</clipPath>
<clipPath id="clip3_1862_5596">
<rect width="43.9852" height="43.7436" rx="21.8718" transform="matrix(-1 0 0 1 356.449 135.542)" fill="white"/>
</clipPath>
</defs>
</svg>
