<svg width="142" height="44" viewBox="0 0 142 44" fill="none" xmlns="http://www.w3.org/2000/svg">
<path d="M1.44385 8.3207L6.98462 10.7562C8.56768 7.83359 11.6729 6.43318 14.9 6.92028C18.127 7.40738 20.0549 9.9553 20.7452 11.426C22.1456 14.4094 22.5866 18.9996 20.0293 23.5052L25.7527 26.2452C28.6196 20.5912 28.4368 14.7395 26.8279 10.1702C25.0387 5.08903 20.7367 1.57028 15.2075 0.732558C7.84832 -0.382412 2.80367 5.27632 1.44385 8.3207Z" fill="#18EDF1"/>
<path d="M10.5566 40.0247C15.9816 41.5388 26.625 40.681 31.3922 28.9049L25.7525 26.2408C21.2974 35.6607 15.3025 34.7668 11.7267 33.8322C9.07915 33.1402 5.86924 30.6821 5.86924 26.9452C5.86924 22.4409 10.285 18.7542 15.5033 20.5416C15.5033 20.5416 16.3512 14.805 16.3015 14.7553C12.0917 13.4244 6.94008 13.6427 2.53979 19.2688C-0.314898 22.9188 -0.844718 28.4966 1.36652 32.8147C3.07569 36.1525 6.42484 38.8715 10.5566 40.0247Z" fill="#18EDF1"/>
<path d="M66.6131 38.4108V33.6478H68.8021V32.9768H66.6131C66.5691 31.9868 67.1081 31.6568 68.0981 31.6568H68.8021V31.0408H68.2081C66.8001 31.0408 65.9311 31.6898 65.8431 32.9768H64.9631V33.6478H65.8321V38.4108H66.6131ZM72.2341 38.5208C74.0161 38.5208 75.1931 37.3438 75.1931 35.6938C75.1931 34.0438 74.0161 32.8668 72.2341 32.8668C70.4631 32.8668 69.2861 34.0438 69.2861 35.6938C69.2861 37.3438 70.4631 38.5208 72.2341 38.5208ZM72.2341 37.8168C70.7381 37.8168 70.0561 37.0138 70.0561 35.6938C70.0561 34.3848 70.7381 33.5708 72.2341 33.5708C73.7301 33.5708 74.4231 34.3848 74.4231 35.6938C74.4231 37.0138 73.7301 37.8168 72.2341 37.8168ZM77.0133 38.4108V35.4628C77.0133 34.2418 77.4973 33.5488 78.5973 33.5488C79.5433 33.5488 79.9283 33.9998 79.9283 34.9238V35.3418H80.7093V34.8028C80.7093 33.7908 80.1593 32.8668 78.9053 32.8668C77.7723 32.8668 77.1563 33.5928 76.9913 34.4618H76.9363V32.9768H76.2323V38.4108H77.0133ZM87.5276 38.4108C88.9356 38.4108 89.8376 37.6518 89.8376 36.3758C89.8376 35.4298 89.2546 34.7588 88.1216 34.5718V34.5058C89.1336 34.3518 89.6066 33.7138 89.6066 32.8668C89.6066 31.7008 88.7376 31.0408 87.4176 31.0408H83.5456V38.4108H87.5276ZM84.3266 31.7558H87.3516C88.3526 31.7558 88.8256 32.1518 88.8256 33.0098C88.8256 33.8568 88.2866 34.2528 87.2856 34.2528H84.3266V31.7558ZM84.3266 34.9238H87.4616C88.4846 34.9238 89.0456 35.3528 89.0456 36.2988C89.0456 37.2668 88.5066 37.6958 87.4616 37.6958H84.3266V34.9238ZM93.0542 38.5208C94.4072 38.5208 95.1882 37.6408 95.3752 36.7168H95.4302V38.4108H96.1342V32.9768H95.3532V35.6168C95.3532 37.0138 94.6602 37.8168 93.3292 37.8168C92.0752 37.8168 91.5252 37.1678 91.5252 36.0348V32.9768H90.7442V36.1558C90.7442 37.4428 91.5032 38.5208 93.0542 38.5208ZM99.8351 38.5208C101.243 38.5208 102.255 37.9818 102.255 36.9588C102.255 36.0788 101.628 35.6828 100.462 35.5178L99.1311 35.3308C98.2291 35.1988 97.9431 35.0008 97.9431 34.4398C97.9431 33.7908 98.4161 33.5158 99.5601 33.5158C100.946 33.5158 101.375 33.9558 101.375 34.7698V34.8248H102.156V34.8028C102.156 33.5268 101.144 32.8668 99.5821 32.8668C98.0861 32.8668 97.1731 33.4718 97.1731 34.4288C97.1731 35.3308 97.8001 35.7158 98.7901 35.8478L100.242 36.0568C101.144 36.1998 101.485 36.3868 101.485 36.9588C101.485 37.5858 101.067 37.8718 99.8461 37.8718C98.5151 37.8718 97.9761 37.5528 97.9761 36.6398V36.5738H97.1951V36.5958C97.1951 37.8498 98.1631 38.5208 99.8351 38.5208ZM104.062 32.2838V31.0408H103.281V32.2838H104.062ZM104.062 38.4108V32.9768H103.281V38.4108H104.062ZM106.157 38.4108V35.7818C106.157 34.3848 106.85 33.5818 108.17 33.5818C109.413 33.5818 109.952 34.2308 109.952 35.3528V38.4108H110.733V35.2428C110.733 33.9558 109.974 32.8668 108.445 32.8668C107.092 32.8668 106.322 33.7578 106.135 34.6818H106.08V32.9768H105.376V38.4108H106.157ZM114.589 38.5208C116.107 38.5208 117.229 37.7398 117.229 36.6068V36.5298H116.448V36.6068C116.448 37.3988 115.854 37.8718 114.578 37.8718C113.137 37.8718 112.51 37.1348 112.466 35.9138H117.251C117.284 35.7708 117.306 35.6058 117.306 35.4078C117.306 33.7908 116.173 32.8668 114.578 32.8668C112.829 32.8668 111.729 34.0438 111.729 35.6938C111.729 37.4208 112.84 38.5208 114.589 38.5208ZM114.567 33.5158C115.843 33.5158 116.569 34.1208 116.569 35.2648C116.569 35.3198 116.569 35.3748 116.569 35.4298H112.466C112.521 34.2418 113.159 33.5158 114.567 33.5158ZM120.729 38.5208C122.137 38.5208 123.149 37.9818 123.149 36.9588C123.149 36.0788 122.522 35.6828 121.356 35.5178L120.025 35.3308C119.123 35.1988 118.837 35.0008 118.837 34.4398C118.837 33.7908 119.31 33.5158 120.454 33.5158C121.84 33.5158 122.269 33.9558 122.269 34.7698V34.8248H123.05V34.8028C123.05 33.5268 122.038 32.8668 120.476 32.8668C118.98 32.8668 118.067 33.4718 118.067 34.4288C118.067 35.3308 118.694 35.7158 119.684 35.8478L121.136 36.0568C122.038 36.1998 122.379 36.3868 122.379 36.9588C122.379 37.5858 121.961 37.8718 120.74 37.8718C119.409 37.8718 118.87 37.5528 118.87 36.6398V36.5738H118.089V36.5958C118.089 37.8498 119.057 38.5208 120.729 38.5208ZM126.562 38.5208C127.97 38.5208 128.982 37.9818 128.982 36.9588C128.982 36.0788 128.355 35.6828 127.189 35.5178L125.858 35.3308C124.956 35.1988 124.67 35.0008 124.67 34.4398C124.67 33.7908 125.143 33.5158 126.287 33.5158C127.673 33.5158 128.102 33.9558 128.102 34.7698V34.8248H128.883V34.8028C128.883 33.5268 127.871 32.8668 126.309 32.8668C124.813 32.8668 123.9 33.4718 123.9 34.4288C123.9 35.3308 124.527 35.7158 125.517 35.8478L126.969 36.0568C127.871 36.1998 128.212 36.3868 128.212 36.9588C128.212 37.5858 127.794 37.8718 126.573 37.8718C125.242 37.8718 124.703 37.5528 124.703 36.6398V36.5738H123.922V36.5958C123.922 37.8498 124.89 38.5208 126.562 38.5208ZM132.593 38.5208C134.111 38.5208 135.233 37.7398 135.233 36.6068V36.5298H134.452V36.6068C134.452 37.3988 133.858 37.8718 132.582 37.8718C131.141 37.8718 130.514 37.1348 130.47 35.9138H135.255C135.288 35.7708 135.31 35.6058 135.31 35.4078C135.31 33.7908 134.177 32.8668 132.582 32.8668C130.833 32.8668 129.733 34.0438 129.733 35.6938C129.733 37.4208 130.844 38.5208 132.593 38.5208ZM132.571 33.5158C133.847 33.5158 134.573 34.1208 134.573 35.2648C134.573 35.3198 134.573 35.3748 134.573 35.4298H130.47C130.525 34.2418 131.163 33.5158 132.571 33.5158ZM138.733 38.5208C140.141 38.5208 141.153 37.9818 141.153 36.9588C141.153 36.0788 140.526 35.6828 139.36 35.5178L138.029 35.3308C137.127 35.1988 136.841 35.0008 136.841 34.4398C136.841 33.7908 137.314 33.5158 138.458 33.5158C139.844 33.5158 140.273 33.9558 140.273 34.7698V34.8248H141.054V34.8028C141.054 33.5268 140.042 32.8668 138.48 32.8668C136.984 32.8668 136.071 33.4718 136.071 34.4288C136.071 35.3308 136.698 35.7158 137.688 35.8478L139.14 36.0568C140.042 36.1998 140.383 36.3868 140.383 36.9588C140.383 37.5858 139.965 37.8718 138.744 37.8718C137.413 37.8718 136.874 37.5528 136.874 36.6398V36.5738H136.093V36.5958C136.093 37.8498 137.061 38.5208 138.733 38.5208Z" fill="#E5F8FF"/>
<path fill-rule="evenodd" clip-rule="evenodd" d="M40.292 24.8045H43.6136L45.215 21.1857H52.0869L53.6883 24.8045H57.0515L50.4968 10.1166H46.8467L40.292 24.8045ZM46.4447 18.4149L48.103 14.6972L48.651 13.3625L49.1989 14.6972L50.8573 18.4149H46.4447Z" fill="white"/>
<path d="M57.9659 12.2572H60.9655V9.61432H57.9659V12.2572Z" fill="white"/>
<path d="M57.9659 24.8045H60.9655V13.7146H57.9659V24.8045Z" fill="white"/>
<path d="M63.1239 24.8045H66.1235V18.6252C66.1235 17.7379 66.2999 17.1373 66.6192 16.7604C66.9273 16.3966 67.4274 16.1735 68.2425 16.1735C68.9651 16.1735 69.385 16.3356 69.6318 16.5879C69.8802 16.8419 70.0287 17.264 70.0287 17.9597V18.2469H73.0075V17.523C73.0075 16.4854 72.7376 15.4819 72.1182 14.7304C71.4898 13.968 70.5354 13.5066 69.2616 13.5066C68.1169 13.5066 67.2112 13.8682 66.5491 14.4802C66.3102 14.7011 66.1067 14.9511 65.9363 15.2228V13.7146H63.1239V24.8045Z" fill="white"/>
<path fill-rule="evenodd" clip-rule="evenodd" d="M74.4968 24.8045H77.3092V23.0583C77.5691 23.4736 77.8965 23.8295 78.2891 24.1198C79.0976 24.7174 80.1494 25.0125 81.3832 25.0125C83.1139 25.0125 84.486 24.4344 85.4219 23.3987C86.3528 22.3684 86.8137 20.928 86.8137 19.27C86.8137 17.5933 86.3592 16.1487 85.448 15.1182C84.5311 14.0814 83.1894 13.5066 81.508 13.5066C80.2054 13.5066 79.1587 13.8413 78.3761 14.4362C78.0246 14.7033 77.7323 15.0186 77.4964 15.3705V10.1166H74.4968V24.8045ZM77.4964 19.3739V19.2076C77.4964 18.1779 77.7905 17.4726 78.2968 17.0182C78.8104 16.5573 79.6046 16.2983 80.7176 16.2983C81.7832 16.2983 82.5398 16.5065 83.0311 16.9418C83.5128 17.3686 83.8141 18.0814 83.8141 19.27C83.8141 20.449 83.5177 21.1489 83.0364 21.5671C82.5435 21.9955 81.7768 22.2 80.6761 22.2C79.6156 22.2 78.8284 21.9517 78.3103 21.502C77.8014 21.0602 77.4964 20.3753 77.4964 19.3739Z" fill="white"/>
<path fill-rule="evenodd" clip-rule="evenodd" d="M109.943 23.8677C110.267 23.5818 110.535 23.2564 110.752 22.9069V24.8045H113.564V13.7146H110.586V19.2076C110.586 20.2778 110.332 21.0188 109.875 21.4939C109.419 21.9663 108.698 22.2416 107.614 22.2416C106.569 22.2416 105.916 22.0069 105.519 21.6187C105.125 21.2323 104.913 20.623 104.913 19.7067V13.7146H101.934V20.3098C101.934 21.5775 102.309 22.7573 103.104 23.6243C103.904 24.4967 105.092 25.0125 106.636 25.0125C108.051 25.0125 109.15 24.5684 109.943 23.8677Z" fill="white"/>
<path d="M115.683 24.8045H118.683V19.3115C118.683 18.2378 118.927 17.4962 119.374 17.022C119.816 16.5523 120.52 16.2775 121.592 16.2775C122.614 16.2775 123.251 16.5114 123.637 16.8976C124.023 17.2837 124.231 17.894 124.231 18.8124V24.8045H127.231V18.2093C127.231 16.9417 126.856 15.7625 126.067 14.8958C125.273 14.0235 124.094 13.5066 122.57 13.5066C121.175 13.5066 120.085 13.9516 119.3 14.6528C118.978 14.9411 118.71 15.2695 118.496 15.6224V13.7146H115.683V24.8045Z" fill="white"/>
<path fill-rule="evenodd" clip-rule="evenodd" d="M138.108 10.1166V15.3756C137.87 15.0213 137.574 14.7042 137.22 14.4358C136.435 13.8416 135.389 13.5066 134.097 13.5066C132.435 13.5066 131.094 14.0822 130.173 15.1174C129.257 16.1469 128.791 17.5911 128.791 19.27C128.791 20.9302 129.263 22.3705 130.202 23.3999C131.145 24.4341 132.521 25.0125 134.242 25.0125C135.466 25.0125 136.513 24.7171 137.318 24.1194C137.709 23.8293 138.036 23.4737 138.295 23.0589V24.8045H141.108V10.1166H138.108ZM131.811 19.27C131.811 18.0831 132.117 17.3694 132.599 16.9418C133.091 16.5059 133.844 16.2983 134.887 16.2983C135.989 16.2983 136.784 16.5569 137.3 17.0188C137.81 17.4739 138.108 18.1796 138.108 19.2076V19.3739C138.108 20.3735 137.799 21.0589 137.287 21.5015C136.766 21.952 135.978 22.2 134.928 22.2C133.85 22.2 133.088 21.996 132.594 21.5671C132.112 21.1481 131.811 20.4472 131.811 19.27Z" fill="white"/>
<path fill-rule="evenodd" clip-rule="evenodd" d="M94.1084 25.0125C95.9143 25.0125 97.4517 24.4403 98.5409 23.4212C99.6321 22.4003 100.246 20.9561 100.246 19.27C100.246 17.5642 99.6329 16.1144 98.5409 15.0927C97.4511 14.0731 95.9134 13.5066 94.1084 13.5066C92.3132 13.5066 90.7808 14.0734 89.6937 15.093C88.6046 16.1146 87.9915 17.5642 87.9915 19.27C87.9915 20.9561 88.6054 22.4 89.6937 23.4209C90.7801 24.4399 92.3123 25.0125 94.1084 25.0125ZM94.1084 22.2624C92.9136 22.2624 92.1445 21.9784 91.6705 21.5065C91.1969 21.0351 90.9495 20.3082 90.9495 19.27C90.9495 18.2204 91.1974 17.4823 91.6723 17.003C92.1467 16.5243 92.9152 16.2359 94.1084 16.2359C95.3128 16.2359 96.0865 16.5247 96.5633 17.0036C97.0402 17.4827 97.2881 18.2204 97.2881 19.27C97.2881 20.3082 97.0407 21.0346 96.5651 21.5059C96.0887 21.978 95.3144 22.2624 94.1084 22.2624Z" fill="white"/>
</svg>
