<svg width="586" height="328" viewBox="0 0 586 328" fill="none" xmlns="http://www.w3.org/2000/svg">
<g opacity="0.04">
<path fill-rule="evenodd" clip-rule="evenodd" d="M561.587 314.113L561.587 205.724L585.043 205.724L585.043 314.113L561.587 314.113Z" fill="#4B72FF"/>
<path fill-rule="evenodd" clip-rule="evenodd" d="M504.467 191.23C504.467 128.967 453.993 78.4927 391.73 78.4927L391.73 55.0364C466.948 55.0364 527.923 116.012 527.923 191.23C527.923 266.447 466.948 327.423 391.73 327.423C316.513 327.423 255.537 266.447 255.537 191.23L278.993 191.23C278.993 253.492 329.467 303.966 391.73 303.966C453.993 303.966 504.467 253.492 504.467 191.23Z" fill="#4B72FF"/>
<path fill-rule="evenodd" clip-rule="evenodd" d="M327.011 191.229C327.011 226.973 355.987 255.948 391.73 255.948C427.473 255.948 456.449 226.973 456.449 191.229C456.449 155.486 427.473 126.51 391.73 126.51C355.987 126.51 327.011 155.486 327.011 191.229ZM351.731 191.229C351.731 213.32 369.639 231.229 391.73 231.229C413.821 231.229 431.73 213.32 431.73 191.229C431.73 169.138 413.821 151.23 391.73 151.23C369.639 151.23 351.731 169.138 351.731 191.229Z" fill="#4B72FF"/>
<path d="M64.9992 148.48C47.204 148.478 31.0793 141.326 19.3416 129.74C7.40065 117.954 7.96885e-06 101.579 7.75296e-06 83.4748C7.53777e-06 65.4288 7.35347 49.1003 19.2274 37.3223C30.9758 25.6688 47.1497 18.47 65.0049 18.47C83.0843 18.47 99.4399 25.8507 111.223 37.7635C122.838 49.5064 130.01 65.6531 130.01 83.4748L105.181 83.4748C105.181 72.5702 100.837 62.6802 93.7841 55.4414C86.4863 47.9507 76.2888 43.2988 65.0049 43.2988C54.0141 43.2988 44.0541 47.7121 36.8004 54.8632C29.41 62.1491 24.8288 72.277 24.8288 83.4748C24.8288 94.7015 29.4336 104.853 36.8575 112.143C44.1063 119.261 54.0429 123.654 65.0049 123.654L275.613 123.654L275.613 148.48L65.0049 148.48C65.003 148.48 65.0011 148.48 64.9992 148.48Z" fill="#4B72FF"/>
<path fill-rule="evenodd" clip-rule="evenodd" d="M295.344 24.2783L165.906 24.2783L165.906 1.54354e-06L295.344 0L295.344 24.2783Z" fill="#4B72FF"/>
<path fill-rule="evenodd" clip-rule="evenodd" d="M585.043 147.415C577.388 64.8858 511.58 -5.78132e-06 412.635 -4.60141e-06L291.574 -9.32836e-06L291.574 24.294L412.635 24.294C490.404 24.294 546.001 75.6033 560.749 147.415L585.043 147.415Z" fill="#4B72FF"/>
<path fill-rule="evenodd" clip-rule="evenodd" d="M346.509 55.0364H53.3388V78.4927H346.509V55.0364Z" fill="#4B72FF"/>
</g>
</svg>
