<svg width="624" height="476" viewBox="0 0 624 476" fill="none" xmlns="http://www.w3.org/2000/svg">
<g opacity="0.04">
<path d="M226.909 326.167H379.736C469.728 326.167 542.68 253.214 542.68 163.222C542.68 73.2305 469.728 0.277813 379.736 0.277813H368.528V24.0221H379.736C456.614 24.0221 518.936 86.3442 518.936 163.222C518.936 240.1 456.614 302.422 379.736 302.422H226.909V326.167Z" fill="#4B72FF"/>
<path d="M132.622 175.172C59.3182 227.374 42.2115 329.117 94.4132 402.421L113.755 388.648C69.1596 326.025 83.7736 239.109 146.396 194.514C164.955 181.297 185.649 173.281 206.742 170.174L199.921 147.209C176.389 151.178 153.367 160.4 132.622 175.172Z" fill="#4B72FF"/>
<path d="M227.951 450.124L612.835 450.124L612.835 475.538L227.951 475.538C182.764 475.538 142.356 455.577 112.376 424.619L134.022 409.4C169.219 441.495 200.241 450.124 227.951 450.124Z" fill="#4B72FF"/>
<path fill-rule="evenodd" clip-rule="evenodd" d="M623.331 387.13L623.331 363.322L216.241 363.322C187.787 363.322 164.72 340.255 164.72 311.8C164.72 281.818 190.072 255.144 216.502 254.544L286.846 254.289L286.846 230.537L215.98 230.805C195.574 231.268 176.811 241.586 163.358 256.235C149.881 270.91 140.912 290.791 140.912 311.8C140.912 353.404 174.638 387.13 216.241 387.13L623.331 387.13Z" fill="#4B72FF"/>
<path fill-rule="evenodd" clip-rule="evenodd" d="M401.422 114.538C436.451 114.538 464.847 142.934 464.847 177.963C464.847 212.992 436.451 241.388 401.422 241.388C366.393 241.388 337.997 212.992 337.997 177.963C337.997 142.934 366.393 114.538 401.422 114.538ZM401.422 138.763C423.071 138.763 440.622 156.313 440.622 177.963C440.622 199.612 423.071 217.163 401.422 217.163C379.772 217.163 362.222 199.612 362.222 177.963C362.222 156.313 379.772 138.763 401.422 138.763Z" fill="#4B72FF"/>
</g>
</svg>
