<svg width="40" height="34" viewBox="0 0 40 34" fill="none" xmlns="http://www.w3.org/2000/svg">
<path fill-rule="evenodd" clip-rule="evenodd" d="M31.2092 25.5278C37.4712 19.2658 37.4712 9.11321 31.2092 2.85126L33.5683 0.492188C41.1331 8.05702 41.1331 20.322 33.5683 27.8869C26.0035 35.4517 13.7385 35.4517 6.17362 27.8869C-1.39121 20.322 -1.39121 8.05702 6.17362 0.492188L8.53269 2.85126C2.27074 9.11321 2.27074 19.2658 8.53269 25.5278C14.7946 31.7898 24.9473 31.7898 31.2092 25.5278Z" fill="#18EDF1"/>
<path fill-rule="evenodd" clip-rule="evenodd" d="M13.3622 7.68046C9.76737 11.2753 9.76736 17.1036 13.3622 20.6984C16.957 24.2933 22.7854 24.2933 26.3802 20.6984C29.975 17.1036 29.975 11.2753 26.3802 7.68046C22.7853 4.08564 16.957 4.08564 13.3622 7.68046ZM15.8483 10.1666C13.6265 12.3884 13.6265 15.9905 15.8483 18.2123C18.0701 20.4341 21.6723 20.4341 23.894 18.2123C26.1158 15.9905 26.1158 12.3884 23.894 10.1666C21.6723 7.94482 18.0701 7.94482 15.8483 10.1666Z" fill="#18EDF1"/>
</svg>
