<svg width="888" height="757" viewBox="0 0 888 757" fill="none" xmlns="http://www.w3.org/2000/svg">
<g clip-path="url(#clip0_1972_6318)">
<g style="mix-blend-mode:luminosity" opacity="0.08" clip-path="url(#clip1_1972_6318)">
<g clip-path="url(#clip2_1972_6318)">
<path fill-rule="evenodd" clip-rule="evenodd" d="M381.22 23.1951L249.971 23.1951L249.971 43.218L381.22 43.218L381.22 23.1951Z" fill="#4B72FF"/>
<path d="M530.454 161.663L726.981 161.663L726.981 137.562L530.454 137.562C484.907 137.562 447.984 100.638 447.984 55.0915C447.984 9.54449 484.907 -27.3786 530.454 -27.3786L542.09 -27.3786L542.09 -51.4805L530.454 -51.4805C471.596 -51.4805 423.882 -3.76664 423.882 55.0914C423.882 113.95 471.596 161.663 530.454 161.663Z" fill="#4B72FF"/>
<path d="M433.538 343.09L433.538 209.971C433.538 131.585 369.993 68.0399 291.606 68.0399C213.22 68.0399 149.675 131.585 149.675 209.971L149.675 219.734L170.357 219.734L170.357 209.971C170.357 143.007 224.642 88.7222 291.606 88.7222C358.57 88.7222 412.855 143.007 412.855 209.971L412.855 343.09L433.538 343.09Z" fill="#4B72FF"/>
<path d="M302.016 425.218C347.486 489.069 436.108 503.97 499.959 458.5L507.911 452.837L495.914 435.99L487.961 441.653C433.415 480.497 357.707 467.767 318.863 413.221C307.351 397.055 300.368 379.03 297.662 360.657L277.658 366.598C281.115 387.095 289.148 407.149 302.016 425.218Z" fill="#4B72FF"/>
<path fill-rule="evenodd" clip-rule="evenodd" d="M231.921 743.887C301.419 743.887 357.759 687.547 357.759 618.049L357.759 497.545L337.021 497.545L337.021 618.049C337.021 676.094 289.966 723.149 231.921 723.149L221.909 723.149L221.909 743.887L231.921 743.887Z" fill="#4B72FF"/>
<path d="M603.68 307.645C603.68 377.143 660.019 433.483 729.517 433.483L739.529 433.483L739.529 412.744L729.517 412.744C671.472 412.744 624.418 365.69 624.418 307.645L624.436 297.135L624.436 281.655C624.436 236.53 587.855 199.949 542.729 199.949L532.609 199.949L532.609 220.632L542.729 220.632C576.432 220.632 603.753 247.953 603.753 281.655L603.753 295.837L603.68 307.645Z" fill="#4B72FF"/>
<path d="M228.639 392.187C228.639 461.685 172.299 518.025 102.801 518.025L92.7896 518.025L92.7896 497.286L102.801 497.286C160.846 497.286 207.901 450.232 207.901 392.187L207.883 381.677L207.883 366.197C207.883 321.072 244.464 284.491 289.589 284.491L299.71 284.491L299.71 305.174L289.589 305.174C255.887 305.174 228.566 332.495 228.566 366.197L228.566 380.379L228.639 392.187Z" fill="#4B72FF"/>
<path d="M266.217 441.062C266.217 510.56 209.877 566.9 140.379 566.9L140.379 546.162C198.424 546.162 245.479 499.107 245.479 441.062L266.217 441.062Z" fill="#4B72FF"/>
<path d="M766.832 69.0786C766.832 23.9534 803.413 -12.6278 848.538 -12.6278L858.659 -12.6278L858.659 8.0554L848.538 8.0554C814.836 8.05539 787.515 35.3764 787.515 69.0786L787.515 163.221L766.832 163.221L766.832 69.0786Z" fill="#4B72FF"/>
<path d="M542.963 366.123L542.963 271.981L563.646 271.981L563.646 366.123C563.646 392.449 551.196 415.867 531.862 430.81L519.655 414.1C533.849 402.926 542.963 385.589 542.963 366.123Z" fill="#4B72FF"/>
<path fill-rule="evenodd" clip-rule="evenodd" d="M486.639 200.064H465.901V352.382C465.901 377.167 445.809 397.259 421.024 397.259C394.908 397.259 371.674 375.176 371.151 352.155L370.929 290.883H350.241L350.473 352.609C350.877 370.384 359.864 386.727 372.625 398.445C385.407 410.184 402.724 417.997 421.024 417.997C457.262 417.997 486.639 388.62 486.639 352.382L486.639 200.064Z" fill="#4B72FF"/>
<path d="M166.293 722.785C147.435 722.785 132.148 707.491 132.148 688.634C132.148 669.776 147.435 654.489 166.293 654.489L166.293 633.388C135.781 633.388 111.046 658.122 111.046 688.634C111.046 719.145 135.781 743.88 166.293 743.88L166.293 743.887L192.546 743.887L192.546 722.785L166.293 722.785Z" fill="#4B72FF"/>
<path d="M129.309 -227.47V-121.128C129.309 -92.8219 149.861 -67.8869 178.265 -66.5177L179.365 -66.3259C188.848 -66.3259 195.669 -59.0025 195.669 -49.5199C195.669 -40.0374 187.982 -32.3503 178.499 -32.3503H174.559L174.559 -32.1446C155.381 -30.173 140.422 -13.9677 140.422 5.73138C140.422 26.7609 157.47 43.8088 178.499 43.8088H216.577V22.9011H178.499C169.017 22.9011 161.33 15.214 161.33 5.73138C161.33 -3.75221 169.018 -11.4426 178.499 -11.4426C199.529 -11.4426 216.577 -28.4904 216.577 -49.5199C216.577 -70.4536 200.55 -87.4417 178.799 -87.5963C161.939 -89.4279 150.244 -103.785 150.244 -121.128V-227.47L129.309 -227.47Z" fill="#4B72FF"/>
<path fill-rule="evenodd" clip-rule="evenodd" d="M249.2 191.082C249.2 160.571 273.935 135.836 304.446 135.836C334.958 135.836 359.692 160.571 359.692 191.082C359.692 221.594 334.958 246.328 304.446 246.328C273.935 246.328 249.2 221.594 249.2 191.082ZM270.302 191.082C270.302 172.225 285.589 156.938 304.446 156.938C323.304 156.938 338.591 172.225 338.591 191.082C338.591 209.94 323.304 225.227 304.446 225.227C285.589 225.227 270.302 209.94 270.302 191.082Z" fill="#4B72FF"/>
<path fill-rule="evenodd" clip-rule="evenodd" d="M192.546 627.867C192.546 597.355 217.28 572.621 247.792 572.621C278.304 572.621 303.038 597.355 303.038 627.867C303.038 658.378 278.304 683.113 247.792 683.113C217.28 683.113 192.546 658.378 192.546 627.867ZM213.647 627.867C213.647 609.009 228.934 593.722 247.792 593.722C266.65 593.722 281.937 609.009 281.937 627.867C281.937 646.724 266.65 662.011 247.792 662.011C228.934 662.011 213.647 646.724 213.647 627.867Z" fill="#4B72FF"/>
<path fill-rule="evenodd" clip-rule="evenodd" d="M915.831 308.45C936.762 308.45 953.729 291.482 953.729 270.551C953.729 249.62 936.762 232.653 915.831 232.653C894.9 232.653 877.932 249.62 877.932 270.551C877.932 291.482 894.9 308.45 915.831 308.45ZM915.831 249.448C904.176 249.448 894.728 258.896 894.728 270.551C894.728 282.206 904.176 291.654 915.831 291.654C927.486 291.654 936.934 282.206 936.934 270.551C936.934 258.896 927.486 249.448 915.831 249.448Z" fill="#4B72FF"/>
<path d="M831.989 271.23C832.076 292.099 839.916 312.923 855.51 329.038L856.519 330.058C871.691 345.398 892.735 354.892 916.007 354.892C939.236 354.892 960.244 345.434 975.41 330.145C990.415 315.017 999.675 294.208 999.675 271.225C999.675 247.953 990.182 226.91 974.842 211.738C960.989 198.036 942.39 189.144 921.728 187.75L921.728 210.523C936 211.852 948.849 218.104 958.548 227.553C969.909 238.62 976.974 254.103 976.974 271.225C976.974 287.901 970.271 303.024 959.425 314.025C948.376 325.233 932.999 332.192 916.007 332.192C901.051 332.192 887.346 326.801 876.742 317.865L876.582 318.025L872.537 313.978C860.75 302.187 854.8 286.758 854.69 271.313L854.69 271.293L854.691 99.7285L832.06 99.7285L831.989 271.23Z" fill="#4B72FF"/>
<path d="M148.931 310.261L148.941 310.261L148.941 316.697C148.941 350.763 121.325 378.378 87.2597 378.378L87.2597 399.648C133.072 399.648 170.211 362.51 170.211 316.697L170.211 257.062L148.931 257.062L148.931 310.261Z" fill="#4B72FF"/>
<path d="M858.655 407.271C843.464 407.272 829.7 413.377 819.68 423.267C809.487 433.329 803.169 447.307 803.169 462.761C803.169 478.165 809.446 492.104 819.583 502.158C829.611 512.106 843.418 518.251 858.659 518.251C874.092 518.251 888.054 511.95 898.112 501.781C908.027 491.757 914.149 477.974 914.149 462.761L892.955 462.761C892.955 472.069 889.246 480.512 883.226 486.691C876.997 493.085 868.292 497.056 858.659 497.056C849.277 497.056 840.775 493.289 834.583 487.185C828.275 480.965 824.364 472.32 824.364 462.761C824.364 453.177 828.295 444.512 834.632 438.289C840.82 432.213 849.302 428.465 858.659 428.465L858.659 428.463L914.012 428.463L914.012 407.271L858.659 407.271C858.658 407.271 858.656 407.271 858.655 407.271Z" fill="#4B72FF"/>
<path d="M741.019 612.85C725.829 612.851 712.064 618.956 702.044 628.846C691.851 638.907 685.534 652.886 685.534 668.339C685.534 683.744 691.811 697.683 701.947 707.737C711.976 717.684 725.782 723.829 741.024 723.829C756.457 723.829 770.419 717.529 780.477 707.36C790.392 697.336 796.514 683.553 796.514 668.339L775.319 668.339C775.319 677.648 771.611 686.09 765.591 692.27C759.361 698.664 750.656 702.635 741.024 702.635C731.642 702.635 723.14 698.868 716.948 692.763C710.639 686.544 706.728 677.898 706.728 668.339C706.728 658.756 710.659 650.091 716.996 643.868C723.184 637.792 731.666 634.041 741.024 634.041L920.805 634.041L920.805 612.85L741.024 612.85C741.022 612.85 741.021 612.85 741.019 612.85Z" fill="#4B72FF"/>
<path d="M606.955 611.482C622.145 611.483 635.91 617.588 645.929 627.478C656.122 637.54 662.44 651.518 662.44 666.972C662.44 682.377 656.163 696.315 646.027 706.369C635.998 716.317 622.192 722.462 606.95 722.462C591.517 722.462 577.555 716.162 567.497 705.993C557.582 695.968 551.46 682.185 551.46 666.972L572.654 666.972C572.654 676.281 576.363 684.723 582.383 690.902C588.613 697.296 597.318 701.267 606.95 701.267C616.332 701.267 624.834 697.5 631.026 691.396C637.335 685.176 641.245 676.531 641.245 666.972C641.245 657.389 637.314 648.723 630.977 642.5C624.789 636.424 616.307 632.674 606.95 632.674L444.332 632.674L444.332 611.482L606.95 611.482C606.951 611.482 606.953 611.482 606.955 611.482Z" fill="#4B72FF"/>
<path fill-rule="evenodd" clip-rule="evenodd" d="M772.932 520.337C772.932 550.849 748.198 575.583 717.686 575.583L607.194 575.583C576.682 575.583 551.948 550.849 551.948 520.337C551.948 489.826 576.682 465.091 607.194 465.091L717.686 465.091C748.198 465.091 772.932 489.826 772.932 520.337ZM717.686 486.192C736.543 486.192 751.831 501.48 751.831 520.337C751.831 539.195 736.543 554.482 717.686 554.482L717.686 554.475L607.194 554.475L607.194 554.482C588.336 554.482 573.049 539.195 573.049 520.337C573.049 501.48 588.336 486.192 607.194 486.192L607.194 486.199L717.686 486.199L717.686 486.192Z" fill="#4B72FF"/>
<path d="M666.89 112.231C697.401 112.231 722.136 87.4963 722.136 56.9847C722.136 26.4732 697.401 1.73863 666.89 1.73863L556.397 1.73862C525.886 1.73862 501.151 26.4731 501.151 56.9847C501.151 87.4963 525.886 112.231 556.397 112.231L577.306 112.231L577.306 91.123L556.397 91.123L556.397 91.1294C537.54 91.1294 522.253 75.8423 522.253 56.9847C522.253 38.1271 537.54 22.84 556.397 22.84L556.397 22.8465L666.89 22.8465L666.89 22.84C685.747 22.84 701.034 38.1271 701.034 56.9847C701.034 75.8423 685.747 91.1295 666.89 91.1295L666.89 91.123L645.794 91.123L645.794 112.231L666.89 112.231Z" fill="#4B72FF"/>
<path d="M854.188 -156.495C854.188 -187.007 878.922 -211.741 909.434 -211.741C939.945 -211.741 964.68 -187.007 964.68 -156.495L964.68 -46.003C964.68 -15.4913 939.945 9.24305 909.434 9.24305L909.434 -11.8585C928.291 -11.8585 943.578 -27.1456 943.578 -46.0031L943.572 -46.0031L943.572 -156.495L943.578 -156.495C943.578 -175.353 928.291 -190.64 909.434 -190.64C890.576 -190.64 875.289 -175.353 875.289 -156.495L875.295 -156.495L875.295 -101.261L854.188 -101.261L854.188 -156.495Z" fill="#4B72FF"/>
<path d="M501.417 565.957C501.417 535.446 476.682 510.711 446.171 510.711C415.659 510.711 390.925 535.446 390.925 565.957V676.449C390.925 706.961 415.659 731.696 446.171 731.696C476.682 731.696 501.417 706.961 501.417 676.449V655.541H480.309V676.449H480.316C480.316 695.307 465.028 710.594 446.171 710.594C427.313 710.594 412.026 695.307 412.026 676.449H412.033V565.957H412.026C412.026 547.1 427.313 531.813 446.171 531.813C465.028 531.813 480.316 547.1 480.316 565.957H480.309V587.053H501.417V565.957Z" fill="#4B72FF"/>
<path d="M715.451 260.479L715.451 243.32C715.65 233.971 723.291 226.454 732.688 226.454C742.085 226.454 749.726 233.971 749.925 243.32L749.925 312.358C749.726 321.707 742.085 329.225 732.688 329.225C723.291 329.225 715.65 321.707 715.451 312.358L715.451 295.084L694.682 295.084L694.682 311.984C694.682 332.974 711.698 349.989 732.688 349.99C753.678 349.99 770.694 332.974 770.694 311.984L770.694 243.695C770.694 222.705 753.678 205.689 732.688 205.689C711.698 205.689 694.682 222.705 694.682 243.695L694.682 260.479L715.451 260.479Z" fill="#4B72FF"/>
<path fill-rule="evenodd" clip-rule="evenodd" d="M1037.77 739.596C1122.23 739.596 1178.41 684.208 1184.94 613.758L1164.21 613.758C1151.62 675.059 1104.16 718.858 1037.77 718.858L934.43 718.858L934.43 718.871L827.156 718.871L827.156 739.596L934.43 739.596L1037.77 739.596Z" fill="#4B72FF"/>
</g>
</g>
<g filter="url(#filter0_d_1972_6318)">
<path d="M225.347 202.42C226.695 181.963 246.308 160.578 290.511 158.688C334.714 156.798 364.071 160.508 392.253 157.389C420.434 154.27 449.699 146.004 454.43 139.907C442.421 183.184 424.737 265.44 424.684 266.172C412.28 246.885 340.714 240.475 292.877 240.706C245.039 240.937 223.999 222.876 225.347 202.42Z" fill="#2346BF"/>
<g filter="url(#filter1_d_1972_6318)">
<path d="M344.889 198.385C353.372 211.654 364.432 248.708 397.087 251.062L246.619 240.217C248.959 228.586 255.553 201.987 263.209 188.636C281.359 186.855 325.225 194.393 344.889 198.385Z" fill="#5F81F8"/>
</g>
<path d="M586.455 402.55L711.888 471.243L642.413 497.274C642.413 497.274 571.572 465.722 525.364 446.619C479.155 427.516 458.31 421.184 446.664 414.681C440.982 410.441 435.523 397.91 450.267 392.735C468.696 386.265 563.801 394.759 578.948 389.293C573.426 392.76 582.191 400.753 586.455 402.55Z" fill="#6184FF"/>
<path d="M657.245 373.575C651.124 385.309 535.674 368.355 528.771 372.689C528.771 372.689 465.522 385.068 448.072 390.539C430.621 396.011 446.313 414.945 446.313 414.945C418.627 417.079 352.818 418.284 299.56 406.598C232.987 391.992 156.018 329.3 153.279 277.071C151.087 235.288 210.61 222.604 237.634 221.938C269.112 221.961 358.94 235.405 416.4 255.226C473.86 275.047 572.796 319.899 591.82 328.113C608.744 335.42 663.367 361.841 657.245 373.575Z" fill="#2346BF"/>
<g filter="url(#filter2_i_1972_6318)">
<path d="M591.819 328.113C608.744 335.42 671.158 359.113 658.661 383.984C646.164 408.855 535.482 399.088 508.598 401.186C466.677 404.457 440.851 406.621 440.851 406.621C427.46 393.213 344.501 370.14 284.781 357.037C218.208 342.431 154.056 291.891 153.278 277.071C151.086 235.288 210.61 222.604 237.633 221.938C269.111 221.961 358.94 235.405 416.4 255.226C473.86 275.047 572.796 319.899 591.819 328.113Z" fill="#547AFF"/>
</g>
<path d="M543.767 489.043C545.301 465.78 567.604 441.461 617.871 439.312C668.138 437.162 711.841 432.876 743.889 429.329C775.937 425.783 796.648 412.248 802.028 405.315C788.372 454.529 761.065 556.513 761.005 557.345C746.899 535.412 674.962 532.319 620.562 532.582C566.161 532.844 542.234 512.306 543.767 489.043Z" fill="#2F54D4"/>
</g>
<g filter="url(#filter3_dii_1972_6318)">
<path d="M139 615.5C139 648.556 181.5 676.889 181.5 676.889C181.5 676.889 224 648.556 224 615.5C224 604.228 219.522 593.418 211.552 585.448C203.582 577.478 192.772 573 181.5 573C170.228 573 159.418 577.478 151.448 585.448C143.478 593.418 139 604.228 139 615.5Z" fill="#CAE9FF"/>
<g filter="url(#filter4_di_1972_6318)">
<g clip-path="url(#clip3_1972_6318)">
<rect width="70.6571" height="70.2689" rx="35.1344" transform="matrix(-1 0 0 1 216.829 580.317)" fill="#4B72FF"/>
<path fill-rule="evenodd" clip-rule="evenodd" d="M196.363 640.807L146.172 645.853L141.891 603.272L192.082 598.226L196.363 640.807Z" fill="#FFC24E"/>
<g style="mix-blend-mode:multiply" opacity="0.42">
<path d="M141.891 603.272L153.657 602.089L157.937 644.67L146.172 645.853L141.891 603.272Z" fill="#EA7E1B"/>
</g>
<g style="mix-blend-mode:overlay">
<path fill-rule="evenodd" clip-rule="evenodd" d="M175.998 599.843L170.553 600.39L171.376 608.569L172.208 608.675L173.14 607.887L174.599 608.56L175.581 607.642L176.839 608.209L175.998 599.843Z" fill="#A6450F"/>
</g>
<g style="mix-blend-mode:overlay">
<path fill-rule="evenodd" clip-rule="evenodd" d="M149.15 602.542L146.397 602.818L147.219 610.997L147.676 611.141L148.108 610.404L148.878 611.146L149.359 610.278L149.991 610.908L149.15 602.542Z" fill="#A6450F"/>
</g>
<path fill-rule="evenodd" clip-rule="evenodd" d="M204.002 665.829L158.012 650.611L170.865 611.516L216.93 626.758L204.002 665.829Z" fill="#FEB934"/>
<g style="mix-blend-mode:multiply" opacity="0.5">
<path d="M170.94 611.54L181.744 615.115L168.84 654.111L158.037 650.536L170.94 611.54Z" fill="#EB9C54"/>
</g>
<g style="mix-blend-mode:overlay">
<path fill-rule="evenodd" clip-rule="evenodd" d="M202.15 621.867L197.198 620.229L194.722 627.713L195.422 628.111L196.521 627.811L197.549 628.981L198.772 628.555L199.599 629.576L202.15 621.867Z" fill="#A6450F"/>
</g>
<g style="mix-blend-mode:overlay">
<path fill-rule="evenodd" clip-rule="evenodd" d="M177.542 613.725L175.067 612.905L172.59 620.39L172.916 620.664L173.564 620.214L173.991 621.186L174.689 620.587L174.992 621.434L177.542 613.725Z" fill="#A6450F"/>
</g>
</g>
</g>
</g>
<g filter="url(#filter5_ii_1972_6318)">
<path d="M80.0003 281.724C80.0003 290.843 91.7248 298.66 91.7248 298.66C91.7248 298.66 103.449 290.843 103.449 281.724C103.449 278.615 102.214 275.633 100.015 273.434C97.8165 271.235 94.8343 270 91.7248 270C88.6153 270 85.6331 271.235 83.4343 273.434C81.2356 275.633 80.0003 278.615 80.0003 281.724Z" fill="#46FAE4"/>
<circle cx="91.7246" cy="281.2" r="6" fill="#0A6F7C"/>
</g>
<g filter="url(#filter6_ii_1972_6318)">
<path d="M534 132.724C534 141.843 545.724 149.66 545.724 149.66C545.724 149.66 557.449 141.843 557.449 132.724C557.449 129.615 556.213 126.633 554.015 124.434C551.816 122.235 548.834 121 545.724 121C542.615 121 539.633 122.235 537.434 124.434C535.235 126.633 534 129.615 534 132.724Z" fill="#FFBA37"/>
<circle cx="546" cy="133" r="6" fill="#A6450F"/>
</g>
<g filter="url(#filter7_dii_1972_6318)">
<path d="M397 565.318C397 597.455 438.318 625 438.318 625C438.318 625 479.636 597.455 479.636 565.318C479.636 554.36 475.283 543.85 467.534 536.102C459.786 528.353 449.276 524 438.318 524C427.36 524 416.85 528.353 409.102 536.102C401.353 543.85 397 554.36 397 565.318Z" fill="white"/>
<g filter="url(#filter8_i_1972_6318)">
<g clip-path="url(#clip4_1972_6318)">
<rect width="68.6923" height="68.3149" rx="34.1574" transform="matrix(-1 0 0 1 472.664 531.094)" fill="#FCCF5A"/>
<path d="M478.947 565.366L423.317 565.366L423.317 593.181L478.947 593.181L478.947 565.366Z" fill="#B0CBFF"/>
<path d="M478.947 593.181L423.317 593.181L423.317 599.037L478.947 599.037L478.947 593.181Z" fill="#74A3FF"/>
<path d="M446.74 572.686L429.172 572.686L429.172 599.037L446.74 599.037L446.74 572.686Z" fill="#4B72FF"/>
<path d="M473.091 572.686L452.596 572.686L452.596 588.789L473.091 588.789L473.091 572.686Z" fill="#E5F8FF"/>
<path d="M471.628 574.15L454.06 574.15L454.06 587.325L471.628 587.325L471.628 574.15Z" fill="#B0CBFF"/>
<path d="M432.833 586.594C433.272 586.594 433.565 586.886 433.565 587.325L433.565 590.253C433.565 590.693 433.272 590.985 432.833 590.985C432.394 590.985 432.101 590.693 432.101 590.253L432.101 587.325C432.101 586.886 432.394 586.594 432.833 586.594Z" fill="#90A4AE"/>
<path d="M451.133 569.757C448.707 569.757 446.741 567.791 446.741 565.366C446.741 562.94 448.707 560.974 451.133 560.974C453.558 560.974 455.524 562.94 455.524 565.366C455.524 567.791 453.558 569.757 451.133 569.757Z" fill="#4B72FF"/>
<path d="M433.565 569.757C431.139 569.757 429.173 567.791 429.173 565.366C429.173 562.94 431.139 560.974 433.565 560.974C435.99 560.974 437.957 562.94 437.957 565.366C437.957 567.791 435.99 569.757 433.565 569.757Z" fill="#4B72FF"/>
<path d="M468.699 569.757C466.274 569.757 464.308 567.791 464.308 565.365C464.308 562.94 466.274 560.974 468.699 560.974C471.125 560.974 473.091 562.94 473.091 565.365C473.091 567.791 471.125 569.757 468.699 569.757Z" fill="#4B72FF"/>
<path d="M427.709 546.334L474.555 546.334C476.166 546.334 477.483 547.652 477.483 549.262L477.483 553.654L424.781 553.654L424.781 549.262C424.781 547.652 426.098 546.334 427.709 546.334Z" fill="#4B72FF"/>
<path d="M455.524 553.654L446.741 553.654L446.741 565.366L455.524 565.366L455.524 553.654Z" fill="#74A3FF"/>
<path d="M432.101 553.654L439.421 553.654L437.957 565.366L429.173 565.366L432.101 553.654Z" fill="#74A3FF"/>
<path d="M470.163 553.654L462.844 553.654L464.308 565.366L473.091 565.366L470.163 553.654Z" fill="#74A3FF"/>
<path d="M442.348 569.757C439.923 569.757 437.956 567.791 437.956 565.366C437.956 562.94 439.923 560.974 442.348 560.974C444.774 560.974 446.74 562.94 446.74 565.366C446.74 567.791 444.774 569.757 442.348 569.757Z" fill="#1D3DAE"/>
<path d="M420.389 565.366C420.389 567.854 422.292 569.757 424.781 569.757C427.27 569.757 429.173 567.854 429.173 565.366C429.173 562.877 427.27 560.974 424.781 560.974L420.389 565.366Z" fill="#1D3DAE"/>
<path d="M459.916 569.757C457.491 569.757 455.524 567.791 455.524 565.366C455.524 562.94 457.491 560.974 459.916 560.974C462.342 560.974 464.308 562.94 464.308 565.366C464.308 567.791 462.342 569.757 459.916 569.757Z" fill="#1D3DAE"/>
<path d="M439.42 553.655L446.74 553.655L446.74 565.366L437.956 565.366L439.42 553.655Z" fill="#4B72FF"/>
<path d="M424.781 553.655L432.101 553.655L429.173 565.366L420.389 565.366L424.781 553.655Z" fill="#4B72FF"/>
<path d="M462.844 553.655L455.524 553.655L455.524 565.366L464.308 565.366L462.844 553.655Z" fill="#4B72FF"/>
<path d="M477.484 553.655L470.164 553.655L473.092 565.366L481.876 565.366L477.484 553.655Z" fill="#4B72FF"/>
</g>
</g>
</g>
<g filter="url(#filter9_dii_1972_6318)">
<path d="M90.6364 448.318C90.6364 480.455 49.3182 508 49.3182 508C49.3182 508 8 480.455 8 448.318C8 437.36 12.3532 426.85 20.1018 419.102C27.8505 411.353 38.3599 407 49.3182 407C60.2764 407 70.7859 411.353 78.5345 419.102C86.2832 426.85 90.6364 437.36 90.6364 448.318Z" fill="#FFF2C4"/>
<g filter="url(#filter10_i_1972_6318)">
<rect x="13.8936" y="413.037" width="70.6619" height="71.6713" rx="35.3309" fill="#FFBA37"/>
</g>
<mask id="mask0_1972_6318" style="mask-type:alpha" maskUnits="userSpaceOnUse" x="13" y="413" width="72" height="72">
<rect x="13.7344" y="413.211" width="71.1445" height="71.4965" rx="35.5723" fill="white"/>
</mask>
<g mask="url(#mask0_1972_6318)">
<path fill-rule="evenodd" clip-rule="evenodd" d="M28.9043 479.942L19.2681 494.928C18.4602 498.881 17.3566 502.21 15.9571 504.915C15.4339 505.566 14.3431 506.381 14.3811 503.814C14.4191 501.246 14.3436 498.544 13.4501 498.246C12.5567 497.947 11.6104 499.558 10.3902 498.918C9.57674 498.492 11.4032 496.125 15.8697 491.818L20.8751 477.259L28.9043 479.942Z" fill="#F4816D"/>
<path fill-rule="evenodd" clip-rule="evenodd" d="M55.8687 455.919C41.7985 464.628 31.3418 476.607 20.7588 493.69L13.3883 487.928C19.0446 469.236 21.3896 464.72 26.5317 457.611C31.6738 450.502 36.8742 447.755 42.6186 446.683C42.6186 446.683 54.4076 449.155 55.2553 450.99C56.103 452.824 55.8687 455.919 55.8687 455.919Z" fill="#375DE4"/>
<path fill-rule="evenodd" clip-rule="evenodd" d="M42.6216 420.455C37.2409 420.455 32.8789 424.817 32.8789 430.198V439.526C32.8789 444.521 36.6382 448.639 41.4819 449.203C41.4833 449.228 41.4847 449.254 41.4862 449.279H54.5425C56.6161 447.253 54.5644 434.285 53.0097 428.608C52.2508 423.983 48.2355 420.455 43.396 420.455H42.6216Z" fill="#151617"/>
<path fill-rule="evenodd" clip-rule="evenodd" d="M43.205 442.175C46.1205 443.933 48.9852 444.782 50.3299 444.435C53.7017 443.566 54.0117 431.231 51.4028 426.368C48.7939 421.505 35.3818 419.386 34.7057 429.021C34.4575 432.559 36.044 435.695 38.3182 438.203L36.5559 454.758L45.035 455.122L43.205 442.175Z" fill="#F4816D"/>
<path fill-rule="evenodd" clip-rule="evenodd" d="M33.276 429.077C33.5897 428.767 33.8933 428.467 34.1945 428.198L34.18 427.848C34.18 427.848 37.5713 420.906 42.7848 420.906C47.9937 420.906 49.6411 423.327 51.0414 425.386L51.0451 425.391C50.3127 427.904 48.1052 428.921 45.6087 430.071C44.5341 430.566 43.4059 431.086 42.3187 431.76C41.8928 431.414 41.3497 431.206 40.7581 431.206C39.3906 431.206 38.2819 432.315 38.2819 433.683C38.2819 435.05 39.3906 436.159 40.7581 436.159C40.7958 436.159 40.8333 436.158 40.8706 436.156C41.3685 441.504 41.169 447.611 39.6853 449.061H26.629C26.2542 442.549 27.9387 440.691 29.6601 438.793C31.2798 437.007 32.932 435.185 32.932 429.416C33.0482 429.303 33.1626 429.189 33.2757 429.078L33.276 429.077Z" fill="#151617"/>
<path fill-rule="evenodd" clip-rule="evenodd" d="M23.5594 510.772C23.5594 510.772 33.4811 510.772 42.0437 510.772C57.3427 510.772 53.4699 479.628 43.0879 448.369C43.0879 448.369 39.5073 448.369 37.7169 448.369C36.3471 448.369 35.7655 449.362 35.4924 449.889C28.3394 463.687 20.6237 491.042 23.5594 510.772Z" fill="#4B72FF"/>
</g>
<path fill-rule="evenodd" clip-rule="evenodd" d="M69.5504 444.328L85.3814 436.153C88.0545 433.131 90.6726 430.797 93.2356 429.152C94.0139 428.849 95.366 428.687 94.0514 430.893C92.7369 433.099 91.4534 435.478 92.0785 436.182C92.7036 436.887 94.3278 435.964 95.0657 437.127C95.5577 437.903 92.7936 439.042 86.7735 440.544L75.1685 450.661L69.5504 444.328Z" fill="#F4816D"/>
<path fill-rule="evenodd" clip-rule="evenodd" d="M40.6937 448.328C49.0484 448.328 65.3408 446.157 82.9781 436.62L86.4703 445.298C72.284 458.69 57.3497 469.397 42.9541 467.528C40.5454 467.215 44.4212 459.492 40.6937 448.328Z" fill="#4E73F9"/>
</g>
<g filter="url(#filter11_ii_1972_6318)">
<path d="M329 457.724C329 466.843 340.724 474.66 340.724 474.66C340.724 474.66 352.449 466.843 352.449 457.724C352.449 454.615 351.213 451.633 349.015 449.434C346.816 447.235 343.834 446 340.724 446C337.615 446 334.633 447.235 332.434 449.434C330.235 451.633 329 454.615 329 457.724Z" fill="#4B72FF"/>
<circle cx="340.724" cy="457.2" r="6" fill="#172F63"/>
</g>
<g filter="url(#filter12_ii_1972_6318)">
<path d="M490 665.724C490 674.843 501.724 682.66 501.724 682.66C501.724 682.66 513.449 674.843 513.449 665.724C513.449 662.615 512.213 659.633 510.015 657.434C507.816 655.235 504.834 654 501.724 654C498.615 654 495.633 655.235 493.434 657.434C491.235 659.633 490 662.615 490 665.724Z" fill="#CAE9FF"/>
<circle cx="501.724" cy="665.2" r="6" fill="#172F63"/>
</g>
</g>
<defs>
<filter id="filter0_d_1972_6318" x="150.219" y="139.907" width="694.809" height="494.438" filterUnits="userSpaceOnUse" color-interpolation-filters="sRGB">
<feFlood flood-opacity="0" result="BackgroundImageFix"/>
<feColorMatrix in="SourceAlpha" type="matrix" values="0 0 0 0 0 0 0 0 0 0 0 0 0 0 0 0 0 0 127 0" result="hardAlpha"/>
<feOffset dx="20" dy="54"/>
<feGaussianBlur stdDeviation="11.5"/>
<feComposite in2="hardAlpha" operator="out"/>
<feColorMatrix type="matrix" values="0 0 0 0 0 0 0 0 0 0 0 0 0 0 0 0 0 0 0.01 0"/>
<feBlend mode="normal" in2="BackgroundImageFix" result="effect1_dropShadow_1972_6318"/>
<feBlend mode="normal" in="SourceGraphic" in2="effect1_dropShadow_1972_6318" result="shape"/>
</filter>
<filter id="filter1_d_1972_6318" x="239.619" y="185.368" width="164.468" height="76.6932" filterUnits="userSpaceOnUse" color-interpolation-filters="sRGB">
<feFlood flood-opacity="0" result="BackgroundImageFix"/>
<feColorMatrix in="SourceAlpha" type="matrix" values="0 0 0 0 0 0 0 0 0 0 0 0 0 0 0 0 0 0 127 0" result="hardAlpha"/>
<feOffset dy="4"/>
<feGaussianBlur stdDeviation="3.5"/>
<feComposite in2="hardAlpha" operator="out"/>
<feColorMatrix type="matrix" values="0 0 0 0 0 0 0 0 0 0 0 0 0 0 0 0 0 0 0.25 0"/>
<feBlend mode="normal" in2="BackgroundImageFix" result="effect1_dropShadow_1972_6318"/>
<feBlend mode="normal" in="SourceGraphic" in2="effect1_dropShadow_1972_6318" result="shape"/>
</filter>
<filter id="filter2_i_1972_6318" x="153.219" y="221.938" width="507.083" height="184.683" filterUnits="userSpaceOnUse" color-interpolation-filters="sRGB">
<feFlood flood-opacity="0" result="BackgroundImageFix"/>
<feBlend mode="normal" in="SourceGraphic" in2="BackgroundImageFix" result="shape"/>
<feColorMatrix in="SourceAlpha" type="matrix" values="0 0 0 0 0 0 0 0 0 0 0 0 0 0 0 0 0 0 127 0" result="hardAlpha"/>
<feOffset/>
<feGaussianBlur stdDeviation="10"/>
<feComposite in2="hardAlpha" operator="arithmetic" k2="-1" k3="1"/>
<feColorMatrix type="matrix" values="0 0 0 0 0.0242535 0 0 0 0 0.0702276 0 0 0 0 0.229167 0 0 0 0.15 0"/>
<feBlend mode="normal" in2="shape" result="effect1_innerShadow_1972_6318"/>
</filter>
<filter id="filter3_dii_1972_6318" x="118.438" y="533.345" width="130.53" height="155.966" filterUnits="userSpaceOnUse" color-interpolation-filters="sRGB">
<feFlood flood-opacity="0" result="BackgroundImageFix"/>
<feColorMatrix in="SourceAlpha" type="matrix" values="0 0 0 0 0 0 0 0 0 0 0 0 0 0 0 0 0 0 127 0" result="hardAlpha"/>
<feOffset dx="2.20307" dy="-16.8902"/>
<feGaussianBlur stdDeviation="11.3825"/>
<feComposite in2="hardAlpha" operator="out"/>
<feColorMatrix type="matrix" values="0 0 0 0 0.0110833 0 0 0 0 0.0707114 0 0 0 0 0.233333 0 0 0 0.26 0"/>
<feBlend mode="normal" in2="BackgroundImageFix" result="effect1_dropShadow_1972_6318"/>
<feBlend mode="normal" in="SourceGraphic" in2="effect1_dropShadow_1972_6318" result="shape"/>
<feColorMatrix in="SourceAlpha" type="matrix" values="0 0 0 0 0 0 0 0 0 0 0 0 0 0 0 0 0 0 127 0" result="hardAlpha"/>
<feOffset dx="12.4215" dy="-9.93718"/>
<feGaussianBlur stdDeviation="7.92077"/>
<feComposite in2="hardAlpha" operator="arithmetic" k2="-1" k3="1"/>
<feColorMatrix type="matrix" values="0 0 0 0 0 0 0 0 0 0 0 0 0 0 0 0 0 0 0.08 0"/>
<feBlend mode="normal" in2="shape" result="effect2_innerShadow_1972_6318"/>
<feColorMatrix in="SourceAlpha" type="matrix" values="0 0 0 0 0 0 0 0 0 0 0 0 0 0 0 0 0 0 127 0" result="hardAlpha"/>
<feOffset dx="-10.5583" dy="12.4215"/>
<feGaussianBlur stdDeviation="10.9382"/>
<feComposite in2="hardAlpha" operator="arithmetic" k2="-1" k3="1"/>
<feColorMatrix type="matrix" values="0 0 0 0 0.954167 0 0 0 0 0.954167 0 0 0 0 0.954167 0 0 0 0.19 0"/>
<feBlend mode="normal" in2="effect2_innerShadow_1972_6318" result="effect3_innerShadow_1972_6318"/>
</filter>
<filter id="filter4_di_1972_6318" x="134.098" y="571.64" width="94.8034" height="94.4149" filterUnits="userSpaceOnUse" color-interpolation-filters="sRGB">
<feFlood flood-opacity="0" result="BackgroundImageFix"/>
<feColorMatrix in="SourceAlpha" type="matrix" values="0 0 0 0 0 0 0 0 0 0 0 0 0 0 0 0 0 0 127 0" result="hardAlpha"/>
<feOffset dy="3.39555"/>
<feGaussianBlur stdDeviation="6.03653"/>
<feComposite in2="hardAlpha" operator="out"/>
<feColorMatrix type="matrix" values="0 0 0 0 0 0 0 0 0 0 0 0 0 0 0 0 0 0 0.05 0"/>
<feBlend mode="normal" in2="BackgroundImageFix" result="effect1_dropShadow_1972_6318"/>
<feBlend mode="normal" in="SourceGraphic" in2="effect1_dropShadow_1972_6318" result="shape"/>
<feColorMatrix in="SourceAlpha" type="matrix" values="0 0 0 0 0 0 0 0 0 0 0 0 0 0 0 0 0 0 127 0" result="hardAlpha"/>
<feOffset/>
<feGaussianBlur stdDeviation="3.30461"/>
<feComposite in2="hardAlpha" operator="arithmetic" k2="-1" k3="1"/>
<feColorMatrix type="matrix" values="0 0 0 0 0 0 0 0 0 0 0 0 0 0 0 0 0 0 0.17 0"/>
<feBlend mode="normal" in2="shape" result="effect2_innerShadow_1972_6318"/>
</filter>
<filter id="filter5_ii_1972_6318" x="77.0878" y="267.259" width="29.7881" height="34.8279" filterUnits="userSpaceOnUse" color-interpolation-filters="sRGB">
<feFlood flood-opacity="0" result="BackgroundImageFix"/>
<feBlend mode="normal" in="SourceGraphic" in2="BackgroundImageFix" result="shape"/>
<feColorMatrix in="SourceAlpha" type="matrix" values="0 0 0 0 0 0 0 0 0 0 0 0 0 0 0 0 0 0 127 0" result="hardAlpha"/>
<feOffset dx="3.4267" dy="-2.74136"/>
<feGaussianBlur stdDeviation="2.1851"/>
<feComposite in2="hardAlpha" operator="arithmetic" k2="-1" k3="1"/>
<feColorMatrix type="matrix" values="0 0 0 0 0 0 0 0 0 0 0 0 0 0 0 0 0 0 0.08 0"/>
<feBlend mode="normal" in2="shape" result="effect1_innerShadow_1972_6318"/>
<feColorMatrix in="SourceAlpha" type="matrix" values="0 0 0 0 0 0 0 0 0 0 0 0 0 0 0 0 0 0 127 0" result="hardAlpha"/>
<feOffset dx="-2.9127" dy="3.4267"/>
<feGaussianBlur stdDeviation="3.01751"/>
<feComposite in2="hardAlpha" operator="arithmetic" k2="-1" k3="1"/>
<feColorMatrix type="matrix" values="0 0 0 0 0.954167 0 0 0 0 0.954167 0 0 0 0 0.954167 0 0 0 0.19 0"/>
<feBlend mode="normal" in2="effect1_innerShadow_1972_6318" result="effect2_innerShadow_1972_6318"/>
</filter>
<filter id="filter6_ii_1972_6318" x="531.087" y="118.259" width="29.7881" height="34.8279" filterUnits="userSpaceOnUse" color-interpolation-filters="sRGB">
<feFlood flood-opacity="0" result="BackgroundImageFix"/>
<feBlend mode="normal" in="SourceGraphic" in2="BackgroundImageFix" result="shape"/>
<feColorMatrix in="SourceAlpha" type="matrix" values="0 0 0 0 0 0 0 0 0 0 0 0 0 0 0 0 0 0 127 0" result="hardAlpha"/>
<feOffset dx="3.4267" dy="-2.74136"/>
<feGaussianBlur stdDeviation="2.1851"/>
<feComposite in2="hardAlpha" operator="arithmetic" k2="-1" k3="1"/>
<feColorMatrix type="matrix" values="0 0 0 0 0 0 0 0 0 0 0 0 0 0 0 0 0 0 0.08 0"/>
<feBlend mode="normal" in2="shape" result="effect1_innerShadow_1972_6318"/>
<feColorMatrix in="SourceAlpha" type="matrix" values="0 0 0 0 0 0 0 0 0 0 0 0 0 0 0 0 0 0 127 0" result="hardAlpha"/>
<feOffset dx="-2.9127" dy="3.4267"/>
<feGaussianBlur stdDeviation="3.01751"/>
<feComposite in2="hardAlpha" operator="arithmetic" k2="-1" k3="1"/>
<feColorMatrix type="matrix" values="0 0 0 0 0.954167 0 0 0 0 0.954167 0 0 0 0 0.954167 0 0 0 0.19 0"/>
<feBlend mode="normal" in2="effect1_innerShadow_1972_6318" result="effect2_innerShadow_1972_6318"/>
</filter>
<filter id="filter7_dii_1972_6318" x="377.024" y="485.474" width="126.87" height="151.602" filterUnits="userSpaceOnUse" color-interpolation-filters="sRGB">
<feFlood flood-opacity="0" result="BackgroundImageFix"/>
<feColorMatrix in="SourceAlpha" type="matrix" values="0 0 0 0 0 0 0 0 0 0 0 0 0 0 0 0 0 0 127 0" result="hardAlpha"/>
<feOffset dx="2.14032" dy="-16.4091"/>
<feGaussianBlur stdDeviation="11.0583"/>
<feComposite in2="hardAlpha" operator="out"/>
<feColorMatrix type="matrix" values="0 0 0 0 0.0110833 0 0 0 0 0.0707114 0 0 0 0 0.233333 0 0 0 0.26 0"/>
<feBlend mode="normal" in2="BackgroundImageFix" result="effect1_dropShadow_1972_6318"/>
<feBlend mode="normal" in="SourceGraphic" in2="effect1_dropShadow_1972_6318" result="shape"/>
<feColorMatrix in="SourceAlpha" type="matrix" values="0 0 0 0 0 0 0 0 0 0 0 0 0 0 0 0 0 0 127 0" result="hardAlpha"/>
<feOffset dx="12.0761" dy="-9.66086"/>
<feGaussianBlur stdDeviation="7.70051"/>
<feComposite in2="hardAlpha" operator="arithmetic" k2="-1" k3="1"/>
<feColorMatrix type="matrix" values="0 0 0 0 0 0 0 0 0 0 0 0 0 0 0 0 0 0 0.08 0"/>
<feBlend mode="normal" in2="shape" result="effect2_innerShadow_1972_6318"/>
<feColorMatrix in="SourceAlpha" type="matrix" values="0 0 0 0 0 0 0 0 0 0 0 0 0 0 0 0 0 0 127 0" result="hardAlpha"/>
<feOffset dx="-10.2647" dy="12.0761"/>
<feGaussianBlur stdDeviation="10.634"/>
<feComposite in2="hardAlpha" operator="arithmetic" k2="-1" k3="1"/>
<feColorMatrix type="matrix" values="0 0 0 0 0.954167 0 0 0 0 0.954167 0 0 0 0 0.954167 0 0 0 0.19 0"/>
<feBlend mode="normal" in2="effect2_innerShadow_1972_6318" result="effect3_innerShadow_1972_6318"/>
</filter>
<filter id="filter8_i_1972_6318" x="403.971" y="531.094" width="68.6924" height="68.3148" filterUnits="userSpaceOnUse" color-interpolation-filters="sRGB">
<feFlood flood-opacity="0" result="BackgroundImageFix"/>
<feBlend mode="normal" in="SourceGraphic" in2="BackgroundImageFix" result="shape"/>
<feColorMatrix in="SourceAlpha" type="matrix" values="0 0 0 0 0 0 0 0 0 0 0 0 0 0 0 0 0 0 127 0" result="hardAlpha"/>
<feOffset/>
<feGaussianBlur stdDeviation="2.14032"/>
<feComposite in2="hardAlpha" operator="arithmetic" k2="-1" k3="1"/>
<feColorMatrix type="matrix" values="0 0 0 0 0 0 0 0 0 0 0 0 0 0 0 0 0 0 0.19 0"/>
<feBlend mode="normal" in2="shape" result="effect1_innerShadow_1972_6318"/>
</filter>
<filter id="filter9_dii_1972_6318" x="-8.93995" y="374.33" width="127.883" height="143.645" filterUnits="userSpaceOnUse" color-interpolation-filters="sRGB">
<feFlood flood-opacity="0" result="BackgroundImageFix"/>
<feColorMatrix in="SourceAlpha" type="matrix" values="0 0 0 0 0 0 0 0 0 0 0 0 0 0 0 0 0 0 127 0" result="hardAlpha"/>
<feOffset dx="1.815" dy="-13.915"/>
<feGaussianBlur stdDeviation="9.37747"/>
<feComposite in2="hardAlpha" operator="out"/>
<feColorMatrix type="matrix" values="0 0 0 0 0.0110833 0 0 0 0 0.0707114 0 0 0 0 0.233333 0 0 0 0.26 0"/>
<feBlend mode="normal" in2="BackgroundImageFix" result="effect1_dropShadow_1972_6318"/>
<feBlend mode="normal" in="SourceGraphic" in2="effect1_dropShadow_1972_6318" result="shape"/>
<feColorMatrix in="SourceAlpha" type="matrix" values="0 0 0 0 0 0 0 0 0 0 0 0 0 0 0 0 0 0 127 0" result="hardAlpha"/>
<feOffset dx="9.97549" dy="-7.98039"/>
<feGaussianBlur stdDeviation="5.45232"/>
<feComposite in2="hardAlpha" operator="arithmetic" k2="-1" k3="1"/>
<feColorMatrix type="matrix" values="0 0 0 0 0 0 0 0 0 0 0 0 0 0 0 0 0 0 0.08 0"/>
<feBlend mode="normal" in2="shape" result="effect2_innerShadow_1972_6318"/>
<feColorMatrix in="SourceAlpha" type="matrix" values="0 0 0 0 0 0 0 0 0 0 0 0 0 0 0 0 0 0 127 0" result="hardAlpha"/>
<feOffset dx="-8.47917" dy="9.97549"/>
<feGaussianBlur stdDeviation="6.66395"/>
<feComposite in2="hardAlpha" operator="arithmetic" k2="-1" k3="1"/>
<feColorMatrix type="matrix" values="0 0 0 0 0.954167 0 0 0 0 0.954167 0 0 0 0 0.954167 0 0 0 0.19 0"/>
<feBlend mode="normal" in2="effect2_innerShadow_1972_6318" result="effect3_innerShadow_1972_6318"/>
</filter>
<filter id="filter10_i_1972_6318" x="13.8936" y="413.037" width="70.6621" height="71.6714" filterUnits="userSpaceOnUse" color-interpolation-filters="sRGB">
<feFlood flood-opacity="0" result="BackgroundImageFix"/>
<feBlend mode="normal" in="SourceGraphic" in2="BackgroundImageFix" result="shape"/>
<feColorMatrix in="SourceAlpha" type="matrix" values="0 0 0 0 0 0 0 0 0 0 0 0 0 0 0 0 0 0 127 0" result="hardAlpha"/>
<feOffset/>
<feGaussianBlur stdDeviation="1.21163"/>
<feComposite in2="hardAlpha" operator="arithmetic" k2="-1" k3="1"/>
<feColorMatrix type="matrix" values="0 0 0 0 0 0 0 0 0 0 0 0 0 0 0 0 0 0 0.31 0"/>
<feBlend mode="normal" in2="shape" result="effect1_innerShadow_1972_6318"/>
</filter>
<filter id="filter11_ii_1972_6318" x="326.087" y="443.259" width="29.7881" height="34.8279" filterUnits="userSpaceOnUse" color-interpolation-filters="sRGB">
<feFlood flood-opacity="0" result="BackgroundImageFix"/>
<feBlend mode="normal" in="SourceGraphic" in2="BackgroundImageFix" result="shape"/>
<feColorMatrix in="SourceAlpha" type="matrix" values="0 0 0 0 0 0 0 0 0 0 0 0 0 0 0 0 0 0 127 0" result="hardAlpha"/>
<feOffset dx="3.4267" dy="-2.74136"/>
<feGaussianBlur stdDeviation="2.1851"/>
<feComposite in2="hardAlpha" operator="arithmetic" k2="-1" k3="1"/>
<feColorMatrix type="matrix" values="0 0 0 0 0 0 0 0 0 0 0 0 0 0 0 0 0 0 0.08 0"/>
<feBlend mode="normal" in2="shape" result="effect1_innerShadow_1972_6318"/>
<feColorMatrix in="SourceAlpha" type="matrix" values="0 0 0 0 0 0 0 0 0 0 0 0 0 0 0 0 0 0 127 0" result="hardAlpha"/>
<feOffset dx="-2.9127" dy="3.4267"/>
<feGaussianBlur stdDeviation="3.01751"/>
<feComposite in2="hardAlpha" operator="arithmetic" k2="-1" k3="1"/>
<feColorMatrix type="matrix" values="0 0 0 0 0.954167 0 0 0 0 0.954167 0 0 0 0 0.954167 0 0 0 0.19 0"/>
<feBlend mode="normal" in2="effect1_innerShadow_1972_6318" result="effect2_innerShadow_1972_6318"/>
</filter>
<filter id="filter12_ii_1972_6318" x="487.087" y="651.259" width="29.7881" height="34.8279" filterUnits="userSpaceOnUse" color-interpolation-filters="sRGB">
<feFlood flood-opacity="0" result="BackgroundImageFix"/>
<feBlend mode="normal" in="SourceGraphic" in2="BackgroundImageFix" result="shape"/>
<feColorMatrix in="SourceAlpha" type="matrix" values="0 0 0 0 0 0 0 0 0 0 0 0 0 0 0 0 0 0 127 0" result="hardAlpha"/>
<feOffset dx="3.4267" dy="-2.74136"/>
<feGaussianBlur stdDeviation="2.1851"/>
<feComposite in2="hardAlpha" operator="arithmetic" k2="-1" k3="1"/>
<feColorMatrix type="matrix" values="0 0 0 0 0 0 0 0 0 0 0 0 0 0 0 0 0 0 0.08 0"/>
<feBlend mode="normal" in2="shape" result="effect1_innerShadow_1972_6318"/>
<feColorMatrix in="SourceAlpha" type="matrix" values="0 0 0 0 0 0 0 0 0 0 0 0 0 0 0 0 0 0 127 0" result="hardAlpha"/>
<feOffset dx="-2.9127" dy="3.4267"/>
<feGaussianBlur stdDeviation="3.01751"/>
<feComposite in2="hardAlpha" operator="arithmetic" k2="-1" k3="1"/>
<feColorMatrix type="matrix" values="0 0 0 0 0.954167 0 0 0 0 0.954167 0 0 0 0 0.954167 0 0 0 0.19 0"/>
<feBlend mode="normal" in2="effect1_innerShadow_1972_6318" result="effect2_innerShadow_1972_6318"/>
</filter>
<clipPath id="clip0_1972_6318">
<rect width="888" height="757" fill="white"/>
</clipPath>
<clipPath id="clip1_1972_6318">
<rect width="851" height="891" fill="white" transform="translate(899 -97) rotate(90)"/>
</clipPath>
<clipPath id="clip2_1972_6318">
<rect width="1293.63" height="1124.86" fill="white" transform="matrix(4.37114e-08 -1 -1 -4.37114e-08 1199.42 764.981)"/>
</clipPath>
<clipPath id="clip3_1972_6318">
<rect width="70.6571" height="70.2689" rx="35.1344" transform="matrix(-1 0 0 1 216.829 580.317)" fill="white"/>
</clipPath>
<clipPath id="clip4_1972_6318">
<rect width="68.6923" height="68.3149" rx="34.1574" transform="matrix(-1 0 0 1 472.664 531.094)" fill="white"/>
</clipPath>
</defs>
</svg>
