<svg xmlns="http://www.w3.org/2000/svg" xmlns:xlink="http://www.w3.org/1999/xlink" viewBox="0 0 395.19 542.85"><defs><style>.cls-1{fill:#fff;}.cls-2{fill:none;}.cls-3{clip-path:url(#clip-path);}.cls-4{clip-path:url(#clip-path-2);}.cls-5{opacity:0.08;}.cls-6{fill:#2f54d4;}.cls-7{clip-path:url(#clip-path-3);}.cls-8{clip-path:url(#clip-path-4);}.cls-9{opacity:0.1;}.cls-10,.cls-23,.cls-26,.cls-27,.cls-39,.cls-40,.cls-41,.cls-42,.cls-43{fill-rule:evenodd;}.cls-10{fill:url(#linear-gradient);}.cls-11{fill:#2346bf;}.cls-12{fill:#5f81f8;}.cls-13{fill:#6184ff;}.cls-14{fill:#547aff;}.cls-15{fill:#46fae4;}.cls-16{fill:#0a6f7c;}.cls-17{fill:#ffba37;}.cls-18,.cls-26{fill:#a6450f;}.cls-19,.cls-42{fill:#4b72ff;}.cls-20{fill:#172f63;}.cls-21{fill:#cae9ff;}.cls-22{clip-path:url(#clip-path-5);}.cls-23{fill:#ffc24e;}.cls-24{opacity:0.42;}.cls-25{fill:#ea7e1b;}.cls-27{fill:#feb934;}.cls-28{opacity:0.5;}.cls-29{fill:#eb9c54;}.cls-30{clip-path:url(#clip-path-6);}.cls-31{fill:#fccf5a;}.cls-32{fill:#b0cbff;}.cls-33{fill:#74a3ff;}.cls-34{fill:#e5f8ff;}.cls-35{fill:#90a4ae;}.cls-36{fill:#1d3dae;}.cls-37{fill:#fff2c4;}.cls-38{mask:url(#mask);}.cls-39{fill:#f4816d;}.cls-40{fill:#375de4;}.cls-41{fill:#151617;}.cls-43{fill:#4e73f9;}</style><clipPath id="clip-path"><rect id="SVGID" class="cls-2" x="-749.94" y="-0.15" width="620" height="757"/></clipPath><clipPath id="clip-path-2"><rect id="SVGID-2" data-name="SVGID" class="cls-2" x="-741.94" y="-97.15" width="628" height="851"/></clipPath><clipPath id="clip-path-3"><rect id="SVGID-3" data-name="SVGID" class="cls-2" y="-0.15" width="397" height="543"/></clipPath><clipPath id="clip-path-4"><rect id="SVGID-4" data-name="SVGID" class="cls-2" x="-14" y="-68.15" width="456.79" height="619"/></clipPath><linearGradient id="linear-gradient" x1="362.11" y1="-9486.22" x2="371.11" y2="-9108.22" gradientTransform="matrix(1, 0, 0, -1, 0, -9254.77)" gradientUnits="userSpaceOnUse"><stop offset="0.14" stop-color="#4b72ff"/><stop offset="1" stop-color="#4b72ff" stop-opacity="0"/></linearGradient><clipPath id="clip-path-5"><path id="SVGID-5" data-name="SVGID" class="cls-2" d="M195.34,174.54h-.25a22.5,22.5,0,0,0-22.5,22.5h0a22.49,22.49,0,0,0,22.5,22.49h.25A22.5,22.5,0,0,0,217.84,197h0A22.5,22.5,0,0,0,195.34,174.54Z"/></clipPath><clipPath id="clip-path-6"><path id="SVGID-6" data-name="SVGID" class="cls-2" d="M334.58,135.4h-.24a21.88,21.88,0,0,0-21.88,21.87h0a21.88,21.88,0,0,0,21.88,21.87h.24a21.87,21.87,0,0,0,21.87-21.87h0A21.87,21.87,0,0,0,334.58,135.4Z"/></clipPath><mask id="mask" x="25.41" y="82.83" width="47.82" height="62.47" maskUnits="userSpaceOnUse"><g id="mask0_1862_5596" data-name="mask0 1862 5596"><path class="cls-1" d="M50.45,82.83h0a22.78,22.78,0,0,1,22.78,22.78v.22a22.78,22.78,0,0,1-22.78,22.78h0a22.78,22.78,0,0,1-22.78-22.78v-.22A22.78,22.78,0,0,1,50.45,82.83Z"/></g></mask></defs><title>illustration</title><g id="houses"><g class="cls-3"><path class="cls-6" d="M-206.17,488.9c1.54-23.27,23.84-47.58,74.11-49.73s94-6.44,126-10,52.76-17.08,58.14-24c-13.65,49.21-41,151.2-41,152-14.11-21.93-86-25-140.44-24.76S-207.7,512.16-206.17,488.9Z"/></g><g class="cls-7"><g class="cls-8"><g class="cls-9"><path class="cls-10" d="M830-278.36a91.53,91.53,0,0,0-91.53-91.53h-7.28v15.09h7.28A76.44,76.44,0,0,1,815-278.36V-199H830Zm-50.53,623.7v67.3h14.57v-67.3Zm-62.85-615.1v138h14.57v-138ZM319.58-82.68H400v14.56H319.58ZM114,19.28h95.47V33.85H114ZM461.68-373.56h-138v-14.56h138Zm0,939.68h-138V551.56h138Zm75.11-719.88V-291.08a66.7,66.7,0,0,0-66.7-66.7,66.7,66.7,0,0,0-66.7,66.7v7.28h15.09v-7.28a51.61,51.61,0,0,1,51.61-51.61,51.61,51.61,0,0,1,51.62,51.61v137.32ZM318,120H461V102.47H318a60,60,0,1,1,0-120h8.46V-35H318a77.52,77.52,0,1,0,0,155Zm-70.5,35.14V252h-15V155.14a88.2,88.2,0,1,0-176.39,0v7.1H41v-7.1a103.24,103.24,0,0,1,206.48,0ZM151.85,311.7a103.23,103.23,0,0,0,144,24.21l5.79-4.12-8.73-12.25-5.78,4.12a88.22,88.22,0,0,1-138.42-58.92l-14.55,4.33A102.75,102.75,0,0,0,151.85,311.7ZM713,222.12a91.54,91.54,0,0,1-91.54,91.53H614.2V298.56h7.28a76.44,76.44,0,0,0,76.45-76.44V142.79H713Zm-792.56-592A91.53,91.53,0,0,1,12-278.36V-199H-3.09v-79.33A76.44,76.44,0,0,0-79.54-354.8h-7.28v-15.09ZM100.87,543.5A91.53,91.53,0,0,0,192.4,452V364.31H177.32V452a76.44,76.44,0,0,1-76.45,76.44H93.59V543.5Zm92.94-656.6a91.53,91.53,0,0,1-91.53,91.53H87A27.7,27.7,0,0,1,62-5.91a12.49,12.49,0,1,0,0,25h27.7V34.28H62A27.7,27.7,0,0,1,59.15-21v-.15H62A12.49,12.49,0,0,0,74.5-33.61c0-6.9-5-12.22-11.86-12.22l-.8-.14C41.18-47,26.23-65.11,26.23-85.7V-163H41.46V-85.7c0,12.62,8.51,23.06,20.77,24.39A27.24,27.24,0,0,1,89.55-36.65h12.73a76.44,76.44,0,0,0,76.44-76.45v-87.65h15.09ZM371.28,226.18a91.53,91.53,0,0,0,91.53,91.54h7.28V302.63h-7.28a76.45,76.45,0,0,1-76.45-76.45l0-7.64V207.28A59.43,59.43,0,0,0,327,147.85h-7.37v15H327a44.39,44.39,0,0,1,44.38,44.39V217.6ZM7,379.21a91.53,91.53,0,0,0,91.53-91.53l0-8.59V268.77a44.38,44.38,0,0,1,44.39-44.38h7.36v-15h-7.36a59.44,59.44,0,0,0-59.44,59.43V280l0,7.65A76.45,76.45,0,0,1,7,364.13H-.33v15.08Zm118.87-56a91.54,91.54,0,0,1-91.54,91.53V399.68a76.45,76.45,0,0,0,76.45-76.45Zm423.57-330A59.44,59.44,0,0,0,490,52.66v68.47H505V52.66A44.38,44.38,0,0,1,549.39,8.27h7.36v-15ZM230.1-153a59.43,59.43,0,0,1,59.43-59.43h46.3v15h-46.3A44.38,44.38,0,0,0,245.15-153v43.51H230.1Zm187.26-34.85a59.43,59.43,0,0,0,59.43-59.43v-60.15h-15v60.15a44.39,44.39,0,0,1-44.39,44.39H402.2v15ZM327.11,268.72V180.24h15.05v88.48a59.34,59.34,0,0,1-23.12,47l-8.88-12.15A44.3,44.3,0,0,0,327.11,268.72ZM674.05,491.64a70,70,0,1,0-70-70H589.48a84.57,84.57,0,1,1,84.57,84.56ZM86-338.27a70,70,0,0,1,95.62,25.62l12.62-7.28a84.57,84.57,0,0,0-115.52-31A84.57,84.57,0,0,0,47.79-235.37a84.55,84.55,0,0,0,115.51,31L156-217A70,70,0,0,1,60.4-242.65,70,70,0,0,1,86-338.27ZM201.58,0a84.56,84.56,0,0,1,84.57-84.56h1.61V-70h-1.61a70,70,0,0,0-70,70ZM795.91-56.58V-41.5H708.26A32.64,32.64,0,0,0,675.62-8.86a32.65,32.65,0,0,0,32.65,32.65A32.65,32.65,0,0,0,740.91-8.86v-7.28H756v7.28a47.72,47.72,0,0,1-47.72,47.73A47.73,47.73,0,0,1,660.54-8.86a47.73,47.73,0,0,1,47.73-47.72ZM783.67,99.68v15.08H633.86A47.71,47.71,0,0,1,586.14,67c0-13.31,5.68-25.91,14.22-35.21S620.77,16,633.7,15.72l7.45-.17V30.6l-7.12.16C617.28,31.14,601.22,48,601.22,67a32.64,32.64,0,0,0,32.64,32.64ZM286.15,147.93H271.06V258.72a32.64,32.64,0,0,1-32.64,32.65c-19,0-35.9-16.07-36.28-32.81L202,214h-15l.17,44.9c.3,12.93,6.83,24.82,16.11,33.34s21.9,14.22,35.21,14.22a47.73,47.73,0,0,0,47.73-47.73Zm387.9,233.52a40.19,40.19,0,1,0,40.18,40.19A40.19,40.19,0,0,0,674.05,381.45Zm0,15.35a24.84,24.84,0,1,0,24.83,24.84A24.84,24.84,0,0,0,674.05,396.8ZM227.43-327.15a40.18,40.18,0,0,1,40.18-40.19V-352a24.84,24.84,0,0,0-24.83,24.84,24.83,24.83,0,0,0,24.83,24.83V-287A40.18,40.18,0,0,1,227.43-327.15ZM104.21-155.95A40.19,40.19,0,0,0,64-115.76a40.18,40.18,0,0,0,40.18,40.18,40.18,40.18,0,0,0,40.19-40.18A40.19,40.19,0,0,0,104.21-155.95Zm0,15.35a24.84,24.84,0,0,0-24.83,24.84,24.84,24.84,0,0,0,24.83,24.84,24.84,24.84,0,0,0,24.84-24.84A24.84,24.84,0,0,0,104.21-140.6Zm529.65-68.85a40.18,40.18,0,0,0-40.18-40.18,24.84,24.84,0,0,1-24.84-24.84,24.84,24.84,0,0,1,24.84-24.84v-15.35a40.19,40.19,0,0,0-40.19,40.19,40.18,40.18,0,0,0,40.19,40.18h0a24.83,24.83,0,0,1,24.83,24.83,24.84,24.84,0,0,1-24.83,24.84v15.35A40.18,40.18,0,0,0,633.86-209.45ZM28.3,503.31a24.84,24.84,0,0,0,24.83,24.84h19.1V543.5H53.13a40.19,40.19,0,0,1,0-80.37v15.35A24.84,24.84,0,0,0,28.3,503.31Zm365-667.21h77.35v15.23H393.26c-12.61,0-23.06,8.5-24.39,20.77a27.29,27.29,0,0,1-27.69,27.48,27.7,27.7,0,0,1-27.7-27.7A12.49,12.49,0,0,0,301-140.61a12.49,12.49,0,0,0-12.49,12.49v27.7H273.29v-27.7a27.7,27.7,0,0,1,27.7-27.7A27.7,27.7,0,0,1,328.54-131h.15v2.87a12.49,12.49,0,0,0,12.49,12.49c6.89,0,12.22-5,12.22-11.86l.14-.8C354.54-148.95,372.67-163.9,393.26-163.9ZM113.44,141.4a40.19,40.19,0,1,1,40.18,40.18A40.19,40.19,0,0,1,113.44,141.4Zm15.35,0a24.84,24.84,0,1,1,24.83,24.83A24.84,24.84,0,0,1,128.79,141.4ZM112.41,418.92a40.19,40.19,0,1,0,40.19,40.19A40.18,40.18,0,0,0,112.41,418.92Zm0,15.35a24.84,24.84,0,1,0,24.84,24.84A24.84,24.84,0,0,0,112.41,434.27Zm485.92-207.5a27.57,27.57,0,1,0-27.57-27.57A27.57,27.57,0,0,0,598.33,226.77Zm0-42.92a15.35,15.35,0,1,0,15.35,15.35A15.35,15.35,0,0,0,598.33,183.85Zm188,114.8a27.57,27.57,0,1,1-27.57-27.57A27.57,27.57,0,0,1,786.36,298.65Zm-42.92,0A15.35,15.35,0,1,1,758.79,314,15.35,15.35,0,0,1,743.44,298.65ZM537.34,199.7a60.66,60.66,0,0,0,17.11,42l.74.75A60.86,60.86,0,1,0,602.62,139v16.57a44.35,44.35,0,1,1-32.72,78.08l-.12.11-2.94-2.94a44.23,44.23,0,0,1-13-31V75H537.4Zm186.6-525.81a60.33,60.33,0,0,1,60.34,60.34v130A60.33,60.33,0,0,1,723.94-75.4a60.33,60.33,0,0,1-60.33-60.34v-130A60.33,60.33,0,0,1,723.94-326.11Zm-44.86,65h0v120.67h0v4.68a44.86,44.86,0,0,0,44.86,44.87,44.87,44.87,0,0,0,44.87-44.87v-4.68h0V-261.09h0v-4.68a44.87,44.87,0,0,0-44.87-44.87,44.86,44.86,0,0,0-44.86,44.87ZM40.5,228.09h0v4.68A44.86,44.86,0,0,1-4.35,277.63v15.48A60.34,60.34,0,0,0,56,232.77V189.39H40.5Zm487.89,82.2a40.21,40.21,0,0,1,28.35-11.64H597v15.41H556.75A24.94,24.94,0,1,0,581.69,339h15.42a40.37,40.37,0,1,1-68.72-28.72ZM471.18,448.18a40.37,40.37,0,1,0,40.36,40.37H496.13a24.95,24.95,0,1,1-24.95-24.95H602V448.18ZM442.83-42.51a40.28,40.28,0,0,0,28.35,11.64H602V-46.29H471.18a24.87,24.87,0,0,1-17.48-7.15,24.86,24.86,0,0,1-7.47-17.8A24.86,24.86,0,0,1,453.67-89a24.86,24.86,0,0,1,17.51-7.18,24.87,24.87,0,0,1,17.87,7.54,24.84,24.84,0,0,1,7.08,17.4h15.41a40.24,40.24,0,0,0-11.66-28.38,40.23,40.23,0,0,0-28.7-12,40.2,40.2,0,0,0-28.42,11.71,40.2,40.2,0,0,0-11.94,28.65A40.23,40.23,0,0,0,442.83-42.51Zm-326.08-193A40.25,40.25,0,0,1,88.4-247.13a40.21,40.21,0,0,1-12-28.73,40.24,40.24,0,0,1,11.94-28.65,40.21,40.21,0,0,1,28.42-11.71,40.23,40.23,0,0,1,28.7,12,40.24,40.24,0,0,1,11.66,28.38H141.7a24.84,24.84,0,0,0-7.08-17.4,24.87,24.87,0,0,0-17.87-7.54,24.86,24.86,0,0,0-17.51,7.18,24.85,24.85,0,0,0-7.43,17.76,24.89,24.89,0,0,0,7.46,17.8,24.88,24.88,0,0,0,17.48,7.15H336v15.42Zm248.69-103.2a40.24,40.24,0,0,1,11.63,28.35h0v130.76H361.66V-310.33a24.87,24.87,0,0,0-7.15-17.48,24.88,24.88,0,0,0-17.8-7.47,24.89,24.89,0,0,0-17.77,7.43,24.88,24.88,0,0,0-7.18,17.52,24.86,24.86,0,0,0,7.54,17.86,24.88,24.88,0,0,0,17.41,7.08V-270a40.23,40.23,0,0,1-28.38-11.67,40.21,40.21,0,0,1-12-28.69,40.27,40.27,0,0,1,11.7-28.43,40.24,40.24,0,0,1,28.66-11.94A40.27,40.27,0,0,1,365.44-338.69Zm8.22,785.88a40.36,40.36,0,1,1-40.36,40.36h15.41a24.95,24.95,0,1,0,25-24.95H255.37V447.19Zm80.55-26.11a40.19,40.19,0,0,0,0-80.37H373.84a40.19,40.19,0,1,0,0,80.37ZM479,380.89a24.83,24.83,0,0,0-24.83-24.83H373.84a24.84,24.84,0,1,0,0,49.67h80.37A24.84,24.84,0,0,0,479,380.89ZM417.26,84a40.19,40.19,0,0,0,0-80.37H336.89a40.19,40.19,0,1,0,0,80.37h15.2V68.69h-15.2a24.84,24.84,0,1,1,0-49.68h80.37a24.84,24.84,0,0,1,0,49.68H401.91V84ZM593.68-151.61a40.19,40.19,0,0,0-40.19,40.19v40.17h15.36v-40.17h0a24.84,24.84,0,0,1,24.84-24.84,24.84,24.84,0,0,1,24.83,24.84h0V-31h0A24.83,24.83,0,0,1,593.68-6.22V9.13A40.18,40.18,0,0,0,633.86-31v-80.37A40.18,40.18,0,0,0,593.68-151.61ZM296.89,414.08a40.19,40.19,0,1,0-80.37,0v80.36a40.19,40.19,0,1,0,80.37,0v-15.2H281.54v15.2h0a24.84,24.84,0,0,1-49.68,0h0V414.08h0a24.84,24.84,0,0,1,49.68,0h0v15.34h15.35ZM452.58,179.4v12.48H437.47V179.67a27.65,27.65,0,1,1,55.29,0v49.67a27.65,27.65,0,0,1-55.29,0V217.05h15.11v12.56a12.54,12.54,0,0,0,25.07,0V179.4a12.54,12.54,0,0,0-25.07,0Zm318.83,2.37V169.29a12.54,12.54,0,0,0-25.08,0v50.22a12.54,12.54,0,0,0,25.08,0V206.94h15.11v12.3a27.65,27.65,0,0,1-55.29,0V169.56a27.65,27.65,0,0,1,55.29,0v12.21Zm22.67,267.07c-4.75,51.25-45.62,91.54-107.05,91.54H533.83V525.3H687c48.29,0,82.81-31.86,92-76.45ZM617.63-380.56A40.3,40.3,0,0,1,646-368.92a40.27,40.27,0,0,1,12,28.73,40.24,40.24,0,0,1-11.94,28.65,40.21,40.21,0,0,1-28.42,11.71v-15.42a24.86,24.86,0,0,0,17.51-7.18,24.85,24.85,0,0,0,7.43-17.76A24.86,24.86,0,0,0,635.1-358a24.86,24.86,0,0,0-17.47-7.15H536.79v-15.42ZM748.78,72a40.19,40.19,0,0,1,80.37,0H813.8a24.84,24.84,0,0,0-49.68,0Z"/></g></g><path class="cls-11" d="M139.27,309.9c.87-13.27,13.6-27.15,42.28-28.37s47.73,1.18,66-.85,37.27-7.38,40.34-11.34c-7.79,28.08-19.27,81.45-19.3,81.93-8.05-12.52-54.48-16.68-85.52-16.53S138.39,323.17,139.27,309.9Z"/><path class="cls-12" d="M216.83,307.28c5.51,8.61,12.68,32.66,33.87,34.18l-97.63-7c1.52-7.55,5.8-24.81,10.77-33.47C175.61,299.8,204.07,304.69,216.83,307.28Z"/><path class="cls-13" d="M373.57,439.76,455,484.33l-45.08,16.89s-46-20.48-75.95-32.87-43.5-16.5-51.06-20.72c-3.69-2.75-7.23-10.89,2.34-14.24,12-4.2,73.66,1.31,83.49-2.24C365.12,433.4,370.81,438.59,373.57,439.76Z"/><path class="cls-11" d="M419.51,421c-4,7.62-78.89-3.38-83.37-.57,0,0-41,8-52.36,11.58s-1.14,15.84-1.14,15.84c-18,1.38-60.66,2.16-95.22-5.42-43.19-9.48-93.13-50.15-94.91-84-1.42-27.11,37.2-35.34,54.73-35.77,20.43,0,78.71,8.73,116,21.59s101.48,42,113.82,47.3C388,396.2,423.48,413.34,419.51,421Z"/><path class="cls-14" d="M377.05,391.46c11,4.74,51.48,20.11,43.37,36.25s-79.92,9.8-97.36,11.16c-27.2,2.12-44,3.53-44,3.53-8.69-8.7-62.52-23.67-101.27-32.18C134.64,400.75,93,368,92.51,358.34c-1.42-27.11,37.2-35.34,54.73-35.77,20.43,0,78.71,8.73,116,21.59S364.71,386.13,377.05,391.46Z"/><path class="cls-6" d="M345.88,495.88c1-15.1,15.46-30.88,48.08-32.27s61-4.18,81.76-6.48,34.24-11.08,37.73-15.58c-8.86,31.93-26.58,98.1-26.62,98.64C477.68,526,431,524,395.7,524.13S344.88,511,345.88,495.88Z"/><path class="cls-15" d="M42,222.77c0,5.84,7.51,10.84,7.51,10.84s7.5-5,7.5-10.84a7.51,7.51,0,1,0-15,0Z"/><circle class="cls-16" cx="49.51" cy="222.43" r="3.84"/><path class="cls-17" d="M211,81.36c0,5.84,7.51,10.85,7.51,10.85s7.5-5,7.5-10.85a7.51,7.51,0,1,0-15,0Z"/><circle class="cls-18" cx="218.68" cy="81.54" r="3.84"/><path class="cls-19" d="M35,463.36c0,5.84,7.51,10.84,7.51,10.84s7.5-5,7.5-10.84a7.51,7.51,0,1,0-15,0Z"/><circle class="cls-20" cx="42.51" cy="463.03" r="3.84"/><path class="cls-21" d="M334,67.36c0,5.84,7.51,10.85,7.51,10.85s7.51-5,7.51-10.85a7.51,7.51,0,0,0-15,0Z"/><circle class="cls-20" cx="341.51" cy="67.03" r="3.84"/><path class="cls-21" d="M243,519.36c0,5.84,7.51,10.84,7.51,10.84s7.51-5,7.51-10.84a7.51,7.51,0,0,0-15,0Z"/><circle class="cls-20" cx="250.51" cy="519.03" r="3.84"/><path class="cls-21" d="M168,197.07c0,21.16,27.21,39.31,27.21,39.31s27.22-18.15,27.22-39.31a27.22,27.22,0,1,0-54.43,0Z"/><g class="cls-22"><path class="cls-19" d="M195.34,174.54h-.25a22.5,22.5,0,0,0-22.5,22.5h0a22.49,22.49,0,0,0,22.5,22.49h.25A22.5,22.5,0,0,0,217.84,197h0A22.5,22.5,0,0,0,195.34,174.54Z"/><path class="cls-23" d="M204.73,213.27l-32.14,3.23-2.74-27.26L202,186Z"/><g class="cls-24"><path class="cls-25" d="M169.85,189.24l7.53-.76,2.75,27.27-7.54.75Z"/></g><path class="cls-26" d="M191.69,187l-3.49.35.53,5.24.53.07.6-.51.93.43.63-.58.81.36Z"/><path class="cls-26" d="M174.5,188.77l-1.76.18.52,5.23.29.1.28-.48.49.48.31-.56.41.41Z"/><path class="cls-27" d="M209.62,229.29l-29.45-9.74,8.23-25,29.5,9.76Z"/><g class="cls-28"><path class="cls-29" d="M188.45,194.53l6.92,2.29-8.26,25-6.92-2.29Z"/></g><path class="cls-26" d="M208.44,201.14l-3.18-1-1.58,4.79.45.25.7-.19.66.75.78-.27.53.65Z"/><path class="cls-26" d="M192.68,195.93l-1.59-.52-1.58,4.79.21.17.41-.28.27.62.45-.39.2.55Z"/></g><path class="cls-1" d="M308,157.31c0,20.58,26.46,38.22,26.46,38.22s26.45-17.64,26.45-38.22a26.46,26.46,0,1,0-52.91,0Z"/><g class="cls-30"><path class="cls-31" d="M334.58,135.4h-.24a21.88,21.88,0,0,0-21.88,21.87h0a21.88,21.88,0,0,0,21.88,21.87h.24a21.87,21.87,0,0,0,21.87-21.87h0A21.87,21.87,0,0,0,334.58,135.4Z"/><path class="cls-32" d="M360.47,157.34H324.85v17.81h35.62Z"/><path class="cls-33" d="M360.47,175.15H324.85v3.75h35.62Z"/><path class="cls-19" d="M339.85,162H328.6V178.9h11.25Z"/><path class="cls-34" d="M356.72,162H343.6v10.31h13.12Z"/><path class="cls-32" d="M355.79,163H344.54v8.43h11.25Z"/><path class="cls-35" d="M331,170.93a.44.44,0,0,1,.46.47v1.88a.47.47,0,1,1-.93,0V171.4A.44.44,0,0,1,331,170.93Z"/><path class="cls-19" d="M342.66,160.15a2.81,2.81,0,1,1,2.82-2.81A2.81,2.81,0,0,1,342.66,160.15Z"/><path class="cls-19" d="M331.41,160.15a2.81,2.81,0,1,1,2.82-2.81A2.81,2.81,0,0,1,331.41,160.15Z"/><path class="cls-19" d="M353.91,160.15a2.81,2.81,0,1,1,2.81-2.81A2.81,2.81,0,0,1,353.91,160.15Z"/><path class="cls-19" d="M327.66,145.15h30a1.89,1.89,0,0,1,1.88,1.88v2.81H325.79V147A1.88,1.88,0,0,1,327.66,145.15Z"/><path class="cls-33" d="M345.48,149.84h-5.63v7.5h5.63Z"/><path class="cls-33" d="M330.48,149.84h4.68l-.93,7.5H328.6Z"/><path class="cls-33" d="M354.85,149.84h-4.69l.94,7.5h5.62Z"/><path class="cls-36" d="M337,160.15a2.81,2.81,0,1,1,2.81-2.81A2.81,2.81,0,0,1,337,160.15Z"/><path class="cls-36" d="M323,157.34a2.81,2.81,0,1,0,2.81-2.81Z"/><path class="cls-36" d="M348.29,160.15a2.81,2.81,0,1,1,2.81-2.81A2.81,2.81,0,0,1,348.29,160.15Z"/><path class="cls-19" d="M335.16,149.84h4.69v7.5h-5.62Z"/><path class="cls-19" d="M325.79,149.84h4.69l-1.88,7.5H323Z"/><path class="cls-19" d="M350.16,149.84h-4.68v7.5h5.62Z"/><path class="cls-19" d="M359.54,149.84h-4.69l1.87,7.5h5.63Z"/></g><path class="cls-37" d="M76.91,105.31c0,20.58-26.45,38.22-26.45,38.22S24,125.89,24,105.31a26.46,26.46,0,1,1,52.91,0Z"/><path class="cls-17" d="M50.4,82.72h0A22.62,22.62,0,0,1,73,105.34V106A22.62,22.62,0,0,1,50.4,128.61h0A22.63,22.63,0,0,1,27.77,106v-.65A22.63,22.63,0,0,1,50.4,82.72Z"/><g class="cls-38"><path class="cls-39" d="M37.38,125.56l-6.17,9.6a24.28,24.28,0,0,1-2.12,6.39c-.33.42-1,.94-1-.7s0-3.38-.6-3.57-1.18.84-2,.43q-.78-.41,3.51-4.55l3.2-9.32Z"/><path class="cls-40" d="M54.65,110.18c-9,5.57-15.7,13.24-22.48,24.18l-4.72-3.69c3.62-12,5.12-14.86,8.42-19.41s6.62-6.31,10.3-7c0,0,7.55,1.59,8.09,2.76A8,8,0,0,1,54.65,110.18Z"/><path class="cls-41" d="M46.17,87.47a6.24,6.24,0,0,0-6.24,6.24v6a6.24,6.24,0,0,0,5.51,6.2v.05H53.8c1.33-1.3,0-9.6-1-13.24a6.24,6.24,0,0,0-6.15-5.22Z"/><path class="cls-39" d="M46.54,101.38c1.87,1.12,3.7,1.67,4.57,1.44,2.15-.55,2.35-8.45.68-11.56S41.53,86.78,41.1,93a8,8,0,0,0,2.31,5.88l-1.12,10.6,5.42.24Z"/><path class="cls-41" d="M40.19,93c.2-.2.39-.39.58-.56V92.2s2.18-4.44,5.51-4.44a5.48,5.48,0,0,1,5.29,2.87h0c-.47,1.61-1.88,2.26-3.48,3A17.43,17.43,0,0,0,46,94.71a1.63,1.63,0,0,0-1-.36,1.59,1.59,0,1,0,0,3.18h.07c.32,3.43.19,7.34-.76,8.27H35.93c-.24-4.17.84-5.36,1.94-6.58s2.1-2.31,2.1-6Z"/><path class="cls-42" d="M34,145.3H45.8c9.8,0,7.32-19.94.67-40H43a1.57,1.57,0,0,0-1.43,1C37,115.15,32.08,132.67,34,145.3Z"/></g><path class="cls-39" d="M63.41,102.76l10.14-5.24a24.76,24.76,0,0,1,5-4.48c.5-.2,1.36-.3.52,1.11s-1.66,2.94-1.26,3.39,1.44-.14,1.91.6q.48.75-5.31,2.19L67,106.81Z"/><path class="cls-43" d="M44.93,105.32c5.35,0,15.79-1.39,27.08-7.5l2.24,5.56C65.16,112,55.6,118.81,46.38,117.61,44.84,117.41,47.32,112.47,44.93,105.32Z"/></g></g></svg>