<svg xmlns="http://www.w3.org/2000/svg" xmlns:xlink="http://www.w3.org/1999/xlink" viewBox="0 0 438.09 835.44"><defs><style>.cls-1{fill:none;}.cls-2{clip-path:url(#clip-path);}.cls-3{fill:#7c99ff;}.cls-4{fill:#6184ff;}.cls-5{fill:#4b72ff;}.cls-6{fill:#6b8bff;}.cls-7{fill:#8da6ff;}</style><clipPath id="clip-path"><rect id="SVGID" class="cls-1" x="6.9" y="88.79" width="431" height="658"/></clipPath></defs><title>isomorphic_city</title><g id="Layer_2" data-name="Layer 2"><g id="houses"><g class="cls-2"><path class="cls-3" d="M426.26,654.7a7,7,0,0,1-8.41,6.9,7.09,7.09,0,0,1-3.6-1.93,7,7,0,1,1,12-5Z"/><path class="cls-3" d="M419.25,670.13a48.12,48.12,0,0,1,0-15.43,48.12,48.12,0,0,1,0,15.43Z"/><path class="cls-4" d="M28.18,567.94c2.82-2.09,140.21-62.63,140.21-62.63L7.89,425.25l-.54,129Z"/><path class="cls-5" d="M36.58,422.78l117.08-59.51L27.85,293.51,8.44,298.37,8,411.24Z"/><path class="cls-4" d="M36.58,422.78l117.08-59.51L27.85,293.51,8.44,298.37,8,411.24Z"/><path class="cls-4" d="M0,287.45l373.55-170.6L0,0Z"/><path class="cls-4" d="M8.47,724.37l164.91-84.64L418.87,784.16l-58.48,51.28H150.89L8.47,748.4Z"/><path class="cls-4" d="M205.85,630.57,409.79,751.5l22.74-2.58V632.65L320.76,573.5Z"/><path class="cls-4" d="M239.37,515.11,431.65,623.28V481.88l-69.57-29.8Z"/><path class="cls-4" d="M34,574.71l112.79,61.9,136.9-70.91L174.93,510.39Z"/><path class="cls-4" d="M203.32,362.48,363.1,441.66l74.1-37.84.48-53.07L329.75,298.37Z"/><path class="cls-4" d="M39.91,431.55,199.7,510.73l74.1-37.84.47-53.07L166.32,367.44Z"/><path class="cls-4" d="M62,289.24l130.22,65.21,121.45-65.21L187.87,231.83Z"/><path class="cls-6" d="M247.64,372.54l-.57-28.08,73.22,35.45v29.18Z"/><path class="cls-3" d="M320.29,379.91l90.93-45.18v31.45l-90.93,42.91Z"/><path class="cls-7" d="M247.07,344.46l89.24-44.64,74.91,34.91-90.93,45.18Z"/><path class="cls-7" d="M256.63,356.59v13.62l7.15,3.21v-13Z"/><path class="cls-7" d="M268.07,361.62v13.64l7.18,3.22v-13Z"/><path class="cls-3" d="M17.29,195.33V158.78l86.66,42v34.52Z"/><path class="cls-6" d="M104,200.77l107.67-53.5v37.24L104,235.29Z"/><path class="cls-7" d="M17.29,158.78,122.9,106l88.72,41.3L104,200.76Z"/><path class="cls-7" d="M28.61,173.13v16.14l8.47,3.82V177.66Z"/><path class="cls-7" d="M42.15,179.12v16.12l8.49,3.83V183.65Z"/><path class="cls-6" d="M278.54,500.83v28.8l31,15.24V515.11Z"/><path class="cls-3" d="M348.87,496.25l-39.46,18.86v29.76l39.46-22Z"/><path class="cls-7" d="M278.54,500.83l39.1-18.95,31.23,14.37-39.46,18.86Z"/><path class="cls-7" d="M289.51,521.5v13.61l7.15,3.25v-13Z"/><path class="cls-3" d="M29,485.93v28.8L59.92,530V500.21Z"/><path class="cls-3" d="M99.4,481.35,59.92,500.21V530l39.48-22Z"/><path class="cls-6" d="M29,485.93,68.16,467,99.4,481.35,59.92,500.21Z"/><path class="cls-7" d="M40,506.6v13.61l7.15,3.25v-13Z"/><path class="cls-6" d="M157.09,295.82v28.82L188,339.88V310.13Z"/><path class="cls-3" d="M227.45,291.27,188,310.13v29.75l39.48-22Z"/><path class="cls-7" d="M157.09,295.82l39.13-18.93,31.23,14.38L188,310.13Z"/><path class="cls-3" d="M168.06,316.51v13.62l7.15,3.24v-13Z"/><path class="cls-6" d="M122.76,542.65v28.82l30.88,15.21V557Z"/><path class="cls-3" d="M193.12,538.07,153.66,557v29.73l39.46-22Z"/><path class="cls-7" d="M122.76,542.65l39.12-18.93,31.24,14.35L153.66,557Z"/><path class="cls-7" d="M133.73,563.32V577l7.15,3.22v-13Z"/><path class="cls-6" d="M250.26,612.24v36.12l65,38.31V649.38Z"/><path class="cls-3" d="M364.85,622.73l-49.5,26.65v37.29l49.5-27.61Z"/><path class="cls-7" d="M250.26,612.22l49.07-23.75,65.51,34.26-49.49,26.66Z"/><path class="cls-7" d="M274.84,645.64v17.07l9,5.39V651.22Z"/><path class="cls-6" d="M93.7,686.58V722.7L158.79,761V723.72Z"/><path class="cls-6" d="M236.46,681.64l-77.67,42.08V761l77.88-43.18Z"/><path class="cls-7" d="M93.7,686.58l82.16-39.79,60.81,35-77.88,41.93Z"/><path class="cls-7" d="M118.28,720v17.09l9,5.39v-16.9Z"/><path class="cls-6" d="M340.07,551.52V695.78l40.63,21V570.71Z"/><path class="cls-7" d="M370.09,537.69l-30,13.83,40.63,19.19L408,555.31Z"/><path class="cls-3" d="M380.7,570.71V716.78l24.72-13.3L408,555.31Z"/><path class="cls-6" d="M168.39,434.67V578.93l40.63,21V453.86Z"/><path class="cls-7" d="M198.39,420.82l-30,13.85L209,453.86l27.32-15.4Z"/><path class="cls-3" d="M209,453.86V599.94l24.7-12.18,2.62-149.3Z"/><path class="cls-6" d="M186.82,709v36.12l65.11,38.34V746.18Z"/><path class="cls-7" d="M301.4,719.53l-49.47,26.65v37.29l49.47-27.61Z"/><path class="cls-7" d="M186.82,709l49.64-27.37,64.94,37.89-49.47,26.65Z"/><path class="cls-4" d="M331.59,278.37,213.05,224.94l165.07-84,54.17,80.78Z"/><path class="cls-4" d="M437.11,327.43l.81-92.5L346,287.24Z"/><path class="cls-3" d="M367.28,420.08A7.07,7.07,0,0,1,366,424a7,7,0,0,1-10.8.94,7,7,0,0,1-1.47-7.65,7,7,0,0,1,6.48-4.31,7.15,7.15,0,0,1,7,7.15Z"/><path class="cls-3" d="M360.24,435.51a48.7,48.7,0,0,1,0-15.43,48.12,48.12,0,0,1,0,15.43Z"/><path class="cls-3" d="M175.43,402.84a7.15,7.15,0,0,1-14.17,1.4,7.17,7.17,0,0,1,3-7.34,7.17,7.17,0,0,1,9.07.85,7.13,7.13,0,0,1,2.06,5.09Z"/><path class="cls-3" d="M168.39,418.36a48.64,48.64,0,0,1,0-15.42,48.06,48.06,0,0,1,0,15.42Z"/><path class="cls-3" d="M81.44,501a7,7,0,0,1-8.4,6.9,7.06,7.06,0,0,1-5.53-5.53,7.05,7.05,0,0,1,.4-4.06,7.2,7.2,0,0,1,2.59-3.16A7.07,7.07,0,0,1,74.41,494a7,7,0,0,1,7,7Z"/><path class="cls-3" d="M74.48,516.45a48.7,48.7,0,0,1,0-15.43,48.12,48.12,0,0,1,0,15.43Z"/><path class="cls-3" d="M88.48,425.26a7,7,0,0,1-1.18,3.89,7.09,7.09,0,0,1-3.14,2.59,7,7,0,0,1-7.65-1.47,7,7,0,0,1,4.82-12,7.21,7.21,0,0,1,2.72.5,7.06,7.06,0,0,1,2.33,1.52,7.1,7.1,0,0,1,2.1,5Z"/><path class="cls-3" d="M81.44,440.68a48.7,48.7,0,0,1,0-15.43,48.12,48.12,0,0,1,0,15.43Z"/><path class="cls-3" d="M262,418.36A7.15,7.15,0,1,1,251,412.51,7.11,7.11,0,0,1,262,418.36Z"/><path class="cls-3" d="M255,433.72a48.12,48.12,0,0,1,0-15.43A48.7,48.7,0,0,1,255,433.72Z"/><path class="cls-3" d="M373.12,471a7.05,7.05,0,0,1-4.34,6.5,7,7,0,0,1-7.67-1.53,7,7,0,1,1,12-5Z"/><path class="cls-3" d="M366.08,486.41a48.7,48.7,0,0,1,0-15.43,48.12,48.12,0,0,1,0,15.43Z"/><path class="cls-3" d="M377.6,512.35a7,7,0,0,1-8.41,6.89,7,7,0,0,1-5.12-9.59,7,7,0,0,1,2.59-3.15,7,7,0,0,1,10.94,5.85Z"/><path class="cls-3" d="M370.57,527.77a48.06,48.06,0,0,1,0-15.42,48.64,48.64,0,0,1,0,15.42Z"/><path class="cls-3" d="M180.41,598.17a7,7,0,0,1-12,5,7,7,0,0,1-1.6-7.62,7.06,7.06,0,0,1,6.42-4.43,7,7,0,0,1,5.05,2,7.1,7.1,0,0,1,2.1,5Z"/><path class="cls-3" d="M173.38,613.6a48.12,48.12,0,0,1,0-15.43A48.7,48.7,0,0,1,173.38,613.6Z"/><path class="cls-3" d="M404.42,727.82a7,7,0,1,0-7-7A7,7,0,0,0,404.42,727.82Z"/><path class="cls-3" d="M404.42,736.21a48.64,48.64,0,0,1,0-15.42,48.06,48.06,0,0,1,0,15.42Z"/><path class="cls-3" d="M234.19,632.62a7,7,0,1,0-7-7A7,7,0,0,0,234.19,632.62Z"/><path class="cls-3" d="M234.22,641a48.12,48.12,0,0,1,0-15.43,48.12,48.12,0,0,1,0,15.43Z"/><path class="cls-3" d="M259,557a7.06,7.06,0,0,1-1.19,3.91,7,7,0,0,1-3.16,2.59,7,7,0,0,1-7.66-1.52,7.17,7.17,0,0,1-1.93-3.6,7,7,0,0,1,3-7.22,6.94,6.94,0,0,1,3.9-1.19,7,7,0,0,1,7,7Z"/><path class="cls-3" d="M251.93,572.38a48.7,48.7,0,0,1,0-15.43A48.12,48.12,0,0,1,251.93,572.38Z"/><path class="cls-3" d="M88.48,564.68a7,7,0,0,1-4.32,6.48,6.91,6.91,0,0,1-4,.42,7,7,0,0,1-5.56-5.46,7.1,7.1,0,0,1,.35-4,7.06,7.06,0,0,1,11.47-2.41,7.18,7.18,0,0,1,1.55,2.3,7,7,0,0,1,.55,2.72Z"/><path class="cls-3" d="M81.44,580.1a48.64,48.64,0,0,1,0-15.42,48.06,48.06,0,0,1,0,15.42Z"/><path class="cls-3" d="M413.24,501a7,7,0,0,1-8.4,6.9,7.06,7.06,0,0,1-5.53-5.53,7.05,7.05,0,0,1,.4-4.06,7,7,0,0,1,6.5-4.34,7,7,0,0,1,7,7Z"/><path class="cls-3" d="M406.21,516.45a48.12,48.12,0,0,1,0-15.43,48.12,48.12,0,0,1,0,15.43Z"/><path class="cls-3" d="M394.38,395.81a7.07,7.07,0,0,1-1.18,3.91,7,7,0,0,1-3.16,2.59,7.05,7.05,0,0,1-4.06.4,7.06,7.06,0,0,1-5.53-5.53,7,7,0,1,1,13.93-1.37Z"/><path class="cls-3" d="M387.35,411.21a48.64,48.64,0,0,1,0-15.42,48.06,48.06,0,0,1,0,15.42Z"/><path class="cls-3" d="M245,309.86a7,7,0,1,0-7-7A7,7,0,0,0,245,309.86Z"/><path class="cls-3" d="M245,318.23a46.46,46.46,0,0,1,0-15.43,48.7,48.7,0,0,1,0,15.43Z"/><path class="cls-3" d="M117.52,435.51a7,7,0,1,1-7.16-7,7.26,7.26,0,0,1,2.73.5,7.06,7.06,0,0,1,4.43,6.54Z"/><path class="cls-3" d="M110.48,450.93a48.64,48.64,0,0,1,0-15.42A46.4,46.4,0,0,1,110.48,450.93Z"/><path class="cls-3" d="M200.15,252.64a7,7,0,1,1-.51-2.75,7,7,0,0,1,.51,2.75Z"/><path class="cls-3" d="M193.12,268.16a48.06,48.06,0,0,1,0-15.42,48.64,48.64,0,0,1,0,15.42Z"/><path class="cls-3" d="M343.55,237.17a7,7,0,0,1-4.42,6.41,7,7,0,0,1-7.62-1.6,7,7,0,0,1-1.89-3.6,7,7,0,0,1,6.9-8.36,7,7,0,0,1,2.72.55,7.18,7.18,0,0,1,2.3,1.55,7.1,7.1,0,0,1,1.51,2.32,6.92,6.92,0,0,1,.5,2.73Z"/><path class="cls-3" d="M336.52,252.65a48.7,48.7,0,0,1,0-15.43,48.12,48.12,0,0,1,0,15.43Z"/><path class="cls-3" d="M383.2,230.73a7.15,7.15,0,1,1-7-7.15,7.07,7.07,0,0,1,2.72.55,7.18,7.18,0,0,1,2.3,1.55A7,7,0,0,1,382.7,228a6.84,6.84,0,0,1,.5,2.72Z"/><path class="cls-3" d="M376.17,246.16a48.12,48.12,0,0,1,0-15.43,48.12,48.12,0,0,1,0,15.43Z"/><path class="cls-3" d="M367.28,178.86a7.05,7.05,0,0,1-4.34,6.49,6.92,6.92,0,0,1-4.07.4,7,7,0,0,1-5.52-5.52,6.88,6.88,0,0,1,.4-4.06,7,7,0,0,1,6.49-4.35,7.17,7.17,0,0,1,7,7Z"/><path class="cls-3" d="M360.24,194.26a48.7,48.7,0,0,1,0-15.43,48.12,48.12,0,0,1,0,15.43Z"/><path class="cls-3" d="M146.44,298.37a7,7,0,0,1-4.32,6.49,7,7,0,0,1-7.65-1.48,7,7,0,0,1-1.95-3.56,7,7,0,0,1,.35-4.06,7.14,7.14,0,0,1,2.54-3.18,7,7,0,0,1,3.87-1.24,7.07,7.07,0,0,1,6.61,4.31,7.07,7.07,0,0,1,.55,2.72Z"/><path class="cls-3" d="M139.4,313.8a48.7,48.7,0,0,1,0-15.43,48.12,48.12,0,0,1,0,15.43Z"/><path class="cls-3" d="M309.89,231.83a7.16,7.16,0,1,1-7-7,7,7,0,0,1,7,7Z"/><path class="cls-3" d="M302.86,247.26a48.12,48.12,0,0,1,0-15.43,48.7,48.7,0,0,1,0,15.43Z"/><path class="cls-3" d="M193.12,111.93a7.06,7.06,0,0,1-1.19,3.91,7,7,0,0,1-3.16,2.59,7,7,0,0,1-9.58-5.12,6.92,6.92,0,0,1,.4-4.07,7,7,0,0,1,13.53,2.69Z"/><path class="cls-3" d="M186.08,127.36a25.26,25.26,0,0,1-.62-7.7,25.14,25.14,0,0,1,.62-7.73,24.83,24.83,0,0,1,.62,7.73,24.64,24.64,0,0,1-.62,7.7Z"/><path class="cls-3" d="M65,233.57a7.18,7.18,0,0,1-4.42,6.61A7.16,7.16,0,0,1,50.78,235a7.08,7.08,0,0,1,.41-4.14,7.12,7.12,0,0,1,6.6-4.41,7,7,0,0,1,2.76.51,7,7,0,0,1,3.88,3.89,7,7,0,0,1,.52,2.75Z"/><path class="cls-3" d="M57.79,249.09a48.64,48.64,0,0,1,0-15.42A48.06,48.06,0,0,1,57.79,249.09Z"/><path class="cls-3" d="M71.88,119a7.16,7.16,0,0,1-8.51,7.14,7.23,7.23,0,0,1-3.7-2,7.16,7.16,0,0,1,5.18-12.21,7,7,0,0,1,7,7Z"/><path class="cls-3" d="M65,134.39a24,24,0,0,1-.62-7.7A23.6,23.6,0,0,1,65,119a25.36,25.36,0,0,1,.62,7.72,25.26,25.26,0,0,1-.62,7.7Z"/><path class="cls-4" d="M374.55,446.9l58-30.73-.24,55.43Z"/><path class="cls-4" d="M133.73,643.45,6.7,709V586.68l14.07-6.27Z"/><path class="cls-5" d="M323.46,709a8.13,8.13,0,1,1-2.38-5.73A8.08,8.08,0,0,1,323.46,709Z"/><path class="cls-4" d="M397.63,130.41l40.46,12.3v63.75Z"/></g></g></g></svg>