<svg xmlns="http://www.w3.org/2000/svg" xmlns:xlink="http://www.w3.org/1999/xlink" viewBox="0 0 275.44 98.23"><defs><style>.cls-1{fill:none;}.cls-2,.cls-8{fill:#fff;}.cls-2{fill-opacity:0.12;}.cls-3{clip-path:url(#clip-path);}.cls-4{fill:#b0cbff;}.cls-5{clip-path:url(#clip-path-2);}.cls-6{fill:#172f63;}.cls-7{fill:#4b72ff;}.cls-9{fill:#1d3dae;}.cls-10{fill:#dfdfdf;}</style><clipPath id="clip-path"><path id="SVGID" class="cls-1" d="M49.1,15.91h0A33.11,33.11,0,0,1,82.22,49h0A33.11,33.11,0,0,1,49.1,82.13h0A33.11,33.11,0,0,1,16,49h0A33.11,33.11,0,0,1,49.1,15.91Z"/></clipPath><clipPath id="clip-path-2"><rect id="SVGID-2" data-name="SVGID" class="cls-1" x="24.27" y="32.01" width="49.67" height="33.57"/></clipPath></defs><title>illustration</title><g id="houses"><rect class="cls-2" x="-0.01" y="-0.09" width="275.44" height="98.23" rx="8"/><g class="cls-3"><rect class="cls-4" x="15.99" y="15.91" width="66.23" height="66.23"/><g class="cls-5"><path class="cls-6" d="M31.25,34H29.51V46.21h1.74Z"/><path class="cls-6" d="M32.36,34a2,2,0,1,1-2-2A2,2,0,0,1,32.36,34Z"/><path class="cls-6" d="M31.25,42.79v1.28c-.46.11-1.16.34-1.74.52V43.2A16.68,16.68,0,0,1,31.25,42.79Z"/><path class="cls-6" d="M28.23,49.69a1.93,1.93,0,0,1-1.52,1.91,1.22,1.22,0,0,1-.46.06.7.7,0,0,1-.35-.06,1.88,1.88,0,0,1-1.63-1.91,1.94,1.94,0,0,1,1.57-1.91c.12,0,.23-.06.41-.06a1.22,1.22,0,0,1,.46.06A2,2,0,0,1,28.23,49.69Z"/><path class="cls-6" d="M42.44,49.69a5.75,5.75,0,0,1-5.77,5.74H31.78a5.87,5.87,0,0,1-1-.11,5.76,5.76,0,0,1-3.09-9.75A6,6,0,0,1,30.61,44a7.74,7.74,0,0,1,1.17-.12h4.89A5.9,5.9,0,0,1,42.44,49.69Z"/><path class="cls-6" d="M33.64,55.2a.51.51,0,0,1-.06.29H31.66a5,5,0,0,1-1-.12,12.37,12.37,0,0,1-1.92-5.68,7.39,7.39,0,0,1,1.75-5.62A7.61,7.61,0,0,1,31.66,44h1.57C34.57,46.27,33.82,53.17,33.64,55.2Z"/><path class="cls-6" d="M68.64,34H66.89V46.21h1.75Z"/><path class="cls-6" d="M65.79,34a2,2,0,1,0,2-2A2,2,0,0,0,65.79,34Z"/><path class="cls-6" d="M66.89,42.79v1.28c.47.11,1.17.34,1.75.52V43.2A11.45,11.45,0,0,0,66.89,42.79Z"/><path class="cls-6" d="M70,49.69a2,2,0,1,0,2-2A2,2,0,0,0,70,49.69Z"/><path class="cls-6" d="M55.77,49.69a5.71,5.71,0,0,0,1.69,4.06,5.79,5.79,0,0,0,4.07,1.68h4.9a6,6,0,0,0,1-.11,5.76,5.76,0,0,0,3.08-9.75A5.94,5.94,0,0,0,67.59,44a7.74,7.74,0,0,0-1.16-.12h-4.9A5.9,5.9,0,0,0,55.77,49.69Z"/><path class="cls-6" d="M64.5,55.2a.51.51,0,0,0,.06.29h1.92a5,5,0,0,0,1-.12,12.25,12.25,0,0,0,1.93-5.68,7.39,7.39,0,0,0-1.75-5.62A7.74,7.74,0,0,0,66.48,44H64.91C63.63,46.27,64.33,53.17,64.5,55.2Z"/><path class="cls-7" d="M67.65,49.23a11.86,11.86,0,0,1-.29,2.43,11.24,11.24,0,0,1-3.09,5.57,11.37,11.37,0,0,1-8,3.3H41.74a11.43,11.43,0,0,1-11.36-11.3,11.52,11.52,0,0,1,1.4-5.45,11.34,11.34,0,0,1,10-5.86H56.29a11.31,11.31,0,0,1,9.84,5.74A11,11,0,0,1,67.65,49.23Z"/><path class="cls-6" d="M39.7,51.6a3.31,3.31,0,1,1,0-6.61H57.92a3.31,3.31,0,1,1,0,6.61Z"/><path class="cls-8" d="M42.38,49.75a2,2,0,0,1-2.8,0,2,2,0,0,1,0-2.78,2,2,0,0,1,2.8,0A1.89,1.89,0,0,1,42.38,49.75Z"/><path class="cls-8" d="M58.45,49.75a2,2,0,0,1-2.8,0A2,2,0,1,1,58.45,47,1.89,1.89,0,0,1,58.45,49.75Z"/><path class="cls-9" d="M54.61,57.63H42.55A1.75,1.75,0,0,1,40.8,55.9v-.12A1.75,1.75,0,0,1,42.55,54H54.61a1.74,1.74,0,0,1,1.74,1.74v.12A1.74,1.74,0,0,1,54.61,57.63Z"/><path class="cls-10" d="M55.07,55.84V56a1.19,1.19,0,0,1-.29.52,1,1,0,0,1-.7.29H43a.92.92,0,0,1-.93-.75V55.9a.94.94,0,0,1,.29-.7,1,1,0,0,1,.7-.29H54.2A.91.91,0,0,1,55.07,55.84Z"/><path class="cls-6" d="M49.13,65.58H48.9a3.1,3.1,0,0,1-3.09-3.07v-2h6.41v2A3.1,3.1,0,0,1,49.13,65.58Z"/></g></g><path class="cls-8" d="M101.48,35.41l1.28-3h6.7l1.26,3h3.44L108.26,22H104l-5.86,13.4Zm3.7-8.58.82-2.08h.22l.82,2.08,1.26,2.92h-4.38Zm13.28,8.58V22h-3v13.4Zm8.85,0v-3.7h4c3.1,0,5.1-1.78,5.1-4.86s-2-4.84-5.1-4.84h-7v13.4ZM131,24.71c1.66,0,2.44.5,2.44,2.14S132.65,29,131,29h-3.68v-4.3Zm12.43,10.9c3.42,0,5.72-2,5.72-5.2s-2.3-5.22-5.72-5.22-5.72,2-5.72,5.22S140,35.61,143.42,35.61Zm0-2.66c-2,0-2.74-.78-2.74-2.54s.7-2.58,2.74-2.58,2.74.82,2.74,2.58S145.44,33,143.42,33Zm13.22,2.46,1.74-4.82.76-2.76h.22l.74,2.76,1.72,4.82h3.74l2.84-10h-3.06L164.18,30l-.44,3.12h-.2l-.8-3.42-1.5-4.28h-3.86l-1.52,4.28-.8,3.42h-.2L154.44,30l-1.18-4.58h-3.1l2.74,10Zm18.48.2c3.18,0,5.3-1.52,5.3-3.7v-.22h-3v.2c0,.86-.62,1.32-2.4,1.32-1.94,0-2.66-.66-2.74-2.2h8.16a7.46,7.46,0,0,0,.08-1c0-3.14-2.18-4.86-5.46-4.86s-5.56,2-5.56,5.22C169.5,34,171.78,35.61,175.12,35.61ZM175,27.53c1.76,0,2.56.58,2.64,1.9h-5.32C172.46,28.13,173.22,27.53,175,27.53Zm10.4,7.88v-5.8c0-1.26.48-1.88,1.82-1.88s1.66.48,1.66,1.58v1h3V28.69c0-2-.92-3.5-3.16-3.5a3.19,3.19,0,0,0-3.36,2.86h-.18V25.39H182.4v10Zm13.48.2c3.18,0,5.3-1.52,5.3-3.7v-.22h-3v.2c0,.86-.62,1.32-2.4,1.32-1.94,0-2.66-.66-2.74-2.2h8.16a7.46,7.46,0,0,0,.08-1c0-3.14-2.18-4.86-5.46-4.86s-5.56,2-5.56,5.22C193.26,34,195.54,35.61,198.88,35.61Zm-.12-8.08c1.76,0,2.56.58,2.64,1.9h-5.32C196.22,28.13,197,27.53,198.76,27.53Zm11.87,8.08c2.3,0,3.62-1,4-3h.16v2.78h2.8V22h-3v6h-.18c-.34-1.68-1.56-2.86-3.94-2.86-3,0-4.68,2-4.68,5.22S207.51,35.61,210.63,35.61Zm-1.8-5.2c0-1.84.9-2.48,2.82-2.48s2.94.64,2.94,2.38v.16c0,1.74-1,2.4-2.94,2.4S208.83,32.23,208.83,30.41Z"/><path class="cls-8" d="M99.27,55.41h5.34v-.93h-4.28v-3h3.94v-.94h-3.94v-3h4.21v-.93H99.27Zm9.7.14a2.43,2.43,0,0,0,2.57-2h-1A1.53,1.53,0,0,1,109,54.65c-1.2,0-2-1-2-2.51s.78-2.45,2-2.45a1.54,1.54,0,0,1,1.57,1.14h1a2.44,2.44,0,0,0-2.59-2c-1.77,0-3,1.4-3,3.4S107.13,55.55,109,55.55Zm6.7,0c1.77,0,3-1.35,3-3.37s-1.2-3.4-3-3.4-3,1.35-3,3.4S113.9,55.55,115.67,55.55Zm0-.9c-1.35,0-2-1.16-2-2.47s.61-2.49,2-2.49,2,1.17,2,2.49S117,54.65,115.67,54.65Zm8.25-3.45H120.1v.94h3.82Zm4.69-2.33h-1.47V48.2c0-.64.27-1,.94-1a1.37,1.37,0,0,1,.56.11l.29-.87a2.31,2.31,0,0,0-1-.17A1.7,1.7,0,0,0,126.13,48v.91h-1v.85h1v5.69h1V49.72h1.47Zm1.4,6.54h1V51.27a1.55,1.55,0,0,1,1.65-1.53,2.9,2.9,0,0,1,.62.07v-1h-.53a1.79,1.79,0,0,0-1.71,1.09H131v-1h-1Zm4.47,0h1V48.87h-1Zm.51-7.63a.69.69,0,1,0,0-1.37.69.69,0,1,0,0,1.37Zm5.08,7.77a2.55,2.55,0,0,0,2.61-1.65l-1-.28a1.6,1.6,0,0,1-1.64,1,2,2,0,0,1-2-2.17h4.75v-.42c0-2.44-1.45-3.28-2.81-3.28-1.77,0-2.95,1.4-2.95,3.41S138.18,55.55,140.07,55.55Zm-2-3.94A2,2,0,0,1,140,49.69a1.77,1.77,0,0,1,1.79,1.92Zm7.29-.13A1.61,1.61,0,0,1,147,49.69a1.45,1.45,0,0,1,1.5,1.63v4.09h1V51.25c0-1.67-.89-2.47-2.21-2.47a1.94,1.94,0,0,0-1.91,1.11h-.09v-1h-1v6.54h1Zm8.48,4.07a2,2,0,0,0,1.91-1.14h.12v1h1V46.69h-1v3.22h-.09a2,2,0,0,0-1.89-1.13c-1.65,0-2.8,1.32-2.8,3.38S152.17,55.55,153.8,55.55Zm.14-.9c-1.26,0-1.91-1.11-1.91-2.51s.63-2.45,1.91-2.45,1.87,1,1.87,2.45S155.15,54.65,153.94,54.65Zm5.85-8h-1v8.72h1Zm2.49,11.18a2,2,0,0,0,1.93-1.5L167,48.89l-1.1,0-1.8,5.21H164l-1.81-5.21h-1.09l2.42,6.58-.19.51c-.36,1-.81,1.09-1.55.9l-.25.89A2,2,0,0,0,162.28,57.87Zm11.89-2.32a2,2,0,0,0,1.91-1.14h.12v1h1V46.69h-1v3.22h-.08a2,2,0,0,0-1.89-1.13c-1.66,0-2.8,1.32-2.8,3.38S172.53,55.55,174.17,55.55Zm.14-.9c-1.26,0-1.91-1.11-1.91-2.51s.63-2.45,1.91-2.45,1.87,1,1.87,2.45S175.52,54.65,174.31,54.65Zm4.84.76h1V51.27a1.55,1.55,0,0,1,1.65-1.53,2.7,2.7,0,0,1,.61.07v-1h-.52a1.78,1.78,0,0,0-1.71,1.09h-.07v-1h-1Zm6.93.14c1.77,0,3-1.35,3-3.37s-1.19-3.4-3-3.4-3,1.35-3,3.4S184.3,55.55,186.08,55.55Zm0-.9c-1.35,0-2-1.16-2-2.47s.61-2.49,2-2.49,2,1.17,2,2.49S187.42,54.65,186.08,54.65Zm5.5-3.17a1.62,1.62,0,0,1,1.67-1.79,1.44,1.44,0,0,1,1.5,1.63v4.09h1V51.25c0-1.67-.89-2.47-2.22-2.47a1.94,1.94,0,0,0-1.91,1.11h-.08v-1h-1v6.54h1Zm8.76,4.07A2.55,2.55,0,0,0,203,53.9l-1-.28a1.6,1.6,0,0,1-1.64,1,2,2,0,0,1-2-2.17h4.75v-.42c0-2.44-1.45-3.28-2.81-3.28-1.77,0-3,1.4-3,3.41S198.45,55.55,200.34,55.55Zm-2-3.94a2,2,0,0,1,1.94-1.92A1.77,1.77,0,0,1,202,51.61Zm10.92-1.28a2.22,2.22,0,0,0-2.32-1.55c-1.38,0-2.4.79-2.4,1.9,0,.9.53,1.5,1.73,1.78l1.1.26c.66.15,1,.47,1,.92s-.6,1-1.54,1a1.37,1.37,0,0,1-1.51-1l-1,.24a2.25,2.25,0,0,0,2.49,1.7c1.52,0,2.56-.83,2.56-2,0-.91-.57-1.49-1.74-1.77l-1-.24c-.78-.19-1.13-.45-1.13-1s.6-1,1.4-1a1.37,1.37,0,0,1,1.41.94Zm5,5.08h1V51.32a1.55,1.55,0,0,1,1.48-1.63,1.21,1.21,0,0,1,1.3,1.24v4.48h1V51.15a1.37,1.37,0,0,1,1.45-1.46A1.22,1.22,0,0,1,221.81,51v4.38h1V51c0-1.54-.83-2.25-2-2.25a2.07,2.07,0,0,0-2,1.11h-.07a1.94,1.94,0,0,0-3.51,0h-.08v-1h-1Zm12.35.16a2.06,2.06,0,0,0,1.94-1h.06v.88h1V51.1a2.15,2.15,0,0,0-2.42-2.32,2.64,2.64,0,0,0-2.62,1.54l1,.34a1.77,1.77,0,0,1,1.71-1A1.22,1.22,0,0,1,228.58,51v0c0,.49-.5.45-1.69.6s-2.54.43-2.54,1.93A2,2,0,0,0,226.58,55.57Zm.16-.91c-.81,0-1.39-.35-1.39-1s.7-1,1.49-1.11a5,5,0,0,0,1.74-.38V53A1.68,1.68,0,0,1,226.74,54.66Zm7.15.89a2,2,0,0,0,1.91-1.14h.12v1h1V46.69h-1v3.22h-.08a2,2,0,0,0-1.89-1.13c-1.66,0-2.8,1.32-2.8,3.38S232.25,55.55,233.89,55.55Zm.14-.9c-1.27,0-1.91-1.11-1.91-2.51s.63-2.45,1.91-2.45,1.87,1,1.87,2.45S235.24,54.65,234,54.65Zm7.58.9a2.54,2.54,0,0,0,2.61-1.65l-1-.28a1.6,1.6,0,0,1-1.64,1,2,2,0,0,1-2-2.17h4.75v-.42c0-2.44-1.44-3.28-2.81-3.28-1.77,0-2.95,1.4-2.95,3.41S239.72,55.55,241.61,55.55Zm-2-3.94a2,2,0,0,1,1.94-1.92,1.77,1.77,0,0,1,1.79,1.92ZM100.62,74.41h1l1.43-5h.1l1.43,5h1l2-6.54H106.5l-1.42,5H105l-1.38-5h-1.08l-1.4,5h-.06l-1.42-5H98.62Zm8.27,0h1V67.87h-1Zm.51-7.63a.69.69,0,1,0,0-1.37.69.69,0,1,0,0,1.37Zm5.18,1.09h-1.4V66.3h-1v1.57h-1v.85h1v4.09A1.68,1.68,0,0,0,114,74.5a2.16,2.16,0,0,0,.75-.12l-.2-.9a2.69,2.69,0,0,1-.45,0c-.44,0-.87-.14-.87-1V68.72h1.4Zm2.66,2.61A1.64,1.64,0,0,1,119,68.69a1.44,1.44,0,0,1,1.52,1.63v4.09h1V70.25c0-1.68-.89-2.47-2.23-2.47a1.91,1.91,0,0,0-1.93,1.11h-.08v-3.2h-1v8.72h1ZM129.34,77c1.57,0,2.83-.71,2.83-2.4V67.87h-1v1h-.1a2,2,0,0,0-1.91-1.13c-1.66,0-2.8,1.32-2.8,3.33s1.19,3.2,2.78,3.2a2,2,0,0,0,1.91-1.11h.08v1.33c0,1.09-.76,1.59-1.82,1.59a2,2,0,0,1-1.87-1l-.81.56A2.89,2.89,0,0,0,129.34,77Zm0-3.59c-1.26,0-1.91-1-1.91-2.32s.63-2.4,1.91-2.4,1.87,1,1.87,2.4S130.52,73.41,129.31,73.41Zm4.7,1h1V70.27a1.55,1.55,0,0,1,1.65-1.53,2.7,2.7,0,0,1,.61.07v-1h-.52a1.78,1.78,0,0,0-1.71,1.09H135v-1h-1Zm7,.14a2.55,2.55,0,0,0,2.61-1.65l-1-.28a1.6,1.6,0,0,1-1.64,1,2,2,0,0,1-2-2.17h4.75v-.42c0-2.44-1.45-3.28-2.81-3.28-1.77,0-2.95,1.4-2.95,3.41S139.13,74.55,141,74.55Zm-2-3.94a2,2,0,0,1,1.94-1.92,1.77,1.77,0,0,1,1.79,1.92Zm9,3.94a2.53,2.53,0,0,0,2.6-1.65l-1-.28a1.59,1.59,0,0,1-1.63,1,2,2,0,0,1-2-2.17h4.76v-.42c0-2.44-1.45-3.28-2.82-3.28-1.77,0-3,1.4-3,3.41S146.11,74.55,148,74.55Zm-2-3.94a2,2,0,0,1,1.94-1.92,1.77,1.77,0,0,1,1.79,1.92Zm7.29-.13a1.62,1.62,0,0,1,1.67-1.79,1.45,1.45,0,0,1,1.5,1.63v4.09h1V70.25c0-1.67-.89-2.47-2.22-2.47a1.94,1.94,0,0,0-1.91,1.11h-.08v-1h-1v6.54h1ZM162,74.55a2.55,2.55,0,0,0,2.61-1.65l-1-.28a1.6,1.6,0,0,1-1.64,1,2,2,0,0,1-2-2.17h4.75v-.42c0-2.44-1.45-3.28-2.81-3.28-1.78,0-2.95,1.4-2.95,3.41S160.12,74.55,162,74.55Zm-2-3.94a2,2,0,0,1,1.94-1.92,1.77,1.77,0,0,1,1.79,1.92Zm6.28,3.8h1V70.27a1.55,1.55,0,0,1,1.66-1.53,2.78,2.78,0,0,1,.61.07v-1H169a1.78,1.78,0,0,0-1.7,1.09h-.07v-1h-1Zm5.31,2.46a2,2,0,0,0,1.93-1.5l2.78-7.48-1.1,0-1.8,5.21h-.07l-1.81-5.21H170.4l2.42,6.58-.19.51c-.36,1-.81,1.09-1.55.9l-.25.89A2,2,0,0,0,171.56,76.87ZM181,74.41h1V67.87h-1Zm.51-7.63a.69.69,0,1,0,0-1.37.69.69,0,1,0,0,1.37Zm3.34,3.7a1.62,1.62,0,0,1,1.67-1.79,1.44,1.44,0,0,1,1.5,1.63v4.09h1V70.25c0-1.67-.89-2.47-2.22-2.47a1.94,1.94,0,0,0-1.91,1.11h-.08v-1h-1v6.54h1Zm9.39,3.93h1V70.32a1.55,1.55,0,0,1,1.48-1.63,1.21,1.21,0,0,1,1.3,1.24v4.48h1V70.15a1.37,1.37,0,0,1,1.45-1.46A1.22,1.22,0,0,1,201.81,70v4.38h1V70c0-1.54-.82-2.25-2-2.25a2.06,2.06,0,0,0-2,1.11h-.07A1.79,1.79,0,0,0,197,67.78a1.75,1.75,0,0,0-1.75,1.11h-.09v-1h-1Zm10.43,0h1V67.87h-1Zm.51-7.63a.69.69,0,1,0-.71-.68A.7.7,0,0,0,205.16,66.78Zm3.34,3.7a1.62,1.62,0,0,1,1.68-1.79,1.45,1.45,0,0,1,1.5,1.63v4.09h1V70.25c0-1.67-.89-2.47-2.21-2.47a1.93,1.93,0,0,0-1.91,1.11h-.09v-1h-1v6.54h1ZM217,74.55a2,2,0,0,0,1.91-1.14H219v1h1V65.69h-1v3.22h-.08A2,2,0,0,0,217,67.78c-1.66,0-2.8,1.32-2.8,3.38S215.35,74.55,217,74.55Zm.14-.9c-1.26,0-1.91-1.11-1.91-2.51s.63-2.45,1.91-2.45,1.87,1,1.87,2.45S218.34,73.65,217.13,73.65Zm5.57.83a.77.77,0,1,0-.76-.77A.76.76,0,0,0,222.7,74.48Z"/></g></svg>