<svg xmlns="http://www.w3.org/2000/svg" xmlns:xlink="http://www.w3.org/1999/xlink" viewBox="0 0 294.96 98.23"><defs><style>.cls-1{fill:none;}.cls-2,.cls-8{fill:#fff;}.cls-2{fill-opacity:0.12;}.cls-3{clip-path:url(#clip-path);}.cls-4{fill:#b0cbff;}.cls-5{clip-path:url(#clip-path-2);}.cls-6{fill:#172f63;}.cls-7{fill:#4b72ff;}.cls-9{fill:#1d3dae;}.cls-10{fill:#dfdfdf;}</style><clipPath id="clip-path"><path id="SVGID" class="cls-1" d="M49.07,16h0A33.12,33.12,0,0,1,82.19,49.11h0A33.12,33.12,0,0,1,49.07,82.23h0A33.12,33.12,0,0,1,16,49.11h0A33.12,33.12,0,0,1,49.07,16Z"/></clipPath><clipPath id="clip-path-2"><rect id="SVGID-2" data-name="SVGID" class="cls-1" x="24.24" y="32.1" width="49.67" height="33.57"/></clipPath></defs><title>illustration</title><g id="houses"><rect class="cls-2" x="-0.04" width="295" height="98.23" rx="8"/><g class="cls-3"><rect class="cls-4" x="15.96" y="16" width="66.23" height="66.23"/><g class="cls-5"><path class="cls-6" d="M31.23,34.07H29.48V46.31h1.75Z"/><path class="cls-6" d="M32.33,34.07a2,2,0,1,1-2-2A2,2,0,0,1,32.33,34.07Z"/><path class="cls-6" d="M31.23,42.89v1.27c-.47.12-1.17.35-1.75.52V43.29A14.75,14.75,0,0,1,31.23,42.89Z"/><path class="cls-6" d="M28.2,49.79a1.94,1.94,0,0,1-1.52,1.91,1.22,1.22,0,0,1-.46.06.72.72,0,0,1-.35-.06,1.9,1.9,0,0,1-1.63-1.91,2,2,0,0,1,1.57-1.92c.12,0,.23-.06.41-.06a1.22,1.22,0,0,1,.46.06A2,2,0,0,1,28.2,49.79Z"/><path class="cls-6" d="M42.41,49.79a5.71,5.71,0,0,1-1.69,4.05,5.78,5.78,0,0,1-4.08,1.69H31.75a5,5,0,0,1-1-.12,5.76,5.76,0,0,1-3.09-9.74,5.91,5.91,0,0,1,2.92-1.57A7.47,7.47,0,0,1,31.75,44h4.89A5.88,5.88,0,0,1,42.41,49.79Z"/><path class="cls-6" d="M33.61,55.29a.58.58,0,0,1,0,.29H31.63a5.08,5.08,0,0,1-1-.11,12.37,12.37,0,0,1-1.92-5.69,7.41,7.41,0,0,1,1.75-5.62A7.74,7.74,0,0,1,31.63,44h1.58C34.55,46.36,33.79,53.26,33.61,55.29Z"/><path class="cls-6" d="M68.61,34.07H66.86V46.31h1.75Z"/><path class="cls-6" d="M65.76,34.07a2,2,0,1,0,2-2A2,2,0,0,0,65.76,34.07Z"/><path class="cls-6" d="M66.86,42.89v1.27c.47.12,1.17.35,1.75.52V43.29A10.39,10.39,0,0,0,66.86,42.89Z"/><path class="cls-6" d="M70,49.79a2,2,0,1,0,2-2A2,2,0,0,0,70,49.79Z"/><path class="cls-6" d="M55.74,49.79a5.77,5.77,0,0,0,5.77,5.74H66.4a5,5,0,0,0,1-.12,5.75,5.75,0,0,0,3.08-9.74,5.84,5.84,0,0,0-2.91-1.57A7.59,7.59,0,0,0,66.4,44H61.51A5.88,5.88,0,0,0,55.74,49.79Z"/><path class="cls-6" d="M64.48,55.29a.58.58,0,0,0,0,.29h1.93a5.08,5.08,0,0,0,1-.11,12.37,12.37,0,0,0,1.92-5.69,7.41,7.41,0,0,0-1.75-5.62A7.74,7.74,0,0,0,66.46,44H64.88C63.6,46.36,64.3,53.26,64.48,55.29Z"/><path class="cls-7" d="M67.62,49.32a12,12,0,0,1-.29,2.44,11.21,11.21,0,0,1-3.09,5.56,11.36,11.36,0,0,1-8,3.31H41.71a11.36,11.36,0,0,1-11.07-8.87,11,11,0,0,1,1.11-7.89,11.69,11.69,0,0,1,1.92-2.55,11.38,11.38,0,0,1,8-3.31H56.27a11.33,11.33,0,0,1,9.84,5.74A11,11,0,0,1,67.62,49.32Z"/><path class="cls-6" d="M39.67,51.7a3.31,3.31,0,1,1,0-6.61H57.9a3.31,3.31,0,1,1,0,6.61Z"/><path class="cls-8" d="M42.35,49.84a2,2,0,1,1,0-2.78A1.89,1.89,0,0,1,42.35,49.84Z"/><path class="cls-8" d="M58.42,49.84a2,2,0,1,1,0-2.78A1.88,1.88,0,0,1,58.42,49.84Z"/><path class="cls-9" d="M54.58,57.73H42.52A1.74,1.74,0,0,1,40.78,56v-.12a1.75,1.75,0,0,1,1.74-1.74H54.58a1.75,1.75,0,0,1,1.74,1.74V56A1.74,1.74,0,0,1,54.58,57.73Z"/><path class="cls-10" d="M55,55.93v.18a1.19,1.19,0,0,1-.29.52,1,1,0,0,1-.7.29H43a.94.94,0,0,1-.93-.76V56a1,1,0,0,1,.29-.7,1,1,0,0,1,.7-.29H54.17A.91.91,0,0,1,55,55.93Z"/><path class="cls-6" d="M49.1,65.67h-.23a3.1,3.1,0,0,1-3.09-3.07v-2h6.41v2A3.1,3.1,0,0,1,49.1,65.67Z"/></g></g><path class="cls-8" d="M101.45,35.51l1.28-3h6.7l1.26,3h3.44l-5.9-13.4H104l-5.86,13.4Zm3.7-8.58.82-2.08h.22l.82,2.08,1.26,2.92h-4.38Zm13.28,8.58V22.11h-3v13.4Zm8.85,0v-3.7h4c3.1,0,5.1-1.78,5.1-4.86s-2-4.84-5.1-4.84h-7v13.4ZM131,24.81c1.66,0,2.44.5,2.44,2.14s-.78,2.16-2.44,2.16h-3.68v-4.3Zm12.43,10.9c3.42,0,5.72-2,5.72-5.2s-2.3-5.22-5.72-5.22-5.72,2-5.72,5.22S140,35.71,143.39,35.71Zm0-2.66c-2,0-2.74-.78-2.74-2.54s.7-2.58,2.74-2.58,2.74.82,2.74,2.58S145.41,33.05,143.39,33.05Zm13.22,2.46,1.74-4.82.76-2.76h.22l.74,2.76,1.72,4.82h3.74l2.84-10h-3.06l-1.16,4.58-.44,3.12h-.2l-.8-3.42-1.5-4.28h-3.86l-1.52,4.28-.8,3.42h-.2l-.42-3.12-1.18-4.58h-3.1l2.74,10Zm18.49.2c3.18,0,5.3-1.52,5.3-3.7v-.22h-3V32c0,.86-.62,1.32-2.4,1.32-1.94,0-2.66-.66-2.74-2.2h8.16a7.46,7.46,0,0,0,.08-1c0-3.14-2.18-4.86-5.46-4.86s-5.56,2-5.56,5.22C169.48,34.07,171.76,35.71,175.1,35.71ZM175,27.63c1.76,0,2.56.58,2.64,1.9H172.3C172.44,28.23,173.2,27.63,175,27.63Zm10.39,7.88v-5.8c0-1.26.48-1.88,1.82-1.88s1.66.48,1.66,1.58v1h3V28.79c0-2-.92-3.5-3.16-3.5a3.19,3.19,0,0,0-3.36,2.86h-.18V25.49h-2.78v10Zm13.48.2c3.18,0,5.3-1.52,5.3-3.7v-.22h-3V32c0,.86-.62,1.32-2.4,1.32-1.94,0-2.66-.66-2.74-2.2h8.16a7.46,7.46,0,0,0,.08-1c0-3.14-2.18-4.86-5.46-4.86s-5.56,2-5.56,5.22C193.23,34.07,195.51,35.71,198.85,35.71Zm-.12-8.08c1.76,0,2.56.58,2.64,1.9h-5.32C196.19,28.23,197,27.63,198.73,27.63Zm11.88,8.08c2.3,0,3.62-1,4-3h.16v2.78h2.8V22.11h-3v6h-.18c-.34-1.68-1.56-2.86-3.94-2.86-3,0-4.68,2-4.68,5.22S207.49,35.71,210.61,35.71Zm-1.8-5.2c0-1.84.9-2.48,2.82-2.48s2.94.64,2.94,2.38v.16c0,1.74-1,2.4-2.94,2.4S208.81,32.33,208.81,30.51Z"/><path class="cls-8" d="M99.24,55.51h1.06V52.32h1.91a2.78,2.78,0,1,0,0-5.54h-3Zm1.06-4.13V47.72h1.86c1.42,0,2,.77,2,1.82a1.7,1.7,0,0,1-1.94,1.84Zm9,4.26c1.78,0,3-1.34,3-3.37s-1.19-3.39-3-3.39-3,1.34-3,3.39S107.54,55.64,109.31,55.64Zm0-.9c-1.34,0-2-1.16-2-2.47s.62-2.49,2-2.49,2,1.18,2,2.49S110.66,54.74,109.31,54.74Zm5.77.77h1l1.44-5h.1l1.43,5h1L122,49H121l-1.42,5h-.07l-1.38-5H117l-1.4,5h-.07l-1.41-5h-1.06Zm10.78.13A2.54,2.54,0,0,0,128.47,54l-1-.27a1.61,1.61,0,0,1-1.64,1,2,2,0,0,1-2-2.16h4.75v-.43c0-2.44-1.44-3.27-2.81-3.27-1.77,0-3,1.39-3,3.41S124,55.64,125.86,55.64Zm-2-3.93a2,2,0,0,1,1.94-1.93,1.78,1.78,0,0,1,1.79,1.93Zm6.28,3.8h1V51.37a1.55,1.55,0,0,1,1.65-1.54,2.9,2.9,0,0,1,.62.07v-1l-.53,0A1.78,1.78,0,0,0,131.14,50h-.06V49h-1Zm7,.13A2.54,2.54,0,0,0,139.72,54l-1-.27a1.61,1.61,0,0,1-1.64,1,2,2,0,0,1-2-2.16h4.75v-.43c0-2.44-1.44-3.27-2.81-3.27-1.77,0-2.95,1.39-2.95,3.41S135.22,55.64,137.11,55.64Zm-2-3.93A2,2,0,0,1,137,49.78a1.78,1.78,0,0,1,1.79,1.93Zm8.76,3.93a2,2,0,0,0,1.91-1.14h.11v1h1V46.78h-1V50h-.08a2,2,0,0,0-1.9-1.12c-1.65,0-2.79,1.31-2.79,3.37S142.19,55.64,143.83,55.64Zm.13-.9c-1.26,0-1.91-1.11-1.91-2.5s.63-2.46,1.91-2.46,1.88,1,1.88,2.46S145.17,54.74,144,54.74Zm9.71.77h1l1.44-5h.1l1.43,5h1l2-6.55h-1l-1.42,5h-.07l-1.38-5h-1.07l-1.4,5h-.07l-1.41-5h-1.06Zm8.26,0h1V49h-1Zm.51-7.64a.68.68,0,1,0,0-1.36.68.68,0,1,0,0,1.36ZM167.63,49h-1.4V47.39h-1V49h-1v.85h1v4.1A1.67,1.67,0,0,0,167,55.59a2.16,2.16,0,0,0,.75-.12l-.21-.9a1.74,1.74,0,0,1-.44,0c-.44,0-.87-.13-.87-1V49.81h1.4Zm2.66,2.61A1.64,1.64,0,0,1,172,49.78a1.45,1.45,0,0,1,1.51,1.64v4.09h1V51.35c0-1.68-.89-2.47-2.23-2.47A1.9,1.9,0,0,0,170.37,50h-.08V46.78h-1v8.73h1Zm10,3.94.88-2.47h3.53l.87,2.47h1.11l-3.2-8.73h-1.09l-3.21,8.73Zm1.21-3.41,1.4-3.94h.07l1.39,3.94Zm7.6-5.32H188v8.73h1.06Zm2.71,8.8a.77.77,0,0,0,0-1.54.77.77,0,0,0,0,1.54Zm6.09-.07h5.33v-.94H198.9v-3h3.94v-.93H198.9v-3h4.21v-.94h-5.26Zm10-6.55h-1.47V48.3c0-.65.27-1,.94-1a1.63,1.63,0,0,1,.56.1l.29-.87a2.29,2.29,0,0,0-1-.17,1.7,1.7,0,0,0-1.85,1.69V49h-1v.85h1v5.7h1v-5.7h1.47Zm4.32,0h-1.47V48.3c0-.65.28-1,.94-1a1.63,1.63,0,0,1,.56.1l.29-.87a2.29,2.29,0,0,0-.95-.17,1.69,1.69,0,0,0-1.84,1.69V49h-1.06v.85h1.06v5.7h1v-5.7h1.47Zm1.41,6.55h1V49h-1Zm.51-7.64a.68.68,0,1,0,0-1.36.68.68,0,1,0,0,1.36Zm5,7.77a2.42,2.42,0,0,0,2.57-2h-1A1.53,1.53,0,0,1,219,54.74c-1.2,0-2-1-2-2.5s.78-2.46,2-2.46a1.55,1.55,0,0,1,1.57,1.14h1a2.44,2.44,0,0,0-2.59-2c-1.77,0-3,1.39-3,3.39S217.2,55.64,219,55.64Zm4-.13h1V49h-1Zm.51-7.64a.68.68,0,1,0,0-1.36.68.68,0,1,0,0,1.36Zm5.08,7.77A2.55,2.55,0,0,0,231.28,54l-1-.27a1.61,1.61,0,0,1-1.64,1,2,2,0,0,1-2-2.16h4.75v-.43c0-2.44-1.45-3.27-2.81-3.27-1.77,0-2.95,1.39-2.95,3.41S226.78,55.64,228.67,55.64Zm-2-3.93a2,2,0,0,1,1.94-1.93,1.78,1.78,0,0,1,1.79,1.93Zm7.29-.14a1.62,1.62,0,0,1,1.67-1.79,1.45,1.45,0,0,1,1.5,1.64v4.09h1V51.35c0-1.67-.89-2.47-2.21-2.47A1.93,1.93,0,0,0,234,50h-.09V49h-1v6.55h1ZM242.78,49h-1.4V47.39h-1V49h-1v.85h1v4.1a1.67,1.67,0,0,0,1.77,1.68,2.16,2.16,0,0,0,.75-.12l-.21-.9a1.74,1.74,0,0,1-.44,0c-.44,0-.87-.13-.87-1V49.81h1.4Zm6.81,6.7a2.06,2.06,0,0,0,1.95-1h.05v.89h1V51.2a2.15,2.15,0,0,0-2.42-2.32,2.65,2.65,0,0,0-2.62,1.53l.95.34a1.77,1.77,0,0,1,1.71-1,1.22,1.22,0,0,1,1.38,1.33v0c0,.48-.5.44-1.69.59s-2.54.43-2.54,1.93A2,2,0,0,0,249.59,55.66Zm.16-.9c-.8,0-1.38-.36-1.38-1.06s.69-1,1.48-1.11a5.3,5.3,0,0,0,1.74-.37v.92A1.68,1.68,0,0,1,249.75,54.76Zm5.68-3.19a1.62,1.62,0,0,1,1.67-1.79,1.44,1.44,0,0,1,1.5,1.64v4.09h1V51.35c0-1.67-.89-2.47-2.22-2.47a1.91,1.91,0,0,0-1.9,1.11h-.09V49h-1v6.55h1Zm8.49,4.07a2,2,0,0,0,1.91-1.14H266v1h1V46.78h-1V50h-.08a2,2,0,0,0-1.89-1.12c-1.66,0-2.8,1.31-2.8,3.37S262.28,55.64,263.92,55.64Zm.14-.9c-1.27,0-1.91-1.11-1.91-2.5s.63-2.46,1.91-2.46,1.87,1,1.87,2.46S265.27,54.74,264.06,54.74ZM99.6,74.51l.88-2.47H104l.88,2.47H106l-3.2-8.73H101.7l-3.21,8.73Zm1.21-3.41,1.4-3.94h.07l1.4,3.94Zm9.07,3.54a2.42,2.42,0,0,0,2.57-2h-1a1.52,1.52,0,0,1-1.56,1.14c-1.2,0-2-1-2-2.5s.78-2.46,2-2.46a1.53,1.53,0,0,1,1.56,1.14h1a2.44,2.44,0,0,0-2.59-2c-1.77,0-3,1.39-3,3.39S108,74.64,109.88,74.64Zm6.7,0a2.42,2.42,0,0,0,2.57-2h-1a1.53,1.53,0,0,1-1.57,1.14c-1.19,0-2-1-2-2.5s.78-2.46,2-2.46a1.54,1.54,0,0,1,1.57,1.14h1a2.44,2.44,0,0,0-2.59-2c-1.77,0-3,1.39-3,3.39S114.74,74.64,116.58,74.64Zm8.17-2.81a1.7,1.7,0,0,1-1.69,1.79,1.43,1.43,0,0,1-1.43-1.57V68h-1v4.16c0,1.67.89,2.47,2.12,2.47a2,2,0,0,0,1.94-1.19h.07v1.11h1V68h-1Zm2.85,2.68h1V70.37a1.55,1.55,0,0,1,1.66-1.54,2.88,2.88,0,0,1,.61.07v-1l-.53,0a1.77,1.77,0,0,0-1.7,1.09h-.07V68h-1Zm6.39.15a2,2,0,0,0,1.94-1h0v.89h1V70.2a2.15,2.15,0,0,0-2.42-2.32,2.66,2.66,0,0,0-2.63,1.53l1,.34a1.76,1.76,0,0,1,1.7-1A1.21,1.21,0,0,1,136,70.09v0c0,.48-.49.44-1.69.59s-2.54.43-2.54,1.93A2,2,0,0,0,134,74.66Zm.15-.9c-.8,0-1.38-.36-1.38-1.06s.7-1,1.48-1.11a5.25,5.25,0,0,0,1.74-.37v.92A1.68,1.68,0,0,1,134.14,73.76Zm7.53-5.8h-1.4V66.39h-1V68h-1v.85h1v4.1A1.67,1.67,0,0,0,141,74.59a2.16,2.16,0,0,0,.75-.12l-.21-.9a1.74,1.74,0,0,1-.44.05c-.44,0-.87-.13-.87-1V68.81h1.4Zm4.19,6.68a2.53,2.53,0,0,0,2.6-1.65l-1-.27a1.6,1.6,0,0,1-1.63,1,2,2,0,0,1-2-2.16h4.75v-.43c0-2.44-1.45-3.27-2.82-3.27-1.77,0-2.94,1.39-2.94,3.41S144,74.64,145.86,74.64Zm-2-3.93a1.94,1.94,0,0,1,1.93-1.93,1.77,1.77,0,0,1,1.79,1.93Zm7,3.87a.77.77,0,1,0-.77-.77A.78.78,0,0,0,150.83,74.58Z"/></g></svg>