<svg xmlns="http://www.w3.org/2000/svg" xmlns:xlink="http://www.w3.org/1999/xlink" viewBox="0 0 1497.22 920.68"><defs><style>.cls-1,.cls-21{fill:none;}.cls-2{clip-path:url(#clip-path);}.cls-3{fill:#3057e0;}.cls-4{opacity:0.06;}.cls-5,.cls-6,.cls-7{fill:#e5f8ff;}.cls-10,.cls-32,.cls-37,.cls-38,.cls-5,.cls-6{fill-rule:evenodd;}.cls-6{opacity:0.08;}.cls-19,.cls-26,.cls-29,.cls-6{isolation:isolate;}.cls-8{fill:#040d27;}.cls-9{fill:#03123c;}.cls-10,.cls-11{fill:#fff;}.cls-12{opacity:0.85;}.cls-13{opacity:0.88;}.cls-14{fill:#172f63;}.cls-15{fill:#1d3dae;}.cls-16{opacity:0.74;}.cls-17{fill:url(#linear-gradient);}.cls-18{fill:url(#linear-gradient-2);}.cls-19,.cls-20{fill:#b0cbff;}.cls-19{opacity:0.2;}.cls-21{stroke:#b0cbff;stroke-width:4px;}.cls-22{fill:#8bffea;}.cls-23{clip-path:url(#clip-path-2);}.cls-24{fill:#0a6f7c;}.cls-25,.cls-26,.cls-29{fill:#14bad0;}.cls-26{opacity:0.3;}.cls-27{fill:#083f51;}.cls-28,.cls-29{opacity:0.5;}.cls-30{fill:#fff2c4;}.cls-31{clip-path:url(#clip-path-3);}.cls-32{fill:#ffba37;}.cls-33{clip-path:url(#clip-path-4);}.cls-34,.cls-37{fill:#4b72ff;}.cls-35{fill:#dfdfdf;}.cls-36{clip-path:url(#clip-path-5);}.cls-38{fill:#74a3ff;}</style><clipPath id="clip-path"><rect id="SVGID" class="cls-1" x="2042.01" y="-965.11" width="1587" height="773"/></clipPath><linearGradient id="linear-gradient" x1="1251.42" y1="-7678.58" x2="1236.62" y2="-7677.94" gradientTransform="matrix(1, 0, 0, -1, 0, -7173.79)" gradientUnits="userSpaceOnUse"><stop offset="0" stop-color="#151617"/><stop offset="1" stop-color="#151617" stop-opacity="0"/></linearGradient><linearGradient id="linear-gradient-2" x1="315.03" y1="-7679.08" x2="329.83" y2="-7678.43" xlink:href="#linear-gradient"/><clipPath id="clip-path-2"><rect id="SVGID-2" data-name="SVGID" class="cls-1" x="478.65" y="54.9" width="85.72" height="81.13"/></clipPath><clipPath id="clip-path-3"><rect id="SVGID-3" data-name="SVGID" class="cls-1" x="1025" y="786.46" width="63.33" height="88.33"/></clipPath><clipPath id="clip-path-4"><rect id="SVGID-4" data-name="SVGID" class="cls-1" x="1011.55" y="73.19" width="90.11" height="60.91"/></clipPath><clipPath id="clip-path-5"><rect id="SVGID-5" data-name="SVGID" class="cls-1" x="514.11" y="802.7" width="93" height="60"/></clipPath></defs><title>illustration</title><g id="buildings"><g class="cls-2"><rect class="cls-3" x="1384.62" y="-349.38" width="971.02" height="405.55"/></g></g><g id="houses"><g class="cls-4"><path class="cls-5" d="M1159.06,212.72h110V188.9h-110Z"/><path class="cls-6" d="M1107.24,471.13A149.67,149.67,0,0,0,957.56,321.46H827.84v24.66H957.56a125,125,0,0,1,125,125V483h24.67Z"/><path class="cls-5" d="M1283.82,270.71a114.47,114.47,0,0,1,114.47,114.47h23.81a138.28,138.28,0,1,0-138.28,138.27V499.64a114.47,114.47,0,0,1,0-228.93Z"/><path class="cls-5" d="M1283.82,450.89a65.71,65.71,0,1,1,65.71-65.71A65.71,65.71,0,0,1,1283.82,450.89Zm0-25.1a40.62,40.62,0,1,1,40.62-40.61A40.61,40.61,0,0,1,1283.82,425.79Z"/><path class="cls-7" d="M1082.71,577a66,66,0,1,0,66-66V536.2A40.79,40.79,0,1,1,1107.92,577h0V511.15h-25.21V577Z"/><path class="cls-7" d="M1327.23,660.91a66,66,0,1,0,66-66v25.21a40.79,40.79,0,1,1-40.8,40.79V495.07h-25.2V660.9Z"/><path class="cls-5" d="M1328.31,188.9C1412.1,196.68,1478,263.49,1478,364V486.87h-24.67V364c0-79-52.09-135.41-125-150.38Z"/><path class="cls-7" d="M496.91,491.41V339a162.5,162.5,0,1,0-325,0v11.17H195.6V339a138.82,138.82,0,1,1,277.63,0v152.4Z"/><path class="cls-7" d="M346.33,585.44A162.49,162.49,0,0,0,573,623.54l9.1-6.48-13.73-19.29-9.11,6.48a138.86,138.86,0,0,1-217.86-92.73l-22.91,6.81A162,162,0,0,0,346.33,585.44Z"/><path class="cls-7" d="M262.32,547.62A144.07,144.07,0,0,1,118.25,691.69H106.79V668h11.46A120.33,120.33,0,0,0,238.58,547.62l0-12V517.87a93.54,93.54,0,0,1,93.54-93.55h11.59V448H332.1a69.87,69.87,0,0,0-69.86,69.87V534.1Z"/><path class="cls-7" d="M202.28,575.81A144.07,144.07,0,0,1,0,600.2l14.66-18.68A120.33,120.33,0,0,0,183.6,561.16Z"/><path class="cls-7" d="M622.18,517.78V410h23.68V517.78a93.38,93.38,0,0,1-36.39,74.06l-14-19.13A69.73,69.73,0,0,0,622.18,517.78Z"/><path class="cls-5" d="M557.7,327.67H534V502.05a51.38,51.38,0,0,1-51.38,51.38c-29.9,0-56.5-25.28-57.1-51.64l-.25-70.15H401.54l.27,70.67c.46,20.35,10.75,39.06,25.36,52.48s34.46,22.38,55.41,22.38a75.12,75.12,0,0,0,75.12-75.12Z"/><path class="cls-5" d="M285.86,317.38a63.25,63.25,0,1,1,63.25,63.25A63.25,63.25,0,0,1,285.86,317.38Zm24.16,0a39.09,39.09,0,1,1,39.09,39.09A39.09,39.09,0,0,1,310,317.38Z"/><path class="cls-7" d="M171.07,453.83h0v7.36a70.62,70.62,0,0,1-70.62,70.62v24.35a95,95,0,0,0,95-95V392.92H171.07Z"/></g><path class="cls-8" d="M1272.08,519.26c.75-34.3-1.67-95.71-9.66-100.89-3.81-2.47-10-2.19-13.06,0-4.28,3-6.26,16-6.7,35.21s-3.49,165.67-3.93,179.66c-.35,11.19-3.35,27.39-4.81,34.09l33.22,15.74h11.8c-.29-1.46-1.4-8.4-3.49-24.48S1272.33,559,1272.08,519.26Z"/><path class="cls-8" d="M297.7,519.26c-.75-34.3,1.67-95.71,9.66-100.89,3.81-2.47,10-2.19,13.06,0,4.28,3,6.26,16,6.7,35.21s3.49,165.67,3.93,179.66c.35,11.19,3.35,27.39,4.81,34.09l-33.22,15.74h-11.8c.29-1.46,1.4-8.4,3.49-24.48S297.45,559,297.7,519.26Z"/><path class="cls-9" d="M615.71,289.08c16.64-27.23,51.75-104,165.34-104s139.66,56.14,155.14,79.37c21.09,31.64,35.8,58.29,74.52,80.23,31,17.55,91.49,46.26,123.65,60.53l4.88-19.55a6,6,0,0,1,5.82-4.55h12a6,6,0,0,1,6,5.4l3.21,31.77,81.91,38.59V560.12c-66.3-15.89-205.72-49.32-233.05-55.95-34.16-8.28-59,24.85-70.39,40.38s-21.74,40.37-58,97.3-71.5,63.94-105.67,63.94-72.51-15.11-99.29-63.94c-14.08-25.67-41.06-71.42-52.8-91.09-11.38-18.64-42-54-73.49-46.59s-171.16,39-237.06,53.83V459.66c22-10.47,53-25.2,85.06-40.36l3.83-35.65a6,6,0,0,1,6-5.36h12a6,6,0,0,1,5.78,4.4l5.8,20.9c43.27-20.32,83.53-39,101-46.41C579.27,339.58,599.08,316.3,615.71,289.08Z"/><path class="cls-10" d="M722,502.18h4l1.94-4.4h8.35l1.95,4.4h4.08l-8-17.85H730Zm7.48-7.76,2-4.52.67-1.62.66,1.62,2,4.52Z"/><path class="cls-11" d="M743.49,486.94h3.65v-3.22h-3.65Z"/><path class="cls-11" d="M743.49,502.18h3.65V488.71h-3.65Z"/><path class="cls-11" d="M749.76,502.18h3.65v-7.51a3.42,3.42,0,0,1,.6-2.26,2.42,2.42,0,0,1,2-.72,2.24,2.24,0,0,1,1.69.51,2.3,2.3,0,0,1,.48,1.66v.35h3.62v-.88a5.23,5.23,0,0,0-1.08-3.39,4.28,4.28,0,0,0-3.47-1.49,4.7,4.7,0,0,0-3.3,1.19,4.61,4.61,0,0,0-.74.9v-1.83h-3.42Z"/><path class="cls-10" d="M763.58,502.18H767v-2.12a4.72,4.72,0,0,0,1.19,1.29,6.18,6.18,0,0,0,3.76,1.08,6.37,6.37,0,0,0,4.91-2,7.32,7.32,0,0,0,1.69-5,7.46,7.46,0,0,0-1.66-5,6.88,6.88,0,0,0-8.59-.83,4.62,4.62,0,0,0-1.07,1.14v-6.39h-3.65Zm3.65-6.6v-.2a3.4,3.4,0,0,1,1-2.66,4.28,4.28,0,0,1,2.94-.87,4.1,4.1,0,0,1,2.81.78,3.54,3.54,0,0,1,.95,2.83,3.49,3.49,0,0,1-.94,2.79,5.49,5.49,0,0,1-5.74-.08A3.24,3.24,0,0,1,767.23,495.58Z"/><path class="cls-10" d="M806.65,501a5.17,5.17,0,0,0,1-1.16v2.3h3.41V488.71h-3.62v6.67a3.85,3.85,0,0,1-.86,2.78,3.65,3.65,0,0,1-2.75.91,3.49,3.49,0,0,1-2.54-.76,3.1,3.1,0,0,1-.74-2.32v-7.28h-3.62v8a5.91,5.91,0,0,0,1.42,4,5.62,5.62,0,0,0,4.3,1.68A5.89,5.89,0,0,0,806.65,501Z"/><path class="cls-11" d="M813.63,502.18h3.64v-6.67a4,4,0,0,1,.84-2.79,3.54,3.54,0,0,1,2.7-.9,3.36,3.36,0,0,1,2.48.75,3.15,3.15,0,0,1,.73,2.33v7.28h3.64v-8a5.89,5.89,0,0,0-1.41-4,5.54,5.54,0,0,0-4.25-1.69,5.78,5.78,0,0,0-4,1.4,5.34,5.34,0,0,0-1,1.17v-2.31h-3.42Z"/><path class="cls-10" d="M840.88,484.33v6.39a4.86,4.86,0,0,0-1.08-1.14,6.2,6.2,0,0,0-3.8-1.13,6.11,6.11,0,0,0-4.76,2,7.42,7.42,0,0,0-1.68,5,7.29,7.29,0,0,0,1.71,5,6.4,6.4,0,0,0,4.91,2,6.13,6.13,0,0,0,3.74-1.08,4.69,4.69,0,0,0,1.18-1.29v2.12h3.42V484.33Zm-7.65,11.13a3.57,3.57,0,0,1,.95-2.83,4.1,4.1,0,0,1,2.78-.78,4.32,4.32,0,0,1,2.94.87,3.37,3.37,0,0,1,1,2.66v.2a3.24,3.24,0,0,1-1,2.59A4.27,4.27,0,0,1,837,499a4.22,4.22,0,0,1-2.83-.77A3.45,3.45,0,0,1,833.23,495.46Z"/><path class="cls-10" d="M787.41,502.43a7.73,7.73,0,0,0,5.39-1.93,7.22,7.22,0,0,0,0-10.12,8.45,8.45,0,0,0-10.75,0,7.22,7.22,0,0,0,0,10.12A7.68,7.68,0,0,0,787.41,502.43Zm0-3.34a4,4,0,0,1-3-.92,3.67,3.67,0,0,1-.87-2.71,3.79,3.79,0,0,1,.87-2.76,4,4,0,0,1,3-.93,4.05,4.05,0,0,1,3,.93,3.79,3.79,0,0,1,.88,2.76,3.63,3.63,0,0,1-.88,2.71A4.05,4.05,0,0,1,787.41,499.09Z"/><g class="cls-12"><path class="cls-10" d="M722,502.18h4l1.94-4.4h8.35l1.95,4.4h4.08l-8-17.85H730Zm7.48-7.76,2-4.52.67-1.62.66,1.62,2,4.52Z"/><path class="cls-11" d="M743.49,486.94h3.65v-3.22h-3.65Z"/><path class="cls-11" d="M743.49,502.18h3.65V488.71h-3.65Z"/><path class="cls-11" d="M749.76,502.18h3.65v-7.51a3.42,3.42,0,0,1,.6-2.26,2.42,2.42,0,0,1,2-.72,2.24,2.24,0,0,1,1.69.51,2.3,2.3,0,0,1,.48,1.66v.35h3.62v-.88a5.23,5.23,0,0,0-1.08-3.39,4.28,4.28,0,0,0-3.47-1.49,4.7,4.7,0,0,0-3.3,1.19,4.61,4.61,0,0,0-.74.9v-1.83h-3.42Z"/><path class="cls-10" d="M763.58,502.18H767v-2.12a4.72,4.72,0,0,0,1.19,1.29,6.18,6.18,0,0,0,3.76,1.08,6.37,6.37,0,0,0,4.91-2,7.32,7.32,0,0,0,1.69-5,7.46,7.46,0,0,0-1.66-5,6.88,6.88,0,0,0-8.59-.83,4.62,4.62,0,0,0-1.07,1.14v-6.39h-3.65Zm3.65-6.6v-.2a3.4,3.4,0,0,1,1-2.66,4.28,4.28,0,0,1,2.94-.87,4.1,4.1,0,0,1,2.81.78,3.54,3.54,0,0,1,.95,2.83,3.49,3.49,0,0,1-.94,2.79,5.49,5.49,0,0,1-5.74-.08A3.24,3.24,0,0,1,767.23,495.58Z"/><path class="cls-10" d="M806.65,501a5.17,5.17,0,0,0,1-1.16v2.3h3.41V488.71h-3.62v6.67a3.85,3.85,0,0,1-.86,2.78,3.65,3.65,0,0,1-2.75.91,3.49,3.49,0,0,1-2.54-.76,3.1,3.1,0,0,1-.74-2.32v-7.28h-3.62v8a5.91,5.91,0,0,0,1.42,4,5.62,5.62,0,0,0,4.3,1.68A5.89,5.89,0,0,0,806.65,501Z"/><path class="cls-11" d="M813.63,502.18h3.64v-6.67a4,4,0,0,1,.84-2.79,3.54,3.54,0,0,1,2.7-.9,3.36,3.36,0,0,1,2.48.75,3.15,3.15,0,0,1,.73,2.33v7.28h3.64v-8a5.89,5.89,0,0,0-1.41-4,5.54,5.54,0,0,0-4.25-1.69,5.78,5.78,0,0,0-4,1.4,5.34,5.34,0,0,0-1,1.17v-2.31h-3.42Z"/><path class="cls-10" d="M840.88,484.33v6.39a4.86,4.86,0,0,0-1.08-1.14,6.2,6.2,0,0,0-3.8-1.13,6.11,6.11,0,0,0-4.76,2,7.42,7.42,0,0,0-1.68,5,7.29,7.29,0,0,0,1.71,5,6.4,6.4,0,0,0,4.91,2,6.13,6.13,0,0,0,3.74-1.08,4.69,4.69,0,0,0,1.18-1.29v2.12h3.42V484.33Zm-7.65,11.13a3.57,3.57,0,0,1,.95-2.83,4.1,4.1,0,0,1,2.78-.78,4.32,4.32,0,0,1,2.94.87,3.37,3.37,0,0,1,1,2.66v.2a3.24,3.24,0,0,1-1,2.59A4.27,4.27,0,0,1,837,499a4.22,4.22,0,0,1-2.83-.77A3.45,3.45,0,0,1,833.23,495.46Z"/><path class="cls-10" d="M787.41,502.43a7.73,7.73,0,0,0,5.39-1.93,7.22,7.22,0,0,0,0-10.12,8.45,8.45,0,0,0-10.75,0,7.22,7.22,0,0,0,0,10.12A7.68,7.68,0,0,0,787.41,502.43Zm0-3.34a4,4,0,0,1-3-.92,3.67,3.67,0,0,1-.87-2.71,3.79,3.79,0,0,1,.87-2.76,4,4,0,0,1,3-.93,4.05,4.05,0,0,1,3,.93,3.79,3.79,0,0,1,.88,2.76,3.63,3.63,0,0,1-.88,2.71A4.05,4.05,0,0,1,787.41,499.09Z"/></g><path class="cls-11" d="M739.74,365.36,756,372.51c4.66-8.59,13.78-12.7,23.27-11.27s15.15,8.92,17.18,13.24c4.11,8.77,5.41,22.26-2.11,35.5L811.18,418a60.07,60.07,0,0,0,3.16-47.25c-5.25-14.93-17.9-25.27-34.15-27.74C758.56,339.78,743.74,356.41,739.74,365.36Z"/><path class="cls-11" d="M766.52,458.53c16,4.45,47.23,1.93,61.24-32.68L811.18,418c-13.09,27.68-30.71,25.06-41.22,22.31-7.78-2-17.21-9.26-17.21-20.24,0-13.24,13-24.07,28.31-18.82,0,0,2.49-16.86,2.35-17C771,380.35,755.89,381,743,397.53c-8.39,10.73-10,27.12-3.45,39.81C744.54,447.15,754.38,455.14,766.52,458.53Z"/><g class="cls-13"><path class="cls-11" d="M739.47,365.36l16.28,7.15c4.65-8.59,13.78-12.7,23.27-11.27s15.14,8.92,17.17,13.24c4.12,8.77,5.42,22.26-2.1,35.5L810.91,418a60.07,60.07,0,0,0,3.16-47.25c-5.26-14.93-17.9-25.27-34.15-27.74C758.29,339.78,743.46,356.41,739.47,365.36Z"/><path class="cls-11" d="M766.25,458.54c15.94,4.45,47.22,1.92,61.24-32.69L810.91,418c-13.09,27.69-30.71,25.06-41.22,22.32-7.78-2-17.22-9.26-17.22-20.25,0-13.23,13-24.07,28.32-18.82,0,0,2.49-16.86,2.34-17-12.37-3.91-27.51-3.27-40.44,13.26-8.39,10.73-10,27.12-3.45,39.81C744.26,447.15,754.11,455.15,766.25,458.54Z"/></g><path class="cls-14" d="M1063.5,361.86v-2.79c9.52-.34,31.3-1.59,42.23-1.59s32.31,1.36,41.63,2v1.92Z"/><path class="cls-14" d="M1238.8,361.86v-2.79c-9.53-.34-31.3-1.59-42.24-1.59s-32.3,1.36-41.62,2v1.92Z"/><path class="cls-14" d="M1140,366.09a2,2,0,0,1,.38-1.17l9.33-12.82a2,2,0,0,1,3.29.08l8.4,12.76a2.05,2.05,0,0,1,.33,1.1v7a2,2,0,0,1-2,2H1142a2,2,0,0,1-2-2Z"/><path class="cls-14" d="M334.33,361.86v-2.79c9.52-.34,31.3-1.59,42.24-1.59s32.3,1.36,41.62,2v1.92Z"/><path class="cls-14" d="M509.63,361.86v-2.79c-9.52-.34-31.3-1.59-42.24-1.59s-32.3,1.36-41.62,2v1.92Z"/><path class="cls-14" d="M408.51,366.09a2,2,0,0,1,.38-1.17l9.33-12.82a2,2,0,0,1,3.28.08l8.4,12.76a2,2,0,0,1,.33,1.1v7a2,2,0,0,1-2,2H410.51a2,2,0,0,1-2-2Z"/><path class="cls-15" d="M538.86,444.78,318.33,517.56v40.71L543.39,507.2Z"/><path class="cls-15" d="M1027.6,444.78l220.54,72.78V560.1l-225-53.73Z"/><g class="cls-16"><path class="cls-17" d="M1248.25,560.36V456.18l-19.12-8.06-5.87,105.4Z"/></g><g class="cls-16"><path class="cls-18" d="M318.29,558.83V458.7l19.12-8.07L342.88,553Z"/></g><circle class="cls-19" cx="720.47" cy="254.14" r="16"/><circle class="cls-20" cx="720.47" cy="254.14" r="10.22"/><path class="cls-21" d="M720.28,253.4l-67-154.73H577.07"/><path class="cls-11" d="M241.91,77.46V73.14H228.57V68.82h12.86V64.53H228.57V60.34h13.34V56H223.77V77.46Zm11.68.32c5.15,0,8.67-2.78,8.67-6.91v-.45h-4.77v.26c0,2-1.5,2.78-4,2.78-2.85,0-4.16-1-4.16-4s1.31-4,4.16-4c2.5,0,4,.74,4,2.78v.26h4.77V68c0-4.16-3.52-6.91-8.67-6.91-5.51,0-9,3.23-9,8.35S248.08,77.78,253.59,77.78Zm20.24,0c5.47,0,9.15-3.26,9.15-8.32s-3.68-8.35-9.15-8.35-9.16,3.23-9.16,8.35S268.35,77.78,273.83,77.78Zm0-4.25c-3.27,0-4.39-1.25-4.39-4.07s1.12-4.13,4.39-4.13,4.38,1.32,4.38,4.13S277.06,73.53,273.83,73.53Zm23.68-3.46V65.94H285.58v4.13Zm8,7.39v-8h12.87V65.17H305.5V60.34h13.35V56H300.7V77.46Zm21.15,0V68.18c0-2,.77-3,2.91-3,1.95,0,2.66.77,2.66,2.53v1.67H337V66.71c0-3.14-1.47-5.6-5.06-5.6a5.09,5.09,0,0,0-5.37,4.58h-.29V61.43h-4.45v16ZM344.52,59.8V56h-4.8V59.8Zm0,17.66v-16h-4.8v16Zm12,.32c5.09,0,8.48-2.43,8.48-5.92v-.35h-4.8v.32c0,1.38-1,2.11-3.84,2.11-3.1,0-4.26-1-4.38-3.52H365a10.88,10.88,0,0,0,.13-1.53c0-5-3.49-7.78-8.74-7.78s-8.89,3.23-8.89,8.35C347.51,75.16,351.16,77.78,356.5,77.78Zm-.19-12.93c2.81,0,4.09.93,4.22,3H352C352.24,65.81,353.46,64.85,356.31,64.85Zm16.63,12.61V69.37c0-2.72,1.08-3.94,4.12-3.94s4,1.09,4,3.65v8.38h4.8v-10c0-3.55-2.08-6.37-6.46-6.37-4.19,0-6.11,2.56-6.53,5.25h-.29V61.43h-4.44v16Zm23.48.32c3.68,0,5.79-1.6,6.4-4.77h.26v4.45h4.48V56h-4.8v9.67h-.29c-.55-2.69-2.5-4.58-6.31-4.58-4.76,0-7.48,3.23-7.48,8.35S391.43,77.78,396.42,77.78Zm-2.88-8.32c0-2.94,1.44-4,4.51-4s4.71,1,4.71,3.81v.26c0,2.78-1.67,3.84-4.71,3.84S393.54,72.37,393.54,69.46Zm22.32,8V56h-4.8V77.46Zm6.54,5.44c4,0,6.18-.93,7.71-4.29l7.94-17.18H432.7l-3,7.3-1.28,3.8h-.32l-1.34-3.77-3.39-7.33h-5.44l7.84,16.1c-.32.7-.83,1-2,1h-3.93V82.9Z"/><path class="cls-11" d="M243.71,109.46h7.11v-1.25h-5.7v-3.95h5.25V103h-5.25V99.08h5.61V97.83h-7Zm12.92.18a3.24,3.24,0,0,0,3.44-2.72h-1.34a2,2,0,0,1-2.1,1.52c-1.59,0-2.61-1.32-2.61-3.34s1-3.27,2.61-3.27a2,2,0,0,1,2.1,1.52h1.34a3.26,3.26,0,0,0-3.46-2.73c-2.36,0-3.93,1.87-3.93,4.52S254.18,109.64,256.63,109.64Zm8.94,0c2.36,0,4-1.79,4-4.5s-1.6-4.52-4-4.52-3.95,1.8-3.95,4.52S263.21,109.64,265.57,109.64Zm0-1.2c-1.79,0-2.61-1.55-2.61-3.3s.82-3.31,2.61-3.31,2.61,1.56,2.61,3.31S267.37,108.44,265.57,108.44Zm11-4.59h-5.09v1.25h5.09Zm6.25-3.11h-2v-.89c0-.86.37-1.32,1.25-1.32a1.91,1.91,0,0,1,.75.14l.39-1.16a3.08,3.08,0,0,0-1.27-.23,2.26,2.26,0,0,0-2.46,2.25v1.21h-1.41v1.13h1.41v7.59h1.34v-7.59h2Zm1.88,8.72H286v-5.52a2.07,2.07,0,0,1,2.2-2,3.44,3.44,0,0,1,.82.1v-1.37l-.7,0a2.38,2.38,0,0,0-2.28,1.45H286v-1.31H284.7Zm5.95,0H292v-8.72h-1.34Zm.68-10.18a.91.91,0,1,0-.95-.91A.94.94,0,0,0,291.33,99.28Zm6.78,10.36a3.38,3.38,0,0,0,3.47-2.2l-1.29-.36a2.13,2.13,0,0,1-2.18,1.36,2.64,2.64,0,0,1-2.72-2.89h6.33V105c0-3.25-1.93-4.37-3.75-4.37-2.36,0-3.93,1.87-3.93,4.55S295.58,109.64,298.11,109.64Zm-2.72-5.25a2.6,2.6,0,0,1,2.58-2.56,2.37,2.37,0,0,1,2.39,2.56Zm9.71-.18a2.16,2.16,0,0,1,2.23-2.38,1.93,1.93,0,0,1,2,2.18v5.45h1.34v-5.54c0-2.23-1.19-3.3-3-3.3a2.57,2.57,0,0,0-2.54,1.48h-.11v-1.36h-1.3v8.72h1.34Zm11.32,5.43a2.68,2.68,0,0,0,2.54-1.52h.16v1.34h1.3V97.83h-1.35v4.29H319a2.66,2.66,0,0,0-2.52-1.5c-2.21,0-3.73,1.75-3.73,4.5S314.23,109.64,316.42,109.64Zm.18-1.2c-1.68,0-2.55-1.48-2.55-3.34s.84-3.27,2.55-3.27,2.5,1.31,2.5,3.27S318.21,108.44,316.6,108.44Zm7.8-10.61h-1.34v11.63h1.34Zm3.32,14.91a2.64,2.64,0,0,0,2.57-2l3.71-10-1.46,0-2.41,7H330l-2.41-7h-1.46l3.23,8.77-.25.68c-.49,1.33-1.09,1.45-2.07,1.2l-.34,1.19A2.83,2.83,0,0,0,327.72,112.74Zm15.85-3.1a2.71,2.71,0,0,0,2.55-1.52h.16v1.34h1.29V97.83h-1.34v4.29h-.11a2.68,2.68,0,0,0-2.53-1.5c-2.2,0-3.72,1.75-3.72,4.5S341.39,109.64,343.57,109.64Zm.18-1.2c-1.68,0-2.54-1.48-2.54-3.34s.84-3.27,2.54-3.27,2.5,1.31,2.5,3.27S345.37,108.44,343.75,108.44Zm6.46,1h1.34v-5.52a2.07,2.07,0,0,1,2.21-2,3.44,3.44,0,0,1,.82.1v-1.37l-.71,0a2.38,2.38,0,0,0-2.27,1.45h-.09v-1.31h-1.3Zm9.24.18c2.36,0,3.95-1.79,3.95-4.5s-1.59-4.52-3.95-4.52-4,1.8-4,4.52S357.08,109.64,359.45,109.64Zm0-1.2c-1.8,0-2.62-1.55-2.62-3.3s.82-3.31,2.62-3.31,2.61,1.56,2.61,3.31S361.24,108.44,359.45,108.44Zm7.34-4.23a2.16,2.16,0,0,1,2.23-2.38,1.93,1.93,0,0,1,2,2.18v5.45h1.34v-5.54c0-2.23-1.19-3.3-3-3.3a2.56,2.56,0,0,0-2.54,1.48h-.12v-1.36h-1.29v8.72h1.34Zm11.68,5.43a3.37,3.37,0,0,0,3.47-2.2l-1.29-.36a2.13,2.13,0,0,1-2.18,1.36c-1.58,0-2.66-1-2.73-2.89h6.34V105c0-3.25-1.93-4.37-3.75-4.37-2.36,0-3.93,1.87-3.93,4.55S375.94,109.64,378.47,109.64Zm-2.73-5.25a2.62,2.62,0,0,1,2.59-2.56,2.36,2.36,0,0,1,2.39,2.56Zm14.56-1.7a2.94,2.94,0,0,0-3.09-2.07c-1.84,0-3.2,1-3.2,2.52,0,1.21.71,2,2.31,2.39l1.46.34c.88.21,1.29.63,1.29,1.23,0,.75-.79,1.36-2,1.36a1.83,1.83,0,0,1-2-1.41l-1.28.32c.32,1.49,1.54,2.27,3.32,2.27,2,0,3.41-1.1,3.41-2.61,0-1.21-.76-2-2.32-2.36l-1.29-.32c-1-.26-1.5-.6-1.5-1.27s.79-1.3,1.86-1.3A1.85,1.85,0,0,1,389.1,103Zm6.68,6.77h1.34V104a2.07,2.07,0,0,1,2-2.18,1.61,1.61,0,0,1,1.72,1.66v6h1.37v-5.68a1.82,1.82,0,0,1,1.93-2,1.63,1.63,0,0,1,1.77,1.79v5.84h1.34v-5.84c0-2.05-1.1-3-2.66-3a2.76,2.76,0,0,0-2.61,1.48h-.09a2.4,2.4,0,0,0-2.34-1.48,2.35,2.35,0,0,0-2.34,1.48h-.12v-1.36H397Zm16.47.21a2.76,2.76,0,0,0,2.6-1.39h.06v1.18h1.34v-5.75c0-2.77-2.11-3.09-3.22-3.09a3.55,3.55,0,0,0-3.5,2l1.27.45a2.37,2.37,0,0,1,2.27-1.32,1.62,1.62,0,0,1,1.84,1.78v0c0,.65-.66.59-2.25.8s-3.38.57-3.38,2.57A2.7,2.7,0,0,0,413.45,109.67Zm.21-1.21c-1.07,0-1.84-.47-1.84-1.41s.93-1.34,2-1.47a7,7,0,0,0,2.31-.5v1.22A2.24,2.24,0,0,1,413.66,108.46Zm9.54,1.18a2.68,2.68,0,0,0,2.54-1.52h.16v1.34h1.3V97.83h-1.34v4.29h-.12a2.66,2.66,0,0,0-2.52-1.5c-2.2,0-3.73,1.75-3.73,4.5S421,109.64,423.2,109.64Zm.18-1.2c-1.68,0-2.55-1.48-2.55-3.34s.84-3.27,2.55-3.27,2.5,1.31,2.5,3.27S425,108.44,423.38,108.44Zm10.12,1.2a3.4,3.4,0,0,0,3.48-2.2l-1.3-.36a2.13,2.13,0,0,1-2.18,1.36,2.64,2.64,0,0,1-2.72-2.89h6.33V105c0-3.25-1.93-4.37-3.75-4.37-2.36,0-3.93,1.87-3.93,4.55S431,109.64,433.5,109.64Zm-2.72-5.25a2.6,2.6,0,0,1,2.58-2.56,2.36,2.36,0,0,1,2.39,2.56ZM272.94,135.46h1.32l1.91-6.7h.13l1.91,6.7h1.32l2.66-8.72h-1.41l-1.89,6.65h-.09L277,126.74h-1.43l-1.86,6.68h-.09l-1.89-6.68h-1.41Zm11,0h1.34v-8.72H284Zm.68-10.18a.91.91,0,1,0-.95-.91A.94.94,0,0,0,284.64,125.28Zm6.92,1.46h-1.87v-2.1h-1.34v2.1H287v1.13h1.32v5.46a2.23,2.23,0,0,0,2.36,2.25,2.74,2.74,0,0,0,1-.16l-.27-1.21a2.14,2.14,0,0,1-.59.07c-.59,0-1.16-.18-1.16-1.32v-5.09h1.87Zm3.54,3.47a2.19,2.19,0,0,1,2.3-2.38,1.92,1.92,0,0,1,2,2.18v5.45h1.34v-5.54c0-2.25-1.19-3.3-3-3.3a2.55,2.55,0,0,0-2.57,1.48h-.11v-4.27h-1.34v11.63h1.34Zm16.14,8.71c2.09,0,3.77-1,3.77-3.21v-9h-1.3v1.38h-.13a2.71,2.71,0,0,0-2.55-1.5c-2.2,0-3.73,1.75-3.73,4.43s1.59,4.28,3.71,4.28a2.64,2.64,0,0,0,2.54-1.48h.12v1.77c0,1.46-1,2.12-2.43,2.12a2.72,2.72,0,0,1-2.5-1.32l-1.07.75A3.85,3.85,0,0,0,311.24,138.92Zm-.05-4.8c-1.68,0-2.55-1.27-2.55-3.09s.85-3.2,2.55-3.2,2.5,1.31,2.5,3.2S312.8,134.12,311.19,134.12Zm6.27,1.34h1.34v-5.52a2.07,2.07,0,0,1,2.21-2,3.44,3.44,0,0,1,.82.1v-1.37l-.71,0a2.38,2.38,0,0,0-2.27,1.45h-.09v-1.31h-1.3Zm9.35.18a3.4,3.4,0,0,0,3.48-2.2l-1.3-.36a2.13,2.13,0,0,1-2.18,1.36,2.65,2.65,0,0,1-2.72-2.89h6.33V131c0-3.25-1.93-4.37-3.75-4.37-2.36,0-3.93,1.87-3.93,4.55S324.29,135.64,326.81,135.64Zm-2.72-5.25a2.6,2.6,0,0,1,2.58-2.56,2.36,2.36,0,0,1,2.39,2.56Zm12,5.25a3.4,3.4,0,0,0,3.48-2.2l-1.3-.36a2.13,2.13,0,0,1-2.18,1.36,2.65,2.65,0,0,1-2.72-2.89h6.34V131c0-3.25-1.94-4.37-3.75-4.37-2.37,0-3.94,1.87-3.94,4.55S333.6,135.64,336.12,135.64Zm-2.72-5.25a2.6,2.6,0,0,1,2.59-2.56,2.36,2.36,0,0,1,2.38,2.56Zm9.72-.18a2.16,2.16,0,0,1,2.22-2.38,1.92,1.92,0,0,1,2,2.18v5.45h1.34v-5.54c0-2.23-1.18-3.3-2.95-3.3a2.58,2.58,0,0,0-2.55,1.48h-.11v-1.36h-1.29v8.72h1.34Zm11.68,5.43a3.38,3.38,0,0,0,3.47-2.2l-1.29-.36a2.13,2.13,0,0,1-2.18,1.36c-1.58,0-2.66-1-2.73-2.89h6.34V131c0-3.25-1.93-4.37-3.75-4.37-2.36,0-3.93,1.87-3.93,4.55S352.27,135.64,354.8,135.64Zm-2.73-5.25a2.6,2.6,0,0,1,2.59-2.56,2.37,2.37,0,0,1,2.39,2.56Zm8.38,5.07h1.34v-5.52a2.07,2.07,0,0,1,2.2-2,3.44,3.44,0,0,1,.82.1v-1.37l-.7,0a2.38,2.38,0,0,0-2.28,1.45h-.09v-1.31h-1.29Zm7.08,3.28a2.64,2.64,0,0,0,2.57-2l3.71-10-1.46,0-2.41,7h-.09l-2.41-7H366l3.23,8.77-.25.68c-.49,1.33-1.09,1.45-2.07,1.2l-.34,1.19A2.88,2.88,0,0,0,367.53,138.74Zm12.56-3.28h1.34v-8.72h-1.34Zm.68-10.18a.91.91,0,1,0-.95-.91A.94.94,0,0,0,380.77,125.28Zm4.46,4.93a2.16,2.16,0,0,1,2.22-2.38,1.92,1.92,0,0,1,2,2.18v5.45h1.35v-5.54c0-2.23-1.19-3.3-3-3.3a2.55,2.55,0,0,0-2.54,1.48h-.12v-1.36h-1.29v8.72h1.34Zm12.51,5.25h1.35V130a2.07,2.07,0,0,1,2-2.18,1.61,1.61,0,0,1,1.73,1.66v6h1.36v-5.68a1.83,1.83,0,0,1,1.94-2,1.63,1.63,0,0,1,1.77,1.79v5.84h1.34v-5.84c0-2.05-1.1-3-2.66-3a2.76,2.76,0,0,0-2.61,1.48h-.09a2.42,2.42,0,0,0-2.35-1.48,2.36,2.36,0,0,0-2.34,1.48H399v-1.36h-1.3Zm13.91,0H413v-8.72h-1.34Zm.68-10.18a.91.91,0,1,0-.95-.91A.94.94,0,0,0,412.33,125.28Zm4.46,4.93a2.16,2.16,0,0,1,2.23-2.38,1.93,1.93,0,0,1,2,2.18v5.45h1.34v-5.54c0-2.23-1.19-3.3-3-3.3a2.56,2.56,0,0,0-2.54,1.48h-.12v-1.36h-1.29v8.72h1.34Zm11.31,5.43a2.7,2.7,0,0,0,2.55-1.52h.16v1.34h1.29V123.83h-1.34v4.29h-.11a2.67,2.67,0,0,0-2.52-1.5c-2.21,0-3.73,1.75-3.73,4.5S425.92,135.64,428.1,135.64Zm.19-1.2c-1.69,0-2.55-1.48-2.55-3.34s.84-3.27,2.55-3.27,2.5,1.31,2.5,3.27S429.9,134.44,428.29,134.44Zm7.43,1.11a1,1,0,1,0-1-1A1,1,0,0,0,435.72,135.55Z"/><rect class="cls-22" x="461.92" y="35.46" width="119.17" height="120" rx="59.58"/><g class="cls-23"><path class="cls-24" d="M525.31,98.59s-13.52.6-22.4-13.17A28,28,0,0,1,499.23,76c-1.75-8.7.06-17.52.85-20.62a.58.58,0,0,1,1-.24c4,4.35,20.89,6.43,27.23,21.75a24.39,24.39,0,0,1,1.45,4.77A19.19,19.19,0,0,1,525.31,98.59Z"/><path class="cls-24" d="M519.33,91.86a22.07,22.07,0,0,1,1,2.5Z"/><path class="cls-25" d="M518.25,106.64s-12.38,5.54-25.72-4c-6.34-4.59-9.9-12-11.83-18a52.44,52.44,0,0,1-2.05-8.88.53.53,0,0,1,.78-.53c5.31,2.56,21.79-1.67,33.45,10.25a27.71,27.71,0,0,1,3.62,4.65A18.92,18.92,0,0,1,518.25,106.64Z"/><path class="cls-26" d="M518.25,106.64s-12.38,5.54-25.72-4c-6.34-4.59-9.9-12-11.83-18l.06-.17s6.4,22.41,35.25,18.89c0,0,3-5.12.49-13.23A18.92,18.92,0,0,1,518.25,106.64Z"/><path class="cls-25" d="M564,73.56c-.73,5.36-2.6,11.92-7.25,17.28a21.31,21.31,0,0,1-22.09,7s-5.07-7.22-.49-16.75a20.64,20.64,0,0,1,1.63-2.86C544,65.87,559.12,66.76,563.4,63.66a.58.58,0,0,1,.91.36A56.11,56.11,0,0,1,564,73.56Z"/><path class="cls-26" d="M564,73.56c-.73,5.36-2.6,11.92-7.25,17.28a21.31,21.31,0,0,1-22.09,7s-5.07-7.22-.49-16.75c-.06.35-.9,9.48,2.48,12.93C536.6,94,556.1,96.8,564,73.56Z"/><path class="cls-27" d="M561.17,69.09c-.06.11-.18.29-.3.53a12.49,12.49,0,0,1-1.27,1.79,36.62,36.62,0,0,1-5.07,4.89c-.24.18-.42.36-.67.54-2.53,2.08-5.49,4.47-8.45,7.27a61.44,61.44,0,0,0-4.28,4.53,46.61,46.61,0,0,0-3.69,5.24c-.54,1-1,1.91-1.56,2.81s-.91,1.9-1.39,2.86-.79,2-1.21,2.92-.73,2-1,2.86-.6,1.91-.9,2.8-.49,1.85-.73,2.74c-.42,1.79-.78,3.52-1,5.07a6.53,6.53,0,0,0-.06,1.25,53.46,53.46,0,0,0,.12,6.2,74.38,74.38,0,0,0,1.69,12,37.71,37.71,0,0,1-3.75.42c-.78.06-1.51.06-2.29.06h-.9a19.06,19.06,0,0,1-2.66-.18,33.86,33.86,0,0,0,2.35-8.29,22.28,22.28,0,0,0-2-14.12.06.06,0,0,0-.06-.06c-.12-.24-.24-.42-.36-.66A53.71,53.71,0,0,0,513.06,101a43.36,43.36,0,0,0-5.62-4.83,63.57,63.57,0,0,0-6.09-3.94c-3.75-2.2-7.43-4-10.51-5.9-.24-.18-.54-.29-.78-.47a34.45,34.45,0,0,1-7.19-5.67,22.78,22.78,0,0,1-1.63-2c-.24-.3-.36-.54-.48-.6a6.58,6.58,0,0,0,.48.6c.36.47,1,1.13,1.69,1.9a34.72,34.72,0,0,0,7.37,5.37c.24.12.48.3.72.42,3.14,1.72,6.88,3.45,10.75,5.54a63.73,63.73,0,0,1,6.28,3.81A45.52,45.52,0,0,1,514,100a58.89,58.89,0,0,1,9.36,11.69c.72,1.25,1.39,2.5,2,3.81.06-.42.06-.89.12-1.43.12-1.19,0-2.56,0-4,0-.72-.06-1.49-.06-2.33a8,8,0,0,0-.06-1.19c-.06-.42-.06-.83-.12-1.25-.24-1.67-.3-3.46-.66-5.31s-.67-3.69-1.21-5.54c-.24-1-.54-1.85-.85-2.8l-.42-1.43c-.18-.48-.36-.9-.54-1.37-.73-1.85-1.39-3.7-2.3-5.49-.42-.89-.78-1.79-1.26-2.62s-1-1.67-1.39-2.44A22,22,0,0,0,515.11,76c-.48-.77-1-1.49-1.45-2.21-1-1.37-2-2.68-3-3.81s-1.69-2-2.47-2.8l-.25-.24c-.84-.89-1.62-1.61-2.23-2.21a26,26,0,0,0-2-1.72,23.07,23.07,0,0,1,2.11,1.66c.67.6,1.45,1.32,2.36,2.15l.3.3c.78.77,1.69,1.67,2.53,2.62,1,1.07,2.06,2.39,3.14,3.76.55.71,1,1.43,1.57,2.14A21.05,21.05,0,0,1,517.34,78c.49.77,1,1.61,1.51,2.44s.91,1.73,1.39,2.62c1,1.73,1.75,3.58,2.6,5.49.18.48.42.89.6,1.37l.48,1.43c.3,1,.67,1.91,1,2.86.6,1.91,1,3.82,1.45,5.66s.6,3.7.9,5.43a62.21,62.21,0,0,1,.61,9.06v.6c.3-1.38.6-2.75,1-4.24.24-.89.54-1.84.85-2.8s.6-1.91,1-2.86.73-1.91,1.15-2.92.91-2,1.33-2.92,1-1.91,1.51-2.92,1.14-1.91,1.69-2.8a37.74,37.74,0,0,1,4-5.25,62.82,62.82,0,0,1,4.47-4.47c3.08-2.74,6.16-5,8.75-7a7.86,7.86,0,0,0,.67-.54,39.33,39.33,0,0,0,5.19-4.71c.6-.72,1-1.37,1.33-1.79S561.05,69.2,561.17,69.09Z"/><g class="cls-28"><path class="cls-29" d="M487.88,77.61a33.92,33.92,0,0,1,4.29.06l2.05.18c.73.12,1.51.18,2.3.36s1.62.29,2.41.53,1.63.42,2.47.72,1.64.59,2.42.89,1.51.72,2.23,1.07a16,16,0,0,1,2,1.2c.3.24.6.41.9.65s.54.42.78.66A11.61,11.61,0,0,1,511,85.18c.36.36.61.78.85,1a7.35,7.35,0,0,1,.48.72,1.78,1.78,0,0,0,.18.24l-.84-.84c-.31-.24-.61-.53-1-.83a13.74,13.74,0,0,0-1.39-1,17.73,17.73,0,0,0-1.63-1.08c-.6-.36-1.33-.65-2-1-.36-.18-.72-.3-1.09-.48s-.72-.3-1.14-.48c-.79-.29-1.57-.59-2.36-.83a25,25,0,0,0-2.41-.71c-.79-.24-1.57-.42-2.36-.6-1.51-.36-2.95-.66-4.22-.9C489.57,77.85,487.88,77.61,487.88,77.61Z"/></g><g class="cls-28"><path class="cls-29" d="M536.06,81.07s.12-.36.36-1c.12-.29.3-.65.48-1a9.69,9.69,0,0,1,.79-1.31c.3-.48.66-1,1-1.43A13.83,13.83,0,0,1,540,74.87a9.23,9.23,0,0,0,.72-.78c.25-.24.55-.47.79-.71.54-.48,1.15-.9,1.75-1.37s1.27-.78,1.87-1.2,1.27-.65,1.93-1,1.27-.48,1.87-.72a14.37,14.37,0,0,1,1.69-.47c.55-.12,1-.3,1.45-.36s.85-.12,1.15-.18c.66-.06,1-.12,1-.12s-.37.12-1,.36a10.71,10.71,0,0,1-1.09.36c-.42.12-.84.36-1.38.53-.25.12-.49.18-.79.3s-.54.24-.84.36c-.55.3-1.15.54-1.75.83s-1.21.66-1.82,1A19.22,19.22,0,0,0,543.9,73c-.54.42-1.14.83-1.69,1.25-.24.24-.54.42-.78.66a6.19,6.19,0,0,1-.73.65c-.48.42-.9.9-1.38,1.31a17.39,17.39,0,0,0-1.15,1.32A34.8,34.8,0,0,0,536.06,81.07Z"/></g></g><circle class="cls-19" cx="828.52" cy="592.17" r="16"/><circle class="cls-20" cx="828.52" cy="592.17" r="10.22"/><path class="cls-21" d="M828.6,596.14,936.88,828.59h64.69"/><path class="cls-30" d="M1056.84,770.93h0a60,60,0,0,1,60,60h0a60,60,0,0,1-60,60h0a60,60,0,0,1-60-60h0A60,60,0,0,1,1056.84,770.93Z"/><g class="cls-31"><path class="cls-11" d="M1057,786.46c-7.41,7.81-19.18,14.17-31.74,16.82,0,.83-.06,5.47-.3,26.8-.32,28.48,26.76,42.57,31,44.72,4.11-1.86,31.71-15.56,32-44,.24-21.34.3-26,.3-26.81C1075.78,801,1064.27,794.43,1057,786.46Z"/><path class="cls-32" d="M1028.7,806c11-2.74,21-7.86,28.23-14.38l.07,0h0c7.09,6.66,16.93,12,27.82,14.94l-.26,24.12c-.13,11-4.67,20.95-13.53,29.48a62.87,62.87,0,0,1-14.55,10.35h0a4.09,4.09,0,0,0-.42.2,62.38,62.38,0,0,1-14.75-10.9c-8.67-8.71-13-18.72-12.87-29.75Z"/><path class="cls-11" d="M1044,826.34,1043.9,845c0,2.08,25.46,2.25,25.48.17l.13-18.69Zm14,10,0,5.3a1.3,1.3,0,0,1-1.29,1.28,1.28,1.28,0,0,1-1.28-1.3l0-5.3a3.14,3.14,0,0,1,1.33-6,3.13,3.13,0,0,1,1.24,6Z"/><path class="cls-11" d="M1067.27,825.17l-2.57,0v-1.26a7.93,7.93,0,0,0-15.86-.09v1.26l-2.57,0v-1.26a10.51,10.51,0,0,1,21,.15Z"/></g><path class="cls-11" d="M1146.92,799.93V794h6.4c5,0,8.16-2.85,8.16-7.78s-3.2-7.74-8.16-7.74h-11.2v21.44Zm5.89-17.12c2.66,0,3.91.8,3.91,3.42s-1.25,3.46-3.91,3.46h-5.89v-6.88ZM1169,799.93v-9.28c0-2,.76-3,2.91-3,2,0,2.65.77,2.65,2.53v1.66h4.8v-2.66c0-3.13-1.47-5.6-5-5.6a5.11,5.11,0,0,0-5.38,4.58h-.29v-4.26h-4.44v16Zm17.86-17.67v-3.77H1182v3.77Zm0,17.67v-16H1182v16Zm15.41,0,7.33-16h-5.25l-4.83,11.36h-.32l-4.8-11.36H1189l7.29,16Zm14.48.32c3.56,0,5.8-1.51,6.53-4h.26v3.68H1228v-9.41c0-4.19-2.53-6.95-7.87-6.95s-8.61,2.76-8.61,6.72v.1h4.83v-.13c0-1.82,1-2.46,3.42-2.46s3.49.57,3.49,2.65v.61l-6.88.71c-3.42.35-5.18,1.82-5.18,4.19C1211.17,798.65,1213.25,800.25,1216.7,800.25Zm-.7-4.61c0-.77.51-1.09,1.66-1.19l5.57-.64c-.13,2.28-1.89,3-5.15,3C1216.67,796.85,1216,796.5,1216,795.64Zm23.91,4.61c5.15,0,8.67-2.79,8.67-6.92v-.44h-4.77v.25c0,2.05-1.5,2.79-4,2.79-2.85,0-4.16-1.06-4.16-4s1.31-4,4.16-4c2.5,0,4,.74,4,2.79v.25h4.77v-.44c0-4.16-3.52-6.92-8.67-6.92-5.51,0-9,3.24-9,8.36S1234.4,800.25,1239.91,800.25Zm14.76,5.12c4,0,6.18-.93,7.72-4.29l7.93-17.19H1265l-3,7.3-1.28,3.81h-.32l-1.35-3.78-3.39-7.33h-5.44L1258,800c-.32.7-.83,1-2,1h-3.94v4.36Zm28.46-5.44v-8H1296v-4.29h-12.87v-4.83h13.35v-4.32h-18.15v21.44Zm21.15-17.67v-3.77h-4.8v3.77Zm0,17.67v-16h-4.8v16Zm8.28,0v-9.28c0-2,.76-3,2.91-3,2,0,2.65.77,2.65,2.53v1.66h4.8v-2.66c0-3.13-1.47-5.6-5.05-5.6a5.11,5.11,0,0,0-5.38,4.58h-.29v-4.26h-4.44v16Zm21.16.32c5,0,7.93-2,7.93-5,0-2.65-1.6-4.09-5.88-4.57l-3.43-.42c-2.11-.25-2.56-.61-2.56-1.44,0-1,.61-1.44,3-1.44,2.94,0,3.58.67,3.58,2v.19h4.8v-.1c0-3.9-3-5.89-8.22-5.89-5.5,0-7.9,2.24-7.9,5.06s1.79,4.13,5,4.48l4.51.54c1.89.26,2.37.52,2.37,1.41s-.61,1.38-3.17,1.38c-2.72,0-3.62-.39-3.62-1.83v-.28h-4.8v.09C1325.33,798.13,1328.31,800.25,1333.72,800.25Zm22.13-.32v-4.32H1353c-1.7,0-2.31-.42-2.31-2v-5.73h5.19v-4h-5.19v-3.1h-4.8v3.1h-2.53v4h2.53v6.27c0,4,2.27,5.8,6,5.8Z"/><path class="cls-11" d="M1142.25,820.29v11.64h1.32v-8.84h.11l3.64,8.84h1.27l3.64-8.84h.11v8.84h1.32V820.29H1152l-4,9.66h-.14l-4-9.66Zm16.62,11.84a2.73,2.73,0,0,0,2.59-1.39h.07v1.19h1.34v-5.75c0-2.78-2.11-3.09-3.22-3.09a3.54,3.54,0,0,0-3.5,2l1.27.46a2.34,2.34,0,0,1,2.27-1.32,1.62,1.62,0,0,1,1.84,1.77v.05c0,.64-.66.59-2.25.79s-3.38.57-3.38,2.57A2.69,2.69,0,0,0,1158.87,832.13Zm.21-1.2c-1.07,0-1.84-.48-1.84-1.41s.93-1.34,2-1.48a7,7,0,0,0,2.32-.5v1.23A2.24,2.24,0,0,1,1159.08,830.93Zm9.54,1.18a2.7,2.7,0,0,0,2.54-1.52h.16v1.34h1.3V820.29h-1.34v4.3h-.12a2.64,2.64,0,0,0-2.52-1.5c-2.21,0-3.73,1.75-3.73,4.5S1166.43,832.11,1168.62,832.11Zm.18-1.21c-1.68,0-2.55-1.47-2.55-3.34s.84-3.27,2.55-3.27,2.5,1.32,2.5,3.27S1170.41,830.9,1168.8,830.9Zm10.12,1.21a3.38,3.38,0,0,0,3.47-2.21l-1.29-.36a2.13,2.13,0,0,1-2.18,1.36,2.63,2.63,0,0,1-2.72-2.88h6.33v-.57c0-3.25-1.93-4.36-3.75-4.36-2.36,0-3.93,1.86-3.93,4.54S1176.39,832.11,1178.92,832.11Zm-2.72-5.25a2.6,2.6,0,0,1,2.58-2.57,2.37,2.37,0,0,1,2.39,2.57Zm14.85,5.07h1.32l1.91-6.71h.13l1.91,6.71h1.32l2.66-8.73h-1.41l-1.89,6.66h-.09l-1.84-6.66h-1.43l-1.86,6.68h-.1l-1.88-6.68h-1.41Zm11,0h1.34V823.2h-1.34Zm.68-10.19a.91.91,0,1,0-1-.9A.93.93,0,0,0,1202.75,821.74Zm6.91,1.46h-1.86v-2.09h-1.34v2.09h-1.32v1.14h1.32v5.45a2.23,2.23,0,0,0,2.36,2.25,2.74,2.74,0,0,0,1-.16l-.27-1.2a2.93,2.93,0,0,1-.59.06c-.59,0-1.16-.18-1.16-1.31v-5.09h1.86Zm3.55,3.48a2.19,2.19,0,0,1,2.29-2.39,1.93,1.93,0,0,1,2,2.18v5.46h1.34v-5.55c0-2.24-1.2-3.29-3-3.29a2.54,2.54,0,0,0-2.57,1.47h-.11v-4.27h-1.34v11.64h1.34Zm16.16,5.43a3.24,3.24,0,0,0,3.43-2.73h-1.34a2,2,0,0,1-2.09,1.52c-1.59,0-2.62-1.31-2.62-3.34s1-3.27,2.62-3.27a2.06,2.06,0,0,1,2.09,1.52h1.34a3.26,3.26,0,0,0-3.46-2.72c-2.36,0-3.93,1.86-3.93,4.52S1226.91,832.11,1229.37,832.11Zm10.89-3.75a2.27,2.27,0,0,1-2.25,2.38,1.9,1.9,0,0,1-1.91-2.09V823.2h-1.34v5.54c0,2.23,1.18,3.3,2.82,3.3a2.72,2.72,0,0,0,2.59-1.59h.09v1.48h1.34V823.2h-1.34Zm10-3.21a2.94,2.94,0,0,0-3.09-2.06c-1.84,0-3.21,1-3.21,2.52,0,1.2.72,2,2.32,2.38l1.45.35c.89.2,1.3.62,1.3,1.22,0,.75-.8,1.37-2,1.37a1.85,1.85,0,0,1-2-1.41l-1.27.32c.31,1.48,1.53,2.27,3.32,2.27,2,0,3.41-1.11,3.41-2.62,0-1.21-.77-2-2.32-2.36l-1.3-.32c-1-.25-1.5-.6-1.5-1.27s.8-1.3,1.87-1.3a1.83,1.83,0,0,1,1.88,1.25Zm6-1.95h-1.86v-2.09H1253v2.09h-1.32v1.14H1253v5.45a2.23,2.23,0,0,0,2.36,2.25,2.74,2.74,0,0,0,1-.16l-.27-1.2a3,3,0,0,1-.59.06c-.6,0-1.16-.18-1.16-1.31v-5.09h1.86Zm5.47,8.91c2.36,0,4-1.8,4-4.5s-1.59-4.52-4-4.52-4,1.79-4,4.52S1259.32,832.11,1261.68,832.11Zm0-1.21c-1.8,0-2.61-1.54-2.61-3.29s.81-3.32,2.61-3.32,2.61,1.57,2.61,3.32S1263.47,830.9,1261.68,830.9Zm6,1H1269v-5.46a2.07,2.07,0,0,1,2-2.18,1.61,1.61,0,0,1,1.73,1.66v6h1.36v-5.69a1.82,1.82,0,0,1,1.93-2,1.63,1.63,0,0,1,1.77,1.8v5.84h1.34v-5.84c0-2.06-1.1-3-2.65-3a2.77,2.77,0,0,0-2.62,1.47h-.09a2.39,2.39,0,0,0-2.34-1.47,2.34,2.34,0,0,0-2.34,1.47H1269V823.2h-1.3Zm17.57.18a3.39,3.39,0,0,0,3.47-2.21l-1.29-.36a2.13,2.13,0,0,1-2.18,1.36,2.64,2.64,0,0,1-2.73-2.88h6.34v-.57c0-3.25-1.93-4.36-3.75-4.36-2.36,0-3.93,1.86-3.93,4.54S1282.72,832.11,1285.25,832.11Zm-2.73-5.25a2.62,2.62,0,0,1,2.59-2.57,2.37,2.37,0,0,1,2.39,2.57Zm8.38,5.07h1.34V826.4a2.06,2.06,0,0,1,2.2-2,4.34,4.34,0,0,1,.82.09v-1.36c-.15,0-.5,0-.7,0a2.35,2.35,0,0,0-2.27,1.46h-.1V823.2h-1.29Zm10.45,3.27h1.34v-4.61h.12a2.7,2.7,0,0,0,2.54,1.52c2.18,0,3.71-1.75,3.71-4.52s-1.53-4.5-3.73-4.5a2.63,2.63,0,0,0-2.52,1.5h-.16V823.2h-1.3Zm1.32-7.64c0-1.95.86-3.27,2.5-3.27s2.55,1.43,2.55,3.27-.87,3.34-2.55,3.34S1302.67,829.54,1302.67,827.56Zm8.43,4.37h1.34V826.4a2.07,2.07,0,0,1,2.21-2,4.34,4.34,0,0,1,.82.09v-1.36c-.16,0-.51,0-.71,0a2.37,2.37,0,0,0-2.27,1.46h-.09V823.2h-1.3Zm6,0h1.34V823.2h-1.34Zm.68-10.19a.91.91,0,1,0,0-1.81.91.91,0,1,0,0,1.81ZM1328,823.2h-1.46l-2.41,6.95H1324l-2.41-6.95h-1.45l3.23,8.73h1.36Zm4.07,8.93a2.74,2.74,0,0,0,2.59-1.39h.07v1.19h1.34v-5.75c0-2.78-2.11-3.09-3.23-3.09a3.55,3.55,0,0,0-3.5,2l1.28.46a2.34,2.34,0,0,1,2.27-1.32,1.62,1.62,0,0,1,1.84,1.77v.05c0,.64-.66.59-2.25.79s-3.39.57-3.39,2.57A2.7,2.7,0,0,0,1332.06,832.13Zm.21-1.2c-1.07,0-1.85-.48-1.85-1.41s.94-1.34,2-1.48a7,7,0,0,0,2.32-.5v1.23A2.24,2.24,0,0,1,1332.27,830.93Zm9.78,1.18a3.24,3.24,0,0,0,3.44-2.73h-1.35a2,2,0,0,1-2.09,1.52c-1.59,0-2.61-1.31-2.61-3.34s1-3.27,2.61-3.27a2,2,0,0,1,2.09,1.52h1.35a3.26,3.26,0,0,0-3.46-2.72c-2.36,0-3.93,1.86-3.93,4.52S1339.6,832.11,1342.05,832.11Zm6.26,3.09a2.63,2.63,0,0,0,2.57-2l3.71-10-1.46,0-2.41,6.95h-.09l-2.41-6.95h-1.46L1350,832l-.25.68c-.49,1.33-1.09,1.46-2.07,1.21l-.34,1.18A2.65,2.65,0,0,0,1348.31,835.2Zm12.56-3.27h1.34V823.2h-1.34Zm.68-10.19a.91.91,0,1,0-1-.9A.93.93,0,0,0,1361.55,821.74Zm4.46,4.94a2.16,2.16,0,0,1,2.22-2.39,1.92,1.92,0,0,1,2,2.18v5.46h1.34v-5.55c0-2.23-1.18-3.29-3-3.29a2.59,2.59,0,0,0-2.55,1.47H1366V823.2h-1.3v8.73H1366Zm-223.94,31.25h1.34v-5.46a2.07,2.07,0,0,1,2-2.18,1.61,1.61,0,0,1,1.73,1.66v6h1.36v-5.69a1.82,1.82,0,0,1,1.93-2,1.63,1.63,0,0,1,1.77,1.8v5.84h1.35v-5.84c0-2.06-1.11-3-2.66-3a2.77,2.77,0,0,0-2.62,1.47h-.09a2.39,2.39,0,0,0-2.34-1.47,2.34,2.34,0,0,0-2.34,1.47h-.11V849.2h-1.3Zm13.91,0h1.34V849.2H1156Zm.68-10.19a.91.91,0,1,0,0-1.81.91.91,0,1,0,0,1.81Zm4.46,4.94a2.16,2.16,0,0,1,2.22-2.39,1.92,1.92,0,0,1,2,2.18v5.46h1.34v-5.55c0-2.23-1.18-3.29-3-3.29a2.59,2.59,0,0,0-2.55,1.47h-.11V849.2h-1.3v8.73h1.35Zm11.31,5.43a2.7,2.7,0,0,0,2.54-1.52h.16v1.34h1.3V846.29h-1.34v4.3H1175a2.63,2.63,0,0,0-2.52-1.5c-2.2,0-3.73,1.75-3.73,4.5S1170.25,858.11,1172.43,858.11Zm.18-1.21c-1.68,0-2.54-1.47-2.54-3.34s.84-3.27,2.54-3.27,2.5,1.32,2.5,3.27S1174.22,856.9,1172.61,856.9Zm7.44,1.12a1,1,0,1,0-1-1A1,1,0,0,0,1180.05,858Zm14.47-8.82h1.37c-.07-1.76-1.69-3.07-3.94-3.07s-4,1.3-4,3.25c0,1.57,1.13,2.5,3,3l1.43.41c1.23.34,2.32.78,2.32,1.93s-1.23,2.12-2.84,2.12c-1.39,0-2.61-.62-2.73-1.93h-1.45c.14,1.91,1.68,3.2,4.18,3.2,2.68,0,4.21-1.48,4.21-3.36,0-2.18-2.07-2.89-3.28-3.21l-1.18-.32c-.86-.22-2.25-.68-2.25-1.93s1-1.93,2.57-1.93S1194.39,848.05,1194.52,849.2Zm7.21,8.91c2.36,0,4-1.8,4-4.5s-1.59-4.52-4-4.52-4,1.79-4,4.52S1199.36,858.11,1201.73,858.11Zm0-1.21c-1.8,0-2.62-1.54-2.62-3.29s.82-3.32,2.62-3.32,2.61,1.57,2.61,3.32S1203.52,856.9,1201.73,856.9Zm11.36,4.3a2.63,2.63,0,0,0,2.57-2l3.72-10-1.47,0-2.41,6.95h-.09L1213,849.2h-1.45l3.22,8.77-.25.68c-.49,1.33-1.09,1.46-2.07,1.21l-.34,1.18A2.65,2.65,0,0,0,1213.09,861.2Zm11.29-3.09c2.37,0,4-1.8,4-4.5s-1.59-4.52-4-4.52-4,1.79-4,4.52S1222,858.11,1224.38,858.11Zm0-1.21c-1.79,0-2.61-1.54-2.61-3.29s.82-3.32,2.61-3.32,2.62,1.57,2.62,3.32S1226.18,856.9,1224.38,856.9Zm11.5-2.54a2.27,2.27,0,0,1-2.25,2.38,1.9,1.9,0,0,1-1.91-2.09V849.2h-1.34v5.54c0,2.23,1.19,3.3,2.82,3.3a2.71,2.71,0,0,0,2.59-1.59h.09v1.48h1.34V849.2h-1.34Zm5.22-8.07h-1.28v1.05a4,4,0,0,1-.88,2.25l.72.59a4,4,0,0,0,1.44-2.87Zm9.14,2.91h-1.46l-2.4,6.95h-.1l-2.4-6.95h-1.46l3.23,8.73H1247Zm5.12,8.91a3.39,3.39,0,0,0,3.47-2.21l-1.29-.36a2.13,2.13,0,0,1-2.18,1.36,2.64,2.64,0,0,1-2.73-2.88H1259v-.57c0-3.25-1.93-4.36-3.75-4.36-2.36,0-3.93,1.86-3.93,4.54S1252.83,858.11,1255.36,858.11Zm-2.73-5.25a2.61,2.61,0,0,1,2.59-2.57,2.37,2.37,0,0,1,2.39,2.57Zm14.22-.18a2.16,2.16,0,0,1,2.23-2.39,1.93,1.93,0,0,1,2,2.18v5.46h1.34v-5.55c0-2.23-1.19-3.29-3-3.29a2.57,2.57,0,0,0-2.54,1.47h-.12V849.2h-1.29v8.73h1.34Zm11.56,5.43c2.37,0,4-1.8,4-4.5s-1.59-4.52-4-4.52-4,1.79-4,4.52S1276.05,858.11,1278.41,858.11Zm0-1.21c-1.79,0-2.61-1.54-2.61-3.29s.82-3.32,2.61-3.32,2.62,1.57,2.62,3.32S1280.21,856.9,1278.41,856.9Zm9.8-7.7h-1.86v-2.09H1285v2.09h-1.32v1.14H1285v5.45a2.23,2.23,0,0,0,2.36,2.25,2.74,2.74,0,0,0,1-.16l-.27-1.2a3,3,0,0,1-.59.06c-.6,0-1.16-.18-1.16-1.31v-5.09h1.86Zm3.55,3.48a2.19,2.19,0,0,1,2.29-2.39,1.93,1.93,0,0,1,2,2.18v5.46h1.34v-5.55c0-2.24-1.19-3.29-3-3.29a2.53,2.53,0,0,0-2.57,1.47h-.11v-4.27h-1.35v11.64h1.35Zm8.11,5.25h1.34V849.2h-1.34Zm.68-10.19a.91.91,0,1,0-1-.9A.93.93,0,0,0,1300.55,847.74Zm4.46,4.94a2.16,2.16,0,0,1,2.22-2.39,1.92,1.92,0,0,1,2,2.18v5.46h1.34v-5.55c0-2.23-1.18-3.29-3-3.29a2.59,2.59,0,0,0-2.55,1.47H1305V849.2h-1.3v8.73H1305Zm11.54,8.7c2.09,0,3.77-1,3.77-3.2v-9H1319v1.39h-.13a2.7,2.7,0,0,0-2.55-1.5c-2.2,0-3.72,1.75-3.72,4.43s1.59,4.27,3.7,4.27a2.67,2.67,0,0,0,2.55-1.48h.11v1.78c0,1.45-1,2.11-2.43,2.11a2.72,2.72,0,0,1-2.5-1.32l-1.07.75A3.83,3.83,0,0,0,1316.55,861.38Zm0-4.79c-1.68,0-2.54-1.28-2.54-3.1s.84-3.2,2.54-3.2,2.5,1.32,2.5,3.2S1318.12,856.59,1316.5,856.59Zm14.57-7.39h-1.86v-2.09h-1.34v2.09h-1.32v1.14h1.32v5.45a2.23,2.23,0,0,0,2.36,2.25,2.74,2.74,0,0,0,1-.16l-.27-1.2a3,3,0,0,1-.59.06c-.6,0-1.16-.18-1.16-1.31v-5.09h1.86Zm5.47,8.91c2.36,0,4-1.8,4-4.5s-1.59-4.52-4-4.52-4,1.79-4,4.52S1334.17,858.11,1336.54,858.11Zm0-1.21c-1.8,0-2.62-1.54-2.62-3.29s.82-3.32,2.62-3.32,2.61,1.57,2.61,3.32S1338.33,856.9,1336.54,856.9Zm-192.49,27h1.32l1.91-6.71h.13l1.91,6.71h1.32l2.66-8.73h-1.41l-1.89,6.66h-.09l-1.84-6.66h-1.43l-1.86,6.68h-.1l-1.88-6.68h-1.41Zm14.27.18c2.36,0,4-1.8,4-4.5s-1.59-4.52-4-4.52-4,1.79-4,4.52S1156,884.11,1158.32,884.11Zm0-1.21c-1.8,0-2.61-1.54-2.61-3.29s.81-3.32,2.61-3.32,2.61,1.57,2.61,3.32S1160.12,882.9,1158.32,882.9Zm6,1h1.34V878.4a2.06,2.06,0,0,1,2.21-2,4.31,4.31,0,0,1,.81.09v-1.36c-.15,0-.5,0-.7,0a2.36,2.36,0,0,0-2.27,1.46h-.09V875.2h-1.3Zm6,0h1.35V878.4a2.06,2.06,0,0,1,2.2-2,4.34,4.34,0,0,1,.82.09v-1.36c-.16,0-.51,0-.71,0a2.37,2.37,0,0,0-2.27,1.46h-.09V875.2h-1.3Zm7.09,3.27a2.61,2.61,0,0,0,2.56-2l3.72-10-1.47,0-2.4,6.95h-.1l-2.4-6.95h-1.46L1179,884l-.25.68c-.49,1.33-1.09,1.46-2.07,1.21l-.34,1.18A2.61,2.61,0,0,0,1177.36,887.2Zm15.12-3.07a2.73,2.73,0,0,0,2.59-1.39h.07v1.19h1.34v-5.75c0-2.78-2.11-3.09-3.22-3.09a3.54,3.54,0,0,0-3.5,2l1.27.46a2.34,2.34,0,0,1,2.27-1.32,1.62,1.62,0,0,1,1.84,1.77v.05c0,.64-.66.59-2.25.79s-3.38.57-3.38,2.57A2.69,2.69,0,0,0,1192.48,884.13Zm.21-1.2c-1.07,0-1.84-.48-1.84-1.41s.93-1.34,2-1.48a7,7,0,0,0,2.32-.5v1.23A2.24,2.24,0,0,1,1192.69,882.93Zm6.42,1h1.3v-1.34h.16a2.7,2.7,0,0,0,2.54,1.52c2.18,0,3.71-1.75,3.71-4.52s-1.53-4.5-3.73-4.5a2.63,2.63,0,0,0-2.52,1.5h-.12v-4.3h-1.34Zm1.32-4.37c0-1.95.86-3.27,2.5-3.27s2.55,1.43,2.55,3.27-.87,3.34-2.55,3.34S1200.43,881.54,1200.43,879.56Zm12,4.55c2.37,0,4-1.8,4-4.5s-1.59-4.52-4-4.52-4,1.79-4,4.52S1210.05,884.11,1212.41,884.11Zm0-1.21c-1.79,0-2.61-1.54-2.61-3.29s.82-3.32,2.61-3.32,2.62,1.57,2.62,3.32S1214.21,882.9,1212.41,882.9Zm11.5-2.54a2.27,2.27,0,0,1-2.25,2.38,1.89,1.89,0,0,1-1.9-2.09V875.2h-1.35v5.54c0,2.23,1.19,3.3,2.82,3.3a2.71,2.71,0,0,0,2.59-1.59h.09v1.48h1.35V875.2h-1.35Zm7.6-5.16h-1.87v-2.09h-1.34v2.09H1227v1.14h1.32v5.45a2.24,2.24,0,0,0,2.37,2.25,2.78,2.78,0,0,0,1-.16l-.28-1.2a2.84,2.84,0,0,1-.59.06c-.59,0-1.16-.18-1.16-1.31v-5.09h1.87Z"/><circle class="cls-19" cx="833.44" cy="254.24" r="16"/><circle class="cls-20" cx="833.44" cy="254.24" r="10.22"/><path class="cls-21" d="M835.63,251.76l59.19-150h155.82"/><path class="cls-20" d="M1056.61,43.56h0a60.08,60.08,0,0,1,60.08,60.08h0a60.08,60.08,0,0,1-60.08,60.08h0a60.08,60.08,0,0,1-60.08-60.08h0A60.08,60.08,0,0,1,1056.61,43.56Z"/><g class="cls-33"><path class="cls-14" d="M1024.23,76.76h-3.17V99h3.17Z"/><path class="cls-14" d="M1026.24,76.76a3.6,3.6,0,1,1-3.59-3.57A3.56,3.56,0,0,1,1026.24,76.76Z"/><path class="cls-14" d="M1024.23,92.75v2.32c-.84.21-2.11.63-3.17.94V93.49A30.92,30.92,0,0,1,1024.23,92.75Z"/><path class="cls-14" d="M1018.74,105.27a3.51,3.51,0,0,1-2.75,3.47,2.24,2.24,0,0,1-.84.11,1.3,1.3,0,0,1-.64-.11,3.43,3.43,0,0,1-3-3.47,3.52,3.52,0,0,1,2.86-3.47c.21,0,.42-.11.74-.11a2.24,2.24,0,0,1,.84.11A3.6,3.6,0,0,1,1018.74,105.27Z"/><path class="cls-14" d="M1044.52,105.27a10.45,10.45,0,0,1-10.46,10.42h-8.88a9.66,9.66,0,0,1-1.79-.21,10.44,10.44,0,0,1-5.6-17.68,10.72,10.72,0,0,1,5.28-2.84,15.08,15.08,0,0,1,2.11-.21h8.88A10.7,10.7,0,0,1,1044.52,105.27Z"/><path class="cls-14" d="M1028.56,115.26a1,1,0,0,1-.1.53H1025a8.88,8.88,0,0,1-1.79-.21,22.13,22.13,0,0,1-3.49-10.31,13.42,13.42,0,0,1,3.17-10.2,13.71,13.71,0,0,1,2.11-.21h2.85C1030.25,99.06,1028.88,111.58,1028.56,115.26Z"/><path class="cls-14" d="M1092.06,76.76h-3.17V99h3.17Z"/><path class="cls-14" d="M1086.88,76.76a3.59,3.59,0,1,0,3.59-3.57A3.62,3.62,0,0,0,1086.88,76.76Z"/><path class="cls-14" d="M1088.89,92.75v2.32c.84.21,2.11.63,3.17.94V93.49A21.33,21.33,0,0,0,1088.89,92.75Z"/><path class="cls-14" d="M1094.48,105.27a3.6,3.6,0,1,0,3.6-3.58A3.56,3.56,0,0,0,1094.48,105.27Z"/><path class="cls-14" d="M1068.71,105.27a10.43,10.43,0,0,0,10.46,10.42H1088a9.88,9.88,0,0,0,1.8-.21,10.45,10.45,0,0,0,5.6-17.68,10.8,10.8,0,0,0-5.29-2.84,15.08,15.08,0,0,0-2.11-.21h-8.87A10.69,10.69,0,0,0,1068.71,105.27Z"/><path class="cls-14" d="M1084.55,115.26a.91.91,0,0,0,.11.53h3.49a9,9,0,0,0,1.79-.21,22.13,22.13,0,0,0,3.49-10.31,13.42,13.42,0,0,0-3.17-10.2,13.71,13.71,0,0,0-2.11-.21h-2.86C1083,99.06,1084.24,111.58,1084.55,115.26Z"/><path class="cls-34" d="M1090.26,104.43a20.85,20.85,0,0,1-.53,4.42,20.37,20.37,0,0,1-5.6,10.1,20.64,20.64,0,0,1-14.58,6h-26.3a20.58,20.58,0,0,1-20.07-16.09,20.1,20.1,0,0,1-.53-4.42,20.9,20.9,0,0,1,2.53-9.89,21.57,21.57,0,0,1,3.49-4.63,20.64,20.64,0,0,1,14.58-6h26.41a20.52,20.52,0,0,1,17.85,10.41A19.82,19.82,0,0,1,1090.26,104.43Z"/><path class="cls-14" d="M1039.55,108.74a6,6,0,1,1,0-12h33.07a6,6,0,1,1,0,12Z"/><path class="cls-11" d="M1044.41,105.38a3.66,3.66,0,0,1-5.07,0,3.58,3.58,0,1,1,5.07-5A3.43,3.43,0,0,1,1044.41,105.38Z"/><path class="cls-11" d="M1073.57,105.38a3.66,3.66,0,0,1-5.07,0,3.6,3.6,0,0,1,0-5,3.64,3.64,0,0,1,5.07,0A3.43,3.43,0,0,1,1073.57,105.38Z"/><path class="cls-15" d="M1066.59,119.68h-21.86a3.17,3.17,0,0,1-3.17-3.15v-.21a3.17,3.17,0,0,1,3.17-3.16h21.86a3.17,3.17,0,0,1,3.17,3.16v.21A3.16,3.16,0,0,1,1066.59,119.68Z"/><path class="cls-35" d="M1067.44,116.42v.32a2.15,2.15,0,0,1-.53.94,1.75,1.75,0,0,1-1.27.53h-20.07a1.72,1.72,0,0,1-1.69-1.37v-.31a1.75,1.75,0,0,1,.53-1.27,1.78,1.78,0,0,1,1.27-.52h20.18A1.65,1.65,0,0,1,1067.44,116.42Z"/><path class="cls-14" d="M1056.66,134.1h-.42a5.63,5.63,0,0,1-5.6-5.58v-3.58h11.62v3.58A5.63,5.63,0,0,1,1056.66,134.1Z"/></g><path class="cls-11" d="M1145.9,85.64l2-4.74h10.72l2,4.74h5.5l-9.44-21.44h-6.85l-9.37,21.44Zm5.92-13.73,1.32-3.33h.35l1.31,3.33,2,4.67h-7Zm21.25,13.73V64.2h-4.8V85.64Zm14.17,0V79.72h6.4c5,0,8.16-2.85,8.16-7.78s-3.2-7.74-8.16-7.74h-11.2V85.64Zm5.89-17.12c2.66,0,3.9.8,3.9,3.42s-1.24,3.46-3.9,3.46h-5.89V68.52ZM1213,86c5.47,0,9.15-3.26,9.15-8.32s-3.68-8.35-9.15-8.35-9.15,3.23-9.15,8.35S1207.54,86,1213,86Zm0-4.26c-3.27,0-4.39-1.24-4.39-4.06s1.12-4.13,4.39-4.13,4.38,1.31,4.38,4.13S1216.24,81.7,1213,81.7Zm21.16,3.94,2.78-7.71,1.22-4.42h.35l1.18,4.42,2.76,7.71h6l4.54-16h-4.89l-1.86,7.33-.7,5h-.32l-1.28-5.47-2.4-6.85h-6.18l-2.43,6.85-1.28,5.47h-.32l-.67-5-1.89-7.33h-5l4.38,16Zm29.57.32c5.09,0,8.48-2.43,8.48-5.92v-.35h-4.8V80c0,1.37-1,2.11-3.84,2.11-3.1,0-4.26-1.06-4.38-3.52h13a10.9,10.9,0,0,0,.13-1.54c0-5-3.49-7.77-8.74-7.77s-8.89,3.23-8.89,8.35C1254.75,83.34,1258.4,86,1263.74,86ZM1263.55,73c2.81,0,4.09.93,4.22,3h-8.51C1259.48,74,1260.7,73,1263.55,73Zm16.63,12.61V76.36c0-2,.76-3,2.91-3,2,0,2.65.77,2.65,2.53v1.66h4.8V74.89c0-3.14-1.47-5.6-5-5.6a5.1,5.1,0,0,0-5.38,4.57h-.29V69.61h-4.44v16Zm21.57.32c5.09,0,8.48-2.43,8.48-5.92v-.35h-4.8V80c0,1.37-1,2.11-3.84,2.11-3.1,0-4.25-1.06-4.38-3.52h13.06a12.65,12.65,0,0,0,.12-1.54c0-5-3.48-7.77-8.73-7.77s-8.9,3.23-8.9,8.35C1292.76,83.34,1296.41,86,1301.75,86ZM1301.56,73c2.82,0,4.1.93,4.23,3h-8.52C1297.5,74,1298.71,73,1301.56,73Zm19,12.93c3.68,0,5.79-1.6,6.4-4.77h.25v4.45h4.48V64.2h-4.8v9.66h-.29c-.54-2.68-2.49-4.57-6.3-4.57-4.77,0-7.49,3.23-7.49,8.35S1315.56,86,1320.56,86Zm-2.88-8.32c0-2.94,1.44-4,4.51-4s4.7,1,4.7,3.81v.26c0,2.78-1.66,3.84-4.7,3.84S1317.68,80.55,1317.68,77.64Z"/><path class="cls-11" d="M1142.1,117.64h1.41v-4.25h2.54c2.71,0,3.93-1.65,3.93-3.7s-1.22-3.69-4-3.69h-3.93Zm1.41-5.5v-4.89H1146c1.9,0,2.62,1,2.62,2.44a2.27,2.27,0,0,1-2.59,2.45Zm12,5.68c2.37,0,4-1.79,4-4.5s-1.59-4.52-4-4.52-4,1.79-4,4.52S1153.16,117.82,1155.52,117.82Zm0-1.2c-1.79,0-2.61-1.55-2.61-3.3s.82-3.32,2.61-3.32,2.62,1.57,2.62,3.32S1157.32,116.62,1155.52,116.62Zm7.68,1h1.32l1.91-6.7h.14l1.91,6.7h1.32l2.65-8.73h-1.4l-1.89,6.66h-.09l-1.84-6.66h-1.43l-1.87,6.68h-.09l-1.89-6.68h-1.4Zm14.39.18a3.4,3.4,0,0,0,3.48-2.2l-1.3-.37a2.14,2.14,0,0,1-2.18,1.37,2.65,2.65,0,0,1-2.72-2.89h6.33v-.57c0-3.25-1.93-4.36-3.75-4.36-2.36,0-3.93,1.86-3.93,4.54S1175.07,117.82,1177.59,117.82Zm-2.72-5.25a2.6,2.6,0,0,1,2.58-2.57,2.37,2.37,0,0,1,2.39,2.57Zm8.37,5.07h1.34v-5.52a2.07,2.07,0,0,1,2.21-2.05,4.34,4.34,0,0,1,.82.09V108.8l-.71,0a2.38,2.38,0,0,0-2.27,1.45h-.09v-1.32h-1.3Zm9.35.18a3.4,3.4,0,0,0,3.48-2.2l-1.3-.37a2.14,2.14,0,0,1-2.18,1.37,2.65,2.65,0,0,1-2.72-2.89h6.33v-.57c0-3.25-1.93-4.36-3.75-4.36-2.36,0-3.93,1.86-3.93,4.54S1190.07,117.82,1192.59,117.82Zm-2.72-5.25a2.6,2.6,0,0,1,2.58-2.57,2.37,2.37,0,0,1,2.39,2.57Zm11.67,5.25a2.68,2.68,0,0,0,2.54-1.52h.16v1.34h1.3V106h-1.34v4.3h-.12a2.63,2.63,0,0,0-2.52-1.5c-2.2,0-3.73,1.75-3.73,4.5S1199.36,117.82,1201.54,117.82Zm.18-1.2c-1.68,0-2.55-1.48-2.55-3.34s.85-3.28,2.55-3.28,2.5,1.32,2.5,3.28S1203.33,116.62,1201.72,116.62Zm12.94,1H1216l1.9-6.7h.14l1.91,6.7h1.32l2.66-8.73h-1.41l-1.89,6.66h-.09l-1.84-6.66h-1.43l-1.87,6.68h-.09l-1.88-6.68H1212Zm11,0H1227v-8.73h-1.34Zm.68-10.18a.91.91,0,1,0-.95-.91A.94.94,0,0,0,1226.36,107.46Zm6.91,1.45h-1.86v-2.09h-1.34v2.09h-1.32v1.14h1.32v5.45a2.23,2.23,0,0,0,2.36,2.25,2.74,2.74,0,0,0,1-.16l-.27-1.2a2.73,2.73,0,0,1-.59.07c-.59,0-1.16-.18-1.16-1.32v-5.09h1.86Zm3.55,3.48a2.2,2.2,0,0,1,2.29-2.39,1.93,1.93,0,0,1,2,2.19v5.45h1.34v-5.55c0-2.24-1.2-3.29-3-3.29a2.52,2.52,0,0,0-2.57,1.48h-.11V106h-1.34v11.64h1.34Zm13.27,5.25,1.17-3.3h4.7l1.17,3.3h1.48L1254.34,106h-1.46l-4.27,11.64Zm1.61-4.55,1.87-5.25h.09l1.86,5.25Zm10.13-7.09h-1.41v11.64h1.41Zm3.62,11.73a1,1,0,1,0-1-1A1,1,0,0,0,1265.45,117.73Zm8.12-.09h7.11v-1.25H1275v-4h5.25v-1.25H1275v-3.94h5.62V106h-7Zm13.26-8.73h-1.95V108c0-.87.36-1.32,1.25-1.32a2.3,2.3,0,0,1,.75.13l.38-1.15a2.92,2.92,0,0,0-1.27-.23,2.26,2.26,0,0,0-2.45,2.25v1.2h-1.41v1.14h1.41v7.59h1.34v-7.59h1.95Zm5.77,0h-2V108c0-.87.37-1.32,1.25-1.32a2.18,2.18,0,0,1,.75.13l.39-1.15a2.92,2.92,0,0,0-1.27-.23,2.26,2.26,0,0,0-2.46,2.25v1.2h-1.41v1.14h1.41v7.59h1.34v-7.59h2Zm1.88,8.73h1.34v-8.73h-1.34Zm.68-10.18a.91.91,0,1,0-1-.91A.94.94,0,0,0,1295.16,107.46Zm6.66,10.36a3.24,3.24,0,0,0,3.43-2.73h-1.34a2,2,0,0,1-2.09,1.53c-1.59,0-2.61-1.32-2.61-3.34s1-3.28,2.61-3.28a2,2,0,0,1,2.09,1.53h1.34a3.25,3.25,0,0,0-3.45-2.73c-2.37,0-3.93,1.86-3.93,4.52S1299.37,117.82,1301.82,117.82Zm5.39-.18h1.34v-8.73h-1.34Zm.68-10.18a.91.91,0,1,0-1-.91A.94.94,0,0,0,1307.89,107.46Zm6.78,10.36a3.37,3.37,0,0,0,3.47-2.2l-1.29-.37a2.14,2.14,0,0,1-2.18,1.37,2.64,2.64,0,0,1-2.72-2.89h6.33v-.57c0-3.25-1.93-4.36-3.75-4.36-2.36,0-3.93,1.86-3.93,4.54S1312.14,117.82,1314.67,117.82Zm-2.72-5.25a2.6,2.6,0,0,1,2.58-2.57,2.37,2.37,0,0,1,2.39,2.57Zm9.71-.18a2.17,2.17,0,0,1,2.23-2.39,1.94,1.94,0,0,1,2,2.19v5.45h1.34v-5.55c0-2.22-1.19-3.29-3-3.29a2.58,2.58,0,0,0-2.55,1.48h-.11v-1.37h-1.3v8.73h1.34Zm11.82-3.48h-1.87v-2.09h-1.34v2.09H1329v1.14h1.32v5.45a2.23,2.23,0,0,0,2.36,2.25,2.74,2.74,0,0,0,1-.16l-.27-1.2a2.64,2.64,0,0,1-.59.07c-.59,0-1.16-.18-1.16-1.32v-5.09h1.87Zm-189,34.93a2.72,2.72,0,0,0,2.59-1.38h.07v1.18h1.34v-5.75c0-2.77-2.11-3.09-3.22-3.09a3.54,3.54,0,0,0-3.5,2l1.27.46a2.34,2.34,0,0,1,2.27-1.32,1.62,1.62,0,0,1,1.84,1.77v.05c0,.65-.66.59-2.25.79s-3.38.57-3.38,2.57A2.69,2.69,0,0,0,1144.48,143.84Zm.21-1.2c-1.07,0-1.84-.48-1.84-1.41s.93-1.34,2-1.48a6.55,6.55,0,0,0,2.32-.5v1.23A2.24,2.24,0,0,1,1144.69,142.64Zm7.58-4.25a2.17,2.17,0,0,1,2.23-2.39,1.94,1.94,0,0,1,2,2.19v5.45h1.34v-5.55c0-2.22-1.19-3.29-3-3.29a2.57,2.57,0,0,0-2.54,1.48h-.11v-1.37h-1.3v8.73h1.34Zm11.32,5.43a2.68,2.68,0,0,0,2.54-1.52h.16v1.34h1.3V132h-1.35v4.3h-.11a2.64,2.64,0,0,0-2.52-1.5c-2.21,0-3.73,1.75-3.73,4.5S1161.4,143.82,1163.59,143.82Zm.18-1.2c-1.68,0-2.55-1.48-2.55-3.34s.84-3.28,2.55-3.28,2.5,1.32,2.5,3.28S1165.38,142.62,1163.77,142.62Zm11.62,1,1.17-3.3h4.7l1.17,3.3h1.48L1179.64,132h-1.46l-4.27,11.64Zm1.61-4.55,1.86-5.25h.09l1.87,5.25Zm12.09,4.73a3.24,3.24,0,0,0,3.43-2.73h-1.34a2,2,0,0,1-2.09,1.53c-1.6,0-2.62-1.32-2.62-3.34s1-3.28,2.62-3.28a2.05,2.05,0,0,1,2.09,1.53h1.34a3.26,3.26,0,0,0-3.46-2.73c-2.36,0-3.93,1.86-3.93,4.52S1186.63,143.82,1189.09,143.82Zm8.93,0a3.23,3.23,0,0,0,3.43-2.73h-1.34a2,2,0,0,1-2.09,1.53c-1.59,0-2.61-1.32-2.61-3.34s1-3.28,2.61-3.28a2,2,0,0,1,2.09,1.53h1.34a3.24,3.24,0,0,0-3.45-2.73c-2.36,0-3.93,1.86-3.93,4.52S1195.57,143.82,1198,143.82Zm10.89-3.75a2.27,2.27,0,0,1-2.25,2.39,1.9,1.9,0,0,1-1.9-2.09v-5.46h-1.35v5.55c0,2.23,1.19,3.29,2.82,3.29a2.71,2.71,0,0,0,2.59-1.59h.09v1.48h1.35v-8.73h-1.35Zm3.8,3.57h1.34v-5.52a2.07,2.07,0,0,1,2.21-2.05,4.46,4.46,0,0,1,.82.09V134.8l-.71,0a2.38,2.38,0,0,0-2.27,1.45H1214v-1.32h-1.3Zm8.52.2a2.72,2.72,0,0,0,2.59-1.38h.07v1.18h1.34v-5.75c0-2.77-2.11-3.09-3.22-3.09a3.54,3.54,0,0,0-3.5,2l1.27.46a2.34,2.34,0,0,1,2.27-1.32,1.62,1.62,0,0,1,1.84,1.77v.05c0,.65-.66.59-2.25.79s-3.38.57-3.38,2.57A2.69,2.69,0,0,0,1221.23,143.84Zm.21-1.2c-1.07,0-1.84-.48-1.84-1.41s.93-1.34,2-1.48a6.55,6.55,0,0,0,2.32-.5v1.23A2.24,2.24,0,0,1,1221.44,142.64Zm10-7.73h-1.87v-2.09h-1.34v2.09H1227v1.14h1.32v5.45a2.23,2.23,0,0,0,2.36,2.25,2.74,2.74,0,0,0,1-.16l-.27-1.2a2.64,2.64,0,0,1-.59.07c-.59,0-1.16-.18-1.16-1.32v-5.09h1.87Zm5.58,8.91a3.4,3.4,0,0,0,3.48-2.2l-1.3-.37a2.14,2.14,0,0,1-2.18,1.37,2.64,2.64,0,0,1-2.72-2.89h6.33v-.57c0-3.25-1.93-4.36-3.75-4.36-2.36,0-3.93,1.86-3.93,4.54S1234.54,143.82,1237.06,143.82Zm-2.72-5.25a2.6,2.6,0,0,1,2.58-2.57,2.37,2.37,0,0,1,2.39,2.57Zm9.35,5.16a1,1,0,1,0-1-1A1,1,0,0,0,1243.69,143.73Z"/><circle class="cls-19" cx="738.09" cy="592.17" r="16"/><circle class="cls-20" cx="738.09" cy="592.17" r="10.22"/><path class="cls-21" d="M736.31,598.81,647.66,826.26H578.53"/><path class="cls-11" d="M182.7,812.54V791.1h-4.8v21.44Zm8.28,0v-8.1c0-2.72,1.08-3.93,4.12-3.93s4,1.08,4,3.64v8.39h4.8v-10c0-3.55-2.08-6.36-6.46-6.36-4.19,0-6.11,2.56-6.53,5.24h-.29v-4.92h-4.44v16Zm21.11,0v-8.1c0-2.72,1.09-3.93,4.13-3.93s4,1.08,4,3.64v8.39H225v-10c0-3.55-2.08-6.36-6.46-6.36-4.19,0-6.11,2.56-6.53,5.24h-.29v-4.92h-4.45v16Zm24.86.32c5.48,0,9.15-3.27,9.15-8.32s-3.67-8.35-9.15-8.35-9.15,3.23-9.15,8.35S231.48,812.86,237,812.86Zm0-4.26c-3.26,0-4.38-1.25-4.38-4.06s1.12-4.13,4.38-4.13,4.39,1.31,4.39,4.13S240.18,808.6,237,808.6Zm24,3.94,7.33-16H263l-4.83,11.36h-.32l-4.8-11.36h-5.35l7.3,16Zm14.48.32c3.56,0,5.8-1.51,6.53-4h.26v3.68h4.48v-9.41c0-4.19-2.53-6.94-7.87-6.94s-8.61,2.75-8.61,6.72V803h4.83v-.13c0-1.82,1-2.46,3.42-2.46s3.49.58,3.49,2.66v.6l-6.88.71c-3.42.35-5.18,1.82-5.18,4.19C269.91,811.26,272,812.86,275.44,812.86Zm-.7-4.61c0-.77.51-1.09,1.66-1.18l5.57-.64c-.13,2.27-1.89,3-5.15,3C275.41,809.47,274.74,809.11,274.74,808.25Zm26.66,4.29v-4.32h-2.88c-1.7,0-2.31-.42-2.31-2v-5.73h5.19v-4h-5.19V793.4h-4.8v3.11h-2.52v4h2.52v6.28c0,4,2.27,5.79,6,5.79ZM309,794.87V791.1h-4.8v3.77Zm0,17.67v-16h-4.8v16Zm15.41,0,7.33-16h-5.25l-4.83,11.36h-.32l-4.8-11.36h-5.34l7.29,16Zm18.07.32c5.09,0,8.48-2.43,8.48-5.92v-.35h-4.8v.32c0,1.37-1,2.11-3.84,2.11-3.1,0-4.25-1.06-4.38-3.52h13.05a11,11,0,0,0,.13-1.54c0-5-3.49-7.77-8.74-7.77s-8.89,3.23-8.89,8.35C333.44,810.23,337.09,812.86,342.43,812.86Zm-.19-12.93c2.81,0,4.09.93,4.22,3H338C338.17,800.89,339.39,799.93,342.24,799.93Zm34.21,12.61c6.88,0,11.23-4,11.23-10.72s-4.35-10.72-11.23-10.72H366.12v21.44Zm0-17.12c4.35,0,6.12,1.25,6.12,6.4s-1.77,6.4-6.12,6.4h-5.53v-12.8Zm22.79,17.44c5.09,0,8.48-2.43,8.48-5.92v-.35h-4.8v.32c0,1.37-1,2.11-3.84,2.11-3.1,0-4.26-1.06-4.38-3.52h13.05a11,11,0,0,0,.13-1.54c0-5-3.49-7.77-8.74-7.77s-8.89,3.23-8.89,8.35C390.25,810.23,393.9,812.86,399.24,812.86Zm-.19-12.93c2.81,0,4.09.93,4.22,3h-8.51C395,800.89,396.2,799.93,399.05,799.93ZM419,812.86c5,0,7.94-2,7.94-5,0-2.66-1.6-4.1-5.89-4.58l-3.42-.42c-2.12-.25-2.56-.6-2.56-1.44,0-1,.6-1.44,3-1.44,2.95,0,3.59.68,3.59,2v.19h4.8v-.1c0-3.9-3-5.88-8.23-5.88-5.5,0-7.9,2.24-7.9,5s1.79,4.13,5,4.48l4.51.55c1.89.25,2.37.51,2.37,1.4s-.61,1.38-3.17,1.38c-2.72,0-3.61-.38-3.61-1.82v-.29h-4.8V807C410.59,810.75,413.56,812.86,419,812.86Zm15.63-18V791.1h-4.8v3.77Zm0,17.67v-16h-4.8v16Zm10.52-1.63c3.58,0,5.47-1.64,6-4h.26v3.61c0,3.14-.93,3.78-4,3.78-3.27,0-4-.55-4-2.34h-4.8c0,4,3.26,6.34,8.45,6.34,5.72,0,9.12-2.5,9.12-8.1V796.51h-4.48v3.87h-.26c-.51-2.79-2.85-4.19-6.11-4.19-4.8,0-7.71,2.88-7.71,7.36S440.35,810.91,445.12,810.91Zm-2.69-7.36c0-2.37,1.34-3.2,4.41-3.2s4.52.83,4.52,3v.36c0,2.2-1.51,3.07-4.58,3.07S442.43,805.91,442.43,803.55Zm22,9v-8.1c0-2.72,1.09-3.93,4.13-3.93s4,1.08,4,3.64v8.39h4.8v-10c0-3.55-2.08-6.36-6.47-6.36-4.19,0-6.11,2.56-6.52,5.24h-.29v-4.92h-4.45v16Z"/><path class="cls-11" d="M185.42,844.54h1.45l2.57-9.27h.09l2.57,9.27h1.46l3.18-11.64h-1.43l-2.44,9.48h-.11l-2.48-9.48h-1.59l-2.48,9.48h-.11l-2.43-9.48h-1.43Zm15.74.18a3.39,3.39,0,0,0,3.47-2.2l-1.29-.37a2.14,2.14,0,0,1-2.18,1.37,2.64,2.64,0,0,1-2.72-2.89h6.33v-.57c0-3.25-1.93-4.36-3.75-4.36-2.36,0-3.93,1.86-3.93,4.54S198.63,844.72,201.16,844.72Zm-2.72-5.25A2.6,2.6,0,0,1,201,836.9a2.37,2.37,0,0,1,2.39,2.57Zm18.37,1.5a2.27,2.27,0,0,1-2.25,2.39,1.91,1.91,0,0,1-1.91-2.09v-5.46h-1.34v5.55c0,2.22,1.18,3.29,2.82,3.29a2.71,2.71,0,0,0,2.59-1.59h.09v1.48h1.34v-8.73h-1.34Zm10-3.2a2.94,2.94,0,0,0-3.09-2.07c-1.84,0-3.21,1-3.21,2.52,0,1.21.72,2,2.32,2.39l1.46.34c.88.2,1.29.62,1.29,1.23s-.79,1.36-2,1.36a1.85,1.85,0,0,1-2-1.41l-1.27.32c.31,1.48,1.54,2.27,3.32,2.27,2,0,3.41-1.11,3.41-2.61,0-1.22-.76-2-2.32-2.37l-1.29-.31c-1-.26-1.5-.61-1.5-1.28s.79-1.29,1.86-1.29a1.84,1.84,0,0,1,1.89,1.25Zm5.84,7a3.39,3.39,0,0,0,3.47-2.2l-1.29-.37a2.14,2.14,0,0,1-2.18,1.37c-1.58,0-2.66-1-2.73-2.89h6.34v-.57c0-3.25-1.93-4.36-3.75-4.36-2.36,0-3.93,1.86-3.93,4.54S230.1,844.72,232.63,844.72Zm-2.73-5.25a2.62,2.62,0,0,1,2.59-2.57,2.37,2.37,0,0,1,2.39,2.57Zm15.45,5.27a2.73,2.73,0,0,0,2.59-1.38H248v1.18h1.34v-5.75c0-2.77-2.11-3.09-3.23-3.09a3.54,3.54,0,0,0-3.5,2l1.27.46a2.37,2.37,0,0,1,2.28-1.32,1.62,1.62,0,0,1,1.84,1.77v.05c0,.65-.66.59-2.25.79s-3.39.57-3.39,2.57A2.69,2.69,0,0,0,245.35,844.74Zm.2-1.2c-1.06,0-1.84-.48-1.84-1.41s.93-1.34,2-1.48a6.78,6.78,0,0,0,2.32-.5v1.23A2.25,2.25,0,0,1,245.55,843.54Zm14.54-7.73h-1.86v-2.09h-1.34v2.09h-1.32V837h1.32v5.45a2.22,2.22,0,0,0,2.36,2.25,2.74,2.74,0,0,0,1-.16l-.27-1.2a2.83,2.83,0,0,1-.59.07c-.59,0-1.16-.18-1.16-1.32V837h1.86Zm4.59,8.93a2.75,2.75,0,0,0,2.59-1.38h.06v1.18h1.35v-5.75c0-2.77-2.12-3.09-3.23-3.09a3.54,3.54,0,0,0-3.5,2l1.27.46a2.36,2.36,0,0,1,2.27-1.32,1.62,1.62,0,0,1,1.84,1.77v.05c0,.65-.65.59-2.25.79s-3.38.57-3.38,2.57A2.69,2.69,0,0,0,264.68,844.74Zm.2-1.2c-1.07,0-1.84-.48-1.84-1.41s.93-1.34,2-1.48a6.71,6.71,0,0,0,2.31-.5v1.23A2.24,2.24,0,0,1,264.88,843.54Zm6.24,1h1.34v-8.73h-1.34Zm.69-10.18a.91.91,0,1,0-1-.91A.94.94,0,0,0,271.81,834.36Zm4.45-1.46h-1.34v11.64h1.34Zm13.14,4.87a2.94,2.94,0,0,0-3.09-2.07c-1.84,0-3.21,1-3.21,2.52,0,1.21.72,2,2.32,2.39l1.46.34c.88.2,1.29.62,1.29,1.23s-.79,1.36-2,1.36a1.85,1.85,0,0,1-2-1.41l-1.27.32c.31,1.48,1.53,2.27,3.32,2.27,2,0,3.41-1.11,3.41-2.61,0-1.22-.76-2-2.32-2.37l-1.29-.31c-1-.26-1.5-.61-1.5-1.28s.79-1.29,1.86-1.29a1.84,1.84,0,0,1,1.89,1.25Zm2.18,6.77h1.34v-8.73h-1.34Zm.68-10.18a.91.91,0,1,0-1-.91A.94.94,0,0,0,292.26,834.36Zm6.91,1.45h-1.86v-2.09H296v2.09h-1.31V837H296v5.45a2.23,2.23,0,0,0,2.37,2.25,2.74,2.74,0,0,0,1-.16l-.27-1.2a2.85,2.85,0,0,1-.6.07c-.59,0-1.15-.18-1.15-1.32V837h1.86Zm5.81,0h-1.86v-2.09h-1.34v2.09h-1.32V837h1.32v5.45a2.22,2.22,0,0,0,2.36,2.25,2.74,2.74,0,0,0,1-.16l-.27-1.2a2.83,2.83,0,0,1-.59.07c-.59,0-1.16-.18-1.16-1.32V837H305Zm5.58,8.91a3.4,3.4,0,0,0,3.48-2.2l-1.29-.37a2.16,2.16,0,0,1-2.19,1.37,2.65,2.65,0,0,1-2.72-2.89h6.34v-.57c0-3.25-1.93-4.36-3.75-4.36-2.37,0-3.93,1.86-3.93,4.54S308,844.72,310.56,844.72Zm-2.72-5.25a2.61,2.61,0,0,1,2.59-2.57,2.36,2.36,0,0,1,2.38,2.57Zm8.38,5.07h1.34V839a2.06,2.06,0,0,1,2.2-2,4.34,4.34,0,0,1,.82.09V835.7l-.7,0a2.38,2.38,0,0,0-2.28,1.45h-.09v-1.32h-1.29Zm13.75.18a2.68,2.68,0,0,0,2.54-1.52h.16v1.34H334V832.9h-1.34v4.3h-.12a2.64,2.64,0,0,0-2.52-1.5c-2.21,0-3.73,1.75-3.73,4.5S327.78,844.72,330,844.72Zm.18-1.2c-1.68,0-2.55-1.48-2.55-3.34s.84-3.28,2.55-3.28,2.5,1.32,2.5,3.28S331.76,843.52,330.15,843.52Zm10.12,1.2a3.39,3.39,0,0,0,3.47-2.2l-1.29-.37a2.14,2.14,0,0,1-2.18,1.37,2.64,2.64,0,0,1-2.72-2.89h6.33v-.57c0-3.25-1.93-4.36-3.75-4.36-2.36,0-3.93,1.86-3.93,4.54S337.74,844.72,340.27,844.72Zm-2.72-5.25a2.6,2.6,0,0,1,2.58-2.57,2.37,2.37,0,0,1,2.39,2.57Zm14.55-1.7A2.94,2.94,0,0,0,349,835.7c-1.84,0-3.2,1-3.2,2.52,0,1.21.71,2,2.32,2.39l1.45.34c.88.2,1.3.62,1.3,1.23s-.8,1.36-2.05,1.36a1.84,1.84,0,0,1-2-1.41l-1.28.32c.32,1.48,1.54,2.27,3.32,2.27,2,0,3.41-1.11,3.41-2.61,0-1.22-.76-2-2.32-2.37l-1.29-.31c-1-.26-1.5-.61-1.5-1.28s.79-1.29,1.86-1.29a1.83,1.83,0,0,1,1.89,1.25Zm2.18,6.77h1.34v-8.73h-1.34Zm.68-10.18a.91.91,0,1,0-.95-.91A.94.94,0,0,0,355,834.36ZM361.6,848c2.09,0,3.77-1,3.77-3.2v-9h-1.29v1.39h-.14a2.7,2.7,0,0,0-2.55-1.5c-2.2,0-3.72,1.75-3.72,4.43s1.59,4.27,3.7,4.27a2.67,2.67,0,0,0,2.55-1.47H364v1.77c0,1.45-1,2.11-2.43,2.11a2.71,2.71,0,0,1-2.5-1.32l-1.07.75A3.84,3.84,0,0,0,361.6,848Zm-.05-4.79c-1.68,0-2.54-1.27-2.54-3.09s.84-3.21,2.54-3.21,2.5,1.32,2.5,3.21S363.17,843.2,361.55,843.2Zm7.62-3.91a2.16,2.16,0,0,1,2.22-2.39,1.92,1.92,0,0,1,2,2.18v5.46h1.35V839c0-2.22-1.19-3.29-3-3.29a2.55,2.55,0,0,0-2.54,1.48h-.12v-1.37h-1.29v8.73h1.34Zm14.49,5.25H385l1.91-6.71H387l1.91,6.71h1.31l2.66-8.73H391.5l-1.88,6.66h-.09l-1.84-6.66h-1.44l-1.86,6.68h-.09l-1.89-6.68H381ZM396,839.29a2.2,2.2,0,0,1,2.29-2.39,1.94,1.94,0,0,1,2,2.18v5.46h1.34V839c0-2.24-1.2-3.29-3-3.29a2.52,2.52,0,0,0-2.57,1.48H396V832.9h-1.34v11.64H396Zm8.11,5.25h1.34v-8.73h-1.34Zm.68-10.18a.91.91,0,1,0-.95-.91A.94.94,0,0,0,404.82,834.36Zm6.66,10.36a3.23,3.23,0,0,0,3.43-2.73h-1.34a2,2,0,0,1-2.09,1.53c-1.59,0-2.61-1.32-2.61-3.34s1-3.28,2.61-3.28a2,2,0,0,1,2.09,1.53h1.34a3.24,3.24,0,0,0-3.45-2.73c-2.36,0-3.93,1.86-3.93,4.52S409,844.72,411.48,844.72Zm6.73-5.43a2.2,2.2,0,0,1,2.3-2.39,1.93,1.93,0,0,1,2,2.18v5.46h1.34V839c0-2.24-1.19-3.29-3-3.29a2.52,2.52,0,0,0-2.57,1.48h-.12V832.9h-1.34v11.64h1.34Zm12.62,5.25h1.34v-5.46a2.07,2.07,0,0,1,2-2.18,1.62,1.62,0,0,1,1.73,1.66v6h1.37v-5.68a1.82,1.82,0,0,1,1.93-2,1.63,1.63,0,0,1,1.77,1.8v5.84h1.34V838.7c0-2.05-1.1-3-2.66-3a2.74,2.74,0,0,0-2.61,1.48h-.09a2.39,2.39,0,0,0-2.34-1.48,2.33,2.33,0,0,0-2.34,1.48h-.12v-1.37h-1.29Zm16.47.2a2.73,2.73,0,0,0,2.59-1.38H450v1.18h1.34v-5.75c0-2.77-2.11-3.09-3.23-3.09a3.55,3.55,0,0,0-3.5,2l1.28.46a2.34,2.34,0,0,1,2.27-1.32,1.62,1.62,0,0,1,1.84,1.77v.05c0,.65-.66.59-2.25.79s-3.39.57-3.39,2.57A2.69,2.69,0,0,0,447.3,844.74Zm.21-1.2c-1.07,0-1.84-.48-1.84-1.41s.93-1.34,2-1.48a6.78,6.78,0,0,0,2.32-.5v1.23A2.24,2.24,0,0,1,447.51,843.54Zm6.24,1h1.34v-3.27l.94-.87,3.26,4.14H461l-4-5,3.69-3.73h-1.66l-3.82,3.89h-.16v-6.8h-1.34Zm12,.18a3.41,3.41,0,0,0,3.48-2.2l-1.3-.37a2.14,2.14,0,0,1-2.18,1.37,2.65,2.65,0,0,1-2.72-2.89h6.33v-.57c0-3.25-1.93-4.36-3.75-4.36-2.36,0-3.93,1.86-3.93,4.54S463.23,844.72,465.75,844.72ZM463,839.47a2.6,2.6,0,0,1,2.58-2.57,2.37,2.37,0,0,1,2.39,2.57Zm14.56-1.7a3,3,0,0,0-3.09-2.07c-1.85,0-3.21,1-3.21,2.52,0,1.21.72,2,2.32,2.39l1.45.34c.89.2,1.3.62,1.3,1.23s-.8,1.36-2.05,1.36a1.84,1.84,0,0,1-2-1.41l-1.27.32c.31,1.48,1.53,2.27,3.32,2.27,2,0,3.41-1.11,3.41-2.61,0-1.22-.77-2-2.32-2.37l-1.3-.31c-1-.26-1.5-.61-1.5-1.28s.8-1.29,1.87-1.29a1.82,1.82,0,0,1,1.88,1.25ZM205.4,870.54h1.35v-5.46a2.07,2.07,0,0,1,2-2.18,1.62,1.62,0,0,1,1.73,1.66v6h1.36v-5.68a1.83,1.83,0,0,1,1.94-2,1.63,1.63,0,0,1,1.77,1.8v5.84h1.34V864.7c0-2.05-1.1-3-2.66-3a2.74,2.74,0,0,0-2.61,1.48h-.09a2.41,2.41,0,0,0-2.35-1.48,2.35,2.35,0,0,0-2.34,1.48h-.11v-1.37h-1.3Zm16.48.2a2.73,2.73,0,0,0,2.59-1.38h.07v1.18h1.34v-5.75c0-2.77-2.11-3.09-3.23-3.09a3.54,3.54,0,0,0-3.5,2l1.28.46a2.34,2.34,0,0,1,2.27-1.32,1.62,1.62,0,0,1,1.84,1.77v.05c0,.65-.66.59-2.25.79s-3.39.57-3.39,2.57A2.69,2.69,0,0,0,221.88,870.74Zm.2-1.2c-1.06,0-1.84-.48-1.84-1.41s.94-1.34,2-1.48a6.78,6.78,0,0,0,2.32-.5v1.23A2.24,2.24,0,0,1,222.08,869.54Zm7.59-4.25a2.17,2.17,0,0,1,2.23-2.39,1.93,1.93,0,0,1,2,2.18v5.46h1.34V865c0-2.22-1.19-3.29-3-3.29a2.56,2.56,0,0,0-2.54,1.48h-.12v-1.37h-1.29v8.73h1.34ZM243.19,867a2.27,2.27,0,0,1-2.25,2.39,1.9,1.9,0,0,1-1.91-2.09v-5.46h-1.34v5.55c0,2.22,1.18,3.29,2.81,3.29a2.73,2.73,0,0,0,2.6-1.59h.09v1.48h1.34v-8.73h-1.34Zm7.68-5.16h-2v-.88c0-.87.37-1.32,1.25-1.32a2.18,2.18,0,0,1,.75.13l.39-1.16a3.13,3.13,0,0,0-1.27-.22,2.26,2.26,0,0,0-2.46,2.25v1.2h-1.41V863h1.41v7.59h1.34V863h2Zm4.2,8.93a2.73,2.73,0,0,0,2.59-1.38h.07v1.18h1.34v-5.75c0-2.77-2.12-3.09-3.23-3.09a3.54,3.54,0,0,0-3.5,2l1.27.46a2.36,2.36,0,0,1,2.27-1.32,1.62,1.62,0,0,1,1.85,1.77v.05c0,.65-.66.59-2.25.79s-3.39.57-3.39,2.57A2.69,2.69,0,0,0,255.07,870.74Zm.2-1.2c-1.07,0-1.84-.48-1.84-1.41s.93-1.34,2-1.48a6.78,6.78,0,0,0,2.32-.5v1.23A2.25,2.25,0,0,1,255.27,869.54Zm9.79,1.18a3.24,3.24,0,0,0,3.43-2.73h-1.34a2,2,0,0,1-2.09,1.53c-1.59,0-2.61-1.32-2.61-3.34s1-3.28,2.61-3.28a2,2,0,0,1,2.09,1.53h1.34A3.25,3.25,0,0,0,265,861.7c-2.37,0-3.93,1.86-3.93,4.52S262.61,870.72,265.06,870.72Zm9.19-8.91h-1.87v-2.09H271v2.09h-1.31V863H271v5.45a2.23,2.23,0,0,0,2.37,2.25,2.74,2.74,0,0,0,1-.16l-.28-1.2a2.64,2.64,0,0,1-.59.07c-.59,0-1.16-.18-1.16-1.32V863h1.87Zm7.51,5.16a2.27,2.27,0,0,1-2.25,2.39,1.9,1.9,0,0,1-1.9-2.09v-5.46h-1.35v5.55c0,2.22,1.19,3.29,2.82,3.29a2.71,2.71,0,0,0,2.59-1.59h.09v1.48h1.35v-8.73h-1.35Zm3.8,3.57h1.34V865a2.06,2.06,0,0,1,2.21-2,4.31,4.31,0,0,1,.81.09V861.7l-.7,0a2.37,2.37,0,0,0-2.27,1.45h-.09v-1.32h-1.3Zm5.95,0h1.35v-8.73h-1.35Zm.69-10.18a.91.91,0,1,0-1-.91A.94.94,0,0,0,292.2,860.36Zm4.45,4.93a2.17,2.17,0,0,1,2.23-2.39,1.93,1.93,0,0,1,2,2.18v5.46h1.34V865c0-2.22-1.19-3.29-3-3.29a2.58,2.58,0,0,0-2.55,1.48h-.11v-1.37h-1.3v8.73h1.34Zm11.54,8.7c2.09,0,3.78-1,3.78-3.2v-9h-1.3v1.39h-.14a2.68,2.68,0,0,0-2.54-1.5c-2.21,0-3.73,1.75-3.73,4.43s1.59,4.27,3.71,4.27a2.65,2.65,0,0,0,2.54-1.47h.12v1.77c0,1.45-1,2.11-2.44,2.11a2.73,2.73,0,0,1-2.5-1.32l-1.06.75A3.81,3.81,0,0,0,308.19,874Zm0-4.79c-1.68,0-2.55-1.27-2.55-3.09s.84-3.21,2.55-3.21,2.5,1.32,2.5,3.21S309.76,869.2,308.15,869.2Zm14.32,1.52c2.36,0,3.95-1.79,3.95-4.5s-1.59-4.52-3.95-4.52-4,1.79-4,4.52S320.1,870.72,322.47,870.72Zm0-1.2c-1.8,0-2.62-1.55-2.62-3.3s.82-3.32,2.62-3.32,2.61,1.57,2.61,3.32S324.26,869.52,322.47,869.52Zm9.88-7.71h-2v-.88c0-.87.36-1.32,1.25-1.32a2.24,2.24,0,0,1,.75.13l.39-1.16a3.24,3.24,0,0,0-1.28-.22,2.26,2.26,0,0,0-2.45,2.25v1.2h-1.41V863h1.41v7.59h1.34V863h2Zm10.18,0h-1.86v-2.09h-1.35v2.09H338V863h1.31v5.45a2.23,2.23,0,0,0,2.37,2.25,2.74,2.74,0,0,0,1-.16l-.27-1.2a2.85,2.85,0,0,1-.6.07c-.59,0-1.15-.18-1.15-1.32V863h1.86Zm3.54,3.48a2.2,2.2,0,0,1,2.3-2.39,1.93,1.93,0,0,1,2,2.18v5.46h1.34V865c0-2.24-1.19-3.29-3-3.29a2.52,2.52,0,0,0-2.57,1.48h-.12V858.9h-1.34v11.64h1.34Zm11.78,5.43a3.39,3.39,0,0,0,3.47-2.2l-1.29-.37a2.14,2.14,0,0,1-2.18,1.37c-1.58,0-2.66-1-2.73-2.89h6.34v-.57c0-3.25-1.93-4.36-3.75-4.36-2.36,0-3.93,1.86-3.93,4.54S355.32,870.72,357.85,870.72Zm-2.73-5.25a2.61,2.61,0,0,1,2.59-2.57,2.37,2.37,0,0,1,2.39,2.57Zm16.17,5.25a2.7,2.7,0,0,0,2.55-1.52H374v1.34h1.29V858.9H374v4.3h-.11a2.65,2.65,0,0,0-2.52-1.5c-2.21,0-3.73,1.75-3.73,4.5S369.11,870.72,371.29,870.72Zm.19-1.2c-1.69,0-2.55-1.48-2.55-3.34s.84-3.28,2.55-3.28,2.5,1.32,2.5,3.28S373.09,869.52,371.48,869.52Zm6.46,1h1.34V865a2.06,2.06,0,0,1,2.2-2,4.34,4.34,0,0,1,.82.09V861.7l-.7,0a2.38,2.38,0,0,0-2.28,1.45h-.09v-1.32h-1.29Zm9.23.18c2.36,0,3.95-1.79,3.95-4.5s-1.59-4.52-3.95-4.52-4,1.79-4,4.52S384.81,870.72,387.17,870.72Zm0-1.2c-1.8,0-2.61-1.55-2.61-3.3s.81-3.32,2.61-3.32,2.61,1.57,2.61,3.32S389,869.52,387.17,869.52Zm7.34-4.23a2.17,2.17,0,0,1,2.23-2.39,1.93,1.93,0,0,1,2,2.18v5.46h1.34V865c0-2.22-1.19-3.29-2.95-3.29a2.58,2.58,0,0,0-2.55,1.48h-.11v-1.37h-1.3v8.73h1.34Zm11.68,5.43a3.41,3.41,0,0,0,3.48-2.2l-1.3-.37a2.14,2.14,0,0,1-2.18,1.37,2.64,2.64,0,0,1-2.72-2.89h6.33v-.57c0-3.25-1.93-4.36-3.75-4.36-2.36,0-3.93,1.86-3.93,4.54S403.67,870.72,406.19,870.72Zm-2.72-5.25a2.6,2.6,0,0,1,2.58-2.57,2.37,2.37,0,0,1,2.39,2.57Zm14.55-1.7a2.94,2.94,0,0,0-3.09-2.07c-1.84,0-3.2,1-3.2,2.52,0,1.21.72,2,2.32,2.39l1.45.34c.88.2,1.3.62,1.3,1.23s-.8,1.36-2.05,1.36a1.84,1.84,0,0,1-2-1.41l-1.27.32c.31,1.48,1.53,2.27,3.31,2.27,2,0,3.41-1.11,3.41-2.61,0-1.22-.76-2-2.32-2.37l-1.29-.31c-1-.26-1.5-.61-1.5-1.28s.79-1.29,1.86-1.29a1.83,1.83,0,0,1,1.89,1.25Zm10.34,7a3.41,3.41,0,0,0,3.48-2.2l-1.3-.37a2.14,2.14,0,0,1-2.18,1.37,2.65,2.65,0,0,1-2.72-2.89H432v-.57c0-3.25-1.94-4.36-3.75-4.36-2.37,0-3.94,1.86-3.94,4.54S425.84,870.72,428.36,870.72Zm-2.72-5.25a2.61,2.61,0,0,1,2.59-2.57,2.36,2.36,0,0,1,2.38,2.57Zm10.94,5.27a2.72,2.72,0,0,0,2.59-1.38h.07v1.18h1.34v-5.75c0-2.77-2.11-3.09-3.22-3.09a3.54,3.54,0,0,0-3.5,2l1.27.46a2.34,2.34,0,0,1,2.27-1.32,1.62,1.62,0,0,1,1.84,1.77v.05c0,.65-.66.59-2.25.79s-3.38.57-3.38,2.57A2.69,2.69,0,0,0,436.58,870.74Zm.21-1.2c-1.07,0-1.84-.48-1.84-1.41s.93-1.34,2-1.48a6.78,6.78,0,0,0,2.32-.5v1.23A2.24,2.24,0,0,1,436.79,869.54Zm12.42-5.77a2.94,2.94,0,0,0-3.09-2.07c-1.84,0-3.2,1-3.2,2.52,0,1.21.71,2,2.31,2.39l1.46.34c.88.2,1.29.62,1.29,1.23s-.79,1.36-2,1.36a1.83,1.83,0,0,1-2-1.41l-1.28.32c.32,1.48,1.54,2.27,3.32,2.27,2,0,3.41-1.11,3.41-2.61,0-1.22-.76-2-2.32-2.37l-1.29-.31c-1-.26-1.5-.61-1.5-1.28s.79-1.29,1.86-1.29a1.84,1.84,0,0,1,1.89,1.25Zm5.84,7a3.41,3.41,0,0,0,3.48-2.2l-1.3-.37a2.14,2.14,0,0,1-2.18,1.37,2.65,2.65,0,0,1-2.72-2.89h6.33v-.57c0-3.25-1.93-4.36-3.75-4.36-2.36,0-3.93,1.86-3.93,4.54S452.53,870.72,455.05,870.72Zm-2.72-5.25a2.6,2.6,0,0,1,2.58-2.57,2.37,2.37,0,0,1,2.39,2.57Zm8.37,5.07H462v-8.73H460.7Zm.68-10.18a.91.91,0,1,0-.95-.91A.94.94,0,0,0,461.38,860.36Zm6.78,10.36a3.41,3.41,0,0,0,3.48-2.2l-1.3-.37a2.14,2.14,0,0,1-2.18,1.37,2.64,2.64,0,0,1-2.72-2.89h6.33v-.57c0-3.25-1.93-4.36-3.75-4.36-2.36,0-3.93,1.86-3.93,4.54S465.64,870.72,468.16,870.72Zm-2.72-5.25A2.6,2.6,0,0,1,468,862.9a2.37,2.37,0,0,1,2.39,2.57Zm8.37,5.07h1.34V865a2.06,2.06,0,0,1,2.21-2,4.31,4.31,0,0,1,.81.09V861.7l-.7,0a2.37,2.37,0,0,0-2.27,1.45h-.09v-1.32h-1.3Z"/><path class="cls-7" d="M562.61,770.46h0a60.08,60.08,0,0,1,60.08,60.08h0a60.07,60.07,0,0,1-60.08,60.07h0a60.06,60.06,0,0,1-60.07-60.07h0A60.07,60.07,0,0,1,562.61,770.46Z"/><g class="cls-36"><path class="cls-37" d="M574.72,807.85a28.26,28.26,0,0,1,6.6.25l3.75-4.82,9.27,4.32-1.33,6a28.08,28.08,0,0,1,4.5,4.9l6.1-.75,3.5,9.55-5.17,3.32a24.49,24.49,0,0,1-.34,6.55l4.85,3.74L602.19,850l-6-1.33a28.18,28.18,0,0,1-4.93,4.48l.75,6.06-9.6,3.48-3.34-5.14a25.22,25.22,0,0,1-6.59-.33L568.71,862l-9.26-4.32,1.33-6a28.14,28.14,0,0,1-4.51-4.9l-6.09.75-3.51-9.55,5.18-3.31a27.9,27.9,0,0,1,.25-6.56l-4.84-3.73,4.42-9.05,6,1.33a27.79,27.79,0,0,1,4.93-4.48l-.75-6.06,9.51-3.49Zm-1.08,14.52a10.88,10.88,0,1,0,14,6.47A10.83,10.83,0,0,0,573.64,822.37Z"/><path class="cls-38" d="M529.89,808.1a14,14,0,0,1,3.76.16l2.09-2.74,5.17,2.41-.75,3.4a15.35,15.35,0,0,1,2.5,2.74l3.43-.41,2,5.39L545.17,821a14.16,14.16,0,0,1-.17,3.73l2.76,2.08-2.42,5.14-3.43-.74a15.76,15.76,0,0,1-2.75,2.49l.42,3.4-5.43,2-1.92-2.9a14.39,14.39,0,0,1-3.76-.17l-2.08,2.74-5.18-2.41.75-3.4a15.38,15.38,0,0,1-2.5-2.74l-3.43.42-1.92-5.4,2.93-1.91a13.74,13.74,0,0,1,.16-3.73l-2.75-2.08,2.42-5.14,3.42.75a15.06,15.06,0,0,1,2.76-2.49l-.42-3.41,5.34-2Zm-.58,8.13a6.15,6.15,0,1,0,7.93,3.65A6.27,6.27,0,0,0,529.31,816.23Z"/></g></g></svg>