<svg xmlns="http://www.w3.org/2000/svg" xmlns:xlink="http://www.w3.org/1999/xlink" viewBox="0 0 738.12 389"><defs><style>.cls-1{fill:#040d27;}.cls-2{fill:#03123c;}.cls-3,.cls-4{fill:#fff;}.cls-3{fill-rule:evenodd;}.cls-5{opacity:0.85;}.cls-6{opacity:0.88;}.cls-7{fill:#172f63;}.cls-8{fill:#1d3dae;}.cls-9{opacity:0.74;}.cls-10{fill:url(#linear-gradient);}.cls-11{fill:url(#linear-gradient-2);}</style><linearGradient id="linear-gradient" x1="717.56" y1="1015.14" x2="706.51" y2="1015.62" gradientTransform="matrix(1, 0, 0, -1, 0, 1253.99)" gradientUnits="userSpaceOnUse"><stop offset="0" stop-color="#151617"/><stop offset="1" stop-color="#151617" stop-opacity="0"/></linearGradient><linearGradient id="linear-gradient-2" x1="18.07" y1="1014.77" x2="29.13" y2="1015.25" xlink:href="#linear-gradient"/></defs><title>drone_top</title><g id="Layer_2" data-name="Layer 2"><g id="left_house"><path class="cls-1" d="M733,249.66c.56-25.62-1.24-71.5-7.21-75.37-2.85-1.84-7.45-1.63-9.76,0-3.19,2.27-4.68,11.94-5,26.31s-2.61,123.75-2.94,134.2c-.26,8.36-2.51,20.46-3.59,25.47L729.3,372h8.82c-.22-1.09-1-6.27-2.61-18.28S733.18,279.34,733,249.66Z"/><path class="cls-1" d="M5.13,249.66c-.56-25.62,1.25-71.5,7.21-75.37,2.85-1.84,7.46-1.63,9.76,0,3.19,2.27,4.68,11.94,5,26.31S29.71,324.35,30,334.8c.26,8.36,2.5,20.46,3.59,25.47L8.82,372H0c.22-1.09,1-6.27,2.61-18.28S4.94,279.34,5.13,249.66Z"/><path class="cls-2" d="M242.68,77.71C255.11,57.37,281.34,0,366.19,0S470.51,41.94,482.08,59.29c15.76,23.64,26.75,43.54,55.67,59.93,23.14,13.11,68.34,34.56,92.36,45.22L634,149a3.35,3.35,0,0,1,3.25-2.54h10.85a3.35,3.35,0,0,1,3.34,3l2.5,24.74L715.11,203v77.15C665.58,268.31,561.43,243.34,541,238.39c-25.52-6.19-44.08,18.56-52.58,30.16s-16.24,30.15-43.31,72.69S391.71,389,366.19,389,312,377.71,292,341.24c-10.52-19.18-30.67-53.36-39.44-68.05-8.5-13.92-31.39-40.37-54.9-34.8S69.83,267.52,20.59,278.6V205.14C37,197.31,60.16,186.31,84.13,175l3-27.64a3.35,3.35,0,0,1,3.33-3h10.83a3.36,3.36,0,0,1,3.23,2.45l4.56,16.44c32.32-15.17,62.39-29.11,75.47-34.67C215.46,115.43,230.26,98,242.68,77.71Z"/><path class="cls-3" d="M322.1,236.9h3l1.45-3.28h6.24l1.46,3.28h3.05l-5.95-13.33h-3.31Zm5.58-5.8,1.51-3.37.49-1.22.5,1.22,1.51,3.37Z"/><path class="cls-4" d="M338.14,225.51h2.72v-2.4h-2.72Z"/><path class="cls-4" d="M338.14,236.9h2.72V226.83h-2.72Z"/><path class="cls-4" d="M342.82,236.9h2.72v-5.61a2.57,2.57,0,0,1,.45-1.69,1.82,1.82,0,0,1,1.48-.53,1.7,1.7,0,0,1,1.26.37,1.75,1.75,0,0,1,.36,1.25V231h2.7v-.66a3.9,3.9,0,0,0-.81-2.53,3.17,3.17,0,0,0-2.59-1.11,3.48,3.48,0,0,0-2.46.88,3.56,3.56,0,0,0-.56.67v-1.37h-2.55Z"/><path class="cls-3" d="M353.14,236.9h2.56v-1.58a3.39,3.39,0,0,0,.89,1,4.62,4.62,0,0,0,2.8.81,4.77,4.77,0,0,0,3.67-1.47,5.48,5.48,0,0,0,1.26-3.74,5.56,5.56,0,0,0-1.24-3.77,5.16,5.16,0,0,0-6.42-.62,3.54,3.54,0,0,0-.79.85v-4.77h-2.73Zm2.73-4.93v-.15a2.55,2.55,0,0,1,.72-2,3.21,3.21,0,0,1,2.2-.65,3.12,3.12,0,0,1,2.1.58,2.67,2.67,0,0,1,.71,2.12,2.57,2.57,0,0,1-.71,2.08,3.17,3.17,0,0,1-2.14.58,3.21,3.21,0,0,1-2.15-.64A2.41,2.41,0,0,1,355.87,232Z"/><path class="cls-3" d="M385.32,236.05a3.75,3.75,0,0,0,.73-.87v1.72h2.56V226.83H385.9v5a2.94,2.94,0,0,1-.64,2.08,2.77,2.77,0,0,1-2.06.67,2.64,2.64,0,0,1-1.9-.56,2.32,2.32,0,0,1-.55-1.74v-5.44h-2.7v6a4.4,4.4,0,0,0,1.06,3,4.19,4.19,0,0,0,3.21,1.26A4.39,4.39,0,0,0,385.32,236.05Z"/><path class="cls-4" d="M390.53,236.9h2.72v-5a2.89,2.89,0,0,1,.63-2.07,2.61,2.61,0,0,1,2-.68,2.53,2.53,0,0,1,1.86.56,2.37,2.37,0,0,1,.54,1.74v5.44H401v-6a4.35,4.35,0,0,0-1.06-3,4.1,4.1,0,0,0-3.17-1.26,4.31,4.31,0,0,0-3,1,4.07,4.07,0,0,0-.73.88v-1.74h-2.55Z"/><path class="cls-3" d="M410.88,223.57v4.77a3.39,3.39,0,0,0-.8-.85,5.13,5.13,0,0,0-6.4.62,5.55,5.55,0,0,0-1.25,3.77,5.44,5.44,0,0,0,1.28,3.75,4.79,4.79,0,0,0,3.66,1.46,4.62,4.62,0,0,0,2.8-.81,3.5,3.5,0,0,0,.88-1v1.58h2.56V223.57Zm-5.71,8.31a2.7,2.7,0,0,1,.71-2.12,3.09,3.09,0,0,1,2.08-.58,3.2,3.2,0,0,1,2.19.65,2.55,2.55,0,0,1,.73,2V232a2.41,2.41,0,0,1-.74,1.93,3.2,3.2,0,0,1-2.14.64,3.16,3.16,0,0,1-2.12-.58A2.57,2.57,0,0,1,405.17,231.88Z"/><path class="cls-3" d="M370.94,237.09a5.77,5.77,0,0,0,4-1.45,5.37,5.37,0,0,0,0-7.55,5.77,5.77,0,0,0-4-1.44,5.71,5.71,0,0,0-4,1.44,5.37,5.37,0,0,0,0,7.55A5.7,5.7,0,0,0,370.94,237.09Zm0-2.5a3,3,0,0,1-2.21-.68,2.75,2.75,0,0,1-.65-2,2.79,2.79,0,0,1,.65-2.06,3,3,0,0,1,2.21-.7,3,3,0,0,1,2.23.7,2.75,2.75,0,0,1,.66,2.06,2.71,2.71,0,0,1-.66,2A3,3,0,0,1,370.94,234.59Z"/><g class="cls-5"><path class="cls-3" d="M322.1,236.9h3l1.45-3.28h6.24l1.46,3.28h3.05l-5.95-13.33h-3.31Zm5.58-5.8,1.51-3.37.49-1.22.5,1.22,1.51,3.37Z"/><path class="cls-4" d="M338.14,225.51h2.72v-2.4h-2.72Z"/><path class="cls-4" d="M338.14,236.9h2.72V226.83h-2.72Z"/><path class="cls-4" d="M342.82,236.9h2.72v-5.61a2.57,2.57,0,0,1,.45-1.69,1.82,1.82,0,0,1,1.48-.53,1.7,1.7,0,0,1,1.26.37,1.75,1.75,0,0,1,.36,1.25V231h2.7v-.66a3.9,3.9,0,0,0-.81-2.53,3.17,3.17,0,0,0-2.59-1.11,3.48,3.48,0,0,0-2.46.88,3.56,3.56,0,0,0-.56.67v-1.37h-2.55Z"/><path class="cls-3" d="M353.14,236.9h2.56v-1.58a3.39,3.39,0,0,0,.89,1,4.62,4.62,0,0,0,2.8.81,4.77,4.77,0,0,0,3.67-1.47,5.48,5.48,0,0,0,1.26-3.74,5.56,5.56,0,0,0-1.24-3.77,5.16,5.16,0,0,0-6.42-.62,3.54,3.54,0,0,0-.79.85v-4.77h-2.73Zm2.73-4.93v-.15a2.55,2.55,0,0,1,.72-2,3.21,3.21,0,0,1,2.2-.65,3.12,3.12,0,0,1,2.1.58,2.67,2.67,0,0,1,.71,2.12,2.57,2.57,0,0,1-.71,2.08,3.17,3.17,0,0,1-2.14.58,3.21,3.21,0,0,1-2.15-.64A2.41,2.41,0,0,1,355.87,232Z"/><path class="cls-3" d="M385.32,236.05a3.75,3.75,0,0,0,.73-.87v1.72h2.56V226.83H385.9v5a2.94,2.94,0,0,1-.64,2.08,2.77,2.77,0,0,1-2.06.67,2.64,2.64,0,0,1-1.9-.56,2.32,2.32,0,0,1-.55-1.74v-5.44h-2.7v6a4.4,4.4,0,0,0,1.06,3,4.19,4.19,0,0,0,3.21,1.26A4.39,4.39,0,0,0,385.32,236.05Z"/><path class="cls-4" d="M390.53,236.9h2.72v-5a2.89,2.89,0,0,1,.63-2.07,2.61,2.61,0,0,1,2-.68,2.53,2.53,0,0,1,1.86.56,2.37,2.37,0,0,1,.54,1.74v5.44H401v-6a4.35,4.35,0,0,0-1.06-3,4.1,4.1,0,0,0-3.17-1.26,4.31,4.31,0,0,0-3,1,4.07,4.07,0,0,0-.73.88v-1.74h-2.55Z"/><path class="cls-3" d="M410.88,223.57v4.77a3.39,3.39,0,0,0-.8-.85,5.13,5.13,0,0,0-6.4.62,5.55,5.55,0,0,0-1.25,3.77,5.44,5.44,0,0,0,1.28,3.75,4.79,4.79,0,0,0,3.66,1.46,4.62,4.62,0,0,0,2.8-.81,3.5,3.5,0,0,0,.88-1v1.58h2.56V223.57Zm-5.71,8.31a2.7,2.7,0,0,1,.71-2.12,3.09,3.09,0,0,1,2.08-.58,3.2,3.2,0,0,1,2.19.65,2.55,2.55,0,0,1,.73,2V232a2.41,2.41,0,0,1-.74,1.93,3.2,3.2,0,0,1-2.14.64,3.16,3.16,0,0,1-2.12-.58A2.57,2.57,0,0,1,405.17,231.88Z"/><path class="cls-3" d="M370.94,237.09a5.77,5.77,0,0,0,4-1.45,5.37,5.37,0,0,0,0-7.55,5.77,5.77,0,0,0-4-1.44,5.71,5.71,0,0,0-4,1.44,5.37,5.37,0,0,0,0,7.55A5.7,5.7,0,0,0,370.94,237.09Zm0-2.5a3,3,0,0,1-2.21-.68,2.75,2.75,0,0,1-.65-2,2.79,2.79,0,0,1,.65-2.06,3,3,0,0,1,2.21-.7,3,3,0,0,1,2.23.7,2.75,2.75,0,0,1,.66,2.06,2.71,2.71,0,0,1-.66,2A3,3,0,0,1,370.94,234.59Z"/></g><path class="cls-4" d="M335.33,134.69,347.5,140a16.5,16.5,0,0,1,17.37-8.42c7.09,1.07,11.32,6.66,12.84,9.89A29.08,29.08,0,0,1,376.14,168l12.56,6a44.86,44.86,0,0,0,2.36-35.29c-3.93-11.15-13.37-18.88-25.51-20.72C349.39,115.58,338.32,128,335.33,134.69Z"/><path class="cls-4" d="M355.34,204.29c11.91,3.33,35.28,1.44,45.74-24.41L388.7,174c-9.78,20.68-22.94,18.72-30.79,16.67-5.81-1.52-12.86-6.92-12.86-15.12,0-9.89,9.69-18,21.15-14.06,0,0,1.86-12.6,1.75-12.71-9.24-2.92-20.55-2.44-30.21,9.91-6.27,8-7.43,20.26-2.58,29.74C338.91,195.79,346.27,201.76,355.34,204.29Z"/><g class="cls-6"><path class="cls-4" d="M335.13,134.69,347.29,140a16.52,16.52,0,0,1,17.38-8.42c7.09,1.07,11.32,6.66,12.83,9.89A29,29,0,0,1,375.93,168l12.57,6a44.9,44.9,0,0,0,2.36-35.29c-3.93-11.15-13.37-18.88-25.51-20.72C349.19,115.58,338.11,128,335.13,134.69Z"/><path class="cls-4" d="M355.14,204.3c11.91,3.32,35.27,1.44,45.74-24.42L388.5,174c-9.78,20.69-22.94,18.72-30.8,16.67-5.81-1.52-12.86-6.92-12.86-15.12,0-9.89,9.7-18,21.16-14.06,0,0,1.86-12.59,1.75-12.7-9.24-2.92-20.55-2.44-30.21,9.91-6.27,8-7.44,20.26-2.58,29.74C338.71,195.79,346.06,201.76,355.14,204.3Z"/></g><path class="cls-7" d="M577.18,132.08V130c7.11-.26,23.38-1.19,31.55-1.19s24.13,1,31.09,1.52v1.43Z"/><path class="cls-7" d="M708.13,132.08V130c-7.11-.26-23.38-1.19-31.55-1.19s-24.13,1-31.09,1.52v1.43Z"/><path class="cls-7" d="M634.3,135.12a1.1,1.1,0,0,1,.21-.66l7.36-10.11a1.12,1.12,0,0,1,1.84,0l6.63,10.09a1.1,1.1,0,0,1,.19.61v5.69a1.12,1.12,0,0,1-1.12,1.12h-14a1.12,1.12,0,0,1-1.12-1.12Z"/><path class="cls-7" d="M32.49,132.08V130c7.11-.26,23.38-1.19,31.55-1.19s24.13,1,31.09,1.52v1.43Z"/><path class="cls-7" d="M163.44,132.08V130c-7.11-.26-23.38-1.19-31.55-1.19s-24.13,1-31.09,1.52v1.43Z"/><path class="cls-7" d="M87.9,135.12a1.1,1.1,0,0,1,.21-.66l7.36-10.11a1.12,1.12,0,0,1,1.84,0l6.63,10.09a1.1,1.1,0,0,1,.19.61v5.69A1.12,1.12,0,0,1,103,141.9H89a1.12,1.12,0,0,1-1.12-1.12Z"/><path class="cls-8" d="M185.28,194,20.54,248.39V278.8l168.12-38.15Z"/><path class="cls-8" d="M550.37,194l164.74,54.37v31.77L547.05,240Z"/><g class="cls-9"><path class="cls-10" d="M715.19,280.36V202.54l-14.28-6-4.39,78.74Z"/></g><g class="cls-9"><path class="cls-11" d="M20.51,279.22v-74.8l14.28-6,4.09,76.44Z"/></g></g></g></svg>