<svg xmlns="http://www.w3.org/2000/svg" xmlns:xlink="http://www.w3.org/1999/xlink" viewBox="0 0 275.44 98.23"><defs><style>.cls-1{fill:none;}.cls-12,.cls-2{fill:#fff;}.cls-2{fill-opacity:0.12;}.cls-3{clip-path:url(#clip-path);}.cls-4{fill:#8bffea;}.cls-5{clip-path:url(#clip-path-2);}.cls-6{fill:#0a6f7c;}.cls-11,.cls-7,.cls-8{fill:#14bad0;}.cls-8{opacity:0.3;}.cls-11,.cls-8{isolation:isolate;}.cls-9{fill:#083f51;}.cls-10,.cls-11{opacity:0.5;}</style><clipPath id="clip-path"><path id="SVGID" class="cls-1" d="M49.11,16h0A33.12,33.12,0,0,1,82.23,49.11h0A33.12,33.12,0,0,1,49.11,82.23h0A33.12,33.12,0,0,1,16,49.11h0A33.12,33.12,0,0,1,49.11,16Z"/></clipPath><clipPath id="clip-path-2"><rect id="SVGID-2" data-name="SVGID" class="cls-1" x="26.22" y="29.23" width="45" height="43"/></clipPath></defs><title>illustration</title><g id="houses"><rect class="cls-2" width="275.44" height="98.23" rx="8"/><g class="cls-3"><rect class="cls-4" x="16" y="16" width="66.23" height="66.23"/><g class="cls-5"><path class="cls-6" d="M50.72,52.39s-7.1.31-11.76-7a14.62,14.62,0,0,1-1.93-5,26.73,26.73,0,0,1,.44-10.93.31.31,0,0,1,.51-.13c2.09,2.31,11,3.42,14.29,11.54A12.52,12.52,0,0,1,53,43.41,10.24,10.24,0,0,1,50.72,52.39Z"/><path class="cls-6" d="M47.58,48.82a13.46,13.46,0,0,1,.51,1.32Z"/><path class="cls-7" d="M47,56.65a14.06,14.06,0,0,1-13.5-2.15c-3.33-2.43-5.2-6.35-6.21-9.54a28.1,28.1,0,0,1-1.08-4.71.28.28,0,0,1,.41-.28c2.79,1.36,11.44-.89,17.56,5.43a14.6,14.6,0,0,1,1.9,2.47A10.1,10.1,0,0,1,47,56.65Z"/><path class="cls-8" d="M47,56.65a14.06,14.06,0,0,1-13.5-2.15c-3.33-2.43-5.2-6.35-6.21-9.54l0-.09s3.36,11.88,18.51,10c0,0,1.58-2.71.25-7A10.1,10.1,0,0,1,47,56.65Z"/><path class="cls-7" d="M71,39.12a17.53,17.53,0,0,1-3.8,9.16A11.12,11.12,0,0,1,55.63,52a9.17,9.17,0,0,1-.26-8.88,11.34,11.34,0,0,1,.86-1.52c4.28-6.54,12.23-6.07,14.48-7.71a.31.31,0,0,1,.48.19A30.7,30.7,0,0,1,71,39.12Z"/><path class="cls-8" d="M71,39.12a17.53,17.53,0,0,1-3.8,9.16A11.12,11.12,0,0,1,55.63,52a9.17,9.17,0,0,1-.26-8.88c0,.19-.47,5,1.3,6.85C56.64,50,66.88,51.44,71,39.12Z"/><path class="cls-9" d="M69.54,36.75c0,.06-.1.15-.16.28a7.72,7.72,0,0,1-.66.95,18.57,18.57,0,0,1-2.67,2.59c-.12.09-.22.19-.35.28-1.33,1.11-2.88,2.37-4.43,3.86-.76.76-1.55,1.55-2.25,2.4a23.34,23.34,0,0,0-1.93,2.78c-.29.51-.54,1-.83,1.49s-.47,1-.73,1.51-.41,1-.63,1.55-.38,1-.54,1.52-.32,1-.48,1.48-.25,1-.38,1.45c-.22,1-.41,1.87-.53,2.69a2.76,2.76,0,0,0,0,.66A27.8,27.8,0,0,0,53,65.53a39.94,39.94,0,0,0,.88,6.38,17.53,17.53,0,0,1-2,.22c-.41,0-.79,0-1.2,0h-.48a10.36,10.36,0,0,1-1.39-.09,18.43,18.43,0,0,0,1.23-4.39,11.9,11.9,0,0,0-1-7.49s0,0,0,0-.12-.22-.19-.35a28.45,28.45,0,0,0-4.53-6.16,22.85,22.85,0,0,0-2.94-2.56A32.41,32.41,0,0,0,38.13,49c-2-1.17-3.89-2.15-5.51-3.13-.13-.1-.28-.16-.41-.25a18,18,0,0,1-3.77-3,12.22,12.22,0,0,1-.86-1,2.75,2.75,0,0,0-.25-.32,2.21,2.21,0,0,0,.25.32c.19.25.51.6.89,1a18,18,0,0,0,3.87,2.85l.38.22c1.64.91,3.61,1.83,5.64,2.93a34.76,34.76,0,0,1,3.29,2,23.32,23.32,0,0,1,3.11,2.52,31.34,31.34,0,0,1,4.91,6.2c.38.66.73,1.32,1,2,0-.22,0-.47.06-.76.06-.63,0-1.36,0-2.12,0-.38,0-.79,0-1.23a4.43,4.43,0,0,0,0-.63c0-.22,0-.44-.07-.66-.12-.89-.16-1.84-.35-2.82s-.35-2-.63-2.93c-.13-.51-.29-1-.44-1.49L49,48c-.09-.25-.19-.47-.28-.72-.38-1-.73-2-1.21-2.91-.22-.47-.41-.95-.66-1.39s-.51-.89-.73-1.3a12.22,12.22,0,0,0-.76-1.23c-.25-.41-.51-.79-.76-1.17-.54-.72-1.05-1.42-1.55-2s-.89-1-1.3-1.48l-.13-.13c-.44-.47-.86-.85-1.17-1.17-.54-.5-.92-.82-1.05-.92a13.62,13.62,0,0,1,1.11.89c.35.31.76.69,1.24,1.14l.16.15c.41.42.88.89,1.33,1.39s1.07,1.27,1.64,2c.29.38.54.76.83,1.14a12.51,12.51,0,0,1,.82,1.23c.26.42.54.86.79,1.3s.48.92.73,1.39c.51.92.92,1.9,1.37,2.91.09.25.22.47.31.72l.26.76c.16.51.35,1,.5,1.52.32,1,.51,2,.76,3s.32,2,.48,2.87a34.33,34.33,0,0,1,.32,4.81V61c.15-.72.31-1.45.54-2.24.12-.47.28-1,.44-1.49s.32-1,.51-1.51.38-1,.6-1.55.47-1,.7-1.55.53-1,.79-1.55.6-1,.88-1.48a20.47,20.47,0,0,1,2.1-2.78c.76-.85,1.55-1.64,2.34-2.37,1.62-1.45,3.23-2.65,4.6-3.73l.35-.28A20.22,20.22,0,0,0,68.62,38c.32-.38.54-.73.7-.95S69.48,36.81,69.54,36.75Z"/><g class="cls-10"><path class="cls-11" d="M31.07,41.27a16.36,16.36,0,0,1,2.25,0l1.07.09c.39.06.8.1,1.21.19s.85.16,1.27.29.85.22,1.3.37.85.32,1.26.48a12.9,12.9,0,0,1,1.18.57,8,8,0,0,1,1,.63c.16.13.32.22.48.35s.28.22.41.34a8.25,8.25,0,0,1,.66.67c.19.19.32.41.45.53a3.36,3.36,0,0,1,.25.38l.1.13-.45-.44a5.61,5.61,0,0,0-.54-.44,9,9,0,0,0-.72-.54c-.26-.19-.54-.38-.86-.57s-.7-.35-1-.54l-.57-.25c-.19-.09-.38-.16-.6-.25-.41-.16-.82-.32-1.23-.44s-.83-.26-1.27-.38-.83-.23-1.24-.32c-.79-.19-1.55-.35-2.22-.47C32,41.39,31.07,41.27,31.07,41.27Z"/></g><g class="cls-10"><path class="cls-11" d="M56.36,43.1s.06-.19.19-.51c.06-.16.16-.35.25-.54a5.91,5.91,0,0,1,.41-.69c.16-.25.35-.51.54-.76a7.09,7.09,0,0,1,.7-.79,5.24,5.24,0,0,0,.38-.41l.41-.38c.29-.25.6-.47.92-.73s.66-.41,1-.63a10.72,10.72,0,0,1,1-.5,9,9,0,0,1,1-.38,5.56,5.56,0,0,1,.89-.25,7.65,7.65,0,0,1,.76-.19l.6-.1.54-.06s-.19.06-.51.19l-.57.19c-.22.06-.44.19-.73.28l-.41.16-.45.19c-.28.16-.6.28-.91.44s-.64.35-1,.54a8.76,8.76,0,0,0-.92.63c-.29.22-.61.44-.89.66s-.29.23-.41.35-.26.25-.38.35-.48.47-.73.69-.45.48-.6.7A17.2,17.2,0,0,0,56.36,43.1Z"/></g></g></g><path class="cls-12" d="M110.37,35.51v-2.7H102v-2.7h8V27.43h-8V24.81h8.34v-2.7H99v13.4Zm7.29.2c3.22,0,5.42-1.74,5.42-4.32v-.28h-3v.16c0,1.28-.94,1.74-2.5,1.74-1.78,0-2.6-.66-2.6-2.5s.82-2.52,2.6-2.52c1.56,0,2.5.46,2.5,1.74v.16h3v-.28c0-2.6-2.2-4.32-5.42-4.32-3.44,0-5.64,2-5.64,5.22S114.22,35.71,117.66,35.71Zm12.65,0c3.42,0,5.72-2,5.72-5.2s-2.3-5.22-5.72-5.22-5.72,2-5.72,5.22S126.89,35.71,130.31,35.71Zm0-2.66c-2,0-2.74-.78-2.74-2.54s.7-2.58,2.74-2.58,2.74.82,2.74,2.58S132.33,33.05,130.31,33.05Zm14.81-2.16V28.31h-7.46v2.58Zm5,4.62v-5h8V27.83h-8v-3h8.34v-2.7H147.11v13.4Zm13.22,0v-5.8c0-1.26.48-1.88,1.82-1.88s1.66.48,1.66,1.58v1h3V28.79c0-2-.92-3.5-3.16-3.5a3.19,3.19,0,0,0-3.36,2.86h-.18V25.49h-2.78v10Zm11.16-11V22.11h-3v2.36Zm0,11v-10h-3v10Zm7.5.2c3.18,0,5.3-1.52,5.3-3.7v-.22h-3V32c0,.86-.62,1.32-2.4,1.32-1.94,0-2.66-.66-2.74-2.2h8.16a7.46,7.46,0,0,0,.08-1c0-3.14-2.18-4.86-5.46-4.86s-5.56,2-5.56,5.22C176.37,34.07,178.65,35.71,182,35.71Zm-.12-8.08c1.76,0,2.56.58,2.64,1.9h-5.32C179.33,28.23,180.09,27.63,181.87,27.63Zm10.39,7.88V30.45c0-1.7.68-2.46,2.58-2.46s2.5.68,2.5,2.28v5.24h3V29.27a3.71,3.71,0,0,0-4-4,3.77,3.77,0,0,0-4.08,3.28H192V25.49h-2.78v10Zm14.67.2c2.3,0,3.62-1,4-3h.16v2.78h2.8V22.11h-3v6h-.18c-.34-1.68-1.56-2.86-3.94-2.86-3,0-4.68,2-4.68,5.22S203.81,35.71,206.93,35.71Zm-1.8-5.2c0-1.84.9-2.48,2.82-2.48s2.94.64,2.94,2.38v.16c0,1.74-1,2.4-2.94,2.4S205.13,32.33,205.13,30.51Zm14,5V22.11h-3v13.4Zm4.09,3.4c2.52,0,3.86-.58,4.82-2.68l5-10.74h-3.34l-1.9,4.56-.8,2.38h-.2l-.84-2.36-2.12-4.58h-3.4l4.9,10.06c-.2.44-.52.64-1.26.64h-2.46v2.72Z"/><path class="cls-12" d="M99.28,55.51h1.06V52.32h1.91a2.78,2.78,0,1,0,0-5.54h-3Zm1.06-4.13V47.72h1.86c1.42,0,2,.77,2,1.82a1.7,1.7,0,0,1-1.94,1.84Zm9,4.26c1.78,0,3-1.34,3-3.37s-1.19-3.39-3-3.39-3,1.34-3,3.39S107.58,55.64,109.35,55.64Zm0-.9c-1.34,0-2-1.16-2-2.47s.62-2.49,2-2.49,2,1.18,2,2.49S110.7,54.74,109.35,54.74Zm5.77.77h1l1.44-5h.1l1.43,5h1l2-6.55h-1l-1.42,5h-.07l-1.38-5h-1.07l-1.4,5h-.07l-1.41-5h-1.06Zm10.78.13A2.54,2.54,0,0,0,128.51,54l-1-.27a1.61,1.61,0,0,1-1.64,1,2,2,0,0,1-2-2.16h4.75v-.43c0-2.44-1.44-3.27-2.81-3.27-1.77,0-3,1.39-3,3.41S124,55.64,125.9,55.64Zm-2-3.93a2,2,0,0,1,1.94-1.93,1.78,1.78,0,0,1,1.79,1.93Zm6.28,3.8h1V51.37a1.55,1.55,0,0,1,1.65-1.54,2.9,2.9,0,0,1,.62.07v-1l-.53,0A1.78,1.78,0,0,0,131.18,50h-.06V49h-1Zm7,.13A2.54,2.54,0,0,0,139.76,54l-1-.27a1.61,1.61,0,0,1-1.64,1,2,2,0,0,1-2-2.16h4.75v-.43c0-2.44-1.44-3.27-2.81-3.27-1.77,0-3,1.39-3,3.41S135.26,55.64,137.15,55.64Zm-2-3.93a2,2,0,0,1,1.94-1.93,1.78,1.78,0,0,1,1.79,1.93Zm8.76,3.93a2,2,0,0,0,1.9-1.14h.12v1h1V46.78h-1V50h-.09a2,2,0,0,0-1.89-1.12c-1.65,0-2.79,1.31-2.79,3.37S142.23,55.64,143.87,55.64Zm.13-.9c-1.26,0-1.91-1.11-1.91-2.5s.63-2.46,1.91-2.46,1.88,1,1.88,2.46S145.21,54.74,144,54.74Zm9.71.77h1l1.44-5h.1l1.43,5h1l2-6.55h-1l-1.42,5h-.07l-1.38-5h-1.07l-1.4,5h-.07l-1.41-5h-1.06Zm8.26,0h1V49h-1Zm.51-7.64a.68.68,0,1,0,0-1.36.68.68,0,1,0,0,1.36ZM167.67,49h-1.4V47.39h-1V49h-1v.85h1v4.1A1.67,1.67,0,0,0,167,55.59a2.16,2.16,0,0,0,.75-.12l-.21-.9a1.74,1.74,0,0,1-.44,0c-.45,0-.87-.13-.87-1V49.81h1.4Zm2.66,2.61a1.64,1.64,0,0,1,1.72-1.79,1.45,1.45,0,0,1,1.51,1.64v4.09h1V51.35c0-1.68-.9-2.47-2.23-2.47A1.91,1.91,0,0,0,170.41,50h-.08V46.78h-1v8.73h1Zm9.95,3.94.88-2.47h3.53l.87,2.47h1.11l-3.2-8.73h-1.09l-3.21,8.73Zm1.21-3.41,1.4-3.94H183l1.39,3.94Zm7.6-5.32H188v8.73h1.06Zm2.71,8.8a.77.77,0,1,0,0-1.54.77.77,0,0,0,0,1.54Zm6.09-.07h5.33v-.94h-4.28v-3h3.94v-.93h-3.94v-3h4.21v-.94h-5.26Zm10-6.55h-1.47V48.3c0-.65.27-1,.94-1a1.63,1.63,0,0,1,.56.1l.29-.87a2.29,2.29,0,0,0-.95-.17,1.7,1.7,0,0,0-1.85,1.69V49h-1.05v.85h1.05v5.7h1v-5.7h1.47Zm4.32,0h-1.47V48.3c0-.65.28-1,.94-1a1.63,1.63,0,0,1,.56.1l.29-.87a2.29,2.29,0,0,0-.95-.17,1.69,1.69,0,0,0-1.84,1.69V49h-1.06v.85h1.06v5.7h1v-5.7h1.47Zm1.41,6.55h1V49h-1Zm.51-7.64a.68.68,0,1,0,0-1.36.68.68,0,1,0,0,1.36Zm5,7.77a2.42,2.42,0,0,0,2.57-2h-1a1.52,1.52,0,0,1-1.56,1.14c-1.2,0-2-1-2-2.5s.78-2.46,2-2.46a1.53,1.53,0,0,1,1.56,1.14h1a2.44,2.44,0,0,0-2.59-2c-1.77,0-2.95,1.39-2.95,3.39S217.24,55.64,219.08,55.64Zm4-.13h1V49h-1Zm.51-7.64a.68.68,0,1,0,0-1.36.68.68,0,1,0,0,1.36Zm5.08,7.77A2.55,2.55,0,0,0,231.32,54l-1-.27a1.61,1.61,0,0,1-1.64,1,2,2,0,0,1-2-2.16h4.75v-.43c0-2.44-1.45-3.27-2.81-3.27-1.77,0-3,1.39-3,3.41S226.82,55.64,228.71,55.64Zm-2-3.93a2,2,0,0,1,1.94-1.93,1.78,1.78,0,0,1,1.79,1.93Zm7.29-.14a1.62,1.62,0,0,1,1.67-1.79,1.45,1.45,0,0,1,1.5,1.64v4.09h1V51.35c0-1.67-.89-2.47-2.21-2.47A1.93,1.93,0,0,0,234,50h-.09V49h-1v6.55h1ZM242.82,49h-1.4V47.39h-1V49h-1v.85h1v4.1a1.67,1.67,0,0,0,1.77,1.68,2.16,2.16,0,0,0,.75-.12l-.21-.9a1.74,1.74,0,0,1-.44,0c-.44,0-.87-.13-.87-1V49.81h1.4ZM101.07,74.66a2.06,2.06,0,0,0,2-1h0v.89h1V70.2a2.15,2.15,0,0,0-2.42-2.32A2.66,2.66,0,0,0,99,69.41l1,.34a1.77,1.77,0,0,1,1.71-1,1.22,1.22,0,0,1,1.38,1.33v0c0,.48-.5.44-1.69.59s-2.54.43-2.54,1.93A2,2,0,0,0,101.07,74.66Zm.16-.9c-.8,0-1.38-.36-1.38-1.06s.7-1,1.48-1.11a5.25,5.25,0,0,0,1.74-.37v.92A1.68,1.68,0,0,1,101.23,73.76Zm5.69-3.19a1.62,1.62,0,0,1,1.67-1.79,1.45,1.45,0,0,1,1.5,1.64v4.09h1V70.35c0-1.67-.89-2.47-2.21-2.47A1.92,1.92,0,0,0,107,69h-.09V68h-1v6.55h1Zm8.48,4.07a2,2,0,0,0,1.91-1.14h.12v1h1V65.78h-1V69h-.09a2,2,0,0,0-1.89-1.12c-1.66,0-2.8,1.31-2.8,3.37S113.76,74.64,115.4,74.64Zm.14-.9c-1.26,0-1.91-1.11-1.91-2.5s.63-2.46,1.91-2.46,1.87,1,1.87,2.46S116.75,73.74,115.54,73.74Zm8.71.77.88-2.47h3.53l.88,2.47h1.1l-3.2-8.73h-1.09l-3.21,8.73Zm1.21-3.41,1.4-3.94h.07l1.4,3.94Zm9.07,3.54a2.43,2.43,0,0,0,2.57-2h-1a1.52,1.52,0,0,1-1.56,1.14c-1.2,0-2-1-2-2.5s.78-2.46,2-2.46a1.53,1.53,0,0,1,1.56,1.14h1a2.44,2.44,0,0,0-2.59-2c-1.77,0-2.95,1.39-2.95,3.39S132.68,74.64,134.53,74.64Zm6.7,0a2.42,2.42,0,0,0,2.57-2h-1a1.53,1.53,0,0,1-1.57,1.14c-1.19,0-2-1-2-2.5s.78-2.46,2-2.46a1.54,1.54,0,0,1,1.57,1.14h1a2.44,2.44,0,0,0-2.59-2c-1.77,0-3,1.39-3,3.39S139.39,74.64,141.23,74.64Zm8.17-2.81a1.7,1.7,0,0,1-1.69,1.79,1.43,1.43,0,0,1-1.43-1.57V68h-1v4.16c0,1.67.89,2.47,2.12,2.47a2,2,0,0,0,1.94-1.19h.07v1.11h1V68h-1Zm2.85,2.68h1V70.37a1.55,1.55,0,0,1,1.65-1.54,2.9,2.9,0,0,1,.62.07v-1l-.53,0a1.77,1.77,0,0,0-1.7,1.09h-.07V68h-1Zm6.39.15a2,2,0,0,0,1.94-1h0v.89h1V70.2a2.15,2.15,0,0,0-2.42-2.32,2.66,2.66,0,0,0-2.63,1.53l1,.34a1.76,1.76,0,0,1,1.7-1,1.22,1.22,0,0,1,1.38,1.33v0c0,.48-.49.44-1.69.59s-2.54.43-2.54,1.93A2,2,0,0,0,158.64,74.66Zm.15-.9c-.8,0-1.38-.36-1.38-1.06s.7-1,1.48-1.11a5.25,5.25,0,0,0,1.74-.37v.92A1.68,1.68,0,0,1,158.79,73.76Zm7.53-5.8h-1.4V66.39h-1V68h-1v.85h1v4.1a1.67,1.67,0,0,0,1.77,1.68,2.16,2.16,0,0,0,.75-.12l-.21-.9a1.74,1.74,0,0,1-.44.05c-.44,0-.87-.13-.87-1V68.81h1.4Zm4.19,6.68a2.53,2.53,0,0,0,2.6-1.65l-1-.27a1.6,1.6,0,0,1-1.63,1,2,2,0,0,1-2-2.16h4.76v-.43c0-2.44-1.45-3.27-2.82-3.27-1.77,0-3,1.39-3,3.41S168.61,74.64,170.51,74.64Zm-2-3.93a2,2,0,0,1,1.94-1.93,1.78,1.78,0,0,1,1.79,1.93Zm7,3.87a.77.77,0,1,0-.77-.77A.78.78,0,0,0,175.48,74.58Z"/></g></svg>