<svg xmlns="http://www.w3.org/2000/svg" xmlns:xlink="http://www.w3.org/1999/xlink" viewBox="0 0 295.72 98.23"><defs><style>.cls-1{fill:none;}.cls-12,.cls-2{fill:#fff;}.cls-2{fill-opacity:0.12;}.cls-3{clip-path:url(#clip-path);}.cls-4{fill:#8bffea;}.cls-5{clip-path:url(#clip-path-2);}.cls-6{fill:#0a6f7c;}.cls-11,.cls-7,.cls-8{fill:#14bad0;}.cls-8{opacity:0.3;}.cls-11,.cls-8{isolation:isolate;}.cls-9{fill:#083f51;}.cls-10,.cls-11{opacity:0.5;}</style><clipPath id="clip-path"><path id="SVGID" class="cls-1" d="M49.83,16h0A33.11,33.11,0,0,1,82.94,49.11h0A33.11,33.11,0,0,1,49.83,82.23h0A33.11,33.11,0,0,1,16.72,49.11h0A33.11,33.11,0,0,1,49.83,16Z"/></clipPath><clipPath id="clip-path-2"><rect id="SVGID-2" data-name="SVGID" class="cls-1" x="26.93" y="29.23" width="45" height="43"/></clipPath></defs><title>illustration</title><g id="houses"><rect class="cls-2" x="0.72" width="295" height="98.23" rx="8"/><g class="cls-3"><rect class="cls-4" x="16.72" y="16" width="66.23" height="66.23"/><g class="cls-5"><path class="cls-6" d="M51.43,52.39s-7.1.31-11.76-7a14.82,14.82,0,0,1-1.93-5,26.73,26.73,0,0,1,.44-10.93.31.31,0,0,1,.51-.13c2.09,2.31,11,3.42,14.29,11.54a11.9,11.9,0,0,1,.76,2.52A10.24,10.24,0,0,1,51.43,52.39Z"/><path class="cls-6" d="M48.29,48.82a13.46,13.46,0,0,1,.51,1.32Z"/><path class="cls-7" d="M47.72,56.65s-6.49,2.94-13.5-2.15C30.9,52.07,29,48.15,28,45a29.16,29.16,0,0,1-1.08-4.71.28.28,0,0,1,.42-.28c2.78,1.36,11.44-.89,17.55,5.43a14.1,14.1,0,0,1,1.9,2.47A10.1,10.1,0,0,1,47.72,56.65Z"/><path class="cls-8" d="M47.72,56.65s-6.49,2.94-13.5-2.15C30.9,52.07,29,48.15,28,45l0-.09s3.36,11.88,18.51,10c0,0,1.58-2.71.25-7A10.1,10.1,0,0,1,47.72,56.65Z"/><path class="cls-7" d="M71.74,39.12a17.53,17.53,0,0,1-3.8,9.16A11.12,11.12,0,0,1,56.34,52a9.16,9.16,0,0,1-.25-8.88,11.22,11.22,0,0,1,.85-1.52c4.28-6.54,12.24-6.07,14.49-7.71a.3.3,0,0,1,.47.19A29.6,29.6,0,0,1,71.74,39.12Z"/><path class="cls-8" d="M71.74,39.12a17.53,17.53,0,0,1-3.8,9.16A11.12,11.12,0,0,1,56.34,52a9.16,9.16,0,0,1-.25-8.88c0,.19-.48,5,1.3,6.85C57.36,50,67.59,51.44,71.74,39.12Z"/><path class="cls-9" d="M70.25,36.75c0,.06-.09.15-.15.28a7,7,0,0,1-.67.95,19,19,0,0,1-2.66,2.59c-.13.09-.22.19-.35.28C65.09,42,63.54,43.22,62,44.71c-.76.76-1.55,1.55-2.25,2.4a24.56,24.56,0,0,0-1.93,2.78c-.28.51-.54,1-.82,1.49s-.48,1-.73,1.51-.41,1-.64,1.55-.38,1-.53,1.52-.32,1-.48,1.48-.25,1-.38,1.45c-.22,1-.41,1.87-.54,2.69a3.67,3.67,0,0,0,0,.66,30.1,30.1,0,0,0,.06,3.29,40,40,0,0,0,.89,6.38,17.71,17.71,0,0,1-2,.22c-.41,0-.79,0-1.2,0H51a10.51,10.51,0,0,1-1.4-.09,18.41,18.41,0,0,0,1.24-4.39,12,12,0,0,0-1-7.49,0,0,0,0,0,0,0c-.06-.13-.13-.22-.19-.35A28.79,28.79,0,0,0,45,53.65a22.28,22.28,0,0,0-3-2.56A32.29,32.29,0,0,0,38.85,49c-2-1.17-3.9-2.15-5.51-3.13-.13-.1-.29-.16-.42-.25a18,18,0,0,1-3.77-3,11.71,11.71,0,0,1-.85-1c-.13-.16-.19-.28-.26-.32a4.1,4.1,0,0,0,.26.32c.19.25.5.6.88,1a18.51,18.51,0,0,0,3.87,2.85c.13.06.25.15.38.22,1.65.91,3.61,1.83,5.64,2.93a34.9,34.9,0,0,1,3.3,2,23.88,23.88,0,0,1,3.1,2.52,30.63,30.63,0,0,1,4.91,6.2,21.46,21.46,0,0,1,1,2c0-.22,0-.47.06-.76.07-.63,0-1.36,0-2.12,0-.38,0-.79,0-1.23a4.43,4.43,0,0,0,0-.63c0-.22,0-.44-.06-.66-.13-.89-.16-1.84-.35-2.82s-.35-2-.64-2.93c-.12-.51-.28-1-.44-1.49L49.72,48l-.29-.72c-.38-1-.72-2-1.2-2.91-.22-.47-.41-.95-.67-1.39s-.5-.89-.72-1.3a14.35,14.35,0,0,0-.76-1.23c-.26-.41-.51-.79-.77-1.17-.53-.72-1-1.42-1.55-2s-.89-1-1.3-1.48l-.12-.13c-.45-.47-.86-.85-1.18-1.17-.54-.5-.92-.82-1-.92.12.1.54.38,1.11.89q.52.47,1.23,1.14l.16.15c.41.42.89.89,1.33,1.39s1.08,1.27,1.65,2l.82,1.14a12.57,12.57,0,0,1,.83,1.23c.25.42.54.86.79,1.3s.48.92.73,1.39c.51.92.92,1.9,1.36,2.91.1.25.22.47.32.72l.25.76c.16.51.35,1,.51,1.52.32,1,.51,2,.76,3s.32,2,.47,2.87a31.34,31.34,0,0,1,.32,4.81V61c.16-.72.32-1.45.54-2.24.13-.47.29-1,.44-1.49s.32-1,.51-1.51.38-1,.6-1.55.48-1,.7-1.55.54-1,.79-1.55.6-1,.89-1.48a19.61,19.61,0,0,1,2.09-2.78,32.91,32.91,0,0,1,2.35-2.37c1.61-1.45,3.23-2.65,4.59-3.73a2.68,2.68,0,0,0,.35-.28A21.06,21.06,0,0,0,69.34,38c.31-.38.53-.73.69-.95S70.19,36.81,70.25,36.75Z"/><g class="cls-10"><path class="cls-11" d="M31.78,41.27a16.4,16.4,0,0,1,2.25,0l1.08.09c.38.06.79.1,1.2.19s.86.16,1.27.29.86.22,1.3.37.86.32,1.27.48.79.38,1.17.57a8.84,8.84,0,0,1,1,.63c.16.13.31.22.47.35s.29.22.41.34a7,7,0,0,1,.67.67c.19.19.32.41.44.53s.19.29.26.38a.77.77,0,0,0,.09.13l-.44-.44c-.16-.13-.32-.29-.54-.44A7.73,7.73,0,0,0,43,44.9c-.25-.19-.54-.38-.85-.57s-.7-.35-1-.54l-.57-.25c-.19-.09-.38-.16-.6-.25-.41-.16-.83-.32-1.24-.44a11.77,11.77,0,0,0-1.27-.38c-.41-.13-.82-.23-1.23-.32-.79-.19-1.56-.35-2.22-.47C32.67,41.39,31.78,41.27,31.78,41.27Z"/></g><g class="cls-10"><path class="cls-11" d="M57.07,43.1l.19-.51c.07-.16.16-.35.26-.54a4.78,4.78,0,0,1,.41-.69c.16-.25.35-.51.54-.76a8.12,8.12,0,0,1,.69-.79,3,3,0,0,0,.38-.41c.13-.13.29-.25.42-.38s.6-.47.91-.73.67-.41,1-.63a9.49,9.49,0,0,1,1-.5c.32-.16.67-.26,1-.38a5.86,5.86,0,0,1,.89-.25c.29-.07.54-.16.76-.19l.6-.1.54-.06s-.19.06-.5.19l-.58.19c-.22.06-.44.19-.72.28s-.26.1-.42.16l-.44.19c-.29.16-.6.28-.92.44l-1,.54a10,10,0,0,0-.92.63c-.28.22-.6.44-.89.66-.12.13-.28.23-.41.35a3.09,3.09,0,0,1-.38.35c-.25.22-.47.47-.73.69s-.44.48-.6.7A17.2,17.2,0,0,0,57.07,43.1Z"/></g></g></g><path class="cls-12" d="M111.08,35.51v-2.7h-8.34v-2.7h8V27.43h-8V24.81h8.34v-2.7H99.74v13.4Zm7.3.2c3.22,0,5.42-1.74,5.42-4.32v-.28h-3v.16c0,1.28-.94,1.74-2.5,1.74-1.78,0-2.6-.66-2.6-2.5s.82-2.52,2.6-2.52c1.56,0,2.5.46,2.5,1.74v.16h3v-.28c0-2.6-2.2-4.32-5.42-4.32-3.44,0-5.64,2-5.64,5.22S114.94,35.71,118.38,35.71Zm12.65,0c3.42,0,5.72-2,5.72-5.2s-2.3-5.22-5.72-5.22-5.72,2-5.72,5.22S127.61,35.71,131,35.71Zm0-2.66c-2,0-2.74-.78-2.74-2.54s.7-2.58,2.74-2.58,2.74.82,2.74,2.58S133.05,33.05,131,33.05Zm14.8-2.16V28.31h-7.46v2.58Zm5,4.62v-5h8V27.83h-8v-3h8.34v-2.7H147.83v13.4Zm13.21,0v-5.8c0-1.26.48-1.88,1.82-1.88s1.66.48,1.66,1.58v1h3V28.79c0-2-.92-3.5-3.16-3.5A3.19,3.19,0,0,0,164,28.15h-.18V25.49H161v10Zm11.17-11V22.11h-3v2.36Zm0,11v-10h-3v10Zm7.49.2c3.18,0,5.3-1.52,5.3-3.7v-.22h-3V32c0,.86-.62,1.32-2.4,1.32-1.94,0-2.66-.66-2.74-2.2H188a7.46,7.46,0,0,0,.08-1c0-3.14-2.18-4.86-5.46-4.86s-5.56,2-5.56,5.22C177.08,34.07,179.36,35.71,182.7,35.71Zm-.12-8.08c1.76,0,2.56.58,2.64,1.9H179.9C180,28.23,180.8,27.63,182.58,27.63ZM193,35.51V30.45c0-1.7.68-2.46,2.58-2.46s2.5.68,2.5,2.28v5.24h3V29.27a3.71,3.71,0,0,0-4-4,3.77,3.77,0,0,0-4.08,3.28h-.18V25.49H190v10Zm14.68.2c2.3,0,3.62-1,4-3h.16v2.78h2.8V22.11h-3v6h-.18c-.34-1.68-1.56-2.86-3.94-2.86-3,0-4.68,2-4.68,5.22S204.53,35.71,207.65,35.71Zm-1.8-5.2c0-1.84.9-2.48,2.82-2.48s2.94.64,2.94,2.38v.16c0,1.74-1,2.4-2.94,2.4S205.85,32.33,205.85,30.51Zm14,5V22.11h-3v13.4Zm4.09,3.4c2.52,0,3.86-.58,4.82-2.68l5-10.74h-3.34l-1.9,4.56-.8,2.38h-.2l-.84-2.36-2.12-4.58h-3.4L226,35.55c-.2.44-.52.64-1.26.64h-2.46v2.72Z"/><path class="cls-12" d="M100,55.51h5.33v-.94h-4.27v-3H105v-.93h-3.93v-3h4.21v-.94H100Zm9.69.13a2.43,2.43,0,0,0,2.58-2h-1a1.53,1.53,0,0,1-1.57,1.14c-1.19,0-2-1-2-2.5s.79-2.46,2-2.46a1.54,1.54,0,0,1,1.57,1.14h1a2.44,2.44,0,0,0-2.59-2c-1.78,0-3,1.39-3,3.39S107.85,55.64,109.69,55.64Zm6.71,0c1.77,0,3-1.34,3-3.37s-1.19-3.39-3-3.39-3,1.34-3,3.39S114.62,55.64,116.4,55.64Zm0-.9c-1.35,0-2-1.16-2-2.47s.61-2.49,2-2.49,2,1.18,2,2.49S117.74,54.74,116.4,54.74Zm8.25-3.44h-3.82v.94h3.82ZM129.33,49h-1.46V48.3c0-.65.27-1,.93-1a1.76,1.76,0,0,1,.57.1l.29-.87a2.35,2.35,0,0,0-1-.17,1.69,1.69,0,0,0-1.84,1.69V49H125.8v.85h1.06v5.7h1v-5.7h1.46Zm1.41,6.55h1V51.37a1.55,1.55,0,0,1,1.65-1.54,2.7,2.7,0,0,1,.61.07v-1l-.52,0A1.78,1.78,0,0,0,131.78,50h-.07V49h-1Zm4.47,0h1V49h-1Zm.51-7.64a.68.68,0,1,0-.72-.68A.71.71,0,0,0,135.72,47.87Zm5.08,7.77A2.55,2.55,0,0,0,143.41,54l-1-.27a1.61,1.61,0,0,1-1.64,1,2,2,0,0,1-2-2.16h4.75v-.43c0-2.44-1.45-3.27-2.81-3.27-1.78,0-2.95,1.39-2.95,3.41S138.91,55.64,140.8,55.64Zm-2-3.93a2,2,0,0,1,1.94-1.93,1.78,1.78,0,0,1,1.79,1.93Zm7.28-.14a1.63,1.63,0,0,1,1.68-1.79,1.45,1.45,0,0,1,1.5,1.64v4.09h1V51.35c0-1.67-.89-2.47-2.22-2.47A1.91,1.91,0,0,0,146.1,50H146V49h-1v6.55h1Zm8.49,4.07a2,2,0,0,0,1.91-1.14h.12v1h1V46.78h-1V50h-.08a2,2,0,0,0-1.89-1.12c-1.66,0-2.8,1.31-2.8,3.37S152.89,55.64,154.53,55.64Zm.14-.9c-1.26,0-1.91-1.11-1.91-2.5s.63-2.46,1.91-2.46,1.87,1,1.87,2.46S155.88,54.74,154.67,54.74Zm5.85-8h-1v8.73h1ZM163,58a2,2,0,0,0,1.92-1.5L167.72,49l-1.1,0-1.81,5.22h-.06L162.94,49h-1.09l2.42,6.58-.19.51c-.37,1-.82,1.09-1.55.91l-.26.88A2.09,2.09,0,0,0,163,58Zm11.89-2.32a2,2,0,0,0,1.91-1.14h.12v1h1V46.78h-1V50h-.08a2,2,0,0,0-1.9-1.12c-1.65,0-2.79,1.31-2.79,3.37S173.26,55.64,174.9,55.64Zm.13-.9c-1.26,0-1.91-1.11-1.91-2.5s.64-2.46,1.91-2.46,1.88,1,1.88,2.46S176.24,54.74,175,54.74Zm4.85.77h1V51.37a1.55,1.55,0,0,1,1.66-1.54,2.78,2.78,0,0,1,.61.07v-1l-.53,0a1.78,1.78,0,0,0-1.7,1.09h-.07V49h-1Zm6.92.13c1.78,0,3-1.34,3-3.37s-1.19-3.39-3-3.39-3,1.34-3,3.39S185,55.64,186.8,55.64Zm0-.9c-1.34,0-2-1.16-2-2.47s.62-2.49,2-2.49,2,1.18,2,2.49S188.15,54.74,186.8,54.74Zm5.51-3.17A1.62,1.62,0,0,1,194,49.78a1.45,1.45,0,0,1,1.5,1.64v4.09h1V51.35c0-1.67-.89-2.47-2.22-2.47A1.93,1.93,0,0,0,192.36,50h-.08V49h-1v6.55h1Zm8.76,4.07A2.55,2.55,0,0,0,203.68,54l-1-.27a1.59,1.59,0,0,1-1.63,1,2,2,0,0,1-2-2.16h4.75v-.43c0-2.44-1.45-3.27-2.81-3.27-1.78,0-2.95,1.39-2.95,3.41S199.18,55.64,201.07,55.64Zm-2-3.93A2,2,0,0,1,201,49.78a1.78,1.78,0,0,1,1.79,1.93Zm10.91-1.28a2.19,2.19,0,0,0-2.31-1.55c-1.38,0-2.41.78-2.41,1.89,0,.9.54,1.51,1.74,1.79l1.09.25c.66.16,1,.47,1,.93s-.59,1-1.53,1A1.39,1.39,0,0,1,206,53.7l-.95.24a2.25,2.25,0,0,0,2.49,1.7c1.52,0,2.55-.83,2.55-2,0-.91-.57-1.48-1.73-1.77l-1-.24c-.77-.19-1.12-.45-1.12-1s.6-1,1.4-1a1.37,1.37,0,0,1,1.41.93Zm5,5.08h1V51.42a1.56,1.56,0,0,1,1.48-1.64,1.21,1.21,0,0,1,1.3,1.24v4.49h1V51.25a1.37,1.37,0,0,1,1.45-1.47,1.23,1.23,0,0,1,1.33,1.35v4.38h1V51.13c0-1.54-.82-2.25-2-2.25a2.07,2.07,0,0,0-2,1.11h-.07a1.79,1.79,0,0,0-1.75-1.11A1.76,1.76,0,0,0,216,50h-.09V49h-1Zm12.36.15a2,2,0,0,0,1.94-1h.05v.89h1V51.2a2.15,2.15,0,0,0-2.42-2.32,2.66,2.66,0,0,0-2.63,1.53l1,.34a1.76,1.76,0,0,1,1.7-1,1.21,1.21,0,0,1,1.38,1.33v0c0,.48-.49.44-1.68.59s-2.54.43-2.54,1.93A2,2,0,0,0,227.31,55.66Zm.15-.9c-.8,0-1.38-.36-1.38-1.06s.7-1,1.48-1.11a5.25,5.25,0,0,0,1.74-.37v.92A1.67,1.67,0,0,1,227.46,54.76Zm7.16.88a2,2,0,0,0,1.91-1.14h.11v1h1V46.78h-1V50h-.08a2,2,0,0,0-1.9-1.12c-1.65,0-2.79,1.31-2.79,3.37S233,55.64,234.62,55.64Zm.13-.9c-1.26,0-1.91-1.11-1.91-2.5s.63-2.46,1.91-2.46,1.88,1,1.88,2.46S236,54.74,234.75,54.74Zm7.59.9A2.55,2.55,0,0,0,245,54l-1-.27a1.61,1.61,0,0,1-1.64,1,2,2,0,0,1-2-2.16h4.75v-.43c0-2.44-1.45-3.27-2.81-3.27-1.77,0-3,1.39-3,3.41S240.45,55.64,242.34,55.64Zm-2-3.93a2,2,0,0,1,1.94-1.93A1.78,1.78,0,0,1,244,51.71Zm11.14,3.8h1l1.43-5h.1l1.43,5h1l2-6.55h-1.06l-1.41,5h-.07l-1.38-5h-1.08L252,54h-.07l-1.42-5h-1.05Zm8.27,0h1V49h-1Zm.51-7.64a.68.68,0,1,0-.72-.68A.71.71,0,0,0,260.22,47.87ZM265.4,49H264V47.39h-1V49h-1v.85h1v4.1a1.67,1.67,0,0,0,1.77,1.68,2.11,2.11,0,0,0,.75-.12l-.2-.9a1.91,1.91,0,0,1-.45,0c-.44,0-.87-.13-.87-1V49.81h1.4Zm2.66,2.61a1.65,1.65,0,0,1,1.72-1.79,1.45,1.45,0,0,1,1.52,1.64v4.09h1V51.35c0-1.68-.89-2.47-2.23-2.47A1.88,1.88,0,0,0,268.15,50h-.09V46.78h-1v8.73h1ZM102.51,77.1c1.56,0,2.82-.72,2.82-2.4V68h-1v1h-.1a2,2,0,0,0-1.91-1.12c-1.65,0-2.79,1.31-2.79,3.32s1.19,3.21,2.77,3.21a2,2,0,0,0,1.91-1.11h.09v1.33c0,1.09-.77,1.58-1.82,1.58a2,2,0,0,1-1.88-1l-.8.57A2.89,2.89,0,0,0,102.51,77.1Zm0-3.6c-1.26,0-1.91-1-1.91-2.32s.63-2.4,1.91-2.4,1.88,1,1.88,2.4S103.68,73.5,102.47,73.5Zm4.71,1h1V70.37a1.55,1.55,0,0,1,1.65-1.54,2.9,2.9,0,0,1,.62.07v-1l-.53,0a1.77,1.77,0,0,0-1.7,1.09h-.07V68h-1Zm7,.13a2.53,2.53,0,0,0,2.6-1.65l-1-.27a1.6,1.6,0,0,1-1.63,1,2,2,0,0,1-2-2.16h4.76v-.43c0-2.44-1.45-3.27-2.82-3.27-1.77,0-3,1.39-3,3.41S112.29,74.64,114.19,74.64Zm-2-3.93a2,2,0,0,1,1.94-1.93,1.78,1.78,0,0,1,1.79,1.93Zm9,3.93A2.55,2.55,0,0,0,123.78,73l-1-.27a1.61,1.61,0,0,1-1.64,1,2,2,0,0,1-2-2.16h4.75v-.43c0-2.44-1.45-3.27-2.81-3.27-1.77,0-2.95,1.39-2.95,3.41S119.28,74.64,121.17,74.64Zm-2-3.93a2,2,0,0,1,1.94-1.93,1.78,1.78,0,0,1,1.79,1.93Zm7.29-.14a1.62,1.62,0,0,1,1.67-1.79,1.45,1.45,0,0,1,1.5,1.64v4.09h1V70.35c0-1.67-.89-2.47-2.21-2.47A1.92,1.92,0,0,0,126.47,69h-.09V68h-1v6.55h1Zm8.75,4.07A2.54,2.54,0,0,0,137.78,73l-1-.27a1.61,1.61,0,0,1-1.64,1,2,2,0,0,1-2-2.16h4.75v-.43c0-2.44-1.44-3.27-2.81-3.27-1.77,0-2.95,1.39-2.95,3.41S133.28,74.64,135.17,74.64Zm-2-3.93a2,2,0,0,1,1.94-1.93,1.78,1.78,0,0,1,1.79,1.93Zm6.28,3.8h1V70.37a1.55,1.55,0,0,1,1.65-1.54,2.9,2.9,0,0,1,.62.07v-1l-.53,0A1.78,1.78,0,0,0,140.45,69h-.06V68h-1ZM144.73,77a2,2,0,0,0,1.92-1.5L149.44,68l-1.1,0-1.81,5.22h-.07L144.66,68h-1.09L146,74.54l-.19.51c-.37,1-.82,1.09-1.55.91l-.26.88A2,2,0,0,0,144.73,77Zm9.41-2.45h1V68h-1Zm.52-7.64a.68.68,0,1,0-.72-.68A.7.7,0,0,0,154.66,66.87Zm3.34,3.7a1.62,1.62,0,0,1,1.67-1.79,1.45,1.45,0,0,1,1.5,1.64v4.09h1V70.35c0-1.67-.89-2.47-2.21-2.47A1.93,1.93,0,0,0,158.05,69H158V68h-1v6.55h1Zm9.39,3.94h1V70.42a1.56,1.56,0,0,1,1.49-1.64A1.21,1.21,0,0,1,171.17,70v4.49h1V70.25a1.37,1.37,0,0,1,1.45-1.47A1.22,1.22,0,0,1,175,70.13v4.38h1V70.13c0-1.54-.83-2.25-2-2.25A2.08,2.08,0,0,0,172,69H172a1.94,1.94,0,0,0-3.51,0h-.08V68h-1Zm10.43,0h1V68h-1Zm.51-7.64a.68.68,0,1,0-.72-.68A.71.71,0,0,0,178.33,66.87Zm3.34,3.7a1.62,1.62,0,0,1,1.67-1.79,1.45,1.45,0,0,1,1.5,1.64v4.09h1V70.35c0-1.67-.89-2.47-2.22-2.47A1.93,1.93,0,0,0,181.72,69h-.08V68h-1v6.55h1Zm8.49,4.07a2,2,0,0,0,1.9-1.14h.12v1h1V65.78h-1V69h-.09a2,2,0,0,0-1.89-1.12c-1.65,0-2.79,1.31-2.79,3.37S188.52,74.64,190.16,74.64Zm.13-.9c-1.26,0-1.91-1.11-1.91-2.5s.63-2.46,1.91-2.46,1.88,1,1.88,2.46S191.5,73.74,190.29,73.74Zm5.58.84a.77.77,0,1,0-.77-.77A.78.78,0,0,0,195.87,74.58Z"/></g></svg>