<svg xmlns="http://www.w3.org/2000/svg" xmlns:xlink="http://www.w3.org/1999/xlink" viewBox="0 0 295.88 137.41"><defs><style>.cls-1{fill:none;}.cls-2,.cls-8{fill:#fff;}.cls-2{fill-opacity:0.12;}.cls-3{clip-path:url(#clip-path);}.cls-4{fill:#e5f8ff;}.cls-5{clip-path:url(#clip-path-2);}.cls-6{fill:#4b72ff;}.cls-6,.cls-7{fill-rule:evenodd;}.cls-7{fill:#74a3ff;}</style><clipPath id="clip-path"><path id="SVGID" class="cls-1" d="M50,16.41h0A33.12,33.12,0,0,1,83.11,49.52h0A33.12,33.12,0,0,1,50,82.64h0A33.11,33.11,0,0,1,16.88,49.52h0A33.11,33.11,0,0,1,50,16.41Z"/></clipPath><clipPath id="clip-path-2"><rect id="SVGID-2" data-name="SVGID" class="cls-1" x="25.49" y="35.41" width="49" height="32"/></clipPath></defs><title>illustration</title><g id="houses"><rect class="cls-2" x="0.88" y="0.41" width="295" height="137" rx="8"/><g class="cls-3"><rect class="cls-4" x="16.88" y="16.41" width="66.23" height="66.23"/><g class="cls-5"><path class="cls-6" d="M57.43,38.15a15.33,15.33,0,0,1,3.47.14l2-2.57L67.76,38l-.7,3.19a14.79,14.79,0,0,1,2.37,2.61l3.22-.4,1.84,5.09-2.72,1.77a13.51,13.51,0,0,1-.18,3.5l2.55,2L71.9,60.64l-3.17-.71a15.12,15.12,0,0,1-2.59,2.39l.39,3.23-5.06,1.86-1.76-2.74a13.3,13.3,0,0,1-3.47-.18l-2,2.57-4.88-2.31.7-3.18A14.79,14.79,0,0,1,47.71,59l-3.22.4-1.84-5.09,2.72-1.78A15.48,15.48,0,0,1,45.51,49L43,47l2.34-4.83,3.16.71a15.22,15.22,0,0,1,2.6-2.39l-.4-3.23,5-1.86Zm-.58,7.75a5.79,5.79,0,1,0,7.39,3.45A5.74,5.74,0,0,0,56.85,45.9Z"/><path class="cls-7" d="M33.81,38.29a6.93,6.93,0,0,1,2,.09l1.09-1.46,2.73,1.28L39.22,40a9.08,9.08,0,0,1,1.32,1.46l1.8-.22,1,2.88-1.53,1a7.82,7.82,0,0,1-.09,2l1.45,1.11L41.94,51l-1.8-.4a7.9,7.9,0,0,1-1.45,1.33l.22,1.81L36.05,54.8l-1-1.55a7.74,7.74,0,0,1-2-.09L32,54.62l-2.73-1.28.4-1.82a7.89,7.89,0,0,1-1.32-1.46l-1.81.22-1-2.88,1.54-1a7.8,7.8,0,0,1,.09-2l-1.45-1.11,1.27-2.75,1.81.4a8.67,8.67,0,0,1,1.45-1.33L30,37.8l2.81-1.06Zm-.31,4.33a3.3,3.3,0,0,0-1.94,4.21,3.26,3.26,0,0,0,4.18,2,3.28,3.28,0,0,0-2.24-6.16Z"/></g></g><path class="cls-8" d="M102.91,34.41V21h-3v13.4Zm5.17,0V29.35c0-1.7.68-2.46,2.58-2.46s2.5.68,2.5,2.28v5.24h3V28.17a3.71,3.71,0,0,0-4-4A3.77,3.77,0,0,0,108,27.47h-.18V24.39h-2.78v10Zm13.19,0V29.35c0-1.7.68-2.46,2.58-2.46s2.5.68,2.5,2.28v5.24h3V28.17a3.71,3.71,0,0,0-4-4,3.77,3.77,0,0,0-4.08,3.28h-.18V24.39h-2.78v10Zm15.54.2c3.42,0,5.72-2,5.72-5.2s-2.3-5.22-5.72-5.22-5.72,2-5.72,5.22S133.39,34.61,136.81,34.61Zm0-2.66c-2,0-2.74-.78-2.74-2.54s.7-2.58,2.74-2.58,2.74.82,2.74,2.58S138.83,32,136.81,32Zm15,2.46,4.58-10h-3.28l-3,7.1h-.2l-3-7.1h-3.34l4.56,10Zm9.05.2c2.22,0,3.62-.94,4.08-2.5h.16v2.3h2.8V28.53c0-2.62-1.58-4.34-4.92-4.34s-5.38,1.72-5.38,4.2v.06h3v-.08c0-1.14.62-1.54,2.14-1.54s2.18.36,2.18,1.66v.38l-4.3.44c-2.14.22-3.24,1.14-3.24,2.62C157.41,33.61,158.71,34.61,160.87,34.61Zm-.44-2.88c0-.48.32-.68,1-.74l3.48-.4c-.08,1.42-1.18,1.9-3.22,1.9C160.85,32.49,160.43,32.27,160.43,31.73Zm16.66,2.68v-2.7h-1.8c-1.06,0-1.44-.26-1.44-1.26V26.87h3.24V24.39h-3.24V22.45h-3v1.94h-1.58v2.48h1.58v3.92c0,2.52,1.42,3.62,3.76,3.62Zm4.72-11V21h-3v2.36Zm0,11v-10h-3v10Zm9.63,0,4.58-10h-3.28l-3,7.1h-.2l-3-7.1h-3.34l4.56,10Zm11.3.2c3.18,0,5.3-1.52,5.3-3.7v-.22h-3v.2c0,.86-.62,1.32-2.4,1.32-1.94,0-2.66-.66-2.74-2.2h8.16a7.46,7.46,0,0,0,.08-1c0-3.14-2.18-4.86-5.46-4.86s-5.56,2-5.56,5.22C197.12,33,199.4,34.61,202.74,34.61Zm-.12-8.08c1.76,0,2.56.58,2.64,1.9h-5.32C200.08,27.13,200.84,26.53,202.62,26.53ZM106.53,58.41c4.3,0,7-2.5,7-6.7s-2.72-6.7-7-6.7h-6.46v13.4Zm0-10.7c2.72,0,3.82.78,3.82,4s-1.1,4-3.82,4h-3.46v-8Zm14.24,10.9c3.18,0,5.3-1.52,5.3-3.7v-.22h-3v.2c0,.86-.62,1.32-2.4,1.32-1.94,0-2.66-.66-2.74-2.2h8.16a7.46,7.46,0,0,0,.08-1c0-3.14-2.18-4.86-5.46-4.86s-5.56,2-5.56,5.22C115.15,57,117.43,58.61,120.77,58.61Zm-.12-8.08c1.76,0,2.56.58,2.64,1.9H118C118.11,51.13,118.87,50.53,120.65,50.53Zm12.45,8.08c3.1,0,5-1.24,5-3.12,0-1.66-1-2.56-3.68-2.86l-2.14-.26c-1.32-.16-1.6-.38-1.6-.9s.38-.9,1.88-.9c1.84,0,2.24.42,2.24,1.24v.12h3v-.06c0-2.44-1.86-3.68-5.14-3.68-3.44,0-4.94,1.4-4.94,3.16s1.12,2.58,3.12,2.8l2.82.34c1.18.16,1.48.32,1.48.88s-.38.86-2,.86-2.26-.24-2.26-1.14v-.18h-3V55C127.86,57.29,129.72,58.61,133.1,58.61Zm9.77-11.24V45h-3v2.36Zm0,11v-10h-3v10Zm6.57-1c2.24,0,3.42-1,3.74-2.5h.16v2.26c0,2-.58,2.36-2.5,2.36s-2.48-.34-2.48-1.46h-3c0,2.52,2,4,5.28,4,3.58,0,5.7-1.56,5.7-5.06V48.39h-2.8v2.42h-.16c-.32-1.74-1.78-2.62-3.82-2.62-3,0-4.82,1.8-4.82,4.6S146.46,57.39,149.44,57.39Zm-1.68-4.6c0-1.48.84-2,2.76-2s2.82.52,2.82,1.88v.22c0,1.38-.94,1.92-2.86,1.92S147.76,54.27,147.76,52.79Zm13.77,5.62V53.35c0-1.7.68-2.46,2.58-2.46s2.5.68,2.5,2.28v5.24h3V52.17a3.71,3.71,0,0,0-4-4,3.77,3.77,0,0,0-4.08,3.28h-.18V48.39h-2.78v10Z"/><path class="cls-8" d="M101.75,78.41h1.09l1.92-7h.07l1.93,7h1.09l2.39-8.73h-1.08l-1.82,7.11h-.09l-1.85-7.11h-1.2l-1.86,7.11h-.08l-1.82-7.11H99.36Zm11.8.14a2.55,2.55,0,0,0,2.61-1.66l-1-.27a1.61,1.61,0,0,1-1.64,1,2,2,0,0,1-2-2.16h4.75v-.43c0-2.44-1.45-3.27-2.81-3.27-1.77,0-3,1.4-3,3.41S111.66,78.55,113.55,78.55Zm-2-3.94a2,2,0,0,1,1.94-1.93,1.78,1.78,0,0,1,1.79,1.93Zm13.78,1.12a1.7,1.7,0,0,1-1.69,1.79A1.42,1.42,0,0,1,122.17,76v-4.1h-1V76c0,1.67.88,2.48,2.11,2.48a2,2,0,0,0,1.94-1.2h.07v1.11h1V71.86h-1Zm7.49-2.4a2.21,2.21,0,0,0-2.32-1.55c-1.38,0-2.41.78-2.41,1.89,0,.9.54,1.51,1.74,1.79l1.09.26c.66.15,1,.47,1,.92s-.6,1-1.54,1a1.38,1.38,0,0,1-1.52-1.06l-1,.24a2.25,2.25,0,0,0,2.49,1.71c1.52,0,2.56-.83,2.56-2,0-.92-.58-1.49-1.74-1.78l-1-.24c-.77-.19-1.12-.45-1.12-.95s.6-1,1.4-1a1.36,1.36,0,0,1,1.41.94Zm4.37,5.22a2.55,2.55,0,0,0,2.61-1.66l-1-.27a1.61,1.61,0,0,1-1.64,1,2,2,0,0,1-2-2.16h4.75v-.43c0-2.44-1.45-3.27-2.81-3.27-1.77,0-3,1.4-3,3.41S135.26,78.55,137.15,78.55Zm-2-3.94a2,2,0,0,1,1.94-1.93,1.78,1.78,0,0,1,1.79,1.93Zm11.58,4a2.06,2.06,0,0,0,1.95-1h.05v.89h1V74.1a2.15,2.15,0,0,0-2.42-2.32,2.66,2.66,0,0,0-2.62,1.53l.95.34a1.79,1.79,0,0,1,1.71-1A1.22,1.22,0,0,1,148.69,74v0c0,.49-.5.44-1.69.6s-2.54.42-2.54,1.92A2,2,0,0,0,146.69,78.56Zm.16-.9c-.8,0-1.38-.36-1.38-1.06s.7-1,1.48-1.1a5.49,5.49,0,0,0,1.74-.38V76A1.68,1.68,0,0,1,146.85,77.66Zm10.9-5.8h-1.4V70.3h-1v1.56h-1v.86h1v4.09a1.68,1.68,0,0,0,1.77,1.69,2.11,2.11,0,0,0,.75-.12l-.2-.91a1.91,1.91,0,0,1-.45,0c-.44,0-.87-.13-.87-1V72.72h1.4Zm3.44,6.7a2,2,0,0,0,1.94-1h.05v.89h1V74.1a2.15,2.15,0,0,0-2.42-2.32,2.65,2.65,0,0,0-2.62,1.53l.95.34a1.78,1.78,0,0,1,1.7-1A1.21,1.21,0,0,1,163.18,74v0c0,.49-.49.44-1.68.6s-2.54.42-2.54,1.92A2,2,0,0,0,161.19,78.56Zm.15-.9c-.8,0-1.38-.36-1.38-1.06s.7-1,1.49-1.1a5.48,5.48,0,0,0,1.73-.38V76A1.67,1.67,0,0,1,161.34,77.66Zm4.69.75h1V71.86h-1Zm.51-7.64a.68.68,0,1,0,0-1.36.68.68,0,1,0,0,1.36Zm3.34-1.09h-1v8.73h1Zm9.85,3.65a2.2,2.2,0,0,0-2.32-1.55c-1.38,0-2.4.78-2.4,1.89,0,.9.54,1.51,1.74,1.79l1.09.26c.66.15,1,.47,1,.92s-.59,1-1.53,1a1.38,1.38,0,0,1-1.52-1.06l-.95.24a2.25,2.25,0,0,0,2.49,1.71c1.52,0,2.55-.83,2.55-2,0-.92-.57-1.49-1.74-1.78l-1-.24c-.77-.19-1.12-.45-1.12-.95s.59-1,1.39-1a1.38,1.38,0,0,1,1.42.94Zm1.64,5.08h1V71.86h-1Zm.51-7.64a.68.68,0,1,0,0-1.36.68.68,0,1,0,0,1.36Zm5.18,1.09h-1.4V70.3h-1v1.56h-1v.86h1v4.09a1.68,1.68,0,0,0,1.77,1.69,2.16,2.16,0,0,0,.75-.12l-.2-.91a1.91,1.91,0,0,1-.45,0c-.44,0-.87-.13-.87-1V72.72h1.4Zm4.36,0H190V70.3h-1v1.56h-1v.86h1v4.09a1.68,1.68,0,0,0,1.77,1.69,2.16,2.16,0,0,0,.75-.12l-.21-.91a1.74,1.74,0,0,1-.44,0c-.44,0-.87-.13-.87-1V72.72h1.4Zm4.19,6.69a2.53,2.53,0,0,0,2.6-1.66l-1-.27a1.6,1.6,0,0,1-1.63,1,2,2,0,0,1-2-2.16h4.75v-.43c0-2.44-1.45-3.27-2.82-3.27-1.77,0-2.94,1.4-2.94,3.41S193.71,78.55,195.61,78.55Zm-2-3.94a1.94,1.94,0,0,1,1.93-1.93,1.77,1.77,0,0,1,1.79,1.93Zm6.28,3.8h1V74.27a1.55,1.55,0,0,1,1.66-1.54,2.88,2.88,0,0,1,.61.07v-1l-.53,0a1.78,1.78,0,0,0-1.7,1.09h-.07v-1h-1Zm10.31.14a2,2,0,0,0,1.91-1.15h.12v1h1V69.68h-1V72.9h-.08a2,2,0,0,0-1.89-1.12c-1.66,0-2.8,1.31-2.8,3.37S208.52,78.55,210.16,78.55Zm.13-.91c-1.26,0-1.9-1.11-1.9-2.5s.63-2.46,1.9-2.46,1.88,1,1.88,2.46S211.5,77.64,210.29,77.64Zm7.59.91a2.55,2.55,0,0,0,2.61-1.66l-1-.27a1.61,1.61,0,0,1-1.64,1,2,2,0,0,1-2-2.16h4.75v-.43c0-2.44-1.44-3.27-2.81-3.27-1.77,0-2.95,1.4-2.95,3.41S216,78.55,217.88,78.55Zm-2-3.94a2,2,0,0,1,1.94-1.93,1.78,1.78,0,0,1,1.79,1.93Zm10.92-1.28a2.21,2.21,0,0,0-2.32-1.55c-1.38,0-2.4.78-2.4,1.89,0,.9.54,1.51,1.74,1.79l1.09.26c.66.15,1,.47,1,.92s-.6,1-1.53,1a1.38,1.38,0,0,1-1.52-1.06l-1,.24a2.26,2.26,0,0,0,2.49,1.71c1.52,0,2.56-.83,2.56-2,0-.92-.57-1.49-1.74-1.78l-1-.24c-.78-.19-1.13-.45-1.13-.95s.6-1,1.4-1a1.38,1.38,0,0,1,1.42.94Zm1.63,5.08h1V71.86h-1Zm.51-7.64a.68.68,0,1,0-.71-.68A.7.7,0,0,0,228.9,70.77Zm5,10.23c1.57,0,2.83-.72,2.83-2.4V71.86h-1v1h-.1a2,2,0,0,0-1.91-1.12c-1.65,0-2.8,1.31-2.8,3.32s1.2,3.21,2.78,3.21a2,2,0,0,0,1.91-1.11h.09v1.33c0,1.09-.77,1.58-1.83,1.58a2,2,0,0,1-1.87-1l-.8.56A2.89,2.89,0,0,0,233.88,81Zm0-3.6c-1.26,0-1.91-1-1.91-2.31s.63-2.41,1.91-2.41,1.87,1,1.87,2.41S235.06,77.4,233.85,77.4Zm5.71-2.93a1.62,1.62,0,0,1,1.67-1.79,1.45,1.45,0,0,1,1.5,1.64v4.09h1V74.25c0-1.67-.9-2.47-2.22-2.47a1.93,1.93,0,0,0-1.91,1.11h-.08v-1h-1v6.55h1Zm-138,22.94h1l1.43-5h.1l1.43,5h1l2-6.55h-1.06l-1.41,5h-.07l-1.38-5h-1.08l-1.4,5H102l-1.42-5h-1Zm9.27-3.94a1.65,1.65,0,0,1,1.72-1.79A1.45,1.45,0,0,1,114,93.32v4.09h1V93.25c0-1.68-.9-2.47-2.24-2.47a1.88,1.88,0,0,0-1.92,1.11h-.09V88.68h-1v8.73h1Zm6.09,3.94h1V90.86h-1Zm.51-7.64a.68.68,0,1,0,0-1.36.68.68,0,1,0,0,1.36Zm5,7.78a2.44,2.44,0,0,0,2.58-2h-1a1.52,1.52,0,0,1-1.57,1.14c-1.19,0-2-1-2-2.5s.79-2.46,2-2.46a1.54,1.54,0,0,1,1.57,1.14h1a2.44,2.44,0,0,0-2.59-2c-1.78,0-3,1.4-3,3.39S120.53,97.55,122.37,97.55Zm5-4.08a1.65,1.65,0,0,1,1.72-1.79,1.45,1.45,0,0,1,1.52,1.64v4.09h1V93.25c0-1.68-.9-2.47-2.24-2.47a1.88,1.88,0,0,0-1.92,1.11h-.09V88.68h-1v8.73h1Zm9.46,3.94h1V93.32a1.56,1.56,0,0,1,1.48-1.64,1.22,1.22,0,0,1,1.3,1.25v4.48h1V93.15a1.37,1.37,0,0,1,1.45-1.47A1.23,1.23,0,0,1,144.47,93v4.38h1V93c0-1.54-.82-2.25-2-2.25a2.06,2.06,0,0,0-2,1.11h-.07a1.79,1.79,0,0,0-1.76-1.11,1.75,1.75,0,0,0-1.75,1.11h-.09v-1h-1Zm12.36.15a2,2,0,0,0,1.94-1h0v.89h1V93.1a2.15,2.15,0,0,0-2.42-2.32,2.66,2.66,0,0,0-2.63,1.53l1,.34a1.76,1.76,0,0,1,1.7-1A1.21,1.21,0,0,1,151.23,93v0c0,.49-.49.44-1.69.6s-2.54.42-2.54,1.92A2,2,0,0,0,149.24,97.56Zm.15-.9c-.8,0-1.38-.36-1.38-1.06s.7-1,1.48-1.1a5.49,5.49,0,0,0,1.74-.38V95A1.68,1.68,0,0,1,149.39,96.66Zm4.68.75h1V95l.7-.65,2.45,3.1h1.28l-3-3.75,2.77-2.8h-1.25l-2.86,2.92h-.12v-5.1h-1Zm9,.14a2.54,2.54,0,0,0,2.6-1.66l-1-.27a1.6,1.6,0,0,1-1.63,1A2,2,0,0,1,161,94.48h4.76v-.43c0-2.44-1.45-3.27-2.82-3.27-1.77,0-2.95,1.4-2.95,3.41S161.18,97.55,163.08,97.55ZM161,93.61A2,2,0,0,1,163,91.68a1.78,1.78,0,0,1,1.79,1.93ZM172,92.33a2.2,2.2,0,0,0-2.32-1.55c-1.38,0-2.4.78-2.4,1.89,0,.9.54,1.51,1.74,1.79l1.09.26c.66.15,1,.47,1,.92s-.6,1-1.53,1A1.38,1.38,0,0,1,168,95.6l-.95.24a2.25,2.25,0,0,0,2.48,1.71c1.53,0,2.56-.83,2.56-2,0-.92-.57-1.49-1.74-1.78l-1-.24c-.77-.19-1.12-.45-1.12-.95s.59-1,1.39-1a1.38,1.38,0,0,1,1.42.94Zm5,5.08h1V93.32a1.55,1.55,0,0,1,1.48-1.64,1.21,1.21,0,0,1,1.29,1.25v4.48h1V93.15a1.37,1.37,0,0,1,1.45-1.47A1.23,1.23,0,0,1,184.55,93v4.38h1V93c0-1.54-.83-2.25-2-2.25a2.06,2.06,0,0,0-2,1.11h-.07a1.81,1.81,0,0,0-1.76-1.11A1.75,1.75,0,0,0,178,91.89h-.09v-1h-1Zm12.36.15a2.05,2.05,0,0,0,1.94-1h.05v.89h1V93.1a2.15,2.15,0,0,0-2.42-2.32,2.66,2.66,0,0,0-2.63,1.53l.95.34a1.79,1.79,0,0,1,1.71-1A1.22,1.22,0,0,1,191.31,93v0c0,.49-.49.44-1.69.6s-2.54.42-2.54,1.92A2,2,0,0,0,189.32,97.56Zm.15-.9c-.8,0-1.38-.36-1.38-1.06s.7-1,1.48-1.1a5.49,5.49,0,0,0,1.74-.38V95A1.68,1.68,0,0,1,189.47,96.66Zm5.69-3.19a1.62,1.62,0,0,1,1.67-1.79,1.45,1.45,0,0,1,1.5,1.64v4.09h1V93.25c0-1.67-.89-2.47-2.21-2.47a1.92,1.92,0,0,0-1.91,1.11h-.09v-1h-1v6.55h1Zm10.14,1.26a1.7,1.7,0,0,1-1.69,1.79A1.42,1.42,0,0,1,202.18,95v-4.1h-1V95c0,1.67.89,2.48,2.11,2.48a2.05,2.05,0,0,0,1.95-1.2h.07v1.11h1V90.86h-1Zm5.76-3.87h-1.47V90.2c0-.65.28-1,.94-1a1.63,1.63,0,0,1,.56.1l.29-.87a2.47,2.47,0,0,0-.95-.17A1.7,1.7,0,0,0,208.59,90v.9h-1.06v.86h1.06v5.69h1V91.72h1.47Zm3.15,6.7a2.05,2.05,0,0,0,1.94-1h0v.89h1V93.1a2.15,2.15,0,0,0-2.42-2.32,2.66,2.66,0,0,0-2.63,1.53l1,.34a1.76,1.76,0,0,1,1.7-1A1.22,1.22,0,0,1,216.2,93v0c0,.49-.49.44-1.69.6s-2.54.42-2.54,1.92A2,2,0,0,0,214.21,97.56Zm.15-.9c-.8,0-1.38-.36-1.38-1.06s.7-1,1.48-1.1a5.49,5.49,0,0,0,1.74-.38V95A1.68,1.68,0,0,1,214.36,96.66Zm7.34.89a2.43,2.43,0,0,0,2.57-2h-1a1.52,1.52,0,0,1-1.57,1.14c-1.19,0-2-1-2-2.5s.78-2.46,2-2.46a1.54,1.54,0,0,1,1.57,1.14h1a2.44,2.44,0,0,0-2.59-2c-1.77,0-2.94,1.4-2.94,3.39S219.86,97.55,221.7,97.55Zm6.89-6.69h-1.4V89.3h-1v1.56h-1v.86h1v4.09A1.68,1.68,0,0,0,228,97.5a2.11,2.11,0,0,0,.75-.12l-.2-.91a1.91,1.91,0,0,1-.45,0c-.44,0-.87-.13-.87-1V91.72h1.4Zm5.64,3.87a1.7,1.7,0,0,1-1.69,1.79A1.42,1.42,0,0,1,231.11,95v-4.1h-1V95c0,1.67.89,2.48,2.12,2.48a2,2,0,0,0,1.94-1.2h.07v1.11h1V90.86h-1Zm2.85,2.68h1V93.27a1.55,1.55,0,0,1,1.66-1.54,2.88,2.88,0,0,1,.61.07v-1l-.53,0a1.79,1.79,0,0,0-1.7,1.09h-.07v-1h-1Zm4.46,0h1V90.86h-1Zm.51-7.64a.68.68,0,1,0-.71-.68A.7.7,0,0,0,242.05,89.77Zm3.35,3.7a1.62,1.62,0,0,1,1.67-1.79,1.45,1.45,0,0,1,1.5,1.64v4.09h1V93.25c0-1.67-.89-2.47-2.21-2.47a1.92,1.92,0,0,0-1.91,1.11h-.09v-1h-1v6.55h1Zm8.65,6.53c1.57,0,2.83-.72,2.83-2.4V90.86h-1v1h-.1a2,2,0,0,0-1.91-1.12c-1.66,0-2.8,1.31-2.8,3.32s1.2,3.21,2.78,3.21a2,2,0,0,0,1.91-1.11h.08v1.33c0,1.09-.76,1.58-1.82,1.58a2,2,0,0,1-1.87-1l-.81.56A2.91,2.91,0,0,0,254.05,100Zm0-3.6c-1.26,0-1.91-1-1.91-2.31s.63-2.41,1.91-2.41,1.87,1,1.87,2.41S255.23,96.4,254,96.4Zm10.74,1.15c1.77,0,3-1.35,3-3.38s-1.19-3.39-3-3.39-3,1.35-3,3.39S263,97.55,264.76,97.55Zm0-.91c-1.35,0-2-1.16-2-2.47s.61-2.49,2-2.49,2,1.18,2,2.49S266.1,96.64,264.76,96.64Zm7.41-5.78h-1.46V90.2c0-.65.27-1,.93-1a1.76,1.76,0,0,1,.57.1l.29-.87a2.54,2.54,0,0,0-1-.17A1.7,1.7,0,0,0,269.7,90v.9h-1.06v.86h1.06v5.69h1V91.72h1.46Zm-169.3,19h-1.39V108.3h-1v1.56h-1v.86h1v4.09a1.67,1.67,0,0,0,1.77,1.68,2.13,2.13,0,0,0,.75-.11l-.2-.91a1.84,1.84,0,0,1-.45,0c-.44,0-.86-.13-.86-1v-3.81h1.39Zm2.66,2.61a1.65,1.65,0,0,1,1.72-1.79,1.45,1.45,0,0,1,1.52,1.64v4.09h1v-4.16c0-1.68-.9-2.47-2.24-2.47a1.88,1.88,0,0,0-1.92,1.11h-.09v-3.21h-1v8.73h1Zm8.83,4.08a2.55,2.55,0,0,0,2.61-1.66l-1-.27a1.61,1.61,0,0,1-1.64,1,2,2,0,0,1-2-2.16h4.75v-.43c0-2.44-1.45-3.27-2.81-3.27-1.77,0-3,1.4-3,3.41S112.47,116.55,114.36,116.55Zm-2-3.94a2,2,0,0,1,1.94-1.93,1.78,1.78,0,0,1,1.79,1.93Zm12.13,3.94a2,2,0,0,0,1.91-1.15h.12v1h1v-8.73h-1v3.22h-.08a2,2,0,0,0-1.9-1.12c-1.65,0-2.79,1.31-2.79,3.37S122.81,116.55,124.45,116.55Zm.13-.91c-1.26,0-1.91-1.11-1.91-2.5s.64-2.46,1.91-2.46,1.88,1,1.88,2.46S125.79,115.64,124.58,115.64Zm4.85.77h1v-4.14a1.55,1.55,0,0,1,1.66-1.54,2.78,2.78,0,0,1,.61.07v-1l-.53,0a1.79,1.79,0,0,0-1.7,1.09h-.07v-1h-1Zm6.92.14c1.78,0,3-1.35,3-3.38s-1.19-3.39-3-3.39-3,1.35-3,3.39S134.58,116.55,136.35,116.55Zm0-.91c-1.34,0-2-1.16-2-2.47s.62-2.49,2-2.49,2,1.18,2,2.49S137.7,115.64,136.35,115.64Zm5.51-3.17a1.62,1.62,0,0,1,1.67-1.79,1.45,1.45,0,0,1,1.5,1.64v4.09h1v-4.16c0-1.67-.89-2.47-2.22-2.47a1.93,1.93,0,0,0-1.91,1.11h-.08v-1h-1v6.55h1Zm8.76,4.08a2.55,2.55,0,0,0,2.61-1.66l-1-.27a1.59,1.59,0,0,1-1.63,1,2,2,0,0,1-2-2.16h4.75v-.43c0-2.44-1.45-3.27-2.81-3.27-1.78,0-3,1.4-3,3.41S148.73,116.55,150.62,116.55Zm-2-3.94a2,2,0,0,1,1.94-1.93,1.78,1.78,0,0,1,1.79,1.93Zm10.91-1.28a2.19,2.19,0,0,0-2.31-1.55c-1.38,0-2.41.78-2.41,1.89,0,.9.54,1.51,1.74,1.79l1.09.26c.66.15,1,.47,1,.92s-.59,1-1.53,1a1.38,1.38,0,0,1-1.52-1.06l-1,.24a2.25,2.25,0,0,0,2.49,1.71c1.52,0,2.55-.84,2.55-2,0-.92-.57-1.49-1.73-1.78l-1-.24c-.77-.19-1.12-.45-1.12-.95s.6-1,1.4-1a1.37,1.37,0,0,1,1.41.94Zm7.76,5.22a2.55,2.55,0,0,0,2.61-1.66l-1-.27a1.59,1.59,0,0,1-1.63,1,2,2,0,0,1-2-2.16H170v-.43c0-2.44-1.45-3.27-2.82-3.27-1.77,0-2.94,1.4-2.94,3.41S165.36,116.55,167.25,116.55Zm-2-3.94a1.94,1.94,0,0,1,1.93-1.93,1.77,1.77,0,0,1,1.79,1.93Zm8.2,4a2.06,2.06,0,0,0,2-1h0v.89h1V112.1a2.15,2.15,0,0,0-2.42-2.32,2.65,2.65,0,0,0-2.62,1.53l.95.34a1.78,1.78,0,0,1,1.71-1,1.21,1.21,0,0,1,1.38,1.32v0c0,.48-.5.44-1.69.6s-2.54.42-2.54,1.92A2,2,0,0,0,173.41,116.56Zm.16-.9c-.8,0-1.38-.36-1.38-1.06s.69-1,1.48-1.11a5.25,5.25,0,0,0,1.74-.37V114A1.68,1.68,0,0,1,173.57,115.66Zm9.32-4.33a2.21,2.21,0,0,0-2.32-1.55c-1.38,0-2.41.78-2.41,1.89,0,.9.54,1.51,1.74,1.79l1.09.26c.66.15,1,.47,1,.92s-.59,1-1.53,1a1.38,1.38,0,0,1-1.52-1.06l-.95.24a2.25,2.25,0,0,0,2.49,1.71c1.52,0,2.55-.84,2.55-2,0-.92-.57-1.49-1.73-1.78l-1-.24c-.77-.19-1.12-.45-1.12-.95s.6-1,1.4-1a1.37,1.37,0,0,1,1.41.94Zm4.37,5.22a2.55,2.55,0,0,0,2.61-1.66l-1-.27a1.61,1.61,0,0,1-1.64,1,2,2,0,0,1-2-2.16H190v-.43c0-2.44-1.45-3.27-2.81-3.27-1.77,0-2.95,1.4-2.95,3.41S185.37,116.55,187.26,116.55Zm-2-3.94a2,2,0,0,1,1.94-1.93,1.78,1.78,0,0,1,1.79,1.93Zm6.28,3.8h1v-6.55h-1Zm.51-7.64a.68.68,0,1,0-.71-.68A.7.7,0,0,0,192,108.77Zm5.08,7.78a2.55,2.55,0,0,0,2.61-1.66l-1-.27a1.6,1.6,0,0,1-1.64,1,2,2,0,0,1-2-2.16h4.76v-.43c0-2.44-1.45-3.27-2.82-3.27-1.77,0-3,1.4-3,3.41S195.2,116.55,197.09,116.55Zm-2-3.94a2,2,0,0,1,1.94-1.93,1.78,1.78,0,0,1,1.79,1.93Zm6.28,3.8h1v-4.14a1.55,1.55,0,0,1,1.65-1.54,2.9,2.9,0,0,1,.62.07v-1l-.53,0a1.8,1.8,0,0,0-1.71,1.09h-.06v-1h-1Z"/></g></svg>