<svg xmlns="http://www.w3.org/2000/svg" xmlns:xlink="http://www.w3.org/1999/xlink" viewBox="0 0 275.44 113"><defs><style>.cls-1{fill:none;}.cls-2,.cls-6{fill:#fff;}.cls-2{fill-opacity:0.12;}.cls-3{clip-path:url(#clip-path);}.cls-4{fill:#fff2c4;}.cls-5{clip-path:url(#clip-path-2);}.cls-7{fill:#ffba37;fill-rule:evenodd;}</style><clipPath id="clip-path"><path id="SVGID" class="cls-1" d="M49.05,16h0A33.11,33.11,0,0,1,82.16,49.11h0A33.11,33.11,0,0,1,49.05,82.23h0A33.11,33.11,0,0,1,15.94,49.11h0A33.11,33.11,0,0,1,49.05,16Z"/></clipPath><clipPath id="clip-path-2"><rect id="SVGID-2" data-name="SVGID" class="cls-1" x="31.05" y="23.61" width="36" height="51"/></clipPath></defs><title>illustration</title><g id="houses"><rect class="cls-2" x="-0.06" width="275.44" height="113" rx="8"/><g class="cls-3"><rect class="cls-4" x="15.94" y="16" width="66.23" height="66.23"/><g class="cls-5"><path class="cls-6" d="M49.26,23.61c-4.21,4.51-10.9,8.18-18,9.71,0,.48,0,3.16-.17,15.48-.18,16.44,15.21,24.57,17.6,25.81,2.33-1.07,18-9,18.2-25.42C67,36.87,67,34.2,67,33.72,59.92,32,53.37,28.22,49.26,23.61Z"/><path class="cls-7" d="M33.15,34.89a37.78,37.78,0,0,0,16.05-8.3l0,0v0a37.84,37.84,0,0,0,15.81,8.63L64.9,49.17c-.07,6.38-2.65,12.1-7.69,17a35.69,35.69,0,0,1-8.27,6h0l-.24.12A35.6,35.6,0,0,1,40.32,66C35.39,61,32.93,55.19,33,48.82Z"/><path class="cls-6" d="M41.86,46.64l-.07,10.78c0,1.2,14.48,1.3,14.49.1l.07-10.79Zm7.94,5.79,0,3.06a.73.73,0,1,1-1.46,0l0-3.06a1.81,1.81,0,1,1,2.54-1.64A1.83,1.83,0,0,1,49.8,52.43Z"/><path class="cls-6" d="M55.08,46H53.61v-.73a4.51,4.51,0,1,0-9,0v.73H43.14v-.73a6,6,0,1,1,12,.08Z"/></g></g><path class="cls-6" d="M102,34V30.3h4c3.1,0,5.1-1.78,5.1-4.86s-2-4.84-5.1-4.84H99V34Zm3.68-10.7c1.66,0,2.44.5,2.44,2.14s-.78,2.16-2.44,2.16H102V23.3ZM115.73,34V28.2c0-1.26.48-1.88,1.82-1.88s1.66.48,1.66,1.58v1h3V27.28c0-2-.92-3.5-3.16-3.5a3.19,3.19,0,0,0-3.36,2.86h-.18V24h-2.78V34Zm11.16-11V20.6h-3V23Zm0,11V24h-3V34Zm9.63,0,4.58-10h-3.28l-3,7.1h-.2l-3-7.1h-3.34l4.56,10Zm9.06.2c2.22,0,3.62-.94,4.08-2.5h.16V34h2.8V28.12c0-2.62-1.58-4.34-4.92-4.34s-5.38,1.72-5.38,4.2V28h3V28c0-1.14.62-1.54,2.14-1.54s2.18.36,2.18,1.66v.38l-4.3.44c-2.14.22-3.24,1.14-3.24,2.62C142.12,33.2,143.42,34.2,145.58,34.2Zm-.44-2.88c0-.48.32-.68,1-.74l3.48-.4c-.08,1.42-1.18,1.9-3.22,1.9C145.56,32.08,145.14,31.86,145.14,31.32Zm14.94,2.88c3.22,0,5.42-1.74,5.42-4.32V29.6h-3v.16c0,1.28-.94,1.74-2.5,1.74-1.78,0-2.6-.66-2.6-2.5s.82-2.52,2.6-2.52c1.56,0,2.5.46,2.5,1.74v.16h3V28.1c0-2.6-2.2-4.32-5.42-4.32-3.44,0-5.64,2-5.64,5.22S156.64,34.2,160.08,34.2Zm9.23,3.2c2.52,0,3.86-.58,4.82-2.68l5-10.74h-3.34l-1.9,4.56-.8,2.38h-.2L172,28.56,169.89,24h-3.4L171.39,34c-.2.44-.52.64-1.26.64h-2.46V37.4ZM187.09,34V29h8V26.32h-8v-3h8.34V20.6H184.09V34Zm13.22-11V20.6h-3V23Zm0,11V24h-3V34Zm5.17,0V28.2c0-1.26.48-1.88,1.82-1.88S209,26.8,209,27.9v1h3V27.28c0-2-.92-3.5-3.16-3.5a3.19,3.19,0,0,0-3.36,2.86h-.18V24h-2.78V34Zm13.23.2c3.1,0,5-1.24,5-3.12,0-1.66-1-2.56-3.68-2.86L217.85,28c-1.32-.16-1.6-.38-1.6-.9s.38-.9,1.88-.9c1.84,0,2.24.42,2.24,1.24v.12h3v-.06c0-2.44-1.86-3.68-5.14-3.68-3.44,0-4.94,1.4-4.94,3.16s1.12,2.58,3.12,2.8l2.82.34c1.18.16,1.48.32,1.48.88s-.38.86-2,.86-2.26-.24-2.26-1.14V30.5h-3v.06C213.47,32.88,215.33,34.2,218.71,34.2Zm13.83-.2V31.3h-1.8c-1.06,0-1.44-.26-1.44-1.26V26.46h3.24V24H229.3V22h-3V24h-1.58v2.48h1.58v3.92c0,2.52,1.42,3.62,3.76,3.62Z"/><path class="cls-6" d="M99.22,45.27V54h1V47.37h.08L103,54h1l2.72-6.63h.09V54h1V45.27h-1.27l-3,7.25h-.1l-3-7.25Zm12.46,8.88a2.06,2.06,0,0,0,1.95-1h.05V54h1V49.69a2.15,2.15,0,0,0-2.42-2.32,2.66,2.66,0,0,0-2.62,1.53l1,.34a1.79,1.79,0,0,1,1.71-1,1.22,1.22,0,0,1,1.38,1.33v0c0,.49-.5.44-1.69.6s-2.54.42-2.54,1.92A2,2,0,0,0,111.68,54.15Zm.16-.9c-.8,0-1.38-.36-1.38-1.06s.7-1,1.48-1.1a5.49,5.49,0,0,0,1.74-.38v.92A1.68,1.68,0,0,1,111.84,53.25Zm7.15.89A2,2,0,0,0,120.9,53H121v1h1V45.27h-1v3.22h-.09A2,2,0,0,0,119,47.37c-1.65,0-2.8,1.31-2.8,3.37S117.36,54.14,119,54.14Zm.14-.91c-1.26,0-1.91-1.11-1.91-2.5s.63-2.46,1.91-2.46,1.87,1,1.87,2.46S120.34,53.23,119.13,53.23Zm7.59.91a2.55,2.55,0,0,0,2.61-1.66l-1-.27a1.59,1.59,0,0,1-1.63,1,2,2,0,0,1-2-2.16h4.75v-.43c0-2.44-1.45-3.27-2.81-3.27-1.78,0-3,1.4-3,3.41S124.83,54.14,126.72,54.14Zm-2-3.94a2,2,0,0,1,1.94-1.93,1.78,1.78,0,0,1,1.79,1.93ZM135.82,54h1l1.44-5h.1l1.43,5h1l2-6.55H141.7l-1.42,5h-.07l-1.38-5h-1.07l-1.4,5h-.07l-1.41-5h-1.06Zm8.26,0h1V47.45h-1Zm.51-7.64a.68.68,0,1,0-.71-.68A.7.7,0,0,0,144.59,46.36Zm5.19,1.09h-1.4V45.89h-1v1.56h-1v.86h1V52.4a1.68,1.68,0,0,0,1.78,1.69,2.16,2.16,0,0,0,.75-.12l-.21-.91a1.74,1.74,0,0,1-.44,0c-.44,0-.87-.13-.87-1V48.31h1.4Zm2.66,2.61a1.65,1.65,0,0,1,1.72-1.79,1.45,1.45,0,0,1,1.51,1.64V54h1V49.84c0-1.68-.89-2.47-2.23-2.47a1.91,1.91,0,0,0-1.93,1.11h-.08V45.27h-1V54h1Zm12.11,4.08a2.44,2.44,0,0,0,2.58-2h-1a1.51,1.51,0,0,1-1.57,1.14c-1.19,0-2-1-2-2.5s.79-2.46,2-2.46a1.54,1.54,0,0,1,1.57,1.14h1a2.44,2.44,0,0,0-2.59-2c-1.78,0-2.95,1.4-2.95,3.39S162.71,54.14,164.55,54.14Zm8.17-2.82A1.69,1.69,0,0,1,171,53.11a1.43,1.43,0,0,1-1.44-1.56v-4.1h-1v4.16c0,1.67.88,2.48,2.11,2.48a2.05,2.05,0,0,0,1.95-1.2h.06V54h1V47.45h-1Zm7.49-2.4a2.21,2.21,0,0,0-2.32-1.55c-1.38,0-2.4.78-2.4,1.89,0,.9.53,1.51,1.73,1.79l1.1.26c.66.15,1,.47,1,.92s-.6,1-1.54,1a1.37,1.37,0,0,1-1.51-1.06l-1,.24a2.26,2.26,0,0,0,2.49,1.71c1.52,0,2.56-.83,2.56-2,0-.92-.57-1.49-1.74-1.78l-1-.24c-.78-.19-1.13-.45-1.13-.95s.6-1,1.4-1a1.36,1.36,0,0,1,1.41.94Zm4.48-1.47h-1.4V45.89h-1v1.56h-1v.86h1V52.4a1.68,1.68,0,0,0,1.78,1.69,2.16,2.16,0,0,0,.75-.12l-.21-.91a1.74,1.74,0,0,1-.44,0c-.44,0-.87-.13-.87-1V48.31h1.4Zm4.1,6.69c1.77,0,3-1.35,3-3.38s-1.19-3.39-3-3.39-3,1.35-3,3.39S187,54.14,188.79,54.14Zm0-.91c-1.35,0-2-1.16-2-2.47s.61-2.49,2-2.49,2,1.18,2,2.49S190.14,53.23,188.79,53.23Zm4.5.77h1V49.91a1.55,1.55,0,0,1,1.48-1.64,1.21,1.21,0,0,1,1.29,1.25V54h1V49.74a1.37,1.37,0,0,1,1.45-1.47,1.23,1.23,0,0,1,1.33,1.35V54h1V49.62c0-1.54-.83-2.25-2-2.25a2.06,2.06,0,0,0-2,1.11h-.07a1.81,1.81,0,0,0-1.76-1.11,1.75,1.75,0,0,0-1.75,1.11h-.09v-1h-1Zm13.17.14a2.55,2.55,0,0,0,2.61-1.66l-1-.27a1.61,1.61,0,0,1-1.64,1,2,2,0,0,1-2-2.16h4.75v-.43c0-2.44-1.44-3.27-2.81-3.27-1.77,0-3,1.4-3,3.41S204.57,54.14,206.46,54.14Zm-2-3.94a2,2,0,0,1,1.94-1.93,1.78,1.78,0,0,1,1.79,1.93ZM210.7,54h1V49.86a1.55,1.55,0,0,1,1.65-1.54,2.9,2.9,0,0,1,.62.07v-1l-.53,0a1.79,1.79,0,0,0-1.71,1.09h-.06v-1h-1Zm7.84,2.45h1V53h.08a2,2,0,0,0,1.91,1.15c1.64,0,2.78-1.32,2.78-3.4s-1.14-3.37-2.79-3.37a2,2,0,0,0-1.9,1.12h-.11v-1h-1Zm1-5.72c0-1.47.65-2.46,1.88-2.46s1.91,1.08,1.91,2.46-.65,2.5-1.91,2.5S219.53,52.21,219.53,50.73ZM225.86,54h1V49.86a1.55,1.55,0,0,1,1.66-1.54,2.88,2.88,0,0,1,.61.07v-1l-.53,0a1.78,1.78,0,0,0-1.7,1.09h-.07v-1h-1Zm4.46,0h1V47.45h-1Zm.51-7.64a.68.68,0,1,0-.71-.68A.69.69,0,0,0,230.83,46.36Zm7.69,1.09h-1.09l-1.81,5.22h-.06l-1.81-5.22h-1.09L235.08,54h1Zm3.06,6.7a2.05,2.05,0,0,0,1.94-1h0V54h1V49.69a2.15,2.15,0,0,0-2.42-2.32,2.66,2.66,0,0,0-2.63,1.53l.95.34a1.79,1.79,0,0,1,1.71-1,1.22,1.22,0,0,1,1.38,1.33v0c0,.49-.49.44-1.69.6s-2.54.42-2.54,1.92A2,2,0,0,0,241.58,54.15Zm.15-.9c-.8,0-1.38-.36-1.38-1.06s.7-1,1.48-1.1a5.49,5.49,0,0,0,1.74-.38v.92A1.68,1.68,0,0,1,241.73,53.25Zm7.34.89a2.43,2.43,0,0,0,2.57-2h-1a1.52,1.52,0,0,1-1.57,1.14c-1.19,0-2-1-2-2.5s.78-2.46,2-2.46a1.54,1.54,0,0,1,1.57,1.14h1a2.44,2.44,0,0,0-2.59-2c-1.77,0-3,1.4-3,3.39S247.23,54.14,249.07,54.14Zm4.69,2.31a2,2,0,0,0,1.93-1.5l2.79-7.48-1.1,0-1.81,5.22h-.07l-1.81-5.22H252.6L255,54l-.18.52c-.37,1-.82,1.09-1.56.9l-.25.89A2,2,0,0,0,253.76,56.45ZM99.08,73h1V66.45h-1Zm.51-7.64a.68.68,0,1,0-.71-.68A.7.7,0,0,0,99.59,65.36Zm3.35,3.7a1.62,1.62,0,0,1,1.67-1.79,1.45,1.45,0,0,1,1.5,1.64V73h1V68.84c0-1.67-.89-2.47-2.21-2.47A1.92,1.92,0,0,0,103,67.48h-.09v-1h-1V73h1ZM112.33,73h1V68.91a1.56,1.56,0,0,1,1.48-1.64,1.21,1.21,0,0,1,1.3,1.25V73h1V68.74a1.37,1.37,0,0,1,1.45-1.47,1.22,1.22,0,0,1,1.33,1.35V73h1V68.62c0-1.54-.83-2.25-2-2.25a2.07,2.07,0,0,0-2,1.11h-.07a1.79,1.79,0,0,0-1.75-1.11,1.77,1.77,0,0,0-1.76,1.11h-.08v-1h-1Zm10.42,0h1V66.45h-1Zm.52-7.64a.68.68,0,1,0,0-1.36.68.68,0,1,0,0,1.36Zm3.34,3.7a1.62,1.62,0,0,1,1.67-1.79,1.45,1.45,0,0,1,1.5,1.64V73h1V68.84c0-1.67-.89-2.47-2.21-2.47a1.93,1.93,0,0,0-1.91,1.11h-.09v-1h-1V73h1Zm8.48,4.08A2,2,0,0,0,137,72h.12v1h1V64.27h-1v3.22H137a2,2,0,0,0-1.89-1.12c-1.65,0-2.79,1.31-2.79,3.37S133.46,73.14,135.09,73.14Zm.14-.91c-1.26,0-1.91-1.11-1.91-2.5s.63-2.46,1.91-2.46,1.88,1,1.88,2.46S136.44,72.23,135.23,72.23Zm5.58.84a.77.77,0,1,0-.77-.77A.78.78,0,0,0,140.81,73.07Zm10.85-6.62h1c-.05-1.31-1.26-2.3-2.95-2.3s-3,1-3,2.44c0,1.18.86,1.88,2.22,2.27l1.07.3c.93.26,1.74.58,1.74,1.45s-.92,1.59-2.13,1.59c-1,0-2-.46-2-1.45h-1.09c.1,1.43,1.26,2.4,3.13,2.4s3.16-1.1,3.16-2.52c0-1.64-1.56-2.16-2.46-2.4l-.88-.24c-.65-.17-1.69-.51-1.69-1.45s.76-1.45,1.92-1.45S151.56,65.59,151.66,66.45Zm5.41,6.69c1.77,0,3-1.35,3-3.38s-1.19-3.39-3-3.39-3,1.35-3,3.39S155.29,73.14,157.07,73.14Zm0-.91c-1.35,0-2-1.16-2-2.47s.61-2.49,2-2.49,2,1.18,2,2.49S158.41,72.23,157.07,72.23Zm8.52,3.22a2,2,0,0,0,1.93-1.5l2.78-7.48-1.1,0-1.8,5.22h-.07l-1.81-5.22h-1.09L166.85,73l-.19.52c-.36,1-.81,1.09-1.55.9l-.25.89A2,2,0,0,0,165.59,75.45Zm8.47-2.31c1.77,0,3-1.35,3-3.38s-1.19-3.39-3-3.39-3,1.35-3,3.39S172.29,73.14,174.06,73.14Zm0-.91c-1.35,0-2-1.16-2-2.47s.61-2.49,2-2.49,2,1.18,2,2.49S175.41,72.23,174.06,72.23Zm8.62-1.91A1.69,1.69,0,0,1,181,72.11a1.42,1.42,0,0,1-1.43-1.56v-4.1h-1v4.16c0,1.67.89,2.48,2.11,2.48a2.05,2.05,0,0,0,2-1.2h.06V73h1V66.45h-1Zm3.91-6h-1v.79a3,3,0,0,1-.66,1.68l.54.45A3,3,0,0,0,186.59,65Zm6.86,2.18h-1.09l-1.81,5.22h-.07l-1.8-5.22h-1.09L190,73h1Zm3.84,6.69a2.55,2.55,0,0,0,2.61-1.66l-1-.27a1.59,1.59,0,0,1-1.63,1,2,2,0,0,1-2-2.16H200v-.43c0-2.44-1.45-3.27-2.81-3.27-1.78,0-2.95,1.4-2.95,3.41S195.4,73.14,197.29,73.14Zm-2-3.94a2,2,0,0,1,1.94-1.93A1.78,1.78,0,0,1,199,69.2Zm10.66-.14a1.62,1.62,0,0,1,1.67-1.79,1.45,1.45,0,0,1,1.5,1.64V73h1V68.84c0-1.67-.9-2.47-2.22-2.47A1.93,1.93,0,0,0,206,67.48h-.09v-1h-1V73h1Zm8.67,4.08c1.77,0,3-1.35,3-3.38s-1.2-3.39-3-3.39-3,1.35-3,3.39S212.81,73.14,214.58,73.14Zm0-.91c-1.34,0-2-1.16-2-2.47s.62-2.49,2-2.49,2,1.18,2,2.49S215.93,72.23,214.58,72.23Zm7.35-5.78h-1.4V64.89h-1v1.56h-1v.86h1V71.4a1.68,1.68,0,0,0,1.77,1.69,2.16,2.16,0,0,0,.75-.12l-.21-.91a1.74,1.74,0,0,1-.44,0c-.44,0-.87-.13-.87-1V67.31h1.4Zm2.66,2.61a1.65,1.65,0,0,1,1.72-1.79,1.45,1.45,0,0,1,1.52,1.64V73h1V68.84c0-1.68-.89-2.47-2.23-2.47a1.91,1.91,0,0,0-1.93,1.11h-.08V64.27h-1V73h1ZM230.67,73h1V66.45h-1Zm.51-7.64a.68.68,0,1,0-.71-.68A.7.7,0,0,0,231.18,65.36Zm3.35,3.7a1.62,1.62,0,0,1,1.67-1.79,1.45,1.45,0,0,1,1.5,1.64V73h1V68.84c0-1.67-.89-2.47-2.21-2.47a1.92,1.92,0,0,0-1.91,1.11h-.09v-1h-1V73h1Zm8.65,6.53c1.57,0,2.83-.72,2.83-2.4V66.45h-1v1h-.1A2,2,0,0,0,243,66.37c-1.65,0-2.8,1.31-2.8,3.32s1.2,3.21,2.78,3.21a2,2,0,0,0,1.91-1.11H245v1.33c0,1.09-.77,1.58-1.83,1.58a2,2,0,0,1-1.87-1l-.8.56A2.89,2.89,0,0,0,243.18,75.59Zm0-3.6c-1.26,0-1.91-.95-1.91-2.31s.63-2.41,1.91-2.41,1.87,1,1.87,2.41S244.36,72,243.15,72ZM101.93,85.45h-1.4V83.89h-1v1.56h-1v.86h1V90.4a1.68,1.68,0,0,0,1.77,1.69,2.16,2.16,0,0,0,.75-.12l-.21-.91a1.74,1.74,0,0,1-.44,0c-.44,0-.87-.13-.87-1V86.31h1.4Zm4.1,6.69c1.77,0,3-1.35,3-3.38s-1.2-3.39-3-3.39-3,1.35-3,3.39S104.26,92.14,106,92.14Zm0-.91c-1.35,0-2-1.16-2-2.47s.61-2.49,2-2.49,2,1.18,2,2.49S107.38,91.23,106,91.23Zm9.36.77h1l1.43-5h.1l1.43,5h1l2-6.55h-1.06l-1.41,5h-.07l-1.38-5h-1.08l-1.39,5h-.07l-1.42-5h-1Zm10.7.14c1.78,0,3-1.35,3-3.38s-1.19-3.39-3-3.39-3,1.35-3,3.39S124.32,92.14,126.09,92.14Zm0-.91c-1.34,0-2-1.16-2-2.47s.62-2.49,2-2.49,2,1.18,2,2.49S127.44,91.23,126.09,91.23Zm4.5.77h1V87.86a1.55,1.55,0,0,1,1.65-1.54,2.9,2.9,0,0,1,.62.07v-1l-.53,0a1.79,1.79,0,0,0-1.71,1.09h-.06v-1h-1Zm4.47,0h1V87.86a1.54,1.54,0,0,1,1.65-1.54,2.78,2.78,0,0,1,.61.07v-1l-.53,0a1.79,1.79,0,0,0-1.7,1.09H136v-1h-1Zm5.31,2.45A2,2,0,0,0,142.3,93l2.78-7.48-1.1,0-1.8,5.22h-.07l-1.81-5.22h-1.09L141.63,92l-.18.52c-.37,1-.82,1.09-1.56.9l-.25.89A2,2,0,0,0,140.37,94.45Zm11.35-2.3a2.05,2.05,0,0,0,1.94-1h.05V92h1V87.69a2.15,2.15,0,0,0-2.42-2.32,2.66,2.66,0,0,0-2.63,1.53l1,.34a1.76,1.76,0,0,1,1.7-1,1.22,1.22,0,0,1,1.38,1.33v0c0,.49-.49.44-1.69.6s-2.54.42-2.54,1.92A2,2,0,0,0,151.72,92.15Zm.15-.9c-.8,0-1.38-.36-1.38-1.06s.7-1,1.48-1.1a5.49,5.49,0,0,0,1.74-.38v.92A1.68,1.68,0,0,1,151.87,91.25Zm4.82.75h1V91h.12a2,2,0,0,0,1.91,1.15c1.63,0,2.78-1.32,2.78-3.4s-1.15-3.37-2.8-3.37a2,2,0,0,0-1.89,1.12h-.09V83.27h-1Zm1-3.27c0-1.47.64-2.46,1.87-2.46s1.91,1.08,1.91,2.46-.65,2.5-1.91,2.5S157.68,90.21,157.68,88.73Zm9,3.41c1.78,0,3-1.35,3-3.38s-1.19-3.39-3-3.39-3,1.35-3,3.39S164.89,92.14,166.66,92.14Zm0-.91c-1.34,0-2-1.16-2-2.47s.62-2.49,2-2.49,2,1.18,2,2.49S168,91.23,166.66,91.23Zm8.63-1.91a1.7,1.7,0,0,1-1.69,1.79,1.42,1.42,0,0,1-1.43-1.56v-4.1h-1v4.16c0,1.67.88,2.48,2.11,2.48a2,2,0,0,0,1.94-1.2h.07V92h1V85.45h-1ZM181,85.45h-1.39V83.89h-1v1.56h-1v.86h1V90.4a1.68,1.68,0,0,0,1.77,1.69,2.06,2.06,0,0,0,.75-.12l-.2-.91a1.81,1.81,0,0,1-.44,0c-.45,0-.87-.13-.87-1V86.31H181Z"/></g></svg>