<svg width="160" height="160" viewBox="0 0 160 160" fill="none" xmlns="http://www.w3.org/2000/svg">
<rect width="160" height="160" rx="80" fill="#FCCF5A"/>
<path d="M143.845 85.1792C143.838 96.2403 140.578 107.055 134.471 116.278C128.364 125.5 119.679 132.722 109.498 137.046L87.4805 85.1792H143.845Z" fill="#18EDF1"/>
<path d="M78.297 79.3082L100.315 131.197C100.315 131.197 100.315 131.197 100.203 131.197C98.4798 131.891 96.7568 132.54 95.0339 133.077C86.6112 135.699 77.6902 136.306 68.99 134.848C60.2899 133.389 52.0542 129.907 44.9471 124.681C37.8401 119.455 32.0606 112.632 28.0746 104.763C24.0887 96.8931 22.0078 88.1969 22 79.3754C22.0334 65.9201 26.8811 52.921 35.6661 42.7294C44.4512 32.5378 56.5936 25.8266 69.8969 23.8099C83.2003 21.7932 96.7861 24.604 108.197 31.734C119.608 38.864 128.091 49.8423 132.11 62.6832C133.785 68.1045 134.637 73.7461 134.639 79.4201L78.297 79.3082Z" fill="#4B72FF"/>
<path d="M78.3193 79.3308L41.601 122.023C34.442 115.868 28.9454 108.011 25.6166 99.176C22.2877 90.3408 21.2336 80.8105 22.5509 71.4614C23.8683 62.1122 27.5148 53.2442 33.1554 45.6728C38.796 38.1015 46.2496 32.0696 54.8308 28.1319C63.4119 24.1942 72.8454 22.4771 82.2637 23.1383C91.6821 23.7995 100.783 26.818 108.73 31.916C116.677 37.0141 123.214 44.0283 127.742 52.3135C132.269 60.5988 134.641 69.8893 134.639 79.3308H78.3193Z" fill="white"/>
</svg>
