<svg width="160" height="160" viewBox="0 0 160 160" fill="none" xmlns="http://www.w3.org/2000/svg">
<rect width="160" height="160" rx="80" fill="#46FAE4"/>
<path d="M117.7 87.7335C117.942 86.0418 118.184 84.3501 118.184 82.4168C118.184 80.4834 117.942 78.7918 117.7 77.1001L128.575 69.3668C129.542 68.6418 130.025 67.1918 129.3 65.9834L118.667 48.1001C117.942 46.8918 116.734 46.4084 115.525 47.1334L103.442 52.6918C100.542 50.5168 97.6418 48.8251 94.2585 47.3751L93.0502 34.0834C92.8085 32.8751 91.8418 31.9084 90.6335 31.9084H69.8502C68.6418 31.9084 67.4335 32.8751 67.4335 34.0834L66.2252 47.3751C62.8418 48.8251 59.7002 50.5168 57.0418 52.6918L44.9585 47.1334C43.7502 46.6501 42.3002 47.1334 41.8168 48.1001L31.4252 65.9834C30.7002 67.1918 31.1835 68.6418 32.1502 69.3668L43.0252 77.1001C42.7835 78.7918 42.5418 80.4834 42.5418 82.4168C42.5418 84.3501 42.7835 86.0418 43.0252 87.7335L31.6668 95.4668C30.7002 96.1918 30.2168 97.6418 30.9418 98.8501L41.3335 116.733C42.0585 117.942 43.2668 118.425 44.4752 117.7L56.5585 112.142C59.4585 114.317 62.3585 116.008 65.7419 117.458L66.9502 130.75C67.1919 131.958 68.1585 132.925 69.3669 132.925H90.1502C91.3585 132.925 92.5669 131.958 92.5669 130.75L93.7752 117.458C97.1585 116.008 100.3 114.317 102.959 112.142L115.042 117.7C116.25 118.183 117.7 117.7 118.184 116.733L128.575 98.8501C129.3 97.6418 128.817 96.1918 127.85 95.4668L117.7 87.7335V87.7335ZM80.0002 106.583C66.7085 106.583 55.8335 95.7084 55.8335 82.4168C55.8335 69.1251 66.7085 58.2501 80.0002 58.2501C93.2919 58.2501 104.167 69.1251 104.167 82.4168C104.167 95.7084 93.2919 106.583 80.0002 106.583Z" fill="#0A6F7C"/>
<path d="M80 53.4167C64.05 53.4167 51 66.4667 51 82.4167C51 98.3667 64.05 111.417 80 111.417C95.95 111.417 109 98.3667 109 82.4167C109 66.4667 95.95 53.4167 80 53.4167ZM80 94.5001C73.2333 94.5001 67.9167 89.1834 67.9167 82.4167C67.9167 75.6501 73.2333 70.3334 80 70.3334C86.7667 70.3334 92.0833 75.6501 92.0833 82.4167C92.0833 89.1834 86.7667 94.5001 80 94.5001Z" fill="#14BAD0"/>
</svg>
