<svg width="160" height="160" viewBox="0 0 160 160" fill="none" xmlns="http://www.w3.org/2000/svg">
<rect width="160" height="160" rx="80" fill="#C8FFF2"/>
<path d="M50.1437 97.8388L76.1944 82.6012L104.973 122.439C94.5 132 86.1942 145.857 86.1942 145.857L50.1437 97.8388Z" fill="url(#paint0_linear_1640:10078)"/>
<path d="M81.2591 86.3774L65.5968 61.2981L100.549 39.408L92.5121 28.2773L133.727 31.8235L123.475 74.6937L114.675 62.7635L81.2591 86.3774Z" fill="url(#paint1_linear_1640:10078)"/>
<path d="M71.9803 118.775C51.8702 122.798 32.3066 109.756 28.2838 89.6462C24.261 69.536 37.3024 49.9724 57.4125 45.9497C77.5227 41.9269 97.0863 54.9683 101.109 75.0784C105.132 95.1886 92.0905 114.752 71.9803 118.775Z" fill="#FFCC48"/>
<path d="M73.5389 118.463C53.4288 122.486 33.8652 109.445 29.8424 89.3344C25.8196 69.2243 38.861 49.6607 58.9711 45.6379C79.0813 41.6151 98.6449 54.6565 102.668 74.7667C106.69 94.8768 93.6491 114.44 73.5389 118.463Z" fill="#F89828"/>
<path d="M73.5389 118.463C53.4288 122.486 33.8652 109.445 29.8424 89.3344C25.8196 69.2243 38.861 49.6607 58.9711 45.6379C79.0813 41.6151 98.6449 54.6565 102.668 74.7667C106.69 94.8768 93.6491 114.44 73.5389 118.463Z" fill="#F89828"/>
<path d="M72.136 111.45C55.8992 114.698 40.1037 104.168 36.8558 87.9315C33.6078 71.6947 44.1373 55.8992 60.3741 52.6512C76.6109 49.4033 92.4064 59.9328 95.6544 76.1696C98.9024 92.4064 88.3728 108.202 72.136 111.45Z" fill="#FFCC48"/>
<g clip-path="url(#clip0_1640:10078)">
<path fill-rule="evenodd" clip-rule="evenodd" d="M65.1787 69.5259C66.7214 70.3292 68.0544 71.3148 69.1786 72.6334L73.7443 70.3115L74.6907 76.484L72.1676 77.7672C74.2269 83.6006 72.5512 89.8213 67.6017 93.3213L81.6378 100.701L75.1497 104L61.1748 96.7411L58.4862 91.4545L62.9318 89.1936C66.1758 87.5439 67.7488 83.9463 66.8514 80.5464L54.6562 86.7484L53.7099 80.5758L63.8025 75.4431C61.5591 73.5595 58.3007 73.0995 55.4772 74.5354L49.8902 77.3767L48.9438 71.2041L69.0088 60.9999L69.9552 67.1724L65.1787 69.5259Z" fill="#F89828"/>
</g>
<defs>
<linearGradient id="paint0_linear_1640:10078" x1="91.5" y1="132" x2="37.5" y2="78" gradientUnits="userSpaceOnUse">
<stop stop-color="#17E8EC"/>
<stop offset="1" stop-color="#14A2B6"/>
</linearGradient>
<linearGradient id="paint1_linear_1640:10078" x1="108" y1="40.5" x2="53.5" y2="95" gradientUnits="userSpaceOnUse">
<stop stop-color="#18EDF1"/>
<stop offset="1" stop-color="#0BB8BB"/>
</linearGradient>
<clipPath id="clip0_1640:10078">
<rect width="25.8131" height="42.4603" fill="white" transform="translate(46 72.7012) rotate(-26.956)"/>
</clipPath>
</defs>
</svg>
