<svg width="160" height="160" viewBox="0 0 160 160" fill="none" xmlns="http://www.w3.org/2000/svg">
<rect width="160" height="160" rx="80" fill="#FFF2C4"/>
<g clip-path="url(#clip0_1640:10079)">
<path d="M80.0476 26C71.0242 35.5126 56.677 43.2628 41.3599 46.4939C41.3599 47.5107 41.2922 53.1596 40.9989 79.1668C40.6154 113.873 73.6184 131.046 78.7392 133.667C83.7472 131.407 117.382 114.709 117.765 80.0028C118.059 53.9956 118.126 48.3468 118.126 47.33C102.899 43.7599 88.8679 35.716 80.0476 26Z" fill="white"/>
<path fill-rule="evenodd" clip-rule="evenodd" d="M45.5112 49.8159C58.8883 46.4718 71.0924 40.2355 79.9128 32.282C79.9353 32.3046 79.9579 32.3272 80.003 32.3498L79.9991 32.9432L80.0031 32.35C88.643 40.4618 100.644 46.924 113.908 50.5619L113.593 79.9584C113.435 93.4252 107.908 105.491 97.1024 115.885C90.3255 122.402 83.2563 126.511 79.3714 128.504L79.3714 128.515C79.1909 128.583 79.0104 128.674 78.8525 128.764C75.1304 126.798 67.8215 122.46 60.8735 115.478C50.3161 104.858 45.0374 92.6567 45.1953 79.2124L45.5112 49.8159Z" fill="#FFBA37"/>
<path d="M64.1892 74.6028L64.0313 97.3789C64.0087 99.9095 95.0717 100.113 95.0942 97.5822L95.2521 74.8061L64.1892 74.6028ZM81.1982 86.8269L81.1531 93.2891C81.1531 94.1477 80.4312 94.8482 79.574 94.8482C78.6942 94.8482 77.9949 94.1251 78.0175 93.2665L78.0626 86.8043C76.7317 86.1942 75.8068 84.8611 75.8293 83.302C75.8519 81.178 77.5889 79.506 79.6868 79.506C81.8073 79.5286 83.4992 81.2458 83.4992 83.3472C83.4766 84.8837 82.5517 86.2394 81.1982 86.8269Z" fill="white"/>
<path d="M92.5228 73.1793L89.3871 73.1567V71.6202C89.4323 66.3103 85.1236 61.9495 79.7772 61.9269C74.4535 61.8817 70.0771 66.1974 70.0546 71.5073V73.0437L66.9189 73.0212V71.4847C66.9641 64.4349 72.739 58.7409 79.8224 58.8087C86.8832 58.8539 92.5904 64.6157 92.5453 71.6654L92.5228 73.1793Z" fill="white"/>
</g>
<defs>
<clipPath id="clip0_1640:10079">
<rect width="77.195" height="107.667" fill="white" transform="translate(41 26)"/>
</clipPath>
</defs>
</svg>
