<svg width="160" height="160" viewBox="0 0 160 160" fill="none" xmlns="http://www.w3.org/2000/svg">
<rect width="160" height="160" rx="80" fill="#CAE9FF"/>
<path d="M100.312 132.75C104.8 132.75 108.438 129.112 108.438 124.625C108.438 120.138 104.8 116.5 100.312 116.5C95.8252 116.5 92.1875 120.138 92.1875 124.625C92.1875 129.112 95.8252 132.75 100.312 132.75Z" fill="#4B72FF"/>
<path d="M100.312 51.5C104.8 51.5 108.438 47.8623 108.438 43.375C108.438 38.8877 104.8 35.25 100.312 35.25C95.8252 35.25 92.1875 38.8877 92.1875 43.375C92.1875 47.8623 95.8252 51.5 100.312 51.5Z" fill="#4B72FF"/>
<path d="M31.25 92.125C35.7373 92.125 39.375 88.4873 39.375 84C39.375 79.5127 35.7373 75.875 31.25 75.875C26.7627 75.875 23.125 79.5127 23.125 84C23.125 88.4873 26.7627 92.125 31.25 92.125Z" fill="#4B72FF"/>
<path d="M46.875 52.75C52.0527 52.75 56.25 48.5527 56.25 43.375C56.25 38.1973 52.0527 34 46.875 34C41.6973 34 37.5 38.1973 37.5 43.375C37.5 48.5527 41.6973 52.75 46.875 52.75Z" fill="#B0CBFF"/>
<path d="M80.625 92.75C85.8027 92.75 90 88.5527 90 83.375C90 78.1973 85.8027 74 80.625 74C75.4473 74 71.25 78.1973 71.25 83.375C71.25 88.5527 75.4473 92.75 80.625 92.75Z" fill="#B0CBFF"/>
<path d="M129.375 93.9998C134.553 93.9998 138.75 89.8024 138.75 84.6248C138.75 79.4471 134.553 75.2498 129.375 75.2498C124.197 75.2498 120 79.4471 120 84.6248C120 89.8024 124.197 93.9998 129.375 93.9998Z" fill="#B0CBFF"/>
<path d="M46.875 134C52.0527 134 56.25 129.803 56.25 124.625C56.25 119.447 52.0527 115.25 46.875 115.25C41.6973 115.25 37.5 119.447 37.5 124.625C37.5 129.803 41.6973 134 46.875 134Z" fill="#B0CBFF"/>
<path d="M128.75 67.75C125.157 67.7607 121.669 68.963 118.833 71.1685C115.997 73.374 113.972 76.458 113.077 79.9375H95.6731C95.0978 77.6465 94.0257 75.51 92.5328 73.6793C91.0399 71.8487 89.1628 70.3687 87.0343 69.3443C84.9059 68.3198 82.5782 67.7758 80.2162 67.7509C77.8541 67.7261 75.5155 68.2209 73.3659 69.2003L60.4594 53.0722C62.5824 50.2841 63.7378 46.8794 63.75 43.375C63.75 40.1611 62.797 37.0193 61.0114 34.347C59.2258 31.6747 56.6879 29.5919 53.7186 28.362C50.7493 27.132 47.482 26.8102 44.3298 27.4372C41.1776 28.0643 38.2821 29.6119 36.0095 31.8845C33.7369 34.1571 32.1893 37.0526 31.5622 40.2048C30.9352 43.357 31.257 46.6243 32.487 49.5936C33.7169 52.5629 35.7997 55.1008 38.472 56.8864C41.1443 58.672 44.2861 59.625 47.5 59.625C49.7907 59.6197 52.0539 59.1252 54.1381 58.1747L67.0406 74.3028C64.9078 77.0856 63.752 80.4939 63.752 84C63.752 87.5061 64.9078 90.9144 67.0406 93.6972L54.1381 109.825C52.0539 108.875 49.7907 108.38 47.5 108.375C44.2861 108.375 41.1443 109.328 38.472 111.114C35.7997 112.899 33.7169 115.437 32.487 118.406C31.257 121.376 30.9352 124.643 31.5622 127.795C32.1893 130.947 33.7369 133.843 36.0095 136.115C38.2821 138.388 41.1776 139.936 44.3298 140.563C47.482 141.19 50.7493 140.868 53.7186 139.638C56.6879 138.408 59.2258 136.325 61.0114 133.653C62.797 130.981 63.75 127.839 63.75 124.625C63.738 121.121 62.5827 117.716 60.4594 114.928L73.3619 98.7997C75.5116 99.7799 77.8506 100.275 80.2132 100.251C82.5757 100.226 84.9039 99.6825 87.0329 98.6579C89.1618 97.6334 91.0394 96.1531 92.5326 94.3221C94.0257 92.4911 95.0979 90.3541 95.6731 88.0625H113.077C113.842 90.9979 115.415 93.66 117.617 95.7464C119.818 97.8329 122.561 99.2602 125.534 99.8661C128.506 100.472 131.589 100.233 134.432 99.1746C137.275 98.1166 139.764 96.2827 141.617 93.8811C143.47 91.4795 144.613 88.6064 144.915 85.588C145.217 82.5697 144.667 79.5271 143.327 76.8056C141.987 74.0842 139.911 71.7931 137.334 70.1924C134.757 68.5916 131.783 67.7455 128.75 67.75V67.75ZM39.375 43.375C39.375 41.768 39.8515 40.1971 40.7443 38.861C41.6371 37.5248 42.9061 36.4834 44.3907 35.8685C45.8754 35.2535 47.509 35.0926 49.0851 35.4061C50.6612 35.7196 52.1089 36.4935 53.2452 37.6298C54.3815 38.7661 55.1554 40.2138 55.4689 41.7899C55.7824 43.366 55.6215 44.9997 55.0065 46.4843C54.3916 47.969 53.3502 49.2379 52.014 50.1307C50.6779 51.0235 49.107 51.5 47.5 51.5C45.3458 51.4979 43.2804 50.6411 41.7571 49.1179C40.2339 47.5946 39.3772 45.5292 39.375 43.375V43.375ZM47.5 132.75C45.893 132.75 44.3221 132.273 42.986 131.381C41.6498 130.488 40.6084 129.219 39.9935 127.734C39.3785 126.25 39.2176 124.616 39.5311 123.04C39.8446 121.464 40.6185 120.016 41.7548 118.88C42.8911 117.743 44.3388 116.97 45.9149 116.656C47.491 116.343 49.1247 116.504 50.6093 117.118C52.094 117.733 53.3629 118.775 54.2557 120.111C55.1485 121.447 55.625 123.018 55.625 124.625C55.6229 126.779 54.7661 128.845 53.2429 130.368C51.7196 131.891 49.6542 132.748 47.5 132.75ZM80 92.125C78.393 92.125 76.8221 91.6485 75.486 90.7557C74.1498 89.8629 73.1084 88.594 72.4935 87.1093C71.8785 85.6247 71.7176 83.991 72.0311 82.4149C72.3446 80.8388 73.1185 79.3911 74.2548 78.2548C75.3911 77.1185 76.8388 76.3446 78.4149 76.0311C79.991 75.7176 81.6247 75.8785 83.1093 76.4935C84.594 77.1084 85.8629 78.1498 86.7557 79.486C87.6485 80.8221 88.125 82.393 88.125 84C88.1229 86.1542 87.2661 88.2196 85.7429 89.7429C84.2196 91.2661 82.1542 92.1228 80 92.125V92.125ZM128.75 92.125C127.143 92.125 125.572 91.6485 124.236 90.7557C122.9 89.8629 121.858 88.594 121.243 87.1093C120.629 85.6247 120.468 83.991 120.781 82.4149C121.095 80.8388 121.868 79.3911 123.005 78.2548C124.141 77.1185 125.589 76.3446 127.165 76.0311C128.741 75.7176 130.375 75.8785 131.859 76.4935C133.344 77.1084 134.613 78.1498 135.506 79.486C136.398 80.8221 136.875 82.393 136.875 84C136.873 86.1542 136.016 88.2196 134.493 89.7429C132.97 91.2661 130.904 92.1228 128.75 92.125V92.125Z" fill="#4B72FF"/>
</svg>
