<svg width="174" height="49" viewBox="0 0 174 49" fill="none" xmlns="http://www.w3.org/2000/svg">
<path d="M2.32227 9.69195L9.06781 12.657C10.9951 9.09893 14.7756 7.39402 18.7043 7.98703C22.633 8.58005 24.98 11.682 25.8204 13.4724C27.5254 17.1046 28.0622 22.6928 24.9489 28.1782L31.9168 31.5139C35.4071 24.6306 35.1845 17.5064 33.2258 11.9436C31.0476 5.75759 25.8102 1.47373 19.0787 0.45386C10.1193 -0.903548 3.97776 5.98561 2.32227 9.69195Z" fill="#18EDF1"/>
<path d="M13.4164 48.2902C20.021 50.1335 32.9787 49.0892 38.7825 34.7526L31.9165 31.5092C26.4927 42.9774 19.1944 41.889 14.841 40.7512C11.6178 39.9088 7.7099 36.9162 7.7099 32.3667C7.7099 26.883 13.0858 22.3947 19.4388 24.5708C19.4388 24.5708 20.471 17.5868 20.4105 17.5263C15.2854 15.906 9.01357 16.1718 3.65649 23.0212C0.181084 27.4648 -0.46394 34.2554 2.22811 39.5125C4.30892 43.576 8.38631 46.8863 13.4164 48.2902Z" fill="#18EDF1"/>
<path fill-rule="evenodd" clip-rule="evenodd" d="M50.834 33.412H54.8779L56.8275 29.0064H65.1935L67.1432 33.412H71.2377L63.2577 15.5305H58.814L50.834 33.412ZM58.3245 25.6331L60.3434 21.107L61.0105 19.4821L61.6776 21.107L63.6966 25.6331H58.3245Z" fill="white"/>
<path d="M72.3509 18.1365H76.0028V14.9189H72.3509V18.1365Z" fill="white"/>
<path d="M72.3509 33.412H76.0028V19.9108H72.3509V33.412Z" fill="white"/>
<path d="M78.6304 33.412H82.2823V25.8892C82.2823 24.8089 82.497 24.0777 82.8857 23.6188C83.2608 23.1759 83.8697 22.9043 84.862 22.9043C85.7417 22.9043 86.2529 23.1017 86.5534 23.4089C86.8558 23.7181 87.0366 24.232 87.0366 25.0789V25.4286H90.6631V24.5472C90.6631 23.2841 90.3345 22.0624 89.5804 21.1475C88.8153 20.2193 87.6534 19.6576 86.1027 19.6576C84.709 19.6576 83.6064 20.0978 82.8004 20.8429C82.5096 21.1118 82.2618 21.4162 82.0544 21.7469V19.9108H78.6304V33.412Z" fill="white"/>
<path fill-rule="evenodd" clip-rule="evenodd" d="M92.4762 33.412H95.9002V31.2862C96.2166 31.7917 96.6151 32.225 97.0932 32.5784C98.0774 33.306 99.358 33.6652 100.86 33.6652C102.967 33.6652 104.638 32.9614 105.777 31.7006C106.91 30.4463 107.471 28.6927 107.471 26.6741C107.471 24.6328 106.918 22.8741 105.809 21.6196C104.692 20.3574 103.059 19.6576 101.012 19.6576C99.4261 19.6576 98.1518 20.065 97.1991 20.7892C96.7712 21.1145 96.4152 21.4983 96.1281 21.9267V15.5305H92.4762V33.412ZM96.1281 26.8007V26.5981C96.1281 25.3446 96.4861 24.4859 97.1025 23.9327C97.7278 23.3716 98.6946 23.0562 100.05 23.0562C101.347 23.0562 102.268 23.3098 102.866 23.8397C103.453 24.3593 103.819 25.2271 103.819 26.6741C103.819 28.1095 103.459 28.9616 102.873 29.4707C102.273 29.9922 101.339 30.2413 99.9991 30.2413C98.7081 30.2413 97.7496 29.9389 97.119 29.3914C96.4994 28.8536 96.1281 28.0197 96.1281 26.8007Z" fill="white"/>
<path fill-rule="evenodd" clip-rule="evenodd" d="M135.63 32.2716C136.024 31.9234 136.351 31.5273 136.615 31.1018V33.412H140.039V19.9108H136.412V26.5981C136.412 27.9011 136.104 28.8032 135.547 29.3816C134.992 29.9567 134.114 30.2919 132.794 30.2919C131.523 30.2919 130.727 30.0062 130.244 29.5335C129.764 29.0631 129.506 28.3213 129.506 27.2058V19.9108H125.879V27.9401C125.879 29.4834 126.336 30.9197 127.304 31.9752C128.277 33.0373 129.725 33.6652 131.604 33.6652C133.326 33.6652 134.665 33.1247 135.63 32.2716Z" fill="white"/>
<path d="M142.618 33.412H146.27V26.7247C146.27 25.4175 146.568 24.5147 147.111 23.9373C147.649 23.3655 148.506 23.0309 149.812 23.0309C151.056 23.0309 151.831 23.3157 152.301 23.7859C152.771 24.2559 153.025 24.999 153.025 26.1171V33.412H156.677V25.3828C156.677 23.8396 156.22 22.4039 155.26 21.3489C154.293 20.2869 152.858 19.6576 151.002 19.6576C149.304 19.6576 147.977 20.1993 147.022 21.0529C146.629 21.404 146.304 21.8038 146.042 22.2335V19.9108H142.618V33.412Z" fill="white"/>
<path fill-rule="evenodd" clip-rule="evenodd" d="M169.919 15.5305V21.9329C169.629 21.5016 169.269 21.1155 168.838 20.7887C167.883 20.0654 166.609 19.6576 165.035 19.6576C163.012 19.6576 161.38 20.3583 160.258 21.6186C159.143 22.8719 158.576 24.6302 158.576 26.6741C158.576 28.6953 159.151 30.4489 160.294 31.7021C161.442 32.9612 163.118 33.6652 165.212 33.6652C166.703 33.6652 167.977 33.3057 168.958 32.578C169.434 32.2248 169.831 31.7919 170.147 31.2869V33.412H173.571V15.5305H169.919ZM162.253 26.6741C162.253 25.2292 162.625 24.3603 163.213 23.8397C163.812 23.309 164.727 23.0562 165.997 23.0562C167.339 23.0562 168.307 23.3711 168.936 23.9334C169.556 24.4875 169.919 25.3467 169.919 26.5981V26.8007C169.919 28.0176 169.543 28.852 168.919 29.3908C168.285 29.9393 167.325 30.2413 166.048 30.2413C164.735 30.2413 163.807 29.9929 163.206 29.4707C162.619 28.9606 162.253 28.1074 162.253 26.6741Z" fill="white"/>
<path fill-rule="evenodd" clip-rule="evenodd" d="M116.352 33.6652C118.551 33.6652 120.422 32.9686 121.748 31.728C123.077 30.4851 123.824 28.7269 123.824 26.6741C123.824 24.5974 123.078 22.8324 121.748 21.5885C120.422 20.3472 118.55 19.6576 116.352 19.6576C114.167 19.6576 112.301 20.3476 110.978 21.5889C109.652 22.8327 108.905 24.5975 108.905 26.6741C108.905 28.7268 109.653 30.4848 110.978 31.7276C112.3 32.9682 114.165 33.6652 116.352 33.6652ZM116.352 30.3173C114.898 30.3173 113.961 29.9714 113.384 29.3969C112.808 28.823 112.506 27.9381 112.506 26.6741C112.506 25.3963 112.808 24.4977 113.386 23.9142C113.964 23.3314 114.9 22.9803 116.352 22.9803C117.818 22.9803 118.76 23.3319 119.341 23.915C119.921 24.4983 120.223 25.3963 120.223 26.6741C120.223 27.9381 119.922 28.8224 119.343 29.3962C118.763 29.971 117.82 30.3173 116.352 30.3173Z" fill="white"/>
</svg>
