<svg width="625" height="476" viewBox="0 0 625 476" fill="none" xmlns="http://www.w3.org/2000/svg">
<g opacity="0.12">
<path d="M227.973 149.371H380.799C470.791 149.371 543.744 222.324 543.744 312.316C543.744 402.307 470.791 475.26 380.799 475.26H369.591V451.516H380.799C457.677 451.516 519.999 389.194 519.999 312.316C519.999 235.437 457.677 173.115 380.799 173.115H227.973V149.371Z" fill="#4B72FF"/>
<path d="M133.686 300.365C60.3817 248.164 43.2749 146.421 95.4767 73.1169L114.818 86.8903C70.2231 149.512 84.837 236.429 147.459 281.024C166.019 294.241 186.712 302.257 207.806 305.364L200.985 328.329C177.452 324.36 154.43 315.138 133.686 300.365Z" fill="#4B72FF"/>
<path d="M229.015 25.4143L613.898 25.4143L613.898 -7.63744e-05L229.015 0.000126584C183.827 0.000126584 143.419 19.9611 113.439 50.9186L135.085 66.1376C170.283 34.0425 201.305 25.4143 229.015 25.4143Z" fill="#4B72FF"/>
<path fill-rule="evenodd" clip-rule="evenodd" d="M624.395 88.408L624.395 112.216L217.305 112.216C188.851 112.216 165.784 135.283 165.784 163.737C165.784 193.719 191.136 220.394 217.566 220.994L287.91 221.249L287.91 245L217.044 244.733C196.638 244.269 177.875 233.952 164.422 219.303C150.945 204.627 141.976 184.746 141.976 163.737C141.976 122.134 175.702 88.4079 217.305 88.4079L624.395 88.408Z" fill="#4B72FF"/>
<path fill-rule="evenodd" clip-rule="evenodd" d="M402.486 361C437.515 361 465.911 332.604 465.911 297.575C465.911 262.546 437.515 234.15 402.486 234.15C367.457 234.15 339.061 262.546 339.061 297.575C339.061 332.604 367.457 361 402.486 361ZM402.486 336.775C424.135 336.775 441.686 319.224 441.686 297.575C441.686 275.925 424.135 258.375 402.486 258.375C380.836 258.375 363.286 275.925 363.286 297.575C363.286 319.224 380.836 336.775 402.486 336.775Z" fill="#4B72FF"/>
</g>
</svg>
